<svg xmlns="http://www.w3.org/2000/svg" width="148" height="153.737" viewBox="0 0 148 153.737">
  <g id="Grupo_953260" data-name="Grupo 953260" transform="translate(-459.786 -50.329)">
    <circle id="Elipse_7740" data-name="Elipse 7740" cx="74" cy="74" r="74" transform="translate(459.786 55.782)" fill="#e9f0f6"/>
    <g id="Grupo_953259" data-name="Grupo 953259" transform="translate(468.208 50.328)">
      <g id="Grupo_953210" data-name="Grupo 953210" transform="translate(14.117 60.596)">
        <g id="Grupo_953173" data-name="Grupo 953173" transform="translate(0.121 86.846)">
          <path id="Trazado_629076" data-name="Trazado 629076" d="M599.865,353.881h-92.5a1.88,1.88,0,0,1-1.85-1.9v-2.215a1.88,1.88,0,0,1,1.85-1.9h92.5a1.88,1.88,0,0,1,1.85,1.9v2.215A1.88,1.88,0,0,1,599.865,353.881Z" transform="translate(-505.513 -347.87)" fill="#9785a0"/>
        </g>
        <g id="Grupo_953175" data-name="Grupo 953175" transform="translate(0.121 0)">
          <g id="Grupo_953174" data-name="Grupo 953174">
            <rect id="Rectángulo_306726" data-name="Rectángulo 306726" width="28.83" height="89.852" fill="#ffddb0"/>
          </g>
        </g>
        <g id="Grupo_953176" data-name="Grupo 953176" transform="translate(28.904 0)">
          <rect id="Rectángulo_306727" data-name="Rectángulo 306727" width="67.435" height="89.852" fill="#fefceb"/>
        </g>
        <g id="Grupo_953177" data-name="Grupo 953177" transform="translate(78.935 71.062)">
          <path id="Trazado_629077" data-name="Trazado 629077" d="M671.774,330.818a7.4,7.4,0,1,1,7.213-7.4A7.317,7.317,0,0,1,671.774,330.818Zm0-14.553a7.155,7.155,0,1,0,6.971,7.153A7.071,7.071,0,0,0,671.774,316.264Z" transform="translate(-664.561 -316.016)" fill="#4aaad3"/>
        </g>
        <g id="Grupo_953184" data-name="Grupo 953184" transform="translate(57.028 5.887)">
          <g id="Grupo_953180" data-name="Grupo 953180">
            <g id="Grupo_953178" data-name="Grupo 953178" transform="translate(0.121 0.124)">
              <path id="Trazado_629078" data-name="Trazado 629078" d="M626.763,187.907a3.085,3.085,0,1,1-3.084-3.164A3.125,3.125,0,0,1,626.763,187.907Z" transform="translate(-620.596 -184.743)" fill="#fff7e1"/>
            </g>
            <g id="Grupo_953179" data-name="Grupo 953179">
              <path id="Trazado_629079" data-name="Trazado 629079" d="M623.556,191.069a3.289,3.289,0,1,1,3.2-3.288A3.25,3.25,0,0,1,623.556,191.069Zm0-6.327a3.041,3.041,0,1,0,2.962,3.04A3.005,3.005,0,0,0,623.556,184.741Z" transform="translate(-620.352 -184.493)" fill="#4aaad3"/>
            </g>
          </g>
          <g id="Grupo_953183" data-name="Grupo 953183" transform="translate(10.329)">
            <g id="Grupo_953181" data-name="Grupo 953181" transform="translate(0.121 0.124)">
              <path id="Trazado_629080" data-name="Trazado 629080" d="M647.607,187.907a3.084,3.084,0,1,1-3.083-3.164A3.124,3.124,0,0,1,647.607,187.907Z" transform="translate(-641.441 -184.743)" fill="#fff7e1"/>
            </g>
            <g id="Grupo_953182" data-name="Grupo 953182">
              <path id="Trazado_629081" data-name="Trazado 629081" d="M644.4,191.069a3.289,3.289,0,1,1,3.2-3.288A3.25,3.25,0,0,1,644.4,191.069Zm0-6.327a3.041,3.041,0,1,0,2.962,3.04A3.005,3.005,0,0,0,644.4,184.741Z" transform="translate(-641.197 -184.493)" fill="#ff3f00"/>
            </g>
          </g>
        </g>
        <g id="Grupo_953185" data-name="Grupo 953185" transform="translate(0 19.476)">
          <path id="Trazado_629082" data-name="Trazado 629082" d="M601.65,212.163H505.39a.124.124,0,0,1,0-.248h96.26a.124.124,0,0,1,0,.248Z" transform="translate(-505.269 -211.915)" fill="#4aaad3"/>
        </g>
        <g id="Grupo_953186" data-name="Grupo 953186" transform="translate(40.455 27.085)">
          <path id="Trazado_629083" data-name="Trazado 629083" d="M609.074,272.761c-12.223,0-22.167-10.2-22.167-22.746s9.944-22.745,22.167-22.745,22.168,10.2,22.168,22.745S621.3,272.761,609.074,272.761Zm0-45.242c-12.09,0-21.925,10.092-21.925,22.5s9.835,22.5,21.925,22.5S631,262.42,631,250.015,621.164,227.518,609.074,227.518Z" transform="translate(-586.907 -227.27)" fill="#4aaad3"/>
        </g>
        <g id="Grupo_953196" data-name="Grupo 953196" transform="translate(46.186 32.967)">
          <g id="Grupo_953187" data-name="Grupo 953187">
            <path id="Trazado_629084" data-name="Trazado 629084" d="M629.643,263.483a16.9,16.9,0,0,1-2.266,3.506A16.147,16.147,0,0,1,604.2,268.8a16.775,16.775,0,0,1-3.08-3.607,17.268,17.268,0,0,1-.8-16.958,16.9,16.9,0,0,1,2.121-3.215,16.146,16.146,0,0,1,23.175-1.807,16.831,16.831,0,0,1,5.134,8.3A17.282,17.282,0,0,1,629.643,263.483Z" transform="translate(-598.474 -239.14)" fill="#a2e9ec"/>
          </g>
          <path id="Trazado_629085" data-name="Trazado 629085" d="M632.339,282.276a16.9,16.9,0,0,1-2.266,3.506,16.147,16.147,0,0,1-23.175,1.807,16.774,16.774,0,0,1-3.08-3.607,6.481,6.481,0,0,0,6.9-1.226c5.7-4.918,12.662-9.851,19.626-2.977A12.233,12.233,0,0,1,632.339,282.276Z" transform="translate(-601.17 -257.932)" fill="#f7af9f"/>
          <path id="Trazado_629086" data-name="Trazado 629086" d="M632.63,251.508c-2.989-1.063-5.945-7.888-7.9-4.972-2.815,4.2-13.013,11.952-13.291,2.686-.174-5.8-5.374-3.512-9.237-.99a16.905,16.905,0,0,1,2.121-3.215A16.146,16.146,0,0,1,627.5,243.21,16.831,16.831,0,0,1,632.63,251.508Z" transform="translate(-600.354 -239.14)" fill="#64ccc9"/>
          <g id="Grupo_953188" data-name="Grupo 953188" transform="translate(25.114 14.15)">
            <path id="Trazado_629087" data-name="Trazado 629087" d="M651.905,273.341a2.824,2.824,0,1,1,2.751-2.823A2.791,2.791,0,0,1,651.905,273.341Zm0-5.371a2.549,2.549,0,1,0,2.484,2.549A2.52,2.52,0,0,0,651.905,267.97Z" transform="translate(-649.154 -267.695)" fill="#fefceb"/>
          </g>
          <g id="Grupo_953189" data-name="Grupo 953189" transform="translate(11.493 9.193)">
            <path id="Trazado_629088" data-name="Trazado 629088" d="M623.406,261.258a1.784,1.784,0,1,1,1.738-1.783A1.764,1.764,0,0,1,623.406,261.258Zm0-3.292a1.509,1.509,0,1,0,1.47,1.509A1.492,1.492,0,0,0,623.406,257.966Z" transform="translate(-621.668 -257.691)" fill="#fefceb"/>
          </g>
          <g id="Grupo_953190" data-name="Grupo 953190" transform="translate(18.159 12.985)">
            <path id="Trazado_629089" data-name="Trazado 629089" d="M636.208,267.577a1.117,1.117,0,1,1,1.088-1.116A1.1,1.1,0,0,1,636.208,267.577Zm0-2.049a.933.933,0,1,0,.909.933A.923.923,0,0,0,636.208,265.528Z" transform="translate(-635.12 -265.345)" fill="#fefceb"/>
          </g>
          <g id="Grupo_953191" data-name="Grupo 953191" transform="translate(26.94 10.176)">
            <path id="Trazado_629090" data-name="Trazado 629090" d="M654.577,263.242a1.784,1.784,0,1,1,1.738-1.783A1.763,1.763,0,0,1,654.577,263.242Zm0-3.292a1.509,1.509,0,1,0,1.471,1.509A1.492,1.492,0,0,0,654.577,259.95Z" transform="translate(-652.839 -259.675)" fill="#fefceb"/>
          </g>
          <g id="Grupo_953192" data-name="Grupo 953192" transform="translate(14.697 13.993)">
            <path id="Trazado_629091" data-name="Trazado 629091" d="M629.871,270.946a1.784,1.784,0,1,1,1.738-1.783A1.763,1.763,0,0,1,629.871,270.946Zm0-3.292a1.509,1.509,0,1,0,1.471,1.508A1.492,1.492,0,0,0,629.871,267.654Z" transform="translate(-628.133 -267.379)" fill="#fefceb"/>
          </g>
          <g id="Grupo_953193" data-name="Grupo 953193" transform="translate(24.487 7.799)">
            <path id="Trazado_629092" data-name="Trazado 629092" d="M649.382,257.94a1.531,1.531,0,1,1,1.492-1.531A1.513,1.513,0,0,1,649.382,257.94Zm0-2.787a1.257,1.257,0,1,0,1.224,1.256A1.242,1.242,0,0,0,649.382,255.154Z" transform="translate(-647.89 -254.879)" fill="#fefceb"/>
          </g>
          <g id="Grupo_953194" data-name="Grupo 953194" transform="translate(21.037 10.586)">
            <path id="Trazado_629093" data-name="Trazado 629093" d="M643.523,265.831a2.665,2.665,0,1,1,2.6-2.664A2.633,2.633,0,0,1,643.523,265.831Zm0-5.053a2.39,2.39,0,1,0,2.328,2.389A2.363,2.363,0,0,0,643.523,260.778Z" transform="translate(-640.927 -260.503)" fill="#fefceb"/>
          </g>
          <g id="Grupo_953195" data-name="Grupo 953195" transform="translate(12.308 5.199)">
            <path id="Trazado_629094" data-name="Trazado 629094" d="M625.049,253.2a1.784,1.784,0,1,1,1.738-1.783A1.763,1.763,0,0,1,625.049,253.2Zm0-3.292a1.509,1.509,0,1,0,1.471,1.509A1.492,1.492,0,0,0,625.049,249.907Z" transform="translate(-623.311 -249.632)" fill="#fefceb"/>
          </g>
        </g>
        <g id="Grupo_953199" data-name="Grupo 953199" transform="translate(48.625 35.626)">
          <g id="Grupo_953197" data-name="Grupo 953197" transform="translate(0 11.762)">
            <path id="Trazado_629095" data-name="Trazado 629095" d="M603.63,273.233a.121.121,0,0,1-.119-.108,15.178,15.178,0,0,1,.164-4.782.121.121,0,0,1,.142-.1.125.125,0,0,1,.1.146,14.927,14.927,0,0,0-.162,4.7.123.123,0,0,1-.1.139Z" transform="translate(-603.394 -268.242)" fill="#fff7e1"/>
          </g>
          <g id="Grupo_953198" data-name="Grupo 953198" transform="translate(3.447)">
            <path id="Trazado_629096" data-name="Trazado 629096" d="M610.471,249.861a.117.117,0,0,1-.079-.03.126.126,0,0,1-.013-.175,14.147,14.147,0,0,1,20.3-1.583.126.126,0,0,1,.013.175.118.118,0,0,1-.171.013,13.909,13.909,0,0,0-19.964,1.557A.118.118,0,0,1,610.471,249.861Z" transform="translate(-610.35 -244.506)" fill="#fff7e1"/>
          </g>
        </g>
        <g id="Grupo_953200" data-name="Grupo 953200" transform="translate(84.639 70.379)">
          <rect id="Rectángulo_306728" data-name="Rectángulo 306728" width="2.775" height="3.896" rx="1.388" transform="translate(0.121 0.124)" fill="#fefceb"/>
          <path id="Trazado_629097" data-name="Trazado 629097" d="M678.093,318.783H677.07a1.012,1.012,0,0,1-1-1.023v-2.1a1.012,1.012,0,0,1,1-1.023h1.023a1.012,1.012,0,0,1,1,1.023v2.1A1.012,1.012,0,0,1,678.093,318.783Zm-1.023-3.9a.766.766,0,0,0-.755.775v2.1a.766.766,0,0,0,.755.775h1.023a.766.766,0,0,0,.755-.775v-2.1a.766.766,0,0,0-.755-.775Z" transform="translate(-676.073 -314.638)" fill="#4aaad3"/>
        </g>
        <g id="Grupo_953203" data-name="Grupo 953203" transform="translate(76.469 43.695)">
          <g id="Grupo_953201" data-name="Grupo 953201" transform="translate(0.121 0.124)">
            <path id="Trazado_629098" data-name="Trazado 629098" d="M667.494,273.062h-3.611a4.121,4.121,0,0,1-4.055-4.161v-3.7a4.121,4.121,0,0,1,4.055-4.16h3.611a1.3,1.3,0,0,1,1.276,1.309v9.4A1.3,1.3,0,0,1,667.494,273.062Z" transform="translate(-659.828 -261.04)" fill="#fff7e1"/>
          </g>
          <g id="Grupo_953202" data-name="Grupo 953202">
            <path id="Trazado_629099" data-name="Trazado 629099" d="M667.371,273.059H663.76a4.236,4.236,0,0,1-4.176-4.285v-3.7a4.236,4.236,0,0,1,4.176-4.285h3.611a1.417,1.417,0,0,1,1.4,1.433v9.4A1.417,1.417,0,0,1,667.371,273.059Zm-3.611-12.022a3.991,3.991,0,0,0-3.934,4.037v3.7a3.991,3.991,0,0,0,3.934,4.037h3.611a1.171,1.171,0,0,0,1.155-1.184v-9.4a1.171,1.171,0,0,0-1.155-1.185Z" transform="translate(-659.584 -260.789)" fill="#4aaad3"/>
          </g>
        </g>
        <g id="Grupo_953206" data-name="Grupo 953206" transform="translate(33.455 2.882)">
          <g id="Grupo_953204" data-name="Grupo 953204" transform="translate(0.121 0.124)">
            <path id="Trazado_629100" data-name="Trazado 629100" d="M587.98,183.9h-13.1a1.88,1.88,0,0,1-1.85-1.9v-1.424a1.88,1.88,0,0,1,1.85-1.9h13.1a1.881,1.881,0,0,1,1.85,1.9V182A1.881,1.881,0,0,1,587.98,183.9Z" transform="translate(-573.026 -178.678)" fill="#fff7e1"/>
          </g>
          <g id="Grupo_953205" data-name="Grupo 953205">
            <path id="Trazado_629101" data-name="Trazado 629101" d="M587.857,183.9h-13.1a2,2,0,0,1-1.971-2.022V180.45a2,2,0,0,1,1.971-2.022h13.1a2,2,0,0,1,1.971,2.022v1.424A2,2,0,0,1,587.857,183.9Zm-13.1-5.22a1.754,1.754,0,0,0-1.729,1.775v1.424a1.754,1.754,0,0,0,1.729,1.774h13.1a1.754,1.754,0,0,0,1.729-1.774V180.45a1.755,1.755,0,0,0-1.729-1.775Z" transform="translate(-572.782 -178.428)" fill="#4aaad3"/>
          </g>
        </g>
        <g id="Grupo_953208" data-name="Grupo 953208" transform="translate(31.297 2.407)">
          <g id="Grupo_953207" data-name="Grupo 953207">
            <path id="Trazado_629102" data-name="Trazado 629102" d="M589.329,177.72v13.288H568.67V177.72H573.6v.633a1.88,1.88,0,0,0,1.85,1.9H582.7a1.88,1.88,0,0,0,1.85-1.9v-.633Z" transform="translate(-568.549 -177.596)" fill="#fefceb"/>
            <path id="Trazado_629103" data-name="Trazado 629103" d="M589.206,191.006H568.547a.122.122,0,0,1-.121-.124V177.594a.122.122,0,0,1,.121-.124h4.934a.122.122,0,0,1,.121.124v.633A1.754,1.754,0,0,0,575.33,180h7.246a1.754,1.754,0,0,0,1.729-1.775v-.633a.122.122,0,0,1,.121-.124h4.779a.122.122,0,0,1,.121.124v13.288A.122.122,0,0,1,589.206,191.006Zm-20.538-.248h20.417v-13.04h-4.538v.508a2,2,0,0,1-1.971,2.022H575.33a2,2,0,0,1-1.971-2.022v-.508h-4.692Z" transform="translate(-568.426 -177.47)" fill="#4aaad3"/>
          </g>
        </g>
        <g id="Grupo_953209" data-name="Grupo 953209" transform="translate(79.86 2.249)">
          <ellipse id="Elipse_7741" data-name="Elipse 7741" cx="6.629" cy="6.802" rx="6.629" ry="6.802" transform="translate(0.121 0.124)" fill="#fff7e1"/>
          <path id="Trazado_629104" data-name="Trazado 629104" d="M673.178,191a6.928,6.928,0,1,1,6.751-6.926A6.848,6.848,0,0,1,673.178,191Zm0-13.6a6.68,6.68,0,1,0,6.508,6.678A6.6,6.6,0,0,0,673.178,177.4Z" transform="translate(-666.428 -177.151)" fill="#4aaad3"/>
        </g>
      </g>
      <g id="Grupo_953219" data-name="Grupo 953219" transform="translate(89.002 36.771)">
        <g id="Grupo_953214" data-name="Grupo 953214" transform="translate(4.071)">
          <g id="Grupo_953211" data-name="Grupo 953211" transform="translate(0.441)">
            <rect id="Rectángulo_306729" data-name="Rectángulo 306729" width="6.004" height="4.503" fill="#f4d095"/>
          </g>
          <g id="Grupo_953212" data-name="Grupo 953212" transform="translate(0.441 0.045)">
            <path id="Trazado_629105" data-name="Trazado 629105" d="M665.493,126.432l5.994-1.81v4.452H665.55Z" transform="translate(-665.493 -124.623)" fill="#ffbc39"/>
          </g>
          <g id="Grupo_953213" data-name="Grupo 953213" transform="translate(0 1.854)">
            <rect id="Rectángulo_306730" data-name="Rectángulo 306730" width="6.887" height="3.267" fill="#f7c2b5"/>
          </g>
        </g>
        <g id="Grupo_953216" data-name="Grupo 953216" transform="translate(1.958 6.892)">
          <g id="Grupo_953215" data-name="Grupo 953215">
            <path id="Trazado_629106" data-name="Trazado 629106" d="M669.828,138.571c-.077-.016-.156-.031-.235-.043-.179-.03-.358-.052-.537-.067a7.8,7.8,0,0,0-7.051,3.965,10.86,10.86,0,0,0-1.513,4.032,9.958,9.958,0,0,0,2.06,8.147h10.323a10.514,10.514,0,0,0,2.776-5.636C676.476,143.991,673.879,139.4,669.828,138.571Zm3.3,6.667a.8.8,0,0,1-1.046-.409c-.109-.25-.229-.493-.356-.729a7.855,7.855,0,0,0-1.9-2.383,4.629,4.629,0,0,0-.42-.3.794.794,0,1,1,.842-1.345,9.286,9.286,0,0,1,3.288,4.12A.8.8,0,0,1,673.13,145.238Z" transform="translate(-660.339 -138.441)" fill="#9785a0"/>
          </g>
        </g>
        <g id="Grupo_953217" data-name="Grupo 953217" transform="translate(0 3.46)">
          <path id="Trazado_629107" data-name="Trazado 629107" d="M669.141,151.112h-8.7a16.026,16.026,0,0,1-3.195-5.889c-1.84-5.91-.62-11.86,2.723-13.36l.076-.033a3.843,3.843,0,0,1,.414-.149,4.051,4.051,0,0,1,.442-.1l.036-.006a5.083,5.083,0,0,1,3.678.982l.01.006a8.55,8.55,0,0,1,.8.618,11.392,11.392,0,0,1,1.641,1.791q.4.54.772,1.151c.073.121.145.243.214.368a.794.794,0,0,0-.635,1.438,4.648,4.648,0,0,1,.42.3,7.857,7.857,0,0,1,1.9,2.383C670.849,144.637,670.551,148.614,669.141,151.112Z" transform="translate(-656.388 -131.516)" fill="#9785a0"/>
        </g>
        <g id="Grupo_953218" data-name="Grupo 953218" transform="translate(3.58 3.01)">
          <path id="Trazado_629108" data-name="Trazado 629108" d="M671.48,130.608V136a.794.794,0,0,0-.42,1.467,4.658,4.658,0,0,1,.42.3v.709h-7.867v-7.867Z" transform="translate(-663.613 -130.608)" fill="#9785a0"/>
        </g>
      </g>
      <g id="Grupo_953255" data-name="Grupo 953255">
        <path id="Trazado_629109" data-name="Trazado 629109" d="M511.789,67.614s-.588-.588-2.606-2.929.4-8.881,5.732-7.912S520.89,61.7,520.89,61.7Z" transform="translate(-492.77 -53.53)" fill="#8e685c"/>
        <g id="Grupo_953254" data-name="Grupo 953254">
          <g id="Grupo_953237" data-name="Grupo 953237" transform="translate(3.805 5.531)">
            <g id="Grupo_953236" data-name="Grupo 953236">
              <g id="Grupo_953235" data-name="Grupo 953235">
                <g id="Grupo_953234" data-name="Grupo 953234">
                  <g id="Grupo_953223" data-name="Grupo 953223" transform="translate(10.192)">
                    <g id="Grupo_953220" data-name="Grupo 953220" transform="translate(0 3.973)">
                      <path id="Trazado_629110" data-name="Trazado 629110" d="M515.584,73.046s0,.079-.041.477c-.048.509-.158,1.541-.4,3.6-.143,1.188-.326,2.717-.567,4.685h0c-.1.787-.2,1.645-.32,2.58-.15,1.211-.32,2.546-.508,4.026a2.614,2.614,0,0,1-2.33,2.279,7.143,7.143,0,0,1-5.6-2.245,2.581,2.581,0,0,1-.625-2.76l3.654-9.731.752-2,.336-.9,1.176-3.134.157-.415.157.129,3.566,2.923Z" transform="translate(-505.026 -69.506)" fill="#8e685c"/>
                      <path id="Trazado_629111" data-name="Trazado 629111" d="M520.5,73.99c-.051.495-.165,1.5-.414,3.491-.148,1.153-.337,2.637-.586,4.548h0c-1.312.235-2.869-.18-3.965-2.687a9.961,9.961,0,0,1-.859-4.9c.021-.235.051-.462.088-.682a7.025,7.025,0,0,1,1.085-2.818,3.81,3.81,0,0,1,.336-.419,2.46,2.46,0,0,1,.308-.279.915.915,0,0,1,.539-.221c.537.009,1.8,1.214,2.934,3.031C520.149,73.353,520.329,73.665,520.5,73.99Z" transform="translate(-509.877 -69.769)" fill="#7f594f"/>
                    </g>
                    <g id="Grupo_953222" data-name="Grupo 953222" transform="translate(4.085)">
                      <g id="Grupo_953221" data-name="Grupo 953221">
                        <path id="Trazado_629112" data-name="Trazado 629112" d="M523.293,64.159s3.038,10.339-.033,10.778c-3.9.557-8.516-.533-9.8-4.191-.922-2.623,1.85-8.643,1.85-8.643S521.89,59.784,523.293,64.159Z" transform="translate(-513.271 -61.489)" fill="#8e685c"/>
                      </g>
                    </g>
                  </g>
                  <g id="Grupo_953233" data-name="Grupo 953233" transform="translate(0 14.414)">
                    <g id="Grupo_953228" data-name="Grupo 953228" transform="translate(6.869 15.672)">
                      <g id="Grupo_953227" data-name="Grupo 953227">
                        <g id="Grupo_953224" data-name="Grupo 953224" transform="translate(0 1.785)">
                          <path id="Trazado_629113" data-name="Trazado 629113" d="M535.68,125.8l.169,4.424s-17.837,9.975-27.717,12.36c-4.512,1.09-7.365.6-6.1-3.152a17.321,17.321,0,0,0,.814-3.84c.44-4.137-.3-5.511,10.79-6.615A208.374,208.374,0,0,0,535.68,125.8Z" transform="translate(-500.041 -125.804)" fill="#7f594f"/>
                          <path id="Trazado_629114" data-name="Trazado 629114" d="M504.651,134.686l-1.557,12.926c-3.322.285-6.348-1.4-3.861-4.885.994-1.394,1.919-6.359,2.406-7.417Z" transform="translate(-498.32 -130.285)" fill="#7f594f"/>
                        </g>
                        <g id="Grupo_953226" data-name="Grupo 953226" transform="translate(33.39)">
                          <g id="Grupo_953225" data-name="Grupo 953225" transform="translate(0 0.342)">
                            <path id="Trazado_629115" data-name="Trazado 629115" d="M565.729,128.974s3.559,1.107,6.267-.128c1.3-.593,3.307-1.509,3.535-1.957.121-.24-.845-.1-1.06-.05l-1.887.276a16.407,16.407,0,0,1,4.308-.81c.237-.019.338-.331.135-.424a5.109,5.109,0,0,0-4,.074,5.574,5.574,0,0,1,4.246-.554c.58.144.359-.362.255-.463-1.82-1.774-4.581-.428-4.581-.428a17.166,17.166,0,0,1,4.229-.508.175.175,0,0,0,.11-.31c-.918-.729-3.327-1.791-10.61,1.156C565.446,128.708,565.729,128.974,565.729,128.974Z" transform="translate(-565.701 -122.892)" fill="#7f594f"/>
                          </g>
                          <path id="Trazado_629116" data-name="Trazado 629116" d="M567.6,124.534s3.184-2.507,4.5-2.322.919.558.275.929a20.4,20.4,0,0,0-2.54,2.842Z" transform="translate(-566.658 -122.202)" fill="#7f594f"/>
                        </g>
                      </g>
                    </g>
                    <g id="Grupo_953229" data-name="Grupo 953229" transform="translate(0.565 89.981)">
                      <path id="Trazado_629117" data-name="Trazado 629117" d="M502.623,272.159l-.478,1.917-7.872,36.605-8.675-3.543,3.415-34.979Z" transform="translate(-485.599 -272.159)" fill="#7f594f"/>
                    </g>
                    <path id="Trazado_629118" data-name="Trazado 629118" d="M486.143,217.762c.344,1.633,1.442,4.825,1.382,6.483-.065,1.793-1.735,3.076-1.914,5.17-.111,1.3.464,2.7.677,4.09a16.888,16.888,0,0,1,8.577-1.9,22.373,22.373,0,0,1,7.728,1.37c1.22-6.947,2.383-13.625,3.053-17.625-4.162-22.149-4.353-33.829-4.353-33.829S477.5,180.138,488.081,207.1C488.262,207.566,486.038,217.263,486.143,217.762Z" transform="translate(-484.919 -136.448)" fill="#d3422a"/>
                    <g id="Grupo_953230" data-name="Grupo 953230" transform="translate(10.871 89.981)">
                      <path id="Trazado_629119" data-name="Trazado 629119" d="M523.421,272.159l-.478,1.917-7.872,36.605-8.675-3.543,3.415-34.979Z" transform="translate(-506.397 -272.159)" fill="#8e685c"/>
                    </g>
                    <path id="Trazado_629120" data-name="Trazado 629120" d="M492.562,204.172c3.892,4.141,4.259,12.692,4.022,19.089-.119,3.23-.383,6.822-.709,10.387a31.2,31.2,0,0,1,11.875-3.372c2.219.007,5.2,1.3,7.257,1.912-.057-.3-.753-2.583-.727-2.906.224-2.746,1.619-1.989,1.495-4.481-.118-2.369-1.777-4.265-1.777-6.042,0-3.143,1.839-6.025,1.3-9.121-3.275-18.918-3.854-28.384-3.854-28.384l-23.628-.757.118,5.094-.049.178C486.069,192.439,486.265,197.471,492.562,204.172Z" transform="translate(-485.686 -135.938)" fill="#eb6449"/>
                    <g id="Grupo_953232" data-name="Grupo 953232">
                      <g id="Grupo_953231" data-name="Grupo 953231">
                        <path id="Trazado_629121" data-name="Trazado 629121" d="M484.459,145.115a12.12,12.12,0,0,0,5.285,1.963c9.838,1.4,23.145-5.872,23.145-5.872s.506-3.778.764-9.177c.322-6.7.263-15.909-1.619-23.481a27.453,27.453,0,0,0-3.164-7.942,11.275,11.275,0,0,0-7.826-5.6c-14.942-2.407-11.8,25.579-14.439,42.345-.145.92-.307,1.808-.491,2.654A22.88,22.88,0,0,1,484.459,145.115Z" transform="translate(-484.459 -92.738)" fill="#fefceb"/>
                        <path id="Trazado_629122" data-name="Trazado 629122" d="M506.087,90.576a15.1,15.1,0,0,0,9.29,1.545,26.737,26.737,0,0,1,.674,3.07s-7.682,2.117-11.033-.793A9.8,9.8,0,0,0,506.087,90.576Z" transform="translate(-494.83 -90.576)" fill="#ffeed2"/>
                      </g>
                    </g>
                  </g>
                </g>
              </g>
            </g>
          </g>
          <g id="Grupo_953238" data-name="Grupo 953238" transform="translate(0 141.707)">
            <path id="Trazado_629123" data-name="Trazado 629123" d="M484.629,336.3a28.883,28.883,0,0,1-.661,4.6c-.558,2.276-1.485,4.3-.113,5.005h15.93a1.033,1.033,0,0,0,1.019-1.2c-.223-1.369-1.545-3.441-7.445-3.6C490.332,336.3,484.629,336.3,484.629,336.3Z" transform="translate(-479.989 -336.296)" fill="#7f594f"/>
            <path id="Trazado_629124" data-name="Trazado 629124" d="M499.82,345.042c-.844-1.4-6.826-2.963-8.686-3.421a.314.314,0,0,0-.389.306v2.587a3.445,3.445,0,0,1-3.445,3.445h-9.371a1.148,1.148,0,0,0-1.148,1.111H500.71A8.273,8.273,0,0,0,499.82,345.042Z" transform="translate(-476.781 -338.977)" fill="#ffcf61"/>
          </g>
          <g id="Grupo_953239" data-name="Grupo 953239" transform="translate(10.173 143.645)">
            <path id="Trazado_629125" data-name="Trazado 629125" d="M505.159,340.206a28.921,28.921,0,0,1-.661,4.6c-.558,2.276-1.486,4.3-.113,5.006h15.929a1.033,1.033,0,0,0,1.019-1.2c-.223-1.369-1.545-3.441-7.445-3.6C510.861,340.206,505.159,340.206,505.159,340.206Z" transform="translate(-500.518 -340.206)" fill="#8e685c"/>
            <path id="Trazado_629126" data-name="Trazado 629126" d="M520.349,348.952c-.844-1.4-6.826-2.963-8.686-3.421a.314.314,0,0,0-.389.306v2.586a3.445,3.445,0,0,1-3.445,3.445h-9.371a1.149,1.149,0,0,0-1.148,1.111h23.929A8.273,8.273,0,0,0,520.349,348.952Z" transform="translate(-497.31 -342.888)" fill="#ffcf61"/>
          </g>
          <g id="Grupo_953240" data-name="Grupo 953240" transform="translate(11.089)">
            <path id="Trazado_629127" data-name="Trazado 629127" d="M516.108,56.639s.081,1.211-5.005,1.211c.391,1.709-2.876,2.851-2.876,2.851s-.067,5.223-2.372,5.546c-3.23-.646-7.891-5.167-6.416-9.608s6.27-4.6,6.27-4.6,1.383-1.776,2.766-1.13c.553-.807,2.858-.807,3.6.242,2.582-.565,3.227,1.13,3.227,1.13S517.584,54.7,516.108,56.639Z" transform="translate(-499.158 -50.328)" fill="#2d292a"/>
            <path id="Trazado_629128" data-name="Trazado 629128" d="M514.642,73.264a1.426,1.426,0,1,0,.566-2.149A1.59,1.59,0,0,0,514.642,73.264Z" transform="translate(-506.877 -60.764)" fill="#8e685c"/>
          </g>
          <g id="Grupo_953244" data-name="Grupo 953244" transform="translate(46.829 27.176)">
            <g id="Grupo_953243" data-name="Grupo 953243" transform="translate(0)">
              <path id="Trazado_629129" data-name="Trazado 629129" d="M602.9,105.521l-14.635,6.317,3.552,8.228,18.548-8.006-1.863-4.316A4.261,4.261,0,0,0,602.9,105.521Zm1.866,5.859a1.093,1.093,0,0,1-.837,1.511l-6.856,1.066a1.094,1.094,0,1,1-.337-2.161l6.855-1.067A1.1,1.1,0,0,1,604.763,111.38Zm-6.181-.356c-.031.013-.061.025-.092.034h0a.987.987,0,0,1-.694-1.846l6.56-2.832a.987.987,0,1,1,.782,1.813l-.514.222h0Z" transform="translate(-579.848 -105.171)" fill="#4bbcb6"/>
              <g id="Grupo_953242" data-name="Grupo 953242" transform="translate(0 2.944)">
                <g id="Grupo_953241" data-name="Grupo 953241" transform="translate(26.849 0)">
                  <rect id="Rectángulo_306731" data-name="Rectángulo 306731" width="6.76" height="5.07" transform="matrix(-0.396, -0.918, 0.918, -0.396, 3.515, 8.216)" fill="#ffeb88"/>
                  <path id="Trazado_629130" data-name="Trazado 629130" d="M632.581,118.178l-.8-7-4.6,1.987,2.649,6.136Z" transform="translate(-626.328 -111.144)" fill="#ffeb88"/>
                  <rect id="Rectángulo_306732" data-name="Rectángulo 306732" width="7.754" height="3.678" transform="matrix(-0.396, -0.918, 0.918, -0.396, 3.073, 8.948)" fill="#ffeb88"/>
                </g>
                <rect id="Rectángulo_306733" data-name="Rectángulo 306733" width="10.637" height="18.987" rx="2.834" transform="translate(0 7.355) rotate(-23.348)" fill="#4bbcb6"/>
                <path id="Trazado_629131" data-name="Trazado 629131" d="M587.856,115.132h0a3.43,3.43,0,0,0-.466.274,1.7,1.7,0,0,0-.859,2.07l6.171,14.3c.382.884,1.455,1.071,2.614.644h0a5.011,5.011,0,0,0,1.335-.758l14.064-10.991a1.227,1.227,0,0,0,.357-1.136h0a1.46,1.46,0,0,0-.106-.375l-2.727-6.318a1.506,1.506,0,0,0-.267-.414,1.186,1.186,0,0,0-1.005-.44l-5.559.85-3.759,1.622c-.031.013-.061.025-.092.034h0a.986.986,0,0,1-1.282-.873l-.42.065-6.53,1A4.966,4.966,0,0,0,587.856,115.132Zm15.975-.32a1.081,1.081,0,0,1,.076.263,1.1,1.1,0,0,1-.912,1.248l-6.856,1.066a1.094,1.094,0,1,1-.337-2.161l6.855-1.067A1.1,1.1,0,0,1,603.831,114.812Z" transform="translate(-578.916 -111.548)" fill="#4bbcb6"/>
                <path id="Trazado_629132" data-name="Trazado 629132" d="M603.5,118.692a1.1,1.1,0,0,0,1.249.912l6.856-1.066a1.1,1.1,0,0,0,.912-1.247,1.068,1.068,0,0,0-.075-.264,1.1,1.1,0,0,0-1.174-.65l-6.856,1.066A1.1,1.1,0,0,0,603.5,118.692Z" transform="translate(-587.53 -113.762)" fill="#4bbcb6"/>
              </g>
            </g>
            <path id="Trazado_629133" data-name="Trazado 629133" d="M606.466,113.328l-.326.141a1.114,1.114,0,0,0-.682.9.893.893,0,0,0,.068.44,1.049,1.049,0,0,0,1.394.472l.24-.1a.987.987,0,0,1-.694-1.846Z" transform="translate(-588.521 -109.286)" fill="#64ccc9"/>
          </g>
          <g id="Grupo_953253" data-name="Grupo 953253" transform="translate(13.117 27.321)">
            <g id="Grupo_953248" data-name="Grupo 953248" transform="translate(11.279 16.841)">
              <g id="Grupo_953245" data-name="Grupo 953245" transform="translate(0 3.319)">
                <path id="Trazado_629134" data-name="Trazado 629134" d="M563.813,146.146l-.37,5.839s-19.421,6.362-29.576,6.8c-4.638.2-7.342-.829-5.381-4.265a17.342,17.342,0,0,0,1.537-3.612c1.226-3.975.761-5.466,11.859-4.418C555.875,147.814,563.813,146.146,563.813,146.146Z" transform="translate(-526.933 -146.146)" fill="#8e685c"/>
                <path id="Trazado_629135" data-name="Trazado 629135" d="M536.445,146.361l-8.639,11.788a3.187,3.187,0,0,1-1.07-4.891c1.08-1.328,3.106-5.872,3.786-6.816Z" transform="translate(-526.011 -146.254)" fill="#7f594f"/>
              </g>
              <g id="Grupo_953247" data-name="Grupo 953247" transform="translate(34.943)">
                <g id="Grupo_953246" data-name="Grupo 953246">
                  <path id="Trazado_629136" data-name="Trazado 629136" d="M597.081,148.586s3.721-.207,5.827-2.31c1.01-1.009,2.572-2.569,2.629-3.069.031-.267-.825.206-1.01.324l-1.672.918a16.421,16.421,0,0,1,3.754-2.264c.216-.1.2-.428-.022-.444a5.11,5.11,0,0,0-3.724,1.468,5.575,5.575,0,0,1,3.785-2c.593-.067.21-.464.077-.523-2.325-1.026-4.441,1.2-4.441,1.2a17.167,17.167,0,0,1,3.785-1.954.175.175,0,0,0-.006-.329c-1.114-.362-3.743-.516-9.537,4.789C596.722,148.436,597.081,148.586,597.081,148.586Z" transform="translate(-596.526 -139.448)" fill="#8e685c"/>
                </g>
                <path id="Trazado_629137" data-name="Trazado 629137" d="M597.7,143.933s2.693-3.029,4.024-3.078,1,.388.434.866a20.4,20.4,0,0,0-2,3.245Z" transform="translate(-597.12 -140.156)" fill="#8e685c"/>
              </g>
            </g>
            <g id="Grupo_953252" data-name="Grupo 953252">
              <g id="Grupo_953251" data-name="Grupo 953251">
                <path id="Trazado_629138" data-name="Trazado 629138" d="M514.79,135.9l1.7-2.02,8.472-8.153s-4.728-12.827-11.317-18.273c-2.709-2.239-5.686-2.91-8.694-.344C497.957,113.074,514.79,135.9,514.79,135.9Z" transform="translate(-503.251 -105.462)" fill="#ffeed2"/>
                <path id="Trazado_629139" data-name="Trazado 629139" d="M520.825,135.811l8.472-8.153s-4.728-12.827-11.317-18.273a5.177,5.177,0,0,0-4.538,1.376C507.86,115.521,518.486,132.279,520.825,135.811Z" transform="translate(-507.584 -107.391)" fill="#ffeed2"/>
                <g id="Grupo_953249" data-name="Grupo 953249" transform="translate(11.049 19.502)">
                  <path id="Trazado_629140" data-name="Trazado 629140" d="M525.642,153.771a.1.1,0,0,1-.061-.175l10.06-8.755a.1.1,0,1,1,.131.151l-10.06,8.755A.1.1,0,0,1,525.642,153.771Z" transform="translate(-525.548 -144.817)" fill="#fff"/>
                </g>
                <g id="Grupo_953250" data-name="Grupo 953250" transform="translate(11.879 18.522)">
                  <path id="Trazado_629141" data-name="Trazado 629141" d="M527.317,150.664a.1.1,0,0,1-.06-.175l8.761-7.626a.1.1,0,1,1,.131.151l-8.761,7.626A.1.1,0,0,1,527.317,150.664Z" transform="translate(-527.223 -142.839)" fill="#fff"/>
                </g>
              </g>
            </g>
          </g>
        </g>
      </g>
      <g id="Grupo_953258" data-name="Grupo 953258" transform="translate(113.505 44.735)">
        <g id="Grupo_953256" data-name="Grupo 953256" transform="translate(0 4.036)">
          <path id="Trazado_629142" data-name="Trazado 629142" d="M713.91,154.93c-2.229,0-4.037,2.768-4.037,6.182,0-3.414-1.808-6.182-4.037-6.182,2.229,0,4.037-2.769,4.037-6.182C709.874,152.162,711.681,154.93,713.91,154.93Z" transform="translate(-705.837 -148.748)" fill="#fff"/>
        </g>
        <g id="Grupo_953257" data-name="Grupo 953257" transform="translate(5.439)">
          <path id="Trazado_629143" data-name="Trazado 629143" d="M722.082,144.64c-1.455,0-2.635,1.807-2.635,4.036,0-2.228-1.18-4.036-2.635-4.036,1.455,0,2.635-1.807,2.635-4.036C719.447,142.832,720.627,144.64,722.082,144.64Z" transform="translate(-716.812 -140.604)" fill="#fff"/>
        </g>
      </g>
    </g>
  </g>
</svg>
