<svg xmlns="http://www.w3.org/2000/svg" xmlns:xlink="http://www.w3.org/1999/xlink" width="158" height="149.545" viewBox="0 0 158 149.545">
  <defs>
    <clipPath id="clip-path">
      <ellipse id="Elipse_7747" data-name="Elipse 7747" cx="79" cy="74.773" rx="79" ry="74.773" transform="translate(0 0)" fill="none"/>
    </clipPath>
  </defs>
  <g id="Grupo_954456" data-name="Grupo 954456" transform="translate(-302.181 -161.305)">
    <g id="Grupo_954455" data-name="Grupo 954455" transform="translate(302.181 161.305)" clip-path="url(#clip-path)">
      <ellipse id="Elipse_7745" data-name="Elipse 7745" cx="72.913" cy="68.305" rx="72.913" ry="68.305" transform="translate(4.603 8.087) rotate(-1.26)" fill="#b4d2f5"/>
      <ellipse id="Elipse_7746" data-name="Elipse 7746" cx="76.549" cy="71.711" rx="76.549" ry="71.711" transform="translate(0.885 4.771) rotate(-1.266)" fill="none" stroke="#b4d2f5" stroke-miterlimit="22.926" stroke-width="2.77"/>
      <g id="Grupo_954441" data-name="Grupo 954441" transform="translate(30.705 16)">
        <path id="Trazado_629423" data-name="Trazado 629423" d="M516.123,964.293c0,1.275-15.569,2.308-34.775,2.308s-34.775-1.034-34.775-2.308,15.569-2.309,34.775-2.309S516.123,963.019,516.123,964.293Z" transform="translate(-432.892 -731.851)" fill="#3475c6" fill-rule="evenodd"/>
        <g id="Grupo_954440" data-name="Grupo 954440">
          <path id="Trazado_629424" data-name="Trazado 629424" d="M498.548,911.64c-.8,9.353,2.81,8.708,1.224,15.948-3.071,1.828-11.466,3.58-19.035,2.654-1.813-.288-2.1-1.381-1.414-2.86,2.016-3.7,4.139-5.972,9.773-9.745,1.885-1.5,1.9-2.665,1.9-6.032Z" transform="translate(-455.338 -696.958)" fill="#fd9c8a" fill-rule="evenodd"/>
          <path id="Trazado_629425" data-name="Trazado 629425" d="M498.349,928.278a39.6,39.6,0,0,1-17.612,1.964c-1.813-.288-2.1-1.381-1.414-2.86,2.016-3.7,4.139-5.972,9.773-9.745,1.885-1.5,1.9-2.665,1.9-6.032l5.83.027C496.12,921.277,499.761,920.986,498.349,928.278Z" transform="translate(-455.338 -696.958)" fill="#fdccba" fill-rule="evenodd"/>
          <path id="Trazado_629426" data-name="Trazado 629426" d="M525.6,911.64c-.043.5-.072.978-.091,1.426l-7.47-.034c.009-.428.01-.9.011-1.427Z" transform="translate(-482.386 -696.958)" fill="#fd9c8a" fill-rule="evenodd"/>
          <path id="Trazado_629427" data-name="Trazado 629427" d="M497.682,928.271c.724,2.867,1.838,4.27.822,8.907-3.071,1.828-12.028,3.64-19.6,2.715-1.814-.289-2.1-1.381-1.415-2.859,2.016-3.7,4.162-6.136,9.8-9.909.677-1.473,1.505-1.678,1.886-1.673.936.153,1.821.747,3.236,3.331A2.906,2.906,0,0,0,497.682,928.271Z" transform="translate(-454.07 -706.549)" fill="#006eb9" fill-rule="evenodd"/>
          <path id="Trazado_629428" data-name="Trazado 629428" d="M497.083,937.861a42.073,42.073,0,0,1-18.176,2.032c-1.814-.289-2.1-1.381-1.415-2.859,2.016-3.7,4.162-6.136,9.8-9.909.677-1.473,1.505-1.678,1.886-1.673.936.153,1.821.747,3.236,3.331a2.761,2.761,0,0,0,3.982,1.025C497.107,932.142,497.855,933.859,497.083,937.861Z" transform="translate(-454.07 -706.549)" fill="#409ceb" fill-rule="evenodd"/>
          <path id="Trazado_629429" data-name="Trazado 629429" d="M574.288,911.605c.672,8.97-2.818,8.438-1.253,15.583,3.072,1.827,11.466,3.578,19.035,2.654,1.814-.289,2.1-1.381,1.415-2.859-2.016-3.7-4.139-5.972-9.773-9.746-1.829-1.46-1.894-2.6-1.9-5.74Z" transform="translate(-520.195 -696.884)" fill="#fdccba" fill-rule="evenodd"/>
          <path id="Trazado_629430" data-name="Trazado 629430" d="M576.79,922.821l-.16.755c.213,1.729,3.518,3.319,5.272.512.947-1.7,1.994-3.3,3.045-3.5a5.518,5.518,0,0,1-.3-1.445c-1.081-.023-2.165,1.612-3.141,3.365A2.8,2.8,0,0,1,576.79,922.821Z" transform="translate(-522.968 -702.179)" fill="#fd9c8a" fill-rule="evenodd"/>
          <path id="Trazado_629431" data-name="Trazado 629431" d="M578.03,911.605c.038.505.063.978.075,1.425l7.463-.107c-.013-.426-.015-.9-.017-1.426Z" transform="translate(-523.937 -696.884)" fill="#fd9c8a" fill-rule="evenodd"/>
          <path id="Trazado_629432" data-name="Trazado 629432" d="M573.858,926.783c-.723,2.867-1.839,4.27-.823,8.908,3.072,1.827,12.029,3.639,19.6,2.714,1.814-.289,2.233-1.381,1.415-2.859-2.016-3.7-4.162-6.136-9.8-9.909-1.693-3.722-3.542-1.178-5.121,1.659C577.376,930.1,574.071,928.513,573.858,926.783Z" transform="translate(-520.196 -705.387)" fill="#006eb9" fill-rule="evenodd"/>
          <path id="Trazado_629433" data-name="Trazado 629433" d="M573.858,928.066c-.723,2.867-1.839,4.27-.823,8.908,3.046,1.812,11.878,3.608,19.4,2.737.48-.506.447-1.265-.043-2.23-2.016-3.7-4.161-6.136-9.8-9.909a6.659,6.659,0,0,0-1.4-1.946,12.266,12.266,0,0,0-2.073,2.951C577.376,931.386,574.071,929.8,573.858,928.066Z" transform="translate(-520.196 -706.67)" fill="#409ceb" fill-rule="evenodd"/>
          <path id="Trazado_629434" data-name="Trazado 629434" d="M537.265,714.885l-2.517-51.119a42.508,42.508,0,0,1-8.937,1.486c-1.04-12.2-1.839-24.758-2.414-37.488h0c0,.062,0,.124.007.186l-17.59-.36c.45,13.247,1.055,26.046.946,37.863-1.146-.308-2.881-.871-4.773-1.592l-.509,51.107,17.225.083L516.7,636.7l4.181,78.439Z" transform="translate(-470.918 -500.252)" fill="#83e3de" fill-rule="evenodd"/>
          <path id="Trazado_629435" data-name="Trazado 629435" d="M732.721,493.5a27.261,27.261,0,0,0,2.706,6.746l.111.06c.632-.055,1.066-3.3.037-8.186A22.983,22.983,0,0,0,732.721,493.5Z" transform="translate(-631.076 -406.429)" fill="#878787" fill-rule="evenodd"/>
          <path id="Trazado_629436" data-name="Trazado 629436" d="M748.841,456.251c.661-.647.516-1.6-1.009-2.137-6.072-1.982-5.66-2.35-8.614-4.7a8.576,8.576,0,0,0,2.15-3.373c.709-3.116-1.573-2.929-2.045-1.733-2.061,3.881-4.036,2.111-7.206,7.112l-1.674.742.371-.149a19.442,19.442,0,0,0,.328,7.818,21.572,21.572,0,0,1,4.025-1.806,42.583,42.583,0,0,0,9.313,1.935c2.033.151,2.769-.413,2.986-1.253C750.051,458.073,749.321,456.661,748.841,456.251Z" transform="translate(-629.498 -372.751)" fill="#fdccba" fill-rule="evenodd"/>
          <path id="Trazado_629437" data-name="Trazado 629437" d="M731.613,469.979l-1.17.519.371-.149a19.442,19.442,0,0,0,.328,7.818c.355-.2.714-.392,1.076-.575A19.7,19.7,0,0,1,731.613,469.979Z" transform="translate(-629.498 -391.091)" fill="#fd9c8a" fill-rule="evenodd"/>
          <path id="Trazado_629438" data-name="Trazado 629438" d="M590.36,368.691a9.508,9.508,0,0,1,3.026,3.578l10.767,23.839c1.01-.218,2.021.054,2.111,1.345l12.793-5.134c-.724,4.442.056,9.209,3.094,14.67l-21.638,8.065a1.974,1.974,0,0,1-2.442-.923l-9.005-17.457c-.325,25.785,1.515,51.6,3.8,74.867-5.157,3.559-12.988,6.14-20.235,6.52A1113.212,1113.212,0,0,1,569.5,357.315a182.846,182.846,0,0,1,20.863,11.37Z" transform="translate(-517.741 -313.06)" fill="#f5f5f5" fill-rule="evenodd"/>
          <path id="Trazado_629439" data-name="Trazado 629439" d="M750.653,473.764a4.016,4.016,0,0,1,.57-.215,5.768,5.768,0,0,1,.6-.111,3.475,3.475,0,0,1,1.234.067,2.979,2.979,0,0,1,1.131.542,4.052,4.052,0,0,1,.45.427,3.005,3.005,0,0,1,.332.517l-.027.026a3.994,3.994,0,0,0-1.974-1.148,6.372,6.372,0,0,0-2.307-.068Z" transform="translate(-643.495 -393.467)"/>
          <path id="Trazado_629440" data-name="Trazado 629440" d="M596.591,311.81a17.282,17.282,0,0,1-1.244,1.872,11.938,11.938,0,0,0,.263-2.039h0A4.474,4.474,0,0,0,596.591,311.81Z" transform="translate(-535.931 -281.428)" fill="#1a1a1a" fill-rule="evenodd"/>
          <g id="Grupo_954437" data-name="Grupo 954437" transform="translate(34.442 44.942)">
            <path id="Trazado_629441" data-name="Trazado 629441" d="M570.133,359.55l.04,1.636c.012-.5.019-1.006.032-1.507Z" transform="translate(-552.91 -359.55)" fill="#a9cbf3" fill-rule="evenodd"/>
            <path id="Trazado_629442" data-name="Trazado 629442" d="M520.818,366.2l0-.022-.274.362c-.045.163-.094.325-.139.488q-.171.625-.335,1.25-.3,1.146-.585,2.3-.17.69-.334,1.38-.291,1.234-.562,2.474c-.095.437-.189.873-.28,1.311q-.26,1.245-.5,2.493c-.093.486-.183.975-.274,1.462q-.206,1.127-.4,2.257-.112.666-.222,1.331-.236,1.464-.451,2.935c-.056.391-.108.783-.162,1.175q-.151,1.091-.29,2.184c-.056.438-.112.875-.164,1.314q-.177,1.479-.335,2.962c-.044.416-.084.832-.125,1.249q-.108,1.093-.207,2.186c-.037.419-.076.838-.111,1.257q-.126,1.5-.233,3.006-.044.63-.085,1.26-.076,1.135-.14,2.273c-.022.382-.046.763-.066,1.143q-.081,1.529-.145,3.059-.026.622-.049,1.244-.047,1.22-.083,2.439c-.01.317-.021.634-.03.95q-.042,1.567-.068,3.134-.012.59-.019,1.18-.02,1.368-.03,2.736c0,.306-.005.612-.006.917q-.008,1.469,0,2.934,0,.547,0,1.093.007,1.609.024,3.213c0,.191.005.383.008.575q.017,1.45.043,2.894c.006.316.011.632.017.947q.031,1.638.07,3.27c0,.2.01.4.015.6q.036,1.467.078,2.928.011.387.022.777.048,1.664.1,3.319.01.309.02.617c.016.5.033.989.05,1.484l17.59.36c-1.208-26.629-1.424-54.012-.795-80.5l-2.6,4.5-5.8,10.038L520.8,366.3Z" transform="translate(-514.106 -364.141)" fill="#a9cbf3" fill-rule="evenodd"/>
            <path id="Trazado_629443" data-name="Trazado 629443" d="M520.818,366.681l0-.021-.274.362c-.045.163-.094.325-.139.488q-.171.624-.335,1.251-.3,1.145-.585,2.3-.17.689-.334,1.38-.291,1.235-.562,2.475c-.095.437-.189.873-.28,1.31q-.26,1.244-.5,2.492c-.093.488-.183.974-.274,1.463q-.206,1.126-.4,2.256-.112.665-.222,1.331-.236,1.465-.451,2.935c-.056.391-.108.783-.162,1.175q-.151,1.09-.29,2.183c-.056.438-.112.875-.164,1.313q-.177,1.479-.335,2.962c-.044.416-.084.832-.125,1.249q-.108,1.093-.207,2.186c-.037.419-.076.838-.111,1.258q-.126,1.5-.233,3.006-.044.63-.085,1.261-.076,1.136-.14,2.272c-.022.382-.046.762-.066,1.144q-.081,1.53-.145,3.058-.026.622-.049,1.244-.047,1.22-.083,2.439c-.01.317-.021.634-.03.95q-.042,1.567-.068,3.134-.012.59-.019,1.18-.02,1.368-.03,2.735c0,.306-.005.612-.006.917q-.008,1.469,0,2.934,0,.548,0,1.093.007,1.609.024,3.214c0,.191.005.382.008.575q.017,1.449.043,2.894c.006.316.011.632.017.947q.031,1.638.07,3.27c0,.2.01.4.015.6q.036,1.467.078,2.928.011.389.022.777.048,1.664.1,3.319c.006.207.014.412.02.617q.024.743.05,1.483l17.59.36c-1.208-26.629-1.424-54.012-.795-80.5l-2.6,4.506-5.8,10.037-2.149-14.64Z" transform="translate(-514.106 -364.474)" fill="#a9cbf3" fill-rule="evenodd"/>
          </g>
          <path id="Trazado_629444" data-name="Trazado 629444" d="M514.215,571.429c.008.7.014,1.4.025,2.091l14.237.7-.312-2.105Z" transform="translate(-479.739 -461.354)" fill="#89b9e8" fill-rule="evenodd"/>
          <path id="Trazado_629445" data-name="Trazado 629445" d="M566.06,366.885l-1.566,2.708c-.548,25.639-.308,52.052.861,77.764l1.5.031C565.647,420.758,565.432,393.375,566.06,366.885Z" transform="translate(-514.369 -319.688)" fill="#89b9e8" fill-rule="evenodd"/>
          <path id="Trazado_629446" data-name="Trazado 629446" d="M594.577,452.351v6.133a5.7,5.7,0,0,1-5.752,5.606h0a5.7,5.7,0,0,1-5.752-5.606v-6.133Z" transform="translate(-527.429 -378.881)" fill="#d6d6d6" fill-rule="evenodd"/>
          <path id="Trazado_629447" data-name="Trazado 629447" d="M586.242,463.49a5.611,5.611,0,0,1-3.17-5.006v-6.133H592.9v5.6a5.7,5.7,0,0,1-5.752,5.607h0A5.927,5.927,0,0,1,586.242,463.49Z" transform="translate(-527.429 -378.881)" fill="#f5f5f5" fill-rule="evenodd"/>
          <path id="Trazado_629448" data-name="Trazado 629448" d="M443.7,358.7c-6.62,2.894-14.514,7.519-17.038,10.126,0,.013,0,.024,0,.037-7.949,8.468-15.723,24.65-22.255,38.017-7.642,16.914,4.79,18.876,17.766,14.594l-.671-4.847-1.689-11.994c.005-.02.014-.042.021-.062l-.015-.11.057-.016a6.389,6.389,0,0,1,3.924-3.672l.476,2.493.88-.236a5.249,5.249,0,0,1,.012.62c8.992-.442,10.3,2.61,6.989,3.991,2.728.765,2.658,2.84.138,3.816,2.4.351,3.649,4.232-7.527,5.294-.515,18.5-.852,37.065-1.24,55.626,2.9,2.982,11.07,5.958,14.382,6.846C438.242,443.171,431.908,398.011,443.7,358.7Z" transform="translate(-402.065 -314.019)" fill="#f5f5f5" fill-rule="evenodd"/>
          <path id="Trazado_629449" data-name="Trazado 629449" d="M438.765,506.6a25.112,25.112,0,0,1-4.848.9,8.783,8.783,0,0,1-2.508-.061,4.227,4.227,0,0,1-1.209-.428,2.167,2.167,0,0,1-.914-.871l.046-.034a4.082,4.082,0,0,0,2.176.778,19.8,19.8,0,0,0,2.388.167,24.057,24.057,0,0,0,2.43-.16c.811-.083,1.621-.2,2.424-.347Z" transform="translate(-420.918 -416.111)"/>
          <path id="Trazado_629450" data-name="Trazado 629450" d="M441.658,518.119c-.006,1.093.046,2.179.069,3.263l.133,3.254.144,3.255c.052,1.086.084,2.174.081,3.268a26.952,26.952,0,0,1-.658-3.238q-.233-1.629-.307-3.267A22.508,22.508,0,0,1,441.658,518.119Z" transform="translate(-429.095 -424.432)"/>
          <path id="Trazado_629451" data-name="Trazado 629451" d="M536.824,657.983c.378-.068.754-.089,1.13-.135l1.128-.059c.751-.03,1.5,0,2.25,0,.748.057,1.5.079,2.244.164l1.12.141c.373.073.746.122,1.117.215v.043l-4.5-.142-4.494-.184Z" transform="translate(-495.397 -521.157)" fill="#49d6cf"/>
          <path id="Trazado_629452" data-name="Trazado 629452" d="M598.67,461.607c-.375.079-.75.111-1.125.169l-1.125.093c-.75.052-1.5.044-2.25.067-.749-.035-1.5-.034-2.247-.1l-1.124-.108c-.374-.062-.749-.1-1.123-.183V461.5l4.5.008,4.5.051Z" transform="translate(-532.003 -385.221)" fill="#d6d6d6"/>
          <path id="Trazado_629453" data-name="Trazado 629453" d="M468.737,468.454l24.416.171,4.766,32.227L473.5,499.658S468.737,468.539,468.737,468.454Z" transform="translate(-448.242 -390.034)" fill="#bf6145" fill-rule="evenodd"/>
          <path id="Trazado_629454" data-name="Trazado 629454" d="M494.333,476.506l4.408,29.8-24.416-1.193s-3.285-21.451-4.4-28.782Z" transform="translate(-449.064 -395.493)" fill="#df875f" fill-rule="evenodd"/>
          <g id="Grupo_954438" data-name="Grupo 954438" transform="translate(24.18 92.843)">
            <path id="Trazado_629455" data-name="Trazado 629455" d="M500.394,528.144a2.334,2.334,0,0,1,.855.3,1.658,1.658,0,0,0,.622-1.266A3.67,3.67,0,0,1,500.394,528.144Z" transform="translate(-494.347 -523.55)" fill="#bf6145" fill-rule="evenodd"/>
            <path id="Trazado_629456" data-name="Trazado 629456" d="M499.945,516.152a4.662,4.662,0,0,1,.795.3,1.268,1.268,0,0,0,.436-1.077A3.706,3.706,0,0,1,499.945,516.152Z" transform="translate(-494.036 -515.374)" fill="#bf6145" fill-rule="evenodd"/>
            <path id="Trazado_629457" data-name="Trazado 629457" d="M480.722,541.2l.15.984c5.49-.789,7.159-2.36,7.121-3.546C487.177,539.629,485.055,540.649,480.722,541.2Z" transform="translate(-480.722 -531.489)" fill="#bf6145" fill-rule="evenodd"/>
          </g>
          <path id="Trazado_629458" data-name="Trazado 629458" d="M463.816,495.586a6.4,6.4,0,0,0-4.021,3.854l1.736,12.329c14.615-.566,13.356-5.125,10.744-5.507,2.52-.975,2.59-3.051-.138-3.815,3.408-1.421,1.925-4.615-7.8-3.943Z" transform="translate(-442.049 -408.826)" fill="#fdccba" fill-rule="evenodd"/>
          <path id="Trazado_629459" data-name="Trazado 629459" d="M460.805,502.271a5.214,5.214,0,0,0-1.01,1.8l1.736,12.329c.433-.017.85-.038,1.255-.061Z" transform="translate(-442.049 -413.456)" fill="#fd9c8a" fill-rule="evenodd"/>
          <path id="Trazado_629460" data-name="Trazado 629460" d="M536.784,270.157l-1.976-.409,1.279-5.981c-1.664-.393-3.688-1.572-4.041-2.679a2.869,2.869,0,0,1,.756-2.907c-6.192,1.424-10.8,1.682-14,1.292-4.976,11.25-4.524,18.615-2.106,22.816,1.093,2.049,3.254,3.407,5.74,4.322,0,0-.8,3.711-1.1,5l2.149,14.635,8.436-14.589-.123-5.028a11.752,11.752,0,0,0,4.566-2.96,13.912,13.912,0,0,0,3.5-8.916c2.942.849,5.322-.9,5.589-4.045C545.825,266.393,538.554,264.294,536.784,270.157Z" transform="translate(-480.242 -244.4)" fill="#fdccba" fill-rule="evenodd"/>
          <path id="Trazado_629461" data-name="Trazado 629461" d="M558.264,284.212c1.252,0,2.273-1.305,2.273-2.9s-1.02-2.906-2.273-2.906-2.272,1.306-2.272,2.906S557.013,284.212,558.264,284.212Z" transform="translate(-508.674 -258.405)" fill="#1b2c3a" fill-rule="evenodd"/>
          <path id="Trazado_629462" data-name="Trazado 629462" d="M549.707,312.714c.018.13.032.261.042.394a5.072,5.072,0,0,1-4.606,5.555,5.188,5.188,0,0,1-5.359-4.933c-.01-.132-.015-.264-.015-.4Z" transform="translate(-497.439 -282.17)" fill="#1b2c3a" fill-rule="evenodd"/>
          <path id="Trazado_629463" data-name="Trazado 629463" d="M553.359,321.92a4.818,4.818,0,0,1-7.25,1.2A4.818,4.818,0,0,1,553.359,321.92Z" transform="translate(-501.829 -287.757)" fill="#fd5564" fill-rule="evenodd"/>
          <path id="Trazado_629464" data-name="Trazado 629464" d="M528.724,227.175c-20.4,4.694-23.679-3.271-15.569-5.407-12.292-6.859,10.467-13.993,26.422-1.822,4.421.709,2.936,7.58.053,16.31a4.629,4.629,0,0,0-2.584-.743,4.5,4.5,0,0,0-4.3,3.638l-2.059-.286,1.237-6.064c-1.666-.392-3.605-1.612-3.958-2.72A2.866,2.866,0,0,1,528.724,227.175Z" transform="translate(-476.163 -213.352)" fill="#1b2c3a" fill-rule="evenodd"/>
          <path id="Trazado_629465" data-name="Trazado 629465" d="M591.7,309.42a3.287,3.287,0,0,0,.625.441c.115.055.23.106.347.156.11.068.23.11.342.186l0,.013a1.8,1.8,0,0,1-.391-.078,1.657,1.657,0,0,1-.349-.187,2.67,2.67,0,0,1-.58-.521Z" transform="translate(-533.398 -279.888)"/>
          <path id="Trazado_629466" data-name="Trazado 629466" d="M560.593,269.9a1.6,1.6,0,0,1,1.758-1.19,1.409,1.409,0,0,1,1.025.729,1.381,1.381,0,0,1,.095,1.065c-.337-.193-.574-.379-.792-.5a1.48,1.48,0,0,0-.509-.184,2.511,2.511,0,0,0-.616,0C561.286,269.84,560.983,269.894,560.593,269.9Z" transform="translate(-511.861 -251.679)" fill="#1b2c3a"/>
          <path id="Trazado_629467" data-name="Trazado 629467" d="M530.381,269.1a1.572,1.572,0,0,1,1.321-1.642,1.433,1.433,0,0,1,1.2.4,1.394,1.394,0,0,1,.412.99c-.381-.088-.662-.2-.907-.246a1.524,1.524,0,0,0-.542-.031,2.544,2.544,0,0,0-.589.177C531.027,268.847,530.754,268.986,530.381,269.1Z" transform="translate(-490.934 -250.815)" fill="#1b2c3a"/>
          <path id="Trazado_629468" data-name="Trazado 629468" d="M532.19,279.7a2.246,2.246,0,0,0-2-1.763,2.84,2.84,0,0,0,0,5.512c.049,0,.095-.014.143-.018Z" transform="translate(-489.308 -258.081)" fill="#1b2c3a" fill-rule="evenodd"/>
          <path id="Trazado_629469" data-name="Trazado 629469" d="M538.5,269.822c-.223.608-.495,1.187-.735,1.783l-.8,1.741c-.539,1.157-1.136,2.283-1.661,3.436-.288.563-.578,1.128-.828,1.7a6.24,6.24,0,0,0-.314.816.919.919,0,0,0-.031.3c-.008.083.03.126.075.2a1.8,1.8,0,0,0,.694.381c.289.105.6.191.91.279.618.2,1.255.359,1.876.585l-.011.056-1.925-.35c-.32-.062-.64-.129-.956-.217a2.3,2.3,0,0,1-.894-.415.925.925,0,0,1-.227-.924,6.254,6.254,0,0,1,.316-.91c.242-.594.519-1.171.795-1.748,1.144-2.289,2.389-4.527,3.67-6.745Z" transform="translate(-493.192 -252.444)" fill="#1b2c3a"/>
          <path id="Trazado_629470" data-name="Trazado 629470" d="M686.162,487.819a3.551,3.551,0,0,0-1.651,2.955" transform="translate(-597.686 -403.446)" fill="none" stroke="#000" stroke-miterlimit="22.926" stroke-width="0.929" fill-rule="evenodd"/>
          <path id="Trazado_629471" data-name="Trazado 629471" d="M676.125,483.652a4.645,4.645,0,0,0-2.965,1.706" transform="translate(-589.824 -400.56)" fill="none" stroke="#000" stroke-miterlimit="22.926" stroke-width="0.929" fill-rule="evenodd"/>
          <path id="Trazado_629472" data-name="Trazado 629472" d="M675.536,483.652a4.648,4.648,0,0,0-2.966,1.706" transform="translate(-589.415 -400.56)" fill="none" stroke="#000" stroke-miterlimit="22.926" stroke-width="0.929" fill-rule="evenodd"/>
          <path id="Trazado_629473" data-name="Trazado 629473" d="M777.382,481.27a4.233,4.233,0,0,0-1.428-.524c-.5-.109-1.007-.189-1.513-.284a11.363,11.363,0,0,1-1.512-.345,7.831,7.831,0,0,1-1.422-.626l.011-.026c.506.118.992.269,1.488.389l1.481.394c.5.121,1,.228,1.5.365a4.3,4.3,0,0,1,1.41.635Z" transform="translate(-657.939 -397.66)"/>
          <path id="Trazado_629474" data-name="Trazado 629474" d="M774.6,488.974a.569.569,0,0,0-.3-.549,2.4,2.4,0,0,0-.615-.273,9.132,9.132,0,0,0-1.336-.291c-.452-.07-.911-.109-1.363-.2a6.074,6.074,0,0,1-1.336-.391l.008-.026,1.371.145c.457.055.909.155,1.361.255a9.311,9.311,0,0,1,1.341.377,2.506,2.506,0,0,1,.619.336.619.619,0,0,1,.275.619Z" transform="translate(-656.653 -403.05)"/>
          <path id="Trazado_629475" data-name="Trazado 629475" d="M712.751,483.475c.009,4.513.561,8.578,2.493,11.827" transform="translate(-617.244 -400.438)" fill="none" stroke="#000" stroke-miterlimit="22.926" stroke-width="1.858" fill-rule="evenodd"/>
          <path id="Trazado_629476" data-name="Trazado 629476" d="M548.026,351.781h0l-.035-1.409a14.538,14.538,0,0,1-9.4.081l-.329,1.55a14.634,14.634,0,0,0,8.474.21c-.056.015-.11.034-.165.049q-.076,3.007-.135,6.04l1.557-2.693q.024-1.658.043-3.318Z" transform="translate(-496.396 -308.251)" fill="#fd9c8a" fill-rule="evenodd"/>
          <path id="Trazado_629477" data-name="Trazado 629477" d="M599.562,294.646a1.78,1.78,0,0,0-.174-1.056,2.039,2.039,0,0,0-.759-.819,2.284,2.284,0,0,0-2.149-.1,3.309,3.309,0,0,1,1.955.4c.013.008.024.019.037.028a5.285,5.285,0,0,1-.186.7,4.026,4.026,0,0,1-.391.929,2.157,2.157,0,0,1-1.745,1.01l0,.035a2.129,2.129,0,0,0,1.1-.177,2.481,2.481,0,0,0,.884-.7,2.309,2.309,0,0,0,.507-1.007,2.663,2.663,0,0,0,.03-.64A2.624,2.624,0,0,1,599.562,294.646Z" transform="translate(-536.485 -268.135)"/>
          <path id="Trazado_629478" data-name="Trazado 629478" d="M634.116,423.255s-.334,16.056-.251,17.279" transform="translate(-562.599 -358.73)" fill="none" stroke="#000" stroke-miterlimit="22.926" stroke-width="1.218" fill-rule="evenodd"/>
          <path id="Trazado_629479" data-name="Trazado 629479" d="M580.88,664.521l2.4,51.128-1.852.028-2.308-49.229a34.977,34.977,0,0,1-8.8,1.168c-1.085-13.541-1.825-24.778-2.405-38.923l1.488.029c.56,13.239,1.343,24.044,2.4,37.251A38.383,38.383,0,0,0,580.88,664.521Z" transform="translate(-516.932 -501.016)" fill="#49d6cf" fill-rule="evenodd"/>
          <path id="Trazado_629480" data-name="Trazado 629480" d="M506.034,402.953l-3.774-3.633q.471-.864.927-1.666l4.428,4.264Z" transform="translate(-471.46 -340.999)" fill="#d6d6d6" fill-rule="evenodd"/>
          <path id="Trazado_629481" data-name="Trazado 629481" d="M502.673,461.811a4.01,4.01,0,0,0-7.8-.055Z" transform="translate(-466.341 -383.279)" fill="#bf6145" fill-rule="evenodd"/>
          <path id="Trazado_629482" data-name="Trazado 629482" d="M514.443,354.1c-4.665,3.619-7.227,7.244-10.462,13.181l4.644,4.472-4.907,3.215a108.663,108.663,0,0,0,4.489,11.956C509.359,373.559,512.451,363.6,514.443,354.1Z" transform="translate(-472.469 -310.833)" fill="#89b9e8" fill-rule="evenodd"/>
          <path id="Trazado_629483" data-name="Trazado 629483" d="M506.493,437.324c.029-.311.057-.622.088-.932a107.358,107.358,0,0,1-4.09-10.626l-1.086.711a91.857,91.857,0,0,0,4.034,9.966A3.751,3.751,0,0,1,506.493,437.324Z" transform="translate(-470.867 -360.469)" fill="#d6d6d6" fill-rule="evenodd"/>
          <path id="Trazado_629484" data-name="Trazado 629484" d="M487.606,554.492l-9.211-.45-1.082-7.067c-.468.061-.968.113-1.489.162-.008.271-.016.542-.024.814l1.257,8.209,10.578.517Q487.618,555.586,487.606,554.492Z" transform="translate(-453.133 -444.418)" fill="#d6d6d6" fill-rule="evenodd"/>
          <path id="Trazado_629485" data-name="Trazado 629485" d="M505.663,349.56a12.711,12.711,0,0,1-1.2-.478c-4.744.212-12.3,7.091-13.745,13.608a4.9,4.9,0,0,1,1.354.152c2.5-8.253,10.992-12.668,13.369-12.234Z" transform="translate(-463.466 -307.358)" fill="#1b2c3a" fill-rule="evenodd"/>
          <path id="Trazado_629486" data-name="Trazado 629486" d="M477.031,403.2a5.212,5.212,0,1,1,6.775-2.542A5.128,5.128,0,0,1,477.031,403.2Z" transform="translate(-452.036 -338.002)" fill="#adadad" fill-rule="evenodd"/>
          <path id="Trazado_629487" data-name="Trazado 629487" d="M484.587,407.057a2.323,2.323,0,1,1,3.019-1.132A2.285,2.285,0,0,1,484.587,407.057Z" transform="translate(-458.35 -344.463)" fill="#d6d6d6" fill-rule="evenodd"/>
          <path id="Trazado_629488" data-name="Trazado 629488" d="M486.584,402.866a2.147,2.147,0,0,1,.579.405,2.291,2.291,0,0,0-2.869,1.194,2.32,2.32,0,0,0,.443,2.654c-.05-.019-.1-.038-.149-.062a2.323,2.323,0,0,1,2-4.191Z" transform="translate(-458.35 -344.463)" fill="#c2c2c2" fill-rule="evenodd"/>
          <g id="Grupo_954439" data-name="Grupo 954439" transform="translate(51.595 41.811)">
            <path id="Trazado_629489" data-name="Trazado 629489" d="M635.3,447.08a1.253,1.253,0,0,0-.382-.245l1.581-1.718-1.03-6.465,1.036-.059,1.094,6.864-1.97,2.144a1.274,1.274,0,0,0-.327-.52Z" transform="translate(-614.93 -411.163)" fill="#b5b5b5" fill-rule="evenodd"/>
            <path id="Trazado_629490" data-name="Trazado 629490" d="M628.2,465.464l-.618.66a1.274,1.274,0,0,0,.065,1.791h0a1.263,1.263,0,0,0,1.785-.046l.618-.659a1.276,1.276,0,0,0-.065-1.792h0A1.261,1.261,0,0,0,628.2,465.464Z" transform="translate(-609.62 -429.502)" fill="#409ceb" fill-rule="evenodd"/>
            <path id="Trazado_629491" data-name="Trazado 629491" d="M578.8,439.775l1.008-.219,2.49,9.784,2.14.983a1.237,1.237,0,0,0-.255.37h0a1.252,1.252,0,0,0-.095.6l-2.669-1.225Z" transform="translate(-576.065 -411.83)" fill="#b5b5b5" fill-rule="evenodd"/>
            <path id="Trazado_629492" data-name="Trazado 629492" d="M597.736,473.466l.832.373a1.284,1.284,0,0,1,.653,1.675h0a1.255,1.255,0,0,1-1.663.637l-.831-.373a1.284,1.284,0,0,1-.653-1.675h0A1.254,1.254,0,0,1,597.736,473.466Z" transform="translate(-587.957 -435.239)" fill="#409ceb" fill-rule="evenodd"/>
            <path id="Trazado_629493" data-name="Trazado 629493" d="M584.884,364.747a10.1,10.1,0,0,0-4.379-.811,26.4,26.4,0,0,0-1.6-6.6,12.387,12.387,0,0,0-3.358-4.937,16.091,16.091,0,0,0-4.876-3.04c-.253.11-.508.216-.767.31l0,.9c.509.075,2.528.4,5.71,3.7a12.338,12.338,0,0,1,2.092,3.537,25.1,25.1,0,0,1,1.508,6.257,9.415,9.415,0,0,0-4.191,1.84c-2.841,2.217-4.517,6.183-3.287,11.59l2.518-.546c-.974-4.281.248-7.34,2.36-8.988a6.915,6.915,0,0,1,3.445-1.4,7.491,7.491,0,0,1,3.83.561c2.882,1.233,5.337,4.388,5.693,9.771l2.579-.147C591.734,370.229,588.589,366.333,584.884,364.747Z" transform="translate(-569.906 -349.364)" fill="#1b2c3a" fill-rule="evenodd"/>
          </g>
          <path id="Trazado_629494" data-name="Trazado 629494" d="M569.338,351.857c3.964,4.272,6.02,9.013,7.957,15.465l-5.477,3.464,4.139,4.116a109.221,109.221,0,0,1-6.856,10.8C568.919,374.155,569.226,363.118,569.338,351.857Z" transform="translate(-517.714 -309.28)" fill="#89b9e8" fill-rule="evenodd"/>
          <path id="Trazado_629495" data-name="Trazado 629495" d="M443.371,491.5a6.351,6.351,0,0,0-4.222,4.115c-2.182.887-7.717,1.054-8.608.605a.044.044,0,0,0,0,.007,4.662,4.662,0,0,0,1.835.541,19.786,19.786,0,0,0,2.388.167,24.059,24.059,0,0,0,2.43-.16c.8-.082,1.6-.195,2.4-.342a6.438,6.438,0,0,1,3.961-3.676S443.445,491.986,443.371,491.5Z" transform="translate(-421.787 -405.995)" fill="#d6d6d6"/>
        </g>
      </g>
      <g id="Grupo_954442" data-name="Grupo 954442" transform="translate(126.634 61.311)">
        <path id="Trazado_629496" data-name="Trazado 629496" d="M730.187,364.587l.5-.92-5.37-2.914-.5.92,2.177,1.182-1.252,2.307-2.952-1.6-8.664,15.964,1.239.672-.994,1.832,1.937,1.051-1.808,3.33.856-.224,1.518-2.8,1.936,1.051.994-1.831,1.239.673,8.664-15.964-2.951-1.6,1.253-2.308Z" transform="translate(-714.126 -360.753)" fill="#84b5ef" fill-rule="evenodd"/>
        <rect id="Rectángulo_306753" data-name="Rectángulo 306753" width="5.753" height="15.114" transform="translate(8.868 4.653) rotate(28.49)" fill="#b4d2f5"/>
        <rect id="Rectángulo_306754" data-name="Rectángulo 306754" width="4.009" height="0.444" transform="matrix(0.879, 0.477, -0.477, 0.879, 9.854, 7.174)" fill="#84b5ef"/>
        <rect id="Rectángulo_306755" data-name="Rectángulo 306755" width="4.008" height="0.444" transform="translate(8.843 9.036) rotate(28.493)" fill="#84b5ef"/>
        <rect id="Rectángulo_306756" data-name="Rectángulo 306756" width="4.008" height="0.444" transform="translate(7.833 10.899) rotate(28.499)" fill="#84b5ef"/>
        <rect id="Rectángulo_306757" data-name="Rectángulo 306757" width="4.008" height="0.444" transform="translate(6.822 12.762) rotate(28.493)" fill="#84b5ef"/>
        <rect id="Rectángulo_306758" data-name="Rectángulo 306758" width="4.008" height="0.444" transform="matrix(0.879, 0.477, -0.477, 0.879, 5.811, 14.624)" fill="#84b5ef"/>
        <rect id="Rectángulo_306759" data-name="Rectángulo 306759" width="4.008" height="0.444" transform="translate(4.8 16.486) rotate(28.493)" fill="#84b5ef"/>
      </g>
      <g id="Grupo_954443" data-name="Grupo 954443" transform="translate(37.103 28.773)">
        <path id="Trazado_629497" data-name="Trazado 629497" d="M437.815,277.311l.683.792,4.629-3.987-.684-.793-1.877,1.616-1.713-1.99,2.544-2.191L429.542,257l-1.068.921-1.361-1.58-1.67,1.438-2.473-2.871-.093.88,2.078,2.411-1.67,1.439,1.36,1.58-1.068.92L435.433,275.9l2.544-2.192,1.714,1.99Z" transform="translate(-422.878 -254.905)" fill="#84b5ef" fill-rule="evenodd"/>
        <rect id="Rectángulo_306760" data-name="Rectángulo 306760" width="5.753" height="15.113" transform="matrix(-0.758, 0.653, -0.653, -0.758, 16.721, 15.389)" fill="#b4d2f5"/>
        <rect id="Rectángulo_306761" data-name="Rectángulo 306761" width="4.008" height="0.444" transform="matrix(-0.758, 0.653, -0.653, -0.758, 14.014, 15.418)" fill="#84b5ef"/>
        <rect id="Rectángulo_306762" data-name="Rectángulo 306762" width="4.008" height="0.444" transform="matrix(-0.758, 0.653, -0.653, -0.758, 12.632, 13.813)" fill="#84b5ef"/>
        <rect id="Rectángulo_306763" data-name="Rectángulo 306763" width="4.008" height="0.443" transform="matrix(-0.758, 0.653, -0.653, -0.758, 11.248, 12.207)" fill="#84b5ef"/>
        <rect id="Rectángulo_306764" data-name="Rectángulo 306764" width="4.008" height="0.444" transform="translate(9.865 10.601) rotate(139.266)" fill="#84b5ef"/>
        <rect id="Rectángulo_306765" data-name="Rectángulo 306765" width="4.008" height="0.444" transform="translate(8.482 8.996) rotate(139.259)" fill="#84b5ef"/>
        <rect id="Rectángulo_306766" data-name="Rectángulo 306766" width="4.008" height="0.444" transform="translate(7.099 7.39) rotate(139.261)" fill="#84b5ef"/>
      </g>
      <g id="Grupo_954444" data-name="Grupo 954444" transform="translate(20.99 40.839)">
        <path id="Trazado_629498" data-name="Trazado 629498" d="M379.548,294.744h0a3.129,3.129,0,0,1,.711,4.368l-4.127,5.732a3.129,3.129,0,0,1-4.368.711h0a3.13,3.13,0,0,1-.711-4.369l4.127-5.732A3.13,3.13,0,0,1,379.548,294.744Z" transform="translate(-370.463 -294.154)" fill="#84b5ef" stroke="#84b5ef" stroke-miterlimit="22.926" stroke-width="4.262" fill-rule="evenodd"/>
        <path id="Trazado_629499" data-name="Trazado 629499" d="M384.218,302.048l1.891-2.627a3.273,3.273,0,0,0-.553-4.588h0a3.273,3.273,0,0,0-4.527.931l-1.891,2.627Z" transform="translate(-376.471 -294.242)" fill="#b4d2f5" fill-rule="evenodd"/>
      </g>
      <g id="Grupo_954445" data-name="Grupo 954445" transform="translate(51.581 15.959)">
        <path id="Trazado_629500" data-name="Trazado 629500" d="M474.472,226.45h0a3.129,3.129,0,0,1-3.521-2.681l-.947-7a3.13,3.13,0,0,1,2.682-3.521h0a3.13,3.13,0,0,1,3.521,2.682l.947,7A3.129,3.129,0,0,1,474.472,226.45Z" transform="translate(-469.976 -213.219)" fill="#84b5ef" stroke="#84b5ef" stroke-miterlimit="22.926" stroke-width="4.262" fill-rule="evenodd"/>
        <path id="Trazado_629501" data-name="Trazado 629501" d="M471.621,234.336l.434,3.208a3.273,3.273,0,0,0,3.557,2.95h0a3.273,3.273,0,0,0,2.646-3.789l-.434-3.208Z" transform="translate(-471.115 -227.264)" fill="#b4d2f5" fill-rule="evenodd"/>
      </g>
      <g id="Grupo_954446" data-name="Grupo 954446" transform="translate(104.501 21.554)">
        <path id="Trazado_629502" data-name="Trazado 629502" d="M649.907,243.623h0a3.129,3.129,0,0,1-4.212-1.358l-3.222-6.286a3.129,3.129,0,0,1,1.358-4.212h0a3.129,3.129,0,0,1,4.212,1.358l3.222,6.285A3.131,3.131,0,0,1,649.907,243.623Z" transform="translate(-642.128 -231.422)" fill="#84b5ef" stroke="#84b5ef" stroke-miterlimit="22.926" stroke-width="4.262" fill-rule="evenodd"/>
        <path id="Trazado_629503" data-name="Trazado 629503" d="M648.525,250.106,650,252.987a3.274,3.274,0,0,0,4.336,1.6h0a3.275,3.275,0,0,0,1.234-4.454l-1.477-2.881Z" transform="translate(-646.558 -242.385)" fill="#b4d2f5" fill-rule="evenodd"/>
      </g>
      <g id="Grupo_954447" data-name="Grupo 954447" transform="translate(38.999 56.277)">
        <path id="Trazado_629504" data-name="Trazado 629504" d="M429.744,345.538h0a3.13,3.13,0,0,1,4.4-.465l5.491,4.443a3.129,3.129,0,0,1,.464,4.4h0a3.13,3.13,0,0,1-4.4.465l-5.491-4.442A3.13,3.13,0,0,1,429.744,345.538Z" transform="translate(-429.048 -344.377)" fill="#84b5ef" stroke="#84b5ef" stroke-miterlimit="22.926" stroke-width="4.262" fill-rule="evenodd"/>
        <path id="Trazado_629505" data-name="Trazado 629505" d="M436.973,347.417l-2.517-2.036a3.274,3.274,0,0,0-4.612.294h0a3.274,3.274,0,0,0,.675,4.572l2.517,2.036Z" transform="translate(-429.147 -344.514)" fill="#b4d2f5" fill-rule="evenodd"/>
      </g>
      <g id="Grupo_954448" data-name="Grupo 954448" transform="translate(105.861 122.232)">
        <path id="Trazado_629506" data-name="Trazado 629506" d="M659.867,561.964h0a3.13,3.13,0,0,1-3.032,3.224l-7.06.215a3.129,3.129,0,0,1-3.224-3.032h0a3.129,3.129,0,0,1,3.032-3.224l7.06-.216A3.13,3.13,0,0,1,659.867,561.964Z" transform="translate(-646.55 -558.93)" fill="#84b5ef" stroke="#84b5ef" stroke-miterlimit="22.926" stroke-width="4.262" fill-rule="evenodd"/>
        <path id="Trazado_629507" data-name="Trazado 629507" d="M668.17,565.314l3.236-.1a3.273,3.273,0,0,0,3.3-3.232h0a3.273,3.273,0,0,0-3.495-3.024l-3.235.1Z" transform="translate(-661.392 -558.95)" fill="#b4d2f5" fill-rule="evenodd"/>
      </g>
      <path id="Trazado_629508" data-name="Trazado 629508" d="M369.214,373.8l-4.845-.429.429-4.845-4.845-.429-.429,4.845-4.845-.429-.429,4.845,4.845.429-.429,4.845,4.845.429.429-4.845,4.845.429Z" transform="translate(-338.244 -304.53)" fill="#84b5ef"/>
      <path id="Trazado_629509" data-name="Trazado 629509" d="M708.682,292.225l-5.587-.314.314-5.586-5.587-.313-.314,5.586-5.587-.314-.313,5.587,5.586.314-.313,5.586,5.586.314.314-5.587,5.587.314Z" transform="translate(-571.897 -247.675)" fill="#84b5ef"/>
      <g id="Grupo_954451" data-name="Grupo 954451" transform="translate(99.032 44.475)">
        <path id="Trazado_629510" data-name="Trazado 629510" d="M638.476,330.189h0a4.584,4.584,0,0,1-6.129-2.114l-7.548-15.5a4.585,4.585,0,0,1,2.114-6.13h0a4.586,4.586,0,0,1,6.13,2.115l7.548,15.5A4.585,4.585,0,0,1,638.476,330.189Z" transform="translate(-624.335 -305.985)" fill="#84b5ef"/>
        <path id="Trazado_629511" data-name="Trazado 629511" d="M645.6,338.241l-4.836,2.356a.805.805,0,0,1-1.076-.371l-2.291-4.7a.805.805,0,0,1,.371-1.076l4.837-2.356a.8.8,0,0,1,1.075.371l2.291,4.7A.8.8,0,0,1,645.6,338.241Z" transform="translate(-633.328 -324.01)" fill="#b4d2f5"/>
        <g id="Grupo_954449" data-name="Grupo 954449" transform="translate(1.706 2.764)">
          <path id="Trazado_629512" data-name="Trazado 629512" d="M630.813,323.03a.489.489,0,1,1-.654-.226A.489.489,0,0,1,630.813,323.03Z" transform="translate(-629.885 -320.363)" fill="#b4d2f5"/>
          <path id="Trazado_629513" data-name="Trazado 629513" d="M636.136,320.437a.489.489,0,1,1-.654-.225A.49.49,0,0,1,636.136,320.437Z" transform="translate(-633.572 -318.568)" fill="#b4d2f5"/>
          <path id="Trazado_629514" data-name="Trazado 629514" d="M641.461,317.842a.489.489,0,1,1-.653-.225A.489.489,0,0,1,641.461,317.842Z" transform="translate(-637.259 -316.771)" fill="#b4d2f5"/>
          <path id="Trazado_629515" data-name="Trazado 629515" d="M646.785,315.25a.489.489,0,1,1-.654-.226A.488.488,0,0,1,646.785,315.25Z" transform="translate(-640.947 -314.975)" fill="#b4d2f5"/>
          <path id="Trazado_629516" data-name="Trazado 629516" d="M633.406,328.353a.489.489,0,1,1-.653-.225A.489.489,0,0,1,633.406,328.353Z" transform="translate(-631.681 -324.05)" fill="#b4d2f5"/>
          <path id="Trazado_629517" data-name="Trazado 629517" d="M638.73,325.759a.489.489,0,1,1-.653-.226A.488.488,0,0,1,638.73,325.759Z" transform="translate(-635.368 -322.254)" fill="#b4d2f5"/>
          <path id="Trazado_629518" data-name="Trazado 629518" d="M644.053,323.167a.489.489,0,1,1-.654-.226A.489.489,0,0,1,644.053,323.167Z" transform="translate(-639.055 -320.458)" fill="#b4d2f5"/>
          <path id="Trazado_629519" data-name="Trazado 629519" d="M649.378,320.574a.489.489,0,1,1-.654-.226A.489.489,0,0,1,649.378,320.574Z" transform="translate(-642.743 -318.663)" fill="#b4d2f5"/>
          <path id="Trazado_629520" data-name="Trazado 629520" d="M636,333.676a.489.489,0,1,1-.654-.226A.487.487,0,0,1,636,333.676Z" transform="translate(-633.477 -327.737)" fill="#b4d2f5"/>
          <path id="Trazado_629521" data-name="Trazado 629521" d="M641.324,331.084a.489.489,0,1,1-.654-.225A.49.49,0,0,1,641.324,331.084Z" transform="translate(-637.165 -325.941)" fill="#b4d2f5"/>
          <path id="Trazado_629522" data-name="Trazado 629522" d="M646.647,328.491a.489.489,0,1,1-.653-.226A.489.489,0,0,1,646.647,328.491Z" transform="translate(-640.851 -324.146)" fill="#b4d2f5"/>
          <path id="Trazado_629523" data-name="Trazado 629523" d="M651.97,325.9a.489.489,0,1,1-.654-.225A.488.488,0,0,1,651.97,325.9Z" transform="translate(-644.538 -322.349)" fill="#b4d2f5"/>
        </g>
        <g id="Grupo_954450" data-name="Grupo 954450" transform="translate(7.577 15.203)">
          <path id="Trazado_629524" data-name="Trazado 629524" d="M649.911,363.494a.489.489,0,1,1-.654-.225A.488.488,0,0,1,649.911,363.494Z" transform="translate(-648.983 -360.828)" fill="#b4d2f5"/>
          <path id="Trazado_629525" data-name="Trazado 629525" d="M655.236,360.9a.489.489,0,1,1-.654-.226A.49.49,0,0,1,655.236,360.9Z" transform="translate(-652.671 -359.031)" fill="#b4d2f5"/>
          <path id="Trazado_629526" data-name="Trazado 629526" d="M660.56,358.307a.489.489,0,1,1-.654-.225A.489.489,0,0,1,660.56,358.307Z" transform="translate(-656.359 -357.235)" fill="#b4d2f5"/>
          <path id="Trazado_629527" data-name="Trazado 629527" d="M665.883,355.715a.489.489,0,1,1-.653-.225A.489.489,0,0,1,665.883,355.715Z" transform="translate(-660.045 -355.44)" fill="#b4d2f5"/>
          <path id="Trazado_629528" data-name="Trazado 629528" d="M652.505,368.818a.489.489,0,1,1-.654-.227A.488.488,0,0,1,652.505,368.818Z" transform="translate(-650.779 -364.515)" fill="#b4d2f5"/>
          <path id="Trazado_629529" data-name="Trazado 629529" d="M657.829,366.225a.489.489,0,1,1-.654-.225A.488.488,0,0,1,657.829,366.225Z" transform="translate(-654.467 -362.719)" fill="#b4d2f5"/>
          <path id="Trazado_629530" data-name="Trazado 629530" d="M663.153,363.631a.489.489,0,1,1-.654-.225A.489.489,0,0,1,663.153,363.631Z" transform="translate(-658.154 -360.923)" fill="#b4d2f5"/>
          <path id="Trazado_629531" data-name="Trazado 629531" d="M668.477,361.038a.489.489,0,1,1-.653-.225A.489.489,0,0,1,668.477,361.038Z" transform="translate(-661.841 -359.127)" fill="#b4d2f5"/>
          <path id="Trazado_629532" data-name="Trazado 629532" d="M655.1,374.142a.489.489,0,1,1-.654-.225A.489.489,0,0,1,655.1,374.142Z" transform="translate(-652.576 -368.203)" fill="#b4d2f5"/>
          <path id="Trazado_629533" data-name="Trazado 629533" d="M660.422,371.548a.489.489,0,1,1-.653-.225A.489.489,0,0,1,660.422,371.548Z" transform="translate(-656.262 -366.406)" fill="#b4d2f5"/>
          <path id="Trazado_629534" data-name="Trazado 629534" d="M665.746,368.955a.489.489,0,1,1-.654-.225A.488.488,0,0,1,665.746,368.955Z" transform="translate(-659.95 -364.61)" fill="#b4d2f5"/>
          <path id="Trazado_629535" data-name="Trazado 629535" d="M671.07,366.363a.489.489,0,1,1-.654-.226A.489.489,0,0,1,671.07,366.363Z" transform="translate(-663.637 -362.814)" fill="#b4d2f5"/>
        </g>
      </g>
      <g id="Grupo_954454" data-name="Grupo 954454" transform="translate(16.68 84.353)">
        <path id="Trazado_629536" data-name="Trazado 629536" d="M377.516,437.627h0a4.225,4.225,0,0,1-1.235,5.846l-13.309,8.669a4.226,4.226,0,0,1-5.846-1.235h0a4.225,4.225,0,0,1,1.234-5.846l13.31-8.669A4.226,4.226,0,0,1,377.516,437.627Z" transform="translate(-356.44 -435.708)" fill="#84b5ef"/>
        <path id="Trazado_629537" data-name="Trazado 629537" d="M383.853,450.443l2.706,4.153a.741.741,0,0,1-.216,1.026l-4.039,2.631a.742.742,0,0,1-1.026-.217l-2.705-4.153a.742.742,0,0,1,.217-1.026l4.039-2.63A.74.74,0,0,1,383.853,450.443Z" transform="translate(-371.686 -445.679)" fill="#b4d2f5"/>
        <g id="Grupo_954452" data-name="Grupo 954452" transform="translate(2.268 8.461)">
          <path id="Trazado_629538" data-name="Trazado 629538" d="M372.958,482.979a.451.451,0,1,1-.131.624A.452.452,0,0,1,372.958,482.979Z" transform="translate(-370.008 -476.858)" fill="#b4d2f5"/>
          <path id="Trazado_629539" data-name="Trazado 629539" d="M369.98,478.407a.45.45,0,1,1-.132.623A.45.45,0,0,1,369.98,478.407Z" transform="translate(-367.944 -473.691)" fill="#b4d2f5"/>
          <path id="Trazado_629540" data-name="Trazado 629540" d="M367,473.834a.45.45,0,1,1-.131.624A.451.451,0,0,1,367,473.834Z" transform="translate(-365.882 -470.524)" fill="#b4d2f5"/>
          <path id="Trazado_629541" data-name="Trazado 629541" d="M364.024,469.261a.45.45,0,1,1-.131.624A.452.452,0,0,1,364.024,469.261Z" transform="translate(-363.819 -467.357)" fill="#b4d2f5"/>
          <path id="Trazado_629542" data-name="Trazado 629542" d="M377.531,480a.45.45,0,1,1-.132.623A.45.45,0,0,1,377.531,480Z" transform="translate(-373.174 -474.796)" fill="#b4d2f5"/>
          <path id="Trazado_629543" data-name="Trazado 629543" d="M374.552,475.427a.451.451,0,1,1-.132.623A.451.451,0,0,1,374.552,475.427Z" transform="translate(-371.111 -471.628)" fill="#b4d2f5"/>
          <path id="Trazado_629544" data-name="Trazado 629544" d="M371.574,470.856a.45.45,0,1,1-.132.624A.45.45,0,0,1,371.574,470.856Z" transform="translate(-369.049 -468.462)" fill="#b4d2f5"/>
          <path id="Trazado_629545" data-name="Trazado 629545" d="M368.6,466.283a.45.45,0,1,1-.132.624A.45.45,0,0,1,368.6,466.283Z" transform="translate(-366.986 -465.294)" fill="#b4d2f5"/>
          <path id="Trazado_629546" data-name="Trazado 629546" d="M382.1,477.023a.451.451,0,1,1-.131.624A.452.452,0,0,1,382.1,477.023Z" transform="translate(-376.341 -472.733)" fill="#b4d2f5"/>
          <path id="Trazado_629547" data-name="Trazado 629547" d="M379.125,472.45a.45.45,0,1,1-.131.623A.451.451,0,0,1,379.125,472.45Z" transform="translate(-374.278 -469.565)" fill="#b4d2f5"/>
          <path id="Trazado_629548" data-name="Trazado 629548" d="M376.147,467.878a.45.45,0,1,1-.131.622A.45.45,0,0,1,376.147,467.878Z" transform="translate(-372.216 -466.399)" fill="#b4d2f5"/>
          <path id="Trazado_629549" data-name="Trazado 629549" d="M373.169,463.3a.45.45,0,1,1-.131.624A.45.45,0,0,1,373.169,463.3Z" transform="translate(-370.153 -463.232)" fill="#b4d2f5"/>
        </g>
        <g id="Grupo_954453" data-name="Grupo 954453" transform="translate(12.973 1.674)">
          <path id="Trazado_629550" data-name="Trazado 629550" d="M407.782,460.9a.451.451,0,1,1-.132.624A.451.451,0,0,1,407.782,460.9Z" transform="translate(-404.831 -454.779)" fill="#b4d2f5"/>
          <path id="Trazado_629551" data-name="Trazado 629551" d="M404.8,456.328a.45.45,0,1,1-.132.623A.451.451,0,0,1,404.8,456.328Z" transform="translate(-402.768 -451.613)" fill="#b4d2f5"/>
          <path id="Trazado_629552" data-name="Trazado 629552" d="M401.826,451.755a.45.45,0,1,1-.132.623A.45.45,0,0,1,401.826,451.755Z" transform="translate(-400.705 -448.446)" fill="#b4d2f5"/>
          <path id="Trazado_629553" data-name="Trazado 629553" d="M398.848,447.183a.45.45,0,1,1-.131.623A.45.45,0,0,1,398.848,447.183Z" transform="translate(-398.643 -445.279)" fill="#b4d2f5"/>
          <path id="Trazado_629554" data-name="Trazado 629554" d="M412.355,457.923a.45.45,0,1,1-.132.623A.45.45,0,0,1,412.355,457.923Z" transform="translate(-407.998 -452.717)" fill="#b4d2f5"/>
          <path id="Trazado_629555" data-name="Trazado 629555" d="M409.376,453.351a.451.451,0,1,1-.132.623A.45.45,0,0,1,409.376,453.351Z" transform="translate(-405.935 -449.551)" fill="#b4d2f5"/>
          <path id="Trazado_629556" data-name="Trazado 629556" d="M406.4,448.777a.451.451,0,1,1-.132.623A.45.45,0,0,1,406.4,448.777Z" transform="translate(-403.872 -446.383)" fill="#b4d2f5"/>
          <path id="Trazado_629557" data-name="Trazado 629557" d="M403.42,444.205a.45.45,0,1,1-.132.623A.45.45,0,0,1,403.42,444.205Z" transform="translate(-401.81 -443.216)" fill="#b4d2f5"/>
          <path id="Trazado_629558" data-name="Trazado 629558" d="M416.927,454.944a.451.451,0,1,1-.131.624A.451.451,0,0,1,416.927,454.944Z" transform="translate(-411.165 -450.655)" fill="#b4d2f5"/>
          <path id="Trazado_629559" data-name="Trazado 629559" d="M413.948,450.372a.45.45,0,1,1-.131.622A.45.45,0,0,1,413.948,450.372Z" transform="translate(-409.102 -447.487)" fill="#b4d2f5"/>
          <path id="Trazado_629560" data-name="Trazado 629560" d="M410.971,445.8a.45.45,0,1,1-.132.623A.451.451,0,0,1,410.971,445.8Z" transform="translate(-407.039 -444.321)" fill="#b4d2f5"/>
          <path id="Trazado_629561" data-name="Trazado 629561" d="M407.993,441.227a.45.45,0,1,1-.132.623A.45.45,0,0,1,407.993,441.227Z" transform="translate(-404.977 -441.153)" fill="#b4d2f5"/>
        </g>
      </g>
    </g>
  </g>
</svg>
