<svg xmlns="http://www.w3.org/2000/svg" width="143.984" height="149.833" viewBox="0 0 143.984 149.833">
  <g id="Filledoutline" transform="translate(-24 -16)">
    <rect id="Rectángulo_307834" data-name="Rectángulo 307834" width="84.811" height="117.194" rx="24" transform="translate(61.78 28.336)" fill="#0093b9"/>
    <path id="Trazado_631677" data-name="Trazado 631677" d="M176,88h64.928v97.391H176Z" transform="translate(-104.553 -49.525)" fill="#e3e4e2"/>
    <path id="Trazado_631678" data-name="Trazado 631678" d="M258.961,43.978H224V33.989h9.989L231.492,24h19.978l-2.5,9.989h9.989Z" transform="translate(-137.57 -5.503)" fill="#57c3c1"/>
    <path id="Trazado_631679" data-name="Trazado 631679" d="M121.9,311.911H32V232H76.95v39.955H121.9Z" transform="translate(-5.503 -148.575)" fill="#f8bc1e"/>
    <path id="Trazado_631680" data-name="Trazado 631680" d="M224,360h14.983v14.983H224Z" transform="translate(-137.57 -236.62)" fill="#f9da62"/>
    <path id="Trazado_631681" data-name="Trazado 631681" d="M226.453,368h-3.746a3.746,3.746,0,0,0-3.746,3.746v6.338a19.884,19.884,0,0,1-19.881,19.883H187.746A3.746,3.746,0,0,0,184,401.712v3.746h42.453Z" transform="translate(-110.056 -242.122)" fill="#f5a922"/>
    <path id="Trazado_631682" data-name="Trazado 631682" d="M80,360H94.983v14.983H80Z" transform="translate(-38.519 -236.62)" fill="#f9da62"/>
    <path id="Trazado_631683" data-name="Trazado 631683" d="M82.453,368H78.707a3.746,3.746,0,0,0-3.746,3.746v6.338A19.884,19.884,0,0,1,55.08,397.967H43.746A3.746,3.746,0,0,0,40,401.712v3.746H82.453Z" transform="translate(-11.006 -242.122)" fill="#f5a922"/>
    <path id="Trazado_631684" data-name="Trazado 631684" d="M80,232H94.983v14.983H80Z" transform="translate(-38.519 -148.575)" fill="#f9da62"/>
    <path id="Trazado_631685" data-name="Trazado 631685" d="M82.453,240H78.707a3.746,3.746,0,0,0-3.746,3.746v6.338A19.884,19.884,0,0,1,55.08,269.967H43.746A3.746,3.746,0,0,0,40,273.712v3.746H82.453Z" transform="translate(-11.006 -154.078)" fill="#f5a922"/>
    <path id="Trazado_631686" data-name="Trazado 631686" d="M293.989,240.4,227,260.439l-11-1.922,8.138-7.648,66.988-20.043a4.994,4.994,0,1,1,2.863,9.569Z" transform="translate(-132.067 -147.623)" fill="#f8bc1e"/>
    <path id="Trazado_631687" data-name="Trazado 631687" d="M294.232,227.96a7.492,7.492,0,0,0-9.324-5.03l-66.988,20.042a2.5,2.5,0,0,0-.994.573l-8.138,7.648a2.5,2.5,0,0,0,1.28,4.28l11,1.922a2.5,2.5,0,0,0,1.146-.067l54.354-16.263.235,5.143-17.271,5.167,1.432,4.785,19.139-5.727a2.5,2.5,0,0,0,1.779-2.506l-.382-8.336,7.7-2.3a7.492,7.492,0,0,0,5.03-9.325Zm-72.884,24.413-5.5-.961,4.069-3.824,11.4-3.409,1.432,4.785Zm16.182-4.842-1.432-4.785,40-11.968.235,5.143Zm51.724-16.239a2.482,2.482,0,0,1-1.482,1.207l-6.506,1.946-.235-5.143,5.309-1.589a2.5,2.5,0,0,1,2.914,3.578Z" transform="translate(-126.564 -142.119)"/>
    <path id="Trazado_631688" data-name="Trazado 631688" d="M116.4,263.955H73.944V226.5a2.5,2.5,0,0,0-2.5-2.5H26.5a2.5,2.5,0,0,0-2.5,2.5v79.911a2.5,2.5,0,0,0,2.5,2.5h89.9a2.5,2.5,0,0,0,2.5-2.5V266.453A2.5,2.5,0,0,0,116.4,263.955ZM88.928,268.95h9.989v9.989H88.928Zm-44.95-39.956h9.989v9.989H43.978Zm-14.983,0h9.989v12.486a2.5,2.5,0,0,0,2.5,2.5H56.464a2.5,2.5,0,0,0,2.5-2.5V228.994H68.95v34.961H28.994ZM43.978,268.95h9.989v9.989H43.978Zm-14.983,0h9.989v12.486a2.5,2.5,0,0,0,2.5,2.5H56.464a2.5,2.5,0,0,0,2.5-2.5V268.95H68.95v34.961H28.994ZM113.9,303.911H73.944V268.95h9.989v12.486a2.5,2.5,0,0,0,2.5,2.5h14.983a2.5,2.5,0,0,0,2.5-2.5V268.95H113.9Z" transform="translate(0 -143.072)"/>
    <path id="Trazado_631689" data-name="Trazado 631689" d="M280,448h4.994v4.994H280Z" transform="translate(-176.089 -297.15)"/>
    <path id="Trazado_631690" data-name="Trazado 631690" d="M136,448h4.994v4.994H136Z" transform="translate(-77.039 -297.15)"/>
    <path id="Trazado_631691" data-name="Trazado 631691" d="M136,320h4.994v4.994H136Z" transform="translate(-77.039 -209.106)"/>
    <path id="Trazado_631692" data-name="Trazado 631692" d="M140.994,35.978a5,5,0,0,1,4.994-4.994h14.983v4.994H148.486a2.5,2.5,0,0,0-2.5,2.5V75.933h4.994V40.972h59.933V80.928h4.994V38.475a2.5,2.5,0,0,0-2.5-2.5H200.928V30.983h14.983a5,5,0,0,1,4.994,4.994V78.43H225.9V35.978a10,10,0,0,0-9.989-9.989H191.64l1.722-6.886a2.5,2.5,0,0,0-2.423-3.1H170.961a2.5,2.5,0,0,0-2.423,3.1l1.722,6.886H145.989A10,10,0,0,0,136,35.978V75.933h4.994Zm24.972-4.994h7.492a2.5,2.5,0,0,0,2.423-3.1l-1.722-6.886H187.74l-1.722,6.886a2.5,2.5,0,0,0,2.423,3.1h7.492v4.994H165.967Z" transform="translate(-77.039)"/>
    <path id="Trazado_631693" data-name="Trazado 631693" d="M363.978,358.475a5,5,0,0,1-4.994,4.994H344v4.994h14.983a10,10,0,0,0,9.989-9.989V336h-4.994Z" transform="translate(-220.111 -220.111)"/>
    <path id="Trazado_631694" data-name="Trazado 631694" d="M358.983,361.481V344h-4.994v14.983H344v4.994h12.486A2.5,2.5,0,0,0,358.983,361.481Z" transform="translate(-220.111 -225.614)"/>
    <path id="Trazado_631695" data-name="Trazado 631695" d="M214.983,114.5a2.5,2.5,0,0,0-2.5-2.5H202.5a2.5,2.5,0,0,0-2.5,2.5v9.989a2.5,2.5,0,0,0,2.5,2.5h9.989a2.5,2.5,0,0,0,2.5-2.5Zm-4.994,7.492h-4.994v-4.994h4.994Z" transform="translate(-121.061 -66.033)"/>
    <path id="Trazado_631696" data-name="Trazado 631696" d="M212.486,184H202.5a2.5,2.5,0,0,0-2.5,2.5v9.989a2.5,2.5,0,0,0,2.5,2.5h9.989a2.5,2.5,0,0,0,2.5-2.5V186.5A2.5,2.5,0,0,0,212.486,184Zm-2.5,9.989h-4.994v-4.994h4.994Z" transform="translate(-121.061 -115.558)"/>
    <path id="Trazado_631697" data-name="Trazado 631697" d="M264,112h4.994v4.994H264Z" transform="translate(-165.083 -66.033)"/>
    <path id="Trazado_631698" data-name="Trazado 631698" d="M264,144h29.967v4.994H264Z" transform="translate(-165.083 -88.045)"/>
    <path id="Trazado_631699" data-name="Trazado 631699" d="M296,112h19.978v4.994H296Z" transform="translate(-187.095 -66.033)"/>
    <path id="Trazado_631700" data-name="Trazado 631700" d="M264,184h4.994v4.994H264Z" transform="translate(-165.083 -115.558)"/>
    <path id="Trazado_631701" data-name="Trazado 631701" d="M264,216h29.967v4.994H264Z" transform="translate(-165.083 -137.57)"/>
    <path id="Trazado_631702" data-name="Trazado 631702" d="M296,184h19.978v4.994H296Z" transform="translate(-187.095 -115.558)"/>
  </g>
</svg>
