<svg xmlns="http://www.w3.org/2000/svg" xmlns:xlink="http://www.w3.org/1999/xlink" width="115" height="115" viewBox="0 0 115 115">
  <defs>
    <filter id="Elipse_7750" x="0" y="0" width="115" height="115" filterUnits="userSpaceOnUse">
      <feOffset dy="3" input="SourceAlpha"/>
      <feGaussianBlur stdDeviation="3" result="blur"/>
      <feFlood flood-opacity="0.161"/>
      <feComposite operator="in" in2="blur"/>
      <feComposite in="SourceGraphic"/>
    </filter>
  </defs>
  <g id="Grupo_969349" data-name="Grupo 969349" transform="translate(-753 -8436)">
    <g transform="matrix(1, 0, 0, 1, 753, 8436)" filter="url(#Elipse_7750)">
      <circle id="Elipse_7750-2" data-name="Elipse 7750" cx="48.5" cy="48.5" r="48.5" transform="translate(9 6)" fill="#f0bd51"/>
    </g>
    <g id="identificar_1_" data-name="identificar (1)" transform="translate(779.999 8457)">
      <path id="Trazado_630116" data-name="Trazado 630116" d="M136.914,7.5a21.035,21.035,0,0,0-17.365,32.527,1.367,1.367,0,0,1-.174,1.716l-7.149,7.149L116.8,53.47l7.149-7.149a1.367,1.367,0,0,1,1.716-.174A21.033,21.033,0,1,0,136.914,7.5Z" transform="translate(-99.074 -6.622)" fill="#c5d3dd"/>
      <circle id="Elipse_7757" data-name="Elipse 7757" cx="16.178" cy="16.178" r="16.178" transform="translate(21.912 5.732)" fill="#f9f7f8"/>
      <path id="Trazado_630117" data-name="Trazado 630117" d="M258.43,55.065a16.183,16.183,0,0,1-14.264,28.572A16.181,16.181,0,1,0,258.43,55.065Z" transform="translate(-215.552 -48.612)" fill="#dff6fd"/>
      <path id="Trazado_630118" data-name="Trazado 630118" d="M258.273,104.139l-8.861,15.348h17.723Z" transform="translate(-220.183 -91.935)" fill="#fdb441"/>
      <path id="Trazado_630119" data-name="Trazado 630119" d="M27.464,340.563l-6.69-6.69a.123.123,0,0,0-.174,0L7.536,346.936a.123.123,0,0,0-.036.087v6.813h6.813a.123.123,0,0,0,.087-.036l13.064-13.064A.123.123,0,0,0,27.464,340.563Z" transform="translate(-6.62 -294.715)" fill="#7a6d79"/>
      <g id="Grupo_954613" data-name="Grupo 954613" transform="translate(4.176 2.887)">
        <path id="Trazado_630120" data-name="Trazado 630120" d="M49.837,108.342l-4.7-1.217a1.618,1.618,0,0,1,.811-3.132l4.7,1.217a1.618,1.618,0,0,1-.811,3.132Z" transform="translate(-42.954 -94.648)" fill="#fe646f"/>
        <path id="Trazado_630121" data-name="Trazado 630121" d="M42.189,190.743l-4.844.3a1.618,1.618,0,0,1-.2-3.23l4.844-.3a1.618,1.618,0,0,1,.2,3.23Z" transform="translate(-35.628 -168.424)" fill="#fe646f"/>
        <path id="Trazado_630122" data-name="Trazado 630122" d="M85.042,27.5,80.95,24.893a1.618,1.618,0,0,0-1.74,2.728L83.3,30.232a1.618,1.618,0,1,0,1.74-2.728Z" transform="translate(-73.442 -24.639)" fill="#fe646f"/>
      </g>
      <path id="Trazado_630123" data-name="Trazado 630123" d="M80.084,358.957,72.2,351.072a.144.144,0,0,1,0-.2l2.558-2.558a.144.144,0,0,1,.2,0l7.885,7.885a.144.144,0,0,1,0,.2l-2.558,2.558A.144.144,0,0,1,80.084,358.957Z" transform="translate(-63.7 -307.455)" fill="#c5d3dd"/>
      <path id="Trazado_630124" data-name="Trazado 630124" d="M196.53,75.532a17.057,17.057,0,1,0-17.057-17.057A17.077,17.077,0,0,0,196.53,75.532Zm0-32.357a15.3,15.3,0,1,1-15.3,15.3A15.317,15.317,0,0,1,196.53,43.175Z" transform="translate(-158.44 -36.563)"/>
      <path id="Trazado_630125" data-name="Trazado 630125" d="M242.792,113.745h17.722a.879.879,0,0,0,.761-1.318l-1.589-2.753a.879.879,0,0,0-1.522.879l.828,1.434H244.314l7.339-12.711,4.42,7.656a.879.879,0,0,0,1.522-.879l-5.181-8.974a.879.879,0,0,0-1.522,0l-8.861,15.348a.879.879,0,0,0,.761,1.318Z" transform="translate(-213.563 -85.314)"/>
      <path id="Trazado_630126" data-name="Trazado 630126" d="M319.287,152.741a.879.879,0,0,0-1.758,0v2.415a.879.879,0,0,0,1.758,0Z" transform="translate(-280.318 -134.066)"/>
      <circle id="Elipse_7758" data-name="Elipse 7758" cx="0.879" cy="0.879" r="0.879" transform="translate(37.21 23.376)"/>
      <path id="Trazado_630127" data-name="Trazado 630127" d="M38.3,101.352l4.7,1.217a2.5,2.5,0,1,0,1.252-4.834l-4.7-1.217a2.5,2.5,0,1,0-1.252,4.834Zm-.089-2.6a.739.739,0,0,1,.9-.53l4.7,1.217a.739.739,0,0,1-.371,1.431l-4.7-1.217A.74.74,0,0,1,38.209,98.75Z" transform="translate(-32.158 -85.136)"/>
      <path id="Trazado_630128" data-name="Trazado 630128" d="M30.777,185.295l4.845-.3h0a2.5,2.5,0,0,0-.305-4.984l-4.845.3a2.5,2.5,0,0,0,.305,4.984Zm-.706-2.982a.734.734,0,0,1,.508-.248l4.845-.3a.739.739,0,0,1,.09,1.475l-4.845.3A.74.74,0,0,1,30.071,182.313Z" transform="translate(-24.831 -158.914)"/>
      <path id="Trazado_630129" data-name="Trazado 630129" d="M72.111,21.747,76.2,24.358a2.5,2.5,0,1,0,2.686-4.209L74.8,17.537a2.5,2.5,0,0,0-2.686,4.21Zm.72-2.5a.74.74,0,0,1,1.02-.225l4.091,2.611a.739.739,0,1,1-.795,1.246l-4.091-2.611A.738.738,0,0,1,72.831,19.245Z" transform="translate(-62.64 -15.137)"/>
      <path id="Trazado_630130" data-name="Trazado 630130" d="M53.584,6.418A21.955,21.955,0,0,0,24.4,4.776a.879.879,0,1,0,1.1,1.373,20.169,20.169,0,0,1,32.744,16A20.156,20.156,0,0,1,27.075,38.79a2.256,2.256,0,0,0-2.819.288l-4.47,4.47-3.333-3.333,4.469-4.47a2.256,2.256,0,0,0,.288-2.819A20.209,20.209,0,0,1,22.657,8.918a.879.879,0,0,0-1.345-1.132,21.969,21.969,0,0,0-1.572,26.1.485.485,0,0,1-.06.613l-4.47,4.47-.436-.436a1,1,0,0,0-1.416,0l-1.6,1.6a1.023,1.023,0,0,0-1.328.1L7.877,42.791a1.023,1.023,0,0,0-.1,1.328L.294,51.6A1,1,0,0,0,0,52.308v6.813A.879.879,0,0,0,.88,60H7.693a1,1,0,0,0,.708-.293l7.481-7.481a1.023,1.023,0,0,0,1.328-.1l2.558-2.558a1.023,1.023,0,0,0,.1-1.328l1.6-1.6a1,1,0,0,0,0-1.416l-.436-.436,4.47-4.47a.485.485,0,0,1,.613-.06A21.912,21.912,0,0,0,53.584,6.418Zm-39.517,33.9,5.621,5.621-1.052,1.052-5.621-5.621Zm2.42,10.048-1.044-1.044A.879.879,0,0,0,14.2,50.56l.431.431L7.38,58.242H1.759V52.621L9.01,45.37,11.3,47.657a.879.879,0,0,0,1.243-1.243l-2.9-2.9L11.159,42l6.846,6.846Z"/>
    </g>
  </g>
</svg>
