<svg xmlns="http://www.w3.org/2000/svg" xmlns:xlink="http://www.w3.org/1999/xlink" width="115" height="115" viewBox="0 0 115 115">
  <defs>
    <filter id="Elipse_7752" x="0" y="0" width="115" height="115" filterUnits="userSpaceOnUse">
      <feOffset dy="3" input="SourceAlpha"/>
      <feGaussianBlur stdDeviation="3" result="blur"/>
      <feFlood flood-opacity="0.161"/>
      <feComposite operator="in" in2="blur"/>
      <feComposite in="SourceGraphic"/>
    </filter>
  </defs>
  <g id="Grupo_969351" data-name="Grupo 969351" transform="translate(-753 -8727)">
    <g transform="matrix(1, 0, 0, 1, 753, 8727)" filter="url(#Elipse_7752)">
      <circle id="Elipse_7752-2" data-name="Elipse 7752" cx="48.5" cy="48.5" r="48.5" transform="translate(9 6)" fill="#f0bd51"/>
    </g>
    <g id="sincronizar_1_" data-name="sincronizar (1)" transform="translate(769.289 8748)">
      <path id="Trazado_630131" data-name="Trazado 630131" d="M66.541,53.746a.665.665,0,0,1-.639-.491,24.8,24.8,0,0,0-48.689,5.5,1.057,1.057,0,0,0,1.054,1.108h9.327a1.053,1.053,0,0,0,1.05-.978,13.378,13.378,0,0,1,24.666-6.153.662.662,0,0,1-.557,1.019h-4.5a.661.661,0,0,0-.475,1.121L59.341,66.8a.661.661,0,0,0,.949,0L71.859,54.868a.661.661,0,0,0-.475-1.121H66.541Z" transform="translate(-6.526 -30.5)" fill="#b3e59f"/>
      <g id="Grupo_954614" data-name="Grupo 954614" transform="translate(14.161 4.555)">
        <path id="Trazado_630132" data-name="Trazado 630132" d="M94.656,53.746H89.812a.665.665,0,0,1-.639-.491,24.8,24.8,0,0,0-45.215-6.084,24.793,24.793,0,0,1,43.077,9.122.665.665,0,0,0,.639.491h4.844a.648.648,0,0,1,.516.246l2.1-2.163A.661.661,0,0,0,94.656,53.746Z" transform="translate(-43.958 -35.055)" fill="#95d6a4"/>
      </g>
      <path id="Trazado_630133" data-name="Trazado 630133" d="M78.244,244.294a.665.665,0,0,1,.639.491,24.8,24.8,0,0,0,48.689-5.5,1.057,1.057,0,0,0-1.054-1.108h-9.327a1.053,1.053,0,0,0-1.05.978,13.378,13.378,0,0,1-24.666,6.153.662.662,0,0,1,.557-1.019h4.5a.661.661,0,0,0,.475-1.121L85.444,231.238a.661.661,0,0,0-.949,0L72.926,243.173a.661.661,0,0,0,.475,1.121Z" transform="translate(-54.837 -201.016)" fill="#b3e59f"/>
      <g id="Grupo_954615" data-name="Grupo 954615" transform="translate(17.901 39.993)">
        <path id="Trazado_630134" data-name="Trazado 630134" d="M73.4,311.064h4.844a.665.665,0,0,1,.639.491,24.8,24.8,0,0,0,45.215,6.083,24.793,24.793,0,0,1-43.077-9.122.665.665,0,0,0-.639-.491H75.537a.647.647,0,0,1-.516-.246l-2.1,2.163A.661.661,0,0,0,73.4,311.064Z" transform="translate(-72.737 -307.779)" fill="#95d6a4"/>
      </g>
      <g id="Grupo_954616" data-name="Grupo 954616" transform="translate(9.711 0)">
        <path id="Trazado_630135" data-name="Trazado 630135" d="M219.358,1.962a23.82,23.82,0,0,1,23.676,17.185.974.974,0,0,0,.936.7H244l4.691-.155a.975.975,0,1,0-.064-1.948l-3.946.13a25.983,25.983,0,0,0-9.277-12.861,25.5,25.5,0,0,0-16.112-5,.975.975,0,1,0,.064,1.948Z" transform="translate(-191.24 0)"/>
        <path id="Trazado_630136" data-name="Trazado 630136" d="M83.12,377.074a23.816,23.816,0,0,1-23.676-17.185.975.975,0,0,0-.968-.7l-4.691.155a.975.975,0,1,0,.064,1.948l3.946-.13a25.982,25.982,0,0,0,9.277,12.861,25.471,25.471,0,0,0,15.234,5.017q.438,0,.878-.014a.975.975,0,0,0-.064-1.948Z" transform="translate(-47.237 -312.513)"/>
        <path id="Trazado_630137" data-name="Trazado 630137" d="M197.655,29.511c.156,0,.312-.006.469-.006A23.9,23.9,0,0,1,221.095,46.99a1.645,1.645,0,0,0,1.578,1.206h4.1l-10.829,11.17-2.374-2.449a.975.975,0,0,0-1.4,1.357l2.6,2.681a1.636,1.636,0,0,0,2.349,0l11.569-11.934a1.636,1.636,0,0,0-1.174-2.774H222.91a25.857,25.857,0,0,0-24.787-18.691c-.169,0-.338,0-.506.006a.975.975,0,1,0,.037,1.949Z" transform="translate(-172.369 -23.975)"/>
        <path id="Trazado_630138" data-name="Trazado 630138" d="M23.089,54.86a12.4,12.4,0,0,1,22.554-6.179H41.721a1.636,1.636,0,0,0-1.174,2.774L46.893,58a.975.975,0,0,0,1.4-1.357L42.461,50.63h3.765a1.637,1.637,0,0,0,1.381-2.514,14.353,14.353,0,0,0-26.461,6.6.078.078,0,0,1-.078.074H11.74a.072.072,0,0,1-.056-.024.087.087,0,0,1-.024-.067A23.956,23.956,0,0,1,31.387,32.288a.974.974,0,0,0-.333-1.92A25.824,25.824,0,0,0,9.713,54.617a2.049,2.049,0,0,0,.563,1.5,2.009,2.009,0,0,0,1.464.626h9.327A2.036,2.036,0,0,0,23.089,54.86Z" transform="translate(-9.711 -26.409)"/>
        <path id="Trazado_630139" data-name="Trazado 630139" d="M121.462,231.307a2.009,2.009,0,0,0-1.464-.625h-9.327a2.036,2.036,0,0,0-2.022,1.882A12.4,12.4,0,0,1,86.1,238.743h3.922a1.636,1.636,0,0,0,1.174-2.774L79.623,224.034a1.644,1.644,0,0,0-1.174-.5h0a1.645,1.645,0,0,0-1.175.5L65.7,235.968a1.636,1.636,0,0,0,1.174,2.774h4.607a25.79,25.79,0,0,0,7.295,11.831.975.975,0,1,0,1.324-1.431A23.838,23.838,0,0,1,73.3,238a1.645,1.645,0,0,0-1.578-1.207h-4.1l10.829-11.171,10.829,11.171H85.512a1.637,1.637,0,0,0-1.381,2.514,14.353,14.353,0,0,0,26.461-6.6.078.078,0,0,1,.078-.074H120a.072.072,0,0,1,.056.024.087.087,0,0,1,.024.066A23.817,23.817,0,0,1,82.943,251.4a.975.975,0,0,0-1.093,1.614,25.783,25.783,0,0,0,40.175-20.2A2.05,2.05,0,0,0,121.462,231.307Z" transform="translate(-58.027 -194.491)"/>
      </g>
    </g>
  </g>
</svg>
