<svg xmlns="http://www.w3.org/2000/svg" width="547.434" height="310.39" viewBox="0 0 547.434 310.39">
  <g id="Grupo_959320" data-name="Grupo 959320" transform="translate(6616.556 686.7)">
    <g id="Grupo_959315" data-name="Grupo 959315" transform="translate(-6616.556 -686.7)">
      <g id="Grupo_957328" data-name="Grupo 957328">
        <g id="Grupo_957327" data-name="Grupo 957327">
          <g id="Grupo_957326" data-name="Grupo 957326">
            <g id="Grupo_957325" data-name="Grupo 957325">
              <g id="Grupo_957324" data-name="Grupo 957324">
                <g id="Grupo_957323" data-name="Grupo 957323">
                  <path id="Trazado_632393" data-name="Trazado 632393" d="M700.377,304.909c-3.282-22.739-10.239-42.067-19.688-57.3q-4.815-7.761-10.158-15C634.624,183.87,582.6,153.55,542.209,149.537,380.767,133.5,388.172,216.043,301.563,220.569c-33.957,1.774-64.9,14.111-89.048,30.095A169.8,169.8,0,0,0,185.3,272.9c-.76.771-2.772,2.839-4.93,5.28-3.234,3.651-12.691,14.647-17.024,26.865q-.352.992-.65,1.963c-11.356,37.164-8.8,66.493-.51,89.007q.665,1.808,1.379,3.557,1.71,4.19,3.662,8.051c17.664,35.073,48.312,49.893,48.312,49.893l35.073.1,3.661.01,75.9.224h11.148l85.622,0h87.655l82.978,0h77.493q3.369-7.958,6.287-15.743,1.486-3.962,2.859-7.875a336.76,336.76,0,0,0,14.376-54.758,263.794,263.794,0,0,0,3.9-44.07q.006-6.791-.377-13.283Q701.587,313.228,700.377,304.909Z" transform="translate(-155.05 -147.472)" fill="#ebf3fa"/>
                </g>
              </g>
            </g>
          </g>
        </g>
      </g>
    </g>
    <g id="Grupo_959318" data-name="Grupo 959318" transform="translate(-6315.699 -626.324)">
      <g id="Grupo_958912" data-name="Grupo 958912">
        <g id="Grupo_958911" data-name="Grupo 958911">
          <g id="Grupo_958910" data-name="Grupo 958910">
            <g id="Grupo_958909" data-name="Grupo 958909">
              <path id="Trazado_632608" data-name="Trazado 632608" d="M1815.043,484.214s-1.779-5.5-7.182-4.534-3.492,8.954-3.492,8.954a4.345,4.345,0,0,0-2.952.457,1.423,1.423,0,0,0,.889,2.594,171.084,171.084,0,0,1,22.02.06,5.849,5.849,0,0,0,6.35-5.925,8.943,8.943,0,0,0-1.855-4.932C1823.758,473.7,1814.959,480.565,1815.043,484.214Z" transform="translate(-1800.796 -477.738)" fill="#fff"/>
            </g>
          </g>
        </g>
      </g>
    </g>
    <g id="Grupo_959317" data-name="Grupo 959317" transform="translate(-6297.701 -670.733)">
      <g id="Grupo_958915" data-name="Grupo 958915">
        <g id="Grupo_958914" data-name="Grupo 958914">
          <path id="Trazado_632609" data-name="Trazado 632609" d="M1944.057,250.212s3.115-13.837-8.956-15.289c-12.4-1.492-13.045,13.092-13.045,13.092s-7.031-7.737-10.863,1.689c0,0-7.567-3.818-11.2.765a3.457,3.457,0,0,0,.031,4.327h49.759a2.454,2.454,0,0,0-.354-2.172C1948.544,251.415,1946.937,250.389,1944.057,250.212Z" transform="translate(-1899.247 -234.816)" fill="#fff"/>
        </g>
      </g>
    </g>
    <g id="Grupo_959316" data-name="Grupo 959316" transform="translate(-6185.818 -585.241)">
      <g id="Grupo_958918" data-name="Grupo 958918">
        <g id="Grupo_958917" data-name="Grupo 958917">
          <path id="Trazado_632610" data-name="Trazado 632610" d="M2556.076,717.866s3.115-13.837-8.956-15.289c-12.4-1.492-13.045,13.092-13.045,13.092s-7.031-7.737-10.863,1.689c0,0-7.566-3.818-11.2.765a3.458,3.458,0,0,0,.031,4.327H2561.8a2.453,2.453,0,0,0-.354-2.172C2560.563,719.069,2558.956,718.043,2556.076,717.866Z" transform="translate(-2511.266 -702.47)" fill="#fff"/>
        </g>
      </g>
    </g>
    <g id="Grupo_959319" data-name="Grupo 959319" transform="translate(-6515.376 -591.109)">
      <g id="Grupo_958921" data-name="Grupo 958921">
        <g id="Grupo_958920" data-name="Grupo 958920">
          <path id="Trazado_632611" data-name="Trazado 632611" d="M739.238,682.19c-3.042-7.481-8.622-1.341-8.622-1.341s-.509-11.575-10.353-10.391c-9.58,1.152-7.108,12.135-7.108,12.135-2.286.14-3.561.954-4.263,1.914a1.947,1.947,0,0,0-.281,1.724H748.1a2.744,2.744,0,0,0,.024-3.434C745.243,679.16,739.238,682.19,739.238,682.19Z" transform="translate(-708.524 -670.374)" fill="#fff"/>
        </g>
      </g>
    </g>
  </g>
</svg>
