<svg xmlns="http://www.w3.org/2000/svg" width="547.434" height="314.587" viewBox="0 0 547.434 314.587">
  <g id="Grupo_969353" data-name="Grupo 969353" transform="translate(6616.556 -497.92)">
    <g id="Grupo_959369" data-name="Grupo 959369" transform="translate(0 1184.62)">
      <g id="Grupo_959315" data-name="Grupo 959315" transform="translate(-6616.556 -686.7)">
        <g id="Grupo_957328" data-name="Grupo 957328">
          <g id="Grupo_957327" data-name="Grupo 957327">
            <g id="Grupo_957326" data-name="Grupo 957326">
              <g id="Grupo_957325" data-name="Grupo 957325">
                <g id="Grupo_957324" data-name="Grupo 957324">
                  <g id="Grupo_957323" data-name="Grupo 957323">
                    <path id="Trazado_632393" data-name="Trazado 632393" d="M700.377,304.909c-3.282-22.739-10.239-42.067-19.688-57.3q-4.815-7.761-10.158-15C634.624,183.87,582.6,153.55,542.209,149.537,380.767,133.5,388.172,216.043,301.563,220.569c-33.957,1.774-64.9,14.111-89.048,30.095A169.8,169.8,0,0,0,185.3,272.9c-.76.771-2.772,2.839-4.93,5.28-3.234,3.651-12.691,14.647-17.024,26.865q-.352.992-.65,1.963c-11.356,37.164-8.8,66.493-.51,89.007q.665,1.808,1.379,3.557,1.71,4.19,3.662,8.051c17.664,35.073,48.312,49.893,48.312,49.893l35.073.1,3.661.01,75.9.224h11.148l85.622,0h87.655l82.978,0h77.493q3.369-7.958,6.287-15.743,1.486-3.962,2.859-7.875a336.76,336.76,0,0,0,14.376-54.758,263.794,263.794,0,0,0,3.9-44.07q.006-6.791-.377-13.283Q701.587,313.228,700.377,304.909Z" transform="translate(-155.05 -147.472)" fill="#ebf3fa"/>
                  </g>
                </g>
              </g>
            </g>
          </g>
        </g>
      </g>
      <g id="Grupo_959318" data-name="Grupo 959318" transform="translate(-6315.699 -626.324)">
        <g id="Grupo_958912" data-name="Grupo 958912">
          <g id="Grupo_958911" data-name="Grupo 958911">
            <g id="Grupo_958910" data-name="Grupo 958910">
              <g id="Grupo_958909" data-name="Grupo 958909">
                <path id="Trazado_632608" data-name="Trazado 632608" d="M1815.043,484.214s-1.779-5.5-7.182-4.534-3.492,8.954-3.492,8.954a4.345,4.345,0,0,0-2.952.457,1.423,1.423,0,0,0,.889,2.594,171.084,171.084,0,0,1,22.02.06,5.849,5.849,0,0,0,6.35-5.925,8.943,8.943,0,0,0-1.855-4.932C1823.758,473.7,1814.959,480.565,1815.043,484.214Z" transform="translate(-1800.796 -477.738)" fill="#fff"/>
              </g>
            </g>
          </g>
        </g>
      </g>
      <g id="Grupo_959317" data-name="Grupo 959317" transform="translate(-6297.701 -670.733)">
        <g id="Grupo_958915" data-name="Grupo 958915">
          <g id="Grupo_958914" data-name="Grupo 958914">
            <path id="Trazado_632609" data-name="Trazado 632609" d="M1944.057,250.212s3.115-13.837-8.956-15.289c-12.4-1.492-13.045,13.092-13.045,13.092s-7.031-7.737-10.863,1.689c0,0-7.567-3.818-11.2.765a3.457,3.457,0,0,0,.031,4.327h49.759a2.454,2.454,0,0,0-.354-2.172C1948.544,251.415,1946.937,250.389,1944.057,250.212Z" transform="translate(-1899.247 -234.816)" fill="#fff"/>
          </g>
        </g>
      </g>
      <g id="Grupo_959316" data-name="Grupo 959316" transform="translate(-6185.818 -585.241)">
        <g id="Grupo_958918" data-name="Grupo 958918">
          <g id="Grupo_958917" data-name="Grupo 958917">
            <path id="Trazado_632610" data-name="Trazado 632610" d="M2556.076,717.866s3.115-13.837-8.956-15.289c-12.4-1.492-13.045,13.092-13.045,13.092s-7.031-7.737-10.863,1.689c0,0-7.566-3.818-11.2.765a3.458,3.458,0,0,0,.031,4.327H2561.8a2.453,2.453,0,0,0-.354-2.172C2560.563,719.069,2558.956,718.043,2556.076,717.866Z" transform="translate(-2511.266 -702.47)" fill="#fff"/>
          </g>
        </g>
      </g>
      <g id="Grupo_959319" data-name="Grupo 959319" transform="translate(-6515.376 -591.109)">
        <g id="Grupo_958921" data-name="Grupo 958921">
          <g id="Grupo_958920" data-name="Grupo 958920">
            <path id="Trazado_632611" data-name="Trazado 632611" d="M739.238,682.19c-3.042-7.481-8.622-1.341-8.622-1.341s-.509-11.575-10.353-10.391c-9.58,1.152-7.108,12.135-7.108,12.135-2.286.14-3.561.954-4.263,1.914a1.947,1.947,0,0,0-.281,1.724H748.1a2.744,2.744,0,0,0,.024-3.434C745.243,679.16,739.238,682.19,739.238,682.19Z" transform="translate(-708.524 -670.374)" fill="#fff"/>
          </g>
        </g>
      </g>
    </g>
    <g id="Grupo_959329" data-name="Grupo 959329" transform="translate(-6477.254 575.943)">
      <g id="Grupo_959325" data-name="Grupo 959325" transform="translate(56.326)">
        <path id="Trazado_632853" data-name="Trazado 632853" d="M169.189,281.282l10.92,19.459,7.626,2.955L170.957,280.78Z" transform="translate(-135.772 -218.637)" fill="#6a6a6a"/>
        <path id="Trazado_632854" data-name="Trazado 632854" d="M171.594,280.386l-9.977,19.824-8.7,2.017,17.733-23.148Z" transform="translate(-137.629 -218.831)" fill="#6a6a6a"/>
        <g id="Grupo_959323" data-name="Grupo 959323" transform="translate(21.68)">
          <rect id="Rectángulo_308126" data-name="Rectángulo 308126" width="1.21" height="24.37" transform="translate(3.084)" fill="#6a6a6a"/>
          <rect id="Rectángulo_308127" data-name="Rectángulo 308127" width="1.21" height="24.37" transform="translate(18.077)" fill="#6a6a6a"/>
          <path id="Trazado_632855" data-name="Trazado 632855" d="M169.55,242.91a7.7,7.7,0,1,0,7.7,7.7A7.7,7.7,0,0,0,169.55,242.91Zm0,13.68a5.976,5.976,0,1,1,5.976-5.976A5.975,5.975,0,0,1,169.55,256.59Z" transform="translate(-158.29 -222.957)" fill="#303030"/>
          <rect id="Rectángulo_308128" data-name="Rectángulo 308128" width="5.031" height="2.935" rx="0.922" transform="translate(8.744 39.883)" fill="#6a6a6a"/>
          <path id="Trazado_632856" data-name="Trazado 632856" d="M173.987,263.884h-8.145l-5.75-8.5-1.437-8.5h22.519l-1.437,8.625Z" transform="translate(-158.654 -222.505)" fill="#ea6315"/>
          <rect id="Rectángulo_308129" data-name="Rectángulo 308129" width="5.989" height="17.009" transform="translate(8.265 24.37)" fill="#afafae"/>
          <rect id="Rectángulo_308130" data-name="Rectángulo 308130" width="2.905" height="1.527" transform="translate(9.807 42.817)" fill="#afafae"/>
          <rect id="Rectángulo_308131" data-name="Rectángulo 308131" width="2.905" height="1.527" transform="translate(9.807 45.108)" fill="#afafae"/>
          <rect id="Rectángulo_308132" data-name="Rectángulo 308132" width="1.452" height="0.764" transform="translate(10.534 44.345)" fill="#303030"/>
          <path id="Trazado_632857" data-name="Trazado 632857" d="M167.536,266.86s.009,1.638.009,3.639,4.593,4.594,4.593,6.96c0,1.682-1.17,2.047-2.336,2.047-3.122,0-3.759-5.731-5.851-5.731a11.369,11.369,0,0,1,.227,2c-.5,2.365-.417,7.96,6.049,7.96,5.459,0,6.505-3.73,6.505-6.186,0-5.048-5.595-7.094-5.595-7.959s.046-2.729.046-2.729Z" transform="translate(-158.051 -220.225)" fill="#303030"/>
          <path id="Trazado_632858" data-name="Trazado 632858" d="M166.185,246.875h-1.094l.547,17.009h.547Z" transform="translate(-157.92 -222.505)" fill="#6a6a6a"/>
          <path id="Trazado_632859" data-name="Trazado 632859" d="M171.449,263.884V246.875h.887l-.444,17.009Z" transform="translate(-157.195 -222.505)" fill="#6a6a6a"/>
        </g>
        <g id="Grupo_959324" data-name="Grupo 959324" transform="translate(0 58.76)">
          <path id="Trazado_632860" data-name="Trazado 632860" d="M171.407,362.366c17.952,0,33.2.2,33.2-6.263s-.919-47.481-2.967-50.516-23.328-8.637-30.236-8.637-27.09,5.04-28.844,7.223-3.369,49.03-3.369,51.93S145.968,362.366,171.407,362.366Z" transform="translate(-139.194 -275.552)" fill="#afafae"/>
          <path id="Trazado_632861" data-name="Trazado 632861" d="M142.218,306.364l28.845-28.443,2.971-.177L154.063,303.56Z" transform="translate(-138.849 -277.743)" fill="#afafae"/>
          <path id="Trazado_632862" data-name="Trazado 632862" d="M198.371,307.776,170.65,277.918l-2.765-.151,18.64,25.79Z" transform="translate(-135.921 -277.741)" fill="#afafae"/>
          <path id="Trazado_632863" data-name="Trazado 632863" d="M178.427,355.047c-25.44,0-32.213-3.363-32.213-6.263,0-2.432,1.135-35.777,2.538-47.754-3.236,1.012-5.634,1.987-6.189,2.677-1.755,2.184-3.369,49.03-3.369,51.93s6.774,6.263,32.213,6.263c17.952,0,33.2.2,33.2-6.263,0-.436,0-1.039-.013-1.766C198.456,355.1,188.916,355.047,178.427,355.047Z" transform="translate(-139.194 -275.087)" fill="#999998"/>
          <path id="Trazado_632864" data-name="Trazado 632864" d="M142.218,306.353l28.845-28.443,1.2-.072-23.859,25.838Z" transform="translate(-138.849 -277.733)" fill="#999998"/>
          <rect id="Rectángulo_308133" data-name="Rectángulo 308133" width="23.134" height="1.365" transform="translate(35.185 32.529)" fill="#6a6a6a"/>
          <rect id="Rectángulo_308134" data-name="Rectángulo 308134" width="14.798" height="0.873" transform="translate(43.521 36.285)" fill="#6a6a6a"/>
          <rect id="Rectángulo_308135" data-name="Rectángulo 308135" width="14.798" height="0.873" transform="translate(43.521 38.705)" fill="#6a6a6a"/>
          <rect id="Rectángulo_308136" data-name="Rectángulo 308136" width="14.798" height="0.873" transform="translate(43.521 40.991)" fill="#6a6a6a"/>
        </g>
      </g>
      <g id="Grupo_959328" data-name="Grupo 959328" transform="translate(0 87.676)">
        <path id="Trazado_632865" data-name="Trazado 632865" d="M127.582,349.267c-2.914-1.434.517-7.218,2.334-9.959s7.918-10.177,7.918-10.177l3.074,1.814a106.438,106.438,0,0,1-7.264,16.215C132.354,349.451,130.547,350.725,127.582,349.267Z" transform="translate(-84.321 -300.798)" fill="#00233f"/>
        <g id="Grupo_959326" data-name="Grupo 959326" transform="translate(0 117.514)">
          <path id="Trazado_632866" data-name="Trazado 632866" d="M92.859,417.2l-4.223-2.136.413-.813,4.223,2.136Z" transform="translate(-88.635 -408.602)" fill="#191919"/>
          <path id="Trazado_632867" data-name="Trazado 632867" d="M92.091,409.183a8.7,8.7,0,0,0-2.536,2.562c-.5.824-.925,2.885-.378,3.163a44.152,44.152,0,0,1,5,2.9c1.531,1.062,2.854,4.142,4.864,4.249,1.375.074,5.189-.195,5.226-.775.224-3.507-4.061-2.018-4.724-3.885-1.677-4.725-3.224-5.924-3.224-5.924A41.083,41.083,0,0,0,92.091,409.183Z" transform="translate(-88.603 -409.18)" fill="#303030"/>
        </g>
        <path id="Trazado_632868" data-name="Trazado 632868" d="M128.273,369.88l-6.557-1.5.679-40.886,2.6,2.076Z" transform="translate(-84.862 -300.984)" fill="#00131f"/>
        <path id="Trazado_632869" data-name="Trazado 632869" d="M121.885,326.774c-2.92.746-3.171,3.383-2.25,6.2s8.613,16.262,9.508,16.6,4.928-1.276,5.026-2.65-4.7-13.8-5.854-15.985S125.305,325.9,121.885,326.774Z" transform="translate(-85.153 -301.085)" fill="#00233f"/>
        <path id="Trazado_632870" data-name="Trazado 632870" d="M115.334,314.884s-1.083,8.623-1.619,9c-1.672,1.178-7.446,1.816-8.7,4-1.514,2.647,4.547,15.583,5.137,19.743s-1.838,10.331-2.783,14.288,11.261,9.832,11.723,9.87,4.828-3.422,5.705-4.67.955-11.579,1.169-14.2,1.571-11.751,1.738-12.342a18.232,18.232,0,0,0,.255-8.054c-.085-.86.077-2.275-.305-2.851-.759-1.149-5.355-2.957-5.388-3.5s-.061-8.109-.061-8.109Z" transform="translate(-86.794 -302.423)" fill="#ffbd95"/>
        <g id="Grupo_959327" data-name="Grupo 959327" transform="translate(40.231 120.776)">
          <rect id="Rectángulo_308137" data-name="Rectángulo 308137" width="4.733" height="0.883" transform="translate(0.863 6.26) rotate(1.237)" fill="#191919"/>
          <path id="Trazado_632871" data-name="Trazado 632871" d="M125.93,412.151a8.244,8.244,0,0,0-1.172,3.3c-.094.931.42,2.909,1.033,2.922a45.542,45.542,0,0,1,5.765.446c1.84.289,2.043,1.019,6.762,1.11,1.377.027,3.293-.01,3.293-.574,0-4.017-4.945-2.429-6.354-3.785-3.562-3.428-4.521-3.182-4.521-3.182A42.4,42.4,0,0,0,125.93,412.151Z" transform="translate(-124.747 -412.108)" fill="#191919"/>
        </g>
        <path id="Trazado_632872" data-name="Trazado 632872" d="M110.731,357.3s1.231,6.79,1.494,9.541,4.61,10.84,6.9,17.431,3.139,7.846,3.234,9.493-.184,8.137.495,12.493,3.737,14.9,3.737,14.9a12.257,12.257,0,0,0,3.629.466,4.85,4.85,0,0,0,3.659-2.09s-1.586-25.237-1.843-27.953c-.165-1.758-2.667-14.208-4.2-23.975-.492-3.143-2.334-11.018-2.594-12.306Z" transform="translate(-86.115 -297.812)" fill="#001d36"/>
        <path id="Trazado_632873" data-name="Trazado 632873" d="M109.161,353.755a10.757,10.757,0,0,0-2.285,5.4c-.494,3.683-.494,9.433-1.025,16.44-.528,6.959-1.66,12.43-2.52,13.838s-5.6,6.907-7.093,11.054-5.521,14.487-5.521,14.487a16.432,16.432,0,0,0,3.623,2.858,9.744,9.744,0,0,0,4.619.929s11.583-22.816,13.524-24.741c3.1-3.074,5.1-15.98,8.614-24,.789-1.8.539-1.911,1.806-5.506,1.419-4.03,1.073-9.9,1.073-9.9Z" transform="translate(-88.398 -297.989)" fill="#002d56"/>
        <path id="Trazado_632874" data-name="Trazado 632874" d="M113.77,322.964l4.649,3.315a2.626,2.626,0,0,0,3.907-1.034h0s4.83,2.371,5.388,3.5a18.176,18.176,0,0,1,.819,4.382,40.106,40.106,0,0,1-.684,8.356c-.364,2.019-.533,4.71-1.125,8.151a96.59,96.59,0,0,0-.6,10.02,40.5,40.5,0,0,1-7.4-.352,90.043,90.043,0,0,1-11.116-2.037c-.915-.882,1.859-8.673,1.752-9.557s-5.123-16.469-5.062-18.453a4.042,4.042,0,0,1,2.736-3.826C108.594,324.81,113.77,322.964,113.77,322.964Z" transform="translate(-86.848 -301.501)" fill="#cee0ff"/>
        <path id="Trazado_632875" data-name="Trazado 632875" d="M121.276,321.021l-7.458-3.385-.716,5.017,1.789,2.3Z" transform="translate(-85.844 -302.109)" fill="#ffa47c"/>
        <path id="Trazado_632876" data-name="Trazado 632876" d="M121.236,307.461c-2.252-1.356-8.168-1.819-10.164,2.415s-.058,7.621,1.882,9.569a9.434,9.434,0,0,0,5.26,2.81c.5.111,4.754-.011,5.519-.458.524-.305.125-4.491.292-4.508a.758.758,0,0,0,.531-.691c-.064-.491-1.184-3.33-1.129-3.664S123.816,309.015,121.236,307.461Z" transform="translate(-86.172 -303.379)" fill="#ffbd95"/>
        <path id="Trazado_632877" data-name="Trazado 632877" d="M122.753,309.105s-3.49-1.131-6.671,3.215c-.684.936,1.56,3.868,1.408,4.2-.163.355-3.576-1.755-3.39-1.407,1.894,3.537,1.081,5.862.742,5.955-1.029.282-5.32-4.381-4.6-9a7.3,7.3,0,0,1,6.389-5.979C117.782,306.094,121.159,305.663,122.753,309.105Z" transform="translate(-86.179 -303.428)" fill="#8d3b26"/>
        <path id="Trazado_632878" data-name="Trazado 632878" d="M115.717,314.725c.609,1.125,1.109,2.707.5,3.031s-1.6-.325-2.209-1.449-.611-2.3,0-2.624S115.107,313.6,115.717,314.725Z" transform="translate(-85.793 -302.575)" fill="#ffbd95"/>
        <path id="Trazado_632879" data-name="Trazado 632879" d="M113.988,312.156a9.2,9.2,0,0,1-1.594,2.793,4.18,4.18,0,0,1-1.617.837l.4.889a4.518,4.518,0,0,0,1.728-1.044,11.356,11.356,0,0,0,2.123-3.586C115.378,311.011,113.988,312.156,113.988,312.156Z" transform="translate(-86.109 -302.796)" fill="#cee0ff"/>
        <path id="Trazado_632880" data-name="Trazado 632880" d="M123.356,308.452s-2.385-5.27-8.022-4.711c-4.024.4-5.311,3.47-5.784,5.4a12.669,12.669,0,0,0-.121,4.4,50.186,50.186,0,0,0,6.068-.9C117.031,312.166,122.181,310.108,123.356,308.452Z" transform="translate(-86.279 -303.699)" fill="#ff8626"/>
        <path id="Trazado_632881" data-name="Trazado 632881" d="M125.312,307.529c.061.339-1.046,2.431-8.756,4.819-6.524,2.021-7.419,1.439-7.507,1.2s.025-.381.408-.419a44.265,44.265,0,0,0,9.794-2.581c3.644-1.644,3.86-3.017,3.86-3.017S125.207,306.954,125.312,307.529Z" transform="translate(-86.31 -303.291)" fill="#ff6e26"/>
        <path id="Trazado_632882" data-name="Trazado 632882" d="M111.574,308.881a5.626,5.626,0,0,1,2.335-4.89,6.617,6.617,0,0,0-4.36,5.114,12.669,12.669,0,0,0-.121,4.4s1.529.368,6.5-1.25C113.488,312.348,111.568,310.731,111.574,308.881Z" transform="translate(-86.279 -303.665)" fill="#ff6e26"/>
        <path id="Trazado_632883" data-name="Trazado 632883" d="M113.853,322.964s4.541,4.4,5.71,7.185-4.5,41.6-5.214,41.688-10.778-2.338-10.778-2.338,4.4-21.017,3.953-22.1S104,329.071,104,327.589C104,325.107,113.853,322.964,113.853,322.964Z" transform="translate(-86.931 -301.501)" fill="#00233f"/>
        <path id="Trazado_632884" data-name="Trazado 632884" d="M137,332.24s2.653.31,3.428-1.228.085-3.536.049-4.029c-.15-2.034,1.706-3.854,1.828-5.084s-.619-1.446-.809-1.03c-1.057,2.328-2.425,3.425-2.762,4.509a39.066,39.066,0,0,1-2.683,4.7Z" transform="translate(-83.227 -301.762)" fill="#ffa47c"/>
        <path id="Trazado_632885" data-name="Trazado 632885" d="M138.864,331.287a5.958,5.958,0,0,0,2.216-1.875c.5-1.007-.129-2.356.177-3.254s-.265-.729-.422-.673a10.607,10.607,0,0,0-.76,1.642C139.834,327.605,137.817,329.2,138.864,331.287Z" transform="translate(-82.94 -301.219)" fill="#ffa47c"/>
        <path id="Trazado_632886" data-name="Trazado 632886" d="M140.637,331.529l-1.727,2.684-4.147-2.432,1.532-2.895Z" transform="translate(-83.373 -300.826)" fill="#002d56"/>
        <path id="Trazado_632887" data-name="Trazado 632887" d="M113.388,322.139l-2.8,1.542,6.066,6.292.837.18-.433,1.886-.1,13.631s2.423-12.6,1.891-15.067S113.388,322.139,113.388,322.139Z" transform="translate(-86.131 -301.595)" fill="#002d56"/>
        <path id="Trazado_632888" data-name="Trazado 632888" d="M120.48,325.012a10.109,10.109,0,0,1,2.91,5.084c.8,3.323,4.125,40.068,4.125,40.068h.9s-.937-37.254-1.683-40.428C125.991,326.6,120.48,325.012,120.48,325.012Z" transform="translate(-85.003 -301.268)" fill="#00233f"/>
        <path id="Trazado_632889" data-name="Trazado 632889" d="M120.439,323.688l.046,1.475a10.048,10.048,0,0,1,2.91,5.084c.426,2.82,1.217,9.852,1.217,9.852v-7.966l-.37-1.123.584-.809S123.059,324.856,120.439,323.688Z" transform="translate(-85.007 -301.419)" fill="#0f3960"/>
        <path id="Trazado_632890" data-name="Trazado 632890" d="M136.634,340.958s2.67.1,3.322-1.492-.192-3.531-.266-4.02c-.309-2.015,1.4-3.975,1.426-5.211s-.731-1.394-.887-.965c-.872,2.4-2.15,3.6-2.4,4.711a39.226,39.226,0,0,1-2.308,4.9Z" transform="translate(-83.287 -300.806)" fill="#ffbd95"/>
        <path id="Trazado_632891" data-name="Trazado 632891" d="M105.651,325.647c-2.529,1.638-1.927,4.218-.156,6.6s13.345,12.669,14.3,12.707,4.265-2.779,3.919-4.113-8.847-11.581-10.643-13.285S108.614,323.728,105.651,325.647Z" transform="translate(-86.888 -301.282)" fill="#0f3960"/>
        <path id="Trazado_632892" data-name="Trazado 632892" d="M116.792,341.837c.232,3.269,6.94,2.208,10.19,1.526s12.516-3.631,12.516-3.631l-.527-3.558a89.793,89.793,0,0,0-17.909.763C120.133,337.082,116.556,338.511,116.792,341.837Z" transform="translate(-85.424 -300.011)" fill="#0f3960"/>
        <rect id="Rectángulo_308138" data-name="Rectángulo 308138" width="3.306" height="5.012" transform="matrix(0.991, -0.13, 0.13, 0.991, 50.268, 35.933)" fill="#0f3960"/>
        <path id="Trazado_632893" data-name="Trazado 632893" d="M104.3,364.069l7.58,1.28,1.959-11.6-8.5-1.435Z" transform="translate(-86.848 -298.154)" fill="#0f3960"/>
      </g>
    </g>
    <g id="Grupo_959350" data-name="Grupo 959350" transform="translate(-6544.255 637.332)">
      <g id="Grupo_959334" data-name="Grupo 959334" transform="translate(263.517 39.861)">
        <g id="Grupo_959332" data-name="Grupo 959332" transform="translate(1.844)">
          <path id="Trazado_632894" data-name="Trazado 632894" d="M270.97,320.035l-4.286-2.188h44.225l-4.359,2.188Z" transform="translate(-266.684 -315.659)" fill="#af7e44"/>
          <rect id="Rectángulo_308139" data-name="Rectángulo 308139" width="35.58" height="21.007" transform="translate(4.286 4.376)" fill="#e9a85a"/>
          <path id="Trazado_632895" data-name="Trazado 632895" d="M270.662,320.259l-1.278-4.376h37.909l-1.051,4.376Z" transform="translate(-266.376 -315.883)" fill="#e29750"/>
          <g id="Grupo_959330" data-name="Grupo 959330" transform="translate(24.457 6.774)">
            <rect id="Rectángulo_308140" data-name="Rectángulo 308140" width="13.041" height="0.504" transform="translate(13.041 0.504) rotate(180)" fill="#1d2c2c"/>
            <rect id="Rectángulo_308141" data-name="Rectángulo 308141" width="8.568" height="0.504" transform="translate(13.041 1.984) rotate(180)" fill="#1d2c2c"/>
            <rect id="Rectángulo_308142" data-name="Rectángulo 308142" width="4.851" height="0.504" transform="translate(13.041 3.622) rotate(180)" fill="#1d2c2c"/>
          </g>
          <rect id="Rectángulo_308143" data-name="Rectángulo 308143" width="4.694" height="2.048" rx="0.448" transform="translate(32.804 16.906)" fill="#d42415"/>
          <rect id="Rectángulo_308144" data-name="Rectángulo 308144" width="13.271" height="0.513" transform="translate(14.306 22.744)" fill="#1d2c2c"/>
          <rect id="Rectángulo_308145" data-name="Rectángulo 308145" width="4.936" height="0.513" transform="translate(14.306 21.63)" fill="#1d2c2c"/>
          <g id="Grupo_959331" data-name="Grupo 959331" transform="translate(7.671 17.919)">
            <rect id="Rectángulo_308146" data-name="Rectángulo 308146" width="2.548" height="2.548" rx="0.663" fill="#1d2c2c"/>
            <rect id="Rectángulo_308147" data-name="Rectángulo 308147" width="2.548" height="2.548" rx="0.663" transform="translate(2.965)" fill="#1d2c2c"/>
            <rect id="Rectángulo_308148" data-name="Rectángulo 308148" width="2.548" height="2.548" rx="0.663" transform="translate(0 2.949)" fill="#1d2c2c"/>
            <rect id="Rectángulo_308149" data-name="Rectángulo 308149" width="2.548" height="2.548" rx="0.663" transform="translate(2.965 2.949)" fill="#1d2c2c"/>
          </g>
        </g>
        <g id="Grupo_959333" data-name="Grupo 959333" transform="translate(0 25.383)">
          <rect id="Rectángulo_308150" data-name="Rectángulo 308150" width="46.115" height="103.655" transform="translate(1.844)" fill="#7a7a79"/>
          <path id="Trazado_632896" data-name="Trazado 632896" d="M312.8,341.807,280.99,441.964H266.684V341.807Z" transform="translate(-264.84 -338.309)" fill="#e5e0e4" style="mix-blend-mode: multiply;isolation: isolate"/>
          <path id="Trazado_632897" data-name="Trazado 632897" d="M303.061,341.807,270.97,441.964h-4.286V341.807Z" transform="translate(-264.84 -338.309)" fill="#e5e0e4" style="mix-blend-mode: multiply;isolation: isolate"/>
          <rect id="Rectángulo_308151" data-name="Rectángulo 308151" width="50.497" height="6.326" transform="translate(0.053 97.329)" fill="#7a7a79"/>
          <rect id="Rectángulo_308152" data-name="Rectángulo 308152" width="49.663" height="3.498" fill="#303030"/>
        </g>
      </g>
      <g id="Grupo_959336" data-name="Grupo 959336" transform="translate(203.549 0)">
        <path id="Trazado_632898" data-name="Trazado 632898" d="M224.648,423.59s1.018.841,1.073,1.182-.1,4.926-.1,4.926a7.2,7.2,0,0,0-2.211,1.362c-.91.816-1.741,2.59-2.968,3.1a6.309,6.309,0,0,1-3.924.391c-.556-.232-.362-1.476.439-2.757,1.212-1.937,2.672-4.277,2.672-4.277Z" transform="translate(-210.631 -263.735)" fill="#8d3b26"/>
        <path id="Trazado_632899" data-name="Trazado 632899" d="M245.511,427a6.883,6.883,0,0,1,.992,2.875c-.023,1.212-.828,4.078-1.758,4.207s-2.85-1.807-3.112-2.132c-1.635-2.023-1.837-6.3-1.837-6.3Z" transform="translate(-207.939 -263.5)" fill="#8d3b26"/>
        <path id="Trazado_632900" data-name="Trazado 632900" d="M243.911,422.307s1.776,5.283,1.793,5.915-.6,3.07-1.5,3.094c-2.488.064-4.521-4.25-4.44-5.76s.141-3.145.141-3.145Z" transform="translate(-207.942 -263.882)" fill="#ffbd95"/>
        <path id="Trazado_632901" data-name="Trazado 632901" d="M215.289,350.992c-1.828,2.8-2.16,8.066-1.891,14.971.367,9.413,3.554,23.371,3.83,24.725,1.263,6.178,7.276,6.386,8.556,1.654.353-1.3,3.483-27.779,3.381-30.785s-.011-8.5-1.907-11.973C225.846,346.995,218.014,346.821,215.289,350.992Z" transform="translate(-210.96 -272.389)" fill="#ffbd95"/>
        <path id="Trazado_632902" data-name="Trazado 632902" d="M221.369,383.791c3.324-.008,7.159,2.523,7.425,11.8.2,7.155-2.873,21-3.555,28.314-.2,2.17-.058,5.489-.266,5.526-.914.16-5.348,1.682-4.49-.9a17.73,17.73,0,0,0-.192-3.453c-.854-7.907-3.561-24.99-3.636-27.579C216.568,394.485,216.053,383.8,221.369,383.791Z" transform="translate(-210.585 -268.275)" fill="#ffbd95"/>
        <path id="Trazado_632903" data-name="Trazado 632903" d="M241.1,308.288c1.967-1.211,7.158,3.993,11.012,10.567,6.7,11.427,10.551,14.158,7.265,16.621-2.982,2.235-5.915-2.3-12.932-11.259C240.961,317.214,237.027,310.8,241.1,308.288Z" transform="translate(-207.982 -276.908)" fill="#1c5c92"/>
        <path id="Trazado_632904" data-name="Trazado 632904" d="M246.755,310.063c-.858-1.933-6.386-2.949-8.419-3.555-2.078-.618-8.221-.83-8.221-.83s-6.144.212-8.221.83c-2.034.606-7.561,1.622-8.419,3.555-1.3,2.922,7.445,22.93,7.445,31.9,0,3.6-7.772,14.457-6.873,17.941,1.1,4.258,15.236,6.893,15.236,6.893h1.661s14.139-2.635,15.237-6.893c.9-3.484-5.023-13.592-5.023-17.189C241.159,333.745,248.051,312.985,246.755,310.063Z" transform="translate(-210.957 -277.186)" fill="#ffbd95"/>
        <path id="Trazado_632905" data-name="Trazado 632905" d="M243.745,351.276c1.718,2.868,1.845,8.143,1.308,15.032-.732,9.393-4.46,23.216-4.789,24.559-1.5,6.123-7.518,6.1-8.614,1.32-.3-1.318-2.4-27.894-2.181-30.893s.341-8.489,2.372-11.891C233.351,346.871,241.184,347,243.745,351.276Z" transform="translate(-209.119 -272.389)" fill="#ffbd95"/>
        <path id="Trazado_632906" data-name="Trazado 632906" d="M235.277,383.181c-3.115,1.161-4.1,2.909-2.489,12.493,1.218,7.274,5.33,21.4,7.49,28.964.686,2.4.882,6.337,1.106,6.334.928-.011,3.708-.072,3.985-2.219.061-.469-.34-4.2-.344-5.493-.028-7.488.458-24.188.016-26.841C244.52,393.3,243.618,380.071,235.277,383.181Z" transform="translate(-208.826 -268.398)" fill="#ffbd95"/>
        <path id="Trazado_632907" data-name="Trazado 632907" d="M233.682,303.637c-.623-1.62-.56-7.723-.56-7.723h-7.764s.062,6.1-.56,7.723-3.778,3.985-3.778,3.985h16.441S234.3,305.256,233.682,303.637Z" transform="translate(-210.081 -278.3)" fill="#ffbd95"/>
        <path id="Trazado_632908" data-name="Trazado 632908" d="M233.21,300.105l-3.859-4.191h-3.994s.062,6.1-.56,7.723-3.778,3.985-3.778,3.985h0l.06,1.43,13.855-3.672A8.591,8.591,0,0,1,233.21,300.105Z" transform="translate(-210.081 -278.3)" fill="#ffa47c"/>
        <path id="Trazado_632909" data-name="Trazado 632909" d="M247.776,359.432c-1.147-7.727-4.275-15.873-4.544-18.887s4.544-30.132,4.544-30.132c-1.384-2.985-9.324-3.99-9.324-3.99l-8.221,10.851-8.221-10.851s-7.941,1-9.325,3.99a101.13,101.13,0,0,0,2.557,15.262c1.094,4.2,2.054,5.225,1.9,14.871-.048,3.025-3.714,12.579-4.457,18.887-1.137,9.664.78,41.833.78,41.833l16.766.893,21.4-.893S248.868,366.784,247.776,359.432Z" transform="translate(-211.073 -277.101)" fill="#1c5c92"/>
        <path id="Trazado_632910" data-name="Trazado 632910" d="M228.968,370.429c.371-7.992,15.776-42.967,14.184-42.355-3.68,1.414-7.511.032-11.174.324-4.563.364-8.743,1.964-10.623-1.048-1.487-2.383-.242-14.629-5.009-17.129-.809-.424-3.562.831-3.562.831a100.047,100.047,0,0,0,2.458,14.2c1.094,4.2,2.054,5.225,1.9,14.871-.048,3.025-3.714,12.579-4.457,18.887-1.137,9.664.78,41.833.78,41.833l15.057.893S228.311,384.562,228.968,370.429Z" transform="translate(-211.073 -276.678)" fill="#044b86"/>
        <path id="Trazado_632911" data-name="Trazado 632911" d="M220.53,423.463s-1.72,5.441-2.5,6.969c-.572,1.117-.473,1.935,1.29,1.419s5-4.617,5.524-6.521C225.423,423.231,220.53,423.463,220.53,423.463Z" transform="translate(-210.458 -263.751)" fill="#ffbd95"/>
        <g id="Grupo_959335" data-name="Grupo 959335" transform="translate(46.414 35.169)">
          <path id="Trazado_632912" data-name="Trazado 632912" d="M253.156,333.744c-1.275-1.69,1.673-6.259,7.417-9.824,6.62-4.108,16.006-10.146,17.064-8.591,1.445,2.123-6.253,7.858-11.7,13.361C260.43,334.266,255.8,337.242,253.156,333.744Z" transform="translate(-252.862 -311.283)" fill="#ffbd95"/>
          <path id="Trazado_632913" data-name="Trazado 632913" d="M272.954,320.416s1.65.441,1.921.448a13.44,13.44,0,0,1,3.2.007c.667.26.987.612,1.14.607s1.189-.918.157-1.6-2.363-.834-2.556-1.173,1.771-2.086,2.311-2.265,4.248-.858,4.426-.906.645-.284.661-.481-.721-.832-.94-.885.055-.465-.1-.616-.782-.6-.782-.6a3.477,3.477,0,0,0-.932-.812,14.556,14.556,0,0,0-2.143-.461,21.938,21.938,0,0,0-4.217.939c-.671.429-4.108,4.418-4.108,4.418Z" transform="translate(-250.795 -311.671)" fill="#ffbd95"/>
        </g>
        <path id="Trazado_632914" data-name="Trazado 632914" d="M232.8,285.395s.357-5.227-3.79-5.291-7.432,4.337-7.259,6.683-2.455,9.929-2.938,9.687-.753,1.19.311,1.776,4.571,1.546,5.993-2.121a11.957,11.957,0,0,1,4-5.37Z" transform="translate(-210.381 -280.103)" fill="#793b26"/>
        <path id="Trazado_632915" data-name="Trazado 632915" d="M222.738,294.089c-.224,6.37,5.058,11.728,8.31,11.841,3.166.111,7.638-4.945,8.47-11.357.82-6.321-2.877-10.588-7.69-10.757S222.963,287.719,222.738,294.089Z" transform="translate(-209.886 -279.68)" fill="#ffbd95"/>
        <path id="Trazado_632916" data-name="Trazado 632916" d="M235.751,289.079c-1.016,1.6-2.933,2.311-6.752,1.881-2.734-.309-5.2,3.083-5.461,4.568-.1.568.016,3.417.016,3.417a9.717,9.717,0,0,1,1.886-12.8c6.575-6.1,12.121-.826,12.064-.264A15.825,15.825,0,0,1,235.751,289.079Z" transform="translate(-209.977 -279.747)" fill="#8d3b26"/>
        <path id="Trazado_632917" data-name="Trazado 632917" d="M233.221,287.134s-.511,2.589,1.594,3.539a12.4,12.4,0,0,1,3.871,3.205s1.63-6.056-2.457-8.2S233.221,287.134,233.221,287.134Z" transform="translate(-208.704 -279.545)" fill="#8d3b26"/>
        <path id="Trazado_632918" data-name="Trazado 632918" d="M234.651,291.206s-2.42-.5-7.337-3.422a6.841,6.841,0,0,1-2.209-1.972l2.785-4.886,8.576,3.215Z" transform="translate(-209.615 -280.01)" fill="#e0f2ff"/>
        <path id="Trazado_632919" data-name="Trazado 632919" d="M233.673,290.974s4.069-1.546,4.5-2.712c.314-.84-.362-5.311-.362-5.311l-2.327.957Z" transform="translate(-208.638 -279.778)" fill="#b8d1ff"/>
        <path id="Trazado_632920" data-name="Trazado 632920" d="M236.18,284.141l-8.576-3.215a39.6,39.6,0,0,1,6.952.626c2.271.38,3.86,1.278,3.952,1.632S236.18,284.141,236.18,284.141Z" transform="translate(-209.33 -280.01)" fill="#eaf6ff"/>
        <path id="Trazado_632921" data-name="Trazado 632921" d="M234.758,290.282a72.074,72.074,0,0,1-6.961-3.554c-2.106-1.373-2.331-1.971-2.331-1.971l.457-.8a10.915,10.915,0,0,0,2.291,2.028c1.419.937,6.74,3.536,6.74,3.536Z" transform="translate(-209.574 -279.664)" fill="#1c5c92"/>
        <path id="Trazado_632922" data-name="Trazado 632922" d="M233.807,290.014s3.8-1.472,4.437-2.861l-.026-.849s-.282,1.3-4.216,2.946Z" transform="translate(-208.622 -279.396)" fill="#1c5c92"/>
        <path id="Trazado_632923" data-name="Trazado 632923" d="M236.843,306.423l3.284.643-1.28,3.821-2,.081,1.03,2.15L226.431,320.1Z" transform="translate(-209.464 -277.101)" fill="#4a7da7"/>
        <path id="Trazado_632924" data-name="Trazado 632924" d="M221.307,306.423l-3.284.643,1.28,3.821,2,.081-1.03,2.15,9.887,4.937Z" transform="translate(-210.423 -277.101)" fill="#4a7da7"/>
        <rect id="Rectángulo_308153" data-name="Rectángulo 308153" width="7.725" height="0.432" transform="translate(24.977 41.618)" fill="#bed0df"/>
        <rect id="Rectángulo_308154" data-name="Rectángulo 308154" width="7.725" height="0.432" transform="translate(5.945 41.834)" fill="#bed0df"/>
        <path id="Trazado_632925" data-name="Trazado 632925" d="M213.492,309.534c-2.286.338-2.916,7.659-1.641,15.173,2.217,13.059,1.022,17.628,5.123,17.4,3.721-.206,3.051-5.565,2.666-16.937C219.338,316.279,218.226,308.835,213.492,309.534Z" transform="translate(-211.201 -276.751)" fill="#1c5c92"/>
      </g>
      <g id="Grupo_959349" data-name="Grupo 959349" transform="translate(0 59.538)">
        <g id="Grupo_959347" data-name="Grupo 959347" transform="translate(0 0.496)">
          <g id="Grupo_959337" data-name="Grupo 959337" transform="translate(166.554)">
            <rect id="Rectángulo_308155" data-name="Rectángulo 308155" width="10.252" height="11.738" transform="translate(0.342)" fill="#cecbc6"/>
            <rect id="Rectángulo_308156" data-name="Rectángulo 308156" width="10.252" height="9.404" transform="translate(0.342 1.343)" fill="#f46f15"/>
            <rect id="Rectángulo_308157" data-name="Rectángulo 308157" width="10.937" height="0.406" rx="0.174" fill="#cecbc6"/>
            <rect id="Rectángulo_308158" data-name="Rectángulo 308158" width="6.298" height="0.798" transform="translate(2.547 2.743)" fill="#ffecb8"/>
            <rect id="Rectángulo_308159" data-name="Rectángulo 308159" width="3.212" height="0.798" transform="translate(3.862 4.45)" fill="#ffecb8"/>
            <rect id="Rectángulo_308160" data-name="Rectángulo 308160" width="10.937" height="0.406" rx="0.174" transform="translate(0 11.332)" fill="#cecbc6"/>
            <path id="Trazado_632926" data-name="Trazado 632926" d="M188.553,345.281H178.3V334.355h10.252l-6.914.449v10.034Z" transform="translate(-177.959 -333.949)" fill="#cecbc6" style="mix-blend-mode: multiply;isolation: isolate"/>
          </g>
          <g id="Grupo_959338" data-name="Grupo 959338" transform="translate(191.158)">
            <rect id="Rectángulo_308161" data-name="Rectángulo 308161" width="10.252" height="11.738" transform="translate(0.342)" fill="#cecbc6"/>
            <rect id="Rectángulo_308162" data-name="Rectángulo 308162" width="10.252" height="9.404" transform="translate(0.342 1.343)" fill="#f46f15"/>
            <rect id="Rectángulo_308163" data-name="Rectángulo 308163" width="10.937" height="0.406" rx="0.174" fill="#cecbc6"/>
            <rect id="Rectángulo_308164" data-name="Rectángulo 308164" width="6.298" height="0.798" transform="translate(2.547 2.743)" fill="#ffecb8"/>
            <rect id="Rectángulo_308165" data-name="Rectángulo 308165" width="3.212" height="0.798" transform="translate(3.863 4.45)" fill="#ffecb8"/>
            <rect id="Rectángulo_308166" data-name="Rectángulo 308166" width="10.937" height="0.406" rx="0.174" transform="translate(0 11.332)" fill="#cecbc6"/>
            <path id="Trazado_632927" data-name="Trazado 632927" d="M210.638,345.281H200.386V334.355h10.252l-6.914.449v10.034Z" transform="translate(-200.043 -333.949)" fill="#cecbc6" style="mix-blend-mode: multiply;isolation: isolate"/>
          </g>
          <g id="Grupo_959339" data-name="Grupo 959339" transform="translate(111.036)">
            <rect id="Rectángulo_308167" data-name="Rectángulo 308167" width="10.252" height="11.738" transform="translate(0.342)" fill="#cecbc6"/>
            <rect id="Rectángulo_308168" data-name="Rectángulo 308168" width="10.252" height="9.404" transform="translate(0.342 1.343)" fill="#f46f15"/>
            <rect id="Rectángulo_308169" data-name="Rectángulo 308169" width="10.937" height="0.406" rx="0.174" fill="#cecbc6"/>
            <rect id="Rectángulo_308170" data-name="Rectángulo 308170" width="6.298" height="0.798" transform="translate(2.547 2.743)" fill="#ffecb8"/>
            <rect id="Rectángulo_308171" data-name="Rectángulo 308171" width="3.212" height="0.798" transform="translate(3.862 4.45)" fill="#ffecb8"/>
            <rect id="Rectángulo_308172" data-name="Rectángulo 308172" width="10.937" height="0.406" rx="0.174" transform="translate(0 11.332)" fill="#cecbc6"/>
            <path id="Trazado_632928" data-name="Trazado 632928" d="M138.72,345.281H128.468V334.355H138.72l-6.914.449v10.034Z" transform="translate(-128.126 -333.949)" fill="#cecbc6" style="mix-blend-mode: multiply;isolation: isolate"/>
          </g>
          <g id="Grupo_959340" data-name="Grupo 959340" transform="translate(135.64)">
            <rect id="Rectángulo_308173" data-name="Rectángulo 308173" width="10.252" height="11.738" transform="translate(0.342)" fill="#cecbc6"/>
            <rect id="Rectángulo_308174" data-name="Rectángulo 308174" width="10.252" height="9.404" transform="translate(0.342 1.343)" fill="#f46f15"/>
            <rect id="Rectángulo_308175" data-name="Rectángulo 308175" width="10.937" height="0.406" rx="0.174" fill="#cecbc6"/>
            <rect id="Rectángulo_308176" data-name="Rectángulo 308176" width="6.298" height="0.798" transform="translate(2.547 2.743)" fill="#ffecb8"/>
            <rect id="Rectángulo_308177" data-name="Rectángulo 308177" width="3.212" height="0.798" transform="translate(3.862 4.45)" fill="#ffecb8"/>
            <rect id="Rectángulo_308178" data-name="Rectángulo 308178" width="10.937" height="0.406" rx="0.174" transform="translate(0 11.332)" fill="#cecbc6"/>
            <path id="Trazado_632929" data-name="Trazado 632929" d="M160.8,345.281H150.553V334.355H160.8l-6.914.449v10.034Z" transform="translate(-150.21 -333.949)" fill="#cecbc6" style="mix-blend-mode: multiply;isolation: isolate"/>
          </g>
          <g id="Grupo_959341" data-name="Grupo 959341" transform="translate(55.518)">
            <rect id="Rectángulo_308179" data-name="Rectángulo 308179" width="10.252" height="11.738" transform="translate(0.342)" fill="#cecbc6"/>
            <rect id="Rectángulo_308180" data-name="Rectángulo 308180" width="10.252" height="9.404" transform="translate(0.342 1.343)" fill="#f46f15"/>
            <rect id="Rectángulo_308181" data-name="Rectángulo 308181" width="10.937" height="0.406" rx="0.174" fill="#cecbc6"/>
            <rect id="Rectángulo_308182" data-name="Rectángulo 308182" width="6.298" height="0.798" transform="translate(2.547 2.743)" fill="#ffecb8"/>
            <rect id="Rectángulo_308183" data-name="Rectángulo 308183" width="3.212" height="0.798" transform="translate(3.863 4.45)" fill="#ffecb8"/>
            <rect id="Rectángulo_308184" data-name="Rectángulo 308184" width="10.937" height="0.406" rx="0.174" transform="translate(0 11.332)" fill="#cecbc6"/>
            <path id="Trazado_632930" data-name="Trazado 632930" d="M88.887,345.281H78.635V334.355H88.887l-6.914.449v10.034Z" transform="translate(-78.292 -333.949)" fill="#cecbc6" style="mix-blend-mode: multiply;isolation: isolate"/>
          </g>
          <g id="Grupo_959342" data-name="Grupo 959342" transform="translate(80.122)">
            <rect id="Rectángulo_308185" data-name="Rectángulo 308185" width="10.252" height="11.738" transform="translate(0.342)" fill="#cecbc6"/>
            <rect id="Rectángulo_308186" data-name="Rectángulo 308186" width="10.252" height="9.404" transform="translate(0.342 1.343)" fill="#f46f15"/>
            <rect id="Rectángulo_308187" data-name="Rectángulo 308187" width="10.937" height="0.406" rx="0.174" fill="#cecbc6"/>
            <rect id="Rectángulo_308188" data-name="Rectángulo 308188" width="6.298" height="0.798" transform="translate(2.547 2.743)" fill="#ffecb8"/>
            <rect id="Rectángulo_308189" data-name="Rectángulo 308189" width="3.212" height="0.798" transform="translate(3.862 4.45)" fill="#ffecb8"/>
            <rect id="Rectángulo_308190" data-name="Rectángulo 308190" width="10.937" height="0.406" rx="0.174" transform="translate(0 11.332)" fill="#cecbc6"/>
            <path id="Trazado_632931" data-name="Trazado 632931" d="M110.971,345.281H100.719V334.355h10.252l-6.914.449v10.034Z" transform="translate(-100.377 -333.949)" fill="#cecbc6" style="mix-blend-mode: multiply;isolation: isolate"/>
          </g>
          <g id="Grupo_959343" data-name="Grupo 959343">
            <rect id="Rectángulo_308191" data-name="Rectángulo 308191" width="10.252" height="11.738" transform="translate(0.342)" fill="#cecbc6"/>
            <rect id="Rectángulo_308192" data-name="Rectángulo 308192" width="10.252" height="9.404" transform="translate(0.342 1.343)" fill="#f46f15"/>
            <rect id="Rectángulo_308193" data-name="Rectángulo 308193" width="10.937" height="0.406" rx="0.174" fill="#cecbc6"/>
            <rect id="Rectángulo_308194" data-name="Rectángulo 308194" width="6.298" height="0.798" transform="translate(2.547 2.743)" fill="#ffecb8"/>
            <rect id="Rectángulo_308195" data-name="Rectángulo 308195" width="3.212" height="0.798" transform="translate(3.862 4.45)" fill="#ffecb8"/>
            <rect id="Rectángulo_308196" data-name="Rectángulo 308196" width="10.937" height="0.406" rx="0.174" transform="translate(0 11.332)" fill="#cecbc6"/>
            <path id="Trazado_632932" data-name="Trazado 632932" d="M39.053,345.281H28.8V334.355H39.053l-6.914.449v10.034Z" transform="translate(-28.459 -333.949)" fill="#cecbc6" style="mix-blend-mode: multiply;isolation: isolate"/>
          </g>
          <g id="Grupo_959344" data-name="Grupo 959344" transform="translate(24.604)">
            <rect id="Rectángulo_308197" data-name="Rectángulo 308197" width="10.252" height="11.738" transform="translate(0.342)" fill="#cecbc6"/>
            <rect id="Rectángulo_308198" data-name="Rectángulo 308198" width="10.252" height="9.404" transform="translate(0.342 1.343)" fill="#f46f15"/>
            <rect id="Rectángulo_308199" data-name="Rectángulo 308199" width="10.937" height="0.406" rx="0.174" fill="#cecbc6"/>
            <rect id="Rectángulo_308200" data-name="Rectángulo 308200" width="6.298" height="0.798" transform="translate(2.547 2.743)" fill="#ffecb8"/>
            <rect id="Rectángulo_308201" data-name="Rectángulo 308201" width="3.212" height="0.798" transform="translate(3.863 4.45)" fill="#ffecb8"/>
            <rect id="Rectángulo_308202" data-name="Rectángulo 308202" width="10.937" height="0.406" rx="0.174" transform="translate(0 11.332)" fill="#cecbc6"/>
            <path id="Trazado_632933" data-name="Trazado 632933" d="M61.138,345.281H50.886V334.355H61.138l-6.914.449v10.034Z" transform="translate(-50.543 -333.949)" fill="#cecbc6" style="mix-blend-mode: multiply;isolation: isolate"/>
          </g>
          <g id="Grupo_959345" data-name="Grupo 959345" transform="translate(238.222)">
            <rect id="Rectángulo_308203" data-name="Rectángulo 308203" width="10.252" height="11.738" transform="translate(0.342)" fill="#cecbc6"/>
            <rect id="Rectángulo_308204" data-name="Rectángulo 308204" width="10.252" height="9.404" transform="translate(0.342 1.343)" fill="#f46f15"/>
            <rect id="Rectángulo_308205" data-name="Rectángulo 308205" width="10.937" height="0.406" rx="0.174" fill="#cecbc6"/>
            <rect id="Rectángulo_308206" data-name="Rectángulo 308206" width="6.298" height="0.798" transform="translate(2.547 2.743)" fill="#ffecb8"/>
            <rect id="Rectángulo_308207" data-name="Rectángulo 308207" width="3.212" height="0.798" transform="translate(3.862 4.45)" fill="#ffecb8"/>
            <rect id="Rectángulo_308208" data-name="Rectángulo 308208" width="10.937" height="0.406" rx="0.174" transform="translate(0 11.332)" fill="#cecbc6"/>
            <path id="Trazado_632934" data-name="Trazado 632934" d="M252.883,345.281H242.631V334.355h10.252l-6.914.449v10.034Z" transform="translate(-242.288 -333.949)" fill="#cecbc6" style="mix-blend-mode: multiply;isolation: isolate"/>
          </g>
          <g id="Grupo_959346" data-name="Grupo 959346" transform="translate(285.961)">
            <rect id="Rectángulo_308209" data-name="Rectángulo 308209" width="10.252" height="11.738" transform="translate(0.342)" fill="#cecbc6"/>
            <rect id="Rectángulo_308210" data-name="Rectángulo 308210" width="10.252" height="9.404" transform="translate(0.342 1.343)" fill="#f46f15"/>
            <rect id="Rectángulo_308211" data-name="Rectángulo 308211" width="10.937" height="0.406" rx="0.174" fill="#cecbc6"/>
            <rect id="Rectángulo_308212" data-name="Rectángulo 308212" width="6.298" height="0.798" transform="translate(2.547 2.743)" fill="#ffecb8"/>
            <rect id="Rectángulo_308213" data-name="Rectángulo 308213" width="3.212" height="0.798" transform="translate(3.862 4.45)" fill="#ffecb8"/>
            <rect id="Rectángulo_308214" data-name="Rectángulo 308214" width="10.937" height="0.406" rx="0.174" transform="translate(0 11.332)" fill="#cecbc6"/>
            <path id="Trazado_632935" data-name="Trazado 632935" d="M295.733,345.281H285.481V334.355h10.252l-6.914.449v10.034Z" transform="translate(-285.139 -333.949)" fill="#cecbc6" style="mix-blend-mode: multiply;isolation: isolate"/>
          </g>
        </g>
        <g id="Grupo_959348" data-name="Grupo 959348" transform="translate(207.076)">
          <path id="Trazado_632936" data-name="Trazado 632936" d="M214.371,337.456c-.18,2.233,5.048,4.641,12.2,4.565,8.247-.088,20.062-.021,20.125-2.012.085-2.717-10.048-3.47-18.036-5.3C220.574,332.861,214.745,332.831,214.371,337.456Z" transform="translate(-214.367 -333.545)" fill="#ffbd95"/>
          <path id="Trazado_632937" data-name="Trazado 632937" d="M238.941,337.206a13.7,13.7,0,0,1,1.454-1.352,7.164,7.164,0,0,1,3.524-.319,5.388,5.388,0,0,0,2.459-.079c.683-.222,1.081.2.343,1.283s-3.258.2-3.312.611,2.569,1.339,3.168,1.3,4.509-.853,4.7-.877.745.021.84.208-.375,1.1-.57,1.242.24.434.145.646-.528.9-.528.9a3.644,3.644,0,0,1-.589,1.168,15.1,15.1,0,0,1-1.92,1.308,23.142,23.142,0,0,1-4.509.76,63.766,63.766,0,0,1-5.79-2.695Z" transform="translate(-211.63 -333.334)" fill="#ffbd95"/>
        </g>
      </g>
    </g>
    <rect id="Rectángulo_308215" data-name="Rectángulo 308215" width="7.047" height="47.823" transform="translate(-6410.946 734.026)" fill="#1d2c2c"/>
    <rect id="Rectángulo_308216" data-name="Rectángulo 308216" width="6.685" height="47.823" transform="translate(-6311.495 734.026)" fill="#1d2c2c"/>
    <rect id="Rectángulo_308217" data-name="Rectángulo 308217" width="12.398" height="2.6" transform="translate(-6413.622 787.006)" fill="#1d2c2c"/>
    <rect id="Rectángulo_308218" data-name="Rectángulo 308218" width="501.333" height="25.12" transform="translate(-6576 708.857)" fill="#999"/>
    <rect id="Rectángulo_308219" data-name="Rectángulo 308219" width="501.333" height="2.592" transform="translate(-6576 731.329)" fill="#ccc"/>
    <rect id="Rectángulo_308220" data-name="Rectángulo 308220" width="1.501" height="19.88" transform="translate(-6514.708 711.477)" fill="#ccc"/>
    <rect id="Rectángulo_308221" data-name="Rectángulo 308221" width="1.501" height="19.88" transform="translate(-6547.334 711.449)" fill="#ccc"/>
    <rect id="Rectángulo_308222" data-name="Rectángulo 308222" width="11.681" height="16.601" transform="translate(-6413.263 734.026)" fill="#737373"/>
    <rect id="Rectángulo_308223" data-name="Rectángulo 308223" width="11.681" height="16.601" transform="translate(-6313.993 734.026)" fill="#737373"/>
    <rect id="Rectángulo_308224" data-name="Rectángulo 308224" width="3.196" height="5.027" transform="translate(-6409.021 781.979)" fill="#1d2c2c"/>
    <rect id="Rectángulo_308225" data-name="Rectángulo 308225" width="12.398" height="2.6" transform="translate(-6314.352 787.006)" fill="#1d2c2c"/>
    <rect id="Rectángulo_308226" data-name="Rectángulo 308226" width="3.196" height="5.027" transform="translate(-6309.75 781.979)" fill="#1d2c2c"/>
    <path id="Trazado_632938" data-name="Trazado 632938" d="M157.754,369.518l-8.9,1.375-.414,12.605h-2.363V366.9h11.681Z" transform="translate(-6559.337 367.129)" fill="#515555"/>
    <path id="Trazado_632939" data-name="Trazado 632939" d="M246.86,369.518l-8.9,1.375-.414,12.605h-2.363V366.9H246.86Z" transform="translate(-6549.172 367.129)" fill="#515555"/>
    <path id="Trazado_632940" data-name="Trazado 632940" d="M155.2,381.8h-7v25.9h1.879l.762-23.427,4.359-1.1Z" transform="translate(-6559.095 368.829)" fill="#0f1616"/>
    <rect id="Rectángulo_308227" data-name="Rectángulo 308227" width="7.047" height="47.823" transform="translate(-6507.367 734.026)" fill="#1d2c2c"/>
    <rect id="Rectángulo_308228" data-name="Rectángulo 308228" width="12.398" height="2.6" transform="translate(-6510.043 787.006)" fill="#1d2c2c"/>
    <rect id="Rectángulo_308229" data-name="Rectángulo 308229" width="11.681" height="16.601" transform="translate(-6509.684 734.026)" fill="#737373"/>
    <rect id="Rectángulo_308230" data-name="Rectángulo 308230" width="3.196" height="5.027" transform="translate(-6505.442 781.979)" fill="#1d2c2c"/>
    <path id="Trazado_632941" data-name="Trazado 632941" d="M71.206,369.518l-8.9,1.375L61.889,383.5H59.526V366.9H71.206Z" transform="translate(-6569.209 367.129)" fill="#515555"/>
    <path id="Trazado_632942" data-name="Trazado 632942" d="M68.648,381.8h-7v25.9h1.879l.762-23.427,4.359-1.1Z" transform="translate(-6568.968 368.829)" fill="#0f1616"/>
    <path id="Trazado_632943" data-name="Trazado 632943" d="M244.081,381.8h-6.8v25.9h1.826l.741-23.427,4.235-1.1Z" transform="translate(-6548.933 368.829)" fill="#0f1616"/>
    <rect id="Rectángulo_308231" data-name="Rectángulo 308231" width="6.685" height="47.823" transform="translate(-6216.002 734.026)" fill="#1d2c2c"/>
    <rect id="Rectángulo_308232" data-name="Rectángulo 308232" width="11.681" height="16.601" transform="translate(-6218.5 734.026)" fill="#737373"/>
    <rect id="Rectángulo_308233" data-name="Rectángulo 308233" width="12.398" height="2.6" transform="translate(-6218.858 787.006)" fill="#1d2c2c"/>
    <rect id="Rectángulo_308234" data-name="Rectángulo 308234" width="3.196" height="5.027" transform="translate(-6214.257 781.979)" fill="#1d2c2c"/>
    <path id="Trazado_632944" data-name="Trazado 632944" d="M332.575,369.518l-8.9,1.375-.414,12.605h-2.363V366.9h11.681Z" transform="translate(-6539.394 367.129)" fill="#515555"/>
    <path id="Trazado_632945" data-name="Trazado 632945" d="M329.8,381.8h-6.8v25.9h1.826l.741-23.427,4.235-1.1Z" transform="translate(-6539.154 368.829)" fill="#0f1616"/>
    <rect id="Rectángulo_308235" data-name="Rectángulo 308235" width="6.685" height="47.823" transform="translate(-6120.508 734.026)" fill="#1d2c2c"/>
    <rect id="Rectángulo_308236" data-name="Rectángulo 308236" width="11.681" height="16.601" transform="translate(-6123.006 734.026)" fill="#737373"/>
    <rect id="Rectángulo_308237" data-name="Rectángulo 308237" width="12.398" height="2.6" transform="translate(-6123.365 787.006)" fill="#1d2c2c"/>
    <rect id="Rectángulo_308238" data-name="Rectángulo 308238" width="3.196" height="5.027" transform="translate(-6118.764 781.979)" fill="#1d2c2c"/>
    <path id="Trazado_632946" data-name="Trazado 632946" d="M418.291,369.518l-8.9,1.375-.414,12.605H406.61V366.9h11.681Z" transform="translate(-6529.616 367.129)" fill="#515555"/>
    <path id="Trazado_632947" data-name="Trazado 632947" d="M415.512,381.8h-6.8v25.9h1.826l.741-23.427,4.235-1.1Z" transform="translate(-6529.376 368.829)" fill="#0f1616"/>
    <path id="Trazado_632948" data-name="Trazado 632948" d="M57.232,366.512l-.968-17.445H27.078v-2.435l31.125.028v19.88Z" transform="translate(-6572.911 364.818)" fill="#737373"/>
    <path id="Trazado_632949" data-name="Trazado 632949" d="M27.954,366.5l-.969-17.445H0v-2.435l28.924.028v19.88Z" transform="translate(-6576 364.816)" fill="#737373"/>
    <rect id="Rectángulo_308239" data-name="Rectángulo 308239" width="1.501" height="19.88" transform="translate(-6482.341 711.449)" fill="#ccc"/>
    <path id="Trazado_632950" data-name="Trazado 632950" d="M86.518,366.5l-.969-17.445H56.364v-2.435l31.125.028v19.88Z" transform="translate(-6569.57 364.816)" fill="#737373"/>
    <rect id="Rectángulo_308240" data-name="Rectángulo 308240" width="1.501" height="19.88" transform="translate(-6449.974 711.449)" fill="#ccc"/>
    <path id="Trazado_632951" data-name="Trazado 632951" d="M115.571,366.5l-.969-17.445H85.416v-2.435l31.125.028v19.88Z" transform="translate(-6566.256 364.816)" fill="#737373"/>
    <rect id="Rectángulo_308241" data-name="Rectángulo 308241" width="1.501" height="19.88" transform="translate(-6417.606 711.449)" fill="#ccc"/>
    <path id="Trazado_632952" data-name="Trazado 632952" d="M144.624,366.5l-.969-17.445H114.469v-2.435l31.125.028v19.88Z" transform="translate(-6562.942 364.816)" fill="#737373"/>
    <rect id="Rectángulo_308242" data-name="Rectángulo 308242" width="1.501" height="19.88" transform="translate(-6385.24 711.449)" fill="#ccc"/>
    <path id="Trazado_632953" data-name="Trazado 632953" d="M173.676,366.5l-.969-17.445H143.522v-2.435l31.125.028v19.88Z" transform="translate(-6559.628 364.816)" fill="#737373"/>
    <rect id="Rectángulo_308243" data-name="Rectángulo 308243" width="1.501" height="19.88" transform="translate(-6352.873 711.449)" fill="#ccc"/>
    <path id="Trazado_632954" data-name="Trazado 632954" d="M202.729,366.5l-.969-17.445H172.575v-2.435l31.125.028v19.88Z" transform="translate(-6556.313 364.816)" fill="#737373"/>
    <rect id="Rectángulo_308244" data-name="Rectángulo 308244" width="1.501" height="19.88" transform="translate(-6320.505 711.449)" fill="#ccc"/>
    <path id="Trazado_632955" data-name="Trazado 632955" d="M231.782,366.5l-.969-17.445H201.628v-2.435l31.125.028v19.88Z" transform="translate(-6553 364.816)" fill="#737373"/>
    <rect id="Rectángulo_308245" data-name="Rectángulo 308245" width="1.501" height="19.88" transform="translate(-6288.138 711.449)" fill="#ccc"/>
    <path id="Trazado_632956" data-name="Trazado 632956" d="M260.835,366.5l-.969-17.445H230.681v-2.435l31.125.028v19.88Z" transform="translate(-6549.685 364.816)" fill="#737373"/>
    <rect id="Rectángulo_308246" data-name="Rectángulo 308246" width="1.501" height="19.88" transform="translate(-6255.771 711.449)" fill="#ccc"/>
    <path id="Trazado_632957" data-name="Trazado 632957" d="M289.888,366.5l-.969-17.445H259.734v-2.435l31.125.028v19.88Z" transform="translate(-6546.371 364.816)" fill="#737373"/>
    <rect id="Rectángulo_308247" data-name="Rectángulo 308247" width="1.501" height="19.88" transform="translate(-6223.404 711.449)" fill="#ccc"/>
    <path id="Trazado_632958" data-name="Trazado 632958" d="M318.941,366.5l-.969-17.445H288.787v-2.435l31.125.028v19.88Z" transform="translate(-6543.057 364.816)" fill="#737373"/>
    <rect id="Rectángulo_308248" data-name="Rectángulo 308248" width="1.501" height="19.88" transform="translate(-6191.037 711.449)" fill="#ccc"/>
    <path id="Trazado_632959" data-name="Trazado 632959" d="M347.994,366.5l-.969-17.445H317.84v-2.435l31.125.028v19.88Z" transform="translate(-6539.743 364.816)" fill="#737373"/>
    <rect id="Rectángulo_308249" data-name="Rectángulo 308249" width="1.501" height="19.88" transform="translate(-6158.669 711.449)" fill="#ccc"/>
    <path id="Trazado_632960" data-name="Trazado 632960" d="M377.047,366.5l-.969-17.445H346.893v-2.435l31.125.028v19.88Z" transform="translate(-6536.428 364.816)" fill="#737373"/>
    <rect id="Rectángulo_308250" data-name="Rectángulo 308250" width="1.501" height="19.88" transform="translate(-6126.302 711.449)" fill="#ccc"/>
    <path id="Trazado_632961" data-name="Trazado 632961" d="M406.1,366.5l-.969-17.445H375.946v-2.435l31.125.028v19.88Z" transform="translate(-6533.114 364.816)" fill="#737373"/>
    <rect id="Rectángulo_308251" data-name="Rectángulo 308251" width="1.501" height="19.88" transform="translate(-6093.936 711.449)" fill="#ccc"/>
    <path id="Trazado_632962" data-name="Trazado 632962" d="M435.153,366.5l-.969-17.445H405v-2.435l31.125.028v19.88Z" transform="translate(-6529.8 364.816)" fill="#737373"/>
    <rect id="Rectángulo_308252" data-name="Rectángulo 308252" width="241.33" height="2.407" transform="translate(-6513.207 711.477)" fill="#737373"/>
    <rect id="Rectángulo_308253" data-name="Rectángulo 308253" width="501.333" height="2.592" transform="translate(-6576 708.857)" fill="#ccc"/>
    <rect id="Rectángulo_308254" data-name="Rectángulo 308254" width="501.333" height="5.456" transform="translate(-6576 807.051)" fill="#583cb6"/>
    <g id="Grupo_959367" data-name="Grupo 959367" transform="translate(-6570.17 598.222)">
      <g id="Grupo_959353" data-name="Grupo 959353" transform="translate(346.761 147.095)">
        <rect id="Rectángulo_308255" data-name="Rectángulo 308255" width="36.593" height="35.971" fill="#e9a85a"/>
        <rect id="Rectángulo_308256" data-name="Rectángulo 308256" width="18.504" height="0.715" transform="translate(4.037 3.283)" fill="#1d2c2c"/>
        <rect id="Rectángulo_308257" data-name="Rectángulo 308257" width="18.504" height="0.715" transform="translate(13.289 32.112)" fill="#1d2c2c"/>
        <rect id="Rectángulo_308258" data-name="Rectángulo 308258" width="12.157" height="0.715" transform="translate(4.037 5.384)" fill="#1d2c2c"/>
        <rect id="Rectángulo_308259" data-name="Rectángulo 308259" width="6.883" height="0.715" transform="translate(4.037 7.708)" fill="#1d2c2c"/>
        <rect id="Rectángulo_308260" data-name="Rectángulo 308260" width="6.883" height="0.715" transform="translate(13.289 30.559)" fill="#1d2c2c"/>
        <path id="Trazado_632963" data-name="Trazado 632963" d="M334.5,391.474h0a.7.7,0,0,0-.236.007l-.8.162a.661.661,0,0,1-.22.009l-.653-.08a.7.7,0,0,0-.215.007l-.442.087V377.032h3.352V390.8A.685.685,0,0,1,334.5,391.474Z" transform="translate(-314.726 -377.032)" fill="#e8e8e8"/>
        <rect id="Rectángulo_308261" data-name="Rectángulo 308261" width="6.436" height="2.808" rx="0.614" transform="translate(29.424 13.205)" fill="#d42415"/>
        <g id="Grupo_959352" data-name="Grupo 959352" transform="translate(4.037 25.385)">
          <rect id="Rectángulo_308262" data-name="Rectángulo 308262" width="3.553" height="3.553" rx="0.925" fill="#1d2c2c"/>
          <rect id="Rectángulo_308263" data-name="Rectángulo 308263" width="3.553" height="3.553" rx="0.925" transform="translate(4.134)" fill="#1d2c2c"/>
          <rect id="Rectángulo_308264" data-name="Rectángulo 308264" width="3.553" height="3.553" rx="0.925" transform="translate(0 4.112)" fill="#1d2c2c"/>
          <rect id="Rectángulo_308265" data-name="Rectángulo 308265" width="3.553" height="3.553" rx="0.925" transform="translate(4.134 4.112)" fill="#1d2c2c"/>
        </g>
      </g>
      <g id="Grupo_959355" data-name="Grupo 959355" transform="translate(307.34 147.095)">
        <rect id="Rectángulo_308266" data-name="Rectángulo 308266" width="36.593" height="35.971" fill="#e9a85a"/>
        <rect id="Rectángulo_308267" data-name="Rectángulo 308267" width="18.504" height="0.715" transform="translate(4.037 3.283)" fill="#1d2c2c"/>
        <rect id="Rectángulo_308268" data-name="Rectángulo 308268" width="18.504" height="0.715" transform="translate(13.289 32.112)" fill="#1d2c2c"/>
        <rect id="Rectángulo_308269" data-name="Rectángulo 308269" width="12.157" height="0.715" transform="translate(4.037 5.384)" fill="#1d2c2c"/>
        <rect id="Rectángulo_308270" data-name="Rectángulo 308270" width="6.883" height="0.715" transform="translate(4.037 7.708)" fill="#1d2c2c"/>
        <rect id="Rectángulo_308271" data-name="Rectángulo 308271" width="6.883" height="0.715" transform="translate(13.289 30.559)" fill="#1d2c2c"/>
        <path id="Trazado_632964" data-name="Trazado 632964" d="M299.118,391.474h0a.707.707,0,0,0-.237.007l-.8.162a.66.66,0,0,1-.219.009l-.653-.08a.7.7,0,0,0-.215.007l-.442.087V377.032H299.9V390.8A.684.684,0,0,1,299.118,391.474Z" transform="translate(-279.341 -377.032)" fill="#e8e8e8"/>
        <rect id="Rectángulo_308272" data-name="Rectángulo 308272" width="6.436" height="2.808" rx="0.614" transform="translate(29.424 13.205)" fill="#d42415"/>
        <g id="Grupo_959354" data-name="Grupo 959354" transform="translate(4.037 25.385)">
          <rect id="Rectángulo_308273" data-name="Rectángulo 308273" width="3.553" height="3.553" rx="0.925" fill="#1d2c2c"/>
          <rect id="Rectángulo_308274" data-name="Rectángulo 308274" width="3.553" height="3.553" rx="0.925" transform="translate(4.134)" fill="#1d2c2c"/>
          <rect id="Rectángulo_308275" data-name="Rectángulo 308275" width="3.553" height="3.553" rx="0.925" transform="translate(0 4.112)" fill="#1d2c2c"/>
          <rect id="Rectángulo_308276" data-name="Rectángulo 308276" width="3.553" height="3.553" rx="0.925" transform="translate(4.134 4.112)" fill="#1d2c2c"/>
        </g>
      </g>
      <g id="Grupo_959360" data-name="Grupo 959360" transform="translate(340.411)">
        <g id="Grupo_959356" data-name="Grupo 959356">
          <path id="Trazado_632965" data-name="Trazado 632965" d="M422.872,351.282c8.706-4.82,14.677-14.583,14.677-25.872,0-14.472-9.8-26.441-22.628-28.675l1.98-7c15.579,3.185,27.367,17.935,27.367,35.677,0,13.7-7.028,25.613-17.4,31.8Z" transform="translate(-298.909 -239.895)" fill="#1d2c2c"/>
          <rect id="Rectángulo_308277" data-name="Rectángulo 308277" width="32.964" height="16.597" transform="translate(135.123 115.123) rotate(164.193)" fill="#ea5f00"/>
          <path id="Trazado_632966" data-name="Trazado 632966" d="M432.155,337.335s-.193,7.977-2.893,8.757-28.3,2.065-28.3,2.065l2.947,10.41,31.718-8.861Z" transform="translate(-300.501 -234.465)" fill="#db4700"/>
          <rect id="Rectángulo_308278" data-name="Rectángulo 308278" width="26.621" height="9.852" transform="translate(25.65 17.424) rotate(90.113)" fill="#999"/>
          <path id="Trazado_632967" data-name="Trazado 632967" d="M384.829,386.7h41.729l12.426-38.266H371.508Z" transform="translate(-303.861 -233.198)" fill="#ff7e00"/>
          <path id="Trazado_632968" data-name="Trazado 632968" d="M420.009,289.466l-28.57,58.081-17.8,11.017L372.367,326.8a25.094,25.094,0,0,1,9.734-20.863l26.858-20.745Z" transform="translate(-303.765 -240.413)" fill="#ff7e00"/>
          <rect id="Rectángulo_308279" data-name="Rectángulo 308279" width="42.999" height="9.682" transform="matrix(-0.933, -0.359, 0.359, -0.933, 88.757, 40.858)" fill="#ff7e00"/>
          <rect id="Rectángulo_308280" data-name="Rectángulo 308280" width="18.483" height="6.147" transform="translate(36.718 25.174) rotate(-69.695)" fill="#ff7e00"/>
          <rect id="Rectángulo_308281" data-name="Rectángulo 308281" width="15.317" height="9.682" transform="matrix(-0.933, -0.359, 0.359, -0.933, 38.378, 20.689)" fill="#ea5f00"/>
          <path id="Trazado_632969" data-name="Trazado 632969" d="M359.013,260.54l-3.688-6.593-6.4,17.34L355.6,269.4Z" transform="translate(-306.437 -243.977)" fill="#ff7e00"/>
          <path id="Trazado_632970" data-name="Trazado 632970" d="M398.645,275.562s-2.653,5.4-4.264,5.616c-1.521.2-33.779-11.56-37.389-12.878-.214-.079,2.612-7.761,2.612-7.761l-3.7,7.64-4.538.726,4.551-14.96-6.4,15.883-5.3-1.935-.465,1.259,5.765,2.133,6.4-1.806,39.868,15.354Z" transform="translate(-307.027 -243.977)" fill="#ea5f00"/>
          <path id="Trazado_632971" data-name="Trazado 632971" d="M388.759,287.012l6.505,2.439,6.407-17.787-6.505-2.44Z" transform="translate(-301.893 -242.234)" fill="#ff7e00"/>
          <path id="Trazado_632972" data-name="Trazado 632972" d="M324.963,263.343s.546,2.711,4.1,4.7,3.763,1.493,4.191,4.406.358,6.823-.709,7.035-7.581.76-7.581.76v6.417l9.857-.237V262.144Z" transform="translate(-309.17 -243.042)" fill="#737373"/>
          <path id="Trazado_632973" data-name="Trazado 632973" d="M400.731,271.444l2-.7,15.31,5.989-17.814,22.081-5.633-9.585Z" transform="translate(-301.227 -242.061)" fill="#ff7e00"/>
          <path id="Trazado_632974" data-name="Trazado 632974" d="M337.879,259.459l.013-6.761a7.706,7.706,0,0,0-7.669-7.7h0a7.707,7.707,0,0,0-7.7,7.668l-.013,6.762a7.708,7.708,0,0,0,7.669,7.7h0A7.708,7.708,0,0,0,337.879,259.459Z" transform="translate(-309.45 -244.998)" fill="#ff7e00"/>
          <rect id="Rectángulo_308282" data-name="Rectángulo 308282" width="5.456" height="20.67" transform="translate(31.038 43.392) rotate(90.113)" fill="#1d2c2c"/>
          <path id="Trazado_632975" data-name="Trazado 632975" d="M402.746,348.439a19.812,19.812,0,0,1-4.376,14.08c-5.466,7.028-18.236,10.7-18.236,10.7l-8.625-24.777Z" transform="translate(-303.861 -233.198)" fill="#ea5f00"/>
          <rect id="Rectángulo_308283" data-name="Rectángulo 308283" width="41.396" height="2.74" transform="translate(41.396 51.584) rotate(180)" fill="#1d2c2c"/>
          <rect id="Rectángulo_308284" data-name="Rectángulo 308284" width="1.708" height="27.844" transform="translate(39.038 79.427) rotate(180)" fill="#1d2c2c"/>
          <path id="Trazado_632976" data-name="Trazado 632976" d="M399.776,291.64s-.365,3.894,2.791,9.2,2.588,8.718,2.4,9.665-12.507,26.04-13.644,26.909-7.39.947-11.56,2.653a15.973,15.973,0,0,0-6.686,5.9l18.281,1,21.407-43.518-11.2-13.192Z" transform="translate(-303.682 -239.835)" fill="#ea5f00"/>
          <rect id="Rectángulo_308285" data-name="Rectángulo 308285" width="1.709" height="27.844" transform="translate(3.72 79.427) rotate(180)" fill="#1d2c2c"/>
          <path id="Trazado_632977" data-name="Trazado 632977" d="M418.711,276.666s-6.652-3.672-13.285.486A20.7,20.7,0,0,0,396.9,287.1l4.5-15.728-6.134,15.09-5.6-2.19-.9,2.5,6.505,2.394,2.723,4.633Z" transform="translate(-301.893 -241.989)" fill="#ea5f00"/>
          <circle id="Elipse_7962" data-name="Elipse 7962" cx="16.021" cy="16.021" r="16.021" transform="translate(58.311 117.2) rotate(-45)" fill="#1d2c2c"/>
          <path id="Trazado_632978" data-name="Trazado 632978" d="M399.885,298.294a15.035,15.035,0,1,0,4.871-20.7A15.035,15.035,0,0,0,399.885,298.294Z" transform="translate(-300.881 -241.536)" fill="#ff7e00"/>
          <rect id="Rectángulo_308286" data-name="Rectángulo 308286" width="2.766" height="16.674" transform="translate(29.038 37.234) rotate(90.113)" fill="#1d2c2c"/>
          <path id="Trazado_632979" data-name="Trazado 632979" d="M437.62,348.439s-14.089,30.851-17.333,32.746-36.822,5.52-36.822,5.52h41.729Z" transform="translate(-302.497 -233.198)" fill="#ea5f00"/>
        </g>
        <g id="Grupo_959358" data-name="Grupo 959358" transform="translate(3.795 55.889)">
          <rect id="Rectángulo_308287" data-name="Rectángulo 308287" width="33.362" height="32.661" transform="translate(33.362 32.661) rotate(180)" fill="#e9a85a"/>
          <rect id="Rectángulo_308288" data-name="Rectángulo 308288" width="16.87" height="0.649" transform="translate(29.682 3.63) rotate(180)" fill="#1d2c2c"/>
          <rect id="Rectángulo_308289" data-name="Rectángulo 308289" width="16.87" height="0.649" transform="translate(21.246 29.806) rotate(180)" fill="#1d2c2c"/>
          <rect id="Rectángulo_308290" data-name="Rectángulo 308290" width="11.084" height="0.649" transform="translate(29.682 5.538) rotate(180)" fill="#1d2c2c"/>
          <rect id="Rectángulo_308291" data-name="Rectángulo 308291" width="6.275" height="0.649" transform="translate(29.682 7.648) rotate(180)" fill="#1d2c2c"/>
          <rect id="Rectángulo_308292" data-name="Rectángulo 308292" width="6.275" height="0.649" transform="translate(21.246 28.395) rotate(180)" fill="#1d2c2c"/>
          <rect id="Rectángulo_308293" data-name="Rectángulo 308293" width="5.868" height="2.55" rx="0.559" transform="translate(6.536 14.54) rotate(180)" fill="#d42415"/>
          <g id="Grupo_959357" data-name="Grupo 959357" transform="translate(22.673 23.049)">
            <path id="Rectángulo_308294" data-name="Rectángulo 308294" d="M.841,0H2.4A.842.842,0,0,1,3.24.842V2.385a.841.841,0,0,1-.841.841H.842A.842.842,0,0,1,0,2.385V.841A.841.841,0,0,1,.841,0Z" transform="translate(7.009 3.226) rotate(180)" fill="#1d2c2c"/>
            <path id="Rectángulo_308295" data-name="Rectángulo 308295" d="M.841,0H2.4A.842.842,0,0,1,3.24.842V2.385a.841.841,0,0,1-.841.841H.842A.842.842,0,0,1,0,2.385V.841A.841.841,0,0,1,.841,0Z" transform="translate(3.24 3.226) rotate(180)" fill="#1d2c2c"/>
            <rect id="Rectángulo_308296" data-name="Rectángulo 308296" width="3.24" height="3.226" rx="0.842" transform="translate(7.009 6.96) rotate(180)" fill="#1d2c2c"/>
            <rect id="Rectángulo_308297" data-name="Rectángulo 308297" width="3.24" height="3.226" rx="0.842" transform="translate(3.24 6.96) rotate(180)" fill="#1d2c2c"/>
          </g>
        </g>
        <g id="Grupo_959359" data-name="Grupo 959359" transform="translate(70.713 156.412)">
          <path id="Trazado_632980" data-name="Trazado 632980" d="M435.415,412.273h-60.1l6.7-26.879h46.7Z" transform="translate(-374.14 -385.394)" fill="#1d2c2c"/>
          <path id="Trazado_632981" data-name="Trazado 632981" d="M421,386.76v23.628h6.526l-5.445-23.628Z" transform="translate(-368.928 -385.238)" fill="#0f1616"/>
          <path id="Trazado_632982" data-name="Trazado 632982" d="M384.227,386.76v23.628H377.7l5.445-23.628Z" transform="translate(-373.868 -385.238)" fill="#0f1616"/>
          <path id="Trazado_632983" data-name="Trazado 632983" d="M403.6,386.853v23.628h5.158l-2.793-23.628Z" transform="translate(-370.914 -385.228)" fill="#0f1616"/>
          <path id="Trazado_632984" data-name="Trazado 632984" d="M402.814,386.853v23.628h-5.158l2.793-23.628Z" transform="translate(-371.591 -385.228)" fill="#515555"/>
          <path id="Trazado_632985" data-name="Trazado 632985" d="M383.375,386.76H381.59L375.7,410.388h2.231Z" transform="translate(-374.096 -385.238)" fill="#515555"/>
          <rect id="Rectángulo_308298" data-name="Rectángulo 308298" width="49.243" height="1.591" transform="translate(55.898 1.591) rotate(180)" fill="#515555"/>
          <rect id="Rectángulo_308299" data-name="Rectángulo 308299" width="62.461" height="1.932" transform="translate(62.461 26.879) rotate(180)" fill="#515555"/>
        </g>
        <rect id="Rectángulo_308300" data-name="Rectángulo 308300" width="44.56" height="2.905" transform="translate(124.058 156.412) rotate(180)" fill="#1d2c2c"/>
      </g>
      <g id="Grupo_959366" data-name="Grupo 959366" transform="translate(0 4.347)">
        <g id="Grupo_959364" data-name="Grupo 959364">
          <g id="Grupo_959361" data-name="Grupo 959361" transform="translate(0 11.83)">
            <path id="Trazado_632986" data-name="Trazado 632986" d="M7.07,333.676s2.828,11.915,10.1,20.2,13.67,10.8,13.67,10.8V353.093s-7.005-5.078-10.236-9.118-5.655-11.432-5.655-11.432Z" transform="translate(-5.023 -251.188)" fill="#1d2c2c"/>
            <path id="Trazado_632987" data-name="Trazado 632987" d="M74.294,390.108H37.733L26.847,356.583H85.964Z" transform="translate(-2.767 -248.446)" fill="#ea5f00"/>
            <path id="Trazado_632988" data-name="Trazado 632988" d="M27.595,358.885,54.255,367.4s3.368-2.076,4.34-1.578,3.8,5.823,8.361,7.519,11.333.579,14.134-2.764-20.726-14-20.726-14l-33.518.145Z" transform="translate(-2.767 -248.446)" fill="#db4700"/>
            <path id="Trazado_632989" data-name="Trazado 632989" d="M20.3,325.525l48.068,30.092h18.34l-13.7-24.25a21.986,21.986,0,0,0-16.872-11.054l-29.575-3.069Z" transform="translate(-3.514 -252.934)" fill="#ff7e00"/>
            <rect id="Rectángulo_308301" data-name="Rectángulo 308301" width="28.881" height="14.541" transform="matrix(0.962, 0.272, -0.272, 0.962, 28.04, 94.291)" fill="#ff7e00"/>
            <path id="Trazado_632990" data-name="Trazado 632990" d="M22.9,330.142,11.855,337.7a4.248,4.248,0,0,1-5.887-1.1h0a4.248,4.248,0,0,1,1.1-5.887l11.044-7.557a4.248,4.248,0,0,1,5.887,1.1h0A4.248,4.248,0,0,1,22.9,330.142Z" transform="translate(-5.233 -252.344)" fill="#ff7e00"/>
            <rect id="Rectángulo_308302" data-name="Rectángulo 308302" width="8.324" height="8.482" transform="translate(76.345 13.598) rotate(-34.212)" fill="#ea5f00"/>
            <circle id="Elipse_7963" data-name="Elipse 7963" cx="1.935" cy="1.935" r="1.935" transform="translate(2.046 80.063)" fill="#1d2c2c"/>
            <rect id="Rectángulo_308303" data-name="Rectángulo 308303" width="5.386" height="16.193" transform="translate(70.002 13.57) rotate(-33.471)" fill="#ff7e00"/>
            <rect id="Rectángulo_308304" data-name="Rectángulo 308304" width="53.588" height="8.482" transform="matrix(0.827, -0.562, 0.562, 0.827, 23.758, 49.897)" fill="#ff7e00"/>
            <path id="Trazado_632991" data-name="Trazado 632991" d="M66.348,277.922,68.27,271.7l8.918,13.516-6.07-.275Z" transform="translate(1.739 -258.13)" fill="#ff7e00"/>
            <path id="Trazado_632992" data-name="Trazado 632992" d="M26.774,307.862s3.707,4.6,4.911,4.474,41.631-27.643,41.756-27.892-2.578-6.523-2.578-6.523l4.07,5.985,4.363-.136L72.784,271.7s7.764,11.887,8.1,11.93a44.581,44.581,0,0,0,4.5-2.617l.814,1.233-4.493,2.97H75.227L31.3,315.043Z" transform="translate(-2.776 -258.13)" fill="#ea5f00"/>
            <rect id="Rectángulo_308305" data-name="Rectángulo 308305" width="2.424" height="14.609" transform="translate(101.21 3.385)" fill="#ea5f00"/>
            <path id="Trazado_632993" data-name="Trazado 632993" d="M34.3,314.776l-5.138,3.4-8.916-13.518,5.138-3.4Z" transform="translate(-3.52 -254.757)" fill="#ff7e00"/>
            <path id="Trazado_632994" data-name="Trazado 632994" d="M20.439,304.307H18.581v18.755h10.3l.474-5.237Z" transform="translate(-3.71 -254.409)" fill="#ff7e00"/>
            <path id="Trazado_632995" data-name="Trazado 632995" d="M92.118,276.324H86.194a6.752,6.752,0,0,1-6.732-6.732h0a6.752,6.752,0,0,1,6.732-6.732h5.924a6.752,6.752,0,0,1,6.732,6.732h0A6.752,6.752,0,0,1,92.118,276.324Z" transform="translate(3.235 -259.138)" fill="#ff7e00"/>
            <path id="Trazado_632996" data-name="Trazado 632996" d="M30.783,317.726s2.405,1.4,3.276,6.5-.623,5.124,1.433,6.733,26.9,18.42,27.83,18.545,7.845-3.239,12.764-1.557,7.823,4.179,8.393,5.359-20.667,0-20.667,0L28.693,331.321Z" transform="translate(-2.557 -252.879)" fill="#ea5f00"/>
            <path id="Trazado_632997" data-name="Trazado 632997" d="M16.721,323.887a8.986,8.986,0,0,0,.4,4.1c.748,2.034,1.038,2.657.83,3.072s-7.512,6.351-8.467,6.559a9.145,9.145,0,0,1-2.75-.153,3.921,3.921,0,0,0,2.791.866,5.927,5.927,0,0,0,2.85-1.207l9.479-6.486-4.3-7.319Z" transform="translate(-5.062 -252.241)" fill="#ea5f00"/>
            <path id="Trazado_632998" data-name="Trazado 632998" d="M19.129,304.307l1.121,12.112c.623-.291,3.3-1.453,4.929-1.162a15.712,15.712,0,0,1,3.1.929l-7.835-11.879,9.15,11.573,4.141-2.609.763,1.156-5.138,3.4-10.774,1.249V304.307Z" transform="translate(-3.71 -254.409)" fill="#ea5f00"/>
            <path id="Trazado_632999" data-name="Trazado 632999" d="M84.908,359.56a14.036,14.036,0,1,1-14.036-14.036A14.036,14.036,0,0,1,84.908,359.56Z" transform="translate(0.654 -249.708)" fill="#1d2c2c"/>
            <path id="Trazado_633000" data-name="Trazado 633000" d="M34.41,323.958a8.987,8.987,0,1,1-8.987-8.988A8.988,8.988,0,0,1,34.41,323.958Z" transform="translate(-3.955 -253.193)" fill="#1d2c2c"/>
            <rect id="Rectángulo_308306" data-name="Rectángulo 308306" width="3.366" height="11.246" transform="translate(103.634 4.972)" fill="#1d2c2c"/>
            <rect id="Rectángulo_308307" data-name="Rectángulo 308307" width="5.06" height="21.378" transform="translate(106.854)" fill="#1d2c2c"/>
            <rect id="Rectángulo_308308" data-name="Rectángulo 308308" width="44.634" height="1.616" transform="translate(111.914 26.745)" fill="#1d2c2c"/>
            <rect id="Rectángulo_308309" data-name="Rectángulo 308309" width="1.818" height="7.102" transform="translate(110.096 21.258)" fill="#1d2c2c"/>
            <path id="Trazado_633001" data-name="Trazado 633001" d="M28.4,361.378s12.226,22.995,13.305,23.576,32.406,4.608,32.406,4.608H37.556Z" transform="translate(-2.59 -247.899)" fill="#db4700"/>
          </g>
          <g id="Grupo_959363" data-name="Grupo 959363" transform="translate(114.338)">
            <rect id="Rectángulo_308310" data-name="Rectángulo 308310" width="39.585" height="38.912" fill="#e9a85a"/>
            <rect id="Rectángulo_308311" data-name="Rectángulo 308311" width="20.017" height="0.774" transform="translate(4.367 3.552)" fill="#1d2c2c"/>
            <rect id="Rectángulo_308312" data-name="Rectángulo 308312" width="20.017" height="0.774" transform="translate(14.375 34.737)" fill="#1d2c2c"/>
            <rect id="Rectángulo_308313" data-name="Rectángulo 308313" width="13.151" height="0.774" transform="translate(4.367 5.824)" fill="#1d2c2c"/>
            <rect id="Rectángulo_308314" data-name="Rectángulo 308314" width="7.446" height="0.774" transform="translate(4.367 8.338)" fill="#1d2c2c"/>
            <rect id="Rectángulo_308315" data-name="Rectángulo 308315" width="7.446" height="0.774" transform="translate(14.375 33.057)" fill="#1d2c2c"/>
            <path id="Trazado_633002" data-name="Trazado 633002" d="M127.35,264.523h0a.755.755,0,0,0-.255.007l-.867.176a.745.745,0,0,1-.238.009l-.705-.087a.749.749,0,0,0-.234.008l-.478.094V248.9H128.2v14.891A.74.74,0,0,1,127.35,264.523Z" transform="translate(-105.957 -248.9)" fill="#ccc"/>
            <rect id="Rectángulo_308316" data-name="Rectángulo 308316" width="6.962" height="3.038" rx="0.664" transform="translate(31.829 14.285)" fill="#d42415"/>
            <g id="Grupo_959362" data-name="Grupo 959362" transform="translate(4.367 27.46)">
              <path id="Rectángulo_308317" data-name="Rectángulo 308317" d="M1,0H2.843a1,1,0,0,1,1,1V2.843a1,1,0,0,1-1,1H1a1,1,0,0,1-1-1V1A1,1,0,0,1,1,0Z" fill="#1d2c2c"/>
              <path id="Rectángulo_308318" data-name="Rectángulo 308318" d="M1,0H2.843a1,1,0,0,1,1,1V2.843a1,1,0,0,1-1,1H1a1,1,0,0,1-1-1V1A1,1,0,0,1,1,0Z" transform="translate(4.472)" fill="#1d2c2c"/>
              <path id="Rectángulo_308319" data-name="Rectángulo 308319" d="M1,0H2.843a1,1,0,0,1,1,1V2.843a1,1,0,0,1-1,1H1a1,1,0,0,1-1-1V1A1,1,0,0,1,1,0Z" transform="translate(0 4.448)" fill="#1d2c2c"/>
              <path id="Rectángulo_308320" data-name="Rectángulo 308320" d="M1,0H2.843a1,1,0,0,1,1,1V2.843a1,1,0,0,1-1,1H1a1,1,0,0,1-1-1V1A1,1,0,0,1,1,0Z" transform="translate(4.472 4.448)" fill="#1d2c2c"/>
            </g>
          </g>
        </g>
        <g id="Grupo_959365" data-name="Grupo 959365" transform="translate(22.247 153.492)">
          <path id="Trazado_633003" data-name="Trazado 633003" d="M26.282,407.008H87.217l-6.795-20.333H33.077Z" transform="translate(-25.079 -386.676)" fill="#1d2c2c"/>
          <path id="Trazado_633004" data-name="Trazado 633004" d="M35.334,387.709v17.873H28.718l5.521-17.873Z" transform="translate(-24.801 -386.558)" fill="#0f1616"/>
          <path id="Trazado_633005" data-name="Trazado 633005" d="M72.616,387.709v17.873h6.616l-5.521-17.873Z" transform="translate(-19.793 -386.558)" fill="#0f1616"/>
          <path id="Trazado_633006" data-name="Trazado 633006" d="M52.837,387.779v17.874H47.608l2.831-17.874Z" transform="translate(-22.646 -386.55)" fill="#0f1616"/>
          <path id="Trazado_633007" data-name="Trazado 633007" d="M53.63,387.779v17.874h5.229l-2.831-17.874Z" transform="translate(-21.959 -386.55)" fill="#515555"/>
          <path id="Trazado_633008" data-name="Trazado 633008" d="M73.6,387.709h1.81l5.973,17.873H79.12Z" transform="translate(-19.681 -386.558)" fill="#515555"/>
          <rect id="Rectángulo_308321" data-name="Rectángulo 308321" width="49.924" height="1.204" transform="translate(6.653)" fill="#515555"/>
          <rect id="Rectángulo_308322" data-name="Rectángulo 308322" width="63.325" height="1.462" transform="translate(0 18.871)" fill="#515555"/>
        </g>
      </g>
    </g>
  </g>
</svg>
