<svg xmlns="http://www.w3.org/2000/svg" width="602.878" height="310.39" viewBox="0 0 602.878 310.39">
  <g id="Grupo_969354" data-name="Grupo 969354" transform="translate(6672 -1049.725)">
    <g id="Grupo_959370" data-name="Grupo 959370" transform="translate(0 1736.425)">
      <g id="Grupo_959315" data-name="Grupo 959315" transform="translate(-6616.556 -686.7)">
        <g id="Grupo_957328" data-name="Grupo 957328">
          <g id="Grupo_957327" data-name="Grupo 957327">
            <g id="Grupo_957326" data-name="Grupo 957326">
              <g id="Grupo_957325" data-name="Grupo 957325">
                <g id="Grupo_957324" data-name="Grupo 957324">
                  <g id="Grupo_957323" data-name="Grupo 957323">
                    <path id="Trazado_632393" data-name="Trazado 632393" d="M700.377,304.909c-3.282-22.739-10.239-42.067-19.688-57.3q-4.815-7.761-10.158-15C634.624,183.87,582.6,153.55,542.209,149.537,380.767,133.5,388.172,216.043,301.563,220.569c-33.957,1.774-64.9,14.111-89.048,30.095A169.8,169.8,0,0,0,185.3,272.9c-.76.771-2.772,2.839-4.93,5.28-3.234,3.651-12.691,14.647-17.024,26.865q-.352.992-.65,1.963c-11.356,37.164-8.8,66.493-.51,89.007q.665,1.808,1.379,3.557,1.71,4.19,3.662,8.051c17.664,35.073,48.312,49.893,48.312,49.893l35.073.1,3.661.01,75.9.224h11.148l85.622,0h87.655l82.978,0h77.493q3.369-7.958,6.287-15.743,1.486-3.962,2.859-7.875a336.76,336.76,0,0,0,14.376-54.758,263.794,263.794,0,0,0,3.9-44.07q.006-6.791-.377-13.283Q701.587,313.228,700.377,304.909Z" transform="translate(-155.05 -147.472)" fill="#ebf3fa"/>
                  </g>
                </g>
              </g>
            </g>
          </g>
        </g>
      </g>
      <g id="Grupo_959318" data-name="Grupo 959318" transform="translate(-6315.699 -626.324)">
        <g id="Grupo_958912" data-name="Grupo 958912">
          <g id="Grupo_958911" data-name="Grupo 958911">
            <g id="Grupo_958910" data-name="Grupo 958910">
              <g id="Grupo_958909" data-name="Grupo 958909">
                <path id="Trazado_632608" data-name="Trazado 632608" d="M1815.043,484.214s-1.779-5.5-7.182-4.534-3.492,8.954-3.492,8.954a4.345,4.345,0,0,0-2.952.457,1.423,1.423,0,0,0,.889,2.594,171.084,171.084,0,0,1,22.02.06,5.849,5.849,0,0,0,6.35-5.925,8.943,8.943,0,0,0-1.855-4.932C1823.758,473.7,1814.959,480.565,1815.043,484.214Z" transform="translate(-1800.796 -477.738)" fill="#fff"/>
              </g>
            </g>
          </g>
        </g>
      </g>
      <g id="Grupo_959317" data-name="Grupo 959317" transform="translate(-6297.701 -670.733)">
        <g id="Grupo_958915" data-name="Grupo 958915">
          <g id="Grupo_958914" data-name="Grupo 958914">
            <path id="Trazado_632609" data-name="Trazado 632609" d="M1944.057,250.212s3.115-13.837-8.956-15.289c-12.4-1.492-13.045,13.092-13.045,13.092s-7.031-7.737-10.863,1.689c0,0-7.567-3.818-11.2.765a3.457,3.457,0,0,0,.031,4.327h49.759a2.454,2.454,0,0,0-.354-2.172C1948.544,251.415,1946.937,250.389,1944.057,250.212Z" transform="translate(-1899.247 -234.816)" fill="#fff"/>
          </g>
        </g>
      </g>
      <g id="Grupo_959316" data-name="Grupo 959316" transform="translate(-6185.818 -585.241)">
        <g id="Grupo_958918" data-name="Grupo 958918">
          <g id="Grupo_958917" data-name="Grupo 958917">
            <path id="Trazado_632610" data-name="Trazado 632610" d="M2556.076,717.866s3.115-13.837-8.956-15.289c-12.4-1.492-13.045,13.092-13.045,13.092s-7.031-7.737-10.863,1.689c0,0-7.566-3.818-11.2.765a3.458,3.458,0,0,0,.031,4.327H2561.8a2.453,2.453,0,0,0-.354-2.172C2560.563,719.069,2558.956,718.043,2556.076,717.866Z" transform="translate(-2511.266 -702.47)" fill="#fff"/>
          </g>
        </g>
      </g>
      <g id="Grupo_959319" data-name="Grupo 959319" transform="translate(-6515.376 -591.109)">
        <g id="Grupo_958921" data-name="Grupo 958921">
          <g id="Grupo_958920" data-name="Grupo 958920">
            <path id="Trazado_632611" data-name="Trazado 632611" d="M739.238,682.19c-3.042-7.481-8.622-1.341-8.622-1.341s-.509-11.575-10.353-10.391c-9.58,1.152-7.108,12.135-7.108,12.135-2.286.14-3.561.954-4.263,1.914a1.947,1.947,0,0,0-.281,1.724H748.1a2.744,2.744,0,0,0,.024-3.434C745.243,679.16,739.238,682.19,739.238,682.19Z" transform="translate(-708.524 -670.374)" fill="#fff"/>
          </g>
        </g>
      </g>
    </g>
    <g id="Grupo_959396" data-name="Grupo 959396" transform="translate(-6679.503 1110.891)">
      <g id="Grupo_959378" data-name="Grupo 959378" transform="translate(15.503 19.074)">
        <g id="Grupo_959371" data-name="Grupo 959371">
          <path id="Trazado_633009" data-name="Trazado 633009" d="M193.3,52.155l.167-.954L34.44,22.973l-.243.934,80.74,28.229.32-.915L40.188,24.977Z" transform="translate(-7.311 -17.365)" fill="#737373"/>
          <rect id="Rectángulo_308324" data-name="Rectángulo 308324" width="181.204" height="5.655" transform="translate(188.338 37.141) rotate(180)" fill="#ccc"/>
          <path id="Trazado_633010" data-name="Trazado 633010" d="M20.463,43.793H29.7l11.658-2.828,2.582,2.828H201.667v2.828H20.463Z" transform="translate(-13.329 -9.48)" fill="#999"/>
          <rect id="Rectángulo_308325" data-name="Rectángulo 308325" width="11.609" height="207.432" transform="translate(28.032 210.973) rotate(180)" fill="#ccc"/>
          <path id="Trazado_633011" data-name="Trazado 633011" d="M30.214,21.536H26.922V228.969H38.53s-8.316-1.916-8.316-12.613Z" transform="translate(-10.499 -17.995)" fill="#999"/>
          <path id="Trazado_633012" data-name="Trazado 633012" d="M15.5,184.938H91.927L79.586,168.823a7.809,7.809,0,0,0-6.2-3.061H23.311A7.808,7.808,0,0,0,15.5,173.57Z" transform="translate(-15.503 45.212)" fill="#1d2c2c"/>
          <path id="Trazado_633013" data-name="Trazado 633013" d="M28.068,24.682H38.825a2.811,2.811,0,0,0,2.8-2.8h0a2.812,2.812,0,0,0-2.8-2.8H28.068a2.812,2.812,0,0,0-2.8,2.8h0A2.811,2.811,0,0,0,28.068,24.682Z" transform="translate(-11.225 -19.074)" fill="#737373"/>
        </g>
        <g id="Grupo_959373" data-name="Grupo 959373" transform="translate(88.729 46.094)">
          <g id="Grupo_959372" data-name="Grupo 959372">
            <rect id="Rectángulo_308326" data-name="Rectángulo 308326" width="8.392" height="12.026" transform="translate(50.248 12.026) rotate(180)" fill="#1d2c2c"/>
            <rect id="Rectángulo_308327" data-name="Rectángulo 308327" width="22.658" height="70.623" transform="translate(57.381 82.65) rotate(180)" fill="#004f84"/>
            <rect id="Rectángulo_308328" data-name="Rectángulo 308328" width="15.734" height="5.951" transform="translate(53.919 88.6) rotate(180)" fill="#1d2c2c"/>
            <rect id="Rectángulo_308329" data-name="Rectángulo 308329" width="76.784" height="3.306" transform="translate(84.444 97.256) rotate(180)" fill="#1d2c2c"/>
            <rect id="Rectángulo_308330" data-name="Rectángulo 308330" width="8.654" height="5.35" transform="translate(50.379 93.95) rotate(180)" fill="#1d2c2c"/>
            <rect id="Rectángulo_308331" data-name="Rectángulo 308331" width="14.318" height="2.675" transform="translate(90.353 103.076) rotate(180)" fill="#1d2c2c"/>
            <rect id="Rectángulo_308332" data-name="Rectángulo 308332" width="2.5" height="3.145" transform="translate(84.444 100.401) rotate(180)" fill="#1d2c2c"/>
            <path id="Trazado_633014" data-name="Trazado 633014" d="M136.575,124.836h6.683l-1.769-2.045h-3.145Z" transform="translate(-51.172 -19.714)" fill="#1d2c2c"/>
            <path id="Trazado_633015" data-name="Trazado 633015" d="M128.808,124.836h6.683l-1.769-2.045h-3.145Z" transform="translate(-54.576 -19.714)" fill="#1d2c2c"/>
            <rect id="Rectángulo_308333" data-name="Rectángulo 308333" width="14.318" height="2.675" transform="translate(16.121 103.076) rotate(180)" fill="#1d2c2c"/>
            <rect id="Rectángulo_308334" data-name="Rectángulo 308334" width="2.5" height="3.145" transform="translate(10.212 100.401) rotate(180)" fill="#1d2c2c"/>
            <path id="Trazado_633016" data-name="Trazado 633016" d="M84.963,124.836h6.683l-1.769-2.045H86.732Z" transform="translate(-73.791 -19.714)" fill="#1d2c2c"/>
            <path id="Trazado_633017" data-name="Trazado 633017" d="M77.2,124.836h6.683l-1.769-2.045H78.964Z" transform="translate(-77.195 -19.714)" fill="#1d2c2c"/>
            <path id="Trazado_633018" data-name="Trazado 633018" d="M124,59.484,104.8,64.3v60.106l19.2,5.7H101.338V59.484Z" transform="translate(-66.615 -47.458)" fill="#003b65"/>
          </g>
          <path id="Trazado_633019" data-name="Trazado 633019" d="M115.4,129.267c8.208,0,8.477-5.959,8.48-6.018l-2.518-.091c-.02.368-.364,3.591-5.962,3.591-2.579,0-5.392-3.366-8.366-6.931-4.214-5.047-8.99-10.768-15.9-11.24a9.559,9.559,0,0,0-7.564,2.6c-5.1,4.866-4.959,14.788-4.952,15.207l2.517-.049c0-.092-.125-9.245,4.175-13.338a7.034,7.034,0,0,1,5.652-1.9c5.836.4,10.246,5.68,14.138,10.341C108.614,125.637,111.646,129.267,115.4,129.267Z" transform="translate(-76.572 -25.955)" fill="#999"/>
          <path id="Trazado_633020" data-name="Trazado 633020" d="M116.78,129.267c3.76,0,6.79-3.63,10.3-7.834,3.892-4.661,8.3-9.943,14.139-10.341A7.03,7.03,0,0,1,146.873,113c4.309,4.108,4.177,13.242,4.174,13.335l2.518.049c.007-.421.147-10.344-4.953-15.207a9.505,9.505,0,0,0-7.564-2.6c-6.908.472-11.684,6.193-15.9,11.238-2.976,3.564-5.788,6.932-8.369,6.932-5.6,0-5.941-3.223-5.962-3.591l-2.517.091C108.3,123.309,108.571,129.267,116.78,129.267Z" transform="translate(-63.563 -25.956)" fill="#999"/>
        </g>
        <g id="Grupo_959374" data-name="Grupo 959374" transform="translate(7.403 35.726)">
          <rect id="Rectángulo_308335" data-name="Rectángulo 308335" width="2.575" height="8.953" transform="translate(128.666 10.368) rotate(180)" fill="#1d2c2c"/>
          <path id="Trazado_633021" data-name="Trazado 633021" d="M65.548,80.785c-.283-.6-.549-1.23-.8-1.886-3.332,4.959-9.1,10.183-18.627,10.183h-.329C29.579,88.874,20.65,79.148,20.65,61.692c0-15.52,8.661-17.7,9.021-17.778v2.708c-.278.066-6.505,1.72-6.505,15.07,0,11.215,3.931,24.634,22.658,24.87.1,0,.2,0,.3,0,9.226,0,14.581-5.421,17.626-10.827a44.069,44.069,0,0,1-1.365-11.024c0-5.967,1.217-12.934,4.651-12.934a2.735,2.735,0,0,1,2.39,1.588c1.939,3.4,1.627,13.87-2.987,22.685C67.948,81.18,71.049,86.867,77.4,86.867c6.5,0,11.646-6.072,14.837-13.045A48.751,48.751,0,0,1,90.007,60.1a17.082,17.082,0,0,1,.758-5.625c.892-2.482,2.434-2.855,3.272-2.855a3.8,3.8,0,0,1,3.473,2.432,11.947,11.947,0,0,1,.876,4.994,39.954,39.954,0,0,1-3.472,14.92c2.353,7.011,6.311,12.9,11.277,12.9,5.247,0,9.677-6.287,12.472-13.471a61.767,61.767,0,0,1-1.473-12.429c0-5.888,1.293-8.873,3.842-8.873a2.924,2.924,0,0,1,2.751,2.185,11.7,11.7,0,0,1,.6,4.128,46.612,46.612,0,0,1-3.1,15.214c.354,1.525.757,3,1.2,4.377,1.775,5.47,4.092,8.87,6.046,8.87,3.157,0,5.119-6.593,5.119-17.209,0-14.026,5.757-20.561,9.649-20.561,3.833,0,5.632,3.488,6.013,5.185h-2.574a3.478,3.478,0,0,0-3.439-2.668c-2.031,0-7.132,5.368-7.132,18.044,0,9-1.325,19.727-7.636,19.727-3.954,0-6.941-5.447-8.854-11.978-3.167,6.638-7.8,11.978-13.489,11.978-5.849,0-10.117-5.532-12.8-12.271-3.629,6.768-9.107,12.271-16,12.271C72.3,89.386,68.2,86.41,65.548,80.785Zm-.03-8.762,0,.013a35.942,35.942,0,0,0,1.456-4.443c1.863-7.292.919-12.823.095-13.3C65.778,54.75,63.913,62.666,65.518,72.023ZM93.132,55.329a14.973,14.973,0,0,0-.608,4.772,43.574,43.574,0,0,0,1.25,9.874,35.253,35.253,0,0,0,2.094-10.928,9.676,9.676,0,0,0-.636-3.921c-.463-.987-.977-.987-1.2-.987C93.594,54.14,93.233,55.049,93.132,55.329Zm26.576,5.638a52.362,52.362,0,0,0,.6,7.466,39.64,39.64,0,0,0,1.556-10.026,9.136,9.136,0,0,0-.423-3.213c-.135-.344-.3-.582-.406-.582C120.679,54.612,119.708,56.119,119.708,60.967Z" transform="translate(-20.65 -43.914)" fill="#737373"/>
          <rect id="Rectángulo_308336" data-name="Rectángulo 308336" width="2.575" height="8.953" transform="translate(101.67 10.368) rotate(180)" fill="#1d2c2c"/>
          <rect id="Rectángulo_308337" data-name="Rectángulo 308337" width="2.575" height="8.953" transform="translate(74.674 10.368) rotate(180)" fill="#1d2c2c"/>
          <rect id="Rectángulo_308338" data-name="Rectángulo 308338" width="2.575" height="8.953" transform="translate(47.678 10.368) rotate(180)" fill="#1d2c2c"/>
        </g>
        <g id="Grupo_959377" data-name="Grupo 959377" transform="translate(78.941 151.215)">
          <rect id="Rectángulo_308339" data-name="Rectángulo 308339" width="109.397" height="42.966" fill="#d18840"/>
          <rect id="Rectángulo_308340" data-name="Rectángulo 308340" width="25.293" height="0.977" transform="translate(6.407 5.165)" fill="#1d2c2c"/>
          <g id="Grupo_959375" data-name="Grupo 959375" transform="translate(79.25 5.165)">
            <rect id="Rectángulo_308341" data-name="Rectángulo 308341" width="25.293" height="0.977" fill="#1d2c2c"/>
            <rect id="Rectángulo_308342" data-name="Rectángulo 308342" width="16.618" height="0.977" transform="translate(0 2.872)" fill="#1d2c2c"/>
            <rect id="Rectángulo_308343" data-name="Rectángulo 308343" width="9.408" height="0.977" transform="translate(0 6.048)" fill="#1d2c2c"/>
          </g>
          <rect id="Rectángulo_308344" data-name="Rectángulo 308344" width="8.797" height="3.839" rx="0.65" transform="translate(93.407 16.372)" fill="#d42415"/>
          <rect id="Rectángulo_308345" data-name="Rectángulo 308345" width="25.293" height="0.977" transform="translate(19.054 35.994)" fill="#1d2c2c"/>
          <rect id="Rectángulo_308346" data-name="Rectángulo 308346" width="9.408" height="0.977" transform="translate(19.054 33.871)" fill="#1d2c2c"/>
          <g id="Grupo_959376" data-name="Grupo 959376" transform="translate(6.407 26.8)">
            <rect id="Rectángulo_308347" data-name="Rectángulo 308347" width="4.857" height="4.857" rx="0.979" fill="#1d2c2c"/>
            <rect id="Rectángulo_308348" data-name="Rectángulo 308348" width="4.857" height="4.857" rx="0.979" transform="translate(5.651)" fill="#1d2c2c"/>
            <rect id="Rectángulo_308349" data-name="Rectángulo 308349" width="4.857" height="4.857" rx="0.979" transform="translate(0 5.621)" fill="#1d2c2c"/>
            <rect id="Rectángulo_308350" data-name="Rectángulo 308350" width="4.857" height="4.857" rx="0.979" transform="translate(5.651 5.621)" fill="#1d2c2c"/>
          </g>
        </g>
      </g>
      <g id="Grupo_959382" data-name="Grupo 959382" transform="translate(224.499 133.598)">
        <g id="Grupo_959380" data-name="Grupo 959380" transform="translate(8.375)">
          <rect id="Rectángulo_308351" data-name="Rectángulo 308351" width="57.257" height="56.284" fill="#d18840"/>
          <rect id="Rectángulo_308352" data-name="Rectángulo 308352" width="28.953" height="1.119" transform="translate(6.316 5.137)" fill="#1d2c2c"/>
          <rect id="Rectángulo_308353" data-name="Rectángulo 308353" width="28.953" height="1.119" transform="translate(20.793 50.245)" fill="#1d2c2c"/>
          <rect id="Rectángulo_308354" data-name="Rectángulo 308354" width="19.022" height="1.119" transform="translate(6.316 8.424)" fill="#1d2c2c"/>
          <rect id="Rectángulo_308355" data-name="Rectángulo 308355" width="10.77" height="1.119" transform="translate(6.316 12.061)" fill="#1d2c2c"/>
          <rect id="Rectángulo_308356" data-name="Rectángulo 308356" width="10.77" height="1.119" transform="translate(20.793 47.815)" fill="#1d2c2c"/>
          <path id="Trazado_633022" data-name="Trazado 633022" d="M189.378,121.3h0a1.1,1.1,0,0,0-.37.01l-1.253.255a1.07,1.07,0,0,1-.345.013l-1.02-.127a1.065,1.065,0,0,0-.338.013l-.692.135V98.7h5.245V120.24A1.07,1.07,0,0,1,189.378,121.3Z" transform="translate(-158.434 -98.702)" fill="#ccc"/>
          <rect id="Rectángulo_308357" data-name="Rectángulo 308357" width="10.07" height="4.394" rx="0.744" transform="translate(46.039 20.663)" fill="#d42415"/>
          <g id="Grupo_959379" data-name="Grupo 959379" transform="translate(6.316 39.72)">
            <rect id="Rectángulo_308358" data-name="Rectángulo 308358" width="5.56" height="5.56" rx="1.121" fill="#1d2c2c"/>
            <rect id="Rectángulo_308359" data-name="Rectángulo 308359" width="5.56" height="5.56" rx="1.121" transform="translate(6.469)" fill="#1d2c2c"/>
            <rect id="Rectángulo_308360" data-name="Rectángulo 308360" width="5.56" height="5.56" rx="1.121" transform="translate(0 6.434)" fill="#1d2c2c"/>
            <rect id="Rectángulo_308361" data-name="Rectángulo 308361" width="5.56" height="5.56" rx="1.121" transform="translate(6.469 6.434)" fill="#1d2c2c"/>
          </g>
        </g>
        <g id="Grupo_959381" data-name="Grupo 959381" transform="translate(0 55.359)">
          <path id="Trazado_633023" data-name="Trazado 633023" d="M165.715,182.931h0a2.683,2.683,0,0,1-2.675-2.675v-7.239a2.683,2.683,0,0,1,2.675-2.675h0a2.683,2.683,0,0,1,2.675,2.675v7.239A2.683,2.683,0,0,1,165.715,182.931Z" transform="translate(-159.841 -122.664)" fill="#1d2c2c"/>
          <path id="Trazado_633024" data-name="Trazado 633024" d="M209.012,182.931h0a2.683,2.683,0,0,1-2.675-2.675v-7.239a2.683,2.683,0,0,1,2.675-2.675h0a2.683,2.683,0,0,1,2.675,2.675v7.239A2.683,2.683,0,0,1,209.012,182.931Z" transform="translate(-140.866 -122.664)" fill="#1d2c2c"/>
          <path id="Rectángulo_308362" data-name="Rectángulo 308362" d="M0,0H74.008a0,0,0,0,1,0,0V29.8a1.83,1.83,0,0,1-1.83,1.83H1.83A1.83,1.83,0,0,1,0,29.8V0A0,0,0,0,1,0,0Z" transform="translate(0 21.243)" fill="#ccc"/>
          <path id="Rectángulo_308363" data-name="Rectángulo 308363" d="M1.6,0H72.4a1.6,1.6,0,0,1,1.6,1.6V7.081a0,0,0,0,1,0,0H0a0,0,0,0,1,0,0V1.6A1.6,1.6,0,0,1,1.6,0Z" transform="translate(0 14.162)" fill="#004f84"/>
          <rect id="Rectángulo_308364" data-name="Rectángulo 308364" width="69.92" height="7.081" transform="translate(1.962 7.081)" fill="#ccc"/>
          <rect id="Rectángulo_308365" data-name="Rectángulo 308365" width="74.008" height="7.081" rx="1.535" fill="#004f84"/>
          <rect id="Rectángulo_308366" data-name="Rectángulo 308366" width="23.44" height="10.7" transform="translate(25.375 28.196)" fill="#999"/>
          <rect id="Rectángulo_308367" data-name="Rectángulo 308367" width="16.994" height="6.963" transform="translate(28.598 30.064)" fill="#1d2c2c"/>
          <rect id="Rectángulo_308368" data-name="Rectángulo 308368" width="17.031" height="7.081" transform="translate(28.598 7.081)" fill="#999"/>
          <path id="Trazado_633025" data-name="Trazado 633025" d="M189.932,145.35a2.538,2.538,0,1,1-2.537-2.537A2.538,2.538,0,0,1,189.932,145.35Z" transform="translate(-150.28 -134.729)" fill="#1d2c2c"/>
          <path id="Trazado_633026" data-name="Trazado 633026" d="M232.018,142.115l.082,1-69.92,2.537v-3.541Z" transform="translate(-160.218 -135.034)" fill="#999" style="mix-blend-mode: multiply;isolation: isolate"/>
          <rect id="Rectángulo_308369" data-name="Rectángulo 308369" width="10.029" height="4.515" transform="translate(33.666 31.194)" fill="#004f84"/>
          <path id="Trazado_633027" data-name="Trazado 633027" d="M234.82,151.962l0,1.285L160.816,155.5v-3.541Z" transform="translate(-160.816 -130.719)" fill="#999" style="mix-blend-mode: multiply;isolation: isolate"/>
          <path id="Trazado_633028" data-name="Trazado 633028" d="M178.459,156.8l23.44,10.7V156.8Z" transform="translate(-153.084 -128.6)" fill="#999" style="mix-blend-mode: multiply;isolation: isolate"/>
          <path id="Trazado_633029" data-name="Trazado 633029" d="M188.033,144.907a1.082,1.082,0,1,1-1.082-1.082A1.082,1.082,0,0,1,188.033,144.907Z" transform="translate(-149.837 -134.285)" fill="#d42415"/>
          <circle id="Elipse_7964" data-name="Elipse 7964" cx="1.082" cy="1.082" r="1.082" transform="translate(30.314 33.546)" fill="#d42415"/>
        </g>
      </g>
      <g id="Grupo_959389" data-name="Grupo 959389" transform="translate(332.687 90.552)">
        <g id="Grupo_959384" data-name="Grupo 959384" transform="translate(96.825 77.865)">
          <rect id="Rectángulo_308370" data-name="Rectángulo 308370" width="36.37" height="35.751" fill="#d18840"/>
          <rect id="Rectángulo_308371" data-name="Rectángulo 308371" width="18.391" height="0.711" transform="translate(4.012 3.263)" fill="#1d2c2c"/>
          <rect id="Rectángulo_308372" data-name="Rectángulo 308372" width="18.391" height="0.711" transform="translate(13.208 31.915)" fill="#1d2c2c"/>
          <rect id="Rectángulo_308373" data-name="Rectángulo 308373" width="12.083" height="0.711" transform="translate(4.012 5.351)" fill="#1d2c2c"/>
          <rect id="Rectángulo_308374" data-name="Rectángulo 308374" width="6.841" height="0.711" transform="translate(4.012 7.661)" fill="#1d2c2c"/>
          <rect id="Rectángulo_308375" data-name="Rectángulo 308375" width="6.841" height="0.711" transform="translate(13.208 30.372)" fill="#1d2c2c"/>
          <path id="Trazado_633030" data-name="Trazado 633030" d="M317.8,137.265h0a.642.642,0,0,0-.234.006l-.8.161a.7.7,0,0,1-.219.009l-.649-.081a.715.715,0,0,0-.214.007l-.439.086V122.911h3.331v13.681A.68.68,0,0,1,317.8,137.265Z" transform="translate(-298.148 -122.91)" fill="#ccc"/>
          <rect id="Rectángulo_308376" data-name="Rectángulo 308376" width="6.397" height="2.791" rx="0.473" transform="translate(29.244 13.125)" fill="#d42415"/>
          <g id="Grupo_959383" data-name="Grupo 959383" transform="translate(4.012 25.23)">
            <rect id="Rectángulo_308377" data-name="Rectángulo 308377" width="3.532" height="3.532" rx="0.712" fill="#1d2c2c"/>
            <rect id="Rectángulo_308378" data-name="Rectángulo 308378" width="3.532" height="3.532" rx="0.712" transform="translate(4.109)" fill="#1d2c2c"/>
            <rect id="Rectángulo_308379" data-name="Rectángulo 308379" width="3.532" height="3.531" rx="0.712" transform="translate(0 4.087)" fill="#1d2c2c"/>
            <rect id="Rectángulo_308380" data-name="Rectángulo 308380" width="3.532" height="3.531" rx="0.712" transform="translate(4.109 4.087)" fill="#1d2c2c"/>
          </g>
        </g>
        <g id="Grupo_959388" data-name="Grupo 959388">
          <g id="Grupo_959385" data-name="Grupo 959385" transform="translate(10.915)">
            <path id="Rectángulo_308381" data-name="Rectángulo 308381" d="M8.441,0H47.455A8.441,8.441,0,0,1,55.9,8.441V80.182a0,0,0,0,1,0,0H0a0,0,0,0,1,0,0V8.441A8.441,8.441,0,0,1,8.441,0Z" transform="translate(0 15.968)" fill="#999"/>
            <path id="Trazado_633031" data-name="Trazado 633031" d="M250,92.386a6.93,6.93,0,0,1,5.724-6.829c10.483-1.852,31.755-5.6,32.343-5.649-.091,0-.183-.01-.273-.013l-.587-.02h-31.44a12.14,12.14,0,0,0-12.14,12.139v68.042h55.9v-1.638l-46.608-5.025A3.264,3.264,0,0,1,250,150.146Z" transform="translate(-243.627 -63.906)" fill="#737373"/>
            <path id="Trazado_633032" data-name="Trazado 633032" d="M291.539,84.741H251.612a8.009,8.009,0,0,1-7.985-7.985h0a8.008,8.008,0,0,1,7.985-7.984h39.927a8.007,8.007,0,0,1,7.984,7.984h0A8.009,8.009,0,0,1,291.539,84.741Z" transform="translate(-243.627 -68.772)" fill="#ccc"/>
            <path id="Trazado_633033" data-name="Trazado 633033" d="M289.872,75.892H250.634a2.583,2.583,0,0,1-2.576-2.574h0a2.584,2.584,0,0,1,2.576-2.576h39.238a2.584,2.584,0,0,1,2.576,2.576h0A2.583,2.583,0,0,1,289.872,75.892Z" transform="translate(-241.685 -67.909)" fill="#004f84"/>
            <path id="Trazado_633034" data-name="Trazado 633034" d="M274.353,78.131H257.917a1.033,1.033,0,0,1-1.03-1.03h0a1.034,1.034,0,0,1,1.03-1.03h16.436a1.033,1.033,0,0,1,1.03,1.03h0A1.032,1.032,0,0,1,274.353,78.131Z" transform="translate(-237.816 -65.573)" fill="#1d2c2c"/>
            <path id="Trazado_633035" data-name="Trazado 633035" d="M278.947,73.01a1.564,1.564,0,1,1-1.563-1.565A1.564,1.564,0,0,1,278.947,73.01Z" transform="translate(-229.519 -67.601)" fill="#d42415"/>
          </g>
          <g id="Grupo_959386" data-name="Grupo 959386" transform="translate(27.584 28.185)">
            <path id="Trazado_633036" data-name="Trazado 633036" d="M257.468,94.5l-2.251,34.477h20.337l.56-1.628Z" transform="translate(-255.217 -85.683)" fill="#737373"/>
            <rect id="Rectángulo_308382" data-name="Rectángulo 308382" width="18.175" height="30.261" transform="translate(2.722 11.403)" fill="#ccc"/>
            <rect id="Rectángulo_308383" data-name="Rectángulo 308383" width="38.383" height="14.061" transform="translate(10.258 2.661)" fill="#ccc"/>
            <path id="Trazado_633037" data-name="Trazado 633037" d="M288.076,100.316v2.39l-18.329,2.132V99.263Z" transform="translate(-248.849 -83.595)" fill="#737373"/>
            <rect id="Rectángulo_308384" data-name="Rectángulo 308384" width="29.952" height="14.061" transform="translate(57.76 2.661)" fill="#ccc"/>
            <rect id="Rectángulo_308385" data-name="Rectángulo 308385" width="18.84" height="14.061" transform="translate(94.742 9.691) rotate(90)" fill="#ccc"/>
            <rect id="Rectángulo_308386" data-name="Rectángulo 308386" width="78.096" height="2.108" transform="translate(12.057 14.614)" fill="#999"/>
            <path id="Trazado_633038" data-name="Trazado 633038" d="M276.134,98.08a9.692,9.692,0,1,1-9.691-9.691A9.691,9.691,0,0,1,276.134,98.08Z" transform="translate(-254.545 -88.36)" fill="#1d2c2c"/>
            <path id="Trazado_633039" data-name="Trazado 633039" d="M302.445,98.06a9.692,9.692,0,1,1-9.692-9.691A9.692,9.692,0,0,1,302.445,98.06Z" transform="translate(-243.014 -88.369)" fill="#1d2c2c"/>
            <rect id="Rectángulo_308387" data-name="Rectángulo 308387" width="21.806" height="18.426" transform="translate(96.925 27.874) rotate(90)" fill="#004f84"/>
            <rect id="Rectángulo_308388" data-name="Rectángulo 308388" width="3.293" height="13.26" transform="translate(80.681 14.614)" fill="#999"/>
            <circle id="Elipse_7965" data-name="Elipse 7965" cx="9.691" cy="9.691" r="9.691" transform="translate(78.02)" fill="#1d2c2c"/>
          </g>
          <g id="Grupo_959387" data-name="Grupo 959387" transform="translate(0 95.378)">
            <path id="Trazado_633040" data-name="Trazado 633040" d="M241.183,183.123h0a2.817,2.817,0,0,1-2.809-2.809v-7.6a2.817,2.817,0,0,1,2.809-2.809h0a2.819,2.819,0,0,1,2.81,2.809v7.6A2.819,2.819,0,0,1,241.183,183.123Z" transform="translate(-235.015 -119.83)" fill="#1d2c2c"/>
            <path id="Trazado_633041" data-name="Trazado 633041" d="M286.656,183.123h0a2.818,2.818,0,0,1-2.81-2.809v-7.6a2.818,2.818,0,0,1,2.81-2.809h0a2.817,2.817,0,0,1,2.809,2.809v7.6A2.817,2.817,0,0,1,286.656,183.123Z" transform="translate(-215.087 -119.83)" fill="#1d2c2c"/>
            <path id="Rectángulo_308389" data-name="Rectángulo 308389" d="M0,0H77.725a0,0,0,0,1,0,0V31.3A1.921,1.921,0,0,1,75.8,33.217H1.922A1.922,1.922,0,0,1,0,31.3V0A0,0,0,0,1,0,0Z" transform="translate(0 22.31)" fill="#ccc"/>
            <path id="Rectángulo_308390" data-name="Rectángulo 308390" d="M1.685,0H76.04a1.685,1.685,0,0,1,1.685,1.685V7.437a0,0,0,0,1,0,0H0a0,0,0,0,1,0,0V1.685A1.685,1.685,0,0,1,1.685,0Z" transform="translate(0 14.873)" fill="#004f84"/>
            <rect id="Rectángulo_308391" data-name="Rectángulo 308391" width="73.432" height="7.437" transform="translate(2.061 7.437)" fill="#ccc"/>
            <rect id="Rectángulo_308392" data-name="Rectángulo 308392" width="77.725" height="7.437" rx="1.612" fill="#004f84"/>
            <rect id="Rectángulo_308393" data-name="Rectángulo 308393" width="24.617" height="11.238" transform="translate(26.65 29.612)" fill="#999"/>
            <rect id="Rectángulo_308394" data-name="Rectángulo 308394" width="17.848" height="7.313" transform="translate(30.035 31.574)" fill="#1d2c2c"/>
            <rect id="Rectángulo_308395" data-name="Rectángulo 308395" width="17.886" height="7.437" transform="translate(30.035 7.437)" fill="#999"/>
            <path id="Trazado_633042" data-name="Trazado 633042" d="M266.616,143.655a2.665,2.665,0,1,1-2.665-2.664A2.664,2.664,0,0,1,266.616,143.655Z" transform="translate(-224.973 -132.5)" fill="#1d2c2c"/>
            <path id="Trazado_633043" data-name="Trazado 633043" d="M310.817,140.258l.086,1.054-73.432,2.665v-3.718Z" transform="translate(-235.41 -132.821)" fill="#999" style="mix-blend-mode: multiply;isolation: isolate"/>
            <rect id="Rectángulo_308396" data-name="Rectángulo 308396" width="10.532" height="4.742" transform="translate(35.357 32.761)" fill="#004f84"/>
            <path id="Trazado_633044" data-name="Trazado 633044" d="M313.759,150.6l0,1.35-77.725,2.368V150.6Z" transform="translate(-236.038 -128.289)" fill="#999" style="mix-blend-mode: multiply;isolation: isolate"/>
            <path id="Trazado_633045" data-name="Trazado 633045" d="M254.568,155.676l24.617,11.238V155.676Z" transform="translate(-227.918 -126.064)" fill="#999" style="mix-blend-mode: multiply;isolation: isolate"/>
            <path id="Trazado_633046" data-name="Trazado 633046" d="M264.621,143.189a1.136,1.136,0,1,1-1.136-1.136A1.136,1.136,0,0,1,264.621,143.189Z" transform="translate(-224.508 -132.035)" fill="#d42415"/>
            <path id="Trazado_633047" data-name="Trazado 633047" d="M260.445,160.719a1.135,1.135,0,1,1-1.136-1.136A1.136,1.136,0,0,1,260.445,160.719Z" transform="translate(-226.337 -124.352)" fill="#d42415"/>
          </g>
        </g>
      </g>
      <g id="Grupo_959395" data-name="Grupo 959395" transform="translate(411.869 28.802)">
        <g id="Grupo_959393" data-name="Grupo 959393">
          <g id="Grupo_959390" data-name="Grupo 959390" transform="translate(0 15.001)">
            <path id="Trazado_633048" data-name="Trazado 633048" d="M436.5,109.432s-3.586,15.11-12.8,25.609-17.334,13.689-17.334,13.689V134.055s8.883-6.44,12.98-11.562S426.508,108,426.508,108Z" transform="translate(-240.578 -4.833)" fill="#1d2c2c"/>
            <path id="Trazado_633049" data-name="Trazado 633049" d="M370.563,174.122h46.361l13.805-42.513H355.764Z" transform="translate(-262.75 5.515)" fill="#ea5f00"/>
            <path id="Trazado_633050" data-name="Trazado 633050" d="M427.987,134.529l-33.809,10.8s-4.27-2.632-5.5-2-4.812,7.385-10.6,9.534-14.371.736-17.923-3.5,26.283-17.752,26.283-17.752l42.5.184Z" transform="translate(-260.957 5.515)" fill="#db4700"/>
            <path id="Trazado_633051" data-name="Trazado 633051" d="M439.972,103.47,379.02,141.628H355.764l17.373-30.75a27.877,27.877,0,0,1,21.394-14.017l37.5-3.892Z" transform="translate(-262.75 -11.419)" fill="#ff7e00"/>
            <rect id="Rectángulo_308397" data-name="Rectángulo 308397" width="36.623" height="18.439" transform="matrix(-0.962, 0.272, -0.272, -0.962, 167.979, 137.308)" fill="#ff7e00"/>
            <path id="Trazado_633052" data-name="Trazado 633052" d="M414.251,107.846l14,9.583a5.385,5.385,0,0,0,7.465-1.4h0a5.387,5.387,0,0,0-1.4-7.465l-14.006-9.583a5.386,5.386,0,0,0-7.465,1.4h0A5.387,5.387,0,0,0,414.251,107.846Z" transform="translate(-238.14 -9.193)" fill="#ff7e00"/>
            <rect id="Rectángulo_308398" data-name="Rectángulo 308398" width="10.555" height="10.756" transform="translate(95.655 26.138) rotate(-145.788)" fill="#ea5f00"/>
            <path id="Trazado_633053" data-name="Trazado 633053" d="M423.9,109.312a2.453,2.453,0,1,0,2.452-2.454A2.452,2.452,0,0,0,423.9,109.312Z" transform="translate(-232.889 -5.332)" fill="#1d2c2c"/>
            <rect id="Rectángulo_308399" data-name="Rectángulo 308399" width="20.534" height="6.829" transform="matrix(0.552, -0.834, 0.834, 0.552, 92.724, 30.569)" fill="#ff7e00"/>
            <rect id="Rectángulo_308400" data-name="Rectángulo 308400" width="67.952" height="10.756" transform="matrix(-0.827, -0.562, 0.562, -0.827, 162.344, 72.17)" fill="#ff7e00"/>
            <path id="Trazado_633054" data-name="Trazado 633054" d="M373.274,56.124l-2.437-7.9-11.308,17.14,7.7-.349Z" transform="translate(-261.1 -31.027)" fill="#ff7e00"/>
            <path id="Trazado_633055" data-name="Trazado 633055" d="M430.916,94.092s-4.7,5.831-6.226,5.672S371.9,64.71,371.741,64.395s3.269-8.271,3.269-8.271l-5.16,7.59-5.531-.173,8.254-15.312S362.728,63.3,362.306,63.355s-5.707-3.318-5.707-3.318L355.568,61.6l5.7,3.767h8.211l55.7,37.827Z" transform="translate(-262.836 -31.027)" fill="#ea5f00"/>
            <rect id="Rectángulo_308401" data-name="Rectángulo 308401" width="3.073" height="18.525" transform="translate(70.172 22.817) rotate(180)" fill="#ea5f00"/>
            <path id="Trazado_633056" data-name="Trazado 633056" d="M401.976,94.408l6.515,4.308L419.8,81.574l-6.515-4.308Z" transform="translate(-242.498 -18.301)" fill="#ff7e00"/>
            <path id="Trazado_633057" data-name="Trazado 633057" d="M417.812,80.262h2.356v23.782H407.107l-.6-6.641Z" transform="translate(-240.512 -16.988)" fill="#ff7e00"/>
            <path id="Trazado_633058" data-name="Trazado 633058" d="M347.647,56.622h7.512a8.562,8.562,0,0,0,8.537-8.536h0a8.562,8.562,0,0,0-8.537-8.537h-7.512a8.562,8.562,0,0,0-8.536,8.537h0A8.562,8.562,0,0,0,347.647,56.622Z" transform="translate(-270.048 -34.831)" fill="#ff7e00"/>
            <path id="Trazado_633059" data-name="Trazado 633059" d="M424.982,93.443s-3.051,1.77-4.155,8.244.79,6.5-1.816,8.537-34.105,23.359-35.29,23.517-9.947-4.106-16.185-1.975-9.92,5.3-10.644,6.794,26.209,0,26.209,0l44.532-27.88Z" transform="translate(-262.262 -11.212)" fill="#ea5f00"/>
            <path id="Trazado_633060" data-name="Trazado 633060" d="M420.818,99.656a11.369,11.369,0,0,1-.5,5.2c-.948,2.579-1.316,3.368-1.053,3.895s9.527,8.053,10.737,8.316a11.6,11.6,0,0,0,3.488-.193,4.977,4.977,0,0,1-3.539,1.1,7.517,7.517,0,0,1-3.614-1.53l-12.019-8.225,5.455-9.281Z" transform="translate(-237.091 -8.804)" fill="#ea5f00"/>
            <path id="Trazado_633061" data-name="Trazado 633061" d="M421.458,80.262l-1.421,15.359c-.79-.368-4.184-1.842-6.251-1.474a19.816,19.816,0,0,0-3.925,1.179L419.8,80.262l-11.6,14.674-5.251-3.308-.968,1.467,6.515,4.308,13.662,1.583V80.262Z" transform="translate(-242.498 -16.988)" fill="#ea5f00"/>
            <path id="Trazado_633062" data-name="Trazado 633062" d="M353.678,138.547a17.8,17.8,0,1,0,17.8-17.8A17.8,17.8,0,0,0,353.678,138.547Z" transform="translate(-263.664 0.754)" fill="#1d2c2c"/>
            <circle id="Elipse_7966" data-name="Elipse 7966" cx="11.397" cy="11.397" r="11.397" transform="translate(157.579 98.207) rotate(-76.717)" fill="#1d2c2c"/>
            <rect id="Rectángulo_308402" data-name="Rectángulo 308402" width="4.268" height="14.26" transform="translate(67.099 20.565) rotate(180)" fill="#1d2c2c"/>
            <rect id="Rectángulo_308403" data-name="Rectángulo 308403" width="6.416" height="27.109" transform="translate(63.015 27.109) rotate(180)" fill="#1d2c2c"/>
            <rect id="Rectángulo_308404" data-name="Rectángulo 308404" width="56.599" height="2.049" transform="translate(56.599 35.963) rotate(180)" fill="#1d2c2c"/>
            <rect id="Rectángulo_308405" data-name="Rectángulo 308405" width="2.305" height="9.006" transform="translate(58.904 35.963) rotate(180)" fill="#1d2c2c"/>
            <path id="Trazado_633063" data-name="Trazado 633063" d="M424.02,136.319s-15.5,29.159-16.872,29.9-41.094,5.844-41.094,5.844h46.361Z" transform="translate(-258.24 7.579)" fill="#db4700"/>
          </g>
          <g id="Grupo_959392" data-name="Grupo 959392" transform="translate(3.33)">
            <rect id="Rectángulo_308406" data-name="Rectángulo 308406" width="50.196" height="49.342" transform="translate(50.196 49.343) rotate(180)" fill="#d18840"/>
            <rect id="Rectángulo_308407" data-name="Rectángulo 308407" width="25.382" height="0.981" transform="translate(44.658 5.485) rotate(180)" fill="#1d2c2c"/>
            <rect id="Rectángulo_308408" data-name="Rectángulo 308408" width="25.382" height="0.981" transform="translate(31.967 45.03) rotate(180)" fill="#1d2c2c"/>
            <rect id="Rectángulo_308409" data-name="Rectángulo 308409" width="16.676" height="0.981" transform="translate(44.658 8.367) rotate(180)" fill="#1d2c2c"/>
            <rect id="Rectángulo_308410" data-name="Rectángulo 308410" width="9.442" height="0.981" transform="translate(44.658 11.555) rotate(180)" fill="#1d2c2c"/>
            <rect id="Rectángulo_308411" data-name="Rectángulo 308411" width="9.442" height="0.981" transform="translate(31.967 42.899) rotate(180)" fill="#1d2c2c"/>
            <path id="Trazado_633064" data-name="Trazado 633064" d="M309.774,45.648h0a.94.94,0,0,1,.324.009l1.1.223a.927.927,0,0,0,.3.012l.9-.111a.922.922,0,0,1,.295.012l.607.118V25.838h-4.6V44.721A.938.938,0,0,0,309.774,45.648Z" transform="translate(-286.706 -25.838)" fill="#ccc"/>
            <rect id="Rectángulo_308412" data-name="Rectángulo 308412" width="8.829" height="3.852" rx="0.652" transform="translate(9.834 21.967) rotate(180)" fill="#d42415"/>
            <g id="Grupo_959391" data-name="Grupo 959391" transform="translate(34.113 34.822)">
              <rect id="Rectángulo_308413" data-name="Rectángulo 308413" width="4.874" height="4.874" rx="0.983" transform="translate(10.545 4.874) rotate(180)" fill="#1d2c2c"/>
              <rect id="Rectángulo_308414" data-name="Rectángulo 308414" width="4.874" height="4.874" rx="0.983" transform="translate(4.874 4.874) rotate(180)" fill="#1d2c2c"/>
              <rect id="Rectángulo_308415" data-name="Rectángulo 308415" width="4.874" height="4.874" rx="0.983" transform="translate(10.545 10.515) rotate(180)" fill="#1d2c2c"/>
              <rect id="Rectángulo_308416" data-name="Rectángulo 308416" width="4.874" height="4.874" rx="0.983" transform="translate(4.874 10.515) rotate(-180)" fill="#1d2c2c"/>
            </g>
          </g>
        </g>
        <g id="Grupo_959394" data-name="Grupo 959394" transform="translate(90.002 194.638)">
          <path id="Trazado_633065" data-name="Trazado 633065" d="M431.986,186.951h-77.27l8.616-25.783h60.037Z" transform="translate(-353.211 -161.168)" fill="#1d2c2c"/>
          <path id="Trazado_633066" data-name="Trazado 633066" d="M400.215,162.183v22.665h8.39l-7-22.665Z" transform="translate(-333.271 -160.723)" fill="#0f1616"/>
          <path id="Trazado_633067" data-name="Trazado 633067" d="M365.485,162.183v22.665H357.1l7-22.665Z" transform="translate(-352.168 -160.723)" fill="#0f1616"/>
          <path id="Trazado_633068" data-name="Trazado 633068" d="M382.883,162.252v22.665h6.631l-3.59-22.665Z" transform="translate(-340.867 -160.693)" fill="#0f1616"/>
          <path id="Trazado_633069" data-name="Trazado 633069" d="M383.6,162.252v22.665h-6.63l3.59-22.665Z" transform="translate(-343.459 -160.693)" fill="#515555"/>
          <path id="Trazado_633070" data-name="Trazado 633070" d="M364.971,162.183h-2.295L355.1,184.847h2.869Z" transform="translate(-353.042 -160.723)" fill="#515555"/>
          <rect id="Rectángulo_308417" data-name="Rectángulo 308417" width="63.306" height="1.527" transform="translate(71.863 1.527) rotate(180)" fill="#515555"/>
          <rect id="Rectángulo_308418" data-name="Rectángulo 308418" width="80.3" height="1.854" transform="translate(80.3 25.783) rotate(180)" fill="#515555"/>
        </g>
      </g>
    </g>
    <path id="Trazado_636278" data-name="Trazado 636278" d="M0,0H597.333V5.456H0Z" transform="translate(-6672 1354.66)" fill="#583cb6"/>
  </g>
</svg>
