<svg xmlns="http://www.w3.org/2000/svg" width="328.02" height="289.334" viewBox="0 0 328.02 289.334">
  <g id="Grupo_954683" data-name="Grupo 954683" transform="translate(-53.702 -69.85)">
    <g id="Grupo_954659" data-name="Grupo 954659" transform="translate(53.702 69.85)">
      <g id="Grupo_954644" data-name="Grupo 954644" transform="translate(0 142.883)">
        <g id="Grupo_954643" data-name="Grupo 954643">
          <rect id="Rectángulo_306813" data-name="Rectángulo 306813" width="118.184" height="37.895" transform="translate(48.184) rotate(90)" fill="#f0f0f0"/>
          <rect id="Rectángulo_306814" data-name="Rectángulo 306814" width="34.79" height="33.735" transform="translate(46.104 2.964) rotate(90)" fill="#e6e6e6"/>
          <rect id="Rectángulo_306815" data-name="Rectángulo 306815" width="34.79" height="33.735" transform="translate(46.104 40.876) rotate(90)" fill="#e6e6e6"/>
          <rect id="Rectángulo_306816" data-name="Rectángulo 306816" width="34.79" height="33.735" transform="translate(46.104 78.789) rotate(90)" fill="#e6e6e6"/>
          <rect id="Rectángulo_306817" data-name="Rectángulo 306817" width="34.79" height="13.269" transform="translate(46.104 2.964) rotate(90)" fill="#e0e0e0"/>
          <rect id="Rectángulo_306818" data-name="Rectángulo 306818" width="34.79" height="13.269" transform="translate(46.104 40.876) rotate(90)" fill="#e0e0e0"/>
          <g id="Grupo_954642" data-name="Grupo 954642" transform="translate(13.122 23.857)">
            <g id="Grupo_954641" data-name="Grupo 954641">
              <rect id="Rectángulo_306819" data-name="Rectángulo 306819" width="9.191" height="13.897" transform="translate(18.73)" fill="#f0f0f0"/>
              <rect id="Rectángulo_306820" data-name="Rectángulo 306820" width="3.881" height="13.897" transform="translate(18.73 13.897) rotate(180)" fill="#e0e0e0"/>
              <g id="Grupo_954640" data-name="Grupo 954640" transform="translate(0 3.614)">
                <rect id="Rectángulo_306821" data-name="Rectángulo 306821" width="11.805" height="10.282" transform="translate(4.984)" fill="#f0f0f0"/>
                <rect id="Rectángulo_306822" data-name="Rectángulo 306822" width="4.984" height="10.282" transform="translate(4.984 10.282) rotate(180)" fill="#e0e0e0"/>
              </g>
            </g>
          </g>
          <rect id="Rectángulo_306823" data-name="Rectángulo 306823" width="34.79" height="13.269" transform="translate(46.104 78.789) rotate(90)" fill="#e0e0e0"/>
          <rect id="Rectángulo_306824" data-name="Rectángulo 306824" width="118.184" height="10.289" transform="translate(10.289) rotate(90)" fill="#f5f5f5"/>
        </g>
        <rect id="Rectángulo_306825" data-name="Rectángulo 306825" width="25.057" height="20.395" transform="translate(17.269 93.181)" fill="#f0f0f0"/>
        <rect id="Rectángulo_306826" data-name="Rectángulo 306826" width="4.9" height="20.395" transform="translate(17.269 113.577) rotate(180)" fill="#e0e0e0"/>
        <rect id="Rectángulo_306827" data-name="Rectángulo 306827" width="22.265" height="16.184" transform="translate(15.664 59.482)" fill="#fafafa"/>
        <rect id="Rectángulo_306828" data-name="Rectángulo 306828" width="3.295" height="16.184" transform="translate(15.664 75.666) rotate(180)" fill="#f0f0f0"/>
      </g>
      <g id="Grupo_954650" data-name="Grupo 954650" transform="translate(279.836 142.883)">
        <g id="Grupo_954649" data-name="Grupo 954649">
          <rect id="Rectángulo_306829" data-name="Rectángulo 306829" width="118.184" height="37.895" transform="translate(48.184) rotate(90)" fill="#f0f0f0"/>
          <rect id="Rectángulo_306830" data-name="Rectángulo 306830" width="34.79" height="33.735" transform="translate(46.104 2.964) rotate(90)" fill="#e6e6e6"/>
          <rect id="Rectángulo_306831" data-name="Rectángulo 306831" width="34.79" height="33.735" transform="translate(46.104 40.876) rotate(90)" fill="#e6e6e6"/>
          <rect id="Rectángulo_306832" data-name="Rectángulo 306832" width="34.79" height="33.735" transform="translate(46.104 78.789) rotate(90)" fill="#e6e6e6"/>
          <rect id="Rectángulo_306833" data-name="Rectángulo 306833" width="34.79" height="13.269" transform="translate(46.104 2.964) rotate(90)" fill="#e0e0e0"/>
          <rect id="Rectángulo_306834" data-name="Rectángulo 306834" width="34.79" height="13.269" transform="translate(46.104 40.876) rotate(90)" fill="#e0e0e0"/>
          <g id="Grupo_954648" data-name="Grupo 954648" transform="translate(13.823 55.466)">
            <g id="Grupo_954645" data-name="Grupo 954645" transform="translate(0 10.1)">
              <rect id="Rectángulo_306835" data-name="Rectángulo 306835" width="9.191" height="10.1" transform="translate(3.881)" fill="#f0f0f0"/>
              <rect id="Rectángulo_306836" data-name="Rectángulo 306836" width="3.881" height="10.1" transform="translate(3.881 10.1) rotate(180)" fill="#e0e0e0"/>
            </g>
            <g id="Grupo_954646" data-name="Grupo 954646" transform="translate(8.313)">
              <rect id="Rectángulo_306837" data-name="Rectángulo 306837" width="9.191" height="10.1" transform="translate(3.881)" fill="#f0f0f0"/>
              <rect id="Rectángulo_306838" data-name="Rectángulo 306838" width="3.881" height="10.1" transform="translate(3.881 10.1) rotate(180)" fill="#e0e0e0"/>
            </g>
            <g id="Grupo_954647" data-name="Grupo 954647" transform="translate(14.849 10.1)">
              <rect id="Rectángulo_306839" data-name="Rectángulo 306839" width="9.191" height="10.1" transform="translate(3.881)" fill="#f0f0f0"/>
              <rect id="Rectángulo_306840" data-name="Rectángulo 306840" width="3.881" height="10.1" transform="translate(3.881 10.1) rotate(180)" fill="#e0e0e0"/>
            </g>
          </g>
          <rect id="Rectángulo_306841" data-name="Rectángulo 306841" width="34.79" height="13.269" transform="translate(46.104 78.789) rotate(90)" fill="#e0e0e0"/>
          <rect id="Rectángulo_306842" data-name="Rectángulo 306842" width="118.184" height="10.289" transform="translate(10.289 0) rotate(90)" fill="#f5f5f5"/>
        </g>
        <rect id="Rectángulo_306843" data-name="Rectángulo 306843" width="20.726" height="27.619" transform="translate(16.422 85.959)" fill="#f0f0f0"/>
        <rect id="Rectángulo_306844" data-name="Rectángulo 306844" width="4.053" height="27.619" transform="translate(16.422 113.578) rotate(180)" fill="#e0e0e0"/>
        <rect id="Rectángulo_306845" data-name="Rectángulo 306845" width="27.392" height="21.923" transform="translate(16.422 15.831)" fill="#fafafa"/>
        <rect id="Rectángulo_306846" data-name="Rectángulo 306846" width="4.053" height="21.923" transform="translate(16.422 37.754) rotate(180)" fill="#f0f0f0"/>
      </g>
      <g id="Grupo_954654" data-name="Grupo 954654" transform="translate(58.513)">
        <g id="Grupo_954653" data-name="Grupo 954653">
          <g id="Grupo_954651" data-name="Grupo 954651" transform="translate(5.829 9.794)">
            <rect id="Rectángulo_306847" data-name="Rectángulo 306847" width="193.414" height="127.04" fill="#e6e6e6"/>
            <rect id="Rectángulo_306848" data-name="Rectángulo 306848" width="193.414" height="127.04" transform="translate(2.61)" fill="#f5f5f5"/>
            <rect id="Rectángulo_306849" data-name="Rectángulo 306849" width="116.513" height="184.043" transform="translate(191.339 5.263) rotate(90)" fill="#fff"/>
            <rect id="Rectángulo_306850" data-name="Rectángulo 306850" width="116.513" height="1.973" transform="translate(191.339 5.263) rotate(90)" fill="#e6e6e6"/>
            <rect id="Rectángulo_306851" data-name="Rectángulo 306851" width="189.538" height="7.066" transform="translate(4.549 85.276)" fill="#f5f5f5"/>
          </g>
          <g id="Grupo_954652" data-name="Grupo 954652">
            <path id="Trazado_630152" data-name="Trazado 630152" d="M330.715,71.145H124.475a.723.723,0,0,0-.722.722h0a.723.723,0,0,0,.722.722h206.24a.724.724,0,0,0,.722-.722h0A.724.724,0,0,0,330.715,71.145Z" transform="translate(-123.753 -70.063)" fill="#e6e6e6"/>
            <path id="Trazado_630153" data-name="Trazado 630153" d="M373.839,71.653a1.8,1.8,0,1,1-1.8-1.8A1.8,1.8,0,0,1,373.839,71.653Z" transform="translate(-164.352 -69.85)" fill="#e6e6e6"/>
            <path id="Trazado_630154" data-name="Trazado 630154" d="M131.7,76.048h0a.977.977,0,0,1-.974-.974V72.983a.977.977,0,0,1,.974-.974h0a.977.977,0,0,1,.974.974v2.092A.976.976,0,0,1,131.7,76.048Z" transform="translate(-124.902 -70.206)" fill="#e6e6e6"/>
            <path id="Trazado_630155" data-name="Trazado 630155" d="M358.311,76.048h0a.977.977,0,0,1-.974-.974V72.983a.977.977,0,0,1,.974-.974h0a.977.977,0,0,1,.974.974v2.092A.977.977,0,0,1,358.311,76.048Z" transform="translate(-162.228 -70.206)" fill="#e6e6e6"/>
          </g>
        </g>
        <rect id="Rectángulo_306852" data-name="Rectángulo 306852" width="196.354" height="124.825" transform="translate(10.378 1.803)" fill="#e0e0e0" opacity="0.4"/>
        <path id="Trazado_630156" data-name="Trazado 630156" d="M147.233,71.653a1.8,1.8,0,1,1-1.8-1.8A1.8,1.8,0,0,1,147.233,71.653Z" transform="translate(-127.026 -69.85)" fill="#e6e6e6"/>
      </g>
      <g id="Grupo_954655" data-name="Grupo 954655" transform="translate(70.268 186.208)">
        <rect id="Rectángulo_306853" data-name="Rectángulo 306853" width="177.342" height="7.286" transform="translate(198.34 7.286) rotate(180)" fill="#f0f0f0"/>
        <rect id="Rectángulo_306854" data-name="Rectángulo 306854" width="20.998" height="7.286" transform="translate(0)" fill="#e6e6e6"/>
        <rect id="Rectángulo_306855" data-name="Rectángulo 306855" width="192.18" height="4.225" transform="translate(3.243 7.286)" fill="#e0e0e0"/>
        <rect id="Rectángulo_306856" data-name="Rectángulo 306856" width="64.279" height="2.059" transform="translate(193.364 74.859) rotate(-90)" fill="#e0e0e0"/>
        <rect id="Rectángulo_306857" data-name="Rectángulo 306857" width="64.279" height="2.059" transform="translate(20.998 74.859) rotate(-90)" fill="#e0e0e0"/>
        <rect id="Rectángulo_306858" data-name="Rectángulo 306858" width="64.279" height="2.059" transform="translate(3.243 74.859) rotate(-90)" fill="#e0e0e0"/>
        <rect id="Rectángulo_306859" data-name="Rectángulo 306859" width="64.279" height="2.059" transform="translate(175.61 74.859) rotate(-90)" fill="#e0e0e0"/>
      </g>
      <g id="Grupo_954658" data-name="Grupo 954658" transform="translate(162.729 108.387)">
        <g id="Grupo_954656" data-name="Grupo 954656" transform="translate(41.67 11.004)">
          <path id="Trazado_630157" data-name="Trazado 630157" d="M299.611,212.784l7.127,12.7c-.218,27.449,2.224,29.031,2.247,33.753h-7.539C300.757,236.261,296.315,238.218,299.611,212.784Z" transform="translate(-298.407 -212.784)" fill="#e0e0e0"/>
        </g>
        <path id="Trazado_630158" data-name="Trazado 630158" d="M296.887,248.771c-2.532-26.471-44.2-22.231-48.158-9.8S298.344,264,296.887,248.771Z" transform="translate(-248.52 -204.485)" fill="#e0e0e0"/>
        <path id="Trazado_630159" data-name="Trazado 630159" d="M296.424,235.836c5.508-19.53-19.58-23.216-30.785-17.569C259.041,224.9,293.256,247.068,296.424,235.836Z" transform="translate(-251.201 -202.287)" fill="#e0e0e0"/>
        <path id="Trazado_630160" data-name="Trazado 630160" d="M293.025,220.855c12.917-4.195,4.552-17.741-3.157-21.221C283.529,198.748,285.6,223.267,293.025,220.855Z" transform="translate(-254.71 -199.61)" fill="#e0e0e0"/>
        <path id="Trazado_630161" data-name="Trazado 630161" d="M310.291,236.154c-14.608-11.056,3.108-21.677,14.864-21.621C333.819,216.742,318.693,242.514,310.291,236.154Z" transform="translate(-257.786 -202.068)" fill="#e0e0e0"/>
        <path id="Trazado_630162" data-name="Trazado 630162" d="M306.178,222.737c-19.466-4.917-7.823-18.792,3.44-22.133C319,199.929,317.372,225.566,306.178,222.737Z" transform="translate(-256.296 -199.771)" fill="#e0e0e0"/>
        <path id="Trazado_630163" data-name="Trazado 630163" d="M303.908,250.692c-3.625-23.883,35.565-22.734,38.736-13.267S305.994,264.429,303.908,250.692Z" transform="translate(-257.604 -204.801)" fill="#e0e0e0"/>
        <g id="Grupo_954657" data-name="Grupo 954657" transform="translate(5.664 47.866)">
          <path id="Trazado_630164" data-name="Trazado 630164" d="M295.125,287.83h0c-14.183,0-26.149-.622-29.06-14.083a61.793,61.793,0,0,0-3.03-10.468l-.222-.543h64.624l-.223.543a61.79,61.79,0,0,0-3.029,10.468C321.275,287.207,309.308,287.83,295.125,287.83Z" transform="translate(-256.539 -257.874)" fill="#fafafa"/>
          <path id="Trazado_630165" data-name="Trazado 630165" d="M330.385,263.01H257.392l-2.09-6.1h77.174Z" transform="translate(-255.301 -256.915)" fill="#f0f0f0"/>
        </g>
      </g>
    </g>
    <g id="Grupo_954668" data-name="Grupo 954668" transform="translate(272.275 102.752)">
      <path id="Trazado_630166" data-name="Trazado 630166" d="M379.171,404.925l-6.694-.105-.028-15.553,6.694.105Z" transform="translate(-324.777 -155.364)" fill="#ffb573"/>
      <path id="Trazado_630167" data-name="Trazado 630167" d="M419.508,404.981h-6.7l-1.989-15.527h6.7Z" transform="translate(-331.096 -155.395)" fill="#ffb573"/>
      <path id="Trazado_630168" data-name="Trazado 630168" d="M409.859,407.113h8.174a.555.555,0,0,1,.552.458l1.072,5.96a1.033,1.033,0,0,1-1.032,1.192c-2.628-.045-4.541-.2-7.853-.2-2.037,0-8.193.211-11.007.211-2.752,0-3.064-2.782-1.9-3.035,5.213-1.13,9.171-2.689,10.888-4.176A1.693,1.693,0,0,1,409.859,407.113Z" transform="translate(-328.858 -158.304)" fill="#263238"/>
      <path id="Trazado_630169" data-name="Trazado 630169" d="M369.407,406.959l7.315.114a.547.547,0,0,1,.539.467l.915,5.98a1.035,1.035,0,0,1-1.046,1.177c-2.635-.086-6.438-.3-9.754-.353-3.878-.061-4.306.1-8.854.027-2.75-.043-3.322-2.837-2.153-3.071,5.318-1.065,6.67-1.121,11.39-3.844A3.234,3.234,0,0,1,369.407,406.959Z" transform="translate(-322.033 -158.278)" fill="#263238"/>
      <path id="Trazado_630170" data-name="Trazado 630170" d="M367.172,168.416a149.222,149.222,0,0,1-6.138,14.162c-1.145,2.305-2.35,4.6-3.665,6.858a74.536,74.536,0,0,1-4.3,6.707l-1.265,1.695a9.175,9.175,0,0,1-2.848,2.419,8.346,8.346,0,0,1-3.736.986,10.207,10.207,0,0,1-3.172-.42,16.168,16.168,0,0,1-4.48-2.164A31.341,31.341,0,0,1,334.2,196a59.889,59.889,0,0,1-10.015-12.242l3.97-3.1c1.712,1.649,3.521,3.356,5.342,4.914a60.537,60.537,0,0,0,5.54,4.343,23.046,23.046,0,0,0,2.765,1.657,8.6,8.6,0,0,0,2.368.855.977.977,0,0,0,.546-.019c.056-.043-.058-.053-.157-.028s-.127.045-.072-.068l.879-1.387a119.322,119.322,0,0,0,6.555-12.7c2.012-4.4,3.95-8.982,5.75-13.416Z" transform="translate(-316.826 -118.394)" fill="#ffb573"/>
      <g id="Grupo_954660" data-name="Grupo 954660" transform="translate(30.114 40.809)">
        <path id="Trazado_630171" data-name="Trazado 630171" d="M374.17,162.935c2.205,6.018-9.4,23.58-9.4,23.58l-13.344-7.4a81.828,81.828,0,0,1,7.888-15.627C364.125,156.46,371.75,156.329,374.17,162.935Z" transform="translate(-351.428 -158.096)" fill="#407bff"/>
        <path id="Trazado_630172" data-name="Trazado 630172" d="M374.17,162.935c2.205,6.018-9.4,23.58-9.4,23.58l-13.344-7.4a81.828,81.828,0,0,1,7.888-15.627C364.125,156.46,371.75,156.329,374.17,162.935Z" transform="translate(-351.428 -158.096)" fill="#fff" opacity="0.5"/>
      </g>
      <path id="Trazado_630173" data-name="Trazado 630173" d="M367.793,171.756c-2.56,1.3-8.393,7.657-10.1,12.491l8.111,4.5a102.522,102.522,0,0,0,7.33-13.338C371.291,173.637,369.146,171.072,367.793,171.756Z" transform="translate(-322.346 -119.518)" fill="#407bff" opacity="0.2"/>
      <path id="Trazado_630174" data-name="Trazado 630174" d="M327.927,183.179l-4.075-3.686L320,186.083s3.912,4.593,8.253,2.357l.583-1.641A3.365,3.365,0,0,0,327.927,183.179Z" transform="translate(-316.138 -120.811)" fill="#ffb573"/>
      <path id="Trazado_630175" data-name="Trazado 630175" d="M316.507,176.173l-1.131,6.4,3.866,2.963,3.848-6.591Z" transform="translate(-315.376 -120.264)" fill="#ffb573"/>
      <path id="Trazado_630176" data-name="Trazado 630176" d="M372.452,389.273l.013,8.017,6.7.105-.013-8.017Z" transform="translate(-324.777 -155.365)" opacity="0.2"/>
      <path id="Trazado_630177" data-name="Trazado 630177" d="M417.52,389.459h-6.707l1.029,8h6.707Z" transform="translate(-331.096 -155.396)" opacity="0.2"/>
      <g id="Grupo_954661" data-name="Grupo 954661" transform="translate(41.056 39.05)">
        <path id="Trazado_630178" data-name="Trazado 630178" d="M405.973,157.921c-5.543,25.886-2.324,52.765-2.617,58.266-5.258-.038-25.064-.216-35.861-.316-7.173-37.773.915-57.951.915-57.951s2.265-.6,5.365-1.12c.972-.165,2.022-.322,3.117-.451.6-.076,1.22-.136,1.844-.19a132.912,132.912,0,0,1,15.246.138c.959.056,1.937.135,2.883.226.88.092,1.742.194,2.555.3C403.111,157.313,405.973,157.921,405.973,157.921Z" transform="translate(-364.528 -155.99)" fill="#407bff"/>
        <path id="Trazado_630179" data-name="Trazado 630179" d="M405.973,157.921c-5.543,25.886-2.324,52.765-2.617,58.266-5.258-.038-25.064-.216-35.861-.316-7.173-37.773.915-57.951.915-57.951s2.265-.6,5.365-1.12c.972-.165,2.022-.322,3.117-.451.6-.076,1.22-.136,1.844-.19a132.912,132.912,0,0,1,15.246.138c.959.056,1.937.135,2.883.226.88.092,1.742.194,2.555.3C403.111,157.313,405.973,157.921,405.973,157.921Z" transform="translate(-364.528 -155.99)" fill="#fff" opacity="0.5"/>
      </g>
      <path id="Trazado_630180" data-name="Trazado 630180" d="M405.867,171.951c-.48,2.5.987,13.672,3.735,16.271.115-3.616.337-7.4.7-11.271Z" transform="translate(-330.266 -119.569)" opacity="0.2"/>
      <path id="Trazado_630181" data-name="Trazado 630181" d="M395.184,135.79c-1.006,4.9-2.046,13.875,1.357,17.178-2.69,2.626-6.2,5.657-12.027,5.809s-4.773-3.844-3.216-5.945c5.481-1.257,5.376-5.317,4.457-9.136Z" transform="translate(-326.033 -113.613)" fill="#ffb573"/>
      <path id="Trazado_630182" data-name="Trazado 630182" d="M396.379,154.111s-1.769,4.641-11.265,7.687a7.425,7.425,0,0,1,3.527,3.45s11.106-2.827,10.262-9.855A10.8,10.8,0,0,0,396.379,154.111Z" transform="translate(-326.863 -116.631)" fill="#fff"/>
      <path id="Trazado_630183" data-name="Trazado 630183" d="M380.327,165.106a7.324,7.324,0,0,1,3.632-3.055c-1.075-.981-2.8-4.03-2.041-6.4a7.85,7.85,0,0,0-2.23.285S375.72,159.734,380.327,165.106Z" transform="translate(-325.707 -116.883)" fill="#fff"/>
      <path id="Trazado_630184" data-name="Trazado 630184" d="M384.532,169.532c-.072.662-.419,1.169-.776,1.129s-.588-.607-.515-1.27.42-1.168.777-1.129S384.6,168.87,384.532,169.532Z" transform="translate(-326.552 -118.961)" fill="#fff"/>
      <path id="Trazado_630185" data-name="Trazado 630185" d="M383.759,177.763c-.013.667-.315,1.2-.673,1.194s-.639-.553-.626-1.22.315-1.2.674-1.194S383.773,177.1,383.759,177.763Z" transform="translate(-326.425 -120.325)" fill="#fff"/>
      <path id="Trazado_630186" data-name="Trazado 630186" d="M392.461,139.653l-5.581,4.676a15.733,15.733,0,0,1,.446,2.71c2.092-.283,4.983-2.551,5.224-4.737A7.318,7.318,0,0,0,392.461,139.653Z" transform="translate(-327.154 -114.249)" opacity="0.2"/>
      <path id="Trazado_630187" data-name="Trazado 630187" d="M384.5,121.981a10.1,10.1,0,0,0-2.691,8.742c-1.543,1.331-4.336,1.1-4.336,1.1l-.885-.888a4.15,4.15,0,0,1-1.2-3.268c.16-1.955.6-4.918,1.84-6.8C379.2,117.868,384.5,121.981,384.5,121.981Z" transform="translate(-325.258 -110.975)" fill="#263238"/>
      <path id="Trazado_630188" data-name="Trazado 630188" d="M395.172,125.021c-.467,6.638-.4,10.546-3.788,13.925-5.091,5.083-13.262,1.968-14.787-4.675-1.373-5.98-.379-15.83,6.145-18.416A9.076,9.076,0,0,1,395.172,125.021Z" transform="translate(-325.371 -110.219)" fill="#ffb573"/>
      <path id="Trazado_630189" data-name="Trazado 630189" d="M392.3,122.071a10.58,10.58,0,0,1,.31,7.858,2.048,2.048,0,0,0,1.272,2.678,5.863,5.863,0,0,0,1.782.244l3.2-.61s1.346-4.764.464-8.244S392.3,122.071,392.3,122.071Z" transform="translate(-328.047 -111.296)" fill="#263238"/>
      <path id="Trazado_630190" data-name="Trazado 630190" d="M389.378,121.47a52.025,52.025,0,0,1-14.687-.765s1.57-4.966,5.094-6.671,10.973-1.566,13.27-.592,5.3,3.922,4.169,11.138C394.857,127.19,389.378,121.47,389.378,121.47Z" transform="translate(-325.146 -109.814)" fill="#263238"/>
      <g id="Grupo_954662" data-name="Grupo 954662" transform="translate(46.21)">
        <path id="Trazado_630191" data-name="Trazado 630191" d="M397.574,124.593s-18.708-2.716-26.458-4.076a.509.509,0,0,1,.026-1,35.052,35.052,0,0,1,9.719.438Z" transform="translate(-370.699 -110.9)" fill="#407bff"/>
        <path id="Trazado_630192" data-name="Trazado 630192" d="M374.849,117.952c.338-1.661,3.228-10.3,15.357-7.683,11.231,2.429,8.052,12.751,8.052,12.751Z" transform="translate(-371.382 -109.328)" fill="#407bff"/>
        <path id="Trazado_630193" data-name="Trazado 630193" d="M383.949,110.443l4.062-1.2,4.891.4v.846l-3.107.721Z" transform="translate(-372.881 -109.24)" fill="#407bff"/>
        <path id="Trazado_630194" data-name="Trazado 630194" d="M384.615,118.852h0a.314.314,0,0,1-.312-.313c0-.068.092-6.784,8.04-8.565a.313.313,0,1,1,.137.611c-7.447,1.669-7.55,7.7-7.551,7.954A.314.314,0,0,1,384.615,118.852Z" transform="translate(-372.939 -109.359)" opacity="0.2"/>
      </g>
      <path id="Trazado_630195" data-name="Trazado 630195" d="M401.039,134.189a6.326,6.326,0,0,1-3.854,2.913c-2.15.543-3.169-1.394-2.525-3.395.58-1.8,2.4-4.252,4.533-3.907A2.841,2.841,0,0,1,401.039,134.189Z" transform="translate(-328.404 -112.621)" fill="#ffb573"/>
      <path id="Trazado_630196" data-name="Trazado 630196" d="M369.169,369.085l11.352.173s3.077-44.914,2.735-65.8a219.261,219.261,0,0,1,1.641-24.9c1.331-12.1,2.035-16.941,3.778-32.24,1.244-10.909,2.492-18.42,2.492-18.42l-23.574-.208s-3.02,54.708-2.4,75.162C365.834,324.113,369.169,369.085,369.169,369.085Z" transform="translate(-323.567 -128.749)" fill="#263238"/>
      <path id="Trazado_630197" data-name="Trazado 630197" d="M387.131,245.686c-3.53,10.779-2,35.389.393,42.189.2-2.073.42-4.2.656-6.355,1.334-12.107,2.039-16.941,3.783-32.24.03-.3.069-.6.1-.894A16.285,16.285,0,0,0,387.131,245.686Z" transform="translate(-326.852 -131.714)" opacity="0.2"/>
      <path id="Trazado_630198" data-name="Trazado 630198" d="M383.308,227.818s8,56.308,10.855,75.745c3.121,21.285,10.044,65.724,10.044,65.724h12.28s-2.309-41.884-4.95-62.692c-3.009-23.7-5.091-78.571-5.091-78.571Z" transform="translate(-326.565 -128.771)" fill="#263238"/>
      <path id="Trazado_630199" data-name="Trazado 630199" d="M406.233,396.6h14.46v-4.32l-16.164-.281Z" transform="translate(-330.061 -155.813)" fill="#407bff"/>
      <path id="Trazado_630200" data-name="Trazado 630200" d="M367.74,396.347l13.5.212.62-4.37-15.059-.467Z" transform="translate(-323.846 -155.768)" fill="#407bff"/>
      <path id="Trazado_630201" data-name="Trazado 630201" d="M386.608,128.881c-.005.54-.3.976-.649.973s-.636-.444-.631-.985.3-.976.649-.973S386.613,128.34,386.608,128.881Z" transform="translate(-326.898 -112.313)" fill="#263238"/>
      <path id="Trazado_630202" data-name="Trazado 630202" d="M379.291,128.815c0,.541-.295.977-.648.974s-.636-.444-.632-.985.295-.976.649-.974S379.3,128.274,379.291,128.815Z" transform="translate(-325.693 -112.302)" fill="#263238"/>
      <path id="Trazado_630203" data-name="Trazado 630203" d="M381.128,129.686a19.384,19.384,0,0,1-2.624,4.6,3.117,3.117,0,0,0,2.579.508Z" transform="translate(-325.774 -112.607)" fill="#ed893e"/>
      <path id="Trazado_630204" data-name="Trazado 630204" d="M384.356,137.335a4.457,4.457,0,0,0,3.071-1.745.159.159,0,0,0-.265-.176,4.293,4.293,0,0,1-3.507,1.644.159.159,0,1,0,0,.317A5.135,5.135,0,0,0,384.356,137.335Z" transform="translate(-326.596 -113.539)" fill="#263238"/>
      <path id="Trazado_630205" data-name="Trazado 630205" d="M388.614,126.368a.3.3,0,0,0,.15-.06.317.317,0,0,0,.066-.444,3.148,3.148,0,0,0-2.573-1.334.318.318,0,0,0,.037.634h0a2.514,2.514,0,0,1,2.026,1.078A.317.317,0,0,0,388.614,126.368Z" transform="translate(-327.002 -111.758)" fill="#263238"/>
      <path id="Trazado_630206" data-name="Trazado 630206" d="M376.343,126.025a.315.315,0,0,0,.245-.174,2.516,2.516,0,0,1,1.8-1.419.318.318,0,0,0-.075-.631,3.151,3.151,0,0,0-2.3,1.767.317.317,0,0,0,.144.425A.312.312,0,0,0,376.343,126.025Z" transform="translate(-325.359 -111.638)" fill="#263238"/>
      <g id="Grupo_954663" data-name="Grupo 954663" transform="translate(42.651 246.544)">
        <path id="Trazado_630207" data-name="Trazado 630207" d="M409.325,408.18a8.06,8.06,0,0,0,1.765-.241.17.17,0,0,0,.125-.129.154.154,0,0,0-.066-.16c-.238-.153-2.345-1.481-3.1-1.1a.532.532,0,0,0-.292.449.923.923,0,0,0,.293.839A1.971,1.971,0,0,0,409.325,408.18Zm1.314-.464a3.209,3.209,0,0,1-2.376-.121.623.623,0,0,1-.191-.576.2.2,0,0,1,.108-.186C408.574,406.635,409.781,407.208,410.639,407.717Z" transform="translate(-373.242 -404.743)" fill="#407bff"/>
        <path id="Trazado_630208" data-name="Trazado 630208" d="M411.334,407.633a.165.165,0,0,0,.165-.171c0-.082-.081-2.016-.834-2.653a.842.842,0,0,0-.667-.2h0a.547.547,0,0,0-.522.417c-.174.748,1.106,2.216,1.783,2.593A.15.15,0,0,0,411.334,407.633Zm-1.239-2.717a.538.538,0,0,1,.359.139,3.673,3.673,0,0,1,.7,2.1c-.667-.524-1.475-1.633-1.373-2.075.01-.04.032-.135.239-.16h0A.522.522,0,0,1,410.1,404.916Z" transform="translate(-373.524 -404.433)" fill="#407bff"/>
        <path id="Trazado_630209" data-name="Trazado 630209" d="M370.437,407.758a.171.171,0,0,0,.114-.126.151.151,0,0,0-.073-.165c-.294-.162-2.893-1.57-3.738-1.129a.54.54,0,0,0-.291.418h0a.852.852,0,0,0,.245.777c.689.662,2.628.428,3.721.231Zm-3.5-1.165c.517-.167,1.939.413,2.966.937-1.5.222-2.594.141-2.981-.231a.553.553,0,0,1-.156-.513.2.2,0,0,1,.112-.168A.379.379,0,0,1,366.936,406.593Z" transform="translate(-366.438 -404.706)" fill="#407bff"/>
        <path id="Trazado_630210" data-name="Trazado 630210" d="M370.784,407.453a.147.147,0,0,0,.042-.02.167.167,0,0,0,.075-.143,4.325,4.325,0,0,0-.863-2.6,1.109,1.109,0,0,0-.861-.286h0c-.439.038-.58.257-.621.434-.175.757,1.327,2.231,2.111,2.607A.157.157,0,0,0,370.784,407.453Zm-1.761-2.7a.756.756,0,0,1,.165-.03h0a.8.8,0,0,1,.632.212,3.539,3.539,0,0,1,.743,2.081c-.791-.509-1.8-1.666-1.7-2.119C368.872,404.867,368.889,404.8,369.023,404.752Zm.16-.189,0,0Z" transform="translate(-366.784 -404.4)" fill="#407bff"/>
      </g>
      <g id="Grupo_954667" data-name="Grupo 954667" transform="translate(39.653 37.607)">
        <path id="Trazado_630211" data-name="Trazado 630211" d="M400.527,154.289a2.633,2.633,0,0,0-2.3.81c-2.305,2.475-7.8,10.161-8.943,28.04a127.71,127.71,0,0,0,3.689,40.164l14.28-4.054a2.005,2.005,0,0,0,1.448-2.161c-.389-3.372-1.217-11.382-1.447-20.376-.162-6.337.315-12.036.291-14.625-1.567-3.078-4.394-8.1-3.377-13.566,1.137-6.107,4.5-6.945,6.784-8.064a1.8,1.8,0,0,0-.048-3.224A36.987,36.987,0,0,0,400.527,154.289Z" transform="translate(-367.16 -154.263)" fill="#407bff"/>
        <path id="Trazado_630212" data-name="Trazado 630212" d="M376.11,223.494l-9.793-3.071a2.008,2.008,0,0,1-1.391-1.656c-.849-6.462-4.323-36.139.187-58.173a4.365,4.365,0,0,1,2.842-3.266,39.572,39.572,0,0,1,8.69-1.9.534.534,0,0,1,.566.675C375.35,162.894,372.266,200.209,376.11,223.494Z" transform="translate(-362.848 -154.454)" fill="#407bff"/>
        <g id="Grupo_954664" data-name="Grupo 954664" transform="translate(0.002 30.636)">
          <path id="Trazado_630213" data-name="Trazado 630213" d="M363.35,209.72c.175,3.124.4,6.006.626,8.537,3.55.4,7.183.677,10.792.852-.167-2.765-.284-5.6-.342-8.445C370.684,210.463,366.958,210.163,363.35,209.72Z" transform="translate(-362.933 -194.033)" fill="#fff"/>
          <path id="Trazado_630214" data-name="Trazado 630214" d="M374.435,191.892c-3.968-.167-7.868-.476-11.577-.952-.025,2.89.008,5.73.092,8.461,3.684.451,7.492.743,11.335.9C374.293,197.455,374.352,194.632,374.435,191.892Z" transform="translate(-362.85 -190.94)" fill="#fff"/>
        </g>
        <path id="Trazado_630215" data-name="Trazado 630215" d="M407.489,210.18c-5.221.51-11.427.819-17.959.827.234,3.066.551,5.889.91,8.4,6.39-.042,12.429-.376,17.608-.885C407.831,215.985,407.631,213.145,407.489,210.18Z" transform="translate(-367.243 -163.473)" fill="#fff"/>
        <path id="Trazado_630216" data-name="Trazado 630216" d="M407.473,191c-5.555.576-11.87.969-18.335,1.052-.117,2.915-.134,5.73-.075,8.411,6.39-.084,12.6-.459,18.167-1.019C407.239,196.187,407.381,193.239,407.473,191Z" transform="translate(-367.161 -160.314)" fill="#fff"/>
        <g id="Grupo_954665" data-name="Grupo 954665" transform="translate(24.698 46.707)">
          <path id="Trazado_630217" data-name="Trazado 630217" d="M434.248,237.592l-37.945,6.33a1.745,1.745,0,0,1-2.068-1.612l-1.813-23.521a2.162,2.162,0,0,1,1.771-2.253l37.945-6.33a1.746,1.746,0,0,1,2.069,1.613l1.813,23.52A2.16,2.16,0,0,1,434.248,237.592Z" transform="translate(-392.416 -210.18)" fill="#407bff"/>
          <path id="Trazado_630218" data-name="Trazado 630218" d="M434.421,237.592l-37.068,6.184a1.746,1.746,0,0,1-2.069-1.613l-1.813-23.52a2.16,2.16,0,0,1,1.771-2.253l37.068-6.184a1.746,1.746,0,0,1,2.069,1.613l1.813,23.52A2.16,2.16,0,0,1,434.421,237.592Z" transform="translate(-392.589 -210.18)" opacity="0.4"/>
        </g>
        <path id="Trazado_630219" data-name="Trazado 630219" d="M414.122,163.4c2.11,4.811,3.984,9.6,5.679,14.543.864,2.457,1.647,4.948,2.415,7.457.373,1.261.732,2.523,1.072,3.8l.257.957.271,1.1c.2.752.3,1.5.433,2.246a41.958,41.958,0,0,1-1.48,16.83,64.991,64.991,0,0,1-2.635,7.635q-.784,1.847-1.656,3.647c-.583,1.215-1.179,2.357-1.9,3.586l-4.546-2.162c.725-2.262,1.461-4.7,2.007-7.087.591-2.391,1.066-4.8,1.421-7.182a50.108,50.108,0,0,0,.573-7.071,28.667,28.667,0,0,0-.632-6.619c-.134-.5-.234-1.026-.4-1.5l-.241-.75-.315-.876c-.41-1.169-.865-2.335-1.295-3.507-.867-2.346-1.813-4.679-2.727-7.026l-5.644-14.033Z" transform="translate(-369.754 -155.767)" fill="#ffb573"/>
        <g id="Grupo_954666" data-name="Grupo 954666" transform="translate(32.46 2.608)">
          <path id="Trazado_630220" data-name="Trazado 630220" d="M412.1,158.153c6.018,2.208,9.923,19.535,9.923,19.535l-13.329,9.186s-4.091-10.231-6.343-18.2C399.894,159.984,404.806,155.478,412.1,158.153Z" transform="translate(-401.709 -157.385)" fill="#407bff"/>
          <path id="Trazado_630221" data-name="Trazado 630221" d="M412.1,158.153c6.018,2.208,9.923,19.535,9.923,19.535l-13.329,9.186s-4.091-10.231-6.343-18.2C399.894,159.984,404.806,155.478,412.1,158.153Z" transform="translate(-401.709 -157.385)" fill="#fff" opacity="0.5"/>
        </g>
        <path id="Trazado_630222" data-name="Trazado 630222" d="M412.6,235.606l-1.162,5.138,8.03-.231s.642-6.205-2.535-7.186l-2.479.482A2.364,2.364,0,0,0,412.6,235.606Z" transform="translate(-370.852 -167.286)" fill="#ffb573"/>
        <path id="Trazado_630223" data-name="Trazado 630223" d="M413.958,248.575l4.821-.982a1.2,1.2,0,0,0,.96-1.25l-.268-4.413-8.03.231,1.1,5.473A1.2,1.2,0,0,0,413.958,248.575Z" transform="translate(-370.852 -168.703)" fill="#ffb573"/>
      </g>
    </g>
    <g id="Grupo_954678" data-name="Grupo 954678" transform="translate(137.65 93.697)">
      <g id="Grupo_954669" data-name="Grupo 954669" transform="translate(0 13.89)">
        <path id="Trazado_630224" data-name="Trazado 630224" d="M301.442,115.028H157.251a3.047,3.047,0,0,0-3.045,3.136l5.817,198.583a3.046,3.046,0,0,0,3.045,2.957H307.259a3.046,3.046,0,0,0,3.045-3.135l-5.817-198.584A3.046,3.046,0,0,0,301.442,115.028Z" transform="translate(-154.204 -115.028)" fill="#407bff"/>
        <path id="Trazado_630225" data-name="Trazado 630225" d="M301.442,115.028H157.251a3.047,3.047,0,0,0-3.045,3.136l5.817,198.583a3.046,3.046,0,0,0,3.045,2.957H307.259a3.046,3.046,0,0,0,3.045-3.135l-5.817-198.584A3.046,3.046,0,0,0,301.442,115.028Z" transform="translate(-154.204 -115.028)" opacity="0.2"/>
      </g>
      <rect id="Rectángulo_306860" data-name="Rectángulo 306860" width="13.529" height="0.835" transform="translate(21.176 10.967)" fill="#407bff"/>
      <rect id="Rectángulo_306861" data-name="Rectángulo 306861" width="3.433" height="0.835" transform="translate(12.916 10.967)" fill="#407bff"/>
      <path id="Trazado_630226" data-name="Trazado 630226" d="M303.108,115.028H158.916a3.047,3.047,0,0,0-3.045,3.136l5.817,198.583a3.046,3.046,0,0,0,3.045,2.957H308.924a3.046,3.046,0,0,0,3.045-3.135l-5.817-198.584A3.046,3.046,0,0,0,303.108,115.028Z" transform="translate(-154.479 -101.138)" fill="#407bff"/>
      <g id="Grupo_954676" data-name="Grupo 954676" transform="translate(7.569 20.774)">
        <path id="Trazado_630227" data-name="Trazado 630227" d="M163.268,127.323l5.418,184.961a3.081,3.081,0,0,0,3.061,2.974H302.318a2.871,2.871,0,0,0,2.887-2.974l-5.418-184.961a3.082,3.082,0,0,0-3.061-2.974H166.154A2.871,2.871,0,0,0,163.268,127.323Z" transform="translate(-163.266 -123.447)" opacity="0.2"/>
        <path id="Trazado_630228" data-name="Trazado 630228" d="M164.348,126.243,169.765,311.2a3.083,3.083,0,0,0,3.061,2.974H303.4a2.871,2.871,0,0,0,2.887-2.974l-5.417-184.962a3.082,3.082,0,0,0-3.061-2.974H167.235A2.872,2.872,0,0,0,164.348,126.243Z" transform="translate(-163.444 -123.269)" fill="#fff"/>
        <g id="Grupo_954671" data-name="Grupo 954671" transform="translate(15.22 37.45)">
          <path id="Trazado_630229" data-name="Trazado 630229" d="M207.316,193.2H182.223l-.735-25.093h25.094Z" transform="translate(-181.488 -168.105)" fill="#f5f5f5"/>
          <g id="Grupo_954670" data-name="Grupo 954670" transform="translate(36.435 5.283)">
            <path id="Trazado_630230" data-name="Trazado 630230" d="M296.194,179.112H225.245l-.137-4.683h70.949Z" transform="translate(-225.107 -174.429)" fill="#e0e0e0"/>
            <path id="Trazado_630231" data-name="Trazado 630231" d="M281.108,190.9H225.59l-.137-4.683h55.518Z" transform="translate(-225.164 -176.37)" fill="#e0e0e0"/>
          </g>
        </g>
        <g id="Grupo_954673" data-name="Grupo 954673" transform="translate(16.538 82.468)">
          <path id="Trazado_630232" data-name="Trazado 630232" d="M208.895,247.092H183.8L183.066,222H208.16Z" transform="translate(-183.066 -221.999)" fill="#f5f5f5"/>
          <g id="Grupo_954672" data-name="Grupo 954672" transform="translate(36.435 5.282)">
            <path id="Trazado_630233" data-name="Trazado 630233" d="M252.888,233.006H226.823l-.137-4.683h26.065Z" transform="translate(-226.686 -228.323)" fill="#e0e0e0"/>
            <path id="Trazado_630234" data-name="Trazado 630234" d="M283.8,233.006H264.632l-.137-4.683h19.172Z" transform="translate(-232.913 -228.323)" fill="#e0e0e0"/>
            <path id="Trazado_630235" data-name="Trazado 630235" d="M289.254,244.793H227.168l-.137-4.683h62.086Z" transform="translate(-226.743 -230.264)" fill="#e0e0e0"/>
          </g>
        </g>
        <g id="Grupo_954675" data-name="Grupo 954675" transform="translate(17.857 127.485)">
          <path id="Trazado_630236" data-name="Trazado 630236" d="M210.473,300.986H185.38l-.735-25.093h25.093Z" transform="translate(-184.645 -275.893)" fill="#f5f5f5"/>
          <g id="Grupo_954674" data-name="Grupo 954674" transform="translate(36.435 5.282)">
            <path id="Trazado_630237" data-name="Trazado 630237" d="M299.559,294H228.61l.137,4.683H299.7Z" transform="translate(-228.321 -284.159)" fill="#e0e0e0"/>
            <path id="Trazado_630238" data-name="Trazado 630238" d="M283.783,282.217H228.264l.137,4.683H283.92Z" transform="translate(-228.264 -282.217)" fill="#e0e0e0"/>
          </g>
        </g>
        <path id="Trazado_630239" data-name="Trazado 630239" d="M197.129,187.265a1.1,1.1,0,0,1-1.836-.088h0a23.722,23.722,0,0,0-6.534-6.321,1.1,1.1,0,0,1-.352-1.46v0a1.078,1.078,0,0,1,1.549-.333,30.07,30.07,0,0,1,5.4,4.641,1.087,1.087,0,0,0,1.661,0,71.5,71.5,0,0,1,12.7-11.833,1.108,1.108,0,0,1,1.543.236h0a1.086,1.086,0,0,1-.195,1.524c-6.412,4.858-10.976,9.324-13.936,13.635Z" transform="translate(-167.384 -131.239)" fill="#407bff"/>
        <path id="Trazado_630240" data-name="Trazado 630240" d="M198.708,241.159a1.1,1.1,0,0,1-1.837-.088h0a23.722,23.722,0,0,0-6.534-6.321,1.1,1.1,0,0,1-.353-1.459l0,0a1.078,1.078,0,0,1,1.549-.333,30.072,30.072,0,0,1,5.4,4.641,1.086,1.086,0,0,0,1.661,0,71.477,71.477,0,0,1,12.7-11.834,1.109,1.109,0,0,1,1.543.236h0a1.084,1.084,0,0,1-.2,1.524c-6.412,4.858-10.976,9.325-13.935,13.635Z" transform="translate(-167.644 -140.116)" fill="#407bff"/>
        <path id="Trazado_630241" data-name="Trazado 630241" d="M200.29,295.17a1.1,1.1,0,0,1-1.837-.089h0a23.719,23.719,0,0,0-6.534-6.32,1.1,1.1,0,0,1-.353-1.46l0,0a1.079,1.079,0,0,1,1.549-.333,30.116,30.116,0,0,1,5.4,4.642,1.086,1.086,0,0,0,1.661,0,71.474,71.474,0,0,1,12.7-11.834,1.108,1.108,0,0,1,1.543.236h0a1.084,1.084,0,0,1-.2,1.524c-6.411,4.858-10.976,9.325-13.935,13.636Z" transform="translate(-167.904 -149.012)" fill="#407bff"/>
        <path id="Trazado_630242" data-name="Trazado 630242" d="M257.384,337.013a12.145,12.145,0,0,1-7.716-2.675,10.243,10.243,0,0,0-6.622-2.332,9.7,9.7,0,0,0-6.486,2.332A11.5,11.5,0,0,1,229,337.013a12.139,12.139,0,0,1-7.714-2.675,10.241,10.241,0,0,0-6.621-2.332,9.694,9.694,0,0,0-6.485,2.332,11.492,11.492,0,0,1-7.557,2.675,12.14,12.14,0,0,1-7.715-2.675,10.241,10.241,0,0,0-6.621-2.332l-.055-1.878a12.14,12.14,0,0,1,7.715,2.675,10.241,10.241,0,0,0,6.621,2.332,9.693,9.693,0,0,0,6.484-2.332,11.493,11.493,0,0,1,7.558-2.675,12.139,12.139,0,0,1,7.714,2.675,10.243,10.243,0,0,0,6.622,2.332,9.7,9.7,0,0,0,6.486-2.332,11.5,11.5,0,0,1,7.559-2.675,12.14,12.14,0,0,1,7.715,2.675,10.246,10.246,0,0,0,6.623,2.332Z" transform="translate(-167.049 -157.342)" fill="#ebebeb"/>
      </g>
      <path id="Trazado_630243" data-name="Trazado 630243" d="M272.579,118.013h-.151l-.014-.044c-1.925-6.123-6.551-10.182-11.6-10.182H250.524a3.854,3.854,0,0,1-3.532-2.7c-1.382-3.9-4.761-6.686-8.644-6.686s-7.117,2.781-8.3,6.686a3.614,3.614,0,0,1-3.394,2.7H216.37c-5.053,0-9.47,4.059-11.079,10.182l-.012.044h-.151a2.208,2.208,0,0,0-2.051,2.4,2.349,2.349,0,0,0,2.173,2.4H272.7a2.208,2.208,0,0,0,2.051-2.4A2.35,2.35,0,0,0,272.579,118.013Z" transform="translate(-162.254 -98.399)" fill="#263238"/>
      <g id="Grupo_954677" data-name="Grupo 954677" transform="translate(28.466 35.306)">
        <path id="Trazado_630244" data-name="Trazado 630244" d="M193.662,145.664c.226.154.373.251.443.29q.155.085.417.2l-.464.993a5.814,5.814,0,0,1-.748-.428c-.247-.165-.421-.29-.52-.373a3.659,3.659,0,0,1-1.464.255,3.038,3.038,0,0,1-2.082-.682,2.982,2.982,0,0,1-.959-2.265,2.911,2.911,0,0,1,.716-2.2,2.863,2.863,0,0,1,2.158-.784,3.085,3.085,0,0,1,2.228.767,3.561,3.561,0,0,1,.275,4.23Zm-1.384-.908a2.374,2.374,0,0,0,.178-1.134,1.935,1.935,0,0,0-.359-1.24,1.151,1.151,0,0,0-.9-.372,1.048,1.048,0,0,0-.846.379,1.75,1.75,0,0,0-.294,1.185,2.117,2.117,0,0,0,.36,1.319,1.125,1.125,0,0,0,.891.38,1.57,1.57,0,0,0,.339-.036,2.284,2.284,0,0,0-.716-.407l.259-.637a1.524,1.524,0,0,1,.369.105,4.9,4.9,0,0,1,.52.328C192.14,144.669,192.206,144.711,192.278,144.756Z" transform="translate(-188.283 -140.667)" fill="#263238"/>
        <path id="Trazado_630245" data-name="Trazado 630245" d="M200.178,140.784h1.768l.1,3.418a2.832,2.832,0,0,1-.13.959,2,2,0,0,1-.474.791,1.9,1.9,0,0,1-.7.474,3.523,3.523,0,0,1-1.235.192,7.821,7.821,0,0,1-.915-.059,2.461,2.461,0,0,1-.834-.232,2.161,2.161,0,0,1-.623-.494,1.9,1.9,0,0,1-.4-.661,3.488,3.488,0,0,1-.193-.97l-.1-3.418h1.769l.1,3.5a1.025,1.025,0,0,0,.282.733.992.992,0,0,0,.729.264.944.944,0,0,0,.711-.26.968.968,0,0,0,.238-.737Z" transform="translate(-189.628 -140.686)" fill="#263238"/>
        <path id="Trazado_630246" data-name="Trazado 630246" d="M207.695,145.574h-2.013l-.251.946h-1.81l1.988-5.736h1.934l2.324,5.736h-1.857Zm-.4-1.24-.693-2.062-.566,2.062Z" transform="translate(-190.81 -140.686)" fill="#263238"/>
        <path id="Trazado_630247" data-name="Trazado 630247" d="M211.57,140.784h1.772l.127,4.323h2.766l.041,1.412h-4.539Z" transform="translate(-192.119 -140.686)" fill="#263238"/>
        <path id="Trazado_630248" data-name="Trazado 630248" d="M218.054,140.784h1.776L220,146.52h-1.776Z" transform="translate(-193.187 -140.686)" fill="#263238"/>
        <path id="Trazado_630249" data-name="Trazado 630249" d="M221.22,140.784h5.388l.042,1.417h-1.808l.127,4.319H223.2l-.127-4.319h-1.808Z" transform="translate(-193.709 -140.686)" fill="#263238"/>
        <path id="Trazado_630250" data-name="Trazado 630250" d="M227.938,140.784h1.969l1.213,1.935,1.1-1.935h1.959l-2.133,3.334.071,2.4H230.34l-.07-2.4Z" transform="translate(-194.815 -140.686)" fill="#263238"/>
        <path id="Trazado_630251" data-name="Trazado 630251" d="M242.88,145.574h-2.012l-.251.946h-1.81l1.988-5.736h1.934l2.323,5.736h-1.856Zm-.4-1.24-.694-2.062-.565,2.062Z" transform="translate(-196.605 -140.686)" fill="#263238"/>
        <path id="Trazado_630252" data-name="Trazado 630252" d="M246.52,144.6l1.684-.105a1.317,1.317,0,0,0,.241.626.967.967,0,0,0,.793.347.846.846,0,0,0,.58-.178.515.515,0,0,0,.193-.413.545.545,0,0,0-.207-.4,2.337,2.337,0,0,0-.917-.332,3.978,3.978,0,0,1-1.684-.7,1.444,1.444,0,0,1-.533-1.108,1.476,1.476,0,0,1,.231-.835,1.634,1.634,0,0,1,.753-.618,3.555,3.555,0,0,1,1.4-.225,2.945,2.945,0,0,1,1.688.408,1.83,1.83,0,0,1,.725,1.3l-1.668.1a.809.809,0,0,0-.89-.739.693.693,0,0,0-.462.131.389.389,0,0,0-.147.318.332.332,0,0,0,.136.247,1.509,1.509,0,0,0,.6.21,7.672,7.672,0,0,1,1.68.507,1.831,1.831,0,0,1,.75.636,1.647,1.647,0,0,1,.254.85,1.777,1.777,0,0,1-.276,1.017,1.832,1.832,0,0,1-.832.706,3.383,3.383,0,0,1-1.375.241,2.91,2.91,0,0,1-2.043-.564A2.3,2.3,0,0,1,246.52,144.6Z" transform="translate(-197.876 -140.667)" fill="#263238"/>
        <path id="Trazado_630253" data-name="Trazado 630253" d="M253.449,144.6l1.683-.105a1.326,1.326,0,0,0,.241.626.968.968,0,0,0,.793.347.845.845,0,0,0,.58-.178.518.518,0,0,0,.194-.413.545.545,0,0,0-.207-.4,2.349,2.349,0,0,0-.918-.332,3.974,3.974,0,0,1-1.683-.7,1.445,1.445,0,0,1-.534-1.108,1.47,1.47,0,0,1,.232-.835,1.631,1.631,0,0,1,.753-.618,3.557,3.557,0,0,1,1.4-.225,2.95,2.95,0,0,1,1.689.408,1.829,1.829,0,0,1,.724,1.3l-1.667.1a.933.933,0,0,0-.3-.563.918.918,0,0,0-.594-.176.693.693,0,0,0-.462.131.39.39,0,0,0-.148.318.334.334,0,0,0,.137.247,1.5,1.5,0,0,0,.6.21,7.642,7.642,0,0,1,1.68.507,1.828,1.828,0,0,1,.751.636,1.654,1.654,0,0,1,.253.85,1.783,1.783,0,0,1-.275,1.017,1.834,1.834,0,0,1-.833.706,3.379,3.379,0,0,1-1.374.241,2.909,2.909,0,0,1-2.043-.564A2.3,2.3,0,0,1,253.449,144.6Z" transform="translate(-199.017 -140.667)" fill="#263238"/>
        <path id="Trazado_630254" data-name="Trazado 630254" d="M264.347,140.784h1.768l.1,3.418a2.832,2.832,0,0,1-.13.959,2,2,0,0,1-.474.791,1.9,1.9,0,0,1-.7.474,3.523,3.523,0,0,1-1.235.192,7.821,7.821,0,0,1-.915-.059,2.472,2.472,0,0,1-.834-.232,2.172,2.172,0,0,1-.623-.494,1.9,1.9,0,0,1-.4-.661,3.488,3.488,0,0,1-.193-.97l-.1-3.418h1.768l.1,3.5a1.025,1.025,0,0,0,.281.733.993.993,0,0,0,.729.264.944.944,0,0,0,.711-.26.965.965,0,0,0,.238-.737Z" transform="translate(-200.198 -140.686)" fill="#263238"/>
        <path id="Trazado_630255" data-name="Trazado 630255" d="M268.8,146.52l-.168-5.736h2.954a4.351,4.351,0,0,1,1.26.14,1.393,1.393,0,0,1,.716.523,1.624,1.624,0,0,1,.293.93,1.563,1.563,0,0,1-.18.824,1.526,1.526,0,0,1-.543.561,2.1,2.1,0,0,1-.616.227,1.805,1.805,0,0,1,.468.21,1.849,1.849,0,0,1,.292.3,2.322,2.322,0,0,1,.259.356l.907,1.662h-2l-1-1.752a1.393,1.393,0,0,0-.333-.443.763.763,0,0,0-.439-.133h-.156l.068,2.328Zm1.681-3.411h.747a2.68,2.68,0,0,0,.468-.079.45.45,0,0,0,.282-.18.516.516,0,0,0,.1-.332.543.543,0,0,0-.189-.426,1.085,1.085,0,0,0-.666-.149h-.778Z" transform="translate(-201.518 -140.686)" fill="#263238"/>
        <path id="Trazado_630256" data-name="Trazado 630256" d="M279.654,145.574h-2.012l-.251.946h-1.81l1.988-5.736H279.5l2.324,5.736h-1.856Zm-.4-1.24-.694-2.062-.566,2.062Z" transform="translate(-202.662 -140.686)" fill="#263238"/>
        <path id="Trazado_630257" data-name="Trazado 630257" d="M283.544,140.784H285.2l2.253,3.173-.093-3.173h1.671l.168,5.736h-1.671l-2.24-3.15.092,3.15h-1.666Z" transform="translate(-203.974 -140.686)" fill="#263238"/>
        <path id="Trazado_630258" data-name="Trazado 630258" d="M295.415,144.153l1.568.469a2.786,2.786,0,0,1-.461,1.092,2.054,2.054,0,0,1-.816.662,3.077,3.077,0,0,1-1.263.223,3.739,3.739,0,0,1-1.536-.272,2.519,2.519,0,0,1-1.052-.956,3.311,3.311,0,0,1-.482-1.752,2.9,2.9,0,0,1,.693-2.188,2.8,2.8,0,0,1,2.12-.764,2.979,2.979,0,0,1,1.717.438,2.682,2.682,0,0,1,.961,1.346l-1.555.348a1.366,1.366,0,0,0-.183-.383,1.044,1.044,0,0,0-.858-.423,1.007,1.007,0,0,0-.909.484,2.016,2.016,0,0,0-.21,1.129,2.194,2.194,0,0,0,.327,1.308,1.028,1.028,0,0,0,.824.353.96.96,0,0,0,.76-.286A1.711,1.711,0,0,0,295.415,144.153Z" transform="translate(-205.263 -140.667)" fill="#263238"/>
        <path id="Trazado_630259" data-name="Trazado 630259" d="M298.979,140.784h4.75l.036,1.225h-2.974l.027.912h2.759l.034,1.169h-2.759l.033,1.131h3.06l.038,1.3h-4.836Z" transform="translate(-206.517 -140.686)" fill="#263238"/>
      </g>
    </g>
    <g id="Grupo_954682" data-name="Grupo 954682" transform="translate(68.746 118.07)">
      <path id="Trazado_630260" data-name="Trazado 630260" d="M121.438,227.227s-2.369,51.982-2.822,73.033c-.47,21.9-.681,73.032-.681,73.032H112.41s-8.816-42.5-6.207-73.032c-3.948-23.446-6.613-73.033-6.613-73.033Z" transform="translate(-76.304 -143.992)" fill="#ff8b7b"/>
      <path id="Trazado_630261" data-name="Trazado 630261" d="M109.72,227.227s-13.167,54.436-18.549,74.792c-5.654,21.379-13.29,69.688-13.334,71.273H73.059s-1.506-55.81,6.059-74.792c.031-23.776,9.892-71.273,9.892-71.273Z" transform="translate(-71.914 -143.992)" fill="#ff8b7b"/>
      <path id="Trazado_630262" data-name="Trazado 630262" d="M72.735,398.453c-.907,1.037-1.629,6.4-.268,8.789s0,5.923,4.6,5.923,5.052-1,3.886-3.138a21.668,21.668,0,0,1-2.459-8.674C78.546,398.119,79.792,396.446,72.735,398.453Z" transform="translate(-71.712 -172.052)" fill="#263238"/>
      <path id="Trazado_630263" data-name="Trazado 630263" d="M72.251,405.316c-.1,2.756-.043,7.263-.043,7.263l.728-.022s.539-4.922,1-6.749Z" transform="translate(-71.792 -173.326)" fill="#263238"/>
      <path id="Trazado_630264" data-name="Trazado 630264" d="M130,187.422c.595,4.238,1.119,8.484,1.6,12.737q.756,6.374,1.382,12.771c.109,1.06.192,2.178.377,3.062.071.464.163.942.271,1.447s.189.992.317,1.489c.455,1.988,1.027,3.986,1.638,5.979s1.265,4,2,5.975c.711,1.98,1.473,3.983,2.236,5.915l-3.083,1.649A83.011,83.011,0,0,1,130.5,226.8a65.144,65.144,0,0,1-2.378-6.26c-.184-.531-.328-1.086-.494-1.629s-.311-1.1-.445-1.692a31.126,31.126,0,0,1-.617-3.3q-1-6.385-1.894-12.791-.917-6.4-1.676-12.826Z" transform="translate(-80.16 -137.435)" fill="#ff8b7b"/>
      <path id="Trazado_630265" data-name="Trazado 630265" d="M128.252,180.011c1.758,3.281,2.67,16.233,4.133,25.137a1.361,1.361,0,0,1-.887,1.493,18.53,18.53,0,0,0-5.365,3.272,1.36,1.36,0,0,1-2.208-.757l-4.167-19.311,1.813-3.652a8.826,8.826,0,0,1,6.681-6.183Z" transform="translate(-79.626 -136.215)" fill="#263238"/>
      <path id="Trazado_630266" data-name="Trazado 630266" d="M142.42,245.733l6.078,3.415-6.574,2.463s-3.365-2.886-2.746-5.688Z" transform="translate(-82.813 -147.04)" fill="#ff8b7b"/>
      <path id="Trazado_630267" data-name="Trazado 630267" d="M151.287,255.179l-5.615,1.765-3.191-4.658,6.574-2.463Z" transform="translate(-83.369 -147.714)" fill="#ff8b7b"/>
      <path id="Trazado_630268" data-name="Trazado 630268" d="M139.859,252.958l64.37-7.591.076.612-64.264,8.447Z" transform="translate(-82.937 -146.98)" fill="#263238"/>
      <path id="Trazado_630269" data-name="Trazado 630269" d="M123.453,181.573c.11,5.005-.2,19.149-3.713,40.778H90.432c.47-11.411,1.9-22.292-3.552-45.71a77.329,77.329,0,0,1,11.363-1.457,89.214,89.214,0,0,1,12.731,0c2.741.25,5.668.694,7.9,1.074A5.5,5.5,0,0,1,123.453,181.573Z" transform="translate(-74.211 -135.382)" fill="#263238"/>
      <path id="Trazado_630270" data-name="Trazado 630270" d="M112.647,224.894h-.012a.1.1,0,0,1-.092-.114c2.667-24.871.323-34.789.3-34.886a.1.1,0,0,1,.076-.126.1.1,0,0,1,.127.075c.024.1,2.376,10.052-.295,34.959A.1.1,0,0,1,112.647,224.894Z" transform="translate(-78.438 -137.821)" fill="#fff" opacity="0.2"/>
      <path id="Trazado_630271" data-name="Trazado 630271" d="M113.215,175.23H100.484s4.377,7.35,10.177,11.225A16.594,16.594,0,0,0,113.215,175.23Z" transform="translate(-76.452 -135.427)" fill="#e0e0e0"/>
      <path id="Trazado_630272" data-name="Trazado 630272" d="M103.718,152.512c2.862,4.84,1.717,10.813-2.558,13.341s-10.061.653-12.923-4.186-1.717-10.813,2.557-13.341S100.855,147.671,103.718,152.512Z" transform="translate(-74.175 -130.81)" fill="#263238"/>
      <path id="Trazado_630273" data-name="Trazado 630273" d="M85.532,157.748a11.035,11.035,0,0,1,2.323-7.462,8.48,8.48,0,0,1,13.015-.641,11.045,11.045,0,0,1,3.043,7.2l-.418.021a10.623,10.623,0,0,0-2.925-6.927,8.063,8.063,0,0,0-12.389.611,10.618,10.618,0,0,0-2.231,7.178Z" transform="translate(-73.986 -130.762)" fill="#263238"/>
      <ellipse id="Elipse_7762" data-name="Elipse 7762" cx="9.437" cy="8.967" rx="9.437" ry="8.967" transform="translate(24.13 30.052) rotate(-64.163)" fill="#263238"/>
      <path id="Trazado_630274" data-name="Trazado 630274" d="M101.745,158.067c.8,4.1,1.6,11.6-1.261,14.335,0,0,2.214,4.333,8.757,5.865,4.072-2.541,3.973-5.864,3.973-5.864-4.568-1.091-4.45-4.48-3.654-7.663Z" transform="translate(-76.452 -132.6)" fill="#ff8b7b"/>
      <path id="Trazado_630275" data-name="Trazado 630275" d="M106.194,179.9l-5.706-6.728-1.972,1.044-.325,9.722,4.223-5.545Z" transform="translate(-76.074 -135.087)" fill="#fff"/>
      <path id="Trazado_630276" data-name="Trazado 630276" d="M112.4,180.025l1.854-6.046,2.33,1.044,2.552,8.185-3.809-4.687Z" transform="translate(-78.415 -135.221)" fill="#fff"/>
      <path id="Trazado_630277" data-name="Trazado 630277" d="M105.78,161.327l4.626,3.947a13.113,13.113,0,0,0-.393,2.259c-1.745-.252-4.142-2.168-4.328-3.994A6.146,6.146,0,0,1,105.78,161.327Z" transform="translate(-77.3 -133.137)" opacity="0.2"/>
      <path id="Trazado_630278" data-name="Trazado 630278" d="M96.767,146.775c1.606,6.661,2.144,9.514,6.157,12.367,6.037,4.293,13.866.864,14.283-6.143.374-6.306-2.315-16.139-9.381-17.65A9.344,9.344,0,0,0,96.767,146.775Z" transform="translate(-75.794 -128.822)" fill="#ff8b7b"/>
      <path id="Trazado_630279" data-name="Trazado 630279" d="M97.7,149.58c4.17-2.506,3.623-10,3.623-10,7.229-.1,10.048.01,12.224.3s.857-2.626-2.382-5.029-11.94-1.707-14.655,2.887C93.17,139.07,89.981,146.657,97.7,149.58Z" transform="translate(-75.206 -128.555)" fill="#263238"/>
      <g id="Grupo_954679" data-name="Grupo 954679" transform="translate(16.163)">
        <path id="Trazado_630280" data-name="Trazado 630280" d="M91.85,143.531s23.5-5.056,28.457-6.465c.008-2.949-12.1.7-12.1.7Z" transform="translate(-91.192 -128.952)" fill="#407bff"/>
        <path id="Trazado_630281" data-name="Trazado 630281" d="M114.732,135.614c-.45-1.634-3.919-10.063-15.842-6.625-11.041,3.183-7.17,13.267-7.17,13.267Z" transform="translate(-91.063 -127.676)" fill="#407bff"/>
        <path id="Trazado_630282" data-name="Trazado 630282" d="M107.947,128.627l-4.184-1.049-4.8.854.057.844,3.149.509Z" transform="translate(-92.364 -127.578)" fill="#407bff"/>
        <path id="Trazado_630283" data-name="Trazado 630283" d="M107.913,137.226a.418.418,0,0,1-.417-.388c-.018-.251-.528-6.182-7.984-7.33a.417.417,0,0,1,.127-.825c8.134,1.252,8.686,8.03,8.691,8.1a.418.418,0,0,1-.388.444Z" transform="translate(-92.396 -127.76)" opacity="0.4"/>
      </g>
      <g id="Grupo_954680" data-name="Grupo 954680" transform="translate(7.895 133.936)">
        <path id="Trazado_630284" data-name="Trazado 630284" d="M119.594,304.621l-13.966-3.4c-.381-2.969-.738-6.124-1.081-9.374l15.373,2.69C119.8,298.139,119.687,301.551,119.594,304.621Z" transform="translate(-85.016 -288.571)" opacity="0.2"/>
        <path id="Trazado_630285" data-name="Trazado 630285" d="M81.965,287.926l15.987,2.791c-.731,2.914-1.438,5.735-2.107,8.4l-14.682-3.583C81.39,293.071,81.654,290.522,81.965,287.926Z" transform="translate(-81.164 -287.926)" opacity="0.2"/>
      </g>
      <path id="Trazado_630286" data-name="Trazado 630286" d="M110.922,148.939c.1.549.467.941.825.878s.57-.559.473-1.108-.466-.941-.824-.878S110.825,148.391,110.922,148.939Z" transform="translate(-78.167 -130.913)" fill="#263238"/>
      <path id="Trazado_630287" data-name="Trazado 630287" d="M118.342,147.625c.1.549.466.941.824.878s.57-.56.473-1.108-.466-.941-.824-.878S118.245,147.077,118.342,147.625Z" transform="translate(-79.389 -130.697)" fill="#263238"/>
      <path id="Trazado_630288" data-name="Trazado 630288" d="M118.73,146.468l1.25-.613S119.486,147,118.73,146.468Z" transform="translate(-79.457 -130.589)" fill="#263238"/>
      <path id="Trazado_630289" data-name="Trazado 630289" d="M116.586,149.32a14.857,14.857,0,0,0,2.574,3.153,2.4,2.4,0,0,1-1.89.713Z" transform="translate(-79.104 -131.16)" fill="#ff5652"/>
      <path id="Trazado_630290" data-name="Trazado 630290" d="M112.843,156.742a5.329,5.329,0,0,0,.934-.084.164.164,0,0,0-.058-.322,4.4,4.4,0,0,1-3.841-1.07.163.163,0,0,0-.239.223A4.562,4.562,0,0,0,112.843,156.742Z" transform="translate(-77.952 -132.13)" fill="#263238"/>
      <path id="Trazado_630291" data-name="Trazado 630291" d="M95.667,152.979a5.01,5.01,0,0,0,2.712,2.7c1.629.655,2.635-.755,2.343-2.393-.262-1.474-1.427-3.592-3.139-3.549A2.249,2.249,0,0,0,95.667,152.979Z" transform="translate(-75.625 -131.227)" fill="#ff8b7b"/>
      <path id="Trazado_630292" data-name="Trazado 630292" d="M107.591,145.81a.327.327,0,0,0,.228-.123,2.6,2.6,0,0,1,2.119-1.042.327.327,0,1,0,.061-.652,3.246,3.246,0,0,0-2.693,1.288.328.328,0,0,0,.053.459A.332.332,0,0,0,107.591,145.81Z" transform="translate(-77.564 -130.281)" fill="#263238"/>
      <path id="Trazado_630293" data-name="Trazado 630293" d="M119.12,143.554a.327.327,0,0,0,.032-.6,3.243,3.243,0,0,0-2.985-.008.327.327,0,0,0,.333.562,2.588,2.588,0,0,1,2.363.033A.333.333,0,0,0,119.12,143.554Z" transform="translate(-79.008 -130.051)" fill="#263238"/>
      <path id="Trazado_630294" data-name="Trazado 630294" d="M111.311,147.782l1.25-.613S112.067,148.318,111.311,147.782Z" transform="translate(-78.235 -130.805)" fill="#263238"/>
      <path id="Trazado_630295" data-name="Trazado 630295" d="M118.538,231.7l-1.2,58.159-37.5-5.342c-1.5-30.416,3.757-46.374,9.392-52.818Z" transform="translate(-73.008 -144.728)" fill="#263238"/>
      <path id="Trazado_630296" data-name="Trazado 630296" d="M112.682,268.653l-8.928-10.742v-8.482Z" transform="translate(-76.99 -147.649)" opacity="0.2"/>
      <path id="Trazado_630297" data-name="Trazado 630297" d="M88.685,185.509c-1.118,3.347-2.194,6.827-3.213,10.25-1,3.439-1.924,6.9-2.646,10.328-.34,1.712-.681,3.427-.858,5.088l-.04.314-.02.156c-.006.048,0,.014-.008.026a.035.035,0,0,0-.031.033.651.651,0,0,0,.058.339,4.587,4.587,0,0,0,1.008,1.385,21.327,21.327,0,0,0,3.817,2.936c1.438.916,3.017,1.8,4.536,2.6l-1.071,3.329a33.637,33.637,0,0,1-5.608-1.577,22.058,22.058,0,0,1-5.447-2.9,10.632,10.632,0,0,1-2.571-2.742,6.9,6.9,0,0,1-.905-2.216,6.237,6.237,0,0,1-.142-1.332l.006-.317.013-.185.024-.369c.058-.99.136-1.97.258-2.925.093-.971.256-1.906.4-2.854a108.6,108.6,0,0,1,2.45-11.018c.478-1.805.992-3.6,1.558-5.37s1.123-3.531,1.781-5.33Z" transform="translate(-72.343 -136.732)" fill="#ff8b7b"/>
      <g id="Grupo_954681" data-name="Grupo 954681" transform="translate(11.434 68.574)">
        <path id="Trazado_630298" data-name="Trazado 630298" d="M112.013,213.013l-4.512-3.338L97.169,225.138,85.4,239.54l4.512,3.338,10.332-15.463Z" transform="translate(-85.402 -209.675)" fill="#fafafa"/>
        <path id="Trazado_630299" data-name="Trazado 630299" d="M111.854,209.676a7.52,7.52,0,0,0,4.516,3.341A7.52,7.52,0,0,0,111.854,209.676Z" transform="translate(-89.758 -209.675)" fill="#e6e6e6"/>
        <path id="Trazado_630300" data-name="Trazado 630300" d="M85.4,245.428a7.521,7.521,0,0,0,4.516,3.341A7.519,7.519,0,0,0,85.4,245.428Z" transform="translate(-85.401 -215.564)" fill="#e6e6e6"/>
      </g>
      <path id="Trazado_630301" data-name="Trazado 630301" d="M93.042,225.719l7.442.489-4.867,5.059s-4.28-1.152-4.932-3.947Z" transform="translate(-74.838 -143.744)" fill="#ff8b7b"/>
      <path id="Trazado_630302" data-name="Trazado 630302" d="M103.663,230.218l-2.092,2.955a1.294,1.294,0,0,1-1.691.381l-4.562-2.563,5.93-4.687,2.269,2.244A1.3,1.3,0,0,1,103.663,230.218Z" transform="translate(-75.601 -143.84)" fill="#ff8b7b"/>
      <path id="Trazado_630303" data-name="Trazado 630303" d="M91.079,183.156c-.525-3.226-2.945-5.137-6.042-6.183-4.56,3.3-6.792,14.207-9.313,26.91A1.63,1.63,0,0,0,76.7,205.7c1.994.831,3.694,1.641,4.84,2.21a1.62,1.62,0,0,0,2.224-.849l8.152-20.225Z" transform="translate(-72.368 -135.714)" fill="#263238"/>
      <path id="Trazado_630304" data-name="Trazado 630304" d="M130.667,411.839a9.657,9.657,0,0,0-2.791-1.408h0s-4.947-2.792-7.523-11.191l-5.718-1.429a1.032,1.032,0,0,0-1.279.876c-.054.453-.088.968-.145,1.388a20.674,20.674,0,0,0,0,2.73c.048,2.838.366,9.219.366,9.219h.664a48.657,48.657,0,0,1,.351-5.792c.331-1.869,1.651.344,2.391,2.459s3.714,4.371,8.036,4.476C130.084,413.29,132.136,413.07,130.667,411.839Z" transform="translate(-78.54 -172.084)" fill="#263238"/>
    </g>
  </g>
</svg>
