<svg xmlns="http://www.w3.org/2000/svg" width="410" height="285.409" viewBox="0 0 410 285.409">
  <g id="Grupo_954774" data-name="Grupo 954774" transform="translate(-203.88 -87.275)">
    <g id="Grupo_954746" data-name="Grupo 954746" transform="translate(465.457 87.276)">
      <path id="Trazado_630364" data-name="Trazado 630364" d="M2051.78,308.558a44.763,44.763,0,1,0,54.409-32.359A44.814,44.814,0,0,0,2051.78,308.558Zm11.056,1.3h0a33.76,33.76,0,0,1,42.056-22.6h0a33.76,33.76,0,0,1,22.6,42.056h0a33.76,33.76,0,0,1-42.056,22.6h0A33.76,33.76,0,0,1,2062.836,309.855Z" transform="translate(-2020.762 -245.238)" fill="#f7cc7f"/>
      <path id="Trazado_630365" data-name="Trazado 630365" d="M1862.493,150.664c.211,1.069,1.178,1.442,3.566,2.39,4.272,1.694,8.545,3.389,12.753,5.231a2.968,2.968,0,0,1,1.406,2.074c.487,4.472.7,8.974,1.235,13.439.165,1.384.03,2.119-1.214,2.9-4.97,3.123-9.854,6.386-14.715,9.562,1.216,5.213,7.338,16.93,10.611,20.207,5.156-2.169,10.457-4.306,15.666-6.647,1.621-.729,2.449-.589,3.8.7a117.768,117.768,0,0,0,10.006,8.351c1.4,1.067,2.143,1.9,1.69,3.826-1.175,4.983-2.046,10.037-3.137,15.042-.293,1.345-.037,2.186,1.291,2.6q9.371,2.9,18.746,5.792c1.536.475,1.773-.788,2.156-1.693,1.941-4.578,3.908-9.147,5.694-13.786.671-1.742,1.569-2.315,3.461-2.374,5.008-.157,10-.64,15.39-1.021l10.318,15.666a67.039,67.039,0,0,0,19.984-10.761l-7.065-16.975c3.707-4.7,7.237-8.97,10.507-13.434a2.528,2.528,0,0,1,3.109-1.193c4.93,1.083,9.893,2.012,14.831,3.061,1.068.227,1.851.268,2.4-.9a64.12,64.12,0,0,0,5.892-18.437,2.016,2.016,0,0,0-1.513-2.513c-4.8-1.984-9.569-4.06-14.38-6.024a2.342,2.342,0,0,1-1.76-2.392c-.367-4.932-.947-9.854-1.652-14.75a1.99,1.99,0,0,1,1.1-2.317c4.9-3.23,9.785-6.5,14.8-9.834a71.927,71.927,0,0,0-10.437-19.87l-17.69,7.362-14.461-11.994c.884-4.409,1.938-9.48,2.907-14.569.8-4.176,1.394-3.627-2.8-5.387a7.076,7.076,0,0,1-1.107-.727l-11.257-3.387a13.955,13.955,0,0,1-2.623-.325c-2.148-.681-3.357-.192-4.214,2.108-1.783,4.794-3.868,9.479-5.942,14.159a2.719,2.719,0,0,1-1.836,1.337c-4.391.556-8.842.732-13.187,1.515-2.126.383-3.02-.2-4.069-1.855-2.975-4.7-6.143-9.278-9.546-14.369l-19.937,10.468c.522,1.323.81,2.089,1.124,2.845,1.94,4.658,3.837,9.335,5.86,13.957.574,1.313.281,2.05-.617,3.118-3.087,3.669-5.938,7.536-9,11.227a3,3,0,0,1-2.394.845c-4.078-.708-8.116-1.642-12.18-2.432-3.289-.639-4.512-.865-5.554.209Zm29.481-.46a46.349,46.349,0,1,1,5.085,35.107A46.047,46.047,0,0,1,1891.974,150.2Z" transform="translate(-1862.493 -87.276)" fill="#f7cc7f"/>
    </g>
    <path id="Trazado_630366" data-name="Trazado 630366" d="M212.558,393.737c.69.538,1.474.256,3.422-.424,3.484-1.217,6.97-2.434,10.494-3.528a2.382,2.382,0,0,1,1.944.52c2.646,2.459,5.144,5.079,7.814,7.511a1.959,1.959,0,0,1,.788,2.4c-1.376,4.51-2.626,9.058-3.909,13.542,3.479,2.526,13.356,6.423,17.066,6.692,1.99-4.028,4.086-8.112,6.019-12.272a2.271,2.271,0,0,1,2.678-1.571,94.59,94.59,0,0,0,10.466-.189c1.41-.087,2.3.029,3.038,1.435,1.907,3.643,4.034,7.171,6,10.783.529.971,1.126,1.347,2.149.9q7.216-3.165,14.428-6.338c1.182-.519.662-1.41.419-2.161-1.228-3.8-2.436-7.609-3.79-11.364a2.582,2.582,0,0,1,.854-3.261c2.958-2.728,5.738-5.648,8.808-8.711l14.5,4.088a53.844,53.844,0,0,0,6.478-17.039l-13.214-6.593c-.217-4.8-.321-9.252-.682-13.681a2.03,2.03,0,0,1,1.261-2.359c3.563-1.934,7.065-3.979,10.615-5.938.767-.423,1.265-.81.984-1.806a51.5,51.5,0,0,0-6.115-14.293,1.619,1.619,0,0,0-2.24-.731c-3.96,1.32-7.945,2.565-11.9,3.9a1.88,1.88,0,0,1-2.326-.528c-2.815-2.8-5.755-5.485-8.757-8.088a1.6,1.6,0,0,1-.552-1.984c1.28-4.54,2.526-9.089,3.817-13.752a57.761,57.761,0,0,0-16.783-6.579l-6.872,13.77-15.086.318c-1.781-3.142-3.807-6.776-5.893-10.375-1.713-2.954-1.06-2.935-4.533-1.8a5.68,5.68,0,0,1-1.055.141l-8.616,3.861a11.209,11.209,0,0,1-1.763,1.182c-1.662.716-2.14,1.648-1.45,3.5,1.437,3.849,2.634,7.789,3.835,11.721a2.183,2.183,0,0,1-.412,1.778c-2.374,2.646-4.984,5.093-7.211,7.852a2.671,2.671,0,0,1-3.446,1.013c-4.278-1.29-8.608-2.4-13.351-3.707l-6.6,16.837c1.012.529,1.59.843,2.178,1.137,3.627,1.809,7.237,3.651,10.9,5.395a2.037,2.037,0,0,1,1.265,2.218c.054,3.851.356,7.7.436,11.549a2.409,2.409,0,0,1-1.009,1.772c-2.849,1.713-5.791,3.269-8.675,4.926-2.333,1.341-3.194,1.847-3.262,3.046Zm17.66-15.777a37.226,37.226,0,1,1,21.544,18.645A36.982,36.982,0,0,1,230.218,377.96Z" transform="translate(0 -181.129)" fill="#50bfa5"/>
    <path id="Trazado_630367" data-name="Trazado 630367" d="M531.952,195.585l1.416-2.6-1.332-2.643a.407.407,0,0,1,.437-.583l2.9.547,2.095-2.088a.406.406,0,0,1,.689.237l.378,2.938,2.627,1.353a.408.408,0,0,1-.012.73l-2.669,1.268-.471,2.924a.406.406,0,0,1-.7.214l-2.027-2.154-2.919.454A.407.407,0,0,1,531.952,195.585Z" transform="translate(-276.29 -84.923)" fill="#f7cc7f"/>
    <path id="Trazado_630368" data-name="Trazado 630368" d="M1511.594,274.36l1.209-1.964-.971-.394a.416.416,0,0,1-.229-.541h0a.415.415,0,0,1,.541-.229l1.12.454,1.081-1.763-1.037-.42a.415.415,0,0,1-.229-.541h0a.415.415,0,0,1,.541-.229l1.186.481,1.255-2.019a.415.415,0,0,1,.509-.166l.181.074a.415.415,0,0,1,.2.6l-1.167,1.905,1.719.7,1.255-2.019a.415.415,0,0,1,.509-.165l.2.08a.415.415,0,0,1,.2.6l-1.168,1.905.971.394a.415.415,0,0,1,.229.541h0a.415.415,0,0,1-.541.229l-1.12-.454-1.064,1.77,1.037.42a.415.415,0,0,1,.229.541h0a.415.415,0,0,1-.541.229l-1.186-.481-1.282,2.083a.415.415,0,0,1-.51.167l-.212-.086a.415.415,0,0,1-.2-.6l1.209-1.964-1.719-.7-1.282,2.083a.415.415,0,0,1-.509.167l-.212-.086A.415.415,0,0,1,1511.594,274.36Zm4.381-1.573,1.081-1.763-1.719-.7-1.081,1.763Z" transform="translate(-1101.424 -151.38)" fill="#07345a"/>
    <path id="Trazado_630369" data-name="Trazado 630369" d="M1453.992,413.322l-1.637,8.7c.137.442.562.556,1.612.848,1.879.522,3.758,1.045,5.617,1.633a1.259,1.259,0,0,1,.687.812c.406,1.865.7,3.755,1.126,5.615a1.035,1.035,0,0,1-.381,1.279c-1.957,1.542-3.87,3.138-5.779,4.7a27.271,27.271,0,0,0,5.387,8.048c2.078-1.147,4.219-2.288,6.311-3.51a1.2,1.2,0,0,1,1.636.126,49.986,49.986,0,0,0,4.6,3.073c.638.387.99.707.885,1.538-.271,2.156-.411,4.327-.646,6.488-.063.581.083.924.662,1.038q4.085.8,8.171,1.6c.67.131.713-.412.834-.811.613-2.019,1.237-4.036,1.782-6.073a1.365,1.365,0,0,1,1.354-1.158c2.106-.292,4.193-.721,6.448-1.124l5.059,6.146a28.44,28.44,0,0,0,7.948-5.44L1501.92,440c1.353-2.149,2.65-4.111,3.829-6.142a1.073,1.073,0,0,1,1.258-.643c2.129.235,4.265.4,6.4.624.461.048.793.03.971-.487a27.207,27.207,0,0,0,1.656-8.045.855.855,0,0,0-.751-.992c-2.116-.621-4.22-1.282-6.339-1.894a.994.994,0,0,1-.85-.93c-.377-2.064-.843-4.115-1.361-6.149a.844.844,0,0,1,.359-1.027c1.924-1.584,3.837-3.182,5.8-4.816a30.522,30.522,0,0,0-5.3-7.914l-7.133,3.9-6.642-4.41c.174-1.9.391-4.088.571-6.278.148-1.8.425-1.593-1.425-2.147a3,3,0,0,1-.5-.257l-4.9-.922a5.926,5.926,0,0,1-1.121-.019c-.937-.19-1.425.07-1.683,1.079-.537,2.1-1.205,4.174-1.87,6.242a1.153,1.153,0,0,1-.715.647c-1.828.432-3.7.707-5.5,1.233a1.411,1.411,0,0,1-1.8-.6c-1.467-1.849-3.01-3.639-4.675-5.634l-7.941,5.315c.28.535.435.845.6,1.15,1.028,1.878,2.039,3.766,3.1,5.625a1.076,1.076,0,0,1-.12,1.344c-1.138,1.687-2.166,3.447-3.293,5.143a1.273,1.273,0,0,1-.972.464c-1.753-.115-3.5-.328-5.249-.478C1454.91,412.862,1454.383,412.822,1453.992,413.322Zm16.172,7.323a14.327,14.327,0,0,1,16.729-11.43h0a14.326,14.326,0,0,1,11.43,16.728h0a14.326,14.326,0,0,1-16.728,11.43h0a14.326,14.326,0,0,1-11.43-16.728Z" transform="translate(-1051.58 -256.157)" fill="#f47458"/>
    <path id="Trazado_630370" data-name="Trazado 630370" d="M1102.084,210.014l5.151.621-2.2-4Z" transform="translate(-756.55 -100.537)" fill="#355389"/>
    <g id="Grupo_954747" data-name="Grupo 954747" transform="translate(364.441 150.731)">
      <path id="Trazado_630371" data-name="Trazado 630371" d="M1221.977,492.776a3.6,3.6,0,0,0,2.995,3.621,3.53,3.53,0,0,0,3.842-2.4c1.166-3.124-2.252-5.588-4.106-3.7-1.73,1.765-1.183,4.387.685,4.387.7,0,1.839-.591,1.389-1.445a.285.285,0,0,0-.489,0c-.227.386-.208.4-.316.486a.962.962,0,0,1-.612.177c-1.9-.032-.637-4.385,1.605-3.331a2.51,2.51,0,0,1,1.167,3.2,2.866,2.866,0,0,1-2.792,2.007,3.28,3.28,0,0,1-2.9-3,.233.233,0,0,0-.466,0Z" transform="translate(-1221.965 -489.636)" fill="#f47458"/>
    </g>
    <g id="Grupo_954749" data-name="Grupo 954749" transform="translate(456.466 87.306)">
      <g id="Grupo_954748" data-name="Grupo 954748" transform="translate(0 0)">
        <path id="Trazado_630372" data-name="Trazado 630372" d="M1807.552,89.567l1.54.661s2.571-.574,2.859-1.057.455-1.7.814-1.7A1.1,1.1,0,0,1,1813.9,88.5c.07.62-.972,2.3-.846,2.5a8.865,8.865,0,0,0,1.6.816,1.246,1.246,0,0,1,.737,1.059h0a.664.664,0,0,1-.481.683l-.469.132.108.478a.664.664,0,0,1-.5.793l-.361.084.09.293a.664.664,0,0,1-.509.847l-.314.06.006.083a.663.663,0,0,1-.553.7l-.312.051-4.1-1.762a3.066,3.066,0,0,1-1.018-.711l-1.34-.859a.347.347,0,0,1-.13-.433l1.592-3.576A.344.344,0,0,1,1807.552,89.567Z" transform="translate(-1805.479 -87.467)" fill="#50bfa5"/>
      </g>
    </g>
    <path id="Rectángulo_306912" data-name="Rectángulo 306912" d="M9.717,0H28.431a9.717,9.717,0,0,1,9.717,9.717v0a9.717,9.717,0,0,1-9.717,9.717H9.717A9.717,9.717,0,0,1,0,9.717v0A9.717,9.717,0,0,1,9.717,0Z" transform="translate(382.262 162.787)" fill="#5184ce"/>
    <path id="Trazado_630373" data-name="Trazado 630373" d="M1152.917,1780.813l-29.478,13.587v3.01h104.982v-3.01l-29.745-13.587Z" transform="translate(-774.537 -1426.452)" fill="#466eb6"/>
    <rect id="Rectángulo_306913" data-name="Rectángulo 306913" width="45.778" height="58.263" transform="translate(378.381 296.122)" fill="#466eb6"/>
    <path id="Trazado_630374" data-name="Trazado 630374" d="M852.6,765.377V633.995a11.3,11.3,0,0,0-11.3-11.3H586.559a11.3,11.3,0,0,0-11.3,11.3V765.377Z" transform="translate(-312.807 -450.977)" fill="#466eb6"/>
    <rect id="Rectángulo_306914" data-name="Rectángulo 306914" width="104.982" height="3.01" transform="translate(348.902 367.948)" fill="#184655" opacity="0.3" style="mix-blend-mode: multiply;isolation: isolate"/>
    <rect id="Rectángulo_306915" data-name="Rectángulo 306915" width="45.759" height="6.837" transform="translate(378.381 347.524)" fill="#184655" opacity="0.3" style="mix-blend-mode: multiply;isolation: isolate"/>
    <path id="Trazado_630375" data-name="Trazado 630375" d="M575.256,1527.43v21.053c0,4.379,2.895,7.929,6.465,7.929H846.134c3.571,0,6.465-3.55,6.465-7.929V1527.43Z" transform="translate(-312.807 -1213.03)" fill="#5184ce"/>
    <path id="Trazado_630376" data-name="Trazado 630376" d="M1446.145,585.054a2.575,2.575,0,1,1-2.575-2.575A2.575,2.575,0,0,1,1446.145,585.054Z" transform="translate(-1042.011 -417.106)" fill="#184655"/>
    <path id="Trazado_630377" data-name="Trazado 630377" d="M880.78,790.143V664.817a6.058,6.058,0,0,0-6.163-5.948H622.584a6.058,6.058,0,0,0-6.163,5.948V790.143Z" transform="translate(-347.48 -481.448)" fill="#cce6ff"/>
    <rect id="Rectángulo_306916" data-name="Rectángulo 306916" width="158.893" height="110.872" transform="translate(280.551 187.538)" fill="#e9ffff"/>
    <rect id="Rectángulo_306917" data-name="Rectángulo 306917" width="158.893" height="12.981" transform="translate(280.551 187.538)" fill="#5184ce"/>
    <rect id="Rectángulo_306918" data-name="Rectángulo 306918" width="10.846" height="83.949" transform="translate(495.989 215.276)" fill="#9bc1f9" opacity="0.6"/>
    <rect id="Rectángulo_306919" data-name="Rectángulo 306919" width="10.846" height="58.343" transform="translate(480.843 240.883)" fill="#9bc1f9" opacity="0.6"/>
    <rect id="Rectángulo_306920" data-name="Rectángulo 306920" width="10.846" height="65.761" transform="translate(511.354 233.465)" fill="#9bc1f9" opacity="0.6"/>
    <rect id="Rectángulo_306921" data-name="Rectángulo 306921" width="10.846" height="68.347" transform="translate(465.696 230.878)" fill="#9bc1f9" opacity="0.6"/>
    <rect id="Rectángulo_306922" data-name="Rectángulo 306922" width="10.846" height="48.083" transform="translate(450.549 251.143)" fill="#9bc1f9" opacity="0.6"/>
    <g id="Grupo_954750" data-name="Grupo 954750" transform="translate(450.549 234.624)">
      <rect id="Rectángulo_306923" data-name="Rectángulo 306923" width="10.846" height="64.601" transform="translate(45.44)" fill="#9bc1f9" opacity="0.3" style="mix-blend-mode: multiply;isolation: isolate"/>
      <rect id="Rectángulo_306924" data-name="Rectángulo 306924" width="10.846" height="44.897" transform="translate(30.293 19.705)" fill="#9bc1f9" opacity="0.3" style="mix-blend-mode: multiply;isolation: isolate"/>
      <rect id="Rectángulo_306925" data-name="Rectángulo 306925" width="10.846" height="50.605" transform="translate(60.805 13.996)" fill="#9bc1f9" opacity="0.3" style="mix-blend-mode: multiply;isolation: isolate"/>
      <rect id="Rectángulo_306926" data-name="Rectángulo 306926" width="10.846" height="52.595" transform="translate(15.147 12.006)" fill="#9bc1f9" opacity="0.3" style="mix-blend-mode: multiply;isolation: isolate"/>
      <rect id="Rectángulo_306927" data-name="Rectángulo 306927" width="10.846" height="37.001" transform="translate(0 27.601)" fill="#9bc1f9" opacity="0.3" style="mix-blend-mode: multiply;isolation: isolate"/>
    </g>
    <rect id="Rectángulo_306928" data-name="Rectángulo 306928" width="146.658" height="18.824" transform="translate(286.033 205.864)" fill="#9bc1f9" opacity="0.6"/>
    <rect id="Rectángulo_306929" data-name="Rectángulo 306929" width="94.395" height="4.825" transform="translate(340.346 228.772)" fill="#9bc1f9" opacity="0.6"/>
    <rect id="Rectángulo_306930" data-name="Rectángulo 306930" width="46.437" height="55.678" transform="translate(286.033 230.034)" fill="#5184ce"/>
    <rect id="Rectángulo_306931" data-name="Rectángulo 306931" width="94.395" height="4.825" transform="translate(338.296 240.205)" fill="#9bc1f9" opacity="0.6"/>
    <rect id="Rectángulo_306932" data-name="Rectángulo 306932" width="94.395" height="4.825" transform="translate(338.296 270.716)" fill="#9bc1f9" opacity="0.6"/>
    <rect id="Rectángulo_306933" data-name="Rectángulo 306933" width="94.395" height="4.825" transform="translate(338.296 280.887)" fill="#9bc1f9" opacity="0.6"/>
    <path id="Trazado_630378" data-name="Trazado 630378" d="M291.669,1118.232l88.164-.159a2.4,2.4,0,0,1,2.4,2.393l.209,116.173a2.4,2.4,0,0,1-2.393,2.4l-88.164.159a2.4,2.4,0,0,1-2.4-2.393l-.209-116.173A2.4,2.4,0,0,1,291.669,1118.232Z" transform="translate(-71.928 -868.232)" fill="#f7cc7f"/>
    <rect id="Rectángulo_306934" data-name="Rectángulo 306934" width="83.282" height="113.55" transform="translate(222.188 253.371) rotate(-0.103)" fill="#fff"/>
    <path id="Trazado_630379" data-name="Trazado 630379" d="M501.794,1103.27a.925.925,0,0,0-.926-.923l-34.968.063a.925.925,0,0,0-.923.927l.007,3.634,36.818-.066Z" transform="translate(-219.919 -854.986)" fill="#13375b"/>
    <path id="Trazado_630380" data-name="Trazado 630380" d="M552.241,1074.527a5.515,5.515,0,1,0,5.525,5.505A5.515,5.515,0,0,0,552.241,1074.527Zm.016,9.052a3.537,3.537,0,1,1,3.53-3.543A3.537,3.537,0,0,1,552.257,1083.579Z" transform="translate(-288.785 -831.554)" fill="#13375b"/>
    <g id="Grupo_954751" data-name="Grupo 954751" transform="translate(245.064 247.424)">
      <path id="Trazado_630381" data-name="Trazado 630381" d="M501.263,1102.8a.925.925,0,0,1,.566.851l.007,3.635-36.818.066a4.559,4.559,0,0,0,4.567,4.551l27.7-.05a4.559,4.559,0,0,0,4.551-4.567l-.007-3.635A.925.925,0,0,0,501.263,1102.8Z" transform="translate(-465.018 -1102.795)" fill="#355389"/>
      <path id="Trazado_630382" data-name="Trazado 630382" d="M466.737,1102.746h0a.924.924,0,0,0-.766.409A.924.924,0,0,1,466.737,1102.746Z" transform="translate(-465.821 -1102.746)" fill="#9bc1f9"/>
      <path id="Trazado_630383" data-name="Trazado 630383" d="M465.236,1105.99a.914.914,0,0,1,.07-.166A.914.914,0,0,0,465.236,1105.99Z" transform="translate(-465.202 -1105.339)" fill="#9bc1f9"/>
    </g>
    <g id="Grupo_954752" data-name="Grupo 954752" transform="translate(284.059 274.879)">
      <path id="Trazado_630384" data-name="Trazado 630384" d="M724.141,1288.671l-11.839.021-.021-11.839,11.839-.021Zm-11.356-.463,10.871-.02-.02-10.871-10.871.02Z" transform="translate(-712.281 -1276.832)" fill="#184655"/>
    </g>
    <g id="Grupo_954753" data-name="Grupo 954753" transform="translate(284.095 294.578)">
      <path id="Trazado_630385" data-name="Trazado 630385" d="M724.366,1413.579l-11.839.021-.021-11.839,11.839-.021Zm-11.356-.463,10.871-.02-.02-10.871-10.871.02Z" transform="translate(-712.506 -1401.74)" fill="#184655"/>
    </g>
    <g id="Grupo_954754" data-name="Grupo 954754" transform="translate(284.13 314.277)">
      <path id="Trazado_630386" data-name="Trazado 630386" d="M724.591,1538.489l-11.839.021-.021-11.839,11.839-.021Zm-11.356-.464,10.871-.02-.02-10.871-10.871.02Z" transform="translate(-712.731 -1526.65)" fill="#184655"/>
    </g>
    <g id="Grupo_954755" data-name="Grupo 954755" transform="translate(284.166 333.976)">
      <path id="Trazado_630387" data-name="Trazado 630387" d="M724.816,1663.4l-11.839.021-.021-11.839,11.839-.021Zm-11.356-.463,10.871-.019-.02-10.871-10.871.02Z" transform="translate(-712.956 -1651.559)" fill="#184655"/>
    </g>
    <rect id="Rectángulo_306935" data-name="Rectángulo 306935" width="50.667" height="1.704" transform="translate(228.433 275.242) rotate(-0.103)" fill="#9bc1f9"/>
    <rect id="Rectángulo_306936" data-name="Rectángulo 306936" width="50.667" height="1.704" transform="matrix(1, -0.002, 0.002, 1, 228.441, 280.068)" fill="#9bc1f9"/>
    <rect id="Rectángulo_306937" data-name="Rectángulo 306937" width="50.668" height="1.704" transform="matrix(1, -0.002, 0.002, 1, 228.45, 284.893)" fill="#9bc1f9"/>
    <rect id="Rectángulo_306938" data-name="Rectángulo 306938" width="50.667" height="1.704" transform="matrix(1, -0.002, 0.002, 1, 228.469, 295.614)" fill="#9bc1f9"/>
    <rect id="Rectángulo_306939" data-name="Rectángulo 306939" width="50.667" height="1.704" transform="translate(228.478 300.44) rotate(-0.103)" fill="#9bc1f9"/>
    <rect id="Rectángulo_306940" data-name="Rectángulo 306940" width="50.667" height="1.704" transform="matrix(1, -0.002, 0.002, 1, 228.487, 305.265)" fill="#9bc1f9"/>
    <rect id="Rectángulo_306941" data-name="Rectángulo 306941" width="50.667" height="1.704" transform="matrix(1, -0.002, 0.002, 1, 228.504, 314.916)" fill="#9bc1f9"/>
    <rect id="Rectángulo_306942" data-name="Rectángulo 306942" width="50.667" height="1.704" transform="matrix(1, -0.002, 0.002, 1, 228.513, 319.742)" fill="#9bc1f9"/>
    <rect id="Rectángulo_306943" data-name="Rectángulo 306943" width="50.668" height="1.704" transform="translate(228.521 324.567) rotate(-0.103)" fill="#9bc1f9"/>
    <rect id="Rectángulo_306944" data-name="Rectángulo 306944" width="50.667" height="1.704" transform="translate(228.539 334.218) rotate(-0.103)" fill="#9bc1f9"/>
    <rect id="Rectángulo_306945" data-name="Rectángulo 306945" width="50.668" height="1.704" transform="translate(228.547 339.044) rotate(-0.103)" fill="#9bc1f9"/>
    <rect id="Rectángulo_306946" data-name="Rectángulo 306946" width="50.667" height="1.704" transform="translate(228.556 343.869) rotate(-0.103)" fill="#9bc1f9"/>
    <rect id="Rectángulo_306947" data-name="Rectángulo 306947" width="58.453" height="1.704" transform="translate(228.579 356.345) rotate(-0.103)" fill="#9bc1f9"/>
    <rect id="Rectángulo_306948" data-name="Rectángulo 306948" width="69.98" height="1.704" transform="translate(228.586 360.474) rotate(-0.103)" fill="#9bc1f9"/>
    <g id="Grupo_954756" data-name="Grupo 954756" transform="translate(286.265 273.011)">
      <path id="Trazado_630388" data-name="Trazado 630388" d="M729.944,1276.763l-3.677-6.308,1.316-.767,2.134,3.661,3.484-8.358,1.406.586Z" transform="translate(-726.267 -1264.992)" fill="#f47458"/>
    </g>
    <g id="Grupo_954757" data-name="Grupo 954757" transform="translate(286.301 292.969)">
      <path id="Trazado_630389" data-name="Trazado 630389" d="M730.172,1403.309,726.495,1397l1.316-.767,2.134,3.661,3.484-8.357,1.406.586Z" transform="translate(-726.495 -1391.538)" fill="#f47458"/>
    </g>
    <g id="Grupo_954758" data-name="Grupo 954758" transform="translate(286.371 331.988)">
      <path id="Trazado_630390" data-name="Trazado 630390" d="M730.617,1650.72l-3.677-6.308,1.316-.767,2.134,3.661,3.484-8.358,1.406.586Z" transform="translate(-726.94 -1638.949)" fill="#f47458"/>
    </g>
    <path id="Trazado_630391" data-name="Trazado 630391" d="M732.55,1539.6l-1.06-1.07-3.025,3-3.036-2.987-1.056,1.073,3.022,2.974-3.012,2.984,1.06,1.07,3.025-3,3.036,2.987,1.056-1.074-3.022-2.974Z" transform="translate(-438.406 -1222.38)" fill="#f47458"/>
    <path id="Trazado_630392" data-name="Trazado 630392" d="M329.288,1618.92a21.777,21.777,0,0,0-8.439,1.7l.005,2.775a19.3,19.3,0,0,1,18.9,33.58l4.156-.008q.448-.4.877-.832a21.818,21.818,0,0,0-15.495-37.218Z" transform="translate(-98.522 -1290.091)" fill="#9bc1f9" opacity="0.3" style="mix-blend-mode: multiply;isolation: isolate"/>
    <path id="Trazado_630393" data-name="Trazado 630393" d="M329.362,1656.427a15.807,15.807,0,0,0-8.437,2.447l0,1.511a14.645,14.645,0,1,1,.043,23.921l0,1.511a15.9,15.9,0,1,0,8.389-29.39Z" transform="translate(-98.586 -1321.683)" fill="#9bc1f9" opacity="0.3" style="mix-blend-mode: multiply;isolation: isolate"/>
    <g id="Grupo_954759" data-name="Grupo 954759" transform="translate(243.88 263.374)">
      <path id="Trazado_630394" data-name="Trazado 630394" d="M459.775,1210.792v-5.672h-2.261v-.5h5.234v.5h-2.261v5.672Z" transform="translate(-457.514 -1204.506)" fill="#184655"/>
      <path id="Trazado_630395" data-name="Trazado 630395" d="M503.094,1210.3v.5h-4.537v-6.169h4.377v.5h-3.67v2.161h2.657v.5h-2.657v2.519Z" transform="translate(-492.084 -1204.506)" fill="#184655"/>
      <path id="Trazado_630396" data-name="Trazado 630396" d="M531.91,1208.781l.614-.2a2.277,2.277,0,0,0,.792.974,2.122,2.122,0,0,0,1.185.315,1.9,1.9,0,0,0,1.164-.33,1.031,1.031,0,0,0,.441-.867.937.937,0,0,0-.289-.707,2.643,2.643,0,0,0-.981-.507q-.377-.121-1-.292a6.248,6.248,0,0,1-.8-.254,2.168,2.168,0,0,1-.785-.551,1.124,1.124,0,0,1-.232-.722,1.431,1.431,0,0,1,.583-1.208,2.612,2.612,0,0,1,1.605-.44,2.838,2.838,0,0,1,1.5.361,2.263,2.263,0,0,1,.9,1.107l-.6.154a2.01,2.01,0,0,0-.73-.851,2.065,2.065,0,0,0-1.1-.275,1.672,1.672,0,0,0-1.03.3.921.921,0,0,0-.395.771.807.807,0,0,0,.255.6,1.882,1.882,0,0,0,.792.4q.206.063.6.171a8.264,8.264,0,0,1,1.451.488,2.144,2.144,0,0,1,.756.6,1.3,1.3,0,0,1,.235.774,1.534,1.534,0,0,1-.632,1.289,2.766,2.766,0,0,1-1.711.48,3.019,3.019,0,0,1-1.6-.384A2.6,2.6,0,0,1,531.91,1208.781Z" transform="translate(-520.177 -1203.971)" fill="#184655"/>
      <path id="Trazado_630397" data-name="Trazado 630397" d="M569.683,1210.792v-5.672h-2.261v-.5h5.234v.5H570.4v5.672Z" transform="translate(-550.089 -1204.506)" fill="#184655"/>
      <path id="Trazado_630398" data-name="Trazado 630398" d="M609.186,1210.792v-6.169h.707v6.169Z" transform="translate(-585.266 -1204.506)" fill="#184655"/>
      <path id="Trazado_630399" data-name="Trazado 630399" d="M628.038,1205.069v5.723h-.686v-6.169H628.5l3.66,5.206v-5.206h.687v6.169H632.1Z" transform="translate(-600.567 -1204.506)" fill="#184655"/>
      <path id="Trazado_630400" data-name="Trazado 630400" d="M676.462,1209.476a2.42,2.42,0,0,1-.9.611,3.345,3.345,0,0,1-1.213.2,2.772,2.772,0,0,1-2.163-.82,4.133,4.133,0,0,1,.016-4.751,3.213,3.213,0,0,1,3.789-.394,2.588,2.588,0,0,1,.909,1.393l-.666.113a2.222,2.222,0,0,0-.71-1.1,1.89,1.89,0,0,0-1.185-.354,1.941,1.941,0,0,0-1.595.69,3.026,3.026,0,0,0-.563,1.958,3.2,3.2,0,0,0,.57,2.065,2.064,2.064,0,0,0,1.7.7,2.187,2.187,0,0,0,1.363-.394,1.247,1.247,0,0,0,.516-1.041v-.659h-1.9v-.463h2.664v2.941h-.625Z" transform="translate(-637.701 -1203.883)" fill="#184655"/>
    </g>
    <g id="Grupo_954767" data-name="Grupo 954767" transform="translate(300.929 106.408)">
      <g id="Grupo_954764" data-name="Grupo 954764" transform="translate(37.458 6.061)">
        <g id="Grupo_954760" data-name="Grupo 954760" transform="translate(29.596)">
          <path id="Trazado_630401" data-name="Trazado 630401" d="M1263,263.188l-1.607,6.268,4.919-2.763,14.692-5.418-10.827-.3s-5.615.673-5.942.9A13.382,13.382,0,0,0,1263,263.188Z" transform="translate(-1258.722 -258.775)" fill="#50bfa5"/>
          <path id="Trazado_630402" data-name="Trazado 630402" d="M1244.431,247.025l22.287,2.5-18,1.913Z" transform="translate(-1244.431 -247.025)" fill="#96d9c9"/>
          <path id="Trazado_630403" data-name="Trazado 630403" d="M1283.948,272.055l-5.274-5.384,16.886-3.792Z" transform="translate(-1273.274 -260.378)" fill="#96d9c9"/>
        </g>
        <g id="Grupo_954763" data-name="Grupo 954763" transform="translate(0 6.276)">
          <g id="Grupo_954761" data-name="Grupo 954761" transform="translate(0 1.152)">
            <path id="Trazado_630404" data-name="Trazado 630404" d="M1056.872,310.289a14.3,14.3,0,0,1,.47-1.487c.17-.449.365-.9.581-1.336l.474.234c-.208.422-.4.855-.561,1.288a13.714,13.714,0,0,0-.453,1.432q-.055.212-.1.425l-.515-.115C1056.8,310.58,1056.835,310.431,1056.872,310.289Zm2.908-5.74a20.076,20.076,0,0,1,2.37-2.507l.352.394a19.567,19.567,0,0,0-2.308,2.44Zm16.754.942-.083-.07.343-.4.069.058a.291.291,0,0,0,.051.023,2.434,2.434,0,0,0,1.478-.007,2.239,2.239,0,0,0,.964-.86l.443.287a2.793,2.793,0,0,1-1.192,1.056,2.939,2.939,0,0,1-1.879.019A.69.69,0,0,1,1076.533,305.491Zm-11.654-5.55a27.534,27.534,0,0,1,2.983-1.717l.235.473a26.952,26.952,0,0,0-2.925,1.683Zm10.049,1.208a6.427,6.427,0,0,1,.375-1.517,7.618,7.618,0,0,1,.364-.813l.469.243a7.057,7.057,0,0,0-.339.756,5.894,5.894,0,0,0-.344,1.392,4.894,4.894,0,0,0-.014.992l-.526.046A5.411,5.411,0,0,1,1074.929,301.149Zm2.838-2.369-.063-.04.28-.448.068.043a5.312,5.312,0,0,1,2.164,2.681l-.5.17A4.777,4.777,0,0,0,1077.767,298.78Zm-6.562-1.505a12.084,12.084,0,0,1,2.26-.244c.435.031.833.074,1.214.132l-.078.522c-.368-.055-.752-.1-1.174-.127a10.915,10.915,0,0,0-2.129.237Zm6.609-1.2a11.806,11.806,0,0,1,2.873-1.953l.23.475a11.289,11.289,0,0,0-2.745,1.866Z" transform="translate(-1056.766 -294.122)" fill="#9bc1f9"/>
          </g>
          <g id="Grupo_954762" data-name="Grupo 954762" transform="translate(27.24)">
            <path id="Trazado_630405" data-name="Trazado 630405" d="M1229.57,287.462a10.179,10.179,0,0,1,1.693-.114l.01-.528a10.71,10.71,0,0,0-1.781.12Z" transform="translate(-1229.492 -286.819)" fill="#9bc1f9"/>
          </g>
        </g>
      </g>
      <g id="Grupo_954766" data-name="Grupo 954766">
        <path id="Trazado_630406" data-name="Trazado 630406" d="M964.587,340.724c.318.013,1.189.3,2.463,2.713,1.627,3.075,4.005,12.364,4.005,12.364l-7.1,2.643-.912-1.939-1.5-14.927S964.5,340.72,964.587,340.724Z" transform="translate(-939.102 -319.886)" fill="#a34b3d"/>
        <path id="Trazado_630407" data-name="Trazado 630407" d="M854.1,332.233a43.368,43.368,0,0,1,9.384,1.34s1.713,14.719-1.542,25.9c-.729,2.5.6,10.378.6,10.378l-21.034-.278s2.492-19.038,1.553-22.113-.961-13.792-.961-13.792.144-.022,4.726-.814A47.644,47.644,0,0,1,854.1,332.233Z" transform="translate(-838.003 -312.734)" fill="#b75742"/>
        <path id="Trazado_630408" data-name="Trazado 630408" d="M873.873,744.007s.465,5.371,1.321,6.858-.045,4.016-.09,4.363-1.8.843-4.593.545-2.747-.942-2.522-1.983,1.711-2.38,1.8-3.371a25.88,25.88,0,0,0-.856-4.561Z" transform="translate(-860.223 -659.568)" fill="#f7a491"/>
        <path id="Trazado_630409" data-name="Trazado 630409" d="M858.259,540.915s14.52-.806,17.762,1.157-2.3,11.6-2.3,11.6-10.1-.466-29.893.676c-4.686.271-5.09-12.219-4.214-13.252S858.259,540.915,858.259,540.915Z" transform="translate(-836.087 -488.228)" fill="#e0973f"/>
        <path id="Trazado_630410" data-name="Trazado 630410" d="M869.249,794.544c-2.875-.306-2.519-1.719-2.288-2.791a9.5,9.5,0,0,1,1.462-2.211,4.792,4.792,0,0,0,1.923.935c1.3.383,3.074-.375,4.206-.85a13.876,13.876,0,0,1,.384,3.709C874.89,793.693,872.123,794.85,869.249,794.544Z" transform="translate(-859.309 -697.922)" fill="#dd513a"/>
        <path id="Trazado_630411" data-name="Trazado 630411" d="M833.572,552.073c.58,4.39,3.452,26.242,3.452,26.242l-6.664.826s-8.2-28.523-7.775-32.886,3.488-4.73,3.488-4.73S832.036,540.453,833.572,552.073Z" transform="translate(-822.045 -488.998)" fill="#f7cc7f"/>
        <path id="Trazado_630412" data-name="Trazado 630412" d="M826.3,351.611c1.967-.738,2.929,16.982,3.194,24.276a85.707,85.707,0,0,0,11.065-.111c.711-.053,2.35-.654,3.057-.746a7.094,7.094,0,0,1,1.737-.082,32.833,32.833,0,0,1,4.071,1.833c.385.4,1.426,1.422,1.251,1.863s-2-1.227-2-1.227l-.893-.5c1.111,1.086,3.231,2.515,2.926,3.036s-2.21-.943-3.573-1.932c1.169,1.056,2.621,2.945,2.287,3.24-.3.265-1.953-1.922-3.718-2.552-.654-.233-1.306.413-1.821.491a3.7,3.7,0,0,1-1.333.074l-1.911-.542c-.651.059-.667.444-1.325.584-.763.162-2.016.333-2.988.571-5.6,1.368-7.465,2-9.179,2C821.952,381.882,821.651,353.354,826.3,351.611Z" transform="translate(-822.424 -329.037)" fill="#f7a491"/>
        <path id="Trazado_630413" data-name="Trazado 630413" d="M819.391,359.4c-.368-7.471-.314-16.679,3.873-18.25,1.652-.62,4.565,3.107,4.042,18.4A31.474,31.474,0,0,1,819.391,359.4Z" transform="translate(-819.249 -320.193)" fill="#a34b3d"/>
        <path id="Trazado_630414" data-name="Trazado 630414" d="M998.5,776.132a3.629,3.629,0,0,0-.205,3.124c.757,1.425,4.731,3.522,5.145,4.295a1.872,1.872,0,0,1,.252,1.319l-11.8-2.893.9-3.557,1.1-2.458Z" transform="translate(-964.664 -686.484)" fill="#f7a491"/>
        <path id="Trazado_630415" data-name="Trazado 630415" d="M996.443,793.146s-3.317.575-4.632-.474-1.227-1.242-1.712-1.061c-.312.116-.787,1.532-1.086,2.529a.97.97,0,0,0,.7,1.22L1002,798.395c.933.179,1.551-.4.923-1.152a11.125,11.125,0,0,0-1.268-1.18A42.721,42.721,0,0,0,996.443,793.146Z" transform="translate(-962.205 -699.613)" fill="#dd513a"/>
        <path id="Trazado_630416" data-name="Trazado 630416" d="M1002.27,545.952c.938-1.975,3.073-4.547,6.829-3,3.582,1.477,4.544,5.108,3.414,8.826s-8.571,25.573-8.83,28.578l-5.941.039s1.08-17.305,1.345-21.488A40.506,40.506,0,0,1,1002.27,545.952Z" transform="translate(-969.591 -489.823)" fill="#f7cc7f"/>
        <path id="Trazado_630417" data-name="Trazado 630417" d="M881.053,436.861H861.194a1.3,1.3,0,0,0-1.2.807l-6.115,14.965H842.932a.555.555,0,0,0-.555.556h0a.555.555,0,0,0,.555.556h31.161a2.175,2.175,0,0,0,1.984-1.289l6.157-13.762A1.3,1.3,0,0,0,881.053,436.861Z" transform="translate(-838.73 -400.861)" fill="#184655"/>
        <path id="Trazado_630418" data-name="Trazado 630418" d="M1008.319,484.377a1.093,1.093,0,1,1-.819-1.43A1.169,1.169,0,0,1,1008.319,484.377Z" transform="translate(-976.688 -439.663)" fill="#fff"/>
        <g id="Grupo_954765" data-name="Grupo 954765" transform="translate(9.767)">
          <path id="Trazado_630419" data-name="Trazado 630419" d="M892.232,210.116a15.242,15.242,0,0,1-1.757-.7,8.824,8.824,0,0,0-2-.755,4.83,4.83,0,0,0-4.064,1.084c-1.31,1.421-3.638.257-3.169,7.7.531,8.424,5.215,7.5,5.328,7.357s4.178-5.389,4.178-5.389,1.421,3.108,1.421,2.994S899.422,212.537,892.232,210.116Z" transform="translate(-881.178 -208.594)" fill="#0e2e35"/>
          <path id="Trazado_630420" data-name="Trazado 630420" d="M903.029,289.961l.4,3.01s.906,4.337-.259,5.173-4.956-5.3-4.956-5.3l.4-7.627Z" transform="translate(-895.531 -273.135)" fill="#f7a491"/>
          <path id="Trazado_630421" data-name="Trazado 630421" d="M899.936,287.692a8.636,8.636,0,0,0,4.883,4.821l-.343-2.552-4.41-4.741Z" transform="translate(-896.978 -273.135)" fill="#f47458"/>
          <path id="Trazado_630422" data-name="Trazado 630422" d="M900.023,232.318a4.014,4.014,0,0,1,4.622,4.059,30.507,30.507,0,0,1-.338,3.861c-.537,3.475-2.908,6.535-4.475,6.261s-5.512-3.271-4.817-8.215C895.444,235.231,897.432,232.736,900.023,232.318Z" transform="translate(-892.765 -228.533)" fill="#f7a491"/>
          <path id="Trazado_630423" data-name="Trazado 630423" d="M890.166,265.648a1.169,1.169,0,1,1-.888-1.58A1.293,1.293,0,0,1,890.166,265.648Z" transform="translate(-886.828 -255.307)" fill="#f7a491"/>
          <path id="Trazado_630424" data-name="Trazado 630424" d="M893.519,231.135s1.9.471,2.6-.748,3.219-3.85,6.416-2.759-2.813-2.652-3.069-2.652-3.325-.021-3.325-.021-2.366,1.946-2.451,2.16-.767,2.545-.767,2.545Z" transform="translate(-891.068 -222.375)" fill="#0e2e35"/>
        </g>
        <path id="Trazado_630425" data-name="Trazado 630425" d="M918.633,296.392l3.448.659a1.535,1.535,0,0,1-1.854,1.053C918.368,297.8,918.633,296.392,918.633,296.392Z" transform="translate(-902.948 -282.546)" fill="#fff"/>
      </g>
    </g>
    <g id="Grupo_954768" data-name="Grupo 954768" transform="translate(349.222 241.734)">
      <path id="Trazado_630426" data-name="Trazado 630426" d="M1154.109,1801.972s-.631,4.4-1.717,5.824a11.235,11.235,0,0,0-1.467,1.942,5.742,5.742,0,0,0,.2,4.439c.258.565-.018.563.568.745a3.6,3.6,0,0,0,4.324-2.042,10.415,10.415,0,0,0,.848-3.752,13.645,13.645,0,0,1,1.422-6.03Z" transform="translate(-1146.599 -1686.008)" fill="#f7a491"/>
      <path id="Trazado_630427" data-name="Trazado 630427" d="M1289.7,1814.741a41.755,41.755,0,0,1,.073,6.578c-.169.864-1.113,2.642-.68,3.455a2.178,2.178,0,0,0,.927,1.017l11.214.181c.611.01.207-.385-.285-.75a22.58,22.58,0,0,0-4.032-2.243c-.168-.082-.78-.473-1-.608a7.778,7.778,0,0,1-1.6-1.425c-.805-.9-.875-5.274-.875-5.274Z" transform="translate(-1263.196 -1696.764)" fill="#f7a491"/>
      <path id="Trazado_630428" data-name="Trazado 630428" d="M1291.911,1389.642s1.412,8.061.485,13.345-5.377,54.27-5.377,54.27l-4.945.281s-1.037-20.462-.851-23.308a44.332,44.332,0,0,1,1.653-7.608l-.492-16.521,6.24-21.7Z" transform="translate(-1256.64 -1337.659)" fill="#e25a44"/>
      <path id="Trazado_630429" data-name="Trazado 630429" d="M1183.02,1375.767s-3.894,5.894-4.821,10.773.68,19.87-1.1,26.262c-.965,3.46-4.625,8.8-5.181,13.276s-2.739,16.185-2.739,16.185l4.943.985L1185.607,1414l9.011-26.44,2.308-13.617Z" transform="translate(-1162.283 -1325.479)" fill="#f47458"/>
      <path id="Trazado_630430" data-name="Trazado 630430" d="M1154.316,1853.4a5.513,5.513,0,0,1-5.419-2.277,6.007,6.007,0,0,0-.515,4.454c.444.972,1.74.945,2.761.983a2.663,2.663,0,0,0,2.45-1.508A9.06,9.06,0,0,0,1154.316,1853.4Z" transform="translate(-1144.564 -1727.404)" fill="#f7cc7f"/>
      <path id="Trazado_630431" data-name="Trazado 630431" d="M1295.785,1861.774a10.094,10.094,0,0,1-6.384-.252,5.208,5.208,0,0,0-.513,2.685c.272.8.66.979,1,.988,2.709.071,9.923.169,11.988.2a.34.34,0,0,0,.262-.558C1301.628,1864.217,1296.006,1861.91,1295.785,1861.774Z" transform="translate(-1263.063 -1736.167)" fill="#f7cc7f"/>
      <path id="Trazado_630432" data-name="Trazado 630432" d="M1327.794,1269.378c.206-.439-1.972-1.037-2.042-1.51s2.85-.207,3-.6c.27-.726-3.18-.489-3.078-.831s3.649-.762,3.336-1.4-3.631.819-3.684.4,3.208-1.077,3.244-1.974c.019-.479-5.43,1.836-6,1.515s.9-2.43.461-2.811-2.354,4.029-2.7,4.158-7.822,2.389-10.365,2.764c-.215-.861-2.127-5.6-2.311-6.411-1.493.845-3.395-.172-4.923.581.769,2.712,2.5,11.646,3.186,12.049,2.1,1.225,13.158-4.615,14.985-5.649s2.763-.541,3.955-.8S1327.588,1269.817,1327.794,1269.378Z" transform="translate(-1274.774 -1231.318)" fill="#f38b80"/>
      <path id="Trazado_630433" data-name="Trazado 630433" d="M1158.816,1078.411c.556-2.528,1.1-5.072-.365-7.849a7.129,7.129,0,0,0-5.611-3.823c-6.726-.8-5.289,5.481-14.689,6.84-2.921.422-5.635.828-8.073,2.281-4.4,2.623-6.066,6.831-3.146,13.686,7.151,16.786,24.263,2.2,26.873-.769C1156.394,1085.831,1158.458,1080.038,1158.816,1078.411Z" transform="translate(-1125.469 -1066.669)" fill="#0e2e35"/>
      <path id="Trazado_630434" data-name="Trazado 630434" d="M1238.341,1191.718a9.762,9.762,0,0,0-5.427,2.6c-2.031,2.21,3.284,19.972,3.653,22.785s-3.532,10.6-3.532,10.6,13.262,2.636,16.709.359c0,0,.3-21.737-.066-23.746s-3.448-10.178-4.186-10.982S1238.341,1191.718,1238.341,1191.718Z" transform="translate(-1215.58 -1171.997)" fill="#f7cc7f"/>
      <path id="Trazado_630435" data-name="Trazado 630435" d="M1270.573,1147.688s-.027.151-.074.408a38.835,38.835,0,0,1-1.706,6.443c-.72,1.358,2.464,5.689,5.529,5.16.912-.157-.771-3.979-.69-4.384.155-.775.365-1.832.58-2.916.121-.611.244-1.231.359-1.814l.6-3.01Z" transform="translate(-1246.102 -1134.815)" fill="#f7a491"/>
      <path id="Trazado_630436" data-name="Trazado 630436" d="M1279.416,1148.1c.048-.257.074-.408.074-.408l4.592-.114s-.267,1.354-.595,3.01l-.357,1.8a4.305,4.305,0,0,1-2.192-1.1,5.78,5.78,0,0,1-1.661-2.465C1279.334,1148.537,1279.381,1148.287,1279.416,1148.1Z" transform="translate(-1255.02 -1134.815)" fill="#f47458" opacity="0.5"/>
      <path id="Trazado_630437" data-name="Trazado 630437" d="M1272.818,1079.083a5.418,5.418,0,0,0-3.229,2.011c-1.357,1.751-2.819,7.167.551,10.111s6.7-.388,7.194-3.922S1277.728,1078.955,1272.818,1079.083Z" transform="translate(-1245.585 -1077.123)" fill="#f7a491"/>
      <path id="Trazado_630438" data-name="Trazado 630438" d="M1323.366,1115.831c-.213.852-.771,1.427-1.247,1.285s-.69-.948-.477-1.8.771-1.427,1.247-1.285S1323.579,1114.979,1323.366,1115.831Z" transform="translate(-1290.635 -1106.544)" fill="#f7a491"/>
      <path id="Trazado_630439" data-name="Trazado 630439" d="M1264.284,1078.711s-4.4,5.052-6.469,5.291-2.34,2.975-2.34,2.975.739-6.306,2.787-7.522S1264.284,1078.711,1264.284,1078.711Z" transform="translate(-1234.971 -1076.736)" fill="#0e2e35"/>
      <path id="Trazado_630440" data-name="Trazado 630440" d="M1263.045,1112.76c.168.914-.17,1.753-.756,1.873s-1.2-.524-1.365-1.439.17-1.753.756-1.873S1262.877,1111.846,1263.045,1112.76Z" transform="translate(-1239.525 -1104.267)" fill="#f7a491"/>
      <path id="Trazado_630441" data-name="Trazado 630441" d="M1254.6,1283.077l14.221,2.081a.782.782,0,0,1,.661.887l-2.776,18.973a.782.782,0,0,1-.887.661l-14.221-2.08a.782.782,0,0,1-.661-.887l2.776-18.973A.782.782,0,0,1,1254.6,1283.077Z" transform="translate(-1231.14 -1248.94)" fill="#184655"/>
      <path id="Trazado_630442" data-name="Trazado 630442" d="M1307.623,1283.369a.158.158,0,0,0-.134-.18l-5.932-.868a.159.159,0,0,0-.18.134l-.09.616,6.246.914Z" transform="translate(-1273.559 -1248.309)" fill="#13375b"/>
      <path id="Trazado_630443" data-name="Trazado 630443" d="M1316.72,1280.274a.946.946,0,1,0,.8,1.073A.946.946,0,0,0,1316.72,1280.274Zm-.225,1.536a.606.606,0,1,1,.688-.512A.606.606,0,0,1,1316.495,1281.81Z" transform="translate(-1285.646 -1246.579)" fill="#13375b"/>
      <path id="Trazado_630444" data-name="Trazado 630444" d="M1307.5,1287.228a.159.159,0,0,1,.075.159l-.09.617-6.246-.914a.782.782,0,0,0,.66.887l4.7.687a.782.782,0,0,0,.887-.66l.09-.617A.159.159,0,0,0,1307.5,1287.228Z" transform="translate(-1273.514 -1252.327)" fill="#355389"/>
      <path id="Trazado_630445" data-name="Trazado 630445" d="M1296.326,1142.1l-3.2-.017a1.4,1.4,0,0,0,1.475,1.264C1296.316,1143.4,1296.326,1142.1,1296.326,1142.1Z" transform="translate(-1266.685 -1130.188)" fill="#fff"/>
      <path id="Trazado_630446" data-name="Trazado 630446" d="M1210.814,1313.885l5.153.527s-.084,4.373,0,4.876c0,0,8.812,2.443,12.494,3.105,0,0,1.677-.95,2.355-1.252a16.455,16.455,0,0,1,2.905-.685c.4-.053.266.389-.081.543a3.351,3.351,0,0,0-1.5,1.093,2.8,2.8,0,0,0,1.112-.092c.385-.172.915-.535.923-.723s.1-.642.222-.617c.032.006.075.155.118.311s.085.3.121.449c.065.268.139.66.168.836a12.149,12.149,0,0,1-.214,1.9c-.063.718-.268,1.037-.647,1.221a9.38,9.38,0,0,1-2.215.448,14.889,14.889,0,0,1-4.067-.4c-.7-.079-11.923-1.192-11.923-1.192s-4.46-.642-4.756-1.41S1210.814,1313.885,1210.814,1313.885Z" transform="translate(-1197.334 -1274.897)" fill="#f7a491"/>
      <path id="Trazado_630447" data-name="Trazado 630447" d="M1213.615,1203.7s-1.626.771-3.056,4.1c-1.358,3.165-1.758,18.961-1.758,18.961l5.39-.9,2.739-7.365a13.508,13.508,0,0,0-1.4-13.433C1214.775,1204.032,1214.076,1203.4,1213.615,1203.7Z" transform="translate(-1195.659 -1182.029)" fill="#f7cc7f"/>
    </g>
    <rect id="Rectángulo_306949" data-name="Rectángulo 306949" width="22.878" height="22.878" transform="translate(452.171 187.526)" fill="#9bc1f9" opacity="0.6"/>
    <rect id="Rectángulo_306950" data-name="Rectángulo 306950" width="44.631" height="3.109" transform="translate(479.097 187.526)" fill="#9bc1f9" opacity="0.6"/>
    <rect id="Rectángulo_306951" data-name="Rectángulo 306951" width="30.12" height="3.109" transform="translate(479.097 194.116)" fill="#9bc1f9" opacity="0.6"/>
    <rect id="Rectángulo_306952" data-name="Rectángulo 306952" width="40.09" height="3.109" transform="translate(479.097 200.706)" fill="#9bc1f9" opacity="0.6"/>
    <g id="Grupo_954773" data-name="Grupo 954773" transform="translate(446.808 194.011)">
      <path id="Trazado_630448" data-name="Trazado 630448" d="M2172.446,1203.9c-.935-.76-8.167,2.413-8.076,3.518s-5.046,11.814-5.046,11.814l-8.879-7.08,0,0c-.078-.256-.92-3.01-.961-3.5-.043-.517-1.543-1.421-2.24-1.288s.6,1.007.681,1.168c.231.437-.662.6-.662.6s-2.536-.813-2.59-1.641-1.788,1.448-1.585,1.764,4.342,3.648,4.939,4.373c0,0,11.485,13.129,12.3,13.473.718.3,3.276-4.224,5.693-7.227S2175.369,1206.279,2172.446,1203.9Z" transform="translate(-2080.168 -1134.438)" fill="#f7a491"/>
      <path id="Trazado_630449" data-name="Trazado 630449" d="M2471.293,1793.662s1.578,1.54,1.614,2.1.14,6.62-.5,7.185-2.537.966-1.928,1.6c.46.48,4,.378,6.342.249.685-.038,1.543-5.5,1.814-6.3.394-1.166,1.351-3.792.993-4.6a6.828,6.828,0,0,0-2.185-1.969,10.749,10.749,0,0,1-2.42-2.577Z" transform="translate(-2355.84 -1627.655)" fill="#f48c7f"/>
      <path id="Trazado_630450" data-name="Trazado 630450" d="M2340.911,1838.966s1.412,3.99,1.414,4c.105.632.519,2.194.519,2.769,0,2.159-9.736-1.833-7.554-2.789a2.306,2.306,0,0,0,.882-1.513,5.057,5.057,0,0,0-.82-2.552Z" transform="translate(-2241.807 -1669.372)" fill="#f7a491"/>
      <g id="Grupo_954769" data-name="Grupo 954769" transform="translate(81.208 95.297)">
        <path id="Trazado_630451" data-name="Trazado 630451" d="M2261.787,1368.321s-.71,7.153-.71,7.259c0,11.57-2.294,34.171-1.857,36.346,1.064,5.306,12.517,32.372,12.517,32.372l6.19-.74-6.644-32.708,1.546-12.742,4.2-25.783Z" transform="translate(-2259.164 -1368.321)" fill="#50bfa5"/>
        <path id="Trazado_630452" data-name="Trazado 630452" d="M2306.12,1380.1l1.174,6.779,3.178,27.9,12.1,27.268s-1.7,3.968-4.214,4.525l-19.261-28-11.965-35.824.42-7.959Z" transform="translate(-2282.724 -1373.772)" fill="#96d9c9"/>
      </g>
      <path id="Trazado_630453" data-name="Trazado 630453" d="M2260.139,1160.34l8.583.876s.394-7.036.394-10.393c0-4.072-.347-9.317-.839-9.2a7.482,7.482,0,0,0-4.345,2.6C2260.1,1149.479,2260.139,1160.34,2260.139,1160.34Z" transform="translate(-2178.777 -1082.073)" fill="#b75742"/>
      <path id="Trazado_630454" data-name="Trazado 630454" d="M2268.294,1148.658c-.18,1.242-3.479,35-3.479,35,15.628,7.548,24.251,1.344,24.251,1.344s-.511-23.7.1-26.928c.406-2.134.911-16.318-.472-16.715a34.631,34.631,0,0,0-6.028-1.281c-1.894-.2-9.25-.31-10.566.132A16.758,16.758,0,0,0,2268.294,1148.658Z" transform="translate(-2182.716 -1080.627)" fill="#f47458"/>
      <path id="Trazado_630455" data-name="Trazado 630455" d="M2473.975,1805.449s-3.638,10.242-5.061,10.736c-.378.131-2.192.464-2.535,1.267a3.481,3.481,0,0,0,0,1.049h7.582s.959-4.512,1.338-6.5c0,0,2.007-4.844,1.784-5.284S2473.975,1805.449,2473.975,1805.449Z" transform="translate(-2352.453 -1641.214)" fill="#f47458"/>
      <path id="Trazado_630456" data-name="Trazado 630456" d="M2303.105,1868.047l-1.115-3.522a9.681,9.681,0,0,1-3.512.825,35.474,35.474,0,0,1-3.456-.825c-4.673,1.538-8.5,2.285-7.8,3.522h15.888Z" transform="translate(-2201.515 -1690.973)" fill="#f47458"/>
      <g id="Grupo_954770" data-name="Grupo 954770" transform="translate(79.111 83.862)">
        <path id="Trazado_630457" data-name="Trazado 630457" d="M2246.915,1304.621a2.014,2.014,0,0,1-.236-.175c.278-3.307.228-6.511-.81-7.594.025-.052.252-.534.489-1.034,1.2.931,1.774,3.4,1.55,7.414a6.861,6.861,0,0,1-.159.831C2247.4,1304.445,2247.084,1304.692,2246.915,1304.621Z" transform="translate(-2245.869 -1295.817)" fill="#f7a491"/>
      </g>
      <path id="Trazado_630458" data-name="Trazado 630458" d="M2333.14,1097.529l1.007,6.64s-3.679,7.906-5.875,7.22c-1.843-.575-.709-7.57-.709-7.57s1-3.757.7-5.636S2333.14,1097.529,2333.14,1097.529Z" transform="translate(-2235.278 -1044.607)" fill="#f7a491"/>
      <path id="Trazado_630459" data-name="Trazado 630459" d="M2333.178,1098.182c-.3-1.88,4.874-.653,4.874-.653l.083.551a3.053,3.053,0,0,1-.561.925,6.814,6.814,0,0,1-4.524,2.048A10.262,10.262,0,0,0,2333.178,1098.182Z" transform="translate(-2240.188 -1044.607)" fill="#f47458"/>
      <g id="Grupo_954771" data-name="Grupo 954771" transform="translate(89.875 38.031)">
        <path id="Trazado_630460" data-name="Trazado 630460" d="M2322.957,1028.992c.146-.053,1.172,7.562-.775,9.657s-5.741,2.781-7.1,1.131c-1.505-1.825-1.429-10.01,1.6-12.165S2322.957,1028.992,2322.957,1028.992Z" transform="translate(-2314.121 -1023.494)" fill="#f7a491"/>
        <path id="Trazado_630461" data-name="Trazado 630461" d="M2323.605,1005.257a8.407,8.407,0,0,1,4.412,2.517c1.062.125,2.507.712,4,3.182a6.175,6.175,0,0,1-1.655,8.05,4.809,4.809,0,0,0-2.1,3.556l-.338-.986a5.512,5.512,0,0,1-.267-2.322,4.535,4.535,0,0,1,.345-1.4c.514-1.1-1.1-1.834-1.556-2.751-.349-.706-.366-2.321-.916-3.488l-.656-.891a4.175,4.175,0,0,0-3-.846C2320.39,1010.212,2320.6,1004.644,2323.605,1005.257Z" transform="translate(-2319.895 -1005.21)" fill="#0e2e35"/>
        <path id="Trazado_630462" data-name="Trazado 630462" d="M2356.252,1067.651c-.016.929.407,1.69.943,1.7s.984-.737,1-1.666-.407-1.69-.943-1.7S2356.268,1066.722,2356.252,1067.651Z" transform="translate(-2349.607 -1056.401)" fill="#f7a491"/>
      </g>
      <path id="Trazado_630463" data-name="Trazado 630463" d="M2320.529,1089.349l-2.935-.152a1.285,1.285,0,0,0,1.3,1.222C2320.464,1090.546,2320.529,1089.349,2320.529,1089.349Z" transform="translate(-2227.171 -1037.921)" fill="#fff"/>
      <g id="Grupo_954772" data-name="Grupo 954772" transform="translate(0 0)">
        <path id="Trazado_630464" data-name="Trazado 630464" d="M2172.536,1188.613q1.034-1.059,1.931-2.178l12.811,12.51c.787.769.516,2.323-.605,3.472s-2.669,1.457-3.457.688l-12.811-12.51C2171.134,1189.979,2171.847,1189.319,2172.536,1188.613Z" transform="translate(-2103.195 -1119.823)" fill="#0e2e35"/>
        <ellipse id="Elipse_7763" data-name="Elipse 7763" cx="32.311" cy="32.511" rx="32.311" ry="32.511" transform="matrix(0.699, -0.715, 0.715, 0.699, 0, 46.224)" fill="#c5ddf9" opacity="0.6"/>
        <path id="Trazado_630465" data-name="Trazado 630465" d="M1885.54,950.041a32.283,32.283,0,0,1-20.572,10.069l-35.047-35.623c.007-.067.012-.134.019-.2a32.5,32.5,0,0,1,10.193-20.4Z" transform="translate(-1816.408 -881.836)" fill="#fff" style="mix-blend-mode: soft-light;isolation: isolate"/>
        <path id="Trazado_630466" data-name="Trazado 630466" d="M1949.72,848.938l32.41,32.943c-.016,1-.074,2-.183,3.012a32.571,32.571,0,0,1-4.07,12.657l-43.771-44.49A32.012,32.012,0,0,1,1949.72,848.938Z" transform="translate(-1904.163 -835.552)" fill="#fff" style="mix-blend-mode: soft-light;isolation: isolate"/>
        <path id="Trazado_630467" data-name="Trazado 630467" d="M1813.635,885.123a36.529,36.529,0,1,0-.774-51.813A36.642,36.642,0,0,0,1813.635,885.123Zm2.947-3.017a32.311,32.311,0,1,1,45.835-.4A32.412,32.412,0,0,1,1816.582,882.106Z" transform="translate(-1793.323 -813.159)" fill="#184655"/>
        <path id="Trazado_630468" data-name="Trazado 630468" d="M1827.061,895.412a34.312,34.312,0,1,0-.727-48.669A34.418,34.418,0,0,0,1827.061,895.412Zm1.4-1.431a32.311,32.311,0,1,1,45.835-.4A32.412,32.412,0,0,1,1828.459,893.981Z" transform="translate(-1805.199 -825.034)" fill="#50bfa5" opacity="0.5" style="mix-blend-mode: multiply;isolation: isolate"/>
        <path id="Trazado_630469" data-name="Trazado 630469" d="M2284.465,1298.858l1.99-2.065a5.19,5.19,0,0,0-.134-7.339l-36.984-35.857a5.19,5.19,0,0,0-7.339.134l-1.991,2.065a5.19,5.19,0,0,0,.134,7.339l36.985,35.857A5.19,5.19,0,0,0,2284.465,1298.858Z" transform="translate(-2160.596 -1175.169)" fill="#184655"/>
      </g>
      <path id="Trazado_630470" data-name="Trazado 630470" d="M2432.5,1226.155a.925.925,0,0,0,0-.217c-.23-2.338-2.171-21.966-2.5-22.8-.3-.753-9-13.2-9-13.2l-4.278,5.829,8.371,11.166c.188.709,3.208,13.96,3.208,13.96s.619,2.415.9,3.862c-.126.349-.25.678-.36.948a8.725,8.725,0,0,1-.9,1.45,9.932,9.932,0,0,0-1.069,1.891c-.089.341-.248,1.049-.339,1.477s-.214.925-.235,1.157a2.231,2.231,0,0,1-.27.622.373.373,0,0,0,.441.539c.3-.1.541-.495.687-.74.412-.693.632-1.957.734-1.89s.463,2.212.52,2.454a26.381,26.381,0,0,0,.735,3.189c.244.455.568.379.654.094.073-.245-.27-3.73-.27-3.73s-.043-.444.152-.306.513,3.3.648,3.766.444.708.706.336c.319-.453-.229-3.808-.229-3.808s-.062-.422.119-.383.406,2.736.546,2.969a.355.355,0,0,0,.663-.072,16.579,16.579,0,0,0-.316-3.449s.025-.238.138-.159.469,2.364.7,2.575a.247.247,0,0,0,.358.005c.427-.291-.228-2.464-.221-3.545s-.495-2.3-.345-3.582C2432.458,1226.477,2432.484,1226.279,2432.5,1226.155Z" transform="translate(-2310.671 -1122.771)" fill="#f8a492"/>
      <path id="Trazado_630471" data-name="Trazado 630471" d="M2407.526,1163.541l-7.436,4.992s-4.191-6.236-6.44-8.456c-2.818-2.781,1.027-11.3,2.842-10.819C2400.554,1150.336,2407.526,1163.541,2407.526,1163.541Z" transform="translate(-2290.39 -1088.493)" fill="#f47458"/>
    </g>
    <rect id="Rectángulo_306953" data-name="Rectángulo 306953" width="369.984" height="2.208" transform="translate(209.261 370.477)" fill="#0e2e35"/>
  </g>
</svg>
