<svg xmlns="http://www.w3.org/2000/svg" width="359" height="195.882" viewBox="0 0 359 195.882">
  <g id="Grupo_954873" data-name="Grupo 954873" transform="translate(-40.415 -108.44)">
    <path id="Trazado_630472" data-name="Trazado 630472" d="M56.711,300.761c-44.339-34.438,18.237-44.534-3.288-73.631-14.412-19.481-9.6-53.143,14.119-62.448,29.252-11.477,69.37,10.776,93.968-14.88,17.749-18.512,33.739-36.282,61.379-40.587,48.051-7.484,50.691,41.718,87.551,42.9,22.6.726,45.1-10.2,63.438,9.391,26.341,28.134,31.553,70.909,19.091,106.839-4.587,13.227-13.9,32.254-13.9,32.254Z" transform="translate(0)" fill="#e3eaff"/>
    <g id="Grupo_954775" data-name="Grupo 954775" transform="translate(161.399 255.446)">
      <path id="Trazado_630473" data-name="Trazado 630473" d="M1344.793,1432.814s1.919,3.483-1.143,9.674c-3.122,6.307-2.552,10.713-2.552,10.713l-2.889,2.722s-.49-7.009,2.26-11.958A39.618,39.618,0,0,0,1344.793,1432.814Z" transform="translate(-1315.108 -1432.814)" fill="#95a6db"/>
      <path id="Trazado_630474" data-name="Trazado 630474" d="M1397.972,1450.471s.512,2.886-2.944,6.9c-3.531,4.083-4.125,7.417-4.125,7.417l-2.372,1.887s1.041-5.616,4.016-8.77A34.028,34.028,0,0,0,1397.972,1450.471Z" transform="translate(-1359.874 -1448.511)" fill="#95a6db"/>
      <path id="Trazado_630475" data-name="Trazado 630475" d="M1300.98,1492.236s-2.59,1.788-4.257,9.052c-1.36,5.92-.017,9.026-.872,12.653l3.67-3.934c.231-2.575-1.419-4.278-.446-9.706A63.274,63.274,0,0,1,1300.98,1492.236Z" transform="translate(-1277.482 -1485.64)" fill="#95a6db"/>
      <path id="Trazado_630476" data-name="Trazado 630476" d="M1130.615,1689.4s-1.154,2.937,1.512,9.89c2.172,5.674,5.126,6.438,5.691,7.747l1.283-2.856c-1.569-2.23-3.353-1.969-5.572-7.018A64.156,64.156,0,0,1,1130.615,1689.4Z" transform="translate(-1130.366 -1660.915)" fill="#95a6db"/>
      <path id="Trazado_630477" data-name="Trazado 630477" d="M1244.689,1532.932a53.99,53.99,0,0,0-2.214,8.4c-.6,4.65,1.224,7.148.948,11.942l-2.582,3.107a20.728,20.728,0,0,1-1.269-10.748C1241.207,1536.053,1244.689,1532.932,1244.689,1532.932Z" transform="translate(-1227.232 -1521.819)" fill="#95a6db"/>
      <path id="Trazado_630478" data-name="Trazado 630478" d="M1183.318,1554.244a31.256,31.256,0,0,1,.167,9.093,24.872,24.872,0,0,0,3.561,16.113l-1.923,1.821s-5.9-4.863-4.637-12.519C1181.825,1560.661,1183.318,1554.244,1183.318,1554.244Z" transform="translate(-1174.766 -1540.765)" fill="#95a6db"/>
      <path id="Trazado_630479" data-name="Trazado 630479" d="M1300.975,1656.325s2.167-.752,11.141.453c5.751.775,4.082-1.418,9.5.264-4.137.336-5.566,3.345-10.957,2.936a82.785,82.785,0,0,0-12.952.024Z" transform="translate(-1279.137 -1631.309)" fill="#95a6db"/>
      <path id="Trazado_630480" data-name="Trazado 630480" d="M1274.535,1709.4s-3.558,4.416-11.523,3.792a44.86,44.86,0,0,0-14.594,1.293l2.432-4s3.318-2.374,11.537-.929A40.9,40.9,0,0,0,1274.535,1709.4Z" transform="translate(-1235.314 -1678.425)" fill="#95a6db"/>
      <path id="Trazado_630481" data-name="Trazado 630481" d="M1231.266,1777.335s-3.558,4.417-11.523,3.792a44.85,44.85,0,0,0-14.594,1.293l2.432-4s3.318-2.374,11.537-.929A40.894,40.894,0,0,0,1231.266,1777.335Z" transform="translate(-1196.848 -1738.818)" fill="#95a6db"/>
      <path id="Trazado_630482" data-name="Trazado 630482" d="M1403.833,1579.243s-2.559,2.286-7.577,1.7a24.85,24.85,0,0,0-8.841.476l1.443-1.49s2.1-1.5,7.292-.589A25.923,25.923,0,0,0,1403.833,1579.243Z" transform="translate(-1358.883 -1562.816)" fill="#95a6db"/>
      <path id="Trazado_630483" data-name="Trazado 630483" d="M1340.378,1609.231a56.808,56.808,0,0,1,9.687.176c3.636.334,8.489-1.823,8.489-1.823s-3.766,5.186-9.2,4.346a50.069,50.069,0,0,0-12.4-.166Z" transform="translate(-1314.024 -1588.185)" fill="#95a6db"/>
      <path id="Trazado_630484" data-name="Trazado 630484" d="M1396.95,1516.739s3.292-5.089,8.77-6.065a29.606,29.606,0,0,0,9.224-3.382s-3.062,5.255-8.186,5.609a14.384,14.384,0,0,0-8.031,3.437Z" transform="translate(-1367.359 -1499.024)" fill="#95a6db"/>
      <path id="Trazado_630485" data-name="Trazado 630485" d="M1194.915,1609.512l-.819-.348c2.15-5.052,11.8-21.447,23.852-29.572l.5.739C1206.56,1588.344,1197.04,1604.526,1194.915,1609.512Z" transform="translate(-1187.022 -1563.3)" fill="#95a6db"/>
    </g>
    <g id="Grupo_954776" data-name="Grupo 954776" transform="translate(321.602 253.831)">
      <path id="Trazado_630486" data-name="Trazado 630486" d="M2608.081,1461.233c-1.281.656-2.616.9-3.232,0-.533-.775,1.38-2.092,3.232-2.859v-3.218a7.226,7.226,0,0,1-3.232,1.276c-1.65.108-1.636-.832,1.18-2.441a15.3,15.3,0,0,0,2.052-1.387v-8.956c-1.915,3.079-5.844,9.006-7.192,8.165-1.884-1.162,6.592-8.644,7.059-11.1.283-1.5-2.864-7.841-2.864-7.841s-5.457,12.961-8.08,12.013c-1.263-.454,6.356-11.716,5.232-13.761s-4.27-3.731-4.27-3.731-2.593,9.914-3.951,8.765c-1.092-.922,2.344-7.428,1.634-10.058a6.986,6.986,0,0,0-4.046-4.7s-1.695,5.983-3.661,4.751c-.771-.483,1.975-4.731,1.728-6.61-2.636.141-4.922.1-6.644-1.276-.036,1.456-2.065,3.158-4.944,4.962,1.047,2.432,6.378,3.342,5.668,5.133-.589,1.488-6.794-2.612-6.794-2.612s-2.247,2.96-1.124,6c.881,2.36,6.648,4.753,5.677,5.938-1.2,1.463-7.52-4.01-7.36-3.484,1.223,4-.512,8.85-.512,8.85,2.832,7.383,14.188,9.3,12.617,11.064-1.4,1.573-12.258-6.005-12.258-6.005l1.27,5.281s5.92,5.9,13.71,7.615c-4.019,1.969-12.6-3.077-12.6-3.077a27.955,27.955,0,0,0,3.935,8.026h27.766Zm-29.941-30.977c.449-.578,5.913,1.9,5.151,3.331S2577.133,1431.543,2578.139,1430.256Zm8.875,17.249c-.465,1.409-4.254-.027-6.383-1.364-2.733-1.717-4.142-3.753-3.256-4.675.968-1.009,2.818.935,5.324,2.131C2585.675,1445.019,2587.464,1446.143,2587.015,1447.505Zm.339-6.954c-.537,1.27-4-.169-3.708-1.573C2583.837,1438.057,2587.891,1439.281,2587.354,1440.551Zm4.785,15.431c-.555,1.5-4.313-.272-3.688-1.629.485-1.054,4.243.132,3.688,1.629Zm-1.268-22.5c-1.494-.5.946-5.349,2.3-4.551s-.827,5.046-2.3,4.551Zm2.472-6.266a.739.739,0,1,1,.935-.47.739.739,0,0,1-.935.47l-.008,0Z" transform="translate(-2573.638 -1418.27)" fill="#95a6db"/>
      <path id="Trazado_630487" data-name="Trazado 630487" d="M2694.881,1519.994l12.031,36.4h1.621Z" transform="translate(-2681.423 -1508.703)" fill="#3a62ad"/>
      <path id="Trazado_630488" data-name="Trazado 630488" d="M2690.648,1702.4l8.806,1.978.067.964Z" transform="translate(-2677.66 -1670.865)" fill="#3a62ad"/>
      <path id="Trazado_630489" data-name="Trazado 630489" d="M2743.25,1589.515l4.529-8.5-4.931,7.421Z" transform="translate(-2724.065 -1562.954)" fill="#3a62ad"/>
      <path id="Trazado_630490" data-name="Trazado 630490" d="M2786.873,1735.117l5.684-5.5-5.771,3.933Z" transform="translate(-2763.126 -1695.058)" fill="#3a62ad"/>
    </g>
    <g id="Grupo_954777" data-name="Grupo 954777" transform="translate(93.46 253.831)">
      <path id="Trazado_630491" data-name="Trazado 630491" d="M518.3,1465.964h27.766a27.955,27.955,0,0,0,3.935-8.026s-8.579,5.046-12.6,3.077c7.79-1.713,13.71-7.615,13.71-7.615l1.27-5.281s-10.855,7.578-12.258,6.005c-1.571-1.769,9.786-3.681,12.617-11.064,0,0-1.735-4.854-.512-8.85.16-.526-6.16,4.947-7.361,3.484-.971-1.185,4.8-3.578,5.677-5.938,1.124-3.041-1.124-6-1.124-6s-6.205,4.1-6.794,2.612c-.71-1.791,4.621-2.7,5.668-5.133-2.879-1.8-4.909-3.506-4.945-4.962-1.722,1.375-4.007,1.418-6.644,1.276-.247,1.879,2.5,6.127,1.728,6.61-1.967,1.232-3.661-4.751-3.661-4.751a6.985,6.985,0,0,0-4.045,4.7c-.71,2.63,2.726,9.136,1.634,10.058-1.357,1.148-3.951-8.765-3.951-8.765s-3.146,1.686-4.27,3.731,6.5,13.307,5.232,13.761c-2.623.948-8.08-12.013-8.08-12.013s-3.146,6.345-2.863,7.841c.467,2.452,8.943,9.934,7.059,11.1-1.349.841-5.277-5.086-7.192-8.165v8.956a15.3,15.3,0,0,0,2.052,1.387c2.816,1.609,2.829,2.549,1.18,2.441a7.226,7.226,0,0,1-3.232-1.276v3.218c1.852.766,3.765,2.083,3.232,2.859-.616.9-1.951.656-3.232,0Zm24.79-32.377c-.762-1.427,4.7-3.908,5.151-3.331C549.245,1431.543,543.849,1435.014,543.087,1433.586Zm.591,10.01c2.506-1.2,4.356-3.14,5.324-2.131.886.922-.524,2.958-3.257,4.675-2.128,1.338-5.918,2.774-6.383,1.364C538.913,1446.143,540.7,1445.019,543.678,1443.6Zm-.946-4.619c.292,1.4-3.171,2.843-3.708,1.573S542.541,1438.057,542.732,1438.978Zm-8.493,17c-.555-1.5,3.2-2.683,3.688-1.629.625,1.357-3.133,3.126-3.688,1.629Zm1.268-22.5c-1.477.495-3.661-3.753-2.3-4.551s3.8,4.048,2.3,4.551Zm-2.468-6.264-.008,0a.741.741,0,1,1,.472-.939.739.739,0,0,1-.472.939Z" transform="translate(-518.297 -1418.27)" fill="#95a6db"/>
      <path id="Trazado_630492" data-name="Trazado 630492" d="M598.017,1519.994l-12.031,36.4h-1.62Z" transform="translate(-577.032 -1508.703)" fill="#3a62ad"/>
      <path id="Trazado_630493" data-name="Trazado 630493" d="M640.517,1702.4l-8.806,1.978-.067.964Z" transform="translate(-619.063 -1670.865)" fill="#3a62ad"/>
      <path id="Trazado_630494" data-name="Trazado 630494" d="M619.489,1589.515l-4.529-8.5,4.931,7.421Z" transform="translate(-604.23 -1562.954)" fill="#3a62ad"/>
      <path id="Trazado_630495" data-name="Trazado 630495" d="M569.134,1735.117l-5.684-5.5,5.771,3.933Z" transform="translate(-558.438 -1695.058)" fill="#3a62ad"/>
    </g>
    <g id="Grupo_954778" data-name="Grupo 954778" transform="translate(371.591 259.796)">
      <path id="Trazado_630496" data-name="Trazado 630496" d="M3026.394,1653.041q-3.886-4.829-1.5-12.768Q3029.043,1647.451,3026.394,1653.041Z" transform="translate(-3023.985 -1621.595)" fill="#95a6db"/>
      <path id="Trazado_630497" data-name="Trazado 630497" d="M3063.141,1595.263q-2.835-4.889.409-11.708Q3066.305,1590.6,3063.141,1595.263Z" transform="translate(-3057.62 -1571.172)" fill="#95a6db"/>
      <path id="Trazado_630498" data-name="Trazado 630498" d="M3099.576,1535.689q-1.981-4.989,2.02-10.945Q3103.213,1531.743,3099.576,1535.689Z" transform="translate(-3090.602 -1518.89)" fill="#95a6db"/>
      <path id="Trazado_630499" data-name="Trazado 630499" d="M3145.621,1486.618q.1,6.073-3.6,8.7Q3141.262,1490.831,3145.621,1486.618Z" transform="translate(-3128.816 -1484.995)" fill="#95a6db"/>
      <path id="Trazado_630500" data-name="Trazado 630500" d="M3188.635,1472q-.821,5.018-4.254,6.634Q3184.421,1474.833,3188.635,1472Z" transform="translate(-3166.577 -1472.001)" fill="#95a6db"/>
      <path id="Trazado_630501" data-name="Trazado 630501" d="M3208.244,1495.559q1.4-3.535,6.348-4.674Q3212.026,1495.278,3208.244,1495.559Z" transform="translate(-3187.791 -1488.789)" fill="#95a6db"/>
      <path id="Trazado_630502" data-name="Trazado 630502" d="M3078.052,1716.588q-5.18,6.567-11.422,6.144Q3069.714,1717.306,3078.052,1716.588Z" transform="translate(-3061.896 -1689.439)" fill="#95a6db"/>
      <path id="Trazado_630503" data-name="Trazado 630503" d="M3109.906,1629.988q3.889-3.32,10.5-1.538Q3114.589,1632.044,3109.906,1629.988Z" transform="translate(-3100.368 -1610.531)" fill="#95a6db"/>
      <path id="Trazado_630504" data-name="Trazado 630504" d="M3147.588,1588.233q-5.063,3.132-9.139,1.338Q3141.83,1586.679,3147.588,1588.233Z" transform="translate(-3125.743 -1574.848)" fill="#95a6db"/>
      <path id="Trazado_630505" data-name="Trazado 630505" d="M3175.361,1552.411q3.385-2.882,9.138-1.338Q3179.434,1554.205,3175.361,1552.411Z" transform="translate(-3158.559 -1541.817)" fill="#95a6db"/>
      <path id="Trazado_630506" data-name="Trazado 630506" d="M3034.131,1569.055c2.174-9.644,2.436-8.869,4.706-14.475q.918-2.273,1.961-4.312a43.292,43.292,0,0,1,5.236-7.756q3.467-4.271,6.029-5.628l.162-.191a.154.154,0,0,1,.17-.1.267.267,0,0,1,.212-.006.5.5,0,0,1,.137.182.265.265,0,0,1,.006.212l-.06.146a.572.572,0,0,1-.182.14v.035l-.156.065a22.915,22.915,0,0,0-5.846,5.5,42.425,42.425,0,0,0-5.122,7.714,45.22,45.22,0,0,0-1.966,4.228l-.15.377q3.472-4.429,11-3.959-5.493,5.163-11,3.959c-2.2,5.521-2.395,4.582-4.511,13.985Z" transform="translate(-3033.005 -1529.4)" fill="#95a6db"/>
    </g>
    <g id="Grupo_954779" data-name="Grupo 954779" transform="translate(47.55 260.986)">
      <path id="Trazado_630507" data-name="Trazado 630507" d="M316.17,1663.767q3.886-4.829,1.5-12.767Q313.52,1658.178,316.17,1663.767Z" transform="translate(-291.778 -1632.322)" fill="#95a6db"/>
      <path id="Trazado_630508" data-name="Trazado 630508" d="M282.846,1605.989q2.835-4.888-.409-11.708Q279.682,1601.322,282.846,1605.989Z" transform="translate(-261.567 -1581.898)" fill="#95a6db"/>
      <path id="Trazado_630509" data-name="Trazado 630509" d="M245.129,1546.416q1.981-4.989-2.019-10.945Q241.493,1542.47,245.129,1546.416Z" transform="translate(-227.303 -1529.616)" fill="#95a6db"/>
      <path id="Trazado_630510" data-name="Trazado 630510" d="M194.722,1497.345q-.1,6.073,3.6,8.7Q199.08,1501.558,194.722,1497.345Z" transform="translate(-184.727 -1495.722)" fill="#95a6db"/>
      <path id="Trazado_630511" data-name="Trazado 630511" d="M147.417,1482.726q.82,5.018,4.254,6.634Q151.631,1485.558,147.417,1482.726Z" transform="translate(-142.674 -1482.726)" fill="#95a6db"/>
      <path id="Trazado_630512" data-name="Trazado 630512" d="M111.038,1506.285q-1.4-3.535-6.348-4.674Q107.255,1506,111.038,1506.285Z" transform="translate(-104.69 -1499.515)" fill="#95a6db"/>
      <path id="Trazado_630513" data-name="Trazado 630513" d="M211.087,1717.968q5.18,6.567,11.422,6.144Q219.425,1718.686,211.087,1717.968Z" transform="translate(-199.277 -1691.856)" fill="#95a6db"/>
      <path id="Trazado_630514" data-name="Trazado 630514" d="M176.091,1640.715q-3.889-3.32-10.5-1.538Q171.407,1642.771,176.091,1640.715Z" transform="translate(-158.827 -1621.258)" fill="#95a6db"/>
      <path id="Trazado_630515" data-name="Trazado 630515" d="M149.34,1598.959q5.063,3.132,9.139,1.338Q155.1,1597.4,149.34,1598.959Z" transform="translate(-144.384 -1585.574)" fill="#95a6db"/>
      <path id="Trazado_630516" data-name="Trazado 630516" d="M121.568,1563.137q-3.385-2.882-9.139-1.338Q117.5,1564.931,121.568,1563.137Z" transform="translate(-111.57 -1552.543)" fill="#95a6db"/>
      <path id="Trazado_630517" data-name="Trazado 630517" d="M186.728,1579.781c-2.174-9.644-2.436-8.869-4.706-14.475q-.918-2.273-1.961-4.312a43.277,43.277,0,0,0-5.236-7.756q-3.467-4.271-6.029-5.628l-.161-.191a.154.154,0,0,0-.17-.1.265.265,0,0,0-.212-.006.494.494,0,0,0-.137.182.267.267,0,0,0-.006.212l.06.146a.577.577,0,0,0,.182.14v.035l.155.065a22.913,22.913,0,0,1,5.846,5.5,42.423,42.423,0,0,1,5.122,7.714,45.236,45.236,0,0,1,1.966,4.229l.15.376q-3.472-4.428-11-3.959,5.493,5.163,11,3.959c2.2,5.521,2.394,4.582,4.511,13.985Z" transform="translate(-161.054 -1540.127)" fill="#95a6db"/>
    </g>
    <g id="Grupo_954780" data-name="Grupo 954780" transform="translate(40.539 282.871)">
      <path id="Trazado_630518" data-name="Trazado 630518" d="M154.039,1687.934q-.887-4.075-6.047-6.178Q149.984,1686.968,154.039,1687.934Z" transform="translate(-136.175 -1681.548)" fill="#95a6db"/>
      <path id="Trazado_630519" data-name="Trazado 630519" d="M97.718,1679.887q2.57,3.957,6.1,4.047Q102.354,1680.713,97.718,1679.887Z" transform="translate(-91.481 -1679.887)" fill="#95a6db"/>
      <path id="Trazado_630520" data-name="Trazado 630520" d="M60.878,1690.988q2.7,2.878,5.618,2.431Q64.822,1690.986,60.878,1690.988Z" transform="translate(-58.73 -1689.756)" fill="#95a6db"/>
      <path id="Trazado_630521" data-name="Trazado 630521" d="M47.648,1716.76q-2.432-1.673-6.118-.26Q45.088,1718.22,47.648,1716.76Z" transform="translate(-41.53 -1711.861)" fill="#95a6db"/>
      <path id="Trazado_630522" data-name="Trazado 630522" d="M201.2,1810.581q6.186,1.986,10.026-.993Q206.886,1807.428,201.2,1810.581Z" transform="translate(-183.478 -1794.411)" fill="#95a6db"/>
      <path id="Trazado_630523" data-name="Trazado 630523" d="M150.027,1754.68q-3.946-.454-7.436,3.563Q147.9,1758.036,150.027,1754.68Z" transform="translate(-131.373 -1746.337)" fill="#95a6db"/>
      <path id="Trazado_630524" data-name="Trazado 630524" d="M114.4,1742.71q4.621-.177,6.47-3.1Q117.44,1739.212,114.4,1742.71Z" transform="translate(-106.314 -1732.945)" fill="#95a6db"/>
      <path id="Trazado_630525" data-name="Trazado 630525" d="M80.956,1731.655q-3.431-.39-6.47,3.1Q79.109,1734.577,80.956,1731.655Z" transform="translate(-70.828 -1725.874)" fill="#95a6db"/>
      <path id="Trazado_630526" data-name="Trazado 630526" d="M129.076,1735.063c-5.583-5.273-5.415-4.659-9.309-7.289q-1.577-1.067-3.133-1.929a33.618,33.618,0,0,0-6.738-2.728,17.174,17.174,0,0,0-6.326-1.013l-.187-.053a.12.12,0,0,0-.154.009.209.209,0,0,0-.139.088.387.387,0,0,0-.009.177.208.208,0,0,0,.088.139l.1.068a.452.452,0,0,0,.178.011l.015.023.129-.025a17.8,17.8,0,0,1,6.154,1.012,32.962,32.962,0,0,1,6.646,2.751,35.126,35.126,0,0,1,3.1,1.873l.26.178q-4.158-1.349-8.808,2.219,5.779.946,8.808-2.219c3.81,2.606,3.53,1.915,8.971,7.057Z" transform="translate(-96.244 -1717.349)" fill="#95a6db"/>
    </g>
    <g id="Grupo_954781" data-name="Grupo 954781" transform="translate(227.942 261.534)">
      <path id="Trazado_630527" data-name="Trazado 630527" d="M1964.82,1666.53q3.794-5.293.83-13.48Q1961.714,1660.821,1964.82,1666.53Z" transform="translate(-1937.521 -1634.692)" fill="#95a6db"/>
      <path id="Trazado_630528" data-name="Trazado 630528" d="M1925.487,1608.453q2.688-5.293-1.112-12.257Q1921.9,1603.743,1925.487,1608.453Z" transform="translate(-1901.883 -1584.149)" fill="#95a6db"/>
      <path id="Trazado_630529" data-name="Trazado 630529" d="M1881.473,1548.531q1.786-5.349-2.757-11.363Q1877.428,1544.6,1881.473,1548.531Z" transform="translate(-1861.915 -1531.673)" fill="#95a6db"/>
      <path id="Trazado_630530" data-name="Trazado 630530" d="M1824.063,1500.233q.251,6.376,4.289,8.92Q1828.88,1504.4,1824.063,1500.233Z" transform="translate(-1813.606 -1498.838)" fill="#95a6db"/>
      <path id="Trazado_630531" data-name="Trazado 630531" d="M1773.567,1487.664q1.154,5.216,4.849,6.71Q1778.153,1490.389,1773.567,1487.664Z" transform="translate(-1768.715 -1487.664)" fill="#95a6db"/>
      <path id="Trazado_630532" data-name="Trazado 630532" d="M1736.783,1514.5q-1.67-3.627-6.931-4.532Q1732.8,1514.424,1736.783,1514.5Z" transform="translate(-1729.852 -1507.49)" fill="#95a6db"/>
      <path id="Trazado_630533" data-name="Trazado 630533" d="M1843.618,1741.118q5.817,6.586,12.34,5.778Q1852.406,1741.385,1843.618,1741.118Z" transform="translate(-1830.99 -1712.985)" fill="#95a6db"/>
      <path id="Trazado_630534" data-name="Trazado 630534" d="M1813.161,1649.546q-4.273-3.255-11.108-1Q1808.368,1651.977,1813.161,1649.546Z" transform="translate(-1794.039 -1629.868)" fill="#95a6db"/>
      <path id="Trazado_630535" data-name="Trazado 630535" d="M1782.625,1607.588q5.493,2.99,9.664.87Q1788.573,1605.622,1782.625,1607.588Z" transform="translate(-1776.767 -1593.561)" fill="#95a6db"/>
      <path id="Trazado_630536" data-name="Trazado 630536" d="M1751.4,1571.637q-3.719-2.826-9.665-.87Q1747.232,1573.757,1751.4,1571.637Z" transform="translate(-1740.416 -1560.832)" fill="#95a6db"/>
      <path id="Trazado_630537" data-name="Trazado 630537" d="M1820.613,1587.047c-2.844-9.989-3.073-9.16-5.781-14.909q-1.1-2.331-2.308-4.409a45.448,45.448,0,0,0-5.945-7.83q-3.887-4.278-6.652-5.552l-.18-.191a.162.162,0,0,0-.185-.1.28.28,0,0,0-.222.006.52.52,0,0,0-.133.2.281.281,0,0,0,.006.223l.072.15a.612.612,0,0,0,.2.136v.037l.167.06a24.068,24.068,0,0,1,6.453,5.432,44.567,44.567,0,0,1,5.823,7.793,47.569,47.569,0,0,1,2.309,4.321l.179.386q-3.9-4.443-11.773-3.51,6.063,5.1,11.773,3.51c2.627,5.663,2.779,4.667,5.548,14.406Z" transform="translate(-1791.489 -1546.674)" fill="#95a6db"/>
    </g>
    <path id="Trazado_630538" data-name="Trazado 630538" d="M495.36,1843.077h-326.2a1.877,1.877,0,0,1-1.877-1.877h0a1.877,1.877,0,0,1,1.877-1.877h326.2a1.877,1.877,0,0,1,1.877,1.877h0A1.877,1.877,0,0,1,495.36,1843.077Z" transform="translate(-112.786 -1538.755)" fill="#95a6db"/>
    <g id="Grupo_954788" data-name="Grupo 954788" transform="translate(95.48 145.132)">
      <g id="c" transform="translate(1.606 20.084)">
        <path id="Trazado_630539" data-name="Trazado 630539" d="M556.525,631.963,556.078,629s2.078-.324,1.968-1.785l-2.186-.026s-1.176-1.078.174-4.357c.313-3.085-1.722-1.538-2-2.514-.409-1.441-2.989,1.447-3.069,4.5a13.759,13.759,0,0,0,2,7.143Z" transform="translate(-550.963 -619.933)" fill="#f37a50"/>
      </g>
      <path id="Trazado_630540" data-name="Trazado 630540" d="M858.894,1776.933a3.077,3.077,0,0,1,2.212-2.17c2.93,4.121,10.125,1.592,9.887,7.167-10.942-.072-15.489,0-15.489,0a41.658,41.658,0,0,1,.483-5.509l.57.107Z" transform="translate(-820.094 -1626.494)"/>
      <path id="Trazado_630541" data-name="Trazado 630541" d="M711.41,1777.906a3.077,3.077,0,0,1,2.212-2.17c2.93,4.121,10.125,1.593,9.887,7.167-10.942-.072-15.489,0-15.489,0a41.634,41.634,0,0,1,.483-5.509l.57.107Z" transform="translate(-688.981 -1627.358)"/>
      <path id="Trazado_630542" data-name="Trazado 630542" d="M838.549,1207.944s1.776,26.414,1.055,32.286-3.277,13.4-2.988,32.825c-3.567.91-8.734,0-8.734,0s-.766-21.963,3-31.773c-1.533-9.529-6.453-31.354-6.453-31.354Z" transform="translate(-792.472 -1122.591)" fill="#201d40"/>
      <path id="Trazado_630543" data-name="Trazado 630543" d="M729.756,1214.449s-3.587,29.654-5.343,35.278-5.18,10.38-8.359,29.515a36.175,36.175,0,0,1-8.034-.765s1.449-23.507,7.158-29.026c.193-9.663-.923-34.812-.923-34.812Z" transform="translate(-688.981 -1128.374)" fill="#2c2858"/>
      <path id="Trazado_630544" data-name="Trazado 630544" d="M616.659,874.816s-.263.2-15.042-2.341a.014.014,0,0,0-.012,0l-5.229,4.457a.015.015,0,0,0,0,.021c3.9,4.309,20.7,6.945,20.7,6.945Z" transform="translate(-589.725 -824.359)" fill="#95a6db"/>
      <path id="Trazado_630545" data-name="Trazado 630545" d="M835.734,857.681l5.193-.837,5.15,1.072-5.3,6.242Z" transform="translate(-802.519 -810.463)" fill="#95a6db"/>
      <path id="Trazado_630546" data-name="Trazado 630546" d="M852.912,832.388c2.054,1.6,4.228,2.29,6.487.665l.312-7.992-6.774-.081Z" transform="translate(-817.79 -782.135)" fill="#f37a50"/>
      <path id="Trazado_630547" data-name="Trazado 630547" d="M773.7,867.331h0l-1.59-.509.061-2.2-4.065,3.737-1.2.274-1.186-.328-3.891-3.917-.039,2.2-1.348.365h0l-5.71.784V893.12l-2.131,11.74c6.684,1.738,16.641,1.831,23.763.36l-1.178-10.7,2.267-25.748Z" transform="translate(-728.61 -817.167)" fill="#95a6db"/>
      <path id="Trazado_630548" data-name="Trazado 630548" d="M868.6,928.123s-.714,15.523-1.882,23.47l2.079,2.516s2.067-1.959,2.627-2.312c1.272-14.008-1.021-23.6-1.021-23.6Z" transform="translate(-830.068 -873.83)" fill="#e62552"/>
      <path id="Trazado_630549" data-name="Trazado 630549" d="M871.917,899.275l2.19-.565,1.6.64-.684,2.7-1.938-.006Z" transform="translate(-834.686 -847.681)" fill="#c4204a"/>
      <path id="Trazado_630550" data-name="Trazado 630550" d="M831.642,868.179a15.013,15.013,0,0,1-3.369,3.262l-4.123-4.372,1.268-2.7Z" transform="translate(-792.221 -817.151)" fill="#fff"/>
      <path id="Trazado_630551" data-name="Trazado 630551" d="M891.648,870.076a16.267,16.267,0,0,0,3.211,3.369l3.212-4.023-2.287-2.921Z" transform="translate(-852.227 -819.048)" fill="#fff"/>
      <path id="Trazado_630552" data-name="Trazado 630552" d="M564.1,718.937a15.061,15.061,0,0,1,5.352-.6c3,12.875,5.536,17.86,3.951,21.324-1.322,2.887-4.583,2.336-5.975-.054C565.592,736.452,564.785,725.059,564.1,718.937Z" transform="translate(-561.038 -687.28)" fill="#95a6db"/>
      <path id="Trazado_630553" data-name="Trazado 630553" d="M968.137,903.933c3.5.13,7.607,16.542,7.607,16.542l6.834-7.294,2.726,6.43s-8.909,11.356-12.768,10.2c-3.6-1.081-5.443-14.028-5.443-14.028Z" transform="translate(-919.298 -852.325)" fill="#95a6db"/>
      <g id="Grupo_954785" data-name="Grupo 954785" transform="translate(24.332 20.889)">
        <path id="Trazado_630554" data-name="Trazado 630554" d="M764.4,648.853c-3.334.4-5.077-3.862-5.077-3.862a2.013,2.013,0,0,1-1.7-2.371,2.628,2.628,0,0,1-1.844-3.186c.352-1.565,1.887-1.492,2.085-3.325.159-1.471-.9-5.077,3.8-5.355a3.753,3.753,0,0,1,2.936-3.387c3.458-.8,4.313,1.278,5.828,1.651,1.693.417,5.333-1.139,5.807,2.78a4.647,4.647,0,0,1,3.528,1.816,4.1,4.1,0,0,1-.268,4.5,3.894,3.894,0,0,1,2.383,2.5,3.425,3.425,0,0,1-1.408,3.594,3.569,3.569,0,0,1-1.521.536c-.792.129-.842,2.249-1.539,2.658a15.992,15.992,0,0,1-3.572,1.488Z" transform="translate(-755.703 -627.184)" fill="#2c2858"/>
        <path id="Trazado_630555" data-name="Trazado 630555" d="M825.242,679.132c.384,5.75-2.771,10.643-7.049,10.929s-8.056-4.143-8.441-9.893,3.036-9.464,7.313-9.75S824.858,673.382,825.242,679.132Z" transform="translate(-803.727 -665.603)" fill="#f37a50"/>
        <path id="Trazado_630556" data-name="Trazado 630556" d="M844.7,762.5a.825.825,0,1,1,.768-.878A.825.825,0,0,1,844.7,762.5Z" transform="translate(-834.039 -746.017)"/>
        <path id="Trazado_630557" data-name="Trazado 630557" d="M903.8,758.551a.825.825,0,1,1,.768-.878A.825.825,0,0,1,903.8,758.551Z" transform="translate(-886.577 -742.504)"/>
        <g id="Grupo_954782" data-name="Grupo 954782" transform="translate(15.837 12.85)">
          <path id="Trazado_630558" data-name="Trazado 630558" d="M901.106,744.484a.4.4,0,0,1-.353-.171,1.182,1.182,0,0,0-.773-.562,1.431,1.431,0,0,0-.961.286.4.4,0,0,1-.5-.619,2.23,2.23,0,0,1,1.567-.452,1.933,1.933,0,0,1,1.316.9.4.4,0,0,1-.3.62Z" transform="translate(-898.376 -742.949)" fill="#2c2858"/>
        </g>
        <g id="Grupo_954783" data-name="Grupo 954783" transform="translate(8.575 13.261)">
          <path id="Trazado_630559" data-name="Trazado 630559" d="M833.379,748.459a.4.4,0,0,1-.351-.622,2.481,2.481,0,0,1,1.639-1.163,1.934,1.934,0,0,1,1.391.357.4.4,0,0,1-.492.621,1.139,1.139,0,0,0-.8-.193,1.75,1.75,0,0,0-1.093.831A.4.4,0,0,1,833.379,748.459Z" transform="translate(-832.957 -746.655)" fill="#2c2858"/>
        </g>
        <path id="Trazado_630560" data-name="Trazado 630560" d="M886.9,775.566c1.116.7,1.469.989,1.9,1.218a2.386,2.386,0,0,1-2.111,1.46,2.024,2.024,0,0,0,1.1-1.284Z" transform="translate(-872.146 -759.096)" fill="#de623c"/>
        <path id="Trazado_630561" data-name="Trazado 630561" d="M792.349,756.185c.8,1.192.73,2.639-.153,3.231s-2.248.105-3.047-1.087-.73-2.639.154-3.231S791.55,754.992,792.349,756.185Z" transform="translate(-784.941 -740.675)" fill="#f37a50"/>
        <g id="Grupo_954784" data-name="Grupo 954784" transform="translate(4.561 15.395)">
          <path id="Trazado_630562" data-name="Trazado 630562" d="M798.854,768.254a.264.264,0,0,1-.267-.35,1.09,1.09,0,0,0-.058-1.066,1.71,1.71,0,0,0-1.442-.418.264.264,0,0,1-.053-.526,2.194,2.194,0,0,1,1.91.616,1.565,1.565,0,0,1,.143,1.567A.264.264,0,0,1,798.854,768.254Z" transform="translate(-796.796 -765.879)" fill="#de623c"/>
        </g>
        <path id="Trazado_630563" data-name="Trazado 630563" d="M859.087,808.412a.258.258,0,0,1,.246-.406,18.339,18.339,0,0,0,4.869.108.259.259,0,0,1,.228.417,3.227,3.227,0,0,1-5.344-.119Z" transform="translate(-847.568 -787.932)" fill="#fff"/>
        <path id="Trazado_630564" data-name="Trazado 630564" d="M785.514,660.049l9.151-7.673,10.362,5.029-1.122,7.424c-.328-3.413-2.4-2.269-3.5-3.248-1.117-.991-1.625-2.564-4.178-1.115,0,0-2.123-1.4-3.157.653-.8,1.588-1.935,1.309-3.057,1.413-1.324.123-.983,1.406-1.794,1.38Z" transform="translate(-782.205 -649.58)" fill="#2c2858"/>
      </g>
      <g id="Grupo_954787" data-name="Grupo 954787">
        <g id="Grupo_954786" data-name="Grupo 954786" transform="translate(5.222)">
          <path id="Trazado_630565" data-name="Trazado 630565" d="M605.862,446.794a2.4,2.4,0,0,0-.534-.909c-1.891-2.724-6.224-1.118-12.532.706-1.055.305-.843-1.114-1.326-3.932-.314-1.832-2.3-4.172-4.215-3.57-3.154.993.66,2.515-.2,9.518-.46,3.742-4.368,2.957-3.333,6.245l2.356,7.483c.4,1.28.916,2.47,2.788,2.1,1.814-.355,1.811,1.012,4.339.216l12.653-3.983a2.448,2.448,0,0,0,1.6-3.063,2.4,2.4,0,0,1-.364-3.658,2.4,2.4,0,0,1-.359-3.659,2.41,2.41,0,0,1-.877-3.5Z" transform="translate(-583.548 -438.993)" fill="#facb32"/>
          <path id="Trazado_630566" data-name="Trazado 630566" d="M689.117,506.421l6.033-1.9a2.464,2.464,0,0,0,1.651-1.773.643.643,0,0,0-1.252-.29,1.169,1.169,0,0,1-.784.841l-6.178,1.945a1.159,1.159,0,1,1-.7-2.21l4.128-1.3a.64.64,0,1,0-.385-1.222l-4.129,1.3a2.448,2.448,0,0,0-1.6,3.063,2.41,2.41,0,0,1,1.226,3.387,2.411,2.411,0,0,1,1.236,3.383,2.408,2.408,0,0,1,1.471,3.31,2.448,2.448,0,0,0,3.07,1.591l3.845-1.211a2.465,2.465,0,0,0,1.652-1.772.639.639,0,0,0-.477-.77.646.646,0,0,0-.774.477,1.173,1.173,0,0,1-.785.843l-3.846,1.211a1.159,1.159,0,1,1-.7-2.21l4.562-1.436a2.464,2.464,0,0,0,1.652-1.773.642.642,0,0,0-1.251-.292,1.156,1.156,0,0,1-.785.843l-4.953,1.559a1.159,1.159,0,1,1-.7-2.211l5.674-1.786a2.465,2.465,0,0,0,1.652-1.772.642.642,0,0,0-1.251-.292,1.157,1.157,0,0,1-.785.843l-5.829,1.835a1.159,1.159,0,1,1-.7-2.211Z" transform="translate(-674.44 -493.658)" fill="#eba223"/>
        </g>
        <path id="Trazado_630567" data-name="Trazado 630567" d="M545.471,568.3l-3.94,1.24a1.036,1.036,0,0,1-1.3-.677l-3.685-11.707a1.036,1.036,0,0,1,.677-1.3l3.94-1.24a1.036,1.036,0,0,1,1.3.677L546.148,567A1.036,1.036,0,0,1,545.471,568.3Z" transform="translate(-536.499 -541.737)" fill="#7f99eb"/>
      </g>
      <path id="Trazado_630568" data-name="Trazado 630568" d="M590.72,665.894c.529-.2.859-.292.935-1.1s.014-1.836.688-1.5a3.187,3.187,0,0,1,1.034,2.576C592.6,666.339,590.72,665.894,590.72,665.894Z" transform="translate(-584.701 -638.339)" fill="#f37a50"/>
      <path id="Trazado_630569" data-name="Trazado 630569" d="M560.287,718.49l-.476,2.921,7.367-.812-1.6-2.82A19.329,19.329,0,0,0,560.287,718.49Z" transform="translate(-557.223 -686.833)" fill="#fff"/>
    </g>
    <g id="Grupo_954799" data-name="Grupo 954799" transform="translate(327.089 174.954)">
      <path id="Trazado_630570" data-name="Trazado 630570" d="M2628.284,713.567s.065,3.647.44,6.615c0,0,3.077-4.037,3.076-4.04a20.033,20.033,0,0,1-.517-4.749C2631.306,711.055,2625.02,710.8,2628.284,713.567Z" transform="translate(-2626.869 -710.798)" fill="#f37a50"/>
      <path id="Trazado_630571" data-name="Trazado 630571" d="M2785.823,1777.971c-2.89,3.854-9.987,1.489-9.752,6.7,10.793-.067,15.278,0,15.278,0a37.053,37.053,0,0,0-.476-5.153Z" transform="translate(-2759.082 -1659.167)"/>
      <path id="Trazado_630572" data-name="Trazado 630572" d="M2931.3,1778.879c-2.89,3.855-9.987,1.49-9.752,6.7,10.793-.067,15.278,0,15.278,0a36.938,36.938,0,0,0-.477-5.153Z" transform="translate(-2888.412 -1659.974)"/>
      <path id="Trazado_630573" data-name="Trazado 630573" d="M2809.27,1247.777s-1.752,24.707-1.041,30.2,3.233,12.535,2.947,30.7c3.518.852,8.615,0,8.615,0s.756-20.544-2.964-29.72c1.512-8.913,6.365-29.328,6.365-29.328Z" transform="translate(-2787.525 -1187.824)" fill="#201d40"/>
      <path id="Trazado_630574" data-name="Trazado 630574" d="M2878.96,1253.861s3.538,27.738,5.27,33,3.476,8.763,6.612,26.661c3.615.175,9.558.231,9.558.231s-1.43-21.988-7.061-27.151c-.191-9.039.91-32.562.91-32.562Z" transform="translate(-2850.556 -1193.233)" fill="#2c2858"/>
      <g id="Grupo_954794" data-name="Grupo 954794" transform="translate(26.984)">
        <g id="Grupo_954793" data-name="Grupo 954793">
          <g id="Grupo_954792" data-name="Grupo 954792">
            <path id="Trazado_630575" data-name="Trazado 630575" d="M2892.927,750.322c-1.917,4.792-6.524,7.456-10.288,5.95s-5.261-6.612-3.343-11.405,6.524-7.456,10.288-5.95S2894.845,745.529,2892.927,750.322Z" transform="translate(-2877.097 -735.073)" fill="#f37a50"/>
            <path id="Trazado_630576" data-name="Trazado 630576" d="M2890.45,801.191a.705.705,0,1,1-.176-.981A.7.7,0,0,1,2890.45,801.191Z" transform="translate(-2886.613 -789.825)"/>
            <path id="Trazado_630577" data-name="Trazado 630577" d="M2937.177,819.878a.763.763,0,1,1-.191-1.062A.763.763,0,0,1,2937.177,819.878Z" transform="translate(-2928.06 -806.356)"/>
            <path id="Trazado_630578" data-name="Trazado 630578" d="M2893.2,820.2c-.953.751-2.145,1.658-2.145,1.658a1.851,1.851,0,0,0,1.331,1.647c-.486-.441-.912-1.027-.407-1.7S2893.2,820.2,2893.2,820.2Z" transform="translate(-2888.291 -807.708)" fill="#de623c"/>
            <g id="Grupo_954789" data-name="Grupo 954789" transform="translate(8.783 11.131)">
              <path id="Trazado_630579" data-name="Trazado 630579" d="M2947.025,809.873a.352.352,0,0,1-.342-.27c-.009-.038-.246-.954-1.031-.958a.352.352,0,0,1,0-.7,1.877,1.877,0,0,1,1.712,1.5.352.352,0,0,1-.342.434Z" transform="translate(-2945.301 -807.941)"/>
            </g>
            <g id="Grupo_954790" data-name="Grupo 954790" transform="translate(2.592 8.768)">
              <path id="Trazado_630580" data-name="Trazado 630580" d="M2891.506,787.762a.293.293,0,0,1-.252-.143.854.854,0,0,0-.509-.368.959.959,0,0,0-.745.269.293.293,0,0,1-.366-.458,1.5,1.5,0,0,1,1.222-.387,1.446,1.446,0,0,1,.9.645.293.293,0,0,1-.252.441Z" transform="translate(-2889.523 -786.655)"/>
            </g>
            <path id="Trazado_630581" data-name="Trazado 630581" d="M2880.663,723.409c-1.387-4.459.367-6.828.367-6.828-1.191-.239-1.653.174-1.653.174a2.645,2.645,0,0,1-.147-2.29c-2.461-.959-3.687.634-5.907,1.172-3.041.735-6.8-.478-7.148-4.19a.634.634,0,0,1,.989-.585,2.794,2.794,0,0,0,1.656.484,2.986,2.986,0,0,1-.67-1.713.633.633,0,0,1,1.046-.493c.632.526,1.805,1.023,3.9.632,1.392-.261,4.578-2.49,6.563-2.055a4.892,4.892,0,0,1,3.464,3.713,5.1,5.1,0,0,1,4.388,4.8c.393,4.312-4.6,7.621-4.6,7.621Z" transform="translate(-2866.171 -707.66)"/>
            <path id="Trazado_630582" data-name="Trazado 630582" d="M2982.049,840.127a1.835,1.835,0,1,0,2.8.481A2.028,2.028,0,0,0,2982.049,840.127Z" transform="translate(-2968.101 -825.122)" fill="#f37a50"/>
            <g id="Grupo_954791" data-name="Grupo 954791" transform="translate(13.847 15.646)">
              <path id="Trazado_630583" data-name="Trazado 630583" d="M2991.188,850.571a.261.261,0,0,1-.081-.091,1.2,1.2,0,0,1,.122-1.469,1.279,1.279,0,0,1,1.456-.272.265.265,0,1,1-.238.474.758.758,0,0,0-.836.167.679.679,0,0,0-.038.846.265.265,0,0,1-.385.345Z" transform="translate(-2990.915 -848.619)" fill="#de623c"/>
            </g>
            <path id="Trazado_630584" data-name="Trazado 630584" d="M2892.747,861.031a.225.225,0,0,1,.237-.338,15.925,15.925,0,0,0,4.215.376.225.225,0,0,1,.174.375,2.8,2.8,0,0,1-4.626-.413Z" transform="translate(-2889.766 -843.702)" fill="#fff"/>
          </g>
        </g>
      </g>
      <path id="Trazado_630585" data-name="Trazado 630585" d="M2686.889,889.947s-.539-.235-14.173-3.532a.013.013,0,0,0-.011,0l-5.158,3.833a.014.014,0,0,0,0,.02c3.368,4.265,18.763,7.624,18.763,7.624l.581-7.945Z" transform="translate(-2662.604 -866.573)" fill="#201d40"/>
      <path id="Trazado_630586" data-name="Trazado 630586" d="M2898.229,913.08l4.9-.457,4.739,1.322-5.34,5.495Z" transform="translate(-2867.687 -889.872)" fill="#95a6db"/>
      <path id="Trazado_630587" data-name="Trazado 630587" d="M2913.529,887.535c2,1.639,2.6,2.776,6.645.581l.636-6.52-6.9-.544Z" transform="translate(-2881.289 -861.805)" fill="#f37a50"/>
      <path id="Trazado_630588" data-name="Trazado 630588" d="M2841.477,920.231h0l-1.452-.574.195-2.05-4.027,3.234-1.137.181-1.087-.38-3.387-3.9-.174,2.052-1.281.257h0l-4.619.748-.55,25.639-1.823,8.723a43.963,43.963,0,0,0,19.723,1.619l-.227-8.757,4.787-25.058Z" transform="translate(-2800.039 -893.534)" fill="#95a6db"/>
      <path id="Trazado_630589" data-name="Trazado 630589" d="M2907.382,978.629l-2.894,19.576,1.6,2.226,2.089-1.605.711-20.035Z" transform="translate(-2873.251 -948.552)" fill="#2c2858"/>
      <path id="Trazado_630590" data-name="Trazado 630590" d="M2929.006,955.574l1.058-.279,1.078.47-.456,2.321-1.517-.136Z" transform="translate(-2895.047 -927.808)" fill="#2c2858"/>
      <g id="Grupo_954795" data-name="Grupo 954795" transform="translate(18.573 23.336)">
        <path id="Trazado_630591" data-name="Trazado 630591" d="M2802.3,917.986l-.781,23.636-3.13,15.228s-4.95-.5-7.991-3.393l3.9-11.464,1.69-24.1Z" transform="translate(-2790.393 -917.891)" fill="#2c2858"/>
        <path id="Trazado_630592" data-name="Trazado 630592" d="M2862.54,918.745l-.777,23.319-3.6-17.88Z" transform="translate(-2850.638 -918.65)" fill="#494c7f"/>
      </g>
      <g id="Grupo_954796" data-name="Grupo 954796" transform="translate(34.123 24.885)">
        <path id="Trazado_630593" data-name="Trazado 630593" d="M2936.914,931.849l-6.428,38.337s8.53,1.048,12.037-1.259l-1.9-12.6,2.327-21.4Z" transform="translate(-2930.486 -931.849)" fill="#2c2858"/>
        <path id="Trazado_630594" data-name="Trazado 630594" d="M2958.308,931.849l-3.756,22.47,6.727-16.953Z" transform="translate(-2951.881 -931.849)" fill="#494c7f"/>
      </g>
      <path id="Trazado_630595" data-name="Trazado 630595" d="M2623.07,742.406a14.09,14.09,0,0,1,4.93-1.034c3.934,11.723,6.738,16.14,5.569,19.506-.975,2.806-4.06,2.581-5.569.479C2626.01,758.584,2624.249,748.047,2623.07,742.406Z" transform="translate(-2623.07 -737.63)" fill="#201d40"/>
      <g id="Grupo_954798" data-name="Grupo 954798" transform="translate(30.917 63.74)">
        <g id="Grupo_954797" data-name="Grupo 954797">
          <path id="Trazado_630596" data-name="Trazado 630596" d="M2901.674,1296.534a2.119,2.119,0,0,1-.031-.93c.127-2.925,4.119-3.768,9.687-5.381.931-.269.1-1.229-.864-3.56-.629-1.516-.249-4.2,1.463-4.651,2.822-.746.693,2.188,4.636,7.009,2.107,2.576,4.654.148,5.432,3.09l1.769,6.7c.3,1.145.48,2.276-1.089,2.884-1.521.59-.875,1.609-3.137,2.207l-11.322,2.992a2.161,2.161,0,0,1-2.642-1.53,2.12,2.12,0,0,0-1.453-2.9,2.119,2.119,0,0,0-1.457-2.9,2.128,2.128,0,0,0-.994-3.023Z" transform="translate(-2901.606 -1281.896)" fill="#facb32"/>
          <path id="Trazado_630597" data-name="Trazado 630597" d="M2913.493,1380.488l-5.4,1.427a2.176,2.176,0,0,1-2.068-.545.567.567,0,0,1,.8-.807,1.031,1.031,0,0,0,.982.258l5.528-1.46a1.023,1.023,0,1,0-.523-1.978l-3.694.976a.565.565,0,1,1-.289-1.093l3.694-.976a2.16,2.16,0,0,1,2.641,1.529,2.128,2.128,0,0,0,.682,3.106,2.129,2.129,0,0,0,.672,3.108,2.126,2.126,0,0,0,.462,3.164,2.161,2.161,0,0,1-1.541,2.635l-3.441.909a2.176,2.176,0,0,1-2.068-.544.564.564,0,0,1-.007-.8.57.57,0,0,1,.8-.008,1.036,1.036,0,0,0,.983.259l3.441-.909a1.023,1.023,0,1,0-.522-1.978l-4.082,1.079a2.177,2.177,0,0,1-2.069-.545.567.567,0,0,1,.8-.808,1.021,1.021,0,0,0,.984.26l4.431-1.171a1.023,1.023,0,1,0-.523-1.978l-5.077,1.342a2.176,2.176,0,0,1-2.068-.544.564.564,0,0,1-.007-.8.57.57,0,0,1,.8-.008,1.022,1.022,0,0,0,.983.259l5.215-1.378a1.023,1.023,0,1,0-.523-1.978Z" transform="translate(-2905.386 -1365.747)" fill="#eba223"/>
        </g>
        <path id="Trazado_630598" data-name="Trazado 630598" d="M3075.346,1355.3l3.525-.932a.914.914,0,0,0,.65-1.118l-2.768-10.475a.915.915,0,0,0-1.118-.651l-3.525.932a.914.914,0,0,0-.65,1.117l2.768,10.476A.914.914,0,0,0,3075.346,1355.3Z" transform="translate(-3052.579 -1335.409)" fill="#7f99eb"/>
      </g>
      <g id="c-2" data-name="c" transform="translate(50.83 67.154)">
        <path id="Trazado_630599" data-name="Trazado 630599" d="M3083.006,1312.652l.064,2.806s-2-.06-2.072,1.308l1.88.058s1.144,1.478-.5,4.362c-.654,2.825,1.417,1.63,1.559,2.569.21,1.385,2.944-.99,3.378-3.812.562-3.652-.183-4.091-.183-4.091l-.827-2.773Z" transform="translate(-3080.998 -1312.652)" fill="#f37a50"/>
      </g>
      <path id="Trazado_630600" data-name="Trazado 630600" d="M3032.564,959.6c3.26.34,11.307,20.45,11.307,20.45l-.53,20.3-5.282-.853-1.2-17.329-5.568-10.881Z" transform="translate(-2985.98 -931.634)" fill="#201d40"/>
      <path id="Trazado_630601" data-name="Trazado 630601" d="M2894.717,921.021a10.188,10.188,0,0,1-3.5,2.312l-1.971-5.215,1-1.376Z" transform="translate(-2859.701 -893.534)" fill="#fff"/>
      <path id="Trazado_630602" data-name="Trazado 630602" d="M2938.535,927.945a8.782,8.782,0,0,0,3.032,2.9l2.878-4.8-.746-1.511Z" transform="translate(-2903.518 -900.458)" fill="#fff"/>
    </g>
    <g id="Grupo_954804" data-name="Grupo 954804" transform="translate(287.035 160.995)">
      <g id="Grupo_954803" data-name="Grupo 954803" transform="translate(0 0)">
        <g id="Grupo_954802" data-name="Grupo 954802">
          <g id="Grupo_954801" data-name="Grupo 954801">
            <g id="Grupo_954800" data-name="Grupo 954800">
              <path id="Trazado_630603" data-name="Trazado 630603" d="M2262.348,588.935a10.35,10.35,0,0,1-.129,2.879l2.074,1.093c2.529-1.578,2.874-5.01,2.907-5.39.087-.99.189-1.449.057-1.526s-1.013-.32-1.186,1.116c-.217,1.8-1.657.606-.285-3.05.343-.916-.1-2.638-.771-2.015C2264.277,582.727,2262.606,584.7,2262.348,588.935Z" transform="translate(-2262.219 -581.908)" fill="#f37a50"/>
            </g>
          </g>
        </g>
      </g>
    </g>
    <g id="Grupo_954814" data-name="Grupo 954814" transform="translate(277.957 170.788)">
      <path id="Trazado_630604" data-name="Trazado 630604" d="M2416.546,1765.574l-.292,3,2.512.763,2.019-2.154.332-1.24Z" transform="translate(-2390.078 -1643.98)" fill="#f37a50"/>
      <path id="Trazado_630605" data-name="Trazado 630605" d="M2345.4,1763.759l-.35-2.73,5.342-.359-.065,3.078Z" transform="translate(-2326.782 -1639.62)" fill="#f37a50"/>
      <path id="Trazado_630606" data-name="Trazado 630606" d="M2203.388,743.93c-2.921-2.657-8.107-2.484-8.9,1.676s-.522,6.928-5.7,6.285c-4.123-.512-8.362,3.19-8.359,9.008,0,7.444,5.161,4.545,3.967,8.222s-1.963,7.407,3.358,7.526,9.453-4.338,8.827-10.389,3.25-3.831,4.376-6.824C2202.562,755.177,2203.388,743.93,2203.388,743.93Z" transform="translate(-2180.432 -734.168)" fill="#201d40"/>
      <path id="Trazado_630607" data-name="Trazado 630607" d="M2404.056,1219.371s3.856,24.417,2.816,34.88-6.27,26.119-6.27,26.119l-4.57-.371a50.311,50.311,0,0,0,.141-7.761c-.146-6.156-1.067-14.828,2.485-18.931-.444-8-5.479-33.936-5.479-33.936Z" transform="translate(-2369.563 -1158.405)" fill="#0e6a41"/>
      <path id="Trazado_630608" data-name="Trazado 630608" d="M2307.482,1211.968c-2,7.181-2.11,27.085-.454,38.575s3.2,22.69,3.2,22.69l5.342.076v-27.9c0-4.924,1.332-20.108,1.332-20.108l1.662-12.516Z" transform="translate(-2291.952 -1151.824)" fill="#0e6a41"/>
      <ellipse id="Elipse_7764" data-name="Elipse 7764" cx="6.464" cy="8.689" rx="6.464" ry="8.689" transform="translate(19.402 9.351)" fill="#f37a50"/>
      <path id="Trazado_630609" data-name="Trazado 630609" d="M2390.783,894.9v9.233s3.078,1.641,5.745,0c-.41-2.052-.654-8.588-.654-8.588Z" transform="translate(-2367.434 -869.954)" fill="#f37a50"/>
      <path id="Trazado_630610" data-name="Trazado 630610" d="M2320.207,939.782h15.318s2.751,6.175,2.377,11.463-1.045,19.674-1.045,19.674-13.057,1.271-19.055-.58a213.794,213.794,0,0,1,.185-22.723A26.742,26.742,0,0,1,2320.207,939.782Z" transform="translate(-2302.364 -909.85)" fill="#f5a3b7"/>
      <path id="Trazado_630611" data-name="Trazado 630611" d="M2254.528,700.964a32.852,32.852,0,0,0-3.853-.322s-5.316-11.089-7.172-14.387c-1.264-5.3-1.172-14.016-1.172-14.016l-2.074-1.093s-3.472,10.4-2.6,15.216c.229,1.269,6.778,18.246,6.778,18.246s-1.6,20.149-2.421,24.917a22.1,22.1,0,0,0,9.434.328Z" transform="translate(-2231.179 -671.032)" fill="#3f964f"/>
      <path id="Trazado_630612" data-name="Trazado 630612" d="M2438.664,700.058l2.909,28.888s2.388.768,7.518-.758c.205-6.1-1.977-25.282-1.977-25.282a74.125,74.125,0,0,0,7.342-18.684c-.205-4.2-2.025-13.812-2.025-13.812l-5.312-.283,1.891,13.583s-6.519,14.223-7.189,16.276A10.941,10.941,0,0,0,2438.664,700.058Z" transform="translate(-2410 -670.126)" fill="#3f964f"/>
      <path id="Trazado_630613" data-name="Trazado 630613" d="M2345.344,751.8a13.18,13.18,0,0,0,8.76-5.014c1.21,3,4.6,5.014,4.6,5.014s2.539-5.745-2.078-8.844C2352.219,740,2341.711,742.016,2345.344,751.8Z" transform="translate(-2326.372 -733.756)" fill="#2c2858"/>
      <path id="Trazado_630614" data-name="Trazado 630614" d="M2383.461,838.354a.687.687,0,1,1,.687-.687A.687.687,0,0,1,2383.461,838.354Z" transform="translate(-2360.314 -818.459)"/>
      <path id="Trazado_630615" data-name="Trazado 630615" d="M2432.787,838.354a.687.687,0,1,1,.687-.687A.687.687,0,0,1,2432.787,838.354Z" transform="translate(-2404.165 -818.459)"/>
      <g id="Grupo_954805" data-name="Grupo 954805" transform="translate(27.606 17.24)">
        <path id="Trazado_630616" data-name="Trazado 630616" d="M2431.358,826.786a.33.33,0,0,1-.284-.162.984.984,0,0,0-.611-.51,1.19,1.19,0,0,0-.814.185.33.33,0,0,1-.377-.542,1.856,1.856,0,0,1,1.327-.289,1.61,1.61,0,0,1,1.043.819.33.33,0,0,1-.283.5Z" transform="translate(-2429.131 -825.437)" fill="#2c2858"/>
      </g>
      <g id="Grupo_954806" data-name="Grupo 954806" transform="translate(21.514 17.206)">
        <path id="Trazado_630617" data-name="Trazado 630617" d="M2374.581,826.55a.33.33,0,0,1-.257-.536,2.066,2.066,0,0,1,1.427-.876,1.61,1.61,0,0,1,1.136.374.33.33,0,0,1-.443.489.949.949,0,0,0-.65-.2,1.458,1.458,0,0,0-.954.63A.329.329,0,0,1,2374.581,826.55Z" transform="translate(-2374.251 -825.134)" fill="#2c2858"/>
      </g>
      <path id="Trazado_630618" data-name="Trazado 630618" d="M2416.987,851.293c.889.641,1.166.9,1.509,1.117a1.987,1.987,0,0,1-1.835,1.1,1.685,1.685,0,0,0,.989-1.006Z" transform="translate(-2390.439 -831.184)" fill="#de623c"/>
      <path id="Trazado_630619" data-name="Trazado 630619" d="M2339.111,830.89a1.677,1.677,0,1,1-2.6-.7A1.949,1.949,0,0,1,2339.111,830.89Z" transform="translate(-2318.743 -812.179)" fill="#f37a50"/>
      <g id="Grupo_954807" data-name="Grupo 954807" transform="translate(18.123 18.674)">
        <path id="Trazado_630620" data-name="Trazado 630620" d="M2345.3,840.427a.22.22,0,0,1-.2-.306.908.908,0,0,0,.011-.889,1.424,1.424,0,0,0-1.175-.428.22.22,0,0,1-.015-.44,1.827,1.827,0,0,1,1.553.618,1.3,1.3,0,0,1,.032,1.31A.221.221,0,0,1,2345.3,840.427Z" transform="translate(-2343.704 -838.364)" fill="#de623c"/>
      </g>
      <path id="Trazado_630621" data-name="Trazado 630621" d="M2397.768,879.35a.2.2,0,0,1,.211-.3,14.188,14.188,0,0,0,3.753.335.2.2,0,0,1,.154.334,2.5,2.5,0,0,1-4.119-.368Z" transform="translate(-2373.617 -855.854)" fill="#fff"/>
      <g id="Grupo_954808" data-name="Grupo 954808" transform="translate(25.749 123.206)">
        <path id="Trazado_630622" data-name="Trazado 630622" d="M2415.4,1781.913a2.687,2.687,0,0,1,1.958-1.821c2.593,3.459,8.961,1.336,8.75,6.015-9.684-.06-13.709,0-13.709,0a33.257,33.257,0,0,1,.427-4.623l.5.09Z" transform="translate(-2412.403 -1780.092)" fill="#e62552"/>
        <path id="Rectángulo_306954" data-name="Rectángulo 306954" d="M0,0H13.714a0,0,0,0,1,0,0V0a1.378,1.378,0,0,1-1.378,1.378H1.378A1.378,1.378,0,0,1,0,0V0A0,0,0,0,1,0,0Z" transform="translate(0 5.886)" fill="#fff"/>
      </g>
      <g id="Grupo_954813" data-name="Grupo 954813" transform="translate(17.319 123.206)">
        <path id="Trazado_630623" data-name="Trazado 630623" d="M2345.2,1786.119s-.761-2.841-.829-3.206c-.076-.415-.3-1.4-.346-1.9a4.113,4.113,0,0,0-2.317-.922,4.056,4.056,0,0,0-2.61.933,29.845,29.845,0,0,1-.423,2.986c-.192.687-.715,2.287-.715,2.287Z" transform="translate(-2337.793 -1780.092)" fill="#e62552"/>
        <g id="Grupo_954812" data-name="Grupo 954812" transform="translate(0 5.719)">
          <g id="Grupo_954811" data-name="Grupo 954811">
            <g id="Grupo_954810" data-name="Grupo 954810">
              <g id="Grupo_954809" data-name="Grupo 954809">
                <path id="Trazado_630624" data-name="Trazado 630624" d="M2343.866,1831.705c-.177.564-2.367-.087-3.964-.086-1.341,0-3.077.52-3.274.318a3.352,3.352,0,0,0-.059,1.82s1.4.072,3.074,0a33.437,33.437,0,0,0,4.344-.182A2.21,2.21,0,0,0,2343.866,1831.705Z" transform="translate(-2336.462 -1831.619)" fill="#fff"/>
              </g>
            </g>
          </g>
        </g>
      </g>
    </g>
    <g id="Grupo_954833" data-name="Grupo 954833" transform="translate(58.731 170.286)">
      <g id="Grupo_954815" data-name="Grupo 954815" transform="translate(9.805 55.421)">
        <path id="Trazado_630625" data-name="Trazado 630625" d="M470.571,1700.093l2.583-10.172-6.408-.882c-.22,4.811-.58,9.547-.548,10.83Z" transform="translate(-447.055 -1630.86)" fill="#f37a50"/>
        <path id="Trazado_630626" data-name="Trazado 630626" d="M314.278,1688.512h-6.691c.22,1.6,1.1,10.285,1.1,10.285.565,1.283,5.551.99,5.551.268C313.859,1697.5,314.246,1688.712,314.278,1688.512Z" transform="translate(-306.052 -1630.391)" fill="#f37a50"/>
        <path id="Trazado_630627" data-name="Trazado 630627" d="M390.627,1252.923l6.6.974,4.575-27.36c-.942-10.383-10.083-32.473-10.083-32.473l-10.3,3.608-.251,9.742,12.407,21.007C391.953,1232.484,390.847,1245.619,390.627,1252.923Z" transform="translate(-371.461 -1190.827)" fill="#c4204a"/>
        <path id="Trazado_630628" data-name="Trazado 630628" d="M307.823,1168.87c-.094-.641-.126-.842-.66-1.163l-9.895-2.806-2.356,2.325c-2.23,8.1-.848,19.364.911,28.3-2.576,7.737-1.568,23.688-.532,31.185h7.036c.408-5.011.28-14.307.312-18.8h0c.911-3.608,1.79-7.457,2.576-11.506,1.005-5.172,2.262-10.183,2.607-14.873A73.938,73.938,0,0,0,307.823,1168.87Z" transform="translate(-293.757 -1164.901)" fill="#e62552"/>
      </g>
      <path id="Trazado_630629" data-name="Trazado 630629" d="M233.992,696.08c3.8-.807,12.024-3.731,9.028-9.459s-4.831-3.719-2.621-9.87-1.608-11.755-6.076-11.086-6.043,3.994-11.186,2.389-10.2,2.715-8.8,7.257,1.956,6.715-.222,8.823-10.878,3.5-8.176,9.644,4.345,6.014,2.736,8.749.725,6.424,5.627,6.64,9.535-1.011,12.055-6.17A14.635,14.635,0,0,1,233.992,696.08Z" transform="translate(-205.42 -665.61)" fill="#2c2858"/>
      <path id="Trazado_630630" data-name="Trazado 630630" d="M341.979,720.33c-.526,4.954,2.2,9.3,6.093,9.717s7.471-3.268,8-8.222-2.2-9.3-6.093-9.717S342.5,715.376,341.979,720.33Z" transform="translate(-326.763 -706.919)" fill="#f37a50"/>
      <path id="Trazado_630631" data-name="Trazado 630631" d="M352.384,839.845l6.143,3.808s.545,2.715.817,3.6c.561,1.818-1.59,2.612-3.408,1.481a12.721,12.721,0,0,1-3-2.645Z" transform="translate(-336.071 -820.505)" fill="#f37a50"/>
      <path id="Trazado_630632" data-name="Trazado 630632" d="M354.53,710.691c-1.8-.122-3.116-1.34-4.262-3.221-2.273,4.79-11.3,6.174-11.859,5.163.395-3.488,1.243-8.864,7.866-10.552C351.478,700.755,354.53,710.691,354.53,710.691Z" transform="translate(-323.647 -697.925)" fill="#2c2858"/>
      <path id="Trazado_630633" data-name="Trazado 630633" d="M450.632,795.918a.68.68,0,1,0,.306-.912A.68.68,0,0,0,450.632,795.918Z" transform="translate(-423.35 -780.579)"/>
      <path id="Trazado_630634" data-name="Trazado 630634" d="M402.256,789.9a.737.737,0,1,0,.331-.988A.737.737,0,0,0,402.256,789.9Z" transform="translate(-380.338 -775.155)"/>
      <g id="Grupo_954816" data-name="Grupo 954816" transform="translate(27.244 13.344)">
        <path id="Trazado_630635" data-name="Trazado 630635" d="M452.654,786.93a.256.256,0,0,0,.122-.4,1.8,1.8,0,0,0-1.707-.681.256.256,0,0,0,.1.5,1.285,1.285,0,0,1,1.2.489A.256.256,0,0,0,452.654,786.93Z" transform="translate(-450.863 -785.829)" fill="#2c2858"/>
      </g>
      <path id="Trazado_630636" data-name="Trazado 630636" d="M427.412,811.634a6.822,6.822,0,0,0,.548,1.351.27.27,0,0,1-.067.364,3.7,3.7,0,0,1-1.972.368.072.072,0,0,1-.019-.141,3.493,3.493,0,0,0,1.166-.544.321.321,0,0,0,.119-.266c-.01-.236-.026-.715-.01-1.1A.121.121,0,0,1,427.412,811.634Z" transform="translate(-401.382 -795.354)" fill="#de623c"/>
      <path id="Trazado_630637" data-name="Trazado 630637" d="M331.243,798.639a1.771,1.771,0,1,1-2.68-.577A1.958,1.958,0,0,1,331.243,798.639Z" transform="translate(-314.386 -783.074)" fill="#f37a50"/>
      <g id="Grupo_954817" data-name="Grupo 954817" transform="translate(14.762 15.526)">
        <path id="Trazado_630638" data-name="Trazado 630638" d="M339.757,807.494a.255.255,0,0,0,.09-.075,1.158,1.158,0,0,0,.089-1.42,1.234,1.234,0,0,0-1.352-.464.256.256,0,1,0,.161.486.731.731,0,0,1,.775.276.655.655,0,0,1-.082.813.256.256,0,0,0,.319.383Z" transform="translate(-338.408 -805.481)" fill="#de623c"/>
      </g>
      <path id="Trazado_630639" data-name="Trazado 630639" d="M306.408,905.615l-1.712-7.147a45.518,45.518,0,0,0-5.487-1.614l-.537,1.744-5.052-2.55-5.932.9c-.987,4.281-.2,5.585.095,10.692.164,2.4.091,8.281.617,12.45-2.172,4.92-3.513,9.542-3.546,10.969,0,0,15.829,3.546,16.356,3.546l1.185-3.117,2.271,2.479a39.122,39.122,0,0,0,2.962-3.226,76.806,76.806,0,0,1-1.59-9.946Z" transform="translate(-276.037 -870.469)" fill="#3f964f"/>
      <path id="Trazado_630640" data-name="Trazado 630640" d="M329.691,888.809l-3.384,1.437c.3,3.4,8.735,5.387,8.735,5.387l.482-3.471Z" transform="translate(-312.889 -864.034)" fill="#0e6a41"/>
      <path id="Trazado_630641" data-name="Trazado 630641" d="M409.344,896.38l1.508,2.044s1.727-2.068,1.026-3.307a3.713,3.713,0,0,0-2.256-1.565Z" transform="translate(-386.708 -868.251)" fill="#0e6a41"/>
      <g id="Grupo_954818" data-name="Grupo 954818" transform="translate(21.671 19.238)">
        <path id="Trazado_630642" data-name="Trazado 630642" d="M403.1,840.7a2.6,2.6,0,0,1-.492-.047,3.2,3.2,0,0,1-1.9-1.282.287.287,0,0,1,.479-.315h0a2.652,2.652,0,0,0,1.538,1.036,2.6,2.6,0,0,0,1.985-.547.286.286,0,0,1,.328.47A3.385,3.385,0,0,1,403.1,840.7Z" transform="translate(-400.659 -838.922)" fill="#de623c"/>
      </g>
      <g id="Grupo_954820" data-name="Grupo 954820" transform="translate(16.493 18.115)">
        <g id="Grupo_954819" data-name="Grupo 954819" transform="translate(6.32)">
          <path id="Trazado_630643" data-name="Trazado 630643" d="M439.689,842.744a2.959,2.959,0,0,0-.418-1.23c-1.6-3.757-7.231-2.9-15.3-2.266-1.348.106-.74-1.554-.622-5.074.077-2.289-1.739-5.607-4.2-5.356-4.053.413.171,3.2-2.61,11.434-1.486,4.4-6.006,2.481-5.575,6.705l.98,9.615c.168,1.644.491,3.208,2.84,3.231,2.277.022,1.934,1.672,5.182,1.34l16.257-1.658a3.016,3.016,0,0,0,2.7-3.3,2.958,2.958,0,0,1,.471-4.5,2.957,2.957,0,0,1,.478-4.5,2.969,2.969,0,0,1-.189-4.437Z" transform="translate(-410.942 -828.805)" fill="#facb32"/>
          <path id="Trazado_630644" data-name="Trazado 630644" d="M547.667,939.094l7.752-.791a3.036,3.036,0,0,0,2.433-1.728.792.792,0,0,0-1.439-.662,1.439,1.439,0,0,1-1.155.82l-7.938.809a1.427,1.427,0,1,1-.29-2.84l5.3-.541a.789.789,0,1,0-.16-1.57l-5.3.541a3.015,3.015,0,0,0-2.7,3.3,2.97,2.97,0,0,1,.636,4.392,2.97,2.97,0,0,1,.65,4.389,2.967,2.967,0,0,1,.952,4.359,3.015,3.015,0,0,0,3.308,2.684l4.941-.5a3.036,3.036,0,0,0,2.434-1.727.787.787,0,0,0-.385-1.047.8.8,0,0,0-1.052.384,1.446,1.446,0,0,1-1.157.821l-4.941.5a1.427,1.427,0,1,1-.29-2.84l5.862-.6a3.036,3.036,0,0,0,2.434-1.728.791.791,0,0,0-1.437-.664,1.425,1.425,0,0,1-1.157.822l-6.364.649a1.428,1.428,0,1,1-.29-2.841l7.29-.743a3.036,3.036,0,0,0,2.434-1.727.791.791,0,0,0-1.437-.664,1.426,1.426,0,0,1-1.157.821l-7.489.764a1.428,1.428,0,1,1-.29-2.841Z" transform="translate(-529.37 -921.069)" fill="#eba223"/>
        </g>
        <path id="Trazado_630645" data-name="Trazado 630645" d="M362,975.813l-5.062.516a1.276,1.276,0,0,1-1.4-1.14l-1.534-15.043a1.276,1.276,0,0,1,1.14-1.4l5.062-.516a1.276,1.276,0,0,1,1.4,1.14l1.534,15.042A1.276,1.276,0,0,1,362,975.813Z" transform="translate(-354.003 -943.859)" fill="#7f99eb"/>
      </g>
      <g id="Grupo_954826" data-name="Grupo 954826" transform="translate(6.886 26.464)">
        <g id="Grupo_954825" data-name="Grupo 954825" transform="translate(18.178 19.519)">
          <g id="Grupo_954824" data-name="Grupo 954824">
            <g id="Grupo_954823" data-name="Grupo 954823">
              <g id="Grupo_954822" data-name="Grupo 954822">
                <g id="Grupo_954821" data-name="Grupo 954821">
                  <path id="Trazado_630646" data-name="Trazado 630646" d="M435.2,1084.479c-.953-.145-1.983-.688-2.754-.136l-1.231-2.234c2.144-2.213,6.081-2.273,6.473-2.224,1.019.127,1.505.124,1.555.274s.1,1.093-1.386.956c-1.868-.173-.972,1.543,3.02.951,1-.148,2.644.677,1.869,1.217C441.893,1083.879,439.536,1085.138,435.2,1084.479Z" transform="translate(-431.216 -1079.875)" fill="#f37a50"/>
                </g>
              </g>
            </g>
          </g>
        </g>
        <path id="Trazado_630647" data-name="Trazado 630647" d="M276.487,1069.309c-1.482.5-2.349,5.16-1.936,5.518,6.332,2.543,18.832.065,18.832.065l1.079-2.311A117.476,117.476,0,0,1,276.487,1069.309Z" transform="translate(-273.672 -1050.963)" fill="#f37a50"/>
        <path id="Trazado_630648" data-name="Trazado 630648" d="M268.073,908.433c-.971,4.2-.739,18.259.259,19.457l5.077-3.439s1.509-14.113,1.677-16.518C275.387,903.771,269.646,901.571,268.073,908.433Z" transform="translate(-267.453 -904.025)" fill="#f37a50"/>
      </g>
      <path id="Trazado_630649" data-name="Trazado 630649" d="M260.984,908.433c-.971,4.2-2.119,16.073-1.12,17.271l7.24-3.425s.726-11.941.894-14.345C268.3,903.771,262.557,901.571,260.984,908.433Z" transform="translate(-253.478 -877.561)" fill="#0e6a41"/>
      <path id="Trazado_630650" data-name="Trazado 630650" d="M258.141,1071.885l7.774-3.411s.539,0,.383.619c0,0,1.241.229,1.493.932l-5.383,5.754a2.8,2.8,0,0,1-2.3-1.643C260.083,1074.124,258.237,1073.568,258.141,1071.885Z" transform="translate(-252.289 -1023.757)" fill="#097a48"/>
      <path id="c-3" data-name="c" d="M611.822,907.047a.732.732,0,0,1-.1-.2l-.031.025a1.278,1.278,0,0,1-1.758.047.757.757,0,0,1-.121-.244,1.056,1.056,0,0,1-1.193-.249.793.793,0,0,1-.155-.444,1.056,1.056,0,0,1-1.25-.267,1.238,1.238,0,0,1,1.944-1.475.884.884,0,0,1,.165.381,1.2,1.2,0,0,1,1.573.076.757.757,0,0,1,.121.245,1.056,1.056,0,0,1,1.193.249.785.785,0,0,1,.153.409.9.9,0,0,1,1.1.205,1.046,1.046,0,0,1-1.642,1.245Z" transform="translate(-562.45 -877.427)" fill="#f37a50"/>
      <g id="Grupo_954827" data-name="Grupo 954827" transform="translate(28.541 122.535)">
        <path id="Trazado_630651" data-name="Trazado 630651" d="M465.768,1771.487a2.886,2.886,0,0,1,2.1-1.955c2.785,3.714,9.623,1.435,9.4,6.459-10.4-.064-14.721,0-14.721,0a35.654,35.654,0,0,1,.459-4.965l.542.1Z" transform="translate(-462.547 -1769.532)" fill="#2c2858"/>
        <path id="Rectángulo_306955" data-name="Rectángulo 306955" d="M0,0H14.726a0,0,0,0,1,0,0V0a1.479,1.479,0,0,1-1.479,1.479H1.479A1.479,1.479,0,0,1,0,0V0A0,0,0,0,1,0,0Z" transform="translate(0 6.32)" fill="#fff"/>
      </g>
      <g id="Grupo_954832" data-name="Grupo 954832" transform="translate(11.063 122.435)">
        <path id="Trazado_630652" data-name="Trazado 630652" d="M314.662,1775.241s-.835-3.115-.908-3.515c-.084-.455-.329-1.531-.379-2.082a4.509,4.509,0,0,0-2.54-1.01,4.446,4.446,0,0,0-2.861,1.023,32.819,32.819,0,0,1-.464,3.274c-.211.753-.784,2.507-.784,2.507Z" transform="translate(-306.544 -1768.634)" fill="#2c2858"/>
        <g id="Grupo_954831" data-name="Grupo 954831" transform="translate(0 6.27)">
          <g id="Grupo_954830" data-name="Grupo 954830">
            <g id="Grupo_954829" data-name="Grupo 954829">
              <g id="Grupo_954828" data-name="Grupo 954828">
                <path id="Trazado_630653" data-name="Trazado 630653" d="M313.2,1825.219c-.195.618-2.595-.095-4.346-.094-1.471,0-3.374.57-3.59.348a3.673,3.673,0,0,0-.065,2s1.532.079,3.37,0a36.627,36.627,0,0,0,4.762-.2A2.423,2.423,0,0,0,313.2,1825.219Z" transform="translate(-305.085 -1825.125)" fill="#fff"/>
              </g>
            </g>
          </g>
        </g>
      </g>
    </g>
    <g id="Grupo_954869" data-name="Grupo 954869" transform="translate(144.813 133.733)">
      <g id="c-4" data-name="c" transform="translate(77.758 37.071)">
        <g id="Grupo_954841" data-name="Grupo 954841" transform="translate(33.472)">
          <path id="v-2" d="M2016.193,837.488h0l-3.379.013-.765,7.321v.661l3.945,2.083,4.207-2.059-.68-8.005Z" transform="translate(-2008.821 -818.927)" fill="#f37a50"/>
          <g id="Grupo_954840" data-name="Grupo 954840">
            <g id="Grupo_954839" data-name="Grupo 954839">
              <path id="Trazado_630654" data-name="Trazado 630654" d="M2007.416,703.04c-2.08,5.2-7.075,8.086-11.157,6.453s-5.7-7.171-3.625-12.368,7.075-8.086,11.157-6.453S2009.5,697.842,2007.416,703.04Z" transform="translate(-1990.76 -688.001)" fill="#f37a50"/>
              <path id="Trazado_630655" data-name="Trazado 630655" d="M2004.729,758.206a.765.765,0,1,1-.191-1.064A.764.764,0,0,1,2004.729,758.206Z" transform="translate(-2001.08 -747.377)"/>
              <path id="Trazado_630656" data-name="Trazado 630656" d="M2055.4,778.47a.828.828,0,1,1-.207-1.152A.827.827,0,0,1,2055.4,778.47Z" transform="translate(-2046.027 -765.304)"/>
              <path id="Trazado_630657" data-name="Trazado 630657" d="M2007.709,778.82c-1.034.815-2.326,1.8-2.326,1.8a2.007,2.007,0,0,0,1.443,1.786c-.527-.478-.989-1.114-.441-1.848S2007.709,778.82,2007.709,778.82Z" transform="translate(-2002.9 -766.771)" fill="#de623c"/>
              <g id="Grupo_954834" data-name="Grupo 954834" transform="translate(9.013 10.573)">
                <path id="Trazado_630658" data-name="Trazado 630658" d="M2066.082,767.62a.382.382,0,0,0,.371-.47,2.035,2.035,0,0,0-1.857-1.625.382.382,0,0,0,0,.763c.862,0,1.116,1.029,1.119,1.039A.382.382,0,0,0,2066.082,767.62Z" transform="translate(-2064.213 -765.525)" fill="#201d40"/>
              </g>
              <g id="Grupo_954835" data-name="Grupo 954835" transform="translate(2.299 8.011)">
                <path id="Trazado_630659" data-name="Trazado 630659" d="M2005.874,743.642a.318.318,0,0,0,.274-.479,1.567,1.567,0,0,0-.979-.7,1.628,1.628,0,0,0-1.325.42.318.318,0,1,0,.4.5,1.036,1.036,0,0,1,.812-.291.921.921,0,0,1,.547.4A.317.317,0,0,0,2005.874,743.642Z" transform="translate(-2003.724 -742.442)" fill="#201d40"/>
              </g>
              <path id="Trazado_630660" data-name="Trazado 630660" d="M2021.169,681.427a6.876,6.876,0,0,0-2.526-7.888s1.149-.1,1.287-1.717a4.248,4.248,0,0,1-2.673-.058c-5.712-2.068-9.645-2.041-9.645.4,0,.87-3.907.324-3.591,6.176.525-.548,1.461-2.869,2.734-3.109s.124,1.462,2.785,1.828c2.686.369,4.661-.283,6.3,1.231,1.284,1.321,1.6,8.043,1.407,8.448C2017.7,685.813,2020.4,683.628,2021.169,681.427Z" transform="translate(-2001.674 -670.27)" fill="#201d40"/>
              <path id="Trazado_630661" data-name="Trazado 630661" d="M1984.1,778.82s-.243,3.05.2,3.993c.458-1.223,1.44.073,2.363.2,2.23.295,6.253-.449,6.652,2.9,2.725.862,5.278-4.971,5.278-4.971.157,6.517-4.612,10.218-11.475,9.134C1982.591,789.352,1982.171,783.057,1984.1,778.82Z" transform="translate(-1983.011 -766.771)" fill="#201d40"/>
              <g id="Grupo_954836" data-name="Grupo 954836" transform="translate(2.167 16.492)">
                <path id="Trazado_630662" data-name="Trazado 630662" d="M2006.154,820.655a5.8,5.8,0,0,0,1.377-.54.254.254,0,1,0-.24-.449,3.684,3.684,0,0,1-2.813.478,2.654,2.654,0,0,1-1.465-1.159.254.254,0,0,0-.451.236,3.126,3.126,0,0,0,1.757,1.406A3.434,3.434,0,0,0,2006.154,820.655Z" transform="translate(-2002.533 -818.85)" fill="#de623c"/>
              </g>
              <g id="Grupo_954838" data-name="Grupo 954838" transform="translate(14.308 13.843)">
                <path id="Trazado_630663" data-name="Trazado 630663" d="M2113.247,795.343a1.99,1.99,0,1,0,3.033.533A2.2,2.2,0,0,0,2113.247,795.343Z" transform="translate(-2111.914 -794.98)" fill="#f37a50"/>
                <g id="Grupo_954837" data-name="Grupo 954837" transform="translate(1.215 1.063)">
                  <path id="Trazado_630664" data-name="Trazado 630664" d="M2123.149,806.666a.288.288,0,0,1-.088-.1,1.3,1.3,0,0,1,.138-1.592,1.387,1.387,0,0,1,1.58-.289.288.288,0,1,1-.26.514.821.821,0,0,0-.908.177.737.737,0,0,0-.044.917.288.288,0,0,1-.418.372Z" transform="translate(-2122.857 -804.553)" fill="#de623c"/>
                </g>
              </g>
            </g>
          </g>
        </g>
        <path id="Trazado_630665" data-name="Trazado 630665" d="M1913.061,1778.226c-2.988,4.123-10.326,1.593-10.083,7.169,11.159-.072,15.8,0,15.8,0a40.927,40.927,0,0,0-.493-5.511Z" transform="translate(-1878.384 -1655.243)"/>
        <path id="Trazado_630666" data-name="Trazado 630666" d="M2071.591,1778.226c-2.988,4.123-10.326,1.593-10.083,7.169,11.159-.072,15.8,0,15.8,0a40.847,40.847,0,0,0-.493-5.511Z" transform="translate(-2019.318 -1655.243)"/>
        <path id="Trazado_630667" data-name="Trazado 630667" d="M1927.2,1210.414s-3.236,27.376-2.5,33.25,4.766,12.453,4.471,31.884c3.637.911,8.907,0,8.907,0s.781-21.971-3.064-31.784c1.563-9.532,6.581-31.365,6.581-31.365Z" transform="translate(-1897.603 -1150.458)" fill="#201d40"/>
        <path id="Trazado_630668" data-name="Trazado 630668" d="M2009.356,1217.711s3.658,29.665,5.449,35.291,4.234,9.891,7.476,29.032c3.738.187,8.269.493,8.269.493s-.5-24.28-6.327-29.8c-.2-9.667.942-34.824.942-34.824Z" transform="translate(-1972.96 -1156.945)" fill="#2c2858"/>
        <g id="v" transform="translate(27.096 25.382)">
          <path id="h-5" d="M1951.735,900.655s-6.354-2.224-8.472-1.2c-6.583,3.17-8.093,0-8.093,0a53.4,53.4,0,0,0-7.764-.512c-.691,9.215-1.835,38.684-1.835,38.684a64.195,64.195,0,0,0,13.632,1.884,62.357,62.357,0,0,0,13.371-1.81s-.354-12.882-.648-17.67C1952.021,914.66,1951.735,907.727,1951.735,900.655Z" transform="translate(-1925.571 -898.938)" fill="#e62552"/>
        </g>
        <g id="c-5" data-name="c" transform="translate(47.184 54.941)">
          <path id="Trazado_630669" data-name="Trazado 630669" d="M2116.22,1165.526l-1.208,1.491s-.444-2.034-1.84-1.76v2.18s-.788,1.256-4.108.328c-3.013.052-1.287,1.839-2.2,2.218-1.343.56,1.739,2.719,4.694,2.447,3.823-.352,4.078-1.214,4.078-1.214l2.266-1.635Z" transform="translate(-2106.542 -1165.232)" fill="#f37a50"/>
        </g>
        <path id="Trazado_630670" data-name="Trazado 630670" d="M2161.285,914.4c5.8,2.5,12.927,8.253,17.311,17.369,1.5,3.126-5.643,3.757-7.068,2.525s-10.243-10.436-10.243-10.436Z" transform="translate(-2108.025 -887.305)" fill="#c4204a"/>
        <path id="Trazado_630671" data-name="Trazado 630671" d="M2185.956,1065.979c5.078-6.828,7.346-12.233,8.984-13.065,2.192-1.114,5.8-1.059,5.8,2.756s-13.929,15.375-13.929,15.375Z" transform="translate(-2129.958 -1009.881)" fill="#c4204a"/>
        <path id="Trazado_630672" data-name="Trazado 630672" d="M1710.394,827.571l-25.031-8.911-3.9,5.894,28.284,13.991Z" transform="translate(-1681.463 -802.189)" fill="#c4204a"/>
      </g>
      <g id="Grupo_954859" data-name="Grupo 954859" transform="translate(0 39.455)">
        <g id="Grupo_954842" data-name="Grupo 954842" transform="translate(22.877 4.303)">
          <path id="Trazado_630673" data-name="Trazado 630673" d="M1344.71,747.9c.5,1.425,5,2.215,5.347,1.813,2.391-6.138-.128-18.179-.128-18.179l-2.241-1.018A113.4,113.4,0,0,1,1344.71,747.9Z" transform="translate(-1327.208 -730.515)" fill="#f37a50"/>
          <path id="Trazado_630674" data-name="Trazado 630674" d="M1193.323,890.557c4.2-1.341,16.1-8.866,16.626-10.369l-4.975-2.665s-13.553,6.021-15.754,7.129C1185.4,886.563,1186.471,892.759,1193.323,890.557Z" transform="translate(-1187.035 -861.205)" fill="#f37a50"/>
        </g>
        <path id="Trazado_630675" data-name="Trazado 630675" d="M1068.261,702.681c.316-4.306-.929-8.111-4.362-10.048-3.48-1.964-7.84-.038-7.84-.038h0s-3.69-1.313-7.035,2.371-.815,6.926-2.183,9.613c-.81,1.591-4.93,1.919-3.866,7.1.307,1.495,2.1,2.5,3.627,2.6,2.675.176,5.166-.858,6.251.176,3.573,3.408,11.493,2.175,12.6-.942.344-.967,7.467.9,6.756-5.68C1071.85,704.5,1067.978,706.529,1068.261,702.681Z" transform="translate(-1035.933 -691.75)" fill="#2c2858"/>
        <g id="Grupo_954845" data-name="Grupo 954845" transform="translate(10.898 23.34)">
          <g id="Grupo_954844" data-name="Grupo 954844">
            <g id="Grupo_954843" data-name="Grupo 954843">
              <path id="Trazado_630676" data-name="Trazado 630676" d="M1100.944,925.365c0-3.6,3.12-8.994,1.625-12.628-1.089-2.924-2.909-7.831-5.138-8.65-1.052-.386-2.132-.655-3.443-1.018,0,0,.407,2.4-1.133,2.519-2.965.238-4.523-3.563-4.523-3.563-1.6-.153-8.876,2.224-9.219,3.393.017,4.716,4.141,11.062,5.393,16.161a26.953,26.953,0,0,1-.691,9.073s10.41,3.479,17.4-.37C1101.219,930.281,1100.944,927.8,1100.944,925.365Z" transform="translate(-1079.114 -902.018)" fill="#3f964f"/>
            </g>
          </g>
        </g>
        <g id="Grupo_954848" data-name="Grupo 954848" transform="translate(19.779 19.545)">
          <g id="Grupo_954847" data-name="Grupo 954847">
            <g id="Grupo_954846" data-name="Grupo 954846">
              <path id="Trazado_630677" data-name="Trazado 630677" d="M1163.715,868.521l-4.592-.688.235,3.795s1.256,4.191,3.867,4.25,1.891-3.2,1.891-3.2Z" transform="translate(-1159.123 -867.833)" fill="#f37a50"/>
            </g>
          </g>
        </g>
        <g id="Grupo_954852" data-name="Grupo 954852" transform="translate(14.283 3.26)">
          <path id="Trazado_630678" data-name="Trazado 630678" d="M1118.266,731.928c1.185,4.951,5.3,8.21,9.188,7.279s6.08-5.7,4.894-10.651-5.3-8.21-9.188-7.279S1117.08,726.977,1118.266,731.928Z" transform="translate(-1117.019 -721.119)" fill="#f37a50"/>
          <path id="Trazado_630679" data-name="Trazado 630679" d="M1230.708,791.79a.7.7,0,1,0,.312-.933A.7.7,0,0,0,1230.708,791.79Z" transform="translate(-1217.202 -783.052)"/>
          <path id="Trazado_630680" data-name="Trazado 630680" d="M1181.453,803.265a.753.753,0,1,0,.338-1.009A.753.753,0,0,0,1181.453,803.265Z" transform="translate(-1173.409 -793.179)"/>
          <g id="Grupo_954849" data-name="Grupo 954849" transform="translate(6.834 7.844)">
            <path id="Trazado_630681" data-name="Trazado 630681" d="M1171.556,793.4a.261.261,0,0,0,.121-.124,1.993,1.993,0,0,1,1.407-.974.262.262,0,0,0-.074-.518,2.49,2.49,0,0,0-1.808,1.272.262.262,0,0,0,.354.344Z" transform="translate(-1171.177 -791.781)" fill="#2c2858"/>
          </g>
          <g id="Grupo_954850" data-name="Grupo 954850" transform="translate(13.09 6.783)">
            <path id="Trazado_630682" data-name="Trazado 630682" d="M1229.472,783.176a.258.258,0,0,0,.069-.05.262.262,0,0,0,0-.37,1.838,1.838,0,0,0-1.824-.448.262.262,0,0,0,.169.5,1.313,1.313,0,0,1,1.287.325A.262.262,0,0,0,1229.472,783.176Z" transform="translate(-1227.539 -782.229)" fill="#2c2858"/>
          </g>
          <path id="Trazado_630683" data-name="Trazado 630683" d="M1222.365,813.161a6.961,6.961,0,0,0,1.08,1.026.276.276,0,0,1,.091.367,3.785,3.785,0,0,1-1.68,1.175.074.074,0,0,1-.077-.123,3.57,3.57,0,0,0,.856-1,.328.328,0,0,0,0-.3c-.109-.215-.326-.655-.473-1.018A.124.124,0,0,1,1222.365,813.161Z" transform="translate(-1209.306 -802.91)" fill="#de623c"/>
          <path id="Trazado_630684" data-name="Trazado 630684" d="M1112.731,814.53a1.81,1.81,0,1,1-2.8.069A2,2,0,0,1,1112.731,814.53Z" transform="translate(-1109.613 -803.688)" fill="#f37a50"/>
          <g id="Grupo_954851" data-name="Grupo 954851" transform="translate(1.202 11.29)">
            <path id="Trazado_630685" data-name="Trazado 630685" d="M1121.818,824.892a.262.262,0,0,0,.092-.077,1.184,1.184,0,0,0,.091-1.451,1.261,1.261,0,0,0-1.382-.474.262.262,0,1,0,.164.5.747.747,0,0,1,.792.282.67.67,0,0,1-.085.831.262.262,0,0,0,.326.392Z" transform="translate(-1120.44 -822.835)" fill="#de623c"/>
          </g>
          <path id="Trazado_630686" data-name="Trazado 630686" d="M1188.2,846.358a.209.209,0,0,1,.191-.333,14.8,14.8,0,0,0,3.93,0,.209.209,0,0,1,.192.333,2.6,2.6,0,0,1-4.313,0Z" transform="translate(-1179.439 -832.159)" fill="#fff"/>
        </g>
        <path id="Trazado_630687" data-name="Trazado 630687" d="M1114.406,723.947c4.641-.622,11.136-5.35,11.669-7.777-.9-2.915-5.681-4.38-8.382-3.03S1112.44,720.278,1114.406,723.947Z" transform="translate(-1098.972 -710.315)" fill="#2c2858"/>
        <g id="Grupo_954853" data-name="Grupo 954853" transform="translate(21.896 55.136)">
          <path id="Trazado_630688" data-name="Trazado 630688" d="M1184.97,1250.088c-.307-3.067,1.275-26.408,1.275-26.408,4.475-20.52,2.717-35.209,2.717-35.209l-7.692.541-3.031,11.6,1.438,19.365s-.54,1.49-.825,2.683c-1.544,6.464-.006,14.189.945,19.339.441,2.386,1.126,7.4,1.144,8.541l-1.932,2.5s6.994,7.74,8.07,7.788c2.091.095,1.475-1.976,1.475-1.976C1185.679,1255.892,1185.058,1250.966,1184.97,1250.088Z" transform="translate(-1178.196 -1188.471)" fill="#f37a50"/>
          <path id="Trazado_630689" data-name="Trazado 630689" d="M1179.572,1752.84l.385,4.973.894.04.452-4.618c2.379.607,4.084,4.925,4.084,4.925,1.639.588,5.8.991,7.287.227.358-1.453-3.443-2.472-3.443-2.472a3.827,3.827,0,0,1-3.093.283,14.58,14.58,0,0,1-4.513-8.6S1177.431,1747.891,1179.572,1752.84Z" transform="translate(-1178.878 -1685.536)" fill="#e62552"/>
        </g>
        <g id="Grupo_954854" data-name="Grupo 954854" transform="translate(0 55.136)">
          <path id="Trazado_630690" data-name="Trazado 630690" d="M1012.84,1189.963,1002,1188.471c-4.145,9.378-5.5,25.707-6.622,31.523-4.517,7.573-5.951,30.54-5.951,30.54l-1.932,2.5s6.994,7.74,8.069,7.788c2.091.095,1.475-1.976,1.475-1.976a14.921,14.921,0,0,1-3.621-7.737c-.28-1.3,8.771-26.775,8.771-26.775l.966-2.418c11.054-18.258,12.868-32.06,12.868-32.06Z" transform="translate(-986.771 -1188.471)" fill="#f37a50"/>
          <path id="Trazado_630691" data-name="Trazado 630691" d="M981.547,1752.84l.385,4.973.894.04.452-4.618c2.379.607,4.084,4.925,4.084,4.925,1.639.588,5.8.991,7.287.227.358-1.453-3.443-2.472-3.443-2.472a3.827,3.827,0,0,1-3.093.283,14.578,14.578,0,0,1-4.513-8.6S979.406,1747.891,981.547,1752.84Z" transform="translate(-980.938 -1685.536)" fill="#e62552"/>
        </g>
        <g id="Grupo_954858" data-name="Grupo 954858" transform="translate(5.924 49.407)">
          <g id="Grupo_954857" data-name="Grupo 954857">
            <g id="Grupo_954856" data-name="Grupo 954856">
              <g id="Grupo_954855" data-name="Grupo 954855">
                <path id="Trazado_630692" data-name="Trazado 630692" d="M1034.3,1173.042c1.082-3.621.634-29.141,10.187-36.187l16.417,1.336c3.8,6.149,2.405,22.15,1.126,35.318C1054.3,1176.268,1048.159,1177.376,1034.3,1173.042Z" transform="translate(-1034.304 -1136.855)" fill="#3f964f"/>
              </g>
            </g>
          </g>
        </g>
      </g>
      <g id="Grupo_954861" data-name="Grupo 954861" transform="translate(33.003 0)">
        <g id="Grupo_954860" data-name="Grupo 954860" transform="translate(13.263)">
          <path id="Trazado_630693" data-name="Trazado 630693" d="M1454.5,356.343a6.1,6.1,0,0,0-1.343-2.316c-4.765-6.942-15.788-2.92-31.829,1.627-2.682.761-2.126-2.84-3.315-10-.773-4.657-5.788-10.624-10.653-9.121-8.022,2.479,1.642,6.394-.636,24.164-1.217,9.495-11.129,7.45-8.545,15.811l5.882,19.031c1.006,3.254,2.294,6.283,7.05,5.378,4.611-.878,4.586,2.593,11.015.607l32.179-9.945a6.216,6.216,0,0,0,4.115-7.756,6.122,6.122,0,0,0-2.352-3.2,6.1,6.1,0,0,0-.87-9.289,6.134,6.134,0,0,0-1.511-9.719,6.143,6.143,0,0,0,.815-5.272Z" transform="translate(-1397.747 -336.297)" fill="#facb32"/>
          <path id="Trazado_630694" data-name="Trazado 630694" d="M1666.282,509.026l15.344-4.742a6.257,6.257,0,0,0,4.215-4.479,1.632,1.632,0,0,0-3.175-.754,2.966,2.966,0,0,1-2,2.126l-15.711,4.856a2.942,2.942,0,1,1-1.737-5.621l10.5-3.245a1.626,1.626,0,1,0-.96-3.107l-10.5,3.245a6.214,6.214,0,0,0-4.115,7.755,6.146,6.146,0,0,0,3.545,3.853,6.119,6.119,0,0,0,3.082,8.621,6.153,6.153,0,0,0,3.535,8.788,6.128,6.128,0,0,0-.31,4.383,6.214,6.214,0,0,0,7.773,4.08l9.78-3.023a6.258,6.258,0,0,0,4.217-4.478,1.622,1.622,0,0,0-1.2-1.961,1.64,1.64,0,0,0-1.971,1.2,2.979,2.979,0,0,1-2.005,2.129l-9.78,3.022a2.942,2.942,0,1,1-1.737-5.621l11.6-3.586a6.257,6.257,0,0,0,4.217-4.48,1.631,1.631,0,0,0-3.173-.758,2.937,2.937,0,0,1-2,2.131l-12.6,3.893a2.943,2.943,0,1,1-1.738-5.623l14.429-4.459a6.258,6.258,0,0,0,4.218-4.478,1.631,1.631,0,0,0-3.173-.758,2.939,2.939,0,0,1-2.005,2.129l-14.823,4.581a2.943,2.943,0,1,1-1.738-5.623Z" transform="translate(-1628.99 -476.484)" fill="#eba223"/>
        </g>
        <path id="Trazado_630695" data-name="Trazado 630695" d="M1300.889,664.109l-10.019,3.1a2.63,2.63,0,0,1-3.289-1.736l-9.2-29.774a2.63,2.63,0,0,1,1.736-3.289l10.019-3.1a2.63,2.63,0,0,1,3.289,1.736l9.2,29.774A2.63,2.63,0,0,1,1300.889,664.109Z" transform="translate(-1278.26 -596.68)" fill="#7f99eb"/>
      </g>
      <g id="Grupo_954868" data-name="Grupo 954868" transform="translate(9.93 61.314)">
        <g id="Grupo_954866" data-name="Grupo 954866" transform="translate(39.387)">
          <g id="Grupo_954865" data-name="Grupo 954865">
            <g id="Grupo_954864" data-name="Grupo 954864">
              <g id="Grupo_954863" data-name="Grupo 954863">
                <g id="Grupo_954862" data-name="Grupo 954862">
                  <path id="Trazado_630696" data-name="Trazado 630696" d="M1430.007,894.261c-1.045.064-2.263-.278-2.956.484l-1.817-2.092c1.772-2.839,5.938-3.8,6.366-3.84,1.111-.1,1.627-.212,1.714-.064s.359,1.138-1.253,1.331c-2.023.243-.68,1.86,3.425.321,1.028-.386,2.962.115,2.262.866C1436.976,892.1,1434.761,893.971,1430.007,894.261Z" transform="translate(-1425.234 -888.679)" fill="#f37a50"/>
                </g>
              </g>
            </g>
          </g>
        </g>
        <g id="Grupo_954867" data-name="Grupo 954867" transform="translate(0 3.105)">
          <path id="Trazado_630697" data-name="Trazado 630697" d="M1276.029,925.315c-.976,1.391,1.252,6.03,1.845,6.079,7.181-1.834,16.546-12.027,16.546-12.027l-.537-2.718A127.592,127.592,0,0,1,1276.029,925.315Z" transform="translate(-1252.987 -916.649)" fill="#f37a50"/>
          <path id="Trazado_630698" data-name="Trazado 630698" d="M1074.129,930.639c4.317,2.445,19.62,6.521,21.268,5.812l-1.6-6.146s-15.328-6.595-17.926-7.566C1071.377,921.047,1067.073,926.661,1074.129,930.639Z" transform="translate(-1070.393 -921.788)" fill="#f37a50"/>
        </g>
      </g>
    </g>
    <g id="Grupo_954871" data-name="Grupo 954871" transform="translate(289.435 129.12)">
      <g id="Grupo_954870" data-name="Grupo 954870" transform="translate(9.344 0)">
        <path id="Trazado_630699" data-name="Trazado 630699" d="M2412.352,321.174a4.364,4.364,0,0,0-.224-1.9c-1.156-5.908-9.53-6.4-21.347-7.969-1.976-.262-.589-2.467.664-7.5.815-3.275-.782-8.615-4.4-9.009-5.967-.651-.738,4.661-7.277,15.675-3.494,5.885-9.418,1.729-10.1,7.949l-1.543,14.158c-.264,2.421-.279,4.774,3.1,5.53,3.275.733,2.273,3,7.055,3.525l23.938,2.61a4.444,4.444,0,0,0,4.9-3.921,4.376,4.376,0,0,0-.635-2.766,4.358,4.358,0,0,0,2.066-6.342,4.385,4.385,0,0,0,1.768-6.806,4.393,4.393,0,0,0,2.031-3.228Z" transform="translate(-2368.023 -294.739)" fill="#facb32"/>
        <path id="Trazado_630700" data-name="Trazado 630700" d="M2579.633,486.03l11.415,1.244a4.473,4.473,0,0,0,4.037-1.742,1.167,1.167,0,0,0-1.869-1.4,2.121,2.121,0,0,1-1.917.827l-11.688-1.274a2.1,2.1,0,1,1,.456-4.182l7.81.852a1.163,1.163,0,1,0,.252-2.311l-7.811-.852a4.443,4.443,0,0,0-4.9,3.92,4.4,4.4,0,0,0,1.232,3.534,4.375,4.375,0,0,0-.425,6.532,4.4,4.4,0,0,0-.176,6.77,4.379,4.379,0,0,0-1.448,2.788,4.443,4.443,0,0,0,3.942,4.884l7.275.793a4.474,4.474,0,0,0,4.039-1.741,1.16,1.16,0,0,0-.232-1.628,1.172,1.172,0,0,0-1.635.229,2.13,2.13,0,0,1-1.92.828l-7.275-.793a2.1,2.1,0,1,1,.456-4.182l8.631.941a4.473,4.473,0,0,0,4.039-1.742,1.166,1.166,0,0,0-1.866-1.4,2.1,2.1,0,0,1-1.92.829l-9.37-1.022a2.1,2.1,0,1,1,.456-4.183l10.734,1.17a4.474,4.474,0,0,0,4.039-1.741,1.166,1.166,0,0,0-1.866-1.4,2.1,2.1,0,0,1-1.92.828l-11.027-1.2a2.1,2.1,0,1,1,.456-4.183Z" transform="translate(-2551.619 -456.919)" fill="#eba223"/>
      </g>
      <path id="Trazado_630701" data-name="Trazado 630701" d="M2293.281,477.9l-7.453-.812a1.972,1.972,0,0,1-1.978-2.107l2.415-22.149a1.88,1.88,0,0,1,2.073-1.666l7.454.813a1.88,1.88,0,0,1,1.666,2.073l-2.415,22.149A1.851,1.851,0,0,1,2293.281,477.9Z" transform="translate(-2283.838 -433.791)" fill="#7f99eb"/>
    </g>
    <g id="Grupo_954872" data-name="Grupo 954872" transform="translate(102.924 132.915)">
      <path id="Trazado_630702" data-name="Trazado 630702" d="M1461.94,1053.8l4.925.039-4.431,2.149a1.642,1.642,0,0,0-.922,1.573l.43,7.329-2.76-6.809a1.642,1.642,0,0,0-1.5-1.025l-4.814-.06,4.322-2.121a1.642,1.642,0,0,0,.915-1.57l-.431-7.334,2.759,6.8A1.641,1.641,0,0,0,1461.94,1053.8Z" transform="translate(-1358.594 -966.376)" fill="#facb32"/>
      <path id="Trazado_630703" data-name="Trazado 630703" d="M1992.181,341.214l4.144,2.188-4.685-.123a1.562,1.562,0,0,0-1.468.926l-2.844,6.382.647-6.962a1.562,1.562,0,0,0-.82-1.523l-4.042-2.158,4.581.1a1.562,1.562,0,0,0,1.461-.926l2.846-6.386-.646,6.957A1.561,1.561,0,0,0,1992.181,341.214Z" transform="translate(-1829.983 -332.309)" fill="#facb32"/>
      <path id="Trazado_630704" data-name="Trazado 630704" d="M1325.815,333.81l3.089-.008-2.765,1.377a1.03,1.03,0,0,0-.568.993l.318,4.594-1.776-4.253a1.03,1.03,0,0,0-.948-.633l-3.02-.006,2.7-1.359a1.029,1.029,0,0,0,.564-.991l-.318-4.6,1.774,4.25A1.03,1.03,0,0,0,1325.815,333.81Z" transform="translate(-1240.603 -328.927)" fill="#facb32"/>
      <path id="Trazado_630705" data-name="Trazado 630705" d="M1688.542,1278.579l2.959,1.85-3.473-.345a1.163,1.163,0,0,0-1.141.608l-2.458,4.585.859-5.135a1.163,1.163,0,0,0-.526-1.176l-2.885-1.822,3.4.322a1.164,1.164,0,0,0,1.135-.609l2.46-4.589-.858,5.132A1.163,1.163,0,0,0,1688.542,1278.579Z" transform="translate(-1562.184 -1167.558)" fill="#facb32"/>
      <path id="Trazado_630706" data-name="Trazado 630706" d="M2805.584,550.244l2.722,1.461-3.087-.1a1.029,1.029,0,0,0-.972.6l-1.9,4.194.458-4.586a1.03,1.03,0,0,0-.533-1.008l-2.655-1.44,3.019.086a1.029,1.029,0,0,0,.967-.6l1.905-4.2-.458,4.583A1.03,1.03,0,0,0,2805.584,550.244Z" transform="translate(-2555.851 -520.706)" fill="#facb32"/>
      <path id="Trazado_630707" data-name="Trazado 630707" d="M609.075,1206.189l3.082-.216-2.666,1.56a1.03,1.03,0,0,0-.5,1.029l.626,4.563L607.558,1209a1.029,1.029,0,0,0-.989-.568l-3.014.2,2.6-1.537a1.03,1.03,0,0,0,.5-1.026l-.627-4.566,2.057,4.121A1.03,1.03,0,0,0,609.075,1206.189Z" transform="translate(-603.556 -1104.645)" fill="#facb32"/>
    </g>
    <path id="Trazado_630708" data-name="Trazado 630708" d="M2604.312,1226.558a3.5,3.5,0,1,1-3.5-3.5A3.5,3.5,0,0,1,2604.312,1226.558Z" transform="translate(-2273.083 -990.896)" fill="#fff"/>
    <path id="Trazado_630709" data-name="Trazado 630709" d="M1484.572,1412.874a2.731,2.731,0,1,1,0-3.862A2.731,2.731,0,0,1,1484.572,1412.874Z" transform="translate(-1279.712 -1155.497)" fill="#fff"/>
    <path id="Trazado_630710" data-name="Trazado 630710" d="M2656.67,1162.941a1.883,1.883,0,1,1-1.883,1.882,1.885,1.885,0,0,1,1.883-1.882Zm0-.8a2.687,2.687,0,1,0,2.687,2.687,2.686,2.686,0,0,0-2.687-2.687Z" transform="translate(-2323.463 -936.736)" fill="#fff"/>
    <path id="Trazado_630711" data-name="Trazado 630711" d="M1144.883,514.141a2.68,2.68,0,1,1-2.68,2.68,2.683,2.683,0,0,1,2.68-2.68Zm0-1.145a3.825,3.825,0,1,0,3.825,3.825,3.825,3.825,0,0,0-3.825-3.825Z" transform="translate(-978.472 -359.65)" fill="#fff"/>
  </g>
</svg>
