<svg xmlns="http://www.w3.org/2000/svg" width="148" height="148" viewBox="0 0 148 148">
  <g id="Grupo_969350" data-name="Grupo 969350" transform="translate(-379 -12677)">
    <circle id="Elipse_7765" data-name="Elipse 7765" cx="74" cy="74" r="74" transform="translate(379 12677)" fill="#583cb6"/>
    <g id="control-de-calidad_1_" data-name="control-de-calidad (1)" transform="translate(405 12703)">
      <path id="Trazado_630724" data-name="Trazado 630724" d="M31.5,38.091,32.022,36h-19.3l.522,2.091a9.409,9.409,0,0,0,18.257,0Zm-14.561.982H27.8a6.338,6.338,0,0,1-10.865,0Z" transform="translate(6.825 19.318)" fill="#fff"/>
      <path id="Trazado_630725" data-name="Trazado 630725" d="M63,65.465h-6.7a20.047,20.047,0,0,0,.549-4.61V37.378a3.063,3.063,0,0,0,1.537-2.646V31.659a3.076,3.076,0,0,0-3.073-3.073H55.24A23.045,23.045,0,0,0,33.806,7.152V7.073A3.076,3.076,0,0,0,30.732,4H27.659a3.076,3.076,0,0,0-3.073,3.073v.078A23.045,23.045,0,0,0,3.152,28.586H3.073A3.076,3.076,0,0,0,0,31.659v3.073a3.063,3.063,0,0,0,1.537,2.646V60.855a20.082,20.082,0,0,0,16.9,19.723v1.789A10.769,10.769,0,0,0,29.2,93.122l13.83,0A3.076,3.076,0,0,0,46.1,90.051h3.073v3.073H79.9V77.758h13.83V50.1H63Zm-1.537,3.073h6.146v3.073H61.465ZM49.172,65.465v9.22h-.263a4.588,4.588,0,0,0-3.261,1.351l-1.838,1.838a3.011,3.011,0,0,0-.785-.115h-.12a12.7,12.7,0,0,0-6.325-9.467A16.917,16.917,0,0,0,50.709,51.635V37.806h3.073V60.855a16.846,16.846,0,0,1-.648,4.61ZM33.189,70.141l.564.212a9.6,9.6,0,0,1,6.065,7.4H33.8V73.146a7.6,7.6,0,0,0-.613-3.006Zm-7.067-4.677h0l-.015,0H24.586a13.845,13.845,0,0,1-13.83-13.83V37.806H47.635v13.83a13.845,13.845,0,0,1-13.83,13.83H26.138ZM52.167,28.586H46.1v-9.22a3.076,3.076,0,0,0-3.073-3.073H39.952a3.076,3.076,0,0,0-3.073,3.073v9.22H33.806V10.225A19.98,19.98,0,0,1,52.167,28.586Zm-9.141,0H39.952v-9.22h3.073ZM30.732,7.073V28.586H27.659V7.073Zm-6.146,3.152V28.586H21.513v-9.22a3.076,3.076,0,0,0-3.073-3.073H15.366a3.076,3.076,0,0,0-3.073,3.073v9.22H6.225A19.98,19.98,0,0,1,24.586,10.225ZM18.439,28.586H15.366v-9.22h3.073ZM3.073,31.659H55.318v3.073H3.073Zm1.537,29.2V37.806H7.683v13.83A16.918,16.918,0,0,0,20.449,68a7.6,7.6,0,0,0-2.01,5.14v4.33A17,17,0,0,1,4.61,60.855ZM29.2,90.049a7.692,7.692,0,0,1-7.683-7.683V73.145a4.606,4.606,0,0,1,4.593-4.607h.032a4.609,4.609,0,0,1,4.594,4.608v5.682l-2.814,4.223,2.557,1.7,2.614-3.925h9.936l0,9.22Zm16.788-10,1.838-1.838a1.53,1.53,0,0,1,1.088-.45h.263a1.538,1.538,0,0,1,1.537,1.537v1.537h3.073a1.538,1.538,0,0,1,1.537,1.537,4.615,4.615,0,0,1-4.61,4.61H46.1V80.831A3.011,3.011,0,0,0,45.983,80.046Zm30.848,10H52.245V89.9a7.7,7.7,0,0,0,6.146-7.528,4.615,4.615,0,0,0-4.61-4.61h-.263a4.61,4.61,0,0,0-1.274-1.882V68.538h6.146v6.146H70.685V68.538h6.146ZM75.294,53.172h6.146v3.073H75.294Zm-3.073,0v6.146H84.514V53.172h6.146V74.685H79.9v-9.22H66.075V53.172Z" transform="translate(0 2.146)" fill="#fff"/>
      <path id="Trazado_630726" data-name="Trazado 630726" d="M56.439,36.879A18.439,18.439,0,1,0,38,18.439,18.46,18.46,0,0,0,56.439,36.879Zm0-33.806A15.366,15.366,0,1,1,41.073,18.439,15.384,15.384,0,0,1,56.439,3.073Z" transform="translate(20.392)" fill="#fff"/>
      <path id="Trazado_630727" data-name="Trazado 630727" d="M63.905,9.466,61.732,7.293,48.989,20.036l-3.523-3.523-2.173,2.173,5.7,5.7Z" transform="translate(23.232 3.914)" fill="#fff"/>
      <path id="Trazado_630728" data-name="Trazado 630728" d="M41,26H68.659v3.073H41Z" transform="translate(22.001 13.952)" fill="#fff"/>
      <path id="Trazado_630729" data-name="Trazado 630729" d="M41,30H68.659v3.073H41Z" transform="translate(22.001 16.099)" fill="#fff"/>
      <path id="Trazado_630730" data-name="Trazado 630730" d="M18.22,34.146h3.073A6.146,6.146,0,0,0,9,34.146h3.073a3.073,3.073,0,0,1,6.146,0Z" transform="translate(4.83 15.025)" fill="#fff"/>
      <path id="Trazado_630731" data-name="Trazado 630731" d="M27.146,31.073a3.076,3.076,0,0,1,3.073,3.073h3.073a6.146,6.146,0,0,0-12.293,0h3.073A3.076,3.076,0,0,1,27.146,31.073Z" transform="translate(11.269 15.025)" fill="#fff"/>
    </g>
  </g>
</svg>
