<svg xmlns="http://www.w3.org/2000/svg" width="148" height="148" viewBox="0 0 148 148">
  <g id="Grupo_969352" data-name="Grupo 969352" transform="translate(-1081 -12677)">
    <circle id="Elipse_7767" data-name="Elipse 7767" cx="74" cy="74" r="74" transform="translate(1081 12677)" fill="#583cb6"/>
    <path id="gestion-de-archivos" d="M16.584,57.927a1.677,1.677,0,0,1,1.677-1.677H35.719a1.677,1.677,0,1,1,0,3.355H18.261A1.677,1.677,0,0,1,16.584,57.927ZM48.271,68.019H18.261a1.677,1.677,0,0,0,0,3.355h30.01a1.677,1.677,0,0,0,0-3.355Zm0,11.769H18.261a1.677,1.677,0,1,0,0,3.355h30.01a1.677,1.677,0,0,0,0-3.355Zm0,11.769H18.261a1.677,1.677,0,0,0,0,3.355h30.01a1.677,1.677,0,0,0,0-3.355Zm31.1-8.482V78.434l-9.706-.049v32.1h9.706v-4.633a5.849,5.849,0,0,1,5.842-5.842H97.837a5.849,5.849,0,0,1,5.835,5.571l5.523-5.012a1.677,1.677,0,1,1,2.254,2.484l-7.77,7.052v8.368a5.849,5.849,0,0,1-5.842,5.842H85.216a5.849,5.849,0,0,1-5.842-5.842v-4.633H67.99a1.677,1.677,0,0,1-1.677-1.677v-33.8l-7.78-.039V109.3a1.677,1.677,0,0,1-1.677,1.677H9.677A1.677,1.677,0,0,1,8,109.3V41.862a1.677,1.677,0,0,1,1.677-1.677H43.483a1.678,1.678,0,0,1,1.211.517L58.066,54.658a1.677,1.677,0,0,1,.466,1.161V74.975l7.78.039V41.366a1.677,1.677,0,0,1,1.677-1.677H79.374V35.055a5.849,5.849,0,0,1,5.842-5.842H97.837a5.849,5.849,0,0,1,5.835,5.571l5.523-5.012a1.677,1.677,0,0,1,2.254,2.484l-7.77,7.052v8.368a5.849,5.849,0,0,1-5.842,5.842H85.216a5.849,5.849,0,0,1-5.842-5.842V43.043H69.667V75.03l9.706.049V70.454a5.849,5.849,0,0,1,5.842-5.842H97.837a5.849,5.849,0,0,1,5.835,5.571l5.523-5.012a1.677,1.677,0,0,1,2.254,2.484l-7.77,7.052v8.368a5.849,5.849,0,0,1-5.842,5.842H85.216a5.848,5.848,0,0,1-5.842-5.842Zm3.355,0a2.49,2.49,0,0,0,2.487,2.487H97.837a2.49,2.49,0,0,0,2.487-2.487V77.752l-3.758,3.411a1.677,1.677,0,0,1-2.313-.056l-6.128-6.128A1.677,1.677,0,0,1,90.5,72.607l5,5,4.829-4.383V70.455a2.49,2.49,0,0,0-2.487-2.487H85.215a2.49,2.49,0,0,0-2.487,2.487V83.076Zm0-35.4a2.49,2.49,0,0,0,2.487,2.487H97.837a2.49,2.49,0,0,0,2.487-2.487V42.352l-3.758,3.411a1.677,1.677,0,0,1-2.313-.056l-6.128-6.128A1.677,1.677,0,1,1,90.5,37.207l5,5,4.829-4.383V35.055a2.49,2.49,0,0,0-2.487-2.487H85.215a2.49,2.49,0,0,0-2.487,2.487V47.676Zm-38.153-2.25v8.714h8.349Zm10.6,62.2V57.5H42.9a1.677,1.677,0,0,1-1.677-1.677V43.539H11.355v64.084Zm27.551,10.852a2.49,2.49,0,0,0,2.487,2.487H97.837a2.49,2.49,0,0,0,2.487-2.487v-5.324l-3.758,3.411a1.677,1.677,0,0,1-2.313-.056l-6.128-6.128a1.677,1.677,0,1,1,2.372-2.372l5,5,4.829-4.383v-2.767a2.49,2.49,0,0,0-2.487-2.487H85.216a2.49,2.49,0,0,0-2.487,2.487v12.621Z" transform="translate(1095 12673.787)" fill="#fff"/>
  </g>
</svg>
