<svg xmlns="http://www.w3.org/2000/svg" width="393.49" height="384.215" viewBox="0 0 393.49 384.215">
  <g id="Grupo_966832" data-name="Grupo 966832" transform="translate(-72.172 -105.722)">
    <g id="shadow" transform="translate(72.172 447.106)">
      <path id="Trazado_641288" data-name="Trazado 641288" d="M288.262,960.114c6.7-.713,13.4-1.486,20.1-2.258,22.138-2.553,44.28-4.153,66.461-5.713,15.749-1.108,31.6-1.7,47.335-.068,13.532,1.4,29.87,4.208,40.32,14.7,5.861,5.882,3.368,13.311-5.251,18.32-9.106,5.292-20.666,5.446-30.734,6.186-94.653,6.956-188.8-2.173-283.483-1.793-13.4.054-27.008.932-40.394,1.525-8.132.36-18.7,1.891-26.691-.322-5.048-1.4-4.671-6.274-.829-8.8,7.013-4.612,17.581-5.135,25.561-5.658q31.31-2.049,62.6-4.525Q225.819,966.755,288.262,960.114Z" transform="translate(-72.172 -951.069)" opacity="0.08"/>
    </g>
    <g id="object" transform="translate(108.592 105.722)">
      <g id="Grupo_966753" data-name="Grupo 966753" transform="translate(246.27 128.408)">
        <g id="Grupo_966751" data-name="Grupo 966751" transform="translate(0.877)">
          <path id="Trazado_641289" data-name="Trazado 641289" d="M774.349,431.935l1.047-8.245,3.521.349.526,5.824,1.73-.613-1.75,6.933-3.7.135Z" transform="translate(-774.349 -423.69)" fill="#ebceb1"/>
        </g>
        <g id="Grupo_966752" data-name="Grupo 966752" transform="translate(0 10.358)">
          <path id="Trazado_641290" data-name="Trazado 641290" d="M794.582,498.641c5.311.475,11.4.227,14.92-3.777,2.864-3.256,3.107-8.107,2.161-12.339a2.019,2.019,0,0,0-.678-1.3,2.09,2.09,0,0,0-1.345-.2l-14.184,1.094c-2.65.2-7.96,1.682-9.4-.389-1.627-2.332-1.638-8.106-2.2-10.867l-4.351-21.527-7.326.646q.107,9.911.214,19.822.076,7.086.153,14.173C772.681,496.549,784.291,497.722,794.582,498.641Z" transform="translate(-772.179 -449.338)" fill="#d1d9db"/>
        </g>
      </g>
      <path id="Trazado_641291" data-name="Trazado 641291" d="M839.542,529.777c4.334,3.3,6.181,9.208,7.255,14.681,4.419,22.53,2.165,45.771-.163,68.611-.26,2.556-.876,3.661-3.339,2.563-15.461-6.892-30.67-15.79-47.563-16.871,4.235-14.338,4.684-29.5,7.554-44.171a54.253,54.253,0,0,1,3.7-12.443,47.618,47.618,0,0,1,10.375-14.507c3.958-3.6,10.248-2.005,15-.8a23.441,23.441,0,0,1,5.737,2A12.13,12.13,0,0,1,839.542,529.777Z" transform="translate(-539.951 -355.932)" fill="#d1d9db"/>
      <g id="Grupo_966758" data-name="Grupo 966758" transform="translate(24.087 158.315)">
        <g id="Grupo_966755" data-name="Grupo 966755" transform="translate(68.558 25.097)">
          <g id="Grupo_966754" data-name="Grupo 966754">
            <path id="Trazado_641292" data-name="Trazado 641292" d="M392.8,560.628l4.3,1.214,3.443-1.947.783.506-.6.981,3.32-.813,2.488,1.182.6,3.581-1.819,3.315-3.676.244-3.914-1.9-5.964-1.41Z" transform="translate(-391.768 -559.895)" fill="#ebceb1"/>
          </g>
        </g>
        <g id="Grupo_966757" data-name="Grupo 966757">
          <g id="Grupo_966756" data-name="Grupo 966756">
            <path id="Trazado_641293" data-name="Trazado 641293" d="M293.54,521.328l-43.113-10.566c-1.487-.364-3.267-2.005-4.556-2.8l-9.192-5.64c-2.1-1.286-5.772-4.58-8.314-4.578-4.141,0-6.332,6.181-6.362,9.5-.092,10.179,9.417,14.542,16.506,20l6.837,3.538,47.87.956Z" transform="translate(-222.002 -497.748)" fill="#d1d9db"/>
          </g>
        </g>
      </g>
      <g id="Grupo_966762" data-name="Grupo 966762" transform="translate(12.61 114.273)">
        <g id="Grupo_966761" data-name="Grupo 966761" transform="translate(7.69 14.771)">
          <g id="Grupo_966760" data-name="Grupo 966760">
            <g id="Grupo_966759" data-name="Grupo 966759">
              <path id="Trazado_641294" data-name="Trazado 641294" d="M235.779,425.727c-5.5,1.833-11.359-2.178-16.661.473-3.448,1.723-5.792,6.062-6.356,10.443a11.925,11.925,0,0,0,.559,5.963,9.072,9.072,0,0,0,2.035,2.951,10.949,10.949,0,0,0,3.752,2.455,29.729,29.729,0,0,1-1.915,4.236l8.118,1.527q.526-2.765,1.051-5.531a11.413,11.413,0,0,0,2.24-.964c4.376-2.481,7.563-8.018,7.89-13.706A34.7,34.7,0,0,0,235.779,425.727Z" transform="translate(-212.626 -425.263)" fill="#ebceb1"/>
            </g>
          </g>
        </g>
        <path id="Trazado_641295" data-name="Trazado 641295" d="M196.606,415.664c-.233-.4-.456-.8-.656-1.212-2.436-5.028-3.743-10.931-.14-15.777,3.67-4.935,11.188-7.094,16.932-5.631,3.166.806,6.512,1.89,9.616.871a4.327,4.327,0,0,0,2.355-1.647c.488-.763.614-1.718,1.118-2.47a3.024,3.024,0,0,1,5.089.659,10.305,10.305,0,0,0,.523,1.783c.679,1.2,2.335,1.25,3.7,1.43a1.773,1.773,0,0,1,1.188.508c.508.624.024,1.61-.674,2.01-.964.552-2.647.4-3.257,1.479-.441.782.234,2.283.121,3.185-.4,3.162-3.125,6.034-6.008,7.11-2.761,1.031-5.234-.088-7.993-.795a24.965,24.965,0,0,0-2.379-.794,8.231,8.231,0,0,0-2.837.544,11.786,11.786,0,0,1-3.521.015,7.577,7.577,0,0,0-3.489.309,2.932,2.932,0,0,0-1.951,2.678c.08,1.425,1.515,2.534,1.488,3.961-.023,1.237-1.123,2.161-1.594,3.305-.364.886-.375,1.959-1.039,2.649-.3.307-.694.5-.962.835-.351.432-.458,1.067-.925,1.368a1.329,1.329,0,0,1-1.643-.4,4.922,4.922,0,0,1-.759-1.672A23.563,23.563,0,0,0,196.606,415.664Z" transform="translate(-193.583 -388.688)" fill="#333"/>
      </g>
      <g id="Grupo_966774" data-name="Grupo 966774" transform="translate(0 155.325)">
        <path id="Trazado_641296" data-name="Trazado 641296" d="M192.486,490.442a6.188,6.188,0,0,0-3.61.356,5.784,5.784,0,0,0-2.065,2.474,142.914,142.914,0,0,0-16.866,82.31,249.238,249.238,0,0,1,49.63-3.878l-4.544-32.944c-1.117-8.1-2.237-16.213-4.094-24.183a134.357,134.357,0,0,0-6.549-20.5C202.663,489.876,196.382,490.84,192.486,490.442Z" transform="translate(-166.476 -490.344)" fill="#d1d9db"/>
        <g id="Grupo_966767" data-name="Grupo 966767" transform="translate(14.509 78.749)">
          <g id="Grupo_966764" data-name="Grupo 966764" transform="translate(35.841 127.367)">
            <g id="Grupo_966763" data-name="Grupo 966763">
              <path id="Trazado_641297" data-name="Trazado 641297" d="M298.255,1004.4l3.192,2.981a3.974,3.974,0,0,1-.993,6.529c-1.52.663-3.66.561-6.621-1.465l-6.8-7.731,1.1-2.5,9.818-1.483Z" transform="translate(-287.035 -1000.734)" fill="#1a1a1a"/>
            </g>
          </g>
          <g id="Grupo_966766" data-name="Grupo 966766">
            <g id="Grupo_966765" data-name="Grupo 966765">
              <path id="Trazado_641298" data-name="Trazado 641298" d="M238.671,685.344l15.808,64.587-4.657,63.189-15.6,1.348-3.6-57s-34.217-62.451-32.259-63.8S238.671,685.344,238.671,685.344Z" transform="translate(-198.284 -685.344)" fill="#3c6794"/>
            </g>
          </g>
        </g>
        <g id="Grupo_966772" data-name="Grupo 966772" transform="translate(0 78.251)">
          <g id="Grupo_966769" data-name="Grupo 966769" transform="translate(1.974 126.004)">
            <g id="Grupo_966768" data-name="Grupo 966768">
              <path id="Trazado_641299" data-name="Trazado 641299" d="M178.465,1001.655l3.2,2.974a3.974,3.974,0,0,1-.98,6.531c-1.518.666-3.659.568-6.624-1.452l-6.814-7.718V998.4l2.575-2.27,7.5,1.389Z" transform="translate(-167.246 -996.126)" fill="#1a1a1a"/>
            </g>
          </g>
          <g id="Grupo_966771" data-name="Grupo 966771">
            <g id="Grupo_966770" data-name="Grupo 966770">
              <path id="Trazado_641300" data-name="Trazado 641300" d="M206.45,688.7l-4.9,66.312-23.009,58.375-16.181-3.242,14.172-55.323s-13.267-69.963-10.987-70.646S206.45,688.7,206.45,688.7Z" transform="translate(-162.357 -684.111)" fill="#3c6794"/>
            </g>
          </g>
        </g>
        <g id="Grupo_966773" data-name="Grupo 966773" transform="translate(1.974 0.47)">
          <path id="Trazado_641301" data-name="Trazado 641301" d="M167.245,611.8l6.127-14.825,21.34-7.079-4.07-27.029,21.291-3.445,3.687,38.031,5.219,15.568-51.451,9.4Z" transform="translate(-167.245 -531.997)" fill="#3c6794"/>
          <path id="Trazado_641302" data-name="Trazado 641302" d="M212.8,511.149c.034-4.18-.182-8.938-3.373-11.637a4.028,4.028,0,0,0-2.543-1.078c-1.921.011-3.225,1.889-4.183,3.554-.316-2.483-.5-5.227.958-7.264,1.852-2.593,5.876-2.91,8.6-1.251s4.25,4.788,4.828,7.921.346,6.35.343,9.535a131.622,131.622,0,0,0,.969,13.895,48.848,48.848,0,0,0-5.487.335C211.8,521.077,212.766,515.449,212.8,511.149Z" transform="translate(-188.253 -492.07)" fill="#3c6794"/>
          <path id="Trazado_641303" data-name="Trazado 641303" d="M253.874,506.261c-.463-4.026-1.436-8.469-4.781-10.758-.829-.568-1.9-1.191-1.848-2.194a1.81,1.81,0,0,1,.983-1.375c1.7-.989,3.989-.141,5.234,1.378a11.96,11.96,0,0,1,2.062,5.452,154.008,154.008,0,0,1,2.666,23.273c.045,1.173-2.816.519-3.3-.011-.787-.867-.348-2.9-.353-3.944A107.719,107.719,0,0,0,253.874,506.261Z" transform="translate(-214.937 -491.508)" fill="#3c6794"/>
        </g>
      </g>
      <g id="Grupo_966783" data-name="Grupo 966783" transform="translate(252.027 144.149)">
        <g id="Grupo_966776" data-name="Grupo 966776" transform="translate(36.944 204.73)">
          <g id="Grupo_966775" data-name="Grupo 966775">
            <path id="Trazado_641304" data-name="Trazado 641304" d="M878.564,971.668l-.645,4.321,1.466,8.213,4.826-.457.909-12.166-.71-1.951Z" transform="translate(-877.919 -969.629)" fill="#514943"/>
          </g>
        </g>
        <g id="Grupo_966778" data-name="Grupo 966778" transform="translate(7.335 218.65)">
          <g id="Grupo_966777" data-name="Grupo 966777">
            <path id="Trazado_641305" data-name="Trazado 641305" d="M812.16,1004.1l-7.561,5.543.943,4.141,13.842-3.3-1.126-5.982Z" transform="translate(-804.6 -1004.098)" fill="#514943"/>
          </g>
        </g>
        <g id="Grupo_966779" data-name="Grupo 966779" transform="translate(0 102.009)">
          <path id="Trazado_641306" data-name="Trazado 641306" d="M786.436,722.983l.247,56.845,12.67,53.352h10.316l-.644-61.885,6.206-46.774-4.546-9.254-22.921,2.6Z" transform="translate(-786.436 -715.267)" fill="#3c6794"/>
        </g>
        <g id="Grupo_966780" data-name="Grupo 966780" transform="translate(22.643 102.438)">
          <path id="Trazado_641307" data-name="Trazado 641307" d="M846.006,765.45l10.8,54.266,9.395-1.095,2.571-42.38,4.828-46.352-4.867-13.56H842.506Z" transform="translate(-842.506 -716.329)" fill="#3c6794"/>
        </g>
        <g id="Grupo_966782" data-name="Grupo 966782" transform="translate(30.549)">
          <g id="Grupo_966781" data-name="Grupo 966781">
            <path id="Trazado_641308" data-name="Trazado 641308" d="M882.669,473.037c-.978-9.27-12.765-14.957-17.8-5.508a20.742,20.742,0,0,0-2.786,9.158,10.214,10.214,0,0,0,3.726,8.468l.045.029-.845,2.339a.75.75,0,0,0-.057.519.729.729,0,0,0,.466.348l2.736,1.037a3.128,3.128,0,0,0,1.4.3c1.053-.109,1.718-1.222,1.984-2.263.064-.249.115-.5.166-.759C877.7,485.956,883.308,479.1,882.669,473.037Z" transform="translate(-862.083 -462.67)" fill="#eacdb0"/>
          </g>
        </g>
      </g>
      <g id="Grupo_966793" data-name="Grupo 966793" transform="translate(203.988)">
        <g id="Grupo_966792" data-name="Grupo 966792">
          <g id="Grupo_966790" data-name="Grupo 966790">
            <g id="Grupo_966784" data-name="Grupo 966784" transform="translate(40.312 40.312)">
              <path id="Trazado_641309" data-name="Trazado 641309" d="M768.112,215.784a15.108,15.108,0,1,0,19.173-9.429A15.108,15.108,0,0,0,768.112,215.784Zm9.254,3.152a5.332,5.332,0,1,1,3.328,6.767A5.332,5.332,0,0,1,777.366,218.937Z" transform="translate(-767.301 -205.544)" fill="#d1b337"/>
            </g>
            <g id="Grupo_966785" data-name="Grupo 966785">
              <path id="Trazado_641310" data-name="Trazado 641310" d="M675.937,153.292a47.251,47.251,0,0,0-.632,9.409l-7.826,2.694,2.555,12.921,8.272-.489a47.907,47.907,0,0,0,4.159,8.457l-5.437,6.253,8.674,9.912,6.911-4.554a47.271,47.271,0,0,0,7.838,5.243l-1.581,8.13,12.468,4.248,3.711-7.4a47.249,47.249,0,0,0,9.408.633l2.694,7.826,12.922-2.555-.489-8.272a47.935,47.935,0,0,0,8.457-4.159l6.253,5.437,9.913-8.674-4.554-6.911A47.284,47.284,0,0,0,764.9,183.6l8.13,1.581,4.248-12.468-7.4-3.711a47.247,47.247,0,0,0,.632-9.408l7.826-2.694-2.555-12.921-8.272.489a47.873,47.873,0,0,0-4.159-8.457l5.437-6.253-8.674-9.912-6.911,4.554a47.268,47.268,0,0,0-7.838-5.243l1.581-8.13-12.468-4.248-3.711,7.4a47.248,47.248,0,0,0-9.408-.633l-2.694-7.826-12.921,2.555.489,8.272a47.935,47.935,0,0,0-8.457,4.159l-6.253-5.437-9.912,8.674,4.554,6.911a47.242,47.242,0,0,0-5.243,7.838l-8.13-1.581-4.248,12.468Zm82.708,16.677-24.605-8.382a11.166,11.166,0,0,0-4.687-9.53l8.382-24.6A36.818,36.818,0,0,1,758.645,169.969Zm-36.183,2.314a11.165,11.165,0,0,0,9.53-4.687l24.605,8.382a36.819,36.819,0,0,1-42.517,20.909Zm-1.279-6.09a5.332,5.332,0,1,1,6.767-3.328A5.332,5.332,0,0,1,721.183,166.193Zm-34.023-13.87,24.605,8.382a11.167,11.167,0,0,0,4.687,9.53l-8.382,24.6A36.818,36.818,0,0,1,687.161,152.323Zm2.047-6.01a36.818,36.818,0,0,1,42.517-20.91l-8.382,24.6a11.166,11.166,0,0,0-9.53,4.687Z" transform="translate(-667.479 -105.722)" fill="#efd154"/>
            </g>
            <g id="Grupo_966787" data-name="Grupo 966787" transform="translate(12.435 12.435)">
              <g id="Grupo_966786" data-name="Grupo 966786">
                <path id="Trazado_641311" data-name="Trazado 641311" d="M700.572,165.641a42.985,42.985,0,1,1,26.827,54.55A43.034,43.034,0,0,1,700.572,165.641Zm1.715.584a41.174,41.174,0,1,0,52.251-25.7A41.22,41.22,0,0,0,702.287,166.226Z" transform="translate(-698.272 -136.514)" fill="#c1b23f"/>
              </g>
            </g>
            <g id="Grupo_966788" data-name="Grupo 966788" transform="translate(0 31.391)">
              <path id="Trazado_641312" data-name="Trazado 641312" d="M686.418,202.6a36.823,36.823,0,0,0,21.652,38.583l2.961-8.69q2.61,2.27,5.237,4.314l-2.188,6.423a36.587,36.587,0,0,0,12.536.886A141.817,141.817,0,0,0,740.28,251.8c-.233.091-.462.193-.7.281l.489,8.272-12.922,2.555-2.694-7.826a47.25,47.25,0,0,1-9.408-.633l-3.711,7.4-12.468-4.248,1.581-8.13a47.27,47.27,0,0,1-7.838-5.243l-6.911,4.554-8.674-9.912,5.437-6.253a47.908,47.908,0,0,1-4.159-8.457l-8.272.489-2.555-12.921,7.826-2.694a47.252,47.252,0,0,1,.632-9.409l-7.4-3.711,4.248-12.468,5.525,1.075A108.049,108.049,0,0,0,686.418,202.6Z" transform="translate(-667.479 -183.453)" fill="#d1b337"/>
            </g>
            <g id="Grupo_966789" data-name="Grupo 966789" transform="translate(12.439 41.978)">
              <path id="Trazado_641313" data-name="Trazado 641313" d="M701.587,212.127a41.151,41.151,0,0,0,49.08,51.06q1.152.661,2.278,1.279a42.96,42.96,0,0,1-52.5-54.8Q701,210.911,701.587,212.127Z" transform="translate(-698.28 -209.669)" fill="#ada03b"/>
            </g>
          </g>
          <g id="Grupo_966791" data-name="Grupo 966791" transform="translate(67.817 2.612)">
            <path id="Trazado_641314" data-name="Trazado 641314" d="M843.832,122.013c.045.154,1.566-6.482,1.566-6.482l-9.987-3.341S841.967,115.68,843.832,122.013Z" transform="translate(-835.411 -112.19)" fill="#faeb7d"/>
          </g>
        </g>
      </g>
      <g id="Grupo_966798" data-name="Grupo 966798" transform="translate(128.341 91.096)">
        <g id="Grupo_966795" data-name="Grupo 966795">
          <g id="Grupo_966794" data-name="Grupo 966794">
            <path id="Trazado_641315" data-name="Trazado 641315" d="M485.805,403.516l-5.646,2.831q.4,3.2,1.112,6.4t1.714,6.264l6.314.162a9.157,9.157,0,0,1,7.412,14.19l-3.489,5.3a66.752,66.752,0,0,0,8.787,9.533l5.556-3.02a9.156,9.156,0,0,1,13.514,8.583l-.371,6.312a66.706,66.706,0,0,0,12.364,3.9l3.312-5.411a9.157,9.157,0,0,1,15.995.676l2.831,5.646q3.2-.4,6.4-1.112t6.264-1.714l.162-6.314a9.157,9.157,0,0,1,14.19-7.412l5.3,3.489a66.755,66.755,0,0,0,9.533-8.787l-3.02-5.556a9.157,9.157,0,0,1,8.583-13.514l6.312.371a66.7,66.7,0,0,0,3.9-12.364l-5.411-3.312a9.157,9.157,0,0,1,.676-15.995l5.646-2.831q-.4-3.2-1.112-6.4t-1.714-6.264L604.6,377a9.157,9.157,0,0,1-7.412-14.19l3.49-5.3a66.726,66.726,0,0,0-8.788-9.533L586.336,351a9.157,9.157,0,0,1-13.514-8.583l.372-6.312a66.7,66.7,0,0,0-12.364-3.9l-3.312,5.411a9.157,9.157,0,0,1-15.995-.676l-2.831-5.646q-3.2.4-6.4,1.112t-6.264,1.714l-.162,6.314a9.157,9.157,0,0,1-14.19,7.412l-5.3-3.49a66.732,66.732,0,0,0-9.533,8.788l3.02,5.556a9.157,9.157,0,0,1-8.583,13.514l-6.312-.372a66.734,66.734,0,0,0-3.9,12.364l5.411,3.312A9.157,9.157,0,0,1,485.805,403.516ZM541.6,391.037c-.218.166-.431.342-.637.531a8.9,8.9,0,0,0-.808.851l-26.7-4.019a34.934,34.934,0,0,1,17.919-21.513,3.811,3.811,0,0,1,5.415,2.584ZM569.644,378l-18.456,12.318a8.809,8.809,0,0,0-2.389-.883l-4.813-21.567a3.812,3.812,0,0,1,3.81-4.641,34.9,34.9,0,0,1,22.274,8.763A3.806,3.806,0,0,1,569.644,378Zm-22.295,14.783a5.324,5.324,0,1,1-5.707,4.91A5.324,5.324,0,0,1,547.349,392.778Zm8.4,6.247a8.892,8.892,0,0,0-.144-2.79l18.312-12.223a3.8,3.8,0,0,1,5.668,1.794,35.211,35.211,0,0,1,1.393,4.686,34.707,34.707,0,0,1-1.951,21.26,3.818,3.818,0,0,1-5.93,1.48ZM536.284,426.6l9.755-19.71a8.838,8.838,0,0,0,5.874-1.472l16.963,13.891a3.811,3.811,0,0,1-.016,5.911,34.938,34.938,0,0,1-30.066,6.773A3.809,3.809,0,0,1,536.284,426.6Zm-19.761-30.277,21.7,3.267a8.791,8.791,0,0,0,1.443,3.531L529.8,423.057a3.8,3.8,0,0,1-5.9,1.2,34.926,34.926,0,0,1-11.753-23.925A3.808,3.808,0,0,1,516.523,396.325Z" transform="translate(-480.159 -331.296)" fill="#659993"/>
          </g>
        </g>
        <g id="Grupo_966797" data-name="Grupo 966797" transform="translate(22.265 22.265)" opacity="0.11" style="mix-blend-mode: multiply;isolation: isolate">
          <g id="Grupo_966796" data-name="Grupo 966796">
            <path id="Trazado_641316" data-name="Trazado 641316" d="M535.42,427.621a44.524,44.524,0,1,1,41.064,47.735A44.575,44.575,0,0,1,535.42,427.621Zm8.763.658A35.737,35.737,0,1,0,582.5,395.32,35.777,35.777,0,0,0,544.183,428.279Z" transform="translate(-535.294 -386.431)"/>
          </g>
        </g>
      </g>
      <g id="Grupo_966806" data-name="Grupo 966806" transform="translate(111.259 8.285)">
        <g id="Grupo_966805" data-name="Grupo 966805">
          <g id="Grupo_966803" data-name="Grupo 966803">
            <g id="Grupo_966799" data-name="Grupo 966799">
              <path id="Trazado_641317" data-name="Trazado 641317" d="M526.312,176.619a41.914,41.914,0,0,0,.387-5.055l-8.431-2.9-1.554-8.7,6.9-5.65a44.344,44.344,0,0,0-4.843-9.063l-8.531,2.62-6.382-6.121,2.261-8.639a43.955,43.955,0,0,0-8.966-4.372l-5.4,7.114-8.754-1.268-3.2-8.345A44.231,44.231,0,0,0,469.663,128l-.186,8.927-7.826,4.131-7.487-4.85a44.164,44.164,0,0,0-7.148,7.379l5.084,7.321-3.887,7.938-8.909.484a44.939,44.939,0,0,0-1.059,5.264,48.071,48.071,0,0,0-.385,4.9l8.43,2.927,1.526,8.708-6.935,5.628a45,45,0,0,0,4.834,9.1l8.542-2.592,6.365,6.138-2.3,8.635a44.58,44.58,0,0,0,9.24,4.509l5.384-7.137,8.76,1.232,3.214,8.336a44.728,44.728,0,0,0,10.13-1.8l.16-8.926,7.807-4.165,7.5,4.829a44.225,44.225,0,0,0,7.134-7.4l-5.124-7.3,3.86-7.969,8.918-.5A45.137,45.137,0,0,0,526.312,176.619Zm-33.565,10.929a19.908,19.908,0,1,1,6.471-27.432A19.912,19.912,0,0,1,492.746,187.548Z" transform="translate(-437.861 -126.237)" fill="#8c314c"/>
            </g>
            <g id="Grupo_966800" data-name="Grupo 966800" transform="translate(15.256 15.21)">
              <path id="Trazado_641318" data-name="Trazado 641318" d="M529.6,177.742a29.148,29.148,0,1,0-9.474,40.12A29.184,29.184,0,0,0,529.6,177.742Zm-10.976,37.689a26.306,26.306,0,1,1,8.545-36.189A26.3,26.3,0,0,1,518.623,215.431Z" transform="translate(-475.639 -163.899)" fill="#fff"/>
            </g>
            <g id="Grupo_966801" data-name="Grupo 966801" transform="translate(20.464 44.582)">
              <path id="Trazado_641319" data-name="Trazado 641319" d="M490.578,264.975l.254.245-2.137,8.585-.161.05a44.582,44.582,0,0,0,9.24,4.509l-.055-.156,5.439-6.981,8.76,1.232,3.326,8.2-.112.135a44.729,44.729,0,0,0,10.13-1.8l-.134-.086.294-8.84,7.807-4.165,7.515,4.68-.016.149a44.222,44.222,0,0,0,7.134-7.4l-.159.015-4.966-7.317,3.86-7.969,8.824-.623.094.126a45.111,45.111,0,0,0,1.006-5.129,41.927,41.927,0,0,0,.387-5.055l-.113.109-2.358-.854C534.178,257.375,509.512,263.681,490.578,264.975Z" transform="translate(-488.535 -236.633)" fill="#782441"/>
            </g>
            <g id="Grupo_966802" data-name="Grupo 966802" transform="translate(33.931 57.665)">
              <path id="Trazado_641320" data-name="Trazado 641320" d="M547.695,280.537a28.987,28.987,0,0,0,10.626-11.507q-2.76,1.777-5.554,3.3a26.269,26.269,0,0,1-24.658,9.34q-3.158.736-6.226,1.257A29.1,29.1,0,0,0,547.695,280.537Z" transform="translate(-521.883 -269.03)" fill="#bb899a"/>
            </g>
          </g>
          <g id="Grupo_966804" data-name="Grupo 966804" transform="translate(32.243 0.156)">
            <path id="Trazado_641321" data-name="Trazado 641321" d="M517.7,135.309l.357-7.2a31.1,31.1,0,0,1,7.822-1.489S520.4,127.648,517.7,135.309Z" transform="translate(-517.702 -126.623)" fill="#a63f65"/>
          </g>
        </g>
      </g>
      <g id="Grupo_966808" data-name="Grupo 966808" transform="translate(143.653 345.359)">
        <path id="Trazado_641322" data-name="Trazado 641322" d="M564.566,1013.576c.8-.38,1.518-.843,1.644-1.33.138-.533-.3-1.068-.838-1.367-1.535-.85-5.063-.435-6.842-.449q-4.8-.04-9.605.1c-1.468.046-17.5.461-15.993,3.21,1.321,2.409,9.884,2.947,12.256,2.9a81.145,81.145,0,0,0,11.643-.824,33.034,33.034,0,0,0,5.753-1.45A21.351,21.351,0,0,0,564.566,1013.576Z" transform="translate(-526.873 -990.38)" opacity="0.14"/>
        <g id="Grupo_966807" data-name="Grupo 966807">
          <circle id="Elipse_7973" data-name="Elipse 7973" cx="12.935" cy="12.935" r="12.935" fill="#435b6e"/>
          <path id="Trazado_641323" data-name="Trazado 641323" d="M531.6,988.587l-4.178-8.167,4.983-7.7,9.162.465,4.178,8.167-4.983,7.7Z" transform="translate(-523.646 -967.95)" fill="#2e414c"/>
          <circle id="Elipse_7974" data-name="Elipse 7974" cx="4.737" cy="4.737" r="4.737" transform="translate(8.197 8.197)" fill="#22323a"/>
        </g>
      </g>
      <g id="Grupo_966812" data-name="Grupo 966812" transform="translate(175.267 280.04)">
        <g id="Grupo_966809" data-name="Grupo 966809" transform="translate(0 11.641)">
          <path id="Trazado_641324" data-name="Trazado 641324" d="M599.343,854.034,613,827.992l11.358,6.952L607.5,859.028l-4.492-.7a1.69,1.69,0,0,1-1.117-.693Z" transform="translate(-598.138 -827.992)" fill="#2e414c"/>
          <path id="Trazado_641325" data-name="Trazado 641325" d="M602.715,878.674q5.619,2.032,11.56,3.941c1.693.544,2.743-2.078.985-2.627q-6.163-1.925-11.969-3.98C601.688,875.44,601.167,878.114,602.715,878.674Z" transform="translate(-599.594 -856.57)" fill="#435b6e"/>
          <path id="Trazado_641326" data-name="Trazado 641326" d="M597.25,889.775q5.241,1.968,10.761,3.829a1.234,1.234,0,1,0,.825-2.324q-5.712-1.88-11.115-3.872C596.229,886.857,595.8,889.232,597.25,889.775Z" transform="translate(-596.359 -863.364)" fill="#435b6e"/>
          <path id="Trazado_641327" data-name="Trazado 641327" d="M614.96,853.337q6.49,1.984,13.453,3.784c1.994.514,3.709-3.162,1.615-3.674q-7.3-1.789-14.068-3.782C614.1,849.117,613.179,852.793,614.96,853.337Z" transform="translate(-606.878 -840.879)" fill="#435b6e"/>
          <path id="Trazado_641328" data-name="Trazado 641328" d="M608.943,866q6.056,2.095,12.485,4.048c1.835.557,3.095-2.436,1.183-3q-6.691-1.964-12.962-4.08C607.919,862.384,607.276,865.42,608.943,866Z" transform="translate(-603.283 -848.798)" fill="#435b6e"/>
        </g>
        <path id="Trazado_641329" data-name="Trazado 641329" d="M617.785,871.926l12.593-22.112,1.993,2.013L618.4,871.945Z" transform="translate(-609.132 -829.36)" fill="#fff" opacity="0.15"/>
        <g id="Grupo_966811" data-name="Grupo 966811" transform="translate(9.926)">
          <path id="Trazado_641330" data-name="Trazado 641330" d="M646.725,815.809c.173-4.452-3.286-9.263-7.679-11.952s-10.251-3.58-14.137-1.4c-5.892,3.3-5.722,12.322,3.862,18.188S646.464,822.56,646.725,815.809Z" transform="translate(-620.937 -800.398)" fill="#5c7789"/>
          <g id="Grupo_966810" data-name="Grupo 966810" transform="translate(1.307)">
            <path id="Trazado_641331" data-name="Trazado 641331" d="M632.425,816.6c-9.585-5.866-10.3-14-4.825-16.614,3.609-1.726,9.3-.567,13.7,2.121s8.015,7.232,8.12,11.231C649.574,819.4,642.01,822.462,632.425,816.6Z" transform="translate(-624.173 -799.166)" fill="#435b6e"/>
            <path id="Trazado_641332" data-name="Trazado 641332" d="M641.65,803.892l6.848,2.27,4.8,5.275-1.391,5.486-10.068-1.769-5.023-8.176Z" transform="translate(-631.709 -801.983)" fill="#2e414c"/>
            <path id="Trazado_641333" data-name="Trazado 641333" d="M651.436,815.831c-2.554-1.563-3.535-3.926-2.374-5.093,1-1,3.286-.758,5.228.431s3.2,3.113,2.763,4.459C656.541,817.192,653.99,817.393,651.436,815.831Z" transform="translate(-638.722 -805.691)" fill="#22323a"/>
          </g>
        </g>
      </g>
      <g id="Grupo_966816" data-name="Grupo 966816" transform="translate(199.404 174.194)">
        <g id="Grupo_966813" data-name="Grupo 966813" transform="translate(11.248 13.167)">
          <path id="Trazado_641334" data-name="Trazado 641334" d="M700.055,602.989,683.98,575.464l10.1-5.792L710.154,597.2l-2.45,4.891a2.275,2.275,0,0,1-2.179,1.251Z" transform="translate(-683.98 -569.672)" fill="#2e414c"/>
          <path id="Trazado_641335" data-name="Trazado 641335" d="M693.688,591.014q4.993-4.714,9.8-9.646c1.345-1.38-1.012-3.912-2.359-2.529q-4.807,4.932-9.8,9.646C689.932,589.8,692.293,592.331,693.688,591.014Z" transform="translate(-688.107 -574.898)" fill="#435b6e"/>
          <path id="Trazado_641336" data-name="Trazado 641336" d="M702.259,605.957q4.993-4.715,9.8-9.646c1.345-1.38-1.012-3.912-2.359-2.529q-4.807,4.932-9.8,9.646C698.5,604.746,700.864,607.274,702.259,605.957Z" transform="translate(-693.216 -583.806)" fill="#435b6e"/>
          <path id="Trazado_641337" data-name="Trazado 641337" d="M710.83,620.9q4.993-4.715,9.8-9.646c1.345-1.38-1.012-3.912-2.359-2.53q-4.807,4.932-9.8,9.646C707.074,619.689,709.435,622.217,710.83,620.9Z" transform="translate(-698.326 -592.715)" fill="#435b6e"/>
          <path id="Trazado_641338" data-name="Trazado 641338" d="M719.4,635.842q4.993-4.714,9.8-9.646c1.345-1.38-1.012-3.912-2.359-2.529q-4.807,4.932-9.8,9.646C715.644,634.632,718.005,637.16,719.4,635.842Z" transform="translate(-703.435 -601.623)" fill="#435b6e"/>
        </g>
        <path id="Trazado_641339" data-name="Trazado 641339" d="M718.245,605.481l-.784,1.626L700.73,580.194l4.165-3.027Z" transform="translate(-682.718 -560.973)" fill="#fff" opacity="0.08"/>
        <g id="Grupo_966815" data-name="Grupo 966815">
          <path id="Trazado_641340" data-name="Trazado 641340" d="M681.221,539.951c-3.937-1.8-10.056-.47-14.733,2.485s-8.479,7.891-8.5,12.19c-.026,6.518,8.214,9.7,18.419,3.25S687.19,542.682,681.221,539.951Z" transform="translate(-657.238 -538.3)" fill="#5c7789"/>
          <g id="Grupo_966814" data-name="Grupo 966814">
            <path id="Trazado_641341" data-name="Trazado 641341" d="M673.634,554.053c-10.206,6.447-17.922,4.082-17.49-1.8.285-3.882,4.245-8.572,8.922-11.527s10.638-4.532,14.307-3.148C684.938,539.673,683.84,547.606,673.634,554.053Z" transform="translate(-656.127 -537.067)" fill="#435b6e"/>
            <path id="Trazado_641342" data-name="Trazado 641342" d="M668.2,552.052l5.555-5.316,7.223-2.363,4.249,3.278-6.749,8.4-9.961,1.493Z" transform="translate(-663.325 -541.423)" fill="#2e414c"/>
            <path id="Trazado_641343" data-name="Trazado 641343" d="M681.45,556.489c-2.719,1.718-5.358,1.726-5.82.252-.4-1.269,1-3.233,3.064-4.54s4.452-1.728,5.445-.835C685.291,552.4,684.169,554.771,681.45,556.489Z" transform="translate(-667.714 -545.309)" fill="#22323a"/>
          </g>
        </g>
      </g>
      <g id="Grupo_966821" data-name="Grupo 966821" transform="translate(7.68 119.663)">
        <g id="Grupo_966817" data-name="Grupo 966817" transform="translate(149.764 34.718)">
          <rect id="Rectángulo_308526" data-name="Rectángulo 308526" width="22.986" height="8.762" rx="4.381" transform="matrix(-0.321, -0.947, 0.947, -0.321, 7.368, 24.582)" fill="#2e414c"/>
          <path id="Trazado_641344" data-name="Trazado 641344" d="M561.08,528.355q5.557-.1,11.114-.086c1.049,0,1.153,1.64.094,1.637q-5.557-.012-11.114.086C560.122,530.011,560.02,528.374,561.08,528.355Z" transform="translate(-557.059 -512.009)" fill="#435b6e"/>
          <path id="Trazado_641345" data-name="Trazado 641345" d="M556.99,516.27q5.557-.1,11.114-.086c1.049,0,1.153,1.64.094,1.637q-5.557-.013-11.114.086C556.033,517.926,555.931,516.289,556.99,516.27Z" transform="translate(-554.621 -504.804)" fill="#435b6e"/>
          <path id="Trazado_641346" data-name="Trazado 641346" d="M554.614,505.289q5.557-.1,11.114-.086c1.049,0,1.153,1.64.094,1.637q-5.558-.012-11.114.086C553.656,506.945,553.554,505.308,554.614,505.289Z" transform="translate(-553.204 -498.258)" fill="#435b6e"/>
        </g>
        <path id="Trazado_641347" data-name="Trazado 641347" d="M556.048,493.245q3.1-.437,6.222-.786c1.533-.169,3.843-.863,5.358-.049,1.447.777,2.188,2.979,2.855,4.384a50.21,50.21,0,0,1,2.386,5.986,52.523,52.523,0,0,1,1.464,5.569c.305,1.469.544,2.931-.68,3.937-2.656,2.182-7.384,1.889-10.673,1.844-1.959-.027-2.261-3.16-.288-3.133a24.8,24.8,0,0,0,8.028-.793c.971-.313.85-.343.64-1.4-.158-.8-.349-1.588-.555-2.375q-.544-2.069-1.268-4.095t-1.62-3.982a18.36,18.36,0,0,0-1.077-2.193c-.582-.907-.6-.8-1.507-.851a25.607,25.607,0,0,0-4.162.443q-2.424.285-4.836.628C554.409,496.649,554.13,493.514,556.048,493.245Z" transform="translate(-403.962 -455.682)" fill="#afbdc6"/>
        <path id="Trazado_641348" data-name="Trazado 641348" d="M536.316,497.865c1.464-.414,2.955-.611,4.416-1.041.227-.077.453-.15.676-.218,1.935-.588,3.115,2.316,1.167,3.005q-.755.268-1.52.495c-1.187.459-2.225,1.159-2.161,2.62a18.677,18.677,0,0,0,1.566,5.751,26.321,26.321,0,0,0,2.861,5.324c.685.983.612,1.2,1.764,1.053,1.027-.127,2.052-.269,3.077-.4a1.489,1.489,0,0,1,1.709,1.463,1.4,1.4,0,0,1-.43,1.964c-2.286,1.533-5.4,3.042-7.954,1-1.313-1.05-1.827-2.925-2.466-4.4l-2.3-5.323c-1.083-2.507-3.549-6.135-2.815-8.982A3.191,3.191,0,0,1,536.316,497.865Z" transform="translate(-391.462 -458.368)" fill="#2e414c"/>
        <path id="Trazado_641349" data-name="Trazado 641349" d="M606.347,511.732c4.262-.447,8.407-1.218,12.6-2.079a77.991,77.991,0,0,0,8.3-1.944c2.688-.863,5.35-1.806,8.066-2.58,2.03-.579,8.381-3.014,9.683-.378.787,1.595-.831,3.534-1.777,4.667-1.4,1.678-2.873,3.383-4.375,4.952a75.715,75.715,0,0,1-15.166,12.215,45.862,45.862,0,0,1-14.152,6.013q-.868.185-1.747.322a1.3,1.3,0,0,1-.733-.031,1.331,1.331,0,0,1-.587-.884,144.856,144.856,0,0,1-4.316-17.191,3.382,3.382,0,0,1,.095-2.215C602.819,511.519,605.306,511.841,606.347,511.732Z" transform="translate(-432.139 -462.554)" fill="#afbdc6"/>
        <g id="Grupo_966818" data-name="Grupo 966818" transform="translate(4.451)">
          <path id="Trazado_641350" data-name="Trazado 641350" d="M333.475,460.856a1.332,1.332,0,0,0-1.048,1.814l5.389,15.571a1.527,1.527,0,0,0,1.62,1.038l6.843-.993,5.056,14.8h0c-.162-.221-2.264-.237-2.993-.529a13.143,13.143,0,0,0-3.832-.825c-8.92-.891-18.4-1.165-26,4.363-12.23,8.891-24.249,18.106-36.271,27.276-12.2,9.3-24.292,18.737-36.173,28.44l-.713.583c-5.875,4.807-11.7,9.677-17.536,14.529q-4.553,3.785-9.127,7.543c-3.282,2.69-5.315,5.5-9.947,4.056a24.236,24.236,0,0,1-10.977-7.56,22.066,22.066,0,0,1-4.436-9.4c-.792-3.724-2.228-8.357,1.6-10.793,1.679-1.068,3.339-2.131,4.943-3.313,24.7-16.786,49.843-33.5,74.187-51q2.588-1.86,5.181-3.715c6.394-4.567,17.014-12.754,23.257-17.53,12.164-9.306,13.579-16.179,20.583-27.479,2.828-4.562,5.471-9.237,7.989-13.978l8.977,26.28Z" transform="translate(-192.398 -420.949)" fill="#435b6e"/>
          <path id="Trazado_641351" data-name="Trazado 641351" d="M556.54,402.217c9.2-1.739,31.839,9.542,37.8,12.028s2.079,7.177,2.079,7.177c-1.067.161-2.132.334-3.2.51q-4.321.714-8.622,1.54-3.143.608-6.277,1.26c-1.045.216-2.091.427-3.133.656-.833.183-1.6.611-2.423.866-.919.284-1.839.569-2.73.931a17.376,17.376,0,0,0-4.92,2.889c-.484.432-1.233,1.556-.969,2.291l14.5,40.335a.743.743,0,0,1-.684.995l-22.511.478s1.039-.8.784-3.638a40.658,40.658,0,0,0-1.014-5.754c-.471-1.978-1.044-3.926-1.632-5.871l5.695-.827a2.754,2.754,0,0,0,2.065-3.831L556.2,440.82a1.527,1.527,0,0,0-1.575-.993l-6.64.825q-4.907-14.636-11.255-28.736-.761,1.47-1.539,2.93l-.4-1.182C538.363,409.193,547.337,403.956,556.54,402.217Z" transform="translate(-396.514 -402.036)" fill="#c1d0db"/>
          <path id="Trazado_641352" data-name="Trazado 641352" d="M576.641,542.871c.588,1.945,1.162,3.894,1.632,5.871a40.657,40.657,0,0,1,1.014,5.753c.255,2.836-.781,3.637-.784,3.638l-5.056-14.8Z" transform="translate(-419.564 -485.996)" fill="#c1d0db"/>
          <path id="Trazado_641353" data-name="Trazado 641353" d="M548.577,455.24l-3.817.474-8.977-26.28q.777-1.462,1.539-2.93Q543.662,440.579,548.577,455.24Z" transform="translate(-397.111 -416.623)" fill="#c1d0db"/>
        </g>
        <g id="Grupo_966819" data-name="Grupo 966819" transform="translate(0 79.441)">
          <path id="Trazado_641354" data-name="Trazado 641354" d="M277.733,621.622l-.66.5c-12.99,9.909-25.876,19.958-38.531,30.294l-.759.62c-6.258,5.12-12.46,10.308-18.679,15.477q-4.85,4.031-9.722,8.035c-3.5,2.865-5.661,5.86-10.595,4.32a25.816,25.816,0,0,1-11.693-8.053,23.509,23.509,0,0,1-4.725-10.009c-.843-3.966-2.373-8.9,1.7-11.5,1.789-1.138,3.557-2.27,5.266-3.529,23.451-15.935,48.282-32.576,71.544-49.033Z" transform="translate(-181.375 -598.751)" fill="#e29530"/>
          <circle id="Elipse_7975" data-name="Elipse 7975" cx="6.569" cy="6.569" r="6.569" transform="matrix(0.664, -0.748, 0.748, 0.664, 8.846, 64.171)" fill="#fff"/>
        </g>
        <path id="Trazado_641355" data-name="Trazado 641355" d="M407.382,548.881l-5.132-6.966a2.932,2.932,0,0,1,.62-4.1c8.347-6.148,36.039-26.648,37.742-29.264,1.506-2.313,3.108-4.566,4.692-6.825.907-1.293,3.879-7.2,5.3-7.6,3.184-.9,4.688,7.945,5.4,10.013,1.41,4.1,2.766,8.225,4.1,12.355a2.057,2.057,0,0,1-1.854,2.687c-2.99.155-7.858.788-11.473,3.122-4.662,3.011-27.69,21.187-35.209,27.14A2.932,2.932,0,0,1,407.382,548.881Z" transform="translate(-312.71 -456.898)" fill="#fff" opacity="0.08"/>
        <g id="Grupo_966820" data-name="Grupo 966820" transform="translate(11.299 136.219)">
          <path id="Trazado_641356" data-name="Trazado 641356" d="M212.2,740.706a6.988,6.988,0,1,1-1.481,9.772A7,7,0,0,1,212.2,740.706Zm.438.594a6.25,6.25,0,1,0,8.739,1.324A6.257,6.257,0,0,0,212.633,741.3Z" transform="translate(-209.355 -739.346)" fill="#435b6e"/>
        </g>
      </g>
      <g id="Grupo_966826" data-name="Grupo 966826" transform="translate(12.61 167.531)">
        <g id="Grupo_966823" data-name="Grupo 966823" transform="translate(51.761 57.626)">
          <g id="Grupo_966822" data-name="Grupo 966822">
            <path id="Trazado_641357" data-name="Trazado 641357" d="M324.779,663.265l3.634,2.931,4.106-.458.544.807-.98.7,3.523.581,1.9,2.156-.889,3.687-3.107,2.438-3.631-1.274-2.978-3.434-5.15-3.8Z" transform="translate(-321.755 -663.265)" fill="#ebceb1"/>
          </g>
        </g>
        <g id="Grupo_966825" data-name="Grupo 966825">
          <g id="Grupo_966824" data-name="Grupo 966824">
            <path id="Trazado_641358" data-name="Trazado 641358" d="M252.227,577.409l-32.872-32.692c-1.134-1.128-1.843-3.555-2.569-4.957l-5.182-10c-1.182-2.28-2.694-7.208-4.969-8.577-3.706-2.231-9,2.116-10.811,5.067-5.569,9.056.586,18.085,3.985,26.789l4.209,6.851,42.308,26.658Z" transform="translate(-193.583 -520.569)" fill="#d1d9db"/>
          </g>
        </g>
      </g>
      <g id="Grupo_966827" data-name="Grupo 966827" transform="translate(9.845 107.889)">
        <path id="Trazado_641359" data-name="Trazado 641359" d="M186.743,407.371a21.2,21.2,0,0,0,4.109,11.2,13.59,13.59,0,0,0,3.341-1.483,65.307,65.307,0,0,0,13.567-9.48,38.144,38.144,0,0,0,8.884-13.4c-3.421-2.635-8.758-3.937-13.171-3.672C195.422,391.02,186.432,398.484,186.743,407.371Z" transform="translate(-186.736 -383.386)" fill="#3c6794"/>
        <path id="Trazado_641360" data-name="Trazado 641360" d="M249.973,373.492c1.506-.582,3.353-1.014,4.617-.01,1.5,1.189,1.158,3.536.482,5.324a26.435,26.435,0,0,1-12.6,14.051c-2.487,1.266-7.184,2.324-8.314-1.352-.6-1.965.839-5.675,1.722-7.526C238.292,378.922,245.029,375.4,249.973,373.492Z" transform="translate(-214.921 -372.881)" fill="#3c6794"/>
      </g>
      <path id="Trazado_641361" data-name="Trazado 641361" d="M833.425,557.877l-4.017.021.425-6.463A71.917,71.917,0,0,1,830.9,541.8a36.094,36.094,0,0,1,6.165-14,4.767,4.767,0,0,0-6.235-.6,8.772,8.772,0,0,0-2.564,4.286,79.413,79.413,0,0,0-4.011,18.293c-.234,2.388-.81,5.546-.578,8.149L810,558l.526-7.99a71.969,71.969,0,0,1,1.071-9.636,36.063,36.063,0,0,1,3.167-9.092c1.368-2.7,2.771-6.075,5.367-7.631a17.506,17.506,0,0,0-6.657,1.021c-2.492.9-3.678,2.994-4.511,5.389a79.413,79.413,0,0,0-4.011,18.293c-.278,2.829-1.039,6.745-.362,9.531.013.051.022.1.032.144l-3.506.018-11.392,45.579h48.325Z" transform="translate(-536.368 -354.864)" fill="#3c6794"/>
      <g id="Grupo_966830" data-name="Grupo 966830" transform="translate(216.883 182.811)">
        <g id="Grupo_966828" data-name="Grupo 966828" transform="translate(0 16.602)">
          <path id="Trazado_641362" data-name="Trazado 641362" d="M707.047,606.814l-7.636-3.281,1.307-3.288,5.743,1.1-.112-1.832,6.18,3.6-.892,3.6Z" transform="translate(-699.412 -599.515)" fill="#ebceb1"/>
        </g>
        <g id="Grupo_966829" data-name="Grupo 966829" transform="translate(10.045)">
          <path id="Trazado_641363" data-name="Trazado 641363" d="M797.545,559.361a7.391,7.391,0,0,0-2-.725,13.839,13.839,0,0,0-9.277,1.7c-4.475,2.408-8.223,6.238-12.4,9.135l-14.321,9.94-33.859-2.721-1.4,7.22,40.236,11.085c6.123-4.706,12.088-9.327,18.461-13.617,5.713-3.845,12.657-6.812,16.283-12.948C801.312,564.966,800.74,561.1,797.545,559.361Z" transform="translate(-724.286 -558.405)" fill="#d1d9db"/>
        </g>
      </g>
      <path id="Trazado_641364" data-name="Trazado 641364" d="M847.89,442.315c-1.127-1.782-1.978-3.889-3.241-5.359-1.531-1.782-4.147-2.71-4.909-4.932a5.84,5.84,0,0,1,3.233-6.913,10.526,10.526,0,0,1,4.845-.7,7.267,7.267,0,0,1,2.4.455,4.522,4.522,0,0,1,2.694,3.483c.152,1.089-.1,2.249.33,3.263,1.419,3.379,5.443,3.843,8.5,4.634,3.121.809,6.018.941,8.71,2.992,4.173,3.179,5.663,9.227,3.965,14.192a16.28,16.28,0,0,1-11.295,10.038c-2.851.748-.464-1.411.253-2.1a12.984,12.984,0,0,0,3.306-4.965,7.374,7.374,0,0,0-1.162-7.3c-1.544-1.682-3.909-2.287-6.142-2.761a20.911,20.911,0,0,0-4.4-.781,13.162,13.162,0,0,1-2.872.074A6.462,6.462,0,0,1,847.89,442.315Z" transform="translate(-566.031 -295.694)" fill="#534741"/>
      <g id="Grupo_966831" data-name="Grupo 966831" transform="translate(289.745 135.5)">
        <path id="Trazado_641365" data-name="Trazado 641365" d="M919.729,498.469c.96.953,2.219,1.911,3.534,1.594a2.809,2.809,0,0,0,1.864-1.873,6.786,6.786,0,0,0,.217-2.728,24.868,24.868,0,0,0-6.8-15.209,3.581,3.581,0,0,0-2.777-1.436c-1.5.181-2.5,2.2-3.114,3.406-.479.94,1.352,2.175,1.789,3.165a5.833,5.833,0,0,1,.326,3.863,3.959,3.959,0,0,0,.15,3.076A25.3,25.3,0,0,0,919.729,498.469Z" transform="translate(-899.355 -463.638)" fill="#3c6794"/>
        <path id="Trazado_641366" data-name="Trazado 641366" d="M885.167,449.97a46.723,46.723,0,0,1,4.794,5.31c2.763,3.694,4.121,7.88,6.209,11.913,1.115,2.155,2.481.576,3.829-.815a13.053,13.053,0,0,0,2.4-14.836,26.276,26.276,0,0,0-5.085-6.509c-2.541-2.627-6.762-3.849-10.414-3.778-1.7.033-6.284.681-7,2.627C879.241,445.651,884.02,448.847,885.167,449.97Z" transform="translate(-879.834 -441.253)" fill="#3c6794"/>
      </g>
    </g>
  </g>
</svg>
