<svg xmlns="http://www.w3.org/2000/svg" width="151" height="151" viewBox="0 0 151 151">
  <g id="Grupo_969349" data-name="Grupo 969349" transform="translate(-311 -14777)">
    <g id="Elipse_7868" data-name="Elipse 7868" transform="translate(311 14777)" fill="#fff" stroke="#ef8b53" stroke-width="5">
      <circle cx="75.5" cy="75.5" r="75.5" stroke="none"/>
      <circle cx="75.5" cy="75.5" r="73" fill="none"/>
    </g>
    <g id="ingenieria-inversa" transform="translate(342 14807.962)">
      <g id="Grupo_956766" data-name="Grupo 956766" transform="translate(1.748 1.78)">
        <path id="Trazado_631190" data-name="Trazado 631190" d="M87.418,78.806a6.236,6.236,0,0,0-8.809,8.758,43.05,43.05,0,0,1-45.9,3.363A12.6,12.6,0,0,0,15.083,73.3a43.052,43.052,0,0,1,3.43-45.994,6.237,6.237,0,0,0,8.8-8.8A43.052,43.052,0,0,1,73.3,15.083,12.6,12.6,0,0,0,90.928,32.706a43.051,43.051,0,0,1-3.51,46.1Z" transform="translate(-10.001 -10.001)" fill="#fff"/>
      </g>
      <g id="Grupo_956767" data-name="Grupo 956767" transform="translate(22.822 22.018)">
        <path id="Trazado_631191" data-name="Trazado 631191" d="M172.849,152.547l-1.926-1.112a3.406,3.406,0,0,1,0-5.793l1.926-1.112a3.121,3.121,0,0,0,1.142-4.263l-3.592-6.221a3.121,3.121,0,0,0-4.264-1.142l-1.928,1.113a3.4,3.4,0,0,1-5.015-2.9v-2.226a3.121,3.121,0,0,0-3.121-3.121h-7.184a3.121,3.121,0,0,0-3.121,3.121v2.226a3.4,3.4,0,0,1-5.015,2.9l-1.928-1.113a3.121,3.121,0,0,0-4.264,1.142l-3.592,6.221a3.121,3.121,0,0,0,1.142,4.263l1.926,1.112a3.406,3.406,0,0,1,0,5.793l-1.926,1.112a3.121,3.121,0,0,0-1.142,4.264l3.592,6.221a3.121,3.121,0,0,0,4.264,1.142l1.928-1.113a3.4,3.4,0,0,1,5.015,2.9v2.226a3.121,3.121,0,0,0,3.121,3.121h7.184a3.121,3.121,0,0,0,3.121-3.121v-2.226a3.4,3.4,0,0,1,5.015-2.9l1.928,1.113a3.121,3.121,0,0,0,4.264-1.142l3.592-6.221a3.121,3.121,0,0,0-1.142-4.264Z" transform="translate(-130.549 -125.773)" fill="#ced3dd"/>
      </g>
      <g id="Grupo_956768" data-name="Grupo 956768" transform="translate(37.163 37.194)">
        <circle id="Elipse_7875" data-name="Elipse 7875" cx="7.59" cy="7.59" r="7.59" fill="#fff"/>
      </g>
      <g id="Grupo_956769" data-name="Grupo 956769" transform="translate(62.566 1.779)">
        <circle id="Elipse_7876" data-name="Elipse 7876" cx="12.596" cy="12.596" r="12.596" fill="#ffce69"/>
      </g>
      <g id="Grupo_956770" data-name="Grupo 956770" transform="translate(1.748 62.597)">
        <circle id="Elipse_7877" data-name="Elipse 7877" cx="12.596" cy="12.596" r="12.596" fill="#ffce69"/>
      </g>
      <g id="Grupo_956771" data-name="Grupo 956771" transform="translate(8.107 8.138)">
        <circle id="Elipse_7878" data-name="Elipse 7878" cx="6.237" cy="6.237" r="6.237" fill="#c193da"/>
      </g>
      <g id="Grupo_956772" data-name="Grupo 956772" transform="translate(68.919 69.125)">
        <circle id="Elipse_7879" data-name="Elipse 7879" cx="6.237" cy="6.237" r="6.237" fill="#c193da"/>
      </g>
      <g id="Grupo_956773" data-name="Grupo 956773" transform="translate(0 0.038)">
        <path id="Trazado_631192" data-name="Trazado 631192" d="M140.7,164.8h7.184a4.875,4.875,0,0,0,4.869-4.869v-2.226a1.637,1.637,0,0,1,2.393-1.382l1.928,1.113a4.915,4.915,0,0,0,6.652-1.782l3.592-6.221a4.915,4.915,0,0,0-1.782-6.652l-1.926-1.112a1.644,1.644,0,0,1,0-2.765l1.927-1.112a4.875,4.875,0,0,0,1.782-6.652l-3.592-6.221a4.875,4.875,0,0,0-6.652-1.782l-1.928,1.113a1.638,1.638,0,0,1-2.393-1.382v-2.226a4.875,4.875,0,0,0-4.869-4.869H140.7a4.875,4.875,0,0,0-4.869,4.869v2.226a1.638,1.638,0,0,1-2.393,1.382l-1.928-1.113a4.875,4.875,0,0,0-6.651,1.782l-3.592,6.222a4.915,4.915,0,0,0,1.782,6.651l1.926,1.112a1.644,1.644,0,0,1,0,2.765l-1.926,1.112a4.915,4.915,0,0,0-1.782,6.652l3.592,6.221a4.915,4.915,0,0,0,6.652,1.782l1.928-1.113a1.638,1.638,0,0,1,2.393,1.382v2.226A4.875,4.875,0,0,0,140.7,164.8Zm-6.5-12.176a5.012,5.012,0,0,0-2.507.671l-1.928,1.113a1.384,1.384,0,0,1-1.875-.5l-3.592-6.221a1.385,1.385,0,0,1,.5-1.876l1.926-1.112a5.171,5.171,0,0,0,0-8.821l-1.926-1.112a1.385,1.385,0,0,1-.5-1.875l3.592-6.222a1.375,1.375,0,0,1,1.876-.5l1.928,1.113a5.164,5.164,0,0,0,7.638-4.41v-2.226a1.374,1.374,0,0,1,1.373-1.373h7.184a1.375,1.375,0,0,1,1.373,1.373v2.226a5.164,5.164,0,0,0,7.637,4.41l1.928-1.113a1.375,1.375,0,0,1,1.876.5l3.592,6.221a1.375,1.375,0,0,1-.5,1.876l-1.926,1.112a5.171,5.171,0,0,0,0,8.821l1.926,1.112c.243,0,.529.519.6.7a1.381,1.381,0,0,1-.1,1.172l-3.592,6.221a1.385,1.385,0,0,1-1.875.5L156.9,153.3a5.164,5.164,0,0,0-7.638,4.41v2.226a1.374,1.374,0,0,1-1.373,1.373H140.7a1.374,1.374,0,0,1-1.373-1.373v-2.226a5.178,5.178,0,0,0-5.13-5.08Z" transform="translate(-99.543 -95.542)"/>
        <path id="Trazado_631193" data-name="Trazado 631193" d="M211.92,221.259a9.338,9.338,0,1,0-9.338-9.338A9.349,9.349,0,0,0,211.92,221.259Zm0-15.18a5.842,5.842,0,1,1-5.842,5.842A5.849,5.849,0,0,1,211.92,206.078Z" transform="translate(-167.168 -167.174)"/>
        <path id="Trazado_631194" data-name="Trazado 631194" d="M84.87,24.931c.147-.135.293-.272.435-.413A14.344,14.344,0,0,0,65.019,4.233c-.142.142-.278.288-.413.434A44.889,44.889,0,0,0,19.195,8.039,7.979,7.979,0,0,0,8.007,19.226,44.89,44.89,0,0,0,4.635,64.638,14.4,14.4,0,0,0,0,75.193,14.349,14.349,0,0,0,24.487,85.336c.142-.142.277-.287.412-.433a44.9,44.9,0,0,0,45.293-3.293,7.978,7.978,0,0,0,11.24-11.175A44.341,44.341,0,0,0,87.7,57.41a1.748,1.748,0,0,0-3.355-.983,40.853,40.853,0,0,1-5.622,11.79A7.984,7.984,0,0,0,67.99,78.883a41.4,41.4,0,0,1-41.028,3.135,14.483,14.483,0,0,0-2.475-16.968A14.482,14.482,0,0,0,7.518,62.575,41.385,41.385,0,0,1,10.7,21.48,7.986,7.986,0,0,0,21.449,10.729,41.385,41.385,0,0,1,62.544,7.55a14.483,14.483,0,0,0,2.475,16.968,14.482,14.482,0,0,0,16.969,2.475,40.926,40.926,0,0,1,3.911,14.8,1.748,1.748,0,0,0,3.487-.252,44.385,44.385,0,0,0-4.517-16.61ZM75.156,79.851a4.489,4.489,0,1,1,4.489-4.489,4.537,4.537,0,0,1-4.489,4.489ZM6.673,82.863a10.848,10.848,0,0,1,0-15.341,10.983,10.983,0,0,1,15.341,0,10.983,10.983,0,0,1,0,15.341A10.86,10.86,0,0,1,6.673,82.863Zm7.67-72.977a4.489,4.489,0,1,1-4.489,4.489A4.536,4.536,0,0,1,14.344,9.887ZM75.161,3.533a10.814,10.814,0,0,1,7.67,3.172,10.948,10.948,0,0,1,0,15.341,10.984,10.984,0,0,1-15.341,0,10.983,10.983,0,0,1,0-15.341,10.814,10.814,0,0,1,7.67-3.172Z" transform="translate(0 -0.038)"/>
        <path id="Trazado_631195" data-name="Trazado 631195" d="M53.731,405.51l-5.409,5.409-2.086-2.086a1.748,1.748,0,1,0-2.472,2.472l3.322,3.322a1.748,1.748,0,0,0,2.472,0l6.645-6.645a1.748,1.748,0,1,0-2.472-2.472Z" transform="translate(-35.69 -334.205)"/>
        <path id="Trazado_631196" data-name="Trazado 631196" d="M397.156,64.558a1.767,1.767,0,0,0,2.472,0l6.645-6.645a1.748,1.748,0,0,0-2.472-2.472l-5.409,5.409-2.086-2.086a1.748,1.748,0,1,0-2.472,2.472Z" transform="translate(-324.563 -45.333)"/>
        <path id="Trazado_631197" data-name="Trazado 631197" d="M494,273a1.748,1.748,0,1,0-.612,2.1A1.765,1.765,0,0,0,494,273Z" transform="translate(-404.865 -224.391)"/>
      </g>
    </g>
  </g>
</svg>
