<svg xmlns="http://www.w3.org/2000/svg" width="151" height="151" viewBox="0 0 151 151">
  <g id="Grupo_969350" data-name="Grupo 969350" transform="translate(-725 -14777)">
    <g id="Elipse_7869" data-name="Elipse 7869" transform="translate(725 14777)" fill="#fff" stroke="#ef8b53" stroke-width="5">
      <circle cx="75.5" cy="75.5" r="75.5" stroke="none"/>
      <circle cx="75.5" cy="75.5" r="73" fill="none"/>
    </g>
    <g id="analitica" transform="translate(762 14814)">
      <path id="Trazado_631177" data-name="Trazado 631177" d="M20.969,74.246H16.094A6.094,6.094,0,0,1,10,68.152V16.094A6.094,6.094,0,0,1,16.094,10H78.859a6.094,6.094,0,0,1,6.094,6.094V68.152a6.094,6.094,0,0,1-6.094,6.094H20.969Z" transform="translate(-8.477 -8.477)" fill="#fff"/>
      <path id="Trazado_631178" data-name="Trazado 631178" d="M78.859,10H16.094A6.094,6.094,0,0,0,10,16.094v4.875H84.953V16.094A6.094,6.094,0,0,0,78.859,10Z" transform="translate(-8.477 -8.477)" fill="#ff5a5a"/>
      <path id="Trazado_631179" data-name="Trazado 631179" d="M21,82H93.367" transform="translate(-17.804 -69.508)" fill="#231f20"/>
      <rect id="Rectángulo_307458" data-name="Rectángulo 307458" width="9" height="16" transform="translate(9 60)" fill="#a5dc69"/>
      <rect id="Rectángulo_307459" data-name="Rectángulo 307459" width="9" height="20" transform="translate(43 56)" fill="#78d2fa"/>
      <rect id="Rectángulo_307460" data-name="Rectángulo 307460" width="9.75" height="33.602" transform="translate(25.594 42.874)" fill="#f5c86e"/>
      <rect id="Rectángulo_307461" data-name="Rectángulo 307461" width="9.75" height="35.877" transform="translate(59.719 40.6)" fill="#ff5a5a"/>
      <circle id="Elipse_7871" data-name="Elipse 7871" cx="3.961" cy="3.961" r="3.961" transform="translate(25.65 22.233)" fill="#f5c86e"/>
      <circle id="Elipse_7872" data-name="Elipse 7872" cx="3.961" cy="3.961" r="3.961" transform="translate(43.429 40.371)" fill="#78d2fa"/>
      <circle id="Elipse_7873" data-name="Elipse 7873" cx="3.961" cy="3.961" r="3.961" transform="translate(60.633 22.233)" fill="#ff5a5a"/>
      <circle id="Elipse_7874" data-name="Elipse 7874" cx="3.961" cy="3.961" r="3.961" transform="translate(9.345 38.913)" fill="#a5dc69"/>
      <path id="Trazado_631180" data-name="Trazado 631180" d="M72.681,67.108A5.326,5.326,0,0,0,78,61.788V7.617A7.626,7.626,0,0,0,70.383,0H7.617A7.626,7.626,0,0,0,0,7.617V61.788a5.326,5.326,0,0,0,5.319,5.32H7.008v7.845H1.523a1.523,1.523,0,0,0,0,3.047H76.477a1.523,1.523,0,0,0,0-3.047H70.992V67.108ZM7.617,3.047H70.383a4.576,4.576,0,0,1,4.57,4.57v3.352H3.2c-.052,0-.1,0-.153.008V7.617A4.575,4.575,0,0,1,7.617,3.047Zm2.438,71.906V61.242h6.7V74.953Zm17.063,0V44.4h6.7V74.953Zm17.063,0V57.281h6.7V74.953Zm17.063,0V58.538a1.523,1.523,0,0,0-3.047,0V74.953H53.93v-19.2a1.524,1.524,0,0,0-1.523-1.523h-9.75a1.524,1.524,0,0,0-1.523,1.523v19.2H36.867V42.874a1.524,1.524,0,0,0-1.523-1.523h-9.75a1.524,1.524,0,0,0-1.523,1.523V74.953H19.8V59.719A1.524,1.524,0,0,0,18.281,58.2H8.531a1.524,1.524,0,0,0-1.523,1.523v4.342H5.319a2.275,2.275,0,0,1-2.273-2.273V14.008c.05.005.1.008.153.008H74.953V61.788a2.275,2.275,0,0,1-2.273,2.273H70.992V40.6a1.524,1.524,0,0,0-1.523-1.523h-9.75A1.524,1.524,0,0,0,58.2,40.6v7.693a1.523,1.523,0,0,0,3.047,0v-6.17h6.7v32.83Z"/>
      <path id="Trazado_631181" data-name="Trazado 631181" d="M213.588,39.047h34.42a1.523,1.523,0,0,0,0-3.047h-34.42a1.523,1.523,0,0,0,0,3.047Z" transform="translate(-179.758 -30.516)"/>
      <path id="Trazado_631182" data-name="Trazado 631182" d="M95.523,39.047a1.524,1.524,0,1,0-1.077-.447A1.534,1.534,0,0,0,95.523,39.047Z" transform="translate(-79.68 -30.516)"/>
      <path id="Trazado_631183" data-name="Trazado 631183" d="M55.523,39.047a1.524,1.524,0,1,0-1.077-.447A1.534,1.534,0,0,0,55.523,39.047Z" transform="translate(-45.773 -30.516)"/>
      <path id="Trazado_631184" data-name="Trazado 631184" d="M135.523,39.047a1.524,1.524,0,1,0-1.077-.447A1.534,1.534,0,0,0,135.523,39.047Z" transform="translate(-113.586 -30.516)"/>
      <path id="Trazado_631185" data-name="Trazado 631185" d="M383.523,342.64a1.524,1.524,0,1,0,1.077.446A1.529,1.529,0,0,0,383.523,342.64Z" transform="translate(-323.805 -290.441)"/>
      <path id="Trazado_631186" data-name="Trazado 631186" d="M108.109,146.908a5.493,5.493,0,1,0-4.438-2.267L93.552,154.76a5.471,5.471,0,0,0-5.058-.123L77.928,144.07a5.485,5.485,0,1,0-9.464.236l-9,9a5.489,5.489,0,1,0,2.155,2.154l9.1-9.1a5.472,5.472,0,0,0,5.048-.128l10.463,10.463a5.484,5.484,0,1,0,9.47.227L106.1,146.524A5.449,5.449,0,0,0,108.109,146.908Zm0-7.922a2.438,2.438,0,1,1-2.437,2.438A2.44,2.44,0,0,1,108.109,138.986ZM56.82,160.541a2.438,2.438,0,1,1,2.438-2.437A2.44,2.44,0,0,1,56.82,160.541Zm16.306-16.681a2.438,2.438,0,1,1,2.438-2.437A2.44,2.44,0,0,1,73.127,143.861ZM90.905,162a2.438,2.438,0,1,1,2.438-2.437A2.44,2.44,0,0,1,90.905,162Z" transform="translate(-43.515 -115.23)"/>
      <path id="Trazado_631187" data-name="Trazado 631187" d="M132.783,129.067a1.521,1.521,0,1,0-1.079-.446A1.537,1.537,0,0,0,132.783,129.067Z" transform="translate(-111.263 -106.822)"/>
      <path id="Trazado_631188" data-name="Trazado 631188" d="M47.523,129.068h7.313a1.523,1.523,0,0,0,0-3.047H47.523a1.523,1.523,0,0,0,0,3.047Z" transform="translate(-38.992 -106.822)"/>
      <path id="Trazado_631189" data-name="Trazado 631189" d="M54.836,177.068a1.523,1.523,0,0,0,0-3.047H47.523a1.523,1.523,0,0,0,0,3.047Z" transform="translate(-38.992 -147.51)"/>
    </g>
  </g>
</svg>
