<svg xmlns="http://www.w3.org/2000/svg" width="134" height="134" viewBox="0 0 134 134">
  <g id="Grupo_969351" data-name="Grupo 969351" transform="translate(-309 -2096)">
    <circle id="Elipse_7706" data-name="Elipse 7706" cx="67" cy="67" r="67" transform="translate(309 2096)" fill="#ef8b53"/>
    <g id="control-de-calidad" transform="translate(325 2112)">
      <g id="Grupo_952831" data-name="Grupo 952831" transform="translate(1.645 1.645)">
        <g id="Grupo_952813" data-name="Grupo 952813" transform="translate(62.516)">
          <circle id="Elipse_7707" data-name="Elipse 7707" cx="18" cy="18" r="18" transform="translate(-0.161 0.355)" fill="#ffeaa7"/>
        </g>
        <g id="Grupo_952814" data-name="Grupo 952814" transform="translate(52.645 72.387)">
          <path id="Trazado_628623" data-name="Trazado 628623" d="M33,45H62.613V71.323H33Z" transform="translate(-33 -45)" fill="#d3a06c"/>
        </g>
        <g id="Grupo_952815" data-name="Grupo 952815" transform="translate(67.452 55.935)">
          <path id="Trazado_628624" data-name="Trazado 628624" d="M42,35H71.613V61.323H42Z" transform="translate(-42 -35)" fill="#d3a06c"/>
        </g>
        <g id="Grupo_952816" data-name="Grupo 952816" transform="translate(27.458 39.484)">
          <path id="Trazado_628625" data-name="Trazado 628625" d="M34.652,71.065H33.006a11.894,11.894,0,0,0-7.7-11.121L21.869,58.66A12.109,12.109,0,0,0,17.69,57.9h7.091A16.458,16.458,0,0,0,41.232,41.452V25h6.581V51.323A19.81,19.81,0,0,1,46.694,57.9H42.877V68.218a3.282,3.282,0,0,0-1.645-.444h-.28a3.3,3.3,0,0,0-2.336.971l-2.8,2.8A1.669,1.669,0,0,0,34.652,71.065Z" transform="translate(-17.69 -25)" fill="#656d78"/>
        </g>
        <g id="Grupo_952817" data-name="Grupo 952817" transform="translate(1.645 39.484)">
          <path id="Trazado_628626" data-name="Trazado 628626" d="M25.032,57.9h1.645A6.579,6.579,0,0,0,20.1,64.484V71A19.748,19.748,0,0,1,2,51.323V25H8.581V41.452A16.458,16.458,0,0,0,25.032,57.9Z" transform="translate(-2 -25)" fill="#656d78"/>
        </g>
        <g id="Grupo_952818" data-name="Grupo 952818" transform="translate(77.323 55.935)">
          <path id="Trazado_628627" data-name="Trazado 628627" d="M48,35h9.871v6.581H48Z" transform="translate(-48 -35)" fill="#b27946"/>
        </g>
        <g id="Grupo_952819" data-name="Grupo 952819" transform="translate(62.516 72.387)">
          <path id="Trazado_628628" data-name="Trazado 628628" d="M48.871,45v6.581H39V45h9.871Z" transform="translate(-39 -45)" fill="#b27946"/>
        </g>
        <g id="Grupo_952820" data-name="Grupo 952820" transform="translate(32.903 9.871)">
          <path id="Trazado_628629" data-name="Trazado 628629" d="M44.032,30.032H34.161V18.516a1.65,1.65,0,0,0-1.645-1.645h-3.29a1.65,1.65,0,0,0-1.645,1.645V30.032H21V7A23.036,23.036,0,0,1,44.032,30.032Z" transform="translate(-21 -7)" fill="#ffeaa7"/>
        </g>
        <g id="Grupo_952821" data-name="Grupo 952821" transform="translate(3.29 9.871)">
          <path id="Trazado_628630" data-name="Trazado 628630" d="M26.032,7V30.032H19.452V18.516a1.65,1.65,0,0,0-1.645-1.645h-3.29a1.65,1.65,0,0,0-1.645,1.645V30.032H3A23.036,23.036,0,0,1,26.032,7Z" transform="translate(-3 -7)" fill="#ffeaa7"/>
        </g>
        <g id="Grupo_952822" data-name="Grupo 952822" transform="translate(39.484 19.742)">
          <path id="Trazado_628631" data-name="Trazado 628631" d="M31.581,14.645V26.161H25V14.645A1.65,1.65,0,0,1,26.645,13h3.29A1.65,1.65,0,0,1,31.581,14.645Z" transform="translate(-25 -13)" fill="#fcd770"/>
        </g>
        <g id="Grupo_952823" data-name="Grupo 952823" transform="translate(26.323 6.581)">
          <path id="Trazado_628632" data-name="Trazado 628632" d="M23.581,8.29V31.323H17V6.645A1.65,1.65,0,0,1,18.645,5h3.29a1.65,1.65,0,0,1,1.645,1.645Z" transform="translate(-17 -5)" fill="#fcd770"/>
        </g>
        <g id="Grupo_952824" data-name="Grupo 952824" transform="translate(13.161 19.742)">
          <path id="Trazado_628633" data-name="Trazado 628633" d="M15.581,14.645V26.161H9V14.645A1.65,1.65,0,0,1,10.645,13h3.29A1.65,1.65,0,0,1,15.581,14.645Z" transform="translate(-9 -13)" fill="#fcd770"/>
        </g>
        <g id="Grupo_952825" data-name="Grupo 952825" transform="translate(0 32.903)">
          <path id="Trazado_628634" data-name="Trazado 628634" d="M60.226,22.645v3.29a1.65,1.65,0,0,1-1.645,1.645H2.645A1.65,1.65,0,0,1,1,25.935v-3.29A1.65,1.65,0,0,1,2.645,21H58.581A1.65,1.65,0,0,1,60.226,22.645Z" transform="translate(-1 -21)" fill="#fcd770"/>
        </g>
        <g id="Grupo_952826" data-name="Grupo 952826" transform="translate(19.742 72.387)">
          <path id="Trazado_628635" data-name="Trazado 628635" d="M38.845,58.638a1.669,1.669,0,0,1,.477,1.168v9.871a1.65,1.65,0,0,1-1.645,1.645H22.871A9.879,9.879,0,0,1,13,61.452V51.581a6.581,6.581,0,1,1,13.161,0v6.581H37.677A1.669,1.669,0,0,1,38.845,58.638Z" transform="translate(-13 -45)" fill="#b4dd7f"/>
        </g>
        <g id="Grupo_952827" data-name="Grupo 952827" transform="translate(26.323 72.387)">
          <path id="Trazado_628636" data-name="Trazado 628636" d="M25.752,47.04a11.894,11.894,0,0,1,7.7,11.121H23.581V51.581A6.572,6.572,0,0,0,17,45h1.135a12.109,12.109,0,0,1,4.179.757Z" transform="translate(-17 -45)" fill="#b4dd7f"/>
        </g>
        <g id="Grupo_952828" data-name="Grupo 952828" transform="translate(45.587 82.258)">
          <path id="Trazado_628637" data-name="Trazado 628637" d="M35.768,51.444a3.284,3.284,0,0,1,1.645,2.846h1.645a3.3,3.3,0,0,1,3.29,3.29,6.572,6.572,0,0,1-6.581,6.581H29.187V55.935a1.669,1.669,0,0,0-.477-1.168l2.8-2.8A3.3,3.3,0,0,1,33.843,51h.28A3.282,3.282,0,0,1,35.768,51.444Z" transform="translate(-28.71 -51)" fill="#f0d0b4"/>
        </g>
        <g id="Grupo_952829" data-name="Grupo 952829" transform="translate(8.226 39.484)">
          <path id="Trazado_628638" data-name="Trazado 628638" d="M48.774,25V41.452A16.458,16.458,0,0,1,32.323,57.9H22.452A16.458,16.458,0,0,1,6,41.452V25Z" transform="translate(-6 -25)" fill="#f0d0b4"/>
        </g>
        <g id="Grupo_952830" data-name="Grupo 952830" transform="translate(21.387 59.226)">
          <path id="Trazado_628639" data-name="Trazado 628639" d="M30.452,37l-.049.2a8.428,8.428,0,0,1-16.353,0L14,37Z" transform="translate(-14 -37)" fill="#ff826e"/>
        </g>
      </g>
      <g id="Grupo_952832" data-name="Grupo 952832" transform="translate(0)">
        <path id="Trazado_628640" data-name="Trazado 628640" d="M32.825,38.239,33.386,36H12.719l.559,2.239a10.073,10.073,0,0,0,19.546,0ZM17.235,39.29H28.868a6.786,6.786,0,0,1-11.633,0Z" transform="translate(8.206 23.226)"/>
        <path id="Trazado_628641" data-name="Trazado 628641" d="M67.452,69.806H60.284a21.463,21.463,0,0,0,.587-4.935V39.736A3.28,3.28,0,0,0,62.516,36.9v-3.29a3.294,3.294,0,0,0-3.29-3.29h-.084A24.673,24.673,0,0,0,36.194,7.374V7.29A3.294,3.294,0,0,0,32.9,4h-3.29a3.294,3.294,0,0,0-3.29,3.29v.084A24.673,24.673,0,0,0,3.374,30.323H3.29A3.294,3.294,0,0,0,0,33.613V36.9a3.28,3.28,0,0,0,1.645,2.833V64.871a21.5,21.5,0,0,0,18.1,21.116V87.9A11.53,11.53,0,0,0,31.258,99.418l14.806,0a3.294,3.294,0,0,0,3.29-3.29h3.29v3.29h32.9V82.968h14.806V53.355h-32.9ZM65.806,73.1h6.581v3.29H65.806Zm-13.161-3.29v9.871h-.281a4.912,4.912,0,0,0-3.491,1.446l-1.968,1.968a3.224,3.224,0,0,0-.841-.123h-.128a13.593,13.593,0,0,0-6.771-10.136A18.112,18.112,0,0,0,54.29,55V40.194h3.29V64.871a18.035,18.035,0,0,1-.694,4.935ZM35.534,74.813l.6.227a10.279,10.279,0,0,1,6.493,7.928H36.19V78.031a8.138,8.138,0,0,0-.656-3.218ZM27.968,69.8h0l-.016,0H26.323A14.823,14.823,0,0,1,11.516,55V40.194H51V55A14.823,14.823,0,0,1,36.194,69.806H27.984ZM55.852,30.323h-6.5V20.452a3.294,3.294,0,0,0-3.29-3.29h-3.29a3.294,3.294,0,0,0-3.29,3.29v9.871h-3.29V10.665A21.391,21.391,0,0,1,55.852,30.323Zm-9.787,0h-3.29V20.452h3.29ZM32.9,7.29V30.323h-3.29V7.29Zm-6.581,3.374V30.323h-3.29V20.452a3.294,3.294,0,0,0-3.29-3.29h-3.29a3.294,3.294,0,0,0-3.29,3.29v9.871h-6.5A21.391,21.391,0,0,1,26.323,10.665ZM19.742,30.323h-3.29V20.452h3.29ZM3.29,33.613H59.226V36.9H3.29ZM4.935,64.871V40.194h3.29V55A18.113,18.113,0,0,0,21.894,72.526a8.142,8.142,0,0,0-2.152,5.5v4.636A18.2,18.2,0,0,1,4.935,64.871ZM31.258,96.127A8.235,8.235,0,0,1,23.032,87.9V78.029A4.932,4.932,0,0,1,27.95,73.1h.035A4.935,4.935,0,0,1,32.9,78.031v6.084l-3.012,4.521,2.738,1.824,2.8-4.2H46.065l0,9.871Zm17.973-10.71L51.2,83.45a1.638,1.638,0,0,1,1.165-.482h.281a1.647,1.647,0,0,1,1.645,1.645v1.645h3.29A1.647,1.647,0,0,1,59.226,87.9a4.942,4.942,0,0,1-4.935,4.935H49.355V86.258A3.224,3.224,0,0,0,49.231,85.417ZM82.258,96.129H55.935v-.166a8.24,8.24,0,0,0,6.581-8.06,4.942,4.942,0,0,0-4.935-4.935H57.3a4.935,4.935,0,0,0-1.364-2.015V73.1h6.581v6.581H75.677V73.1h6.581ZM80.613,56.645h6.581v3.29H80.613Zm-3.29,0v6.581H90.484V56.645h6.581V79.677H85.548V69.806H70.742V56.645Z" transform="translate(0 2.581)"/>
        <path id="Trazado_628642" data-name="Trazado 628642" d="M57.742,39.484A19.742,19.742,0,1,0,38,19.742,19.764,19.764,0,0,0,57.742,39.484Zm0-36.194A16.452,16.452,0,1,1,41.29,19.742,16.47,16.47,0,0,1,57.742,3.29Z" transform="translate(24.516)"/>
        <path id="Trazado_628643" data-name="Trazado 628643" d="M65.361,9.619,63.035,7.293,49.392,20.936l-3.772-3.772L43.293,19.49l6.1,6.1Z" transform="translate(27.931 4.705)"/>
        <path id="Trazado_628644" data-name="Trazado 628644" d="M41,26H70.613v3.29H41Z" transform="translate(26.452 16.774)"/>
        <path id="Trazado_628645" data-name="Trazado 628645" d="M41,30H70.613v3.29H41Z" transform="translate(26.452 19.355)"/>
        <path id="Trazado_628646" data-name="Trazado 628646" d="M18.871,34.581h3.29A6.581,6.581,0,1,0,9,34.581h3.29a3.29,3.29,0,0,1,6.581,0Z" transform="translate(5.806 18.065)"/>
        <path id="Trazado_628647" data-name="Trazado 628647" d="M27.581,31.29a3.294,3.294,0,0,1,3.29,3.29h3.29a6.581,6.581,0,0,0-13.161,0h3.29A3.294,3.294,0,0,1,27.581,31.29Z" transform="translate(13.548 18.065)"/>
      </g>
    </g>
  </g>
</svg>
