<svg xmlns="http://www.w3.org/2000/svg" width="130.741" height="126.667" viewBox="0 0 130.741 126.667">
  <g id="Layer_19" transform="translate(0 -3.99)">
    <g id="Grupo_966939" data-name="Grupo 966939" transform="translate(0 3.99)">
      <g id="Grupo_966855" data-name="Grupo 966855" transform="translate(37.702 11.301)">
        <g id="Grupo_966854" data-name="Grupo 966854">
          <path id="Trazado_641385" data-name="Trazado 641385" d="M114.265,26.117H73.823v14.4a.255.255,0,0,0,.463.147L78,34.987a2.985,2.985,0,0,1,5.161,2.946l-4.327,9.359a35.23,35.23,0,0,1-3.015,5.324c-.015.022-.03.047-.045.069h38.488a.88.88,0,0,0,.88-.88V27a.88.88,0,0,0-.88-.88Z" transform="translate(-73.823 -26.117)" fill="#fc657e"/>
        </g>
      </g>
      <g id="Grupo_966857" data-name="Grupo 966857" transform="translate(14.753 44.646)">
        <g id="Grupo_966856" data-name="Grupo 966856">
          <path id="Trazado_641386" data-name="Trazado 641386" d="M52.716,91.41H29.767a.881.881,0,0,0-.88.88v4.638H53.6V92.29a.879.879,0,0,0-.88-.88Z" transform="translate(-28.887 -91.41)" fill="#dae6f1"/>
        </g>
      </g>
      <g id="Grupo_966859" data-name="Grupo 966859" transform="translate(14.86 1.276)">
        <g id="Grupo_966858" data-name="Grupo 966858">
          <path id="Trazado_641387" data-name="Trazado 641387" d="M60.212,24.622a2.985,2.985,0,0,0-4.093.76L52.4,31.056a.255.255,0,0,1-.463-.147V12.859a2.856,2.856,0,0,0-5.651-.579,2.9,2.9,0,0,0-.059.579v-3.4A2.935,2.935,0,0,0,43.461,6.49a2.855,2.855,0,0,0-2.943,2.854v3.515A2.855,2.855,0,0,0,37.574,10a2.935,2.935,0,0,0-2.768,2.974v3.4a2.855,2.855,0,0,0-2.943-2.854A2.935,2.935,0,0,0,29.1,16.493V37.421a12.225,12.225,0,0,0,.593,3.76c.436,1.576,1.355,3.349,1.355,6.305v2.372H51.838l.051-.46a11.421,11.421,0,0,1,2.047-6.387,35.2,35.2,0,0,0,3.015-5.323l4.327-9.359a2.984,2.984,0,0,0-1.066-3.708Z" transform="translate(-29.096 -6.488)" fill="#f9d0b4"/>
        </g>
      </g>
      <g id="Grupo_966861" data-name="Grupo 966861" transform="translate(13.824 50.165)">
        <g id="Grupo_966860" data-name="Grupo 966860">
          <path id="Trazado_641388" data-name="Trazado 641388" d="M52.756,102.216H27.948a.88.88,0,0,0-.88.88v40.442H40.493a.255.255,0,0,0,.147-.463l-5.673-3.717a2.985,2.985,0,0,1,2.946-5.161l9.359,4.327a35.2,35.2,0,0,1,5.323,3.015c.323.219.67.434,1.04.639V103.1a.879.879,0,0,0-.879-.88Z" transform="translate(-27.068 -102.216)" fill="#70d6f9"/>
        </g>
      </g>
      <g id="Grupo_966863" data-name="Grupo 966863" transform="translate(46.199 89.727)">
        <g id="Grupo_966862" data-name="Grupo 966862">
          <path id="Trazado_641389" data-name="Trazado 641389" d="M91.34,179.682a.88.88,0,0,0-.88.88v22.948a.88.88,0,0,0,.88.88h4.638V179.683H91.34Z" transform="translate(-90.46 -179.682)" fill="#dae6f1"/>
        </g>
      </g>
      <g id="Grupo_966865" data-name="Grupo 966865" transform="translate(2.829 81.884)">
        <g id="Grupo_966864" data-name="Grupo 966864">
          <path id="Trazado_641390" data-name="Trazado 641390" d="M48.448,173.976a11.422,11.422,0,0,1-6.387-2.047,35.2,35.2,0,0,0-5.323-3.015l-9.359-4.327a2.985,2.985,0,0,0-2.946,5.161l5.673,3.717a.255.255,0,0,1-.147.463H11.909a2.856,2.856,0,0,0-.579,5.651,2.9,2.9,0,0,0,.579.059h-3.4a2.935,2.935,0,0,0-2.974,2.768,2.855,2.855,0,0,0,2.854,2.943h3.515a2.855,2.855,0,0,0-2.854,2.943,2.935,2.935,0,0,0,2.974,2.768h3.4A2.855,2.855,0,0,0,12.57,194a2.934,2.934,0,0,0,2.973,2.768H36.471a12.225,12.225,0,0,0,3.76-.593c1.576-.436,3.349-1.355,6.305-1.355h2.372V174.028Z" transform="translate(-5.538 -164.324)" fill="#f9d0b4"/>
        </g>
      </g>
      <g id="Grupo_966867" data-name="Grupo 966867" transform="translate(51.716 88.798)">
        <g id="Grupo_966866" data-name="Grupo 966866">
          <path id="Trazado_641391" data-name="Trazado 641391" d="M142.124,189.886l-3.718,5.673a2.985,2.985,0,0,1-5.161-2.946l4.327-9.359a35.2,35.2,0,0,1,3.015-5.323c.015-.022.03-.047.045-.069H102.144a.88.88,0,0,0-.88.88v24.807a.88.88,0,0,0,.88.88h40.442v-14.4a.254.254,0,0,0-.462-.147Z" transform="translate(-101.264 -177.862)" fill="#f5c84c"/>
        </g>
      </g>
      <g id="Grupo_966869" data-name="Grupo 966869" transform="translate(91.279 76.501)">
        <g id="Grupo_966868" data-name="Grupo 966868">
          <path id="Trazado_641392" data-name="Trazado 641392" d="M178.731,153.784v4.638a.881.881,0,0,0,.88.88H202.56a.881.881,0,0,0,.88-.88v-4.638Z" transform="translate(-178.731 -153.784)" fill="#dae6f1"/>
        </g>
      </g>
      <g id="Grupo_966871" data-name="Grupo 966871" transform="translate(83.436 82.02)">
        <g id="Grupo_966870" data-name="Grupo 966870">
          <path id="Trazado_641393" data-name="Trazado 641393" d="M195.225,173.267c-.436-1.576-1.355-3.349-1.355-6.305V164.59H173.076l-.051.46a11.422,11.422,0,0,1-2.047,6.387,35.18,35.18,0,0,0-3.015,5.324l-4.327,9.359a2.985,2.985,0,0,0,5.161,2.946l3.718-5.673a.255.255,0,0,1,.463.147v18.05a2.856,2.856,0,0,0,5.651.579,2.9,2.9,0,0,0,.059-.579v3.4a2.935,2.935,0,0,0,2.768,2.974A2.855,2.855,0,0,0,184.4,205.1V201.59a2.855,2.855,0,0,0,2.943,2.854,2.935,2.935,0,0,0,2.768-2.974v-3.4a2.855,2.855,0,0,0,2.943,2.854,2.934,2.934,0,0,0,2.768-2.973V177.027a12.273,12.273,0,0,0-.594-3.76Z" transform="translate(-163.373 -164.59)" fill="#f9d0b4"/>
        </g>
      </g>
      <g id="Grupo_966873" data-name="Grupo 966873" transform="translate(90.35 35.179)">
        <g id="Grupo_966872" data-name="Grupo 966872">
          <path id="Trazado_641394" data-name="Trazado 641394" d="M190.054,72.873a.255.255,0,0,0-.147.463l5.673,3.717a2.985,2.985,0,0,1-2.946,5.161l-9.359-4.327a35.2,35.2,0,0,1-5.324-3.015c-.323-.219-.67-.434-1.04-.639v39.082a.88.88,0,0,0,.88.88H202.6a.88.88,0,0,0,.88-.88V72.873Z" transform="translate(-176.911 -72.873)" fill="#5290db"/>
        </g>
      </g>
      <g id="Grupo_966875" data-name="Grupo 966875" transform="translate(79.024 12.23)">
        <g id="Grupo_966874" data-name="Grupo 966874">
          <path id="Trazado_641395" data-name="Trazado 641395" d="M159.373,27.937h-4.638V52.646h4.638a.88.88,0,0,0,.88-.88V28.817a.88.88,0,0,0-.88-.88Z" transform="translate(-154.735 -27.937)" fill="#dae6f1"/>
        </g>
      </g>
      <g id="Grupo_966877" data-name="Grupo 966877" transform="translate(84.542 12.337)">
        <g id="Grupo_966876" data-name="Grupo 966876">
          <path id="Trazado_641396" data-name="Trazado 641396" d="M206.054,39.567H202.54a2.855,2.855,0,0,0,2.854-2.943,2.935,2.935,0,0,0-2.974-2.768h-3.4a2.855,2.855,0,0,0,2.854-2.943,2.935,2.935,0,0,0-2.974-2.768H177.977a12.225,12.225,0,0,0-3.76.593c-1.576.436-3.349,1.355-6.305,1.355h-2.372V50.888l.46.051a11.421,11.421,0,0,1,6.387,2.047A35.2,35.2,0,0,0,177.709,56l9.359,4.327a2.985,2.985,0,0,0,2.946-5.161l-5.673-3.717a.255.255,0,0,1,.147-.463h18.05a2.856,2.856,0,0,0,.579-5.651,2.9,2.9,0,0,0-.579-.059h3.4a2.935,2.935,0,0,0,2.974-2.768,2.853,2.853,0,0,0-2.852-2.943Z" transform="translate(-165.539 -28.146)" fill="#f9d0b4"/>
        </g>
      </g>
      <g id="Grupo_966879" data-name="Grupo 966879" transform="translate(30.715 6.37)">
        <g id="Grupo_966878" data-name="Grupo 966878">
          <path id="Trazado_641397" data-name="Trazado 641397" d="M61.419,16.462a1.277,1.277,0,0,0-1.277,1.277V29.748a1.277,1.277,0,0,0,2.554,0V17.739A1.277,1.277,0,0,0,61.419,16.462Z" transform="translate(-60.142 -16.462)"/>
        </g>
      </g>
      <g id="Grupo_966881" data-name="Grupo 966881" transform="translate(25.005 6.37)">
        <g id="Grupo_966880" data-name="Grupo 966880">
          <path id="Trazado_641398" data-name="Trazado 641398" d="M50.238,16.462a1.277,1.277,0,0,0-1.277,1.277V29.748a1.277,1.277,0,1,0,2.554,0V17.739A1.277,1.277,0,0,0,50.238,16.462Z" transform="translate(-48.961 -16.462)"/>
        </g>
      </g>
      <g id="Grupo_966883" data-name="Grupo 966883" transform="translate(19.294 6.37)">
        <g id="Grupo_966882" data-name="Grupo 966882">
          <path id="Trazado_641399" data-name="Trazado 641399" d="M39.056,16.462a1.277,1.277,0,0,0-1.277,1.277V29.748a1.277,1.277,0,0,0,2.554,0V17.739A1.277,1.277,0,0,0,39.056,16.462Z" transform="translate(-37.779 -16.462)"/>
        </g>
      </g>
      <g id="Grupo_966885" data-name="Grupo 966885" transform="translate(13.476 43.369)">
        <g id="Grupo_966884" data-name="Grupo 966884">
          <path id="Trazado_641400" data-name="Trazado 641400" d="M51.493,88.91H28.544a2.16,2.16,0,0,0-2.157,2.157v4.214a1.277,1.277,0,0,0,2.554,0V91.464H51.1v3.783a1.277,1.277,0,0,0,2.554,0v-4.18A2.158,2.158,0,0,0,51.493,88.91Z" transform="translate(-26.387 -88.91)"/>
        </g>
      </g>
      <g id="Grupo_966887" data-name="Grupo 966887" transform="translate(13.583)">
        <g id="Grupo_966886" data-name="Grupo 966886">
          <path id="Trazado_641401" data-name="Trazado 641401" d="M59.7,22.338a4.247,4.247,0,0,0-5.869,1.123l-1.836,2.8V11.636a4.146,4.146,0,0,0-1.274-2.982,4.144,4.144,0,0,0-4.456-.826,4.214,4.214,0,0,0-3.986-3.836A4.132,4.132,0,0,0,38.029,7.82a4.106,4.106,0,0,0-1.715-.313,4.215,4.215,0,0,0-3.986,3.832,4.18,4.18,0,0,0-1.725-.317,4.225,4.225,0,0,0-4.006,4.25V36.2a13.469,13.469,0,0,0,.647,4.127c.113.4.248.8.392,1.225a13.5,13.5,0,0,1,.91,4.713v1.782a1.277,1.277,0,1,0,2.554,0V46.264a15.889,15.889,0,0,0-1.045-5.535c-.135-.4-.261-.769-.355-1.111l-.016-.053a10.931,10.931,0,0,1-.532-3.367V15.271a1.654,1.654,0,0,1,1.529-1.7,1.578,1.578,0,0,1,1.628,1.578,1.277,1.277,0,0,0,2.554,0v-3.4a1.654,1.654,0,0,1,1.529-1.7,1.578,1.578,0,0,1,1.628,1.578,1.277,1.277,0,1,0,2.554,0V8.122A1.577,1.577,0,0,1,42.2,6.544a1.654,1.654,0,0,1,1.529,1.7v3.4a1.277,1.277,0,0,0,2.554,0,1.633,1.633,0,0,1,.032-.321,1.579,1.579,0,0,1,3.125.321v18.05a1.531,1.531,0,0,0,2.807.847L55.938,24.9A1.708,1.708,0,0,1,58.9,26.571l-4.333,9.371a33.693,33.693,0,0,1-2.906,5.129,12.756,12.756,0,0,0-2.267,7.051,1.277,1.277,0,0,0,1.222,1.33h.055a1.277,1.277,0,0,0,1.275-1.223,10.081,10.081,0,0,1,1.828-5.725A36.116,36.116,0,0,0,56.888,37L61.22,27.63A4.248,4.248,0,0,0,59.7,22.338Z" transform="translate(-26.597 -3.99)"/>
        </g>
      </g>
      <g id="Grupo_966889" data-name="Grupo 966889" transform="translate(12.547 48.888)">
        <g id="Grupo_966888" data-name="Grupo 966888">
          <path id="Trazado_641402" data-name="Trazado 641402" d="M51.531,99.715H26.724a2.16,2.16,0,0,0-2.157,2.157V142.08a1.277,1.277,0,1,0,2.554,0V102.269H51.135v38.44a1.277,1.277,0,0,0,2.554,0V101.873a2.159,2.159,0,0,0-2.157-2.158Z" transform="translate(-24.567 -99.715)"/>
        </g>
      </g>
      <g id="Grupo_966891" data-name="Grupo 966891" transform="translate(7.922 95.921)">
        <g id="Grupo_966890" data-name="Grupo 966890">
          <path id="Trazado_641403" data-name="Trazado 641403" d="M28.8,191.809H16.788a1.277,1.277,0,0,0,0,2.554H28.8a1.277,1.277,0,1,0,0-2.554Z" transform="translate(-15.511 -191.809)"/>
        </g>
      </g>
      <g id="Grupo_966893" data-name="Grupo 966893" transform="translate(7.922 101.631)">
        <g id="Grupo_966892" data-name="Grupo 966892">
          <path id="Trazado_641404" data-name="Trazado 641404" d="M28.8,202.99H16.788a1.277,1.277,0,0,0,0,2.554H28.8a1.277,1.277,0,1,0,0-2.554Z" transform="translate(-15.511 -202.99)"/>
        </g>
      </g>
      <g id="Grupo_966895" data-name="Grupo 966895" transform="translate(7.922 107.341)">
        <g id="Grupo_966894" data-name="Grupo 966894">
          <path id="Trazado_641405" data-name="Trazado 641405" d="M28.8,214.171H16.788a1.277,1.277,0,0,0,0,2.554H28.8a1.277,1.277,0,1,0,0-2.554Z" transform="translate(-15.511 -214.171)"/>
        </g>
      </g>
      <g id="Grupo_966897" data-name="Grupo 966897" transform="translate(44.921 88.451)">
        <g id="Grupo_966896" data-name="Grupo 966896">
          <path id="Trazado_641406" data-name="Trazado 641406" d="M94.33,201.891H90.512V179.736H94.3a1.277,1.277,0,1,0,0-2.554h-4.18a2.16,2.16,0,0,0-2.157,2.157v22.948a2.16,2.16,0,0,0,2.157,2.157H94.33a1.277,1.277,0,0,0,0-2.554Z" transform="translate(-87.958 -177.182)"/>
        </g>
      </g>
      <g id="Grupo_966899" data-name="Grupo 966899" transform="translate(1.552 80.605)">
        <g id="Grupo_966898" data-name="Grupo 966898">
          <path id="Trazado_641407" data-name="Trazado 641407" d="M47.1,192.318H45.314a15.886,15.886,0,0,0-5.534,1.045c-.4.134-.769.261-1.111.356l-.053.016a10.921,10.921,0,0,1-3.368.531H14.32a1.655,1.655,0,0,1-1.7-1.529A1.578,1.578,0,0,1,14.2,191.11a1.277,1.277,0,1,0,0-2.554H10.806a1.655,1.655,0,0,1-1.7-1.529,1.578,1.578,0,0,1,1.578-1.628,1.277,1.277,0,1,0,0-2.554H7.171a1.578,1.578,0,0,1-1.578-1.628,1.655,1.655,0,0,1,1.7-1.529h3.395a1.277,1.277,0,0,0,0-2.554,1.642,1.642,0,0,1-.321-.032,1.579,1.579,0,0,1,.322-3.124h18.05a1.531,1.531,0,0,0,.847-2.807l-5.636-3.692a1.708,1.708,0,0,1,1.674-2.959l9.371,4.333a33.674,33.674,0,0,1,5.129,2.906,12.751,12.751,0,0,0,7.051,2.267,1.277,1.277,0,1,0,.108-2.551,10.083,10.083,0,0,1-5.725-1.828,36.131,36.131,0,0,0-5.5-3.117L26.68,162.2a4.262,4.262,0,0,0-4.169,7.393l2.8,1.836H10.686A4.147,4.147,0,0,0,7.7,172.7a4.143,4.143,0,0,0-.827,4.456,4.215,4.215,0,0,0-3.836,3.986,4.133,4.133,0,0,0,3.828,4.247,4.122,4.122,0,0,0-.313,1.715,4.215,4.215,0,0,0,3.832,3.986,4.125,4.125,0,0,0-.317,1.725,4.224,4.224,0,0,0,4.25,4.005H35.248a13.472,13.472,0,0,0,4.128-.647c.4-.113.8-.248,1.225-.392a13.5,13.5,0,0,1,4.713-.91H47.1a1.277,1.277,0,1,0,0-2.554Z" transform="translate(-3.039 -161.819)"/>
        </g>
      </g>
      <g id="Grupo_966901" data-name="Grupo 966901" transform="translate(50.44 87.521)">
        <g id="Grupo_966900" data-name="Grupo 966900">
          <path id="Trazado_641408" data-name="Trazado 641408" d="M140.891,201.93H101.319V177.916h37.705a1.277,1.277,0,1,0,0-2.554h-38.1a2.16,2.16,0,0,0-2.157,2.157v24.808a2.159,2.159,0,0,0,2.157,2.157h39.969a1.277,1.277,0,1,0,0-2.554Z" transform="translate(-98.765 -175.362)"/>
        </g>
      </g>
      <g id="Grupo_966903" data-name="Grupo 966903" transform="translate(97.473 105.734)">
        <g id="Grupo_966902" data-name="Grupo 966902">
          <path id="Trazado_641409" data-name="Trazado 641409" d="M192.135,211.024a1.277,1.277,0,0,0-1.277,1.277V224.31a1.277,1.277,0,1,0,2.554,0V212.3A1.277,1.277,0,0,0,192.135,211.024Z" transform="translate(-190.858 -211.024)"/>
        </g>
      </g>
      <g id="Grupo_966905" data-name="Grupo 966905" transform="translate(103.183 105.734)">
        <g id="Grupo_966904" data-name="Grupo 966904">
          <path id="Trazado_641410" data-name="Trazado 641410" d="M203.316,211.024a1.277,1.277,0,0,0-1.277,1.277V224.31a1.277,1.277,0,1,0,2.554,0V212.3A1.277,1.277,0,0,0,203.316,211.024Z" transform="translate(-202.039 -211.024)"/>
        </g>
      </g>
      <g id="Grupo_966907" data-name="Grupo 966907" transform="translate(108.894 105.734)">
        <g id="Grupo_966906" data-name="Grupo 966906">
          <path id="Trazado_641411" data-name="Trazado 641411" d="M214.5,211.024a1.277,1.277,0,0,0-1.277,1.277V224.31a1.277,1.277,0,1,0,2.554,0V212.3A1.277,1.277,0,0,0,214.5,211.024Z" transform="translate(-213.221 -211.024)"/>
        </g>
      </g>
      <g id="Grupo_966909" data-name="Grupo 966909" transform="translate(90.003 75.648)">
        <g id="Grupo_966908" data-name="Grupo 966908">
          <path id="Trazado_641412" data-name="Trazado 641412" d="M202.216,152.114a1.277,1.277,0,0,0-1.277,1.277v3.818H178.785v-3.783a1.277,1.277,0,0,0-2.554,0v4.18a2.16,2.16,0,0,0,2.157,2.157h22.949a2.16,2.16,0,0,0,2.157-2.157v-4.214A1.277,1.277,0,0,0,202.216,152.114Z" transform="translate(-176.231 -152.114)"/>
        </g>
      </g>
      <g id="Grupo_966911" data-name="Grupo 966911" transform="translate(82.156 81.201)">
        <g id="Grupo_966910" data-name="Grupo 966910">
          <path id="Trazado_641413" data-name="Trazado 641413" d="M195.222,172.115c-.113-.4-.248-.8-.392-1.225a13.5,13.5,0,0,1-.91-4.713V164.4a1.277,1.277,0,0,0-2.554,0v1.782a15.888,15.888,0,0,0,1.045,5.535c.135.4.261.769.355,1.111l.016.053a10.931,10.931,0,0,1,.532,3.367V197.17a1.654,1.654,0,0,1-1.529,1.7,1.578,1.578,0,0,1-1.628-1.578,1.277,1.277,0,0,0-2.554,0v3.4a1.654,1.654,0,0,1-1.529,1.7,1.585,1.585,0,0,1-1.149-.445,1.566,1.566,0,0,1-.479-1.133,1.277,1.277,0,0,0-2.554,0v3.515a1.577,1.577,0,0,1-1.628,1.578,1.654,1.654,0,0,1-1.529-1.7v-3.4a1.277,1.277,0,1,0-2.554,0,1.633,1.633,0,0,1-.032.321,1.579,1.579,0,0,1-3.125-.321v-18.05a1.531,1.531,0,0,0-2.807-.847l-3.692,5.637a1.708,1.708,0,0,1-2.959-1.674L167.9,176.5a33.693,33.693,0,0,1,2.906-5.129,12.756,12.756,0,0,0,2.267-7.051,1.277,1.277,0,0,0-2.552-.108,10.081,10.081,0,0,1-1.828,5.725,36.116,36.116,0,0,0-3.117,5.5l-4.333,9.371a4.261,4.261,0,0,0,7.393,4.169l1.836-2.8V200.8a4.146,4.146,0,0,0,1.274,2.982,4.144,4.144,0,0,0,4.456.826,4.214,4.214,0,0,0,3.986,3.836l.129,0a4.132,4.132,0,0,0,4.119-3.83,4.172,4.172,0,0,0,1.715.313,4.215,4.215,0,0,0,3.986-3.832,4.153,4.153,0,0,0,1.725.317,4.225,4.225,0,0,0,4.006-4.25V176.242a13.483,13.483,0,0,0-.647-4.126Z" transform="translate(-160.868 -162.986)"/>
        </g>
      </g>
      <g id="Grupo_966913" data-name="Grupo 966913" transform="translate(89.074 34.238)">
        <g id="Grupo_966912" data-name="Grupo 966912">
          <path id="Trazado_641414" data-name="Trazado 641414" d="M202.256,71.031a1.277,1.277,0,0,0-1.277,1.277v39.709H176.966v-38.3a1.277,1.277,0,1,0-2.554,0v38.7a2.159,2.159,0,0,0,2.157,2.157h24.807a2.16,2.16,0,0,0,2.157-2.157V72.308a1.278,1.278,0,0,0-1.277-1.277Z" transform="translate(-174.412 -71.031)"/>
        </g>
      </g>
      <g id="Grupo_966915" data-name="Grupo 966915" transform="translate(108.257 28.192)">
        <g id="Grupo_966914" data-name="Grupo 966914">
          <path id="Trazado_641415" data-name="Trazado 641415" d="M225.261,59.191H213.252a1.277,1.277,0,0,0,0,2.554h12.009a1.277,1.277,0,1,0,0-2.554Z" transform="translate(-211.975 -59.191)"/>
        </g>
      </g>
      <g id="Grupo_966917" data-name="Grupo 966917" transform="translate(108.257 22.481)">
        <g id="Grupo_966916" data-name="Grupo 966916">
          <path id="Trazado_641416" data-name="Trazado 641416" d="M225.261,48.01H213.252a1.277,1.277,0,0,0,0,2.554h12.009a1.277,1.277,0,1,0,0-2.554Z" transform="translate(-211.975 -48.01)"/>
        </g>
      </g>
      <g id="Grupo_966919" data-name="Grupo 966919" transform="translate(108.257 16.771)">
        <g id="Grupo_966918" data-name="Grupo 966918">
          <path id="Trazado_641417" data-name="Trazado 641417" d="M225.261,36.829H213.252a1.277,1.277,0,0,0,0,2.554h12.009a1.277,1.277,0,1,0,0-2.554Z" transform="translate(-211.975 -36.829)"/>
        </g>
      </g>
      <g id="Grupo_966922" data-name="Grupo 966922" transform="translate(78.172 10.953)">
        <g id="Grupo_966921" data-name="Grupo 966921">
          <g id="Grupo_966920" data-name="Grupo 966920">
            <path id="Trazado_641418" data-name="Trazado 641418" d="M158.556,25.437h-4.214a1.277,1.277,0,0,0,0,2.554h3.818V50.146h-3.783a1.277,1.277,0,0,0,0,2.554h4.18a2.16,2.16,0,0,0,2.157-2.157V27.594A2.161,2.161,0,0,0,158.556,25.437Z" transform="translate(-153.065 -25.437)"/>
          </g>
        </g>
      </g>
      <g id="Grupo_966924" data-name="Grupo 966924" transform="translate(83.725 11.061)">
        <g id="Grupo_966923" data-name="Grupo 966923">
          <path id="Trazado_641419" data-name="Trazado 641419" d="M209.4,41.326a4.133,4.133,0,0,0-3.828-4.247,4.123,4.123,0,0,0,.313-1.715,4.215,4.215,0,0,0-3.832-3.986,4.125,4.125,0,0,0,.317-1.725,4.224,4.224,0,0,0-4.25-4.005H177.194a13.472,13.472,0,0,0-4.128.647c-.4.113-.8.248-1.225.392a13.5,13.5,0,0,1-4.713.91h-1.782a1.277,1.277,0,0,0,0,2.554h1.782a15.885,15.885,0,0,0,5.534-1.045c.4-.134.769-.261,1.111-.356l.053-.016a10.922,10.922,0,0,1,3.368-.531h20.928a1.655,1.655,0,0,1,1.7,1.529,1.578,1.578,0,0,1-1.578,1.628,1.277,1.277,0,1,0,0,2.554h3.395a1.655,1.655,0,0,1,1.7,1.529,1.578,1.578,0,0,1-1.578,1.628,1.277,1.277,0,0,0,0,2.554h3.515a1.578,1.578,0,0,1,1.578,1.628,1.655,1.655,0,0,1-1.7,1.529h-3.395a1.277,1.277,0,0,0,0,2.554,1.641,1.641,0,0,1,.321.032,1.579,1.579,0,0,1-.322,3.124h-18.05a1.531,1.531,0,0,0-.847,2.807l5.636,3.692a1.708,1.708,0,0,1-1.674,2.959l-9.371-4.333a33.673,33.673,0,0,1-5.129-2.906,12.751,12.751,0,0,0-7.051-2.267,1.277,1.277,0,1,0-.108,2.551,10.083,10.083,0,0,1,5.725,1.828,36.129,36.129,0,0,0,5.5,3.117l9.371,4.333a4.262,4.262,0,0,0,4.17-7.393l-2.8-1.836h14.627a4.147,4.147,0,0,0,2.982-1.274,4.143,4.143,0,0,0,.827-4.456,4.214,4.214,0,0,0,3.835-3.986Z" transform="translate(-163.939 -25.648)"/>
        </g>
      </g>
      <g id="Grupo_966926" data-name="Grupo 966926" transform="translate(36.771 10.024)">
        <g id="Grupo_966925" data-name="Grupo 966925">
          <path id="Trazado_641420" data-name="Trazado 641420" d="M113.373,23.617h-40.1a1.277,1.277,0,1,0,0,2.554h39.7V50.185H75.192a1.277,1.277,0,0,0,0,2.554h38.182a2.16,2.16,0,0,0,2.157-2.157V25.774A2.16,2.16,0,0,0,113.373,23.617Z" transform="translate(-72 -23.617)"/>
        </g>
      </g>
      <g id="Grupo_966928" data-name="Grupo 966928" transform="translate(0 39.84)">
        <g id="Grupo_966927" data-name="Grupo 966927">
          <path id="Trazado_641421" data-name="Trazado 641421" d="M9.371,86.52a5.667,5.667,0,0,1-4.545-4.443c0-.1-.2-.1-.2,0A5.667,5.667,0,0,1,.077,86.52c-.1,0-.1.153,0,.2a5.667,5.667,0,0,1,4.545,4.443c0,.1.2.1.2,0a5.667,5.667,0,0,1,4.545-4.443C9.474,86.673,9.474,86.52,9.371,86.52Z" transform="translate(0 -82)" fill="#f5c84c"/>
        </g>
      </g>
      <g id="Grupo_966930" data-name="Grupo 966930" transform="translate(47.36 0)">
        <g id="Grupo_966929" data-name="Grupo 966929">
          <path id="Trazado_641422" data-name="Trazado 641422" d="M99.31,7.161A3.976,3.976,0,0,1,96.12,4.044c0-.071-.144-.071-.144,0a3.976,3.976,0,0,1-3.189,3.117c-.071,0-.071.108,0,.144a3.976,3.976,0,0,1,3.189,3.117c0,.071.144.071.144,0A3.976,3.976,0,0,1,99.31,7.3c.071-.036.071-.144,0-.144Z" transform="translate(-92.734 -3.99)" fill="#70d6f9"/>
        </g>
      </g>
      <g id="Grupo_966932" data-name="Grupo 966932" transform="translate(121.855 75.896)">
        <g id="Grupo_966931" data-name="Grupo 966931">
          <path id="Trazado_641423" data-name="Trazado 641423" d="M245.852,155.409h-1.175v-1.175a1.646,1.646,0,0,0-1.634-1.634,1.613,1.613,0,0,0-1.634,1.634v1.175h-1.175a1.646,1.646,0,0,0-1.634,1.634,1.613,1.613,0,0,0,1.634,1.634h1.175v1.175a1.646,1.646,0,0,0,1.634,1.634,1.613,1.613,0,0,0,1.634-1.634v-1.175h1.175a1.646,1.646,0,0,0,1.634-1.634A1.613,1.613,0,0,0,245.852,155.409Z" transform="translate(-238.6 -152.6)" fill="#fc657e"/>
        </g>
      </g>
      <g id="Grupo_966934" data-name="Grupo 966934" transform="translate(5.822 29.116)">
        <g id="Grupo_966933" data-name="Grupo 966933">
          <path id="Trazado_641424" data-name="Trazado 641424" d="M13.136,61a1.736,1.736,0,1,0,1.736,1.736A1.736,1.736,0,0,0,13.136,61Z" transform="translate(-11.4 -61)" fill="#87d147"/>
        </g>
      </g>
      <g id="Grupo_966936" data-name="Grupo 966936" transform="translate(121.753 91.422)">
        <g id="Grupo_966935" data-name="Grupo 966935">
          <path id="Trazado_641425" data-name="Trazado 641425" d="M240.136,183a1.736,1.736,0,1,0,1.736,1.736A1.736,1.736,0,0,0,240.136,183Z" transform="translate(-238.4 -183)" fill="#f5c84c"/>
        </g>
      </g>
      <g id="Grupo_966938" data-name="Grupo 966938" transform="translate(84.471 123.194)">
        <g id="Grupo_966937" data-name="Grupo 966937">
          <path id="Trazado_641426" data-name="Trazado 641426" d="M167.136,245.211a1.736,1.736,0,1,0,1.736,1.736A1.736,1.736,0,0,0,167.136,245.211Z" transform="translate(-165.4 -245.211)" fill="#70d6f9"/>
        </g>
      </g>
    </g>
  </g>
</svg>
