<svg xmlns="http://www.w3.org/2000/svg" width="107.583" height="117" viewBox="0 0 107.583 117">
  <g id="simbolo-iso" transform="translate(-13.155 -1.469)">
    <g id="Grupo_966962" data-name="Grupo 966962" transform="translate(16.331 2.625)">
      <g id="Grupo_966948" data-name="Grupo 966948" transform="translate(6.027)">
        <path id="Trazado_641429" data-name="Trazado 641429" d="M118.815,54.545a6.947,6.947,0,0,0-2.524,9.409,6.948,6.948,0,0,1-5.987,10.37,6.741,6.741,0,0,0-1.873.277,6.934,6.934,0,0,0-5.016,6.612A6.947,6.947,0,0,1,93.044,87.2a6.947,6.947,0,0,0-7.911.744,6.846,6.846,0,0,0-1.5,1.78,6.95,6.95,0,0,1-11.975,0A6.931,6.931,0,0,0,62.252,87.2a6.948,6.948,0,0,1-10.37-5.987A6.934,6.934,0,0,0,46.865,74.6a6.741,6.741,0,0,0-1.872-.277,6.947,6.947,0,0,1-5.987-10.37,6.947,6.947,0,0,0-2.524-9.409,6.949,6.949,0,0,1,0-11.975,6.947,6.947,0,0,0,2.524-9.409,6.948,6.948,0,0,1,5.987-10.37A6.947,6.947,0,0,0,51.882,15.9a6.947,6.947,0,0,1,10.37-5.987A6.947,6.947,0,0,0,71.661,7.39a6.949,6.949,0,0,1,11.975,0,6.946,6.946,0,0,0,9.409,2.524,6.947,6.947,0,0,1,10.37,5.987,6.947,6.947,0,0,0,6.889,6.889,6.947,6.947,0,0,1,5.987,10.37,6.947,6.947,0,0,0,2.524,9.409,6.95,6.95,0,0,1,0,11.975Z" transform="translate(-33.06 -3.969)" fill="#efbf27"/>
      </g>
      <g id="Grupo_966949" data-name="Grupo 966949" transform="translate(51.459 10.813)">
        <path id="Trazado_641430" data-name="Trazado 641430" d="M131.9,100.957a1.156,1.156,0,0,1-.411-1.582,13.024,13.024,0,0,1,.847-1.265,1.156,1.156,0,1,1,1.842,1.4,10.613,10.613,0,0,0-.7,1.039A1.156,1.156,0,0,1,131.9,100.957Zm15.7-4.195a10.42,10.42,0,0,0-10.316.022,1.156,1.156,0,0,1-1.147-2.007,12.733,12.733,0,0,1,12.6-.026,1.159,1.159,0,0,0,1.735-1.006,12.769,12.769,0,0,1,12.622-12.626,1.166,1.166,0,0,0,1.006-1.741,12.788,12.788,0,0,1,4.625-17.243,1.169,1.169,0,0,0,0-2.009A12.787,12.787,0,0,1,164.1,42.878a1.165,1.165,0,0,0-1.016-1.735,12.787,12.787,0,0,1-12.615-12.623,1.156,1.156,0,1,1,2.312-.018A10.463,10.463,0,0,0,163.1,38.831a3.471,3.471,0,0,1,3.008,5.187,10.472,10.472,0,0,0,3.78,14.113,3.481,3.481,0,0,1,0,6,10.474,10.474,0,0,0-3.786,14.108,3.473,3.473,0,0,1-3,5.194,10.447,10.447,0,0,0-10.328,10.332,3.47,3.47,0,0,1-5.188,3Z" transform="translate(-131.324 -27.356)" fill="#f7e4b0"/>
      </g>
      <g id="Grupo_966950" data-name="Grupo 966950" transform="translate(19.059 14.236)">
        <path id="Trazado_641431" data-name="Trazado 641431" d="M120.784,65.112l3.446-11.867a3.238,3.238,0,0,0-3.108-4.139h-1.853a31.586,31.586,0,0,0-52.932,0H64.484a3.238,3.238,0,0,0-3.108,4.139l3.446,11.86-3.446,11.86A3.238,3.238,0,0,0,64.484,81.1h1.832a31.588,31.588,0,0,0,52.973,0h1.832a3.238,3.238,0,0,0,3.108-4.14Z" transform="translate(-61.246 -34.76)" fill="#ce9320"/>
      </g>
      <g id="Grupo_966951" data-name="Grupo 966951" transform="translate(25.963 17.473)">
        <path id="Trazado_641432" data-name="Trazado 641432" d="M125.484,56.107H76.18a28.372,28.372,0,0,1,49.3,0Z" transform="translate(-76.18 -41.76)" fill="#71c1e8"/>
      </g>
      <g id="Grupo_966952" data-name="Grupo 966952" transform="translate(25.963 28.583)">
        <path id="Trazado_641433" data-name="Trazado 641433" d="M125.484,69.026H76.18a28.065,28.065,0,0,1,2.15-3.236h45A28.067,28.067,0,0,1,125.484,69.026Z" transform="translate(-76.18 -65.79)" fill="#4ba4c7"/>
      </g>
      <g id="Grupo_966953" data-name="Grupo 966953" transform="translate(25.949 57.359)">
        <path id="Trazado_641434" data-name="Trazado 641434" d="M125.482,128.03a28.377,28.377,0,0,1-49.332,0Z" transform="translate(-76.15 -128.03)" fill="#71c1e8"/>
      </g>
      <g id="Grupo_966954" data-name="Grupo 966954" transform="translate(25.949 57.359)">
        <path id="Trazado_641435" data-name="Trazado 641435" d="M125.482,128.03a28.4,28.4,0,0,1-2.136,3.223H78.286a28.4,28.4,0,0,1-2.136-3.223Z" transform="translate(-76.15 -128.03)" fill="#4ba4c7"/>
      </g>
      <g id="Grupo_966955" data-name="Grupo 966955" transform="translate(22.297 31.819)">
        <path id="Trazado_641436" data-name="Trazado 641436" d="M124.887,72.789l-3.708,12.77,3.708,12.756H68.25l3.708-12.763L68.25,72.789Z" transform="translate(-68.25 -72.789)" fill="#eee"/>
      </g>
      <g id="Grupo_966956" data-name="Grupo 966956" transform="translate(58.101 70.632)">
        <path id="Trazado_641437" data-name="Trazado 641437" d="M185.849,188.178l-10.68-2.441a2.425,2.425,0,0,0-2.945,2.062l-1.364,10.874a2.421,2.421,0,0,1-4.388,1.087l-18.914-27.005-1.868-2.672a6.949,6.949,0,0,1,7.911-.744,6.947,6.947,0,0,0,10.37-5.987,6.934,6.934,0,0,1,5.016-6.612l2.067,2.954,17.319,24.731A2.424,2.424,0,0,1,185.849,188.178Z" transform="translate(-145.69 -156.739)" fill="#fb5c3c"/>
      </g>
      <g id="Grupo_966957" data-name="Grupo 966957" transform="translate(81.254 78.985)">
        <path id="Trazado_641438" data-name="Trazado 641438" d="M207.288,192.775l-7.863-11.227a1.156,1.156,0,0,1,1.893-1.326l7.863,11.227a1.156,1.156,0,1,1-1.893,1.326ZM196.773,177.76l-.8-1.136a1.156,1.156,0,1,1,1.893-1.326l.8,1.136a1.156,1.156,0,1,1-1.893,1.326Z" transform="translate(-195.768 -174.805)" fill="#ffcac2"/>
      </g>
      <g id="Grupo_966958" data-name="Grupo 966958" transform="translate(58.101 70.632)">
        <path id="Trazado_641439" data-name="Trazado 641439" d="M171.054,159.693c-2.607.223-3.831,1.872-3.847,3.68A10.2,10.2,0,0,1,152,172.149a3.719,3.719,0,0,0-4.443.606l-1.868-2.672a6.949,6.949,0,0,1,7.911-.744,6.947,6.947,0,0,0,10.37-5.987,6.935,6.935,0,0,1,5.016-6.612Z" transform="translate(-145.69 -156.739)" fill="#b14e34"/>
      </g>
      <g id="Grupo_966959" data-name="Grupo 966959" transform="translate(0 70.632)">
        <path id="Trazado_641440" data-name="Trazado 641440" d="M63.154,170.078l-1.868,2.672L42.372,199.755a2.421,2.421,0,0,1-4.388-1.087L36.62,187.8a2.422,2.422,0,0,0-2.945-2.062L23,188.174a2.424,2.424,0,0,1-2.524-3.754l17.315-24.726,2.071-2.954a6.936,6.936,0,0,1,5.016,6.612,6.948,6.948,0,0,0,10.37,5.987,6.962,6.962,0,0,1,7.911.74Z" transform="translate(-20.024 -156.739)" fill="#0bbe6e"/>
      </g>
      <g id="Grupo_966960" data-name="Grupo 966960" transform="translate(20.68 88.834)">
        <path id="Trazado_641441" data-name="Trazado 641441" d="M65.247,214.539a1.156,1.156,0,0,1-.284-1.61l7.989-11.407a1.156,1.156,0,0,1,1.894,1.326l-7.989,11.407A1.157,1.157,0,0,1,65.247,214.539Zm10.641-15.194a1.156,1.156,0,0,1-.283-1.61l.8-1.136a1.156,1.156,0,1,1,1.893,1.326l-.8,1.136A1.156,1.156,0,0,1,75.888,199.345Z" transform="translate(-64.754 -196.107)" fill="#73febb"/>
      </g>
      <g id="Grupo_966961" data-name="Grupo 966961" transform="translate(17.761 70.632)">
        <path id="Trazado_641442" data-name="Trazado 641442" d="M83.809,170.078l-1.868,2.672a3.723,3.723,0,0,0-4.448-.6,10.2,10.2,0,0,1-15.2-8.775c-.015-1.8-1.209-3.476-3.851-3.685l2.071-2.954a6.936,6.936,0,0,1,5.016,6.612,6.948,6.948,0,0,0,10.37,5.987A6.962,6.962,0,0,1,83.809,170.078Z" transform="translate(-58.44 -156.739)" fill="#0e9b6d"/>
      </g>
    </g>
    <g id="Grupo_966969" data-name="Grupo 966969" transform="translate(13.155 67.419)">
      <g id="Grupo_966965" data-name="Grupo 966965" transform="translate(0)">
        <g id="Grupo_966963" data-name="Grupo 966963">
          <path id="Trazado_641443" data-name="Trazado 641443" d="M18.024,157.078c-.543-2.343-.9-3.891-4.078-4.941a1.157,1.157,0,0,1,0-2.2c1.843-.609,3.175-1.049,4.078-4.941a1.157,1.157,0,0,1,2.252,0c.925,3.984,2.312,4.358,4.078,4.941a1.157,1.157,0,0,1,0,2.195c-1.844.609-3.176,1.05-4.078,4.941a1.156,1.156,0,0,1-2.252,0Z" transform="translate(-13.155 -144.111)"/>
        </g>
        <g id="Grupo_966964" data-name="Grupo 966964" transform="translate(3.911 4.6)">
          <path id="Trazado_641444" data-name="Trazado 641444" d="M25.723,156.4a6.133,6.133,0,0,0-2,2.261,6.418,6.418,0,0,0-2.113-2.242,6.145,6.145,0,0,0,2.09-2.358,6.269,6.269,0,0,0,2.02,2.339Z" transform="translate(-21.613 -154.061)" fill="#f0c020"/>
        </g>
      </g>
      <g id="Grupo_966968" data-name="Grupo 966968" transform="translate(95.592)">
        <g id="Grupo_966966" data-name="Grupo 966966">
          <path id="Trazado_641445" data-name="Trazado 641445" d="M224.779,157.078c-.543-2.343-.9-3.891-4.078-4.941a1.157,1.157,0,0,1,0-2.2c1.843-.609,3.175-1.049,4.078-4.941a1.157,1.157,0,0,1,2.252,0c.925,3.984,2.312,4.358,4.078,4.941a1.157,1.157,0,0,1,0,2.195c-1.844.609-3.176,1.05-4.078,4.941a1.156,1.156,0,0,1-2.252,0Z" transform="translate(-219.91 -144.111)"/>
        </g>
        <g id="Grupo_966967" data-name="Grupo 966967" transform="translate(3.91 4.6)">
          <path id="Trazado_641446" data-name="Trazado 641446" d="M232.477,156.4a6.133,6.133,0,0,0-2,2.261,6.418,6.418,0,0,0-2.113-2.242,6.145,6.145,0,0,0,2.09-2.358,6.269,6.269,0,0,0,2.02,2.339Z" transform="translate(-228.367 -154.061)" fill="#f0c020"/>
        </g>
      </g>
    </g>
    <g id="Grupo_966970" data-name="Grupo 966970" transform="translate(62.98 39.513)">
      <path id="Trazado_641447" data-name="Trazado 641447" d="M124.887,83.755a3.971,3.971,0,0,0-3.966,3.966v.923a3.971,3.971,0,0,0,3.966,3.966,1.656,1.656,0,0,1,1.655,1.654v.923a1.655,1.655,0,1,1-3.309,0v-.432a1.156,1.156,0,0,0-2.312,0v.432a3.966,3.966,0,1,0,7.933,0v-.923a3.971,3.971,0,0,0-3.966-3.966,1.657,1.657,0,0,1-1.655-1.655v-.923a1.655,1.655,0,1,1,3.309,0v.3a1.156,1.156,0,0,0,2.312,0v-.3A3.971,3.971,0,0,0,124.887,83.755Z" transform="translate(-120.921 -83.755)"/>
    </g>
    <g id="Grupo_966971" data-name="Grupo 966971" transform="translate(74.504 39.513)">
      <path id="Trazado_641448" data-name="Trazado 641448" d="M150.318,83.755a4.477,4.477,0,0,0-4.472,4.472v6.456a4.472,4.472,0,1,0,8.944,0V88.227A4.477,4.477,0,0,0,150.318,83.755Zm2.16,10.928a2.16,2.16,0,0,1-4.32,0V88.227a2.16,2.16,0,0,1,4.32,0Z" transform="translate(-145.846 -83.755)"/>
    </g>
    <g id="Grupo_966972" data-name="Grupo 966972" transform="translate(50.446 39.513)">
      <path id="Trazado_641449" data-name="Trazado 641449" d="M100.588,86.067a1.156,1.156,0,0,0,0-2.312H94.967a1.156,1.156,0,1,0,0,2.312h1.655V96.843H94.967a1.156,1.156,0,1,0,0,2.312h5.621a1.156,1.156,0,0,0,0-2.312H98.933V86.067Z" transform="translate(-93.811 -83.755)"/>
    </g>
    <g id="Grupo_966973" data-name="Grupo 966973" transform="translate(27.886 56.546)">
      <path id="Trazado_641450" data-name="Trazado 641450" d="M46.424,122.881A1.162,1.162,0,0,0,47.3,121.5a1.177,1.177,0,0,0-1.378-.883,1.158,1.158,0,0,0,.5,2.261Z" transform="translate(-45.017 -120.595)"/>
    </g>
    <g id="Grupo_966974" data-name="Grupo 966974" transform="translate(65.911 33.288)">
      <circle id="Elipse_8005" data-name="Elipse 8005" cx="1.156" cy="1.156" r="1.156"/>
    </g>
    <g id="Grupo_966975" data-name="Grupo 966975" transform="translate(37.471 18.942)">
      <path id="Trazado_641451" data-name="Trazado 641451" d="M66.9,81.445H69.89a29.5,29.5,0,0,0,50.666,0h2.985a1.156,1.156,0,0,0,1.109-1.479l-3.615-12.437,3.615-12.441a1.155,1.155,0,0,0-1.109-1.479h-3.008a29.5,29.5,0,0,0-50.621,0H66.9a1.156,1.156,0,0,0-1.11,1.479l3.616,12.437L65.8,79.965A1.157,1.157,0,0,0,66.9,81.445Zm5.721,0h8.591a35.014,35.014,0,0,0,1.989,4.891h-6.4a27.552,27.552,0,0,1-4.184-4.891Zm22.6,12.063c-3.243,0-5.953-2.243-7.895-4.86h15.789c-1.945,2.621-4.658,4.86-7.895,4.86Zm-9.386-7.171a30.287,30.287,0,0,1-2.181-4.891H106.79a30.285,30.285,0,0,1-2.18,4.891ZM79.7,88.648h4.813a19.977,19.977,0,0,0,3.023,3.765A26.837,26.837,0,0,1,79.7,88.648Zm26.24,0h4.812a26.826,26.826,0,0,1-7.835,3.765A19.931,19.931,0,0,0,105.937,88.648Zm7.7-2.312h-6.4a35.014,35.014,0,0,0,1.989-4.891h8.591a27.546,27.546,0,0,1-4.184,4.891Zm4.16-32.729h-8.576a34.974,34.974,0,0,0-1.979-4.86h6.393A27.659,27.659,0,0,1,117.8,53.607Zm-7.046-7.171h-4.812a19.962,19.962,0,0,0-3.025-3.768A26.822,26.822,0,0,1,110.751,46.436ZM95.223,41.572c3.254,0,5.966,2.259,7.9,4.864H87.326C89.266,43.819,91.98,41.572,95.223,41.572ZM84.507,46.436H79.695a26.82,26.82,0,0,1,7.838-3.769A19.953,19.953,0,0,0,84.507,46.436Zm-7.7,2.312H83.2a35.008,35.008,0,0,0-1.979,4.86H72.649A27.636,27.636,0,0,1,76.811,48.747Zm-5.089,19.1a1.168,1.168,0,0,0,0-.643L68.444,55.919H90.72a1.156,1.156,0,1,0,0-2.312H83.666a30.284,30.284,0,0,1,2.169-4.86h18.777a30.225,30.225,0,0,1,2.169,4.86H99.967a1.156,1.156,0,1,0,0,2.312H122l-3.278,11.29a1.094,1.094,0,0,0,0,.647L122,79.133H68.444Z" transform="translate(-65.748 -39.261)"/>
    </g>
    <g id="Grupo_966976" data-name="Grupo 966976" transform="translate(87.304 105.49)">
      <path id="Trazado_641452" data-name="Trazado 641452" d="M174.025,226.651a1.155,1.155,0,1,0,1.609.287A1.188,1.188,0,0,0,174.025,226.651Z" transform="translate(-173.531 -226.455)"/>
    </g>
    <g id="Grupo_966977" data-name="Grupo 966977" transform="translate(15.172 1.469)">
      <path id="Trazado_641453" data-name="Trazado 641453" d="M102.094,74.128a8.1,8.1,0,0,0,6.843-12.091,5.783,5.783,0,0,1,2.108-7.841,8.108,8.108,0,0,0,0-13.967,5.781,5.781,0,0,1-2.108-7.841,8.1,8.1,0,0,0-6.982-12.095,5.821,5.821,0,0,1-5.742-5.742,8.1,8.1,0,0,0-12.1-6.981,5.8,5.8,0,0,1-7.841-2.109,8.1,8.1,0,0,0-13.963,0,5.786,5.786,0,0,1-7.846,2.1,8.105,8.105,0,0,0-12.095,6.986,5.821,5.821,0,0,1-5.742,5.742,8.1,8.1,0,0,0-6.981,12.1,5.781,5.781,0,0,1-2.108,7.837,8.107,8.107,0,0,0,0,13.967,5.823,5.823,0,0,1,.754.527,1.193,1.193,0,0,0,1.627-.157,1.152,1.152,0,0,0-.162-1.627,7.991,7.991,0,0,0-1.045-.735,5.786,5.786,0,0,1,0-9.982,8.107,8.107,0,0,0,2.945-10.971A5.8,5.8,0,0,1,36.645,22.6a8.1,8.1,0,0,0,8.036-8.036,5.8,5.8,0,0,1,8.641-4.993A8.118,8.118,0,0,0,64.3,6.633a5.784,5.784,0,0,1,9.982,0A8.106,8.106,0,0,0,85.256,9.579,5.8,5.8,0,0,1,93.9,14.567a8.1,8.1,0,0,0,8.031,8.036,5.8,5.8,0,0,1,5,8.641,8.105,8.105,0,0,0,2.94,10.976,5.786,5.786,0,0,1,0,9.982,8.111,8.111,0,0,0-2.94,10.976,5.8,5.8,0,0,1-4.994,8.646A8.11,8.11,0,0,0,93.9,79.859a5.8,5.8,0,0,1-8.645,4.989A8.109,8.109,0,0,0,74.28,87.793a5.788,5.788,0,0,1-9.982,0,8.1,8.1,0,0,0-10.971-2.945,5.8,5.8,0,0,1-8.646-4.989,8.1,8.1,0,0,0-8.036-8.036,5.817,5.817,0,0,1-5.752-5.807,6.462,6.462,0,0,1,1-3.306A1.156,1.156,0,1,0,29.816,61.7a8.538,8.538,0,0,0-1.234,4.314,8.1,8.1,0,0,0,7.906,8.11L18.175,100.274a3.581,3.581,0,0,0,3.729,5.544l10.68-2.437a1.264,1.264,0,0,1,1.541,1.079l1.364,10.868a3.578,3.578,0,0,0,6.482,1.608c20.45-29.2,18.466-26.364,19.97-28.514a6.019,6.019,0,0,1,.365.541,8.1,8.1,0,0,0,13.967,0,6.193,6.193,0,0,1,.369-.545l10.565,15.086a1.154,1.154,0,1,0,1.891-1.322L78.382,86.878a5.8,5.8,0,0,1,5.736-.019,8.1,8.1,0,0,0,12.095-6.982,5.811,5.811,0,0,1,3.424-5.23L118.512,101.6a1.271,1.271,0,0,1-1.327,1.965l-10.671-2.441a3.578,3.578,0,0,0-4.351,3.047L100.8,115.048a1.265,1.265,0,0,1-2.293.568l-4.1-5.858a1.187,1.187,0,0,0-1.613-.282,1.151,1.151,0,0,0-.282,1.608l4.1,5.853a3.579,3.579,0,0,0,6.482-1.6l1.364-10.875a1.26,1.26,0,0,1,1.54-1.077l10.681,2.437a3.58,3.58,0,0,0,3.731-5.539ZM40.077,115.611a1.265,1.265,0,0,1-2.294-.568l-1.364-10.867a3.58,3.58,0,0,0-4.349-3.048L21.39,103.565a1.268,1.268,0,0,1-1.32-1.964L38.946,74.648a5.81,5.81,0,0,1,3.423,5.23,8.105,8.105,0,0,0,12.1,6.982,5.791,5.791,0,0,1,5.729.017Z" transform="translate(-17.517 -1.469)"/>
    </g>
  </g>
</svg>
