<svg xmlns="http://www.w3.org/2000/svg" width="148" height="148" viewBox="0 0 148 148">
  <g id="Grupo_969351" data-name="Grupo 969351" transform="translate(-1081 -9221)">
    <circle id="Elipse_7767" data-name="Elipse 7767" cx="74" cy="74" r="74" transform="translate(1081 9221)" fill="#583cb6"/>
    <g id="Layer_14" data-name="Layer 14" transform="translate(1111 9252.049)">
      <path id="Trazado_641890" data-name="Trazado 641890" d="M85.226,20.307,43.613,45.275,2,28.63,46.387,5.049Z" transform="translate(0.387 0.425)" fill="#e5a961"/>
      <path id="Trazado_641891" data-name="Trazado 641891" d="M43.613,38.694V70.6L2,52.565V22.049l18.032,7.213,6.935,2.774Z" transform="translate(0.387 7.006)" fill="#d6914c"/>
      <path id="Trazado_641892" data-name="Trazado 641892" d="M73.613,16.049V46.565L32,72.92v-31.9Z" transform="translate(12 4.683)" fill="#f8c985"/>
      <path id="Trazado_641893" data-name="Trazado 641893" d="M62.633,11.845l-40.7,25.2h-.014L15,34.275,55.656,9.1l3.579,1.4,2.927,1.151Z" transform="translate(5.419 1.993)" fill="#f4ddb4"/>
      <path id="Trazado_641894" data-name="Trazado 641894" d="M21.935,30.023v9.432L15,36.681V27.249Z" transform="translate(5.419 9.019)" fill="#e0c292"/>
      <circle id="Elipse_8742" data-name="Elipse 8742" cx="16.645" cy="16.645" r="16.645" transform="translate(49.548 47.087)" fill="#f1f2f2"/>
      <path id="Trazado_641895" data-name="Trazado 641895" d="M69.29,47.049a16.645,16.645,0,1,1-33.29,0Z" transform="translate(13.548 16.683)" fill="#dbdcdd"/>
      <g id="Grupo_968185" data-name="Grupo 968185" transform="translate(1 3.951)">
        <path id="Trazado_641896" data-name="Trazado 641896" d="M51.276,49.823,49.32,51.779l-4.73-4.73H48.5Z" transform="translate(15.874 12.732)" fill="#231f20"/>
        <path id="Trazado_641897" data-name="Trazado 641897" d="M59.645,49.823a8.323,8.323,0,0,1-8.323,8.323H43V55.372h8.323a5.54,5.54,0,0,0,4.8-8.323H59.16a8.045,8.045,0,0,1,.485,2.774Z" transform="translate(15.258 12.732)" fill="#231f20"/>
        <path id="Trazado_641898" data-name="Trazado 641898" d="M50.483,55.429l-8.9-8.9,8.9-8.9L52.444,39.6l-6.935,6.935,6.935,6.935Z" transform="translate(14.711 9.088)" fill="#231f20"/>
        <path id="Trazado_641899" data-name="Trazado 641899" d="M10.935,43.023v2.5L4,42.746v-2.5Z" transform="translate(0.161 10.1)" fill="#231f20"/>
        <path id="Trazado_641900" data-name="Trazado 641900" d="M10.935,39.923v2.5L4,39.646v-2.5Z" transform="translate(0.161 8.9)" fill="#231f20"/>
        <path id="Trazado_641901" data-name="Trazado 641901" d="M44.122,79.168,1,60.482V28.221L46.688,3.951,87,19.787V52.013L79.745,56.6l-1.484-2.346,5.965-3.773V21.678L46.862,7,3.774,29.89V58.661l40.1,17.378,8.6-5.439,1.484,2.344Z" transform="translate(-1 -3.951)" fill="#231f20"/>
        <path id="Trazado_641902" data-name="Trazado 641902" d="M44,72.372a1.4,1.4,0,0,1-.555-.114L1.832,54.226A1.387,1.387,0,0,1,1,52.953V22.436a1.387,1.387,0,0,1,1.9-1.289L44.516,37.793a1.387,1.387,0,0,1,.871,1.289v31.9A1.387,1.387,0,0,1,44,72.372ZM3.774,52.043l38.839,16.83V40.021L3.774,24.485Z" transform="translate(-1 2.667)" fill="#231f20"/>
        <path id="Trazado_641903" data-name="Trazado 641903" d="M32.387,74.694A1.387,1.387,0,0,1,31,73.307V41.4a1.387,1.387,0,0,1,.673-1.189L73.286,15.247a1.387,1.387,0,0,1,2.1,1.189V46.952a1.387,1.387,0,0,1-.645,1.172l-6.609,4.183-1.484-2.346,5.965-3.772v-27.3L33.774,42.19v28.6L40.862,66.3l1.483,2.344-9.217,5.826A1.387,1.387,0,0,1,32.387,74.694Z" transform="translate(10.613 0.345)" fill="#231f20"/>
        <path id="Trazado_641904" data-name="Trazado 641904" d="M53.032,70.114A18.032,18.032,0,1,1,71.065,52.081,18.032,18.032,0,0,1,53.032,70.114Zm0-33.29A15.258,15.258,0,1,0,68.29,52.081,15.258,15.258,0,0,0,53.032,36.823Z" transform="translate(12.161 7.7)" fill="#231f20"/>
        <path id="Trazado_641905" data-name="Trazado 641905" d="M51.323,59.694H43V56.92h8.323a5.548,5.548,0,0,0,0-11.1H43V43.049h8.323a8.323,8.323,0,0,1,0,16.645Z" transform="translate(15.258 11.184)" fill="#231f20"/>
      </g>
    </g>
  </g>
</svg>
