<svg xmlns="http://www.w3.org/2000/svg" width="148" height="148" viewBox="0 0 148 148">
  <g id="Grupo_969352" data-name="Grupo 969352" transform="translate(3857 2479)">
    <circle id="Elipse_8721" data-name="Elipse 8721" cx="74" cy="74" r="74" transform="translate(-3857 -2479)" fill="#583cb6"/>
    <g id="compartimiento" transform="translate(-3815.776 -2446.667)">
      <path id="Trazado_641846" data-name="Trazado 641846" d="M45.98,125.351l-6.906-48.73H90.739l-9.357,64.337H56.722" transform="translate(-32.322 -64.203)" fill="#7d8287"/>
      <path id="Trazado_641847" data-name="Trazado 641847" d="M51.83,386.032a10.221,10.221,0,1,1-10.219-10.219A10.219,10.219,0,0,1,51.83,386.032Zm0,0" transform="translate(-25.884 -314.905)" fill="#f6b93b"/>
      <path id="Trazado_641848" data-name="Trazado 641848" d="M71.193,20.859H10.575V14.686a4.611,4.611,0,0,1,4.611-4.611H66.581a4.611,4.611,0,0,1,4.611,4.611v6.174Zm0,0" transform="translate(-8.442 -8.441)" fill="#fff5f5"/>
      <g id="Grupo_968178" data-name="Grupo 968178" transform="translate(17.696 24.393)">
        <path id="Trazado_641849" data-name="Trazado 641849" d="M119.425,159.67l-5.29-9.163a15.072,15.072,0,0,0-7.537,13.06h10.577a4.5,4.5,0,0,1,2.251-3.9Zm0,0" transform="translate(-106.598 -150.508)" fill="#f6b93b"/>
        <path id="Trazado_641850" data-name="Trazado 641850" d="M218.8,150.508l-5.289,9.163a4.5,4.5,0,0,1,2.251,3.9h10.577a15.072,15.072,0,0,0-7.538-13.06Zm0,0" transform="translate(-196.187 -150.508)" fill="#f6b93b"/>
        <path id="Trazado_641851" data-name="Trazado 641851" d="M160.646,255.74a4.479,4.479,0,0,1-2.25-.6l-5.29,9.162a15.094,15.094,0,0,0,15.08,0l-5.289-9.162A4.481,4.481,0,0,1,160.646,255.74Zm0,0" transform="translate(-145.568 -238.179)" fill="#f6b93b"/>
        <path id="Trazado_641852" data-name="Trazado 641852" d="M178.611,203.92a4.5,4.5,0,1,0,2.251,3.9A4.476,4.476,0,0,0,178.611,203.92Zm0,0" transform="translate(-161.283 -194.758)" fill="#f6b93b"/>
      </g>
      <path id="Trazado_641853" data-name="Trazado 641853" d="M75.029,414.793a4.657,4.657,0,1,1-4.657-4.656A4.657,4.657,0,0,1,75.029,414.793Zm0,0" transform="translate(-54.645 -343.666)" fill="#fff"/>
      <path id="Trazado_641854" data-name="Trazado 641854" d="M58.14,0H6.745A6.251,6.251,0,0,0,.5,6.244v6.174a1.633,1.633,0,0,0,1.633,1.633H5.192L11.7,59.98c-.258.093-.514.192-.766.3a1.633,1.633,0,1,0,1.321,2.986,8.588,8.588,0,1,1,3.471,16.444,8.64,8.64,0,0,1-8.486-7.265,1.633,1.633,0,0,0-3.227.5,11.846,11.846,0,0,0,21.071,5.441H48.918a1.632,1.632,0,0,0,1.616-1.4l5.748-39.484a1.633,1.633,0,1,0-3.231-.47L47.505,75.122H26.885A11.85,11.85,0,0,0,15.727,59.275c-.276,0-.55.013-.824.031L8.49,14.051H56.353l-1.659,10.14a1.633,1.633,0,0,0,3.223.527l1.745-10.667h3.089a1.633,1.633,0,0,0,1.633-1.633V6.244A6.251,6.251,0,0,0,58.14,0Zm2.979,10.785H3.766V6.244A2.982,2.982,0,0,1,6.745,3.265H13.28V6.107a1.633,1.633,0,0,0,3.265,0V3.265H49.26V6.107a1.633,1.633,0,0,0,3.266,0V3.265h5.614a2.982,2.982,0,0,1,2.979,2.979Zm0,0"/>
      <path id="Trazado_641855" data-name="Trazado 641855" d="M61.93,412.641a6.289,6.289,0,1,0-6.29-6.29A6.3,6.3,0,0,0,61.93,412.641Zm0-9.313a3.024,3.024,0,1,1-3.024,3.024A3.027,3.027,0,0,1,61.93,403.328Zm0,0" transform="translate(-46.203 -335.225)"/>
      <path id="Trazado_641856" data-name="Trazado 641856" d="M128.308,156.76a1.633,1.633,0,0,0,1.633-1.633,16.773,16.773,0,0,0-8.353-14.473,1.634,1.634,0,0,0-2.232.6l-4.584,7.941a6.074,6.074,0,0,0-3.082,0l-4.585-7.941a1.633,1.633,0,0,0-2.232-.6,16.772,16.772,0,0,0-8.354,14.473,1.633,1.633,0,0,0,1.633,1.633h9.168a6.178,6.178,0,0,0,1.541,2.668l-4.585,7.943a1.631,1.631,0,0,0,.6,2.229,16.725,16.725,0,0,0,16.715,0,1.633,1.633,0,0,0,.6-2.229l-4.586-7.943a6.174,6.174,0,0,0,1.541-2.668Zm-6.991-12.374a13.517,13.517,0,0,1,5.258,9.108h-7.434c-.019-.066-.041-.131-.062-.2s-.032-.108-.05-.161c-.026-.073-.055-.146-.083-.218-.02-.05-.037-.1-.058-.149-.033-.078-.07-.154-.105-.232-.02-.042-.037-.085-.058-.126-.05-.1-.1-.2-.159-.3-.009-.016-.017-.034-.027-.05-.065-.113-.135-.225-.207-.334-.023-.035-.049-.068-.073-.1-.051-.073-.1-.146-.155-.217-.032-.042-.066-.081-.1-.122-.049-.061-.1-.123-.149-.184-.037-.043-.077-.084-.116-.126s-.092-.1-.14-.152Zm-6.654,8.257a2.867,2.867,0,1,1-2.865,4.968h0a2.861,2.861,0,0,1-1.335-3.23,2.757,2.757,0,0,1,.121-.353c.024-.058.049-.114.077-.17a2.863,2.863,0,0,1,4-1.216Zm-9.519-8.257,3.718,6.439c-.049.049-.094.1-.14.152s-.079.083-.116.126c-.052.06-.1.122-.149.184-.033.041-.068.08-.1.122-.054.071-.1.144-.155.217-.024.035-.05.068-.073.1q-.108.163-.207.334c-.009.016-.017.034-.027.05-.055.1-.109.2-.159.3-.02.041-.038.084-.058.126-.036.077-.073.153-.106.232-.02.049-.038.1-.057.149-.028.072-.058.145-.083.218-.018.053-.034.108-.051.161s-.043.131-.061.2H99.886a13.515,13.515,0,0,1,5.258-9.108Zm8.086,24.186a13.475,13.475,0,0,1-5.26-1.069l3.718-6.44c.055.014.111.025.167.037s.134.032.2.046l.114.018a5.927,5.927,0,0,0,2.117,0c.039-.007.079-.012.118-.02.066-.013.13-.028.2-.044s.115-.024.172-.039l3.718,6.44a13.478,13.478,0,0,1-5.26,1.069Zm0,0" transform="translate(-80.457 -117.674)"/>
      <path id="Trazado_641857" data-name="Trazado 641857" d="M33.016,403.867a1.624,1.624,0,0,0,.888-.263l.039-.025a1.633,1.633,0,0,0-1.778-2.739l-.039.025a1.633,1.633,0,0,0,.891,3Zm0,0" transform="translate(-25.876 -335.655)"/>
      <path id="Trazado_641858" data-name="Trazado 641858" d="M329.636,180.869l-.039.025a1.633,1.633,0,1,0,1.778,2.739l.039-.025a1.633,1.633,0,1,0-1.778-2.739Zm0,0" transform="translate(-275.137 -151.335)"/>
    </g>
  </g>
</svg>
