<svg xmlns="http://www.w3.org/2000/svg" width="148" height="148" viewBox="0 0 148 148">
  <g id="Grupo_969353" data-name="Grupo 969353" transform="translate(3506 2479)">
    <circle id="Elipse_8720" data-name="Elipse 8720" cx="74" cy="74" r="74" transform="translate(-3506 -2479)" fill="#583cb6"/>
    <g id="incineracion" transform="translate(-3473.002 -2446)">
      <path id="Trazado_641859" data-name="Trazado 641859" d="M37.867,6.725a15.384,15.384,0,0,1-5.5,9.487V17.6H18.533V16.213a15.384,15.384,0,0,1-5.5-9.487c-.014-.152-.028-.3-.028-.47a3.823,3.823,0,0,1,3.6-3.941A6.351,6.351,0,0,1,19.8,3.13a8.54,8.54,0,0,1,11.285,0A6.351,6.351,0,0,1,34.3,2.314a3.86,3.86,0,0,1,3.568,4.412Z" transform="translate(4.977 0.383)" fill="#dee4f0"/>
      <path id="Trazado_641860" data-name="Trazado 641860" d="M53.87,30.683,45.917,71.7H4.539a3.531,3.531,0,0,1-3.084-5.255l2.462-4.785a11.3,11.3,0,0,0,1.231-5.117V38.511c0-19.362,16.6-22.128,16.6-22.128V15h16.6v1.383a20.745,20.745,0,0,1,15.531,14.3Z" transform="translate(0.384 5.745)" fill="#dee4f0"/>
      <path id="Trazado_641861" data-name="Trazado 641861" d="M47.127,20.128A34.038,34.038,0,0,1,62.4,43.121s1.737-.864,2.9-4.892a.83.83,0,0,1,1.485-.216,27.637,27.637,0,0,1,4.461,14.774c0,11.679-9.906,21.147-22.128,21.147S27,64.468,27,52.788a29.565,29.565,0,0,1,1.263-8.6.911.911,0,0,1,1.719-.071,7,7,0,0,0,3.657,4.219,15.052,15.052,0,0,1,4.426-12.242c5.174-5.206,7.445-8.462,7.717-15.238a.889.889,0,0,1,1.346-.729Z" transform="translate(10.34 7.66)" fill="#e53557"/>
      <path id="Trazado_641862" data-name="Trazado 641862" d="M45.389,35.081a19.725,19.725,0,0,1,9.4,16.29.575.575,0,0,0,.993.357,6.627,6.627,0,0,0,1.521-2.957.56.56,0,0,1,1-.177,11.663,11.663,0,0,1,1.971,6.576A13.35,13.35,0,0,1,46.613,68.182C40.306,68.182,34,63.962,34,56.776c0-6.689,3.423-9.514,5.781-11.877,3.192-3.2,4.594-5.2,4.764-9.366a.553.553,0,0,1,.844-.452Z" transform="translate(13.02 13.404)" fill="#e8cf3a"/>
      <rect id="Rectángulo_308643" data-name="Rectángulo 308643" width="22.128" height="5.532" rx="2" transform="translate(19.361 16.596)" fill="#dee4f0"/>
      <g id="Grupo_968179" data-name="Grupo 968179" transform="translate(0.002 -0.001)">
        <path id="Trazado_641863" data-name="Trazado 641863" d="M81.595,59.066a1.383,1.383,0,0,0-1.383,1.383A19.376,19.376,0,0,1,72.744,75.62a13.812,13.812,0,0,0,1.936-7.045,13.124,13.124,0,0,0-2.213-7.353,1.908,1.908,0,0,0-1.921-.817,1.947,1.947,0,0,0-1.56,1.415c-.022.077-.041.154-.064.225a21.219,21.219,0,0,0-9.8-14.747,1.936,1.936,0,0,0-2.939,1.579c-.148,3.633-1.22,5.3-4.362,8.446l-.538.531C48.9,60.2,45.637,63.413,45.637,70.179A12.127,12.127,0,0,0,47.28,76.4a19.457,19.457,0,0,1-8.558-15.954,28.628,28.628,0,0,1,.86-6.973,7.33,7.33,0,0,0,3.954,3.832,1.383,1.383,0,0,0,1.806-1.532A13.577,13.577,0,0,1,49.384,44.73c5.164-5.2,7.629-8.738,8.074-15.311A32.663,32.663,0,0,1,71.379,51.011a1.383,1.383,0,0,0,1.982,1.01c.344-.173,1.986-1.145,3.236-4.582a27.084,27.084,0,0,1,3.124,8.16,1.383,1.383,0,0,0,2.711-.553,29.457,29.457,0,0,0-4.139-10.126,2.213,2.213,0,0,0-3.975.585,12.724,12.724,0,0,1-.819,2.159A35.52,35.52,0,0,0,58.18,26.6a2.272,2.272,0,0,0-3.441,1.857,21.169,21.169,0,0,1-.523,4.113A21.781,21.781,0,0,0,42.155,21.688a4.141,4.141,0,0,0-1.8-6.135,16.37,16.37,0,0,0,3.86-8.3A5.532,5.532,0,0,0,42.894,3a4.882,4.882,0,0,0-3.618-1.69,8.1,8.1,0,0,0-3.007.566,10.024,10.024,0,0,0-11.689,0,8.169,8.169,0,0,0-3.034-.566,5.226,5.226,0,0,0-4.951,5.324c0,.209.015.4.035.62a16.37,16.37,0,0,0,3.86,8.3,4.136,4.136,0,0,0-1.77,6.167C13.613,23.691,4.148,29.351,4.148,44.256V62.29a9.933,9.933,0,0,1-1.079,4.484L.626,71.521A4.914,4.914,0,0,0,4.92,78.83H45.914a24.064,24.064,0,0,0,13.553,4.149c12.964,0,23.511-10.108,23.511-22.53a1.383,1.383,0,0,0-1.383-1.383Zm-28.37.763.553-.553c3.043-3.054,4.615-5.21,5.055-8.851a18.229,18.229,0,0,1,7.594,14.409,1.943,1.943,0,0,0,1.257,1.734,1.967,1.967,0,0,0,2.115-.477,6.875,6.875,0,0,0,1.22-1.8,10.537,10.537,0,0,1,.9,4.282A11.981,11.981,0,0,1,59.633,80.2c-5.443,0-11.23-3.513-11.23-10.024,0-5.608,2.561-8.128,4.821-10.35ZM20.744,19.362a1.383,1.383,0,0,1,1.383-1.383h16.6a1.383,1.383,0,0,1,0,2.766h-16.6A1.383,1.383,0,0,1,20.744,19.362ZM19.361,6.638A2.449,2.449,0,0,1,21.574,4.08a4.965,4.965,0,0,1,2.5.618,1.4,1.4,0,0,0,1.705-.223,7.18,7.18,0,0,1,9.291-.008,1.383,1.383,0,0,0,1.72.235,4.929,4.929,0,0,1,2.471-.618,2.135,2.135,0,0,1,1.57.752,2.766,2.766,0,0,1,.649,2.126,13.986,13.986,0,0,1-4.663,8.251H24.037a13.976,13.976,0,0,1-4.654-8.227C19.373,6.874,19.361,6.762,19.361,6.638ZM3.067,75.007a2.162,2.162,0,0,1,0-2.182l2.464-4.792A12.741,12.741,0,0,0,6.914,62.29V44.256c0-17.338,13.88-20.468,15.337-20.745H38.593A19.472,19.472,0,0,1,52.74,36.287a31.542,31.542,0,0,1-5.318,6.5A16.6,16.6,0,0,0,42.569,53.1,9.9,9.9,0,0,1,41.6,51.26a2.294,2.294,0,0,0-4.322.189,31.108,31.108,0,0,0-1.322,9,21.963,21.963,0,0,0,6.6,15.615H4.92a2.127,2.127,0,0,1-1.853-1.057Z" transform="translate(-0.002 0.001)" fill="#262626"/>
        <path id="Trazado_641864" data-name="Trazado 641864" d="M28.04,22.725a8.929,8.929,0,0,1,5.9,7.234A1.383,1.383,0,0,0,35.3,31.066a1.321,1.321,0,0,0,.277-.028,1.383,1.383,0,0,0,1.079-1.632,11.632,11.632,0,0,0-7.936-9.368,1.383,1.383,0,1,0-.679,2.682Z" transform="translate(10.336 7.658)" fill="#262626"/>
        <path id="Trazado_641865" data-name="Trazado 641865" d="M17.963,20.04A11.632,11.632,0,0,0,10.028,29.4a1.383,1.383,0,0,0,1.079,1.632,1.311,1.311,0,0,0,.277.028,1.383,1.383,0,0,0,1.354-1.106,8.933,8.933,0,0,1,5.9-7.229,1.383,1.383,0,1,0-.678-2.682Z" transform="translate(3.827 7.662)" fill="#262626"/>
        <path id="Trazado_641866" data-name="Trazado 641866" d="M22.383,21A1.383,1.383,0,0,0,21,22.383V33.447a1.383,1.383,0,0,0,2.766,0V22.383A1.383,1.383,0,0,0,22.383,21Z" transform="translate(8.039 8.043)" fill="#262626"/>
      </g>
    </g>
  </g>
</svg>
