<svg xmlns="http://www.w3.org/2000/svg" width="148" height="148" viewBox="0 0 148 148">
  <g id="Grupo_969354" data-name="Grupo 969354" transform="translate(3155 2479)">
    <circle id="Elipse_8719" data-name="Elipse 8719" cx="74" cy="74" r="74" transform="translate(-3155 -2479)" fill="#583cb6"/>
    <g id="reciclar" transform="translate(-3128 -2455.986)">
      <path id="Trazado_641867" data-name="Trazado 641867" d="M115.713,20.111l-7.142,12.61a3.052,3.052,0,0,0,1.163,4.166l12.211,6.85a3.052,3.052,0,0,0,4.15-1.16l16.621-29.1-15.858.074A12.833,12.833,0,0,0,115.713,20.111Z" transform="translate(-88.499 -6.129)" fill="#cdf09c"/>
      <path id="Trazado_641868" data-name="Trazado 641868" d="M242.98,27.31l-4.708-8.075a11.539,11.539,0,0,0-10.013-5.726l-17.363.065,14.723,23.881-4.855,2.837a1.67,1.67,0,0,0,.674,3.1l17.575,1.787a4.637,4.637,0,0,0,4.732-2.79l6.86-16.05a1.67,1.67,0,0,0-2.378-2.1Z" transform="translate(-172.538 -6.154)" fill="#a1e42c"/>
      <path id="Trazado_641869" data-name="Trazado 641869" d="M317.257,24.245l-5.246,3.065L307.3,19.235a11.538,11.538,0,0,0-10.013-5.726l-2.015.007a11.526,11.526,0,0,1,2.971,3.363l14.479,25.628q.026-.057.051-.115l6.86-16.05A1.67,1.67,0,0,0,317.257,24.245Z" transform="translate(-241.569 -6.154)" fill="#95d528"/>
      <path id="Trazado_641870" data-name="Trazado 641870" d="M378.794,200.413l-8.063-12.042a3.052,3.052,0,0,0-4.245-.831l-11.6,7.837a3.052,3.052,0,0,0-.827,4.229L372.6,227.52l7.052-14.2A12.833,12.833,0,0,0,378.794,200.413Z" transform="translate(-289.237 -148.104)" fill="#cdf09c"/>
      <path id="Trazado_641871" data-name="Trazado 641871" d="M421.591,200.413l-8.063-12.042a3.052,3.052,0,0,0-4.245-.831l-3.432,2.318,7.757,11.586a12.833,12.833,0,0,1,.859,12.9c-2.06,4.142,0,0,0,0h0l-1.524,3.062-1.824,3.674,4.275,6.436,7.052-14.2A12.833,12.833,0,0,0,421.591,200.413Z" transform="translate(-332.033 -148.104)" fill="#b9ea6a"/>
      <path id="Trazado_641872" data-name="Trazado 641872" d="M283.371,332.795l9.329-.583a11.538,11.538,0,0,0,9.612-6.377l7.736-15.544L282.1,312.727l-.356-5.612a1.67,1.67,0,0,0-3.076-.791l-9.486,14.9a4.636,4.636,0,0,0,.369,5.481l11.263,13.334a1.67,1.67,0,0,0,2.943-1.183Z" transform="translate(-219.629 -245.077)" fill="#a1e42c"/>
      <path id="Trazado_641873" data-name="Trazado 641873" d="M390.763,332.3q-.081.175-.166.348c-.057.115,0,0,0,0h0l-1.524,3.062-5.531,11.14-.007-.011-.673,1.353a11.539,11.539,0,0,1-6.19,5.631l4.561-.285a11.538,11.538,0,0,0,9.611-6.377l7.736-15.544Z" transform="translate(-308.163 -266.407)" fill="#95d528"/>
      <path id="Trazado_641874" data-name="Trazado 641874" d="M56.526,349.553a3.1,3.1,0,0,0-3.111-3.04L19.9,346.39l7.879,13.762a12.833,12.833,0,0,0,11.2,6.465H53.474a3.052,3.052,0,0,0,3.052-3.065Z" transform="translate(-16.283 -278.49)" fill="#cdf09c"/>
      <path id="Trazado_641875" data-name="Trazado 641875" d="M38.381,205.624l-7.1-16.174a4.636,4.636,0,0,0-4.76-2.743L9.17,188.648a1.67,1.67,0,0,0-.654,3.1l5.252,3.054-4.706,8.076a11.538,11.538,0,0,0-.049,11.535l8.612,15.076,13.525-24.579,4.862,2.827A1.67,1.67,0,0,0,38.381,205.624Z" transform="translate(-6.131 -147.828)" fill="#a1e42c"/>
      <path id="Trazado_641876" data-name="Trazado 641876" d="M58.407,203.462,40.5,235.995l4.129,7.227,13.525-24.579,4.862,2.827a1.67,1.67,0,0,0,2.368-2.116Z" transform="translate(-33.137 -161.558)" fill="#95d528"/>
      <path id="Trazado_641877" data-name="Trazado 641877" d="M148.684,40.385a5.975,5.975,0,0,0,6.125-3.612l6.861-16.051a3.035,3.035,0,0,0-4.321-3.813l-4.067,2.377-4.021-6.9a12.94,12.94,0,0,0-11.147-6.4h-.05c-18.192.069-17.369.062-17.462.069a14.219,14.219,0,0,0-12.23,7.251l-7.142,12.612a4.414,4.414,0,0,0,1.682,6.029L115.123,38.8a4.424,4.424,0,0,0,6-1.676l5.847-10.3a1.364,1.364,0,1,0-2.373-1.347l-5.848,10.3a1.691,1.691,0,0,1-2.3.642l-12.212-6.851a1.687,1.687,0,0,1-.643-2.3l7.146-12.617a11.49,11.49,0,0,1,9.213-5.836l13.573,22.016-3.65,2.133a3.034,3.034,0,0,0,1.224,5.639ZM131.26,35.314l4.856-2.838a1.365,1.365,0,0,0,.473-1.894L123.142,8.77l14.931-.056h.04a10.2,10.2,0,0,1,8.79,5.05l4.709,8.076a1.365,1.365,0,0,0,1.867.491l5.246-3.066a.3.3,0,0,1,.436.384L152.3,35.7a3.261,3.261,0,0,1-3.34,1.97l-17.576-1.788A.3.3,0,0,1,131.26,35.314Z" transform="translate(-82.346)"/>
      <path id="Trazado_641878" data-name="Trazado 641878" d="M37.141,208.343h0l-11.709-.066A1.364,1.364,0,0,0,25.414,211l11.718.066h0a1.741,1.741,0,0,1,1.745,1.676v14.008a1.687,1.687,0,0,1-1.688,1.695H22.638a11.491,11.491,0,0,1-9.566-5.141l12.469-22.659,3.654,2.125a3.034,3.034,0,0,0,4.3-3.844l-7.106-16.175a5.974,5.974,0,0,0-6.161-3.55l-17.348,1.94A3.034,3.034,0,0,0,1.7,186.784l4.072,2.368-4.019,6.9a12.94,12.94,0,0,0-.055,12.9c9.025,15.8,8.612,15.083,8.664,15.16a14.219,14.219,0,0,0,12.273,7.07H37.189a4.415,4.415,0,0,0,4.417-4.429V212.742a4.452,4.452,0,0,0-4.465-4.4ZM4.106,197.423l4.707-8.077a1.364,1.364,0,0,0-.493-1.866l-5.253-3.055a.3.3,0,0,1,.12-.569l17.348-1.94a3.308,3.308,0,0,1,.37-.021,3.256,3.256,0,0,1,2.989,1.957L31,200.028a.3.3,0,0,1-.434.388L25.7,197.588a1.365,1.365,0,0,0-1.881.522L11.47,220.56,4.063,207.595A10.2,10.2,0,0,1,4.106,197.423Z" transform="translate(0 -141.682)"/>
      <path id="Trazado_641879" data-name="Trazado 641879" d="M304.161,193.508,296.1,181.465a4.414,4.414,0,0,0-6.142-1.2l-11.6,7.838a4.423,4.423,0,0,0-1.2,6.115l5.667,8.531a1.364,1.364,0,0,0,2.273-1.51l-5.67-8.536a1.691,1.691,0,0,1,.457-2.339l11.6-7.838a1.687,1.687,0,0,1,2.348.46l8.067,12.048a11.491,11.491,0,0,1,1.079,10.852l-25.765,2.246-.268-4.219a3.034,3.034,0,0,0-5.588-1.437l-9.487,14.9a5.975,5.975,0,0,0,.478,7.095l11.264,13.335a3.034,3.034,0,0,0,5.346-2.15l-.3-4.7,7.967-.5a12.939,12.939,0,0,0,10.749-7.132c8.088-16.254,7.74-15.547,7.776-15.633A14.218,14.218,0,0,0,304.161,193.508Zm-9.23,28.6a10.2,10.2,0,0,1-8.476,5.624l-9.33.583a1.365,1.365,0,0,0-1.276,1.448l.385,6.064a.3.3,0,0,1-.539.217l-11.264-13.335a3.258,3.258,0,0,1-.261-3.869l9.487-14.9a.3.3,0,0,1,.563.145l.356,5.613a1.364,1.364,0,0,0,1.48,1.273l25.527-2.226Z" transform="translate(-213.466 -141.958)"/>
    </g>
  </g>
</svg>
