<svg xmlns="http://www.w3.org/2000/svg" width="148" height="148" viewBox="0 0 148 148">
  <g id="Grupo_969356" data-name="Grupo 969356" transform="translate(3506 2009)">
    <circle id="Elipse_8723" data-name="Elipse 8723" cx="74" cy="74" r="74" transform="translate(-3506 -2009)" fill="#583cb6"/>
    <path id="reducir" d="M66.969,19.4,53.7,32.672h9.083a3.2,3.2,0,0,1,0,6.406H50.77a8.017,8.017,0,0,1-8.008-8.008V19.059a3.2,3.2,0,0,1,6.406,0v9.083l13.27-13.27A3.2,3.2,0,0,1,66.969,19.4ZM36.2,65.664a3.2,3.2,0,0,0,3.2-3.2V50.449a8.017,8.017,0,0,0-8.008-8.008H19.379a3.2,3.2,0,1,0,0,6.406h9.083l-13.27,13.27a3.2,3.2,0,0,0,4.531,4.529l13.27-13.27v9.083a3.2,3.2,0,0,0,3.2,3.2Zm42.6-9.289a3.2,3.2,0,0,0,3.2-3.2V12.813A12.827,12.827,0,0,0,69.188,0H12.813A12.827,12.827,0,0,0,0,12.813V69.188A12.827,12.827,0,0,0,12.813,82H69.188A12.827,12.827,0,0,0,82,69.188a3.2,3.2,0,0,0-6.406,0,6.414,6.414,0,0,1-6.406,6.406H12.813a6.414,6.414,0,0,1-6.406-6.406V12.813a6.414,6.414,0,0,1,6.406-6.406H69.188a6.414,6.414,0,0,1,6.406,6.406V53.172A3.2,3.2,0,0,0,78.8,56.375Zm0,0" transform="translate(-3473 -1976)" fill="#f0bd51"/>
  </g>
</svg>
