<svg xmlns="http://www.w3.org/2000/svg" width="148" height="148" viewBox="0 0 148 148">
  <g id="Grupo_969358" data-name="Grupo 969358" transform="translate(3857 1551)">
    <circle id="Elipse_8725" data-name="Elipse 8725" cx="74" cy="74" r="74" transform="translate(-3857 -1551)" fill="#583cb6"/>
    <g id="filled_outline" data-name="filled outline" transform="translate(-3846 -1542.667)">
      <path id="Trazado_641918" data-name="Trazado 641918" d="M346.072,157.745l-3.68.785-1.16,3.579,2.519,2.794,3.68-.785,1.16-3.579Z" transform="translate(-258.249 -110.738)" fill="#f2444e"/>
      <path id="Trazado_641919" data-name="Trazado 641919" d="M24,24H77.33v80H24Z" transform="translate(-3.216 -3.216)" fill="#5f86fe"/>
      <path id="Trazado_641920" data-name="Trazado 641920" d="M40,216h9.411v9.411H40Z" transform="translate(-16.079 -157.571)" fill="#3a69ff"/>
      <path id="Trazado_641921" data-name="Trazado 641921" d="M217.911,176.98V194.1a5.423,5.423,0,0,1-10.6,1.616l-2.592-8.305,5.072-2.925,2.629,8.764V176.98a.98.98,0,0,1,.98-.98h3.529A.98.98,0,0,1,217.911,176.98Z" transform="translate(-148.502 -125.414)" fill="#ff99c0"/>
      <path id="Trazado_641922" data-name="Trazado 641922" d="M107.848,189.59l.4,1.331-5.072,2.925-.99-3.168-1.614,12.144H84.886L85,190.274l-1.669,3.108-4.917-3.059,1.22-2.235A7.844,7.844,0,0,1,86.515,184h13.821a7.842,7.842,0,0,1,7.511,5.589Z" transform="translate(-46.958 -131.845)" fill="#06b790"/>
      <g id="Grupo_968189" data-name="Grupo 968189" transform="translate(23.921 30.195)">
        <path id="Trazado_641923" data-name="Trazado 641923" d="M40,72h9.411v9.411H40Z" transform="translate(-40 -72)" fill="#3a69ff"/>
        <path id="Trazado_641924" data-name="Trazado 641924" d="M40,144h9.411v9.411H40Z" transform="translate(-40 -129.883)" fill="#3a69ff"/>
        <path id="Trazado_641925" data-name="Trazado 641925" d="M40,288h9.411v9.411H40Z" transform="translate(-40 -245.649)" fill="#3a69ff"/>
        <path id="Trazado_641926" data-name="Trazado 641926" d="M40,360h9.411v9.411H40Z" transform="translate(-40 -303.533)" fill="#3a69ff"/>
      </g>
      <path id="Trazado_641927" data-name="Trazado 641927" d="M146,167.382v-5.516l3.921,2.941v2.575a1.961,1.961,0,0,1-3.921,0Z" transform="translate(-101.296 -114.051)" fill="#ff99c0"/>
      <path id="Trazado_641928" data-name="Trazado 641928" d="M103.256,320.782H115.8l-4.706-3.137V297.537a7.843,7.843,0,0,0-.828-3.508L103.256,280H87.571l3.137,17.254L81.75,317.645l12.819,3.137L90.649,316.7l6.807-16.757a7.842,7.842,0,0,0,.168-5.451l-2.211-6.575,3.26-.023,4.583,9.356Z" transform="translate(-49.643 -209.023)" fill="#0e3e86"/>
      <path id="Trazado_641929" data-name="Trazado 641929" d="M385.1,334.83v-4.563h-2.539a10.2,10.2,0,0,0-1.319-3.183l1.8-1.8-3.226-3.226-1.8,1.8a10.205,10.205,0,0,0-3.183-1.319V320h-4.563v2.539a10.206,10.206,0,0,0-3.183,1.319l-1.8-1.8-3.227,3.226,1.8,1.8a10.205,10.205,0,0,0-1.319,3.183H360v4.563h2.539a10.205,10.205,0,0,0,1.319,3.183l-1.8,1.8,3.227,3.226,1.8-1.8a10.206,10.206,0,0,0,3.183,1.319V345.1h4.563v-2.539a10.205,10.205,0,0,0,3.183-1.319l1.8,1.8,3.226-3.226-1.8-1.8a10.205,10.205,0,0,0,1.319-3.183Zm-12.548,2.424a4.706,4.706,0,1,1,4.706-4.706A4.706,4.706,0,0,1,372.548,337.254Z" transform="translate(-273.337 -241.18)" fill="#3a69ff"/>
      <path id="Trazado_641930" data-name="Trazado 641930" d="M282.193,77.66V68.534h-5.078a20.409,20.409,0,0,0-2.637-6.365l3.592-3.591-6.453-6.453-3.591,3.592a20.409,20.409,0,0,0-6.365-2.637V48h-9.126v5.078a20.409,20.409,0,0,0-6.365,2.637l-3.591-3.592-6.453,6.453,3.592,3.591a20.409,20.409,0,0,0-2.637,6.365H232V77.66h5.078a20.409,20.409,0,0,0,2.637,6.365l-3.592,3.591,6.453,6.453,3.591-3.592a20.409,20.409,0,0,0,6.365,2.637v5.078h9.126V93.115a20.409,20.409,0,0,0,6.365-2.637l3.591,3.592,6.453-6.453-3.592-3.591a20.408,20.408,0,0,0,2.637-6.365Zm-25.1,9.126A13.689,13.689,0,1,1,270.786,73.1,13.689,13.689,0,0,1,257.1,86.786Z" transform="translate(-170.434 -22.51)" fill="#154dfc"/>
      <path id="Trazado_641931" data-name="Trazado 641931" d="M61.534,170.448a4.706,4.706,0,0,0,6.456,1.615l36.364-21.976,10.491-.806-2.42-13.181,9.684-2.151-.063-.105a10.835,10.835,0,0,0-19.094.915l-3.439,7.258L63.149,163.992a4.706,4.706,0,0,0-1.615,6.456Z" transform="translate(-32.851 -87.278)" fill="#fcc419"/>
      <path id="Trazado_641932" data-name="Trazado 641932" d="M331.044,196.723a10.115,10.115,0,0,0,6.057-2.6l.762-.692a7.166,7.166,0,0,0,2.328-5.855l-10.4,2.31Z" transform="translate(-249.05 -134.721)" fill="#f5a000"/>
      <path id="Trazado_641933" data-name="Trazado 641933" d="M292.288,192.158l.908,4.943,3.766-.2-.84-5.212Z" transform="translate(-218.901 -138.025)" fill="#f5a000"/>
      <circle id="Elipse_8743" data-name="Elipse 8743" cx="1.569" cy="1.569" r="1.569" transform="translate(31.15 79.18)" fill="#f5a000"/>
      <path id="Trazado_641934" data-name="Trazado 641934" d="M67.632,236.184a.784.784,0,0,1,.28,1.125l-2.261,3.39a.783.783,0,0,1-1.027.255l-13.735-7.492a5.549,5.549,0,0,1-2.214-7.523l5.286-9.69,4.917,3.059-5.07,9.441,9.125,4.908,1.7-.773a.392.392,0,0,1,.551.3l.286,1.843Z" transform="translate(-22.51 -157.772)" fill="#ff99c0"/>
      <path id="Trazado_641935" data-name="Trazado 641935" d="M244,193.254V176.98a.98.98,0,0,1,.98-.98h3.529a.98.98,0,0,1,.98.98V194.1a5.422,5.422,0,0,1-5.424,5.423Z" transform="translate(-180.081 -125.414)" fill="#ff99c0"/>
      <path id="Trazado_641936" data-name="Trazado 641936" d="M144,136h6.274v5.882a1.961,1.961,0,0,1-1.961,1.961A4.313,4.313,0,0,1,144,139.529Z" transform="translate(-99.688 -93.256)" fill="#ff99c0"/>
      <path id="Trazado_641937" data-name="Trazado 641937" d="M145.209,120.784h1.81v.562c0,1.855-.72,3.359-2.575,3.359a3.362,3.362,0,0,1-1.094-.183l-1.821-.628a2.379,2.379,0,0,1-2.379,2.379H138V123.4a3.4,3.4,0,0,1,4.319-3.276l1.824.512A3.947,3.947,0,0,0,145.209,120.784Z" transform="translate(-94.864 -80.393)" fill="#0e3e86"/>
      <circle id="Elipse_8744" data-name="Elipse 8744" cx="1.192" cy="1.192" r="1.192" transform="translate(43.136 44.94)" fill="#ff99c0"/>
      <path id="Trazado_641938" data-name="Trazado 641938" d="M85.886,188.285l-4.356-2.9V165.692a8.694,8.694,0,0,0-.91-3.858l-4.663-9.323a.784.784,0,1,0-1.4.7l4.663,9.322a7.12,7.12,0,0,1,.745,3.158v19.324H76.15a.784.784,0,0,0,0,1.569h4.358l2.353,1.569H73.687V165.41a.781.781,0,0,0-.08-.345l-4.583-9.356a.784.784,0,0,0-.7-.439h-.005l-1.31.009,10.78-6.514a6.207,6.207,0,0,0,11.7-2.894v-4.176l1.556-.939,10.3-.791a10.95,10.95,0,0,0,6.526-2.8l.762-.692a7.9,7.9,0,0,0,2.583-6.5.784.784,0,0,0-.952-.706l-.839.186.707-2.181a.784.784,0,0,0-.164-.767l-1.632-1.81.385-.085a.784.784,0,0,0,.5-1.166l-.065-.11a11.619,11.619,0,0,0-20.476.984.784.784,0,1,0,1.418.67,10.056,10.056,0,0,1,17.168-1.664l-8.573,1.9a.784.784,0,0,0-.6.907l2.262,12.325-9.623.739a.784.784,0,0,0-.345.111l-.9.547V128.745a1.761,1.761,0,0,0-1.4-1.727,1.686,1.686,0,0,0-.36-.038H84.188a1.767,1.767,0,0,0-1.765,1.765v1.8l-.642.361a1.176,1.176,0,0,0-.133,1.968l.537.4-1.445.873a8.686,8.686,0,0,0-8.075-5.6H69.091V127.5a2.745,2.745,0,0,0,1.569-2.476v-3.137c0-.007,0-.013,0-.02a4.144,4.144,0,0,0,2.355-3.731v-.563a.784.784,0,0,0-.784-.784H69.634a3.144,3.144,0,0,1-.855-.118l-1.827-.513a4.188,4.188,0,0,0-5.312,4.032v2.927a1.983,1.983,0,0,0,1.176,1.8v3.631h-3.97a8.624,8.624,0,0,0-7.574,4.5L44.767,144.97a6.33,6.33,0,0,0,2.527,8.588l.855.466a5.489,5.489,0,0,0,6.685,8.61l3.8-2.3.9,4.979-8.862,20.171a.784.784,0,0,0,.532,1.077L64.028,189.7a.784.784,0,0,0,.752-1.305l-3.566-3.71L67.829,168.4a8.632,8.632,0,0,0,.185-6l-1.866-5.551,1.684-.012,4.286,8.75v11.582H66.236a.784.784,0,1,0,0,1.569h5.882v10.2a.784.784,0,0,0,.784.784H85.45a.784.784,0,0,0,.435-1.437Zm23.768-57.275a6.334,6.334,0,0,1-2.079,4.3l-.762.692a9.38,9.38,0,0,1-4.89,2.318l-.986-5.372Zm-5.444-5.178,2.545-.543,1.742,1.932-.8,2.475-2.545.543-1.742-1.932Zm-4.438.767,2.737-.608-.733,2.263a.784.784,0,0,0,.164.767l1.574,1.746-2.86.635ZM83.613,145.241a.781.781,0,0,0,.376-.671h0V133.059a.784.784,0,0,0-.314-.627l-.606-.454.521-.294a.784.784,0,0,0,.4-.683v-2.255a.2.2,0,0,1,.2-.2h3.529a.163.163,0,0,1,.041,0,.194.194,0,0,1,.155.191V145.87a4.637,4.637,0,0,1-8.783,2.08Zm-20.4-25.054a2.62,2.62,0,0,1,2.617-2.617,2.661,2.661,0,0,1,.706.1l1.822.511a4.7,4.7,0,0,0,1.28.176h1.8a2.577,2.577,0,0,1-3.4,2.213l-1.821-.627a.784.784,0,0,0-1.039.742,1.59,1.59,0,0,1-.287.914,1.987,1.987,0,0,0-1.675-.415Zm0,2.907a.406.406,0,0,1,.793-.106.784.784,0,0,0,1.135.444,3.233,3.233,0,0,0,.676-.515,3.166,3.166,0,0,0,.75-1.2l.959.33a4.167,4.167,0,0,0,1.347.224c.075,0,.148-.007.222-.011v2.756a1.178,1.178,0,0,1-1.176,1.176,3.5,3.5,0,0,1-1.481-.324.784.784,0,1,0-.659,1.424,5.042,5.042,0,0,0,1.747.453v2.369a1.569,1.569,0,0,1-3.137,0V124.3a.784.784,0,0,0-.775-.784.41.41,0,0,1-.4-.407.162.162,0,0,1,0-.019ZM52.649,133.8a7.055,7.055,0,0,1,6.2-3.679h3.97a3.137,3.137,0,0,0,6.274,0h3.576a7.1,7.1,0,0,1,6.7,4.857l-3.666,2.216-.441-1.412a.784.784,0,1,0-1.5.467l.556,1.78L55.057,149.67l-3.407-1.832,4.859-9.047-.075,7.005a.784.784,0,0,0,.777.792h.009a.784.784,0,0,0,.784-.776l.11-10.2a.784.784,0,0,0-1.475-.38l-1.274,2.372-3.578-2.226Zm1.374,27.494a3.921,3.921,0,0,1-4.41-6.467l1.618.882a2.385,2.385,0,0,0-.435.2,2.353,2.353,0,1,0,3.5,1.467l3.26,1.778Zm-2.777-3.554a.784.784,0,1,1,.088.594A.784.784,0,0,1,51.247,157.737Zm-3.2-5.556a4.764,4.764,0,0,1-1.9-6.459l4.888-8.96,3.587,2.231L49.9,147.785a.784.784,0,0,0,.32,1.062l9.125,4.908a.783.783,0,0,0,.7.023l1.233-.56.207,1.333a.784.784,0,0,0,.4.57l2.155,1.159,0,0-2.259,3.391ZM66.527,162.9a7.058,7.058,0,0,1-.151,4.905l-6.558,16.143-3.412-.753a.784.784,0,0,0-.338,1.532l3.827.844,1.882,1.959-9.288-2.273,8.582-19.536a.784.784,0,0,0,.054-.456l-.84-4.624.743.405a1.56,1.56,0,0,0,2.055-.51l1.762-2.642Zm-1.843-8.056-1.717-.923-.227-1.461a1.176,1.176,0,0,0-1.65-.886l-1.348.612-3.081-1.657,25.762-15.569v9.165Z" transform="translate(-19.289 -77.178)"/>
      <path id="Trazado_641939" data-name="Trazado 641939" d="M254.2,292a.784.784,0,0,0-.784.784v25.881h-8.627a.784.784,0,0,0,0,1.569H254.2a.784.784,0,0,0,.784-.784V292.784A.784.784,0,0,0,254.2,292Z" transform="translate(-180.081 -218.67)"/>
      <path id="Trazado_641940" data-name="Trazado 641940" d="M32.548,100.78a.784.784,0,0,0-.784-.784h-10.2V21.569H73.33v5.49a.784.784,0,1,0,1.569,0V20.784A.784.784,0,0,0,74.115,20H20.784a.784.784,0,0,0-.784.784v80a.784.784,0,0,0,.784.784h10.98A.784.784,0,0,0,32.548,100.78Z"/>
      <path id="Trazado_641941" data-name="Trazado 641941" d="M381.881,326.267h-1.931a10.947,10.947,0,0,0-.941-2.273l1.366-1.366a.784.784,0,0,0,0-1.109l-3.227-3.227a.784.784,0,0,0-1.109,0l-1.366,1.366a10.949,10.949,0,0,0-2.273-.941v-1.932a.784.784,0,0,0-.784-.784h-4.564a.784.784,0,0,0-.784.784v1.931a10.951,10.951,0,0,0-2.273.941l-1.366-1.366a.784.784,0,0,0-1.109,0l-3.227,3.227a.784.784,0,0,0,0,1.109l1.366,1.366a10.948,10.948,0,0,0-.941,2.273h-1.932a.784.784,0,0,0-.784.784v4.563a.784.784,0,0,0,.784.784h1.931a10.945,10.945,0,0,0,.941,2.273l-1.366,1.366a.784.784,0,0,0,0,1.109l3.227,3.227a.784.784,0,0,0,1.109,0l1.366-1.366a10.952,10.952,0,0,0,2.273.941v1.933a.784.784,0,0,0,.784.784h4.563a.784.784,0,0,0,.784-.784v-1.931a10.949,10.949,0,0,0,2.273-.941l1.366,1.366a.784.784,0,0,0,1.109,0l3.227-3.227a.784.784,0,0,0,0-1.109l-1.366-1.366a10.946,10.946,0,0,0,.941-2.273h1.933a.784.784,0,0,0,.784-.784v-4.563A.784.784,0,0,0,381.881,326.267Zm-.784,4.563h-1.755a.784.784,0,0,0-.765.611,9.4,9.4,0,0,1-1.217,2.938.784.784,0,0,0,.109.973l1.241,1.241-2.118,2.118-1.241-1.241a.784.784,0,0,0-.972-.109,9.408,9.408,0,0,1-2.938,1.217.784.784,0,0,0-.611.765V341.1h-2.995v-1.755a.784.784,0,0,0-.61-.765,9.407,9.407,0,0,1-2.938-1.217.784.784,0,0,0-.972.109l-1.241,1.241-2.118-2.118,1.241-1.241a.784.784,0,0,0,.109-.973,9.4,9.4,0,0,1-1.217-2.938.784.784,0,0,0-.765-.611h-1.755v-2.994h1.755a.784.784,0,0,0,.765-.611,9.4,9.4,0,0,1,1.217-2.938.784.784,0,0,0-.109-.973l-1.241-1.241,2.118-2.118,1.241,1.241a.784.784,0,0,0,.972.109,9.406,9.406,0,0,1,2.938-1.217.784.784,0,0,0,.611-.765v-1.755h2.995v1.755a.784.784,0,0,0,.61.765,9.407,9.407,0,0,1,2.938,1.217.784.784,0,0,0,.973-.109l1.241-1.241,2.118,2.118-1.24,1.241a.784.784,0,0,0-.109.973,9.4,9.4,0,0,1,1.217,2.938.784.784,0,0,0,.765.611H381.1Z" transform="translate(-270.121 -237.964)"/>
      <path id="Trazado_641942" data-name="Trazado 641942" d="M401.49,356a5.49,5.49,0,1,0,5.49,5.49A5.49,5.49,0,0,0,401.49,356Zm0,9.411a3.921,3.921,0,1,1,3.921-3.921A3.921,3.921,0,0,1,401.49,365.411Z" transform="translate(-302.279 -270.121)"/>
      <path id="Trazado_641943" data-name="Trazado 641943" d="M278.977,64.534h-4.462a21.129,21.129,0,0,0-2.264-5.462l3.155-3.155a.784.784,0,0,0,0-1.109l-6.453-6.453a.784.784,0,0,0-1.109,0l-3.156,3.155a21.136,21.136,0,0,0-5.462-2.263V44.784a.784.784,0,0,0-.784-.784h-9.126a.784.784,0,0,0-.784.784v4.462a21.136,21.136,0,0,0-5.462,2.264l-3.156-3.155a.784.784,0,0,0-1.109,0l-6.453,6.453a.784.784,0,0,0,0,1.109l3.156,3.155a21.128,21.128,0,0,0-2.263,5.462h-4.462a.784.784,0,0,0-.784.784v5.347a.784.784,0,0,0,1.569,0V66.1h4.294a.784.784,0,0,0,.765-.61,19.593,19.593,0,0,1,2.536-6.12.784.784,0,0,0-.109-.972l-3.037-3.037,5.344-5.344,3.037,3.036a.784.784,0,0,0,.972.109,19.583,19.583,0,0,1,6.12-2.536.784.784,0,0,0,.611-.765V45.569h7.557v4.294a.784.784,0,0,0,.611.765,19.583,19.583,0,0,1,6.12,2.536.784.784,0,0,0,.972-.109l3.037-3.037,5.344,5.344L270.707,58.4a.784.784,0,0,0-.109.972,19.593,19.593,0,0,1,2.536,6.121.784.784,0,0,0,.765.611h4.294V73.66H273.9a.784.784,0,0,0-.765.61,19.592,19.592,0,0,1-2.536,6.12.784.784,0,0,0,.109.973l3.037,3.037L268.4,89.743l-3.037-3.036a.784.784,0,0,0-.973-.109,19.584,19.584,0,0,1-6.12,2.536.784.784,0,0,0-.611.765v4.294H250.1V89.9a.784.784,0,0,0-.611-.765,19.583,19.583,0,0,1-6.12-2.536.784.784,0,0,0-.972.109l-3.037,3.037a.784.784,0,1,0-1.109,1.109l.555.555a.784.784,0,0,0,1.109,0l3.154-3.156a21.136,21.136,0,0,0,5.462,2.263v4.462a.784.784,0,0,0,.784.784h9.126a.784.784,0,0,0,.784-.784V90.516a21.135,21.135,0,0,0,5.462-2.263l3.156,3.155a.784.784,0,0,0,1.109,0l6.453-6.453a.784.784,0,0,0,0-1.109l-3.155-3.155a21.129,21.129,0,0,0,2.263-5.462h4.462a.784.784,0,0,0,.784-.784V65.318a.784.784,0,0,0-.784-.784Z" transform="translate(-167.218 -19.294)"/>
      <path id="Trazado_641944" data-name="Trazado 641944" d="M331.085,129.558a13.067,13.067,0,0,1-1.487-.085.784.784,0,0,0-.178,1.558,14.661,14.661,0,0,0,1.665.095,14.474,14.474,0,1,0-6.627-27.345.784.784,0,1,0,.719,1.394,12.764,12.764,0,0,1,5.908-1.428,12.905,12.905,0,0,1,0,25.81Z" transform="translate(-244.422 -66.066)"/>
      <path id="Trazado_641945" data-name="Trazado 641945" d="M289.98,194.676h.042l3.766-.2a.784.784,0,0,0,.732-.908l-.84-5.212a.784.784,0,0,0-.87-.654l-3.834.471a.784.784,0,0,0-.676.92l.907,4.943A.784.784,0,0,0,289.98,194.676Zm2.272-5.327.581,3.6-2.206.118-.633-3.446Z" transform="translate(-215.686 -134.815)"/>
      <path id="Trazado_641946" data-name="Trazado 641946" d="M46.2,61.568H36.784a.784.784,0,0,0-.784.784v9.411a.784.784,0,0,0,.784.784H46.2a.784.784,0,0,0,.784-.784V66.38l5.992-4.993a.784.784,0,1,0-1-1.205L46.98,64.338V62.353A.784.784,0,0,0,46.2,61.568Zm-.784,4.077-2.3,1.92-2.631-2.631a.784.784,0,1,0-1.109,1.109L42.5,69.181a.784.784,0,0,0,1.057.048l1.851-1.542v3.293H37.569V63.137h7.843Z" transform="translate(-12.863 -32.157)"/>
      <path id="Trazado_641947" data-name="Trazado 641947" d="M46.2,142.2a.784.784,0,0,0,.784-.784V138.38l5.992-4.993a.784.784,0,0,0-1-1.205l-4.988,4.156v-1.985a.784.784,0,0,0-.784-.784H36.784a.784.784,0,0,0-.784.784v9.411a.784.784,0,0,0,.784.784h7.058a.784.784,0,0,0,0-1.569H37.569v-7.843h7.843v2.508l-2.3,1.92-2.631-2.631a.784.784,0,1,0-1.109,1.109l3.137,3.137a.784.784,0,0,0,1.057.048l1.851-1.542v1.724a.784.784,0,0,0,.784.784Z" transform="translate(-12.863 -90.04)"/>
      <path id="Trazado_641948" data-name="Trazado 641948" d="M37.569,213.569h3.137a.784.784,0,0,0,0-1.569H36.784a.784.784,0,0,0-.784.784v8.627a.784.784,0,1,0,1.569,0Z" transform="translate(-12.863 -154.355)"/>
      <path id="Trazado_641949" data-name="Trazado 641949" d="M36.784,292a.784.784,0,0,0-.784.784v7.843a.784.784,0,0,0,.784.784h1.569a.784.784,0,1,0,0-1.569h-.784v-7.058A.784.784,0,0,0,36.784,292Z" transform="translate(-12.863 -218.67)"/>
      <path id="Trazado_641950" data-name="Trazado 641950" d="M41.49,357.569a.784.784,0,1,0,0-1.569H36.784a.784.784,0,0,0-.784.784V366.2a.784.784,0,0,0,.784.784H46.2a.784.784,0,0,0,.784-.784v-7.843a.784.784,0,0,0-1.569,0v7.058H37.569v-7.843Z" transform="translate(-12.863 -270.121)"/>
      <path id="Trazado_641951" data-name="Trazado 641951" d="M145.175,76H124.784a.784.784,0,1,0,0,1.569h20.391a.784.784,0,0,0,0-1.569Z" transform="translate(-83.609 -45.02)"/>
      <path id="Trazado_641952" data-name="Trazado 641952" d="M126.665,100.784a.784.784,0,0,0-.784-.784h-25.1a.784.784,0,0,0,0,1.569h25.1A.784.784,0,0,0,126.665,100.784Z" transform="translate(-64.315 -64.315)"/>
      <path id="Trazado_641953" data-name="Trazado 641953" d="M142.2,37.569a.784.784,0,1,0,0-1.569h-9.411a.784.784,0,1,0,0,1.569Z" transform="translate(-90.04 -12.863)"/>
    </g>
  </g>
</svg>
