<svg xmlns="http://www.w3.org/2000/svg" width="148" height="148" viewBox="0 0 148 148">
  <g id="Grupo_969360" data-name="Grupo 969360" transform="translate(3155 1555)">
    <circle id="Elipse_8727" data-name="Elipse 8727" cx="74" cy="74" r="74" transform="translate(-3155 -1555)" fill="#583cb6"/>
    <g id="las-compras-en-linea" transform="translate(-3147 -1559.999)">
      <path id="Trazado_641767" data-name="Trazado 641767" d="M81.072,219.143H24L27.357,152H77.715Z" transform="translate(-6.321 -94.822)" fill="#eb423f"/>
      <path id="Trazado_641768" data-name="Trazado 641768" d="M296.786,219.143H283.357L280,152h13.429Z" transform="translate(-208.607 -94.822)" fill="#d13330"/>
      <path id="Trazado_641769" data-name="Trazado 641769" d="M424.786,307.643H411.357l-.21-2.713v0L408,264h13.429l3.095,40.221v0Z" transform="translate(-309.75 -183.322)" fill="#eba72e"/>
      <path id="Trazado_641770" data-name="Trazado 641770" d="M90.071,232.786H80V219.357L85.036,216l5.036,3.357Z" transform="translate(-50.571 -145.393)" fill="#f7b030"/>
      <path id="Trazado_641771" data-name="Trazado 641771" d="M259.643,307.643H216L219.357,264h36.929Z" transform="translate(-158.036 -183.322)" fill="#f7b030"/>
      <path id="Trazado_641772" data-name="Trazado 641772" d="M113.353,80.549A1.679,1.679,0,0,0,111.679,79H87.594L86.5,57.094A1.679,1.679,0,0,0,84.822,55.5H73.072V47.107A15.1,15.1,0,0,0,52.929,32.866,15.1,15.1,0,0,0,32.786,47.107V55.5H21.036a1.679,1.679,0,0,0-1.676,1.595L16,124.237A1.679,1.679,0,0,0,17.679,126h97.358a1.679,1.679,0,0,0,1.674-1.807Zm-5.031,36.726,3.578,5.367h-7.155Zm4.548.77-2.919-4.379-3.131-31.31h3.305Zm-9.424-35.689,3.147,31.462-3.684,5.525-2.845-36.988ZM84.232,79H81.073L79.888,58.857h3.336ZM76.525,58.857,77.71,79H74.164L73.157,58.857Zm-18.56-23.5a11.763,11.763,0,0,1,11.75,11.75V55.5H63V47.107a15.083,15.083,0,0,0-5.608-11.736C57.582,35.362,57.772,35.357,57.964,35.357Zm-5.036,1.136a11.765,11.765,0,0,1,6.714,10.614V55.5H46.214V47.107a11.765,11.765,0,0,1,6.714-10.614ZM36.143,47.107a11.763,11.763,0,0,1,11.75-11.75c.192,0,.382.005.572.014a15.083,15.083,0,0,0-5.608,11.736V55.5H36.143ZM56.41,122.643H19.443l3.189-63.786H32.786V69.709L28.5,72.567a1.679,1.679,0,0,0-.747,1.4V87.393a1.679,1.679,0,0,0,1.679,1.679H39.5a1.679,1.679,0,0,0,1.679-1.679V73.964a1.679,1.679,0,0,0-.747-1.4l-4.288-2.859V58.857h23.5v5.036a1.679,1.679,0,1,0,3.357,0V58.857h6.8L70.8,79H61.322a1.679,1.679,0,0,0-1.674,1.55ZM34.464,72.624l3.357,2.238V85.714H31.107V74.862Zm28.412,9.733H96.7l3.1,40.286H59.777Z" transform="translate(0 0)"/>
      <path id="Trazado_641773" data-name="Trazado 641773" d="M290.464,304a1.679,1.679,0,0,0-1.679,1.679v13.429a5.041,5.041,0,0,1-5.036,5.036h-3.357a5.041,5.041,0,0,1-5.036-5.036V305.679a1.679,1.679,0,0,0-3.357,0v13.429a8.4,8.4,0,0,0,8.393,8.393h3.357a8.4,8.4,0,0,0,8.393-8.393V305.679A1.679,1.679,0,0,0,290.464,304Z" transform="translate(-202.285 -214.929)"/>
    </g>
  </g>
</svg>
