<svg xmlns="http://www.w3.org/2000/svg" width="148" height="148" viewBox="0 0 148 148">
  <g id="Grupo_969362" data-name="Grupo 969362" transform="translate(3506 1087)">
    <circle id="Elipse_8729" data-name="Elipse 8729" cx="74" cy="74" r="74" transform="translate(-3506 -1087)" fill="#583cb6"/>
    <g id="descarga" transform="translate(-3484 -1107.975)">
      <path id="Trazado_641698" data-name="Trazado 641698" d="M399.617,277.763H372v-33a2.736,2.736,0,0,1,2.736-2.736h15a2.736,2.736,0,0,1,2.49,1.6l7.394,16.266Z" transform="translate(-296.46 -149.863)" fill="#d94929"/>
      <path id="Trazado_641699" data-name="Trazado 641699" d="M429,277.518H416V258.024h8.123L429,267.771Z" transform="translate(-331.525 -162.614)" fill="#e16d54"/>
      <path id="Trazado_641700" data-name="Trazado 641700" d="M416,266.147h12.184l-4.061-8.123H416Z" transform="translate(-331.525 -162.614)" fill="#77d3f7"/>
      <path id="Trazado_641701" data-name="Trazado 641701" d="M0,0H50.36V22.743H0Z" transform="translate(9.929 105.327) rotate(-45)" fill="#1db6f2"/>
      <path id="Trazado_641702" data-name="Trazado 641702" d="M0,0H41.229V16.09H0Z" transform="translate(15.508 104.452) rotate(-45)" fill="#77d3f7"/>
      <path id="Trazado_641703" data-name="Trazado 641703" d="M128,386.024h49.548v6.5H128Z" transform="translate(-102.008 -264.621)" fill="#f29a2e"/>
      <g id="Grupo_968146" data-name="Grupo 968146" transform="translate(35.739 118.966)">
        <circle id="Elipse_8731" data-name="Elipse 8731" cx="8.123" cy="8.123" r="8.123" transform="translate(47.923)" fill="#8f5420"/>
        <circle id="Elipse_8732" data-name="Elipse 8732" cx="8.123" cy="8.123" r="8.123" fill="#8f5420"/>
      </g>
      <path id="Trazado_641704" data-name="Trazado 641704" d="M22.073,356.132H4L7.586,344l7.789-4.114,2.683-8.7,9.441,9.441Z" transform="translate(-3.188 -220.921)" fill="#bf702a"/>
      <g id="Grupo_968147" data-name="Grupo 968147" transform="translate(39.394 122.621)">
        <circle id="Elipse_8733" data-name="Elipse 8733" cx="4.467" cy="4.467" r="4.467" transform="translate(47.923)" fill="#f5ae58"/>
        <circle id="Elipse_8734" data-name="Elipse 8734" cx="4.467" cy="4.467" r="4.467" fill="#f5ae58"/>
      </g>
      <path id="Trazado_641705" data-name="Trazado 641705" d="M0,0H3.249V9.747H0Z" transform="translate(47.778 111.38) rotate(-45)" fill="#1db6f2"/>
      <path id="Trazado_641706" data-name="Trazado 641706" d="M267.249,354.024A3.249,3.249,0,0,0,264,357.273v3.249h6.5v-3.249A3.249,3.249,0,0,0,267.249,354.024Z" transform="translate(-210.391 -239.12)" fill="#1689b5"/>
      <g id="Grupo_968148" data-name="Grupo 968148" transform="translate(0 53.975)">
        <path id="Trazado_641707" data-name="Trazado 641707" d="M103.9,109.695,96.5,93.429a3.556,3.556,0,0,0-3.229-2.08h-15A3.552,3.552,0,0,0,74.728,94.9V120.59H60.919v-2.437a4.031,4.031,0,0,0-4.63-4.017l-5.626-5.626a.812.812,0,0,0-1.149,0l-.575.575-4.723-4.723L62.2,86.377a.812.812,0,0,0,0-1.149L46.292,69.32l-1.015-5.076,8.882-8.882a.812.812,0,0,0-1.149-1.149l-9.19,9.19a.812.812,0,0,0-.222.733l1.063,5.317-35.3,35.3a.812.812,0,0,0,0,1.149l4.591,4.591-2.44,7.913-7.492,3.957a.812.812,0,0,0-.4.488L.033,134.98a.812.812,0,0,0,.779,1.043H18.885a.812.812,0,0,0,.767-.544l5-14.283.529.529V127.9a.812.812,0,0,0,.812.812h9.085a8.933,8.933,0,0,0,17.568,0H83a8.933,8.933,0,0,0,17.568,0h2.587a.812.812,0,0,0,.812-.812v-17.87a.812.812,0,0,0-.073-.336Zm-47.038,6.022a2.439,2.439,0,0,1,2.437,2.437v2.437H54.421v-2.437A2.439,2.439,0,0,1,56.858,115.717Zm-6.77-5.483,4.534,4.534a4.089,4.089,0,0,0-1.15,1.15l-4.534-4.534Zm-2.3,0-.575.575a.812.812,0,0,0,0,1.149l5.627,5.627a4.047,4.047,0,0,0-.045.569v2.437H49.985a8.911,8.911,0,0,0-12.246,0H27.987l15.08-15.08ZM18.309,134.4H1.9l3.181-10.757,7.487-3.954a.813.813,0,0,0,.4-.479l2.286-7.414,8.127,8.126Zm-7.226-29.068L45.544,70.87,60.478,85.8,26.016,120.264Zm23.844,21.758H26.8v-4.874h9.574A8.881,8.881,0,0,0,34.927,127.088Zm8.935,7.31a7.31,7.31,0,1,1,7.31-7.31A7.318,7.318,0,0,1,43.862,134.4Zm30.866-7.31H52.8a8.881,8.881,0,0,0-1.452-4.874H74.728Zm17.057,7.31a7.31,7.31,0,1,1,7.31-7.31A7.318,7.318,0,0,1,91.785,134.4Zm10.559-7.31H100.72a8.935,8.935,0,0,0-17.87,0h-6.5V94.9a1.925,1.925,0,0,1,1.923-1.923h15a1.928,1.928,0,0,1,1.75,1.128l7.321,16.1Z" transform="translate(0 -53.975)"/>
        <path id="Trazado_641708" data-name="Trazado 641708" d="M114.32,166.61l-11.377-11.377a.812.812,0,0,0-1.149,0L72.64,184.386a.812.812,0,0,0,0,1.149l11.378,11.377a.812.812,0,0,0,1.149,0l29.153-29.153a.812.812,0,0,0,0-1.149ZM84.592,195.189,74.363,184.961l28-28L112.6,167.185Z" transform="translate(-57.7 -134.481)"/>
        <path id="Trazado_641709" data-name="Trazado 641709" d="M420.935,254.024h-8.123a.812.812,0,0,0-.812.812V274.33a.812.812,0,0,0,.812.812h13a.812.812,0,0,0,.812-.812v-9.747a.814.814,0,0,0-.086-.363l-4.874-9.747A.813.813,0,0,0,420.935,254.024ZM425,264.775v8.743H413.625v-9.747h10.87Zm-11.372-2.629v-6.5h6.808l3.249,6.5Z" transform="translate(-328.338 -213.401)"/>
        <path id="Trazado_641710" data-name="Trazado 641710" d="M431.28,388.024a5.28,5.28,0,1,0,5.28,5.28A5.286,5.286,0,0,0,431.28,388.024Zm0,8.935a3.655,3.655,0,1,1,3.655-3.655A3.659,3.659,0,0,1,431.28,396.959Z" transform="translate(-339.495 -320.191)"/>
        <path id="Trazado_641711" data-name="Trazado 641711" d="M195.28,388.024a5.28,5.28,0,1,0,5.28,5.28A5.286,5.286,0,0,0,195.28,388.024Zm0,8.935a3.655,3.655,0,1,1,3.655-3.655A3.659,3.659,0,0,1,195.28,396.959Z" transform="translate(-151.418 -320.191)"/>
      </g>
    </g>
  </g>
</svg>
