<svg xmlns="http://www.w3.org/2000/svg" xmlns:xlink="http://www.w3.org/1999/xlink" width="610" height="386.77" viewBox="0 0 610 386.77">
  <defs>
    <clipPath id="clip-path">
      <path id="Trazado_646576" data-name="Trazado 646576" d="M487.543,236.879c-.821-3.307-3.357-5.87-5.79-8.257-5.255-5.155-10.575-10.362-16.893-14.139s-13.829-6.048-21.082-4.787a4706,4706,0,0,1-5.772,0c-7.253-1.26-14.764,1.01-21.082,4.787s-11.638,8.984-16.893,14.139c-2.432,2.387-4.969,4.95-5.79,8.257-1.366,5.507,2.234,8.75,4.962,12.841A102.392,102.392,0,0,0,409.756,263a10.479,10.479,0,0,0,5.976-4.787c-2.56-5.343-9.57-16.981-10.053-18.006,3.583-1.838,13.474-7.572,18.83-12.96,1.268,8.725,1.61,18.511-.846,26.978-1.206,4.154-3.3,8.376-2.331,12.59.146.628,7.322,1.483,8.086,1.592a110.308,110.308,0,0,0,22.948,0c.764-.109,7.941-.964,8.086-1.592.974-4.214-1.125-8.436-2.331-12.59-2.456-8.467-2.115-18.253-.846-26.978,5.357,5.388,15.247,11.122,18.83,12.96-.484,1.025-7.493,12.663-10.053,18.006A10.479,10.479,0,0,0,472.029,263a102.389,102.389,0,0,0,10.552-13.283C485.309,245.629,488.909,242.385,487.543,236.879Z" transform="translate(-393.942 -209.345)" fill="none"/>
    </clipPath>
  </defs>
  <g id="Grupo_969347" data-name="Grupo 969347" transform="translate(-34.801 -29.295)">
    <ellipse id="Elipse_8810" data-name="Elipse 8810" cx="295.338" cy="11.412" rx="295.338" ry="11.412" transform="translate(35.312 393.24)" fill="#1d1d1b" opacity="0.9" style="mix-blend-mode: overlay;isolation: isolate"/>
    <g id="Grupo_969303" data-name="Grupo 969303" transform="translate(34.801 30.295)">
      <g id="Grupo_969297" data-name="Grupo 969297" transform="translate(495.746 47.039)">
        <path id="Trazado_646463" data-name="Trazado 646463" d="M685.384,83.591H615.56a19.075,19.075,0,0,0-19.075,19.075h0A19.074,19.074,0,0,0,615.56,121.74h3.4v18.053l18.094-18.053h48.326a19.074,19.074,0,0,0,19.074-19.074h0A19.075,19.075,0,0,0,685.384,83.591Z" transform="translate(-596.485 -83.591)" fill="#ffcbbf"/>
        <g id="Grupo_969296" data-name="Grupo 969296" transform="translate(14.469 10.011)">
          <line id="Línea_701" data-name="Línea 701" x1="78.457" fill="none" stroke="#fff" stroke-linecap="round" stroke-linejoin="round" stroke-width="1"/>
          <line id="Línea_702" data-name="Línea 702" x1="78.457" transform="translate(0 8.929)" fill="none" stroke="#fff" stroke-linecap="round" stroke-linejoin="round" stroke-width="1"/>
          <line id="Línea_703" data-name="Línea 703" x1="35.742" transform="translate(0 17.857)" fill="none" stroke="#fff" stroke-linecap="round" stroke-linejoin="round" stroke-width="1"/>
        </g>
      </g>
      <g id="Grupo_969299" data-name="Grupo 969299" transform="translate(0 108.622)">
        <path id="Trazado_646464" data-name="Trazado 646464" d="M53.875,153.365H123.7a19.075,19.075,0,0,1,19.075,19.075h0A19.075,19.075,0,0,1,123.7,191.514h-3.4v18.053L102.2,191.514H53.875A19.074,19.074,0,0,1,34.8,172.44h0A19.074,19.074,0,0,1,53.875,153.365Z" transform="translate(-34.801 -153.365)" fill="#ffcbbf"/>
        <g id="Grupo_969298" data-name="Grupo 969298" transform="translate(15.046 10.011)">
          <line id="Línea_704" data-name="Línea 704" x1="78.457" fill="none" stroke="#fff" stroke-linecap="round" stroke-linejoin="round" stroke-width="1"/>
          <line id="Línea_705" data-name="Línea 705" x1="78.457" transform="translate(0 8.929)" fill="none" stroke="#fff" stroke-linecap="round" stroke-linejoin="round" stroke-width="1"/>
          <line id="Línea_706" data-name="Línea 706" x1="35.742" transform="translate(0 17.857)" fill="none" stroke="#fff" stroke-linecap="round" stroke-linejoin="round" stroke-width="1"/>
        </g>
      </g>
      <g id="Grupo_969300" data-name="Grupo 969300" transform="translate(36.239 11.855)">
        <path id="Trazado_646465" data-name="Trazado 646465" d="M149.63,83.111a33.692,33.692,0,0,0-1.778-10.362,3.784,3.784,0,0,1,1.59-4.4l.01-.006a3.809,3.809,0,0,0,1.193-5.254l-1.38-2.19a3.81,3.81,0,0,0-5.254-1.192l-.012.008a3.783,3.783,0,0,1-4.65-.462,33.788,33.788,0,0,0-8.583-6.078,3.776,3.776,0,0,1-1.969-4.226v0a3.81,3.81,0,0,0-2.873-4.558l-2.52-.572a3.81,3.81,0,0,0-4.559,2.873h0a3.775,3.775,0,0,1-3.6,2.964,33.7,33.7,0,0,0-10.364,1.778,3.782,3.782,0,0,1-4.4-1.589l-.006-.01a3.81,3.81,0,0,0-5.252-1.192L93.04,50.023a3.808,3.808,0,0,0-1.194,5.255l.006.011a3.781,3.781,0,0,1-.462,4.65,33.786,33.786,0,0,0-6.077,8.583,3.776,3.776,0,0,1-4.226,1.969h0a3.811,3.811,0,0,0-4.559,2.873l-.571,2.52a3.81,3.81,0,0,0,2.873,4.559h0a3.776,3.776,0,0,1,2.964,3.6A33.7,33.7,0,0,0,83.57,94.406a3.782,3.782,0,0,1-1.59,4.4l-.01.006a3.811,3.811,0,0,0-1.192,5.252l1.378,2.189a3.809,3.809,0,0,0,5.255,1.193l.011-.006a3.781,3.781,0,0,1,4.65.462,33.786,33.786,0,0,0,8.583,6.077,3.776,3.776,0,0,1,1.969,4.226v0a3.81,3.81,0,0,0,2.872,4.558l2.52.572a3.81,3.81,0,0,0,4.559-2.874h0a3.777,3.777,0,0,1,3.6-2.964,33.7,33.7,0,0,0,10.364-1.778,3.781,3.781,0,0,1,4.394,1.59l.006.01a3.811,3.811,0,0,0,5.252,1.192l2.189-1.378a3.81,3.81,0,0,0,1.194-5.255l-.007-.011a3.781,3.781,0,0,1,.462-4.65,33.766,33.766,0,0,0,6.078-8.583,3.775,3.775,0,0,1,4.226-1.969h0a3.809,3.809,0,0,0,4.558-2.873l.572-2.52a3.81,3.81,0,0,0-2.873-4.559h0A3.776,3.776,0,0,1,149.63,83.111Zm-12.28,5.376a22.189,22.189,0,1,1-16.73-26.55A22.186,22.186,0,0,1,137.35,88.487Z" transform="translate(-75.86 -43.726)" fill="#1d1d1b" opacity="0.8" style="mix-blend-mode: overlay;isolation: isolate"/>
        <path id="Trazado_646466" data-name="Trazado 646466" d="M119.668,59.582a25.932,25.932,0,1,0,23.741,23.742A25.939,25.939,0,0,0,119.668,59.582Zm-7.016,47.486A22.189,22.189,0,1,1,139.2,90.339,22.186,22.186,0,0,1,112.652,107.068Z" transform="translate(-77.712 -45.578)" fill="#1d1d1b" opacity="0.3" style="mix-blend-mode: overlay;isolation: isolate"/>
      </g>
      <g id="Grupo_969301" data-name="Grupo 969301" transform="translate(477.79 110.239)">
        <path id="Trazado_646467" data-name="Trazado 646467" d="M649.911,194.582a33.719,33.719,0,0,0-1.777-10.362,3.782,3.782,0,0,1,1.589-4.4l.011-.006a3.81,3.81,0,0,0,1.192-5.255l-1.38-2.189a3.81,3.81,0,0,0-5.254-1.192l-.012.008a3.782,3.782,0,0,1-4.65-.462,33.763,33.763,0,0,0-8.582-6.078,3.775,3.775,0,0,1-1.969-4.226v0a3.81,3.81,0,0,0-2.872-4.558l-2.521-.572a3.81,3.81,0,0,0-4.559,2.873h0a3.775,3.775,0,0,1-3.6,2.964,33.7,33.7,0,0,0-10.364,1.778,3.783,3.783,0,0,1-4.4-1.589l-.006-.01a3.81,3.81,0,0,0-5.252-1.192l-2.188,1.378a3.81,3.81,0,0,0-1.194,5.255l.007.011a3.781,3.781,0,0,1-.462,4.65,33.788,33.788,0,0,0-6.077,8.583,3.776,3.776,0,0,1-4.226,1.969h0a3.81,3.81,0,0,0-4.558,2.873l-.572,2.52a3.81,3.81,0,0,0,2.873,4.559h0a3.776,3.776,0,0,1,2.964,3.6,33.7,33.7,0,0,0,1.778,10.364,3.783,3.783,0,0,1-1.589,4.4l-.01.006a3.81,3.81,0,0,0-1.192,5.252l1.377,2.188a3.81,3.81,0,0,0,5.256,1.194l.011-.006a3.781,3.781,0,0,1,4.65.462,33.78,33.78,0,0,0,8.583,6.077,3.776,3.776,0,0,1,1.97,4.226v0a3.811,3.811,0,0,0,2.873,4.559l2.52.571a3.81,3.81,0,0,0,4.559-2.873h0a3.776,3.776,0,0,1,3.6-2.964,33.7,33.7,0,0,0,10.364-1.778,3.782,3.782,0,0,1,4.4,1.59l.006.01a3.811,3.811,0,0,0,5.252,1.192l2.188-1.378a3.81,3.81,0,0,0,1.194-5.255l-.007-.011a3.78,3.78,0,0,1,.463-4.65,33.786,33.786,0,0,0,6.077-8.583,3.775,3.775,0,0,1,4.226-1.969h0a3.81,3.81,0,0,0,4.559-2.872l.571-2.52a3.809,3.809,0,0,0-2.873-4.559h0A3.777,3.777,0,0,1,649.911,194.582Zm-12.28,5.376a22.189,22.189,0,1,1-16.73-26.55A22.186,22.186,0,0,1,637.631,199.958Z" transform="translate(-576.141 -155.197)" fill="#1d1d1b" opacity="0.8" style="mix-blend-mode: overlay;isolation: isolate"/>
        <path id="Trazado_646468" data-name="Trazado 646468" d="M619.949,171.053A25.932,25.932,0,1,0,643.69,194.8,25.939,25.939,0,0,0,619.949,171.053Zm-7.015,47.486a22.189,22.189,0,1,1,26.549-16.729A22.186,22.186,0,0,1,612.934,218.539Z" transform="translate(-577.992 -157.049)" fill="#1d1d1b" opacity="0.3" style="mix-blend-mode: overlay;isolation: isolate"/>
      </g>
      <g id="Grupo_969302" data-name="Grupo 969302" transform="translate(530.297 166.803)">
        <path id="Trazado_646469" data-name="Trazado 646469" d="M709.4,258.669a33.726,33.726,0,0,0-1.778-10.363,3.781,3.781,0,0,1,1.59-4.4l.01-.006a3.811,3.811,0,0,0,1.193-5.255l-1.379-2.189a3.811,3.811,0,0,0-5.255-1.192l-.012.008a3.781,3.781,0,0,1-4.65-.462,33.784,33.784,0,0,0-8.583-6.077,3.775,3.775,0,0,1-1.969-4.226v0a3.811,3.811,0,0,0-2.873-4.559l-2.52-.571a3.809,3.809,0,0,0-4.559,2.873h0a3.776,3.776,0,0,1-3.6,2.964,33.7,33.7,0,0,0-10.364,1.778,3.782,3.782,0,0,1-4.395-1.589l-.006-.011A3.81,3.81,0,0,0,655,224.2l-2.189,1.377a3.811,3.811,0,0,0-1.194,5.256l.007.011a3.783,3.783,0,0,1-.462,4.65,33.757,33.757,0,0,0-6.077,8.582,3.776,3.776,0,0,1-4.227,1.969h0a3.81,3.81,0,0,0-4.558,2.872l-.572,2.521A3.811,3.811,0,0,0,638.6,256h0a3.774,3.774,0,0,1,2.963,3.6,33.753,33.753,0,0,0,1.777,10.364,3.779,3.779,0,0,1-1.589,4.395l-.01.007a3.809,3.809,0,0,0-1.192,5.251l1.378,2.189A3.81,3.81,0,0,0,647.184,283l.011-.007a3.78,3.78,0,0,1,4.65.462,33.786,33.786,0,0,0,8.583,6.077,3.775,3.775,0,0,1,1.969,4.226v0a3.809,3.809,0,0,0,2.873,4.558l2.52.572a3.81,3.81,0,0,0,4.559-2.873h0a3.776,3.776,0,0,1,3.6-2.964,33.7,33.7,0,0,0,10.363-1.778,3.783,3.783,0,0,1,4.4,1.589l.006.01a3.81,3.81,0,0,0,5.252,1.192l2.189-1.378a3.809,3.809,0,0,0,1.193-5.255l-.006-.011a3.783,3.783,0,0,1,.462-4.65,33.756,33.756,0,0,0,6.077-8.582,3.777,3.777,0,0,1,4.227-1.97h0a3.81,3.81,0,0,0,4.558-2.873l.572-2.52a3.81,3.81,0,0,0-2.874-4.559h0A3.775,3.775,0,0,1,709.4,258.669Zm-12.281,5.375A22.189,22.189,0,1,1,680.393,237.5,22.186,22.186,0,0,1,697.122,264.044Z" transform="translate(-635.632 -219.284)" fill="#1d1d1b" opacity="0.8" style="mix-blend-mode: overlay;isolation: isolate"/>
        <path id="Trazado_646470" data-name="Trazado 646470" d="M679.44,235.14a25.932,25.932,0,1,0,23.741,23.742A25.938,25.938,0,0,0,679.44,235.14Zm-7.015,47.486a22.189,22.189,0,1,1,26.549-16.73A22.185,22.185,0,0,1,672.425,282.626Z" transform="translate(-637.484 -221.136)" fill="#1d1d1b" opacity="0.3" style="mix-blend-mode: overlay;isolation: isolate"/>
      </g>
      <circle id="Elipse_8811" data-name="Elipse 8811" cx="17.953" cy="17.953" r="17.953" transform="translate(9.746 187.646)" fill="none" stroke="#ffcbbf" stroke-miterlimit="10" stroke-width="2" stroke-dasharray="7"/>
      <circle id="Elipse_8812" data-name="Elipse 8812" cx="11.854" cy="11.854" r="11.854" transform="translate(576.247 111.862)" fill="none" stroke="#ffcbbf" stroke-miterlimit="10" stroke-width="2" stroke-dasharray="7"/>
      <circle id="Elipse_8813" data-name="Elipse 8813" cx="11.854" cy="11.854" r="11.854" transform="translate(189.794)" fill="none" stroke="#ffcbbf" stroke-miterlimit="10" stroke-width="2" stroke-dasharray="7"/>
    </g>
    <rect id="Rectángulo_308715" data-name="Rectángulo 308715" width="399.113" height="251.84" rx="8.96" transform="translate(131.092 73.88)" fill="#fff"/>
    <g id="Grupo_969304" data-name="Grupo 969304" transform="translate(119.101 62.182)">
      <path id="Trazado_646471" data-name="Trazado 646471" d="M413.828,438.427H296.487l15.225-60.637,3.856-15.378h79.17L398.6,377.79Z" transform="translate(-149.822 -101.17)" fill="#c5deeb"/>
      <path id="Trazado_646472" data-name="Trazado 646472" d="M406.872,406.469H305.578l11.056-44.057H395.8Z" transform="translate(-150.889 -101.17)" fill="#1d1d1b" opacity="0.3" style="mix-blend-mode: overlay;isolation: isolate"/>
      <line id="Línea_707" data-name="Línea 707" x1="169.207" transform="translate(120.886 339.331)" fill="none" stroke="#99bccf" stroke-linecap="round" stroke-miterlimit="10" stroke-width="5"/>
      <path id="Trazado_646473" data-name="Trazado 646473" d="M143.631,353.226a13.59,13.59,0,0,1-13.317-13.847V80.27a13.59,13.59,0,0,1,13.317-13.847H540.095a13.589,13.589,0,0,1,13.316,13.846V339.38a13.588,13.588,0,0,1-13.316,13.846Z" transform="translate(-130.314 -66.423)" fill="#c5deeb"/>
      <path id="Trazado_646474" data-name="Trazado 646474" d="M543.011,87.291V304.562c0,4.016-3.53,7.273-7.908,7.273H151.813c-4.369,0-7.908-3.257-7.908-7.273V87.291c0-4.025,3.539-7.282,7.908-7.282H535.1C539.48,80.009,543.011,83.266,543.011,87.291Z" transform="translate(-131.91 -68.018)" fill="#fcfeff"/>
    </g>
    <g id="Grupo_969306" data-name="Grupo 969306" transform="translate(253.31 46.809)">
      <path id="Trazado_646475" data-name="Trazado 646475" d="M406.359,49.005H300.949a18.575,18.575,0,1,0,0,37.151H383.88l17.62,17.581V86.156h4.859a18.575,18.575,0,0,0,0-37.151Z" transform="translate(-282.373 -49.005)" fill="#ffcbbf"/>
      <g id="Grupo_969305" data-name="Grupo 969305" transform="translate(18.64 9.508)">
        <line id="Línea_708" data-name="Línea 708" x1="107.728" fill="none" stroke="#fff" stroke-linecap="round" stroke-linejoin="round" stroke-width="1"/>
        <line id="Línea_709" data-name="Línea 709" x1="107.728" transform="translate(0 8.929)" fill="none" stroke="#fff" stroke-linecap="round" stroke-linejoin="round" stroke-width="1"/>
        <line id="Línea_710" data-name="Línea 710" x1="65.013" transform="translate(0 17.857)" fill="none" stroke="#fff" stroke-linecap="round" stroke-linejoin="round" stroke-width="1"/>
      </g>
    </g>
    <g id="Grupo_969330" data-name="Grupo 969330" transform="translate(142.148 87.196)">
      <g id="Grupo_969308" data-name="Grupo 969308" transform="translate(0)">
        <path id="Trazado_646476" data-name="Trazado 646476" d="M282.919,99.071v81.784a4.3,4.3,0,0,1-4.308,4.3H160.733a4.3,4.3,0,0,1-4.307-4.3V99.071a4.305,4.305,0,0,1,4.307-4.307H278.611A4.306,4.306,0,0,1,282.919,99.071Z" transform="translate(-156.426 -94.764)" fill="#e0efff"/>
        <path id="Trazado_646477" data-name="Trazado 646477" d="M282.919,99.071v7.907H156.426V99.071a4.305,4.305,0,0,1,4.307-4.307H278.611A4.306,4.306,0,0,1,282.919,99.071Z" transform="translate(-156.426 -94.764)" fill="#7db3e4"/>
        <path id="Trazado_646478" data-name="Trazado 646478" d="M210.5,116.263l-3.776,14.7a17.627,17.627,0,0,0-16.382,3.193c-2.965-4.754-6.127-9.8-8.1-12.877a32.741,32.741,0,0,1,28.261-5.013Z" transform="translate(-159.457 -97.14)" fill="#ff6862"/>
        <path id="Trazado_646479" data-name="Trazado 646479" d="M235.08,150.365A32.777,32.777,0,0,1,189.241,180.4l5.274-14.271a17.6,17.6,0,0,0,23.944-22.81l13.834-6.2A32.676,32.676,0,0,1,235.08,150.365Z" transform="translate(-160.278 -99.737)" fill="#9e92d2"/>
        <path id="Trazado_646480" data-name="Trazado 646480" d="M234.728,134.695l-13.834,6.2a17.624,17.624,0,0,0-10.911-9.767l3.776-14.7A32.821,32.821,0,0,1,234.728,134.695Z" transform="translate(-162.713 -97.307)" fill="#ffcd5e"/>
        <path id="Trazado_646481" data-name="Trazado 646481" d="M191.9,164.371l-5.274,14.271a32.756,32.756,0,0,1-6.178-56.532c1.976,3.079,5.139,8.124,8.1,12.877a17.591,17.591,0,0,0,3.349,29.384Z" transform="translate(-157.661 -97.974)" fill="#ffcd5e"/>
        <rect id="Rectángulo_308716" data-name="Rectángulo 308716" width="18.571" height="12.999" transform="translate(89.889 21.458)" fill="#ff6862"/>
        <rect id="Rectángulo_308717" data-name="Rectángulo 308717" width="18.571" height="12.999" transform="translate(89.889 42.372)" fill="#9e92d2"/>
        <rect id="Rectángulo_308718" data-name="Rectángulo 308718" width="18.571" height="12.999" transform="translate(89.889 63.285)" fill="#ffcd5e"/>
        <g id="Grupo_969307" data-name="Grupo 969307" transform="translate(4.285 2.911)">
          <path id="Trazado_646482" data-name="Trazado 646482" d="M185.69,101.259a3.2,3.2,0,1,0,3.2-3.2A3.2,3.2,0,0,0,185.69,101.259Z" transform="translate(-164.146 -98.062)" fill="#92d49f"/>
          <path id="Trazado_646483" data-name="Trazado 646483" d="M173.485,101.259a3.2,3.2,0,1,0,3.2-3.2A3.2,3.2,0,0,0,173.485,101.259Z" transform="translate(-162.713 -98.062)" fill="#ffcd5e"/>
          <circle id="Elipse_8814" data-name="Elipse 8814" cx="3.196" cy="3.196" r="3.196" transform="translate(0 0)" fill="#bf514d"/>
        </g>
      </g>
      <g id="Grupo_969318" data-name="Grupo 969318" transform="translate(97.839 84.16)">
        <path id="Trazado_646484" data-name="Trazado 646484" d="M421.5,195.37v99.715a5.247,5.247,0,0,1-5.252,5.238H272.53a5.247,5.247,0,0,1-5.252-5.238V195.37a5.25,5.25,0,0,1,5.252-5.252H416.251A5.25,5.25,0,0,1,421.5,195.37Z" transform="translate(-267.278 -190.118)" fill="#e0efff"/>
        <g id="Grupo_969316" data-name="Grupo 969316" transform="translate(15.034 28.667)">
          <path id="Rectángulo_308719" data-name="Rectángulo 308719" d="M2.781,0H124.225a2.782,2.782,0,0,1,2.782,2.782V65.753a2.782,2.782,0,0,1-2.782,2.782H2.781A2.781,2.781,0,0,1,0,65.754V2.781A2.781,2.781,0,0,1,2.781,0Z" fill="#bdd1f2" opacity="0.72"/>
          <g id="Grupo_969315" data-name="Grupo 969315" transform="translate(11.907 10.144)">
            <g id="Grupo_969309" data-name="Grupo 969309" opacity="0.5">
              <line id="Línea_711" data-name="Línea 711" x2="103.193" fill="none" stroke="#82b6ed" stroke-linecap="round" stroke-linejoin="round" stroke-width="2"/>
            </g>
            <g id="Grupo_969310" data-name="Grupo 969310" transform="translate(0 9.649)" opacity="0.5">
              <line id="Línea_712" data-name="Línea 712" x2="103.193" fill="none" stroke="#82b6ed" stroke-linecap="round" stroke-linejoin="round" stroke-width="2"/>
            </g>
            <g id="Grupo_969311" data-name="Grupo 969311" transform="translate(0 19.298)" opacity="0.5">
              <line id="Línea_713" data-name="Línea 713" x2="103.193" fill="none" stroke="#82b6ed" stroke-linecap="round" stroke-linejoin="round" stroke-width="2"/>
            </g>
            <g id="Grupo_969312" data-name="Grupo 969312" transform="translate(0 28.948)" opacity="0.5">
              <line id="Línea_714" data-name="Línea 714" x2="103.193" fill="none" stroke="#82b6ed" stroke-linecap="round" stroke-linejoin="round" stroke-width="2"/>
            </g>
            <g id="Grupo_969313" data-name="Grupo 969313" transform="translate(0 38.597)" opacity="0.5">
              <line id="Línea_715" data-name="Línea 715" x2="103.193" fill="none" stroke="#82b6ed" stroke-linecap="round" stroke-linejoin="round" stroke-width="2"/>
            </g>
            <g id="Grupo_969314" data-name="Grupo 969314" transform="translate(0 48.246)" opacity="0.5">
              <line id="Línea_716" data-name="Línea 716" x2="103.193" fill="none" stroke="#82b6ed" stroke-linecap="round" stroke-linejoin="round" stroke-width="2"/>
            </g>
          </g>
        </g>
        <path id="Trazado_646485" data-name="Trazado 646485" d="M421.5,195.37v9.642H267.278V195.37a5.25,5.25,0,0,1,5.252-5.252H416.251A5.25,5.25,0,0,1,421.5,195.37Z" transform="translate(-267.278 -190.118)" fill="#7db3e4"/>
        <path id="Trazado_646486" data-name="Trazado 646486" d="M302.688,281.439l22-18.919,7.1,8.261,18.6-15.993,7.464,8.679,24.713-21.252" transform="translate(-271.435 -196.234)" fill="none" stroke="#fff" stroke-linecap="round" stroke-linejoin="round" stroke-width="3"/>
        <path id="Trazado_646487" data-name="Trazado 646487" d="M381.036,241.844l13.9-2.789-4.483,12.527" transform="translate(-280.632 -195.863)" fill="none" stroke="#fff" stroke-linecap="round" stroke-linejoin="round" stroke-width="3"/>
        <g id="Grupo_969317" data-name="Grupo 969317" transform="translate(5.225 3.549)">
          <path id="Trazado_646488" data-name="Trazado 646488" d="M302.959,198.037a3.9,3.9,0,1,0,3.9-3.9A3.9,3.9,0,0,0,302.959,198.037Z" transform="translate(-276.691 -194.139)" fill="#92d49f"/>
          <path id="Trazado_646489" data-name="Trazado 646489" d="M288.078,198.037a3.9,3.9,0,1,0,3.9-3.9A3.9,3.9,0,0,0,288.078,198.037Z" transform="translate(-274.944 -194.139)" fill="#ffcd5e"/>
          <circle id="Elipse_8815" data-name="Elipse 8815" cx="3.897" cy="3.897" r="3.897" transform="translate(0 0)" fill="#bf514d"/>
        </g>
      </g>
      <g id="Grupo_969320" data-name="Grupo 969320" transform="translate(286.46 106.8)">
        <g id="Grupo_969319" data-name="Grupo 969319" transform="translate(7.076 15.502)">
          <rect id="Rectángulo_308720" data-name="Rectángulo 308720" width="9.077" height="30.815" transform="translate(0 13.615)" fill="#d1e7ff"/>
          <rect id="Rectángulo_308721" data-name="Rectángulo 308721" width="9.077" height="44.429" transform="translate(15.62)" fill="#d1e7ff"/>
          <rect id="Rectángulo_308722" data-name="Rectángulo 308722" width="9.077" height="30.815" transform="translate(31.24 13.615)" fill="#d1e7ff"/>
          <rect id="Rectángulo_308723" data-name="Rectángulo 308723" width="9.077" height="38.356" transform="translate(46.86 6.074)" fill="#d1e7ff"/>
        </g>
        <rect id="Rectángulo_308724" data-name="Rectángulo 308724" width="69.822" height="5.887" transform="translate(0 65.64)" fill="#e0efff"/>
        <rect id="Rectángulo_308725" data-name="Rectángulo 308725" width="47.392" height="5.887" transform="translate(0 74.165)" fill="#e0efff"/>
        <path id="Trazado_646490" data-name="Trazado 646490" d="M482.227,215.769V275.7h68.729" transform="translate(-481.133 -215.769)" fill="none" stroke="#e0efff" stroke-linecap="round" stroke-linejoin="round" stroke-width="2"/>
      </g>
      <g id="Grupo_969321" data-name="Grupo 969321" transform="translate(3.48 112.604)">
        <rect id="Rectángulo_308726" data-name="Rectángulo 308726" width="71.965" height="10.367" fill="#e0efff"/>
        <rect id="Rectángulo_308727" data-name="Rectángulo 308727" width="60.492" height="10.367" transform="translate(0 17.243)" fill="#e0efff"/>
        <rect id="Rectángulo_308728" data-name="Rectángulo 308728" width="66.67" height="10.367" transform="translate(0 34.485)" fill="#e0efff"/>
        <rect id="Rectángulo_308729" data-name="Rectángulo 308729" width="75.496" height="10.367" transform="translate(0 51.728)" fill="#e0efff"/>
        <rect id="Rectángulo_308730" data-name="Rectángulo 308730" width="79.026" height="10.367" transform="translate(0 68.29)" fill="#e0efff"/>
      </g>
      <g id="Grupo_969327" data-name="Grupo 969327" transform="translate(144.976 4.688)">
        <g id="Grupo_969322" data-name="Grupo 969322" transform="translate(0)">
          <path id="Trazado_646491" data-name="Trazado 646491" d="M351.706,115.574a17.571,17.571,0,0,1,19.878,10.661c4.487-2.246,9.087-4.3,13.757-6.334a32.457,32.457,0,0,0-8.086-11.322h0a32.644,32.644,0,0,0-40.386-2.808c2.689,4.266,5.272,8.611,7.844,12.975A17.46,17.46,0,0,1,351.706,115.574Z" transform="translate(-322.585 -100.075)" fill="#e0efff"/>
          <path id="Trazado_646492" data-name="Trazado 646492" d="M336.184,137.111a17.4,17.4,0,0,1,.2-8,17.615,17.615,0,0,1,6.425-9.6c-2.572-4.364-5.154-8.71-7.844-12.975a32.691,32.691,0,0,0,6.026,57.263c1.737-4.738,3.534-9.452,5.641-14.042A17.546,17.546,0,0,1,336.184,137.111Z" transform="translate(-320.685 -100.833)" fill="#badbff"/>
          <path id="Trazado_646493" data-name="Trazado 646493" d="M388.1,128.764a32.788,32.788,0,0,0-1.955-6.227c-4.67,2.039-9.27,4.088-13.757,6.334a17.682,17.682,0,0,1,.894,2.972,17.339,17.339,0,0,1,.288,5.263,17.556,17.556,0,0,1-24.23,14.522c-2.107,4.59-3.9,9.3-5.641,14.042a32.692,32.692,0,0,0,44.4-36.906Z" transform="translate(-323.387 -102.712)" fill="#d1e7ff"/>
        </g>
        <g id="Grupo_969326" data-name="Grupo 969326" transform="translate(77.947 12.638)">
          <rect id="Rectángulo_308731" data-name="Rectángulo 308731" width="8.166" height="8.166" fill="#e0efff"/>
          <rect id="Rectángulo_308732" data-name="Rectángulo 308732" width="8.166" height="8.166" transform="translate(0 17.607)" fill="#d1e7ff"/>
          <rect id="Rectángulo_308733" data-name="Rectángulo 308733" width="8.166" height="8.166" transform="translate(0 35.214)" fill="#badbff"/>
          <g id="Grupo_969323" data-name="Grupo 969323" transform="translate(13.43 1.472)">
            <line id="Línea_717" data-name="Línea 717" x2="27.071" fill="none" stroke="#e0efff" stroke-linecap="round" stroke-linejoin="round" stroke-width="2"/>
            <line id="Línea_718" data-name="Línea 718" x2="19.127" transform="translate(0 5.221)" fill="none" stroke="#e0efff" stroke-linecap="round" stroke-linejoin="round" stroke-width="2"/>
          </g>
          <g id="Grupo_969324" data-name="Grupo 969324" transform="translate(13.43 19.079)">
            <line id="Línea_719" data-name="Línea 719" x2="27.071" fill="none" stroke="#e0efff" stroke-linecap="round" stroke-linejoin="round" stroke-width="2"/>
            <line id="Línea_720" data-name="Línea 720" x2="19.127" transform="translate(0 5.221)" fill="none" stroke="#e0efff" stroke-linecap="round" stroke-linejoin="round" stroke-width="2"/>
          </g>
          <g id="Grupo_969325" data-name="Grupo 969325" transform="translate(13.43 36.686)">
            <line id="Línea_721" data-name="Línea 721" x2="27.071" fill="none" stroke="#e0efff" stroke-linecap="round" stroke-linejoin="round" stroke-width="2"/>
            <line id="Línea_722" data-name="Línea 722" x2="19.127" transform="translate(0 5.221)" fill="none" stroke="#e0efff" stroke-linecap="round" stroke-linejoin="round" stroke-width="2"/>
          </g>
        </g>
      </g>
      <g id="Grupo_969329" data-name="Grupo 969329" transform="translate(275.351 26.175)">
        <rect id="Rectángulo_308734" data-name="Rectángulo 308734" width="95.747" height="68.418" rx="3.694" transform="translate(0 0)" fill="#e0efff"/>
        <path id="Trazado_646494" data-name="Trazado 646494" d="M564.148,136.3v-8.622a3.259,3.259,0,0,0-3.26-3.26H471.661a3.259,3.259,0,0,0-3.26,3.26V136.3Z" transform="translate(-468.401 -124.421)" fill="#7db3e4"/>
        <path id="Trazado_646495" data-name="Trazado 646495" d="M496.358,179.31,489.6,168.389l-6.215,10.921h3.409v7.723h6.154V179.31Z" transform="translate(-470.16 -129.583)" fill="#ffcd5e"/>
        <path id="Trazado_646496" data-name="Trazado 646496" d="M516.394,169.648l-6.758-10.921-6.215,10.921h3.409V185.9h6.154V169.648Z" transform="translate(-472.512 -128.448)" fill="#b9afe3"/>
        <path id="Trazado_646497" data-name="Trazado 646497" d="M536.43,160.283l-6.758-10.921-6.215,10.921h3.409V184.8h6.154V160.283Z" transform="translate(-474.864 -127.349)" fill="#ffcd5e"/>
        <path id="Trazado_646498" data-name="Trazado 646498" d="M556.466,154.1l-6.758-10.921L543.494,154.1H546.9v29.978h6.154V154.1Z" transform="translate(-477.216 -126.623)" fill="#b9afe3"/>
        <g id="Grupo_969328" data-name="Grupo 969328" transform="translate(4.607 2.745)">
          <path id="Trazado_646499" data-name="Trazado 646499" d="M498.03,130.727a3.2,3.2,0,1,0,3.2-3.2A3.2,3.2,0,0,0,498.03,130.727Z" transform="translate(-476.486 -127.531)" fill="#92d49f"/>
          <path id="Trazado_646500" data-name="Trazado 646500" d="M485.825,130.727a3.2,3.2,0,1,0,3.2-3.2A3.2,3.2,0,0,0,485.825,130.727Z" transform="translate(-475.053 -127.531)" fill="#ffcd5e"/>
          <circle id="Elipse_8816" data-name="Elipse 8816" cx="3.196" cy="3.196" r="3.196" fill="#bf514d"/>
        </g>
        <line id="Línea_723" data-name="Línea 723" x1="73.152" transform="translate(11.109 57.451)" fill="none" stroke="#bdddff" stroke-linecap="round" stroke-linejoin="round" stroke-width="2"/>
      </g>
    </g>
    <g id="Grupo_969331" data-name="Grupo 969331" transform="translate(173.488 74.173)">
      <path id="Trazado_646501" data-name="Trazado 646501" d="M548.649,87.291V304.562c0,4.016-3.531,7.273-7.908,7.273H191.935C237.2,288.083,280.4,260.528,320,228.252c51.174-41.712,96.248-91.562,129.893-148.243h90.847C545.119,80.009,548.649,83.266,548.649,87.291Z" transform="translate(-191.935 -80.009)" fill="#1d1d1b" opacity="0.3" style="mix-blend-mode: overlay;isolation: isolate"/>
      <path id="Trazado_646502" data-name="Trazado 646502" d="M563.492,87.291V304.562c0,4.016-3.53,7.273-7.908,7.273H318.375c31.112-25.675,59.558-54.766,85.357-85.781,37.74-45.375,70.07-94.915,99.646-146.045h52.206C559.962,80.009,563.492,83.266,563.492,87.291Z" transform="translate(-206.778 -80.009)" fill="#1d1d1b" opacity="0.3" style="mix-blend-mode: overlay;isolation: isolate"/>
    </g>
    <g id="Grupo_969336" data-name="Grupo 969336" transform="translate(388.889 152.102)">
      <g id="Grupo_969332" data-name="Grupo 969332" transform="translate(20.458 245.819)">
        <path id="Trazado_646503" data-name="Trazado 646503" d="M587.371,452.947c-.039.631-.1,1.272-.155,1.913H554.449a3.77,3.77,0,0,1,.194-1.913,6.007,6.007,0,0,1,3.049-3.175,16.7,16.7,0,0,1,6.32-1.049,12.4,12.4,0,0,0,6.193-1.447,5.439,5.439,0,0,0,2.108-2.534c.3-.786-.234-2.573.728-2.932.612-.223,2.068.388,2.67.553.9.252,1.776.553,2.67.815a10.593,10.593,0,0,0,8.989-1.34A80,80,0,0,1,587.371,452.947Z" transform="translate(-554.401 -441.763)" fill="#fff"/>
        <path id="Trazado_646504" data-name="Trazado 646504" d="M587.371,454.435c-.039.631-.1,1.272-.155,1.913H554.449a3.77,3.77,0,0,1,.194-1.913Z" transform="translate(-554.401 -443.251)" fill="#003450"/>
        <path id="Trazado_646505" data-name="Trazado 646505" d="M565.594,449.389a7.392,7.392,0,0,1,1.127,2.03" transform="translate(-555.715 -442.658)" fill="none" stroke="#003450" stroke-linejoin="round" stroke-width="0.4"/>
        <path id="Trazado_646506" data-name="Trazado 646506" d="M568.548,448.817a7.372,7.372,0,0,1,1.128,2.03" transform="translate(-556.062 -442.591)" fill="none" stroke="#003450" stroke-linejoin="round" stroke-width="0.4"/>
        <path id="Trazado_646507" data-name="Trazado 646507" d="M571.5,448.246a7.386,7.386,0,0,1,1.127,2.029" transform="translate(-556.409 -442.524)" fill="none" stroke="#003450" stroke-linejoin="round" stroke-width="0.4"/>
        <path id="Trazado_646508" data-name="Trazado 646508" d="M587.58,453.048a4.122,4.122,0,0,1,3.435-5.7" transform="translate(-558.26 -442.419)" fill="none" stroke="#003450" stroke-linejoin="round" stroke-width="0.4"/>
      </g>
      <g id="Grupo_969333" data-name="Grupo 969333" transform="translate(99.493 245.819)">
        <path id="Trazado_646509" data-name="Trazado 646509" d="M644.141,452.947c.039.631.1,1.272.155,1.913h32.767a3.769,3.769,0,0,0-.194-1.913,6.009,6.009,0,0,0-3.048-3.175,16.7,16.7,0,0,0-6.32-1.049,12.4,12.4,0,0,1-6.194-1.447,5.432,5.432,0,0,1-2.107-2.534c-.3-.786.233-2.573-.728-2.932-.612-.223-2.068.388-2.67.553-.9.252-1.777.553-2.67.815a10.594,10.594,0,0,1-8.99-1.34A80,80,0,0,0,644.141,452.947Z" transform="translate(-643.948 -441.763)" fill="#fff"/>
        <path id="Trazado_646510" data-name="Trazado 646510" d="M644.167,454.435c.039.631.1,1.272.155,1.913h32.767a3.769,3.769,0,0,0-.194-1.913Z" transform="translate(-643.974 -443.251)" fill="#003450"/>
        <path id="Trazado_646511" data-name="Trazado 646511" d="M670.18,449.389a7.371,7.371,0,0,0-1.128,2.03" transform="translate(-646.895 -442.658)" fill="none" stroke="#003450" stroke-linejoin="round" stroke-width="0.4"/>
        <path id="Trazado_646512" data-name="Trazado 646512" d="M667.225,448.817a7.393,7.393,0,0,0-1.127,2.03" transform="translate(-646.549 -442.591)" fill="none" stroke="#003450" stroke-linejoin="round" stroke-width="0.4"/>
        <path id="Trazado_646513" data-name="Trazado 646513" d="M664.271,448.246a7.362,7.362,0,0,0-1.128,2.029" transform="translate(-646.202 -442.524)" fill="none" stroke="#003450" stroke-linejoin="round" stroke-width="0.4"/>
        <path id="Trazado_646514" data-name="Trazado 646514" d="M647.844,453.048a4.122,4.122,0,0,0-3.435-5.7" transform="translate(-644.003 -442.419)" fill="none" stroke="#003450" stroke-linejoin="round" stroke-width="0.4"/>
      </g>
      <path id="Trazado_646515" data-name="Trazado 646515" d="M548.364,231.873a4.063,4.063,0,0,1-2.15-2.182c-.452-.946-.7-1.976-1.077-2.952a11.263,11.263,0,0,0-4.743-5.566c-2.431-1.429-4.155-3.752-6.356-5.5-.381-.3-3.14-2.441-2.785-.651a2.456,2.456,0,0,0,.372.807,36.041,36.041,0,0,0,4.184,5.475c-.974.353-1.162.891-1.226,1.916a3.427,3.427,0,0,1-.291,1.676c-.191.3-.512.529-.579.876-.076.4.222.782.238,1.191.023.545-.444.979-.613,1.5a2.41,2.41,0,0,0,.517,2.038,6.971,6.971,0,0,0,3.209,2.514c1.02.39,2.124.537,3.126.968a11.847,11.847,0,0,1,3.6,2.841A10.056,10.056,0,0,0,548.364,231.873Z" transform="translate(-531.222 -169.243)" fill="#ffbc96"/>
      <path id="Trazado_646516" data-name="Trazado 646516" d="M580.3,243.356a63.654,63.654,0,0,1-4.267,10.7c-1.775,3.491-4.289,7.122-8.124,7.917a9.591,9.591,0,0,1-7.139-1.694,23.276,23.276,0,0,1-5.267-5.341,169.684,169.684,0,0,1-12.313-18.679,32.815,32.815,0,0,1,7.077-7.781q6.218,4.495,12.065,9.474c1.705-7.56,3.429-15.176,6.545-22.272a14.746,14.746,0,0,1,3.005-4.8,5.951,5.951,0,0,1,5.182-1.778C579.6,219.143,583.252,233.423,580.3,243.356Z" transform="translate(-532.627 -168.619)" fill="#6c5ea6"/>
      <path id="Trazado_646517" data-name="Trazado 646517" d="M601.22,189.611l-.895,17.469-6.5,10.6-7.434-10.833,1.519-10.3Z" transform="translate(-537.698 -166.343)" fill="#ffbc96"/>
      <path id="Trazado_646518" data-name="Trazado 646518" d="M601.39,187.536c-2.935,6.481-4.474,12.283-17.777,6.944-4.024-1.618-3.436-6.173-2.263-10.336.111-.362.214-.727.321-1.08s.294-.966.5-1.626c.241-.779.5-1.592.671-2a36.273,36.273,0,0,1,3.476-6.964,16.3,16.3,0,0,1,10.705.175C602.9,174.749,604.323,181.055,601.39,187.536Z" transform="translate(-537.005 -164.237)" fill="#ffbc96"/>
      <path id="Trazado_646519" data-name="Trazado 646519" d="M595.8,181.615c-.226.673,2.354,2.06,2.728,1.3S596.023,180.942,595.8,181.615Z" transform="translate(-538.801 -165.382)" fill="#003450"/>
      <path id="Trazado_646520" data-name="Trazado 646520" d="M590.577,179.883c-.065.67-3.688.2-3.584-.7S590.671,178.932,590.577,179.883Z" transform="translate(-537.769 -165.07)" fill="#003450"/>
      <ellipse id="Elipse_8817" data-name="Elipse 8817" cx="1.477" cy="2.479" rx="1.477" ry="2.479" transform="translate(56.874 24.178) rotate(-71.434)" fill="#1d1d1b" opacity="0.3" style="mix-blend-mode: overlay;isolation: isolate"/>
      <path id="Trazado_646521" data-name="Trazado 646521" d="M584.9,185.1c-.259.773-1.519,1.047-2.807.614a3.789,3.789,0,0,1-.626-.272c.111-.362.214-.727.321-1.08s.294-.966.5-1.626a3.869,3.869,0,0,1,.748.18C584.318,183.35,585.158,184.327,584.9,185.1Z" transform="translate(-537.12 -165.536)" fill="#1d1d1b" opacity="0.3" style="mix-blend-mode: overlay;isolation: isolate"/>
      <path id="Trazado_646522" data-name="Trazado 646522" d="M584.609,197.743s6.812,3.3,10.929,1.378a9.393,9.393,0,0,0,2.579-1.822" transform="translate(-537.489 -167.246)" fill="none" stroke="#003450" stroke-linejoin="round" stroke-width="0.4"/>
      <path id="Trazado_646523" data-name="Trazado 646523" d="M588.543,174.876s-3.249,3.982-6.335,2.974-3.35-6.227,1.344-11.451,18.254-4.071,21.587,4.368c0,0,4.742.981,4.132,5.031a27.717,27.717,0,0,1-5.352,12.5l-2.385-2.231s-2.092-2.28-1.509-7.79c0,0-1.222,1.665-4.618.409-1.416-.523-1.5-1.951-1.125-3.44,0,0-1.51,2.671-3.963,1.9S588.543,174.876,588.543,174.876Z" transform="translate(-536.942 -163.249)" fill="#004869"/>
      <path id="Trazado_646524" data-name="Trazado 646524" d="M602.764,189.858s3.7-3.146,4.575-.136a4.349,4.349,0,0,1-1.386,4.317c-1.521,1.292-3.411.673-5.079-.007Z" transform="translate(-539.399 -166.203)" fill="#ffbc96"/>
      <path id="Trazado_646525" data-name="Trazado 646525" d="M607.086,190.559a1.818,1.818,0,0,0-2.663.08" transform="translate(-539.816 -166.391)" fill="none" stroke="#003450" stroke-linejoin="round" stroke-width="0.4"/>
      <path id="Trazado_646526" data-name="Trazado 646526" d="M605.667,190.141a2.216,2.216,0,0,1,.172,1.821" transform="translate(-539.962 -166.406)" fill="none" stroke="#003450" stroke-linejoin="round" stroke-width="0.4"/>
      <path id="Trazado_646527" data-name="Trazado 646527" d="M594.026,184.971a.412.412,0,0,0,.723.387,2.149,2.149,0,0,0,.733-1.123.633.633,0,0,0-.054-.556c-.236-.295-.717-.1-.943.109A1.93,1.93,0,0,0,594.026,184.971Z" transform="translate(-538.594 -165.629)" fill="#003450"/>
      <path id="Trazado_646528" data-name="Trazado 646528" d="M588.88,182.985a.412.412,0,0,0,.722.387,2.149,2.149,0,0,0,.734-1.123.633.633,0,0,0-.054-.556c-.237-.295-.717-.1-.943.109A1.934,1.934,0,0,0,588.88,182.985Z" transform="translate(-537.99 -165.396)" fill="#003450"/>
      <path id="Trazado_646529" data-name="Trazado 646529" d="M592.109,183.316l-2.3,3.7a.325.325,0,0,0,.183.576l1.67.587" transform="translate(-538.087 -165.604)" fill="none" stroke="#003450" stroke-linejoin="round" stroke-width="0.4"/>
      <path id="Trazado_646530" data-name="Trazado 646530" d="M588.386,189.427a2.616,2.616,0,0,0,4.6.809" transform="translate(-537.933 -166.322)" fill="none" stroke="#003450" stroke-linejoin="round" stroke-width="0.4"/>
      <path id="Trazado_646531" data-name="Trazado 646531" d="M621.944,278.815l33.673,141.672s.334,2.972-24.707,2.654c0,0-19.8-58.628-30.377-117.776-1.289-7.2-5.744-29.21-5.744-29.21l27.154-2.188Z" transform="translate(-538.685 -176.246)" fill="#004869"/>
      <path id="Trazado_646532" data-name="Trazado 646532" d="M616,283.987a12.994,12.994,0,0,0,8.9,6.059" transform="translate(-541.175 -177.423)" fill="none" stroke="#003450" stroke-linejoin="round" stroke-width="0.4"/>
      <path id="Trazado_646533" data-name="Trazado 646533" d="M572.62,281.26l-3.6,141.3s-.335,2.972,24.706,2.654c0,0,7.26-56.607,6.317-112.711-.156-9.316,5.825-36.093,5.825-36.093H572.62Z" transform="translate(-535.66 -176.533)" fill="#004869"/>
      <g id="Grupo_969335" data-name="Grupo 969335" transform="translate(80.696 97.965)">
        <g id="Grupo_969334" data-name="Grupo 969334" transform="translate(5.937 10.932)">
          <path id="Trazado_646534" data-name="Trazado 646534" d="M634.749,294.575q.091.171.178.344a1.254,1.254,0,0,1,.159.471.456.456,0,0,1-.2.432c-.226.129-.5-.03-.708-.191a15.969,15.969,0,0,1-3.237-3.94,8.2,8.2,0,0,1-1.111-1.673,5.921,5.921,0,0,1-.435-2.655c.139-1.705.88,0,1.255.671C631.907,290.269,633.553,292.318,634.749,294.575Z" transform="translate(-629.379 -286.63)" fill="#ffbc96"/>
          <path id="Trazado_646535" data-name="Trazado 646535" d="M634.749,294.575q.091.171.178.344a1.254,1.254,0,0,1,.159.471.456.456,0,0,1-.2.432c-.226.129-.5-.03-.708-.191a15.969,15.969,0,0,1-3.237-3.94,8.2,8.2,0,0,1-1.111-1.673,5.921,5.921,0,0,1-.435-2.655c.139-1.705.88,0,1.255.671C631.907,290.269,633.553,292.318,634.749,294.575Z" transform="translate(-629.379 -286.63)" fill="#1d1d1b" opacity="0.3" style="mix-blend-mode: overlay;isolation: isolate"/>
        </g>
        <path id="Trazado_646536" data-name="Trazado 646536" d="M632.015,279.068c-2.2,2.515-2.29,6.251-1.658,9.532.4,2.086,1.046,4.117,1.469,6.2.329,1.624.087,3.418-1.235,1.285a25.731,25.731,0,0,1-1.42-2.6c-1.135-2.407-2.916-4.648-3.722-7.183-.04,1.537.417,3.022.459,4.553.024.86.026,2.743-1.219,2.769-.41.008-.594-.5-.661-.9q-.657-3.988-1.263-7.982a7.1,7.1,0,0,1,1.372-5.611,34.613,34.613,0,0,0,2.182-4.884" transform="translate(-622.652 -274.244)" fill="#ffbc96"/>
        <path id="Trazado_646537" data-name="Trazado 646537" d="M629.928,297.482c.2-2.2.575-4.969-.248-6.942-.275-.659-1.058-4.061-2.066-3.9-.748.124-.356,2.231-.3,2.64.4,2.872.671,5.748,1.171,8.607a1.849,1.849,0,0,0,.251.757.639.639,0,0,0,.695.282c.336-.117.421-.545.449-.9Q629.9,297.764,629.928,297.482Z" transform="translate(-623.181 -275.699)" fill="#ffbc96"/>
      </g>
      <path id="Trazado_646538" data-name="Trazado 646538" d="M613.569,208.177c-4.041-2.995-14.671-3.28-14.671-3.28s-3.972,5.591-8.93,6.206S585,207.171,585,207.171l-6.167,1.814c-6.485,26.729-5.779,63.881-5.779,63.881a77.841,77.841,0,0,0,19.32,2.708,77.005,77.005,0,0,0,15.305-1.327q2.865-.543,5.681-1.312,1.14-.313,2.267-.667a4.624,4.624,0,0,0,2.2-1,7.811,7.811,0,0,0,1.888-3.838,8.8,8.8,0,0,0-.37-3.306q-.523-3.061-1.057-6.118-1.2-6.872-2.419-13.74-.9-5.089-1.811-10.176-.148-.831-.3-1.664a109.313,109.313,0,0,0,10.595,5.544c-1.41,1.688-5.866,22.534-5.168,29.8a16.35,16.35,0,0,0,6.714,4.43c6.023-6.1,15.078-30.717,14.771-36.424C640.242,227.719,617.609,211.172,613.569,208.177Z" transform="translate(-536.13 -168.138)" fill="#6c5ea6"/>
      <path id="Trazado_646539" data-name="Trazado 646539" d="M539.7,222.111a10.222,10.222,0,0,0-2.229,1.319c-.471.367-.954.927-.761,1.492s.931.714,1.515.6a8.829,8.829,0,0,1,1.573-.337,3.824,3.824,0,0,1,2.23,1.091,3.357,3.357,0,0,0,2.267.978" transform="translate(-531.862 -170.159)" fill="none" stroke="#003450" stroke-linejoin="round" stroke-width="0.4"/>
      <path id="Trazado_646540" data-name="Trazado 646540" d="M535.008,228.989a15.969,15.969,0,0,0,3.821,2.366,2.048,2.048,0,0,1,.564.318.635.635,0,0,1,.228.578c-.08.375-.549.494-.931.52a7.131,7.131,0,0,1-4.028-.778l.194-.119" transform="translate(-531.626 -170.966)" fill="none" stroke="#003450" stroke-linejoin="round" stroke-width="0.4"/>
      <path id="Trazado_646541" data-name="Trazado 646541" d="M535.867,225.5l4.838,3.6c.229.171.486.41.424.689s-.419.393-.714.422a6.962,6.962,0,0,1-2.475-.2" transform="translate(-531.768 -170.557)" fill="none" stroke="#003450" stroke-linejoin="round" stroke-width="0.4"/>
      <path id="Trazado_646542" data-name="Trazado 646542" d="M540.617,225.947a10.7,10.7,0,0,1,1.807,2.355.433.433,0,0,1,.076.377.39.39,0,0,1-.284.181,1.542,1.542,0,0,1-1.127-.184" transform="translate(-532.325 -170.609)" fill="none" stroke="#003450" stroke-linejoin="round" stroke-width="0.4"/>
      <path id="Trazado_646543" data-name="Trazado 646543" d="M573.547,260.388a164.379,164.379,0,0,1,4.733-47.449" transform="translate(-536.17 -169.082)" fill="none" stroke="#003450" stroke-linejoin="round" stroke-width="0.4"/>
      <path id="Trazado_646544" data-name="Trazado 646544" d="M583.227,208.719a29.352,29.352,0,0,0,2.129,6.215c.047.1.108.206.214.225a.348.348,0,0,0,.264-.112l3.58-2.939c1.041.943,2.512,1.769,3.552,2.71a1.036,1.036,0,0,0,.58.329,1.022,1.022,0,0,0,.673-.305,31.345,31.345,0,0,0,7.478-8.778" transform="translate(-537.327 -168.275)" fill="none" stroke="#003450" stroke-linejoin="round" stroke-width="0.4"/>
      <path id="Trazado_646545" data-name="Trazado 646545" d="M626.1,271.5a23.159,23.159,0,0,0,7.154,5.752" transform="translate(-542.36 -175.956)" fill="none" stroke="#003450" stroke-linejoin="round" stroke-width="0.4"/>
      <path id="Trazado_646546" data-name="Trazado 646546" d="M575.288,277.253a82.325,82.325,0,0,0,16.559,2.383,67.464,67.464,0,0,0,25.489-3.62" transform="translate(-536.395 -176.487)" fill="none" stroke="#003450" stroke-linejoin="round" stroke-width="0.4"/>
      <path id="Trazado_646547" data-name="Trazado 646547" d="M590.172,213.1q-.534,5.043-.628,10.118" transform="translate(-538.069 -169.101)" fill="none" stroke="#003450" stroke-linejoin="round" stroke-width="0.4"/>
      <path id="Trazado_646548" data-name="Trazado 646548" d="M611.91,207.985a37.717,37.717,0,0,0,4.555,23.992" transform="translate(-540.649 -168.5)" fill="none" stroke="#003450" stroke-linejoin="round" stroke-width="0.4"/>
      <path id="Trazado_646549" data-name="Trazado 646549" d="M633.4,240.163a14.552,14.552,0,0,1,3.583-2.849" transform="translate(-543.217 -171.943)" fill="none" stroke="#003450" stroke-linejoin="round" stroke-width="0.4"/>
      <path id="Trazado_646550" data-name="Trazado 646550" d="M633.41,242.579l4.95.524" transform="translate(-543.219 -172.562)" fill="none" stroke="#003450" stroke-linejoin="round" stroke-width="0.4"/>
      <path id="Trazado_646551" data-name="Trazado 646551" d="M566,243.537a31.422,31.422,0,0,1,2.011,4.735" transform="translate(-535.304 -172.674)" fill="none" stroke="#003450" stroke-linejoin="round" stroke-width="0.4"/>
      <path id="Trazado_646552" data-name="Trazado 646552" d="M582.317,285.429a12.531,12.531,0,0,1-7.305,7.643" transform="translate(-536.363 -177.592)" fill="none" stroke="#003450" stroke-linejoin="round" stroke-width="0.4"/>
      <path id="Trazado_646553" data-name="Trazado 646553" d="M600.834,285.408l2.881,34.088" transform="translate(-539.394 -177.589)" fill="none" stroke="#003450" stroke-linejoin="round" stroke-width="0.4"/>
      <path id="Trazado_646554" data-name="Trazado 646554" d="M605.164,284.991l.4,10.525a8.683,8.683,0,0,1-.364,3.575,2.967,2.967,0,0,1-2.729,2.006" transform="translate(-539.586 -177.54)" fill="none" stroke="#003450" stroke-linejoin="round" stroke-width="0.4"/>
    </g>
    <g id="Grupo_969345" data-name="Grupo 969345" transform="translate(243.411 149.955)">
      <path id="Trazado_646555" data-name="Trazado 646555" d="M412.929,268.134a14.141,14.141,0,0,0,11.027,9.848,6.687,6.687,0,0,0,3.548-.139,3.211,3.211,0,0,0,2.162-2.625,3.549,3.549,0,0,0-1.684-2.961,17.589,17.589,0,0,0-3.214-1.517,17.288,17.288,0,0,1-7.468-6.222A21.79,21.79,0,0,1,412.929,268.134Z" transform="translate(-396.171 -171.037)" fill="#ffbc96"/>
      <path id="Trazado_646556" data-name="Trazado 646556" d="M480.292,267.034a14.14,14.14,0,0,1-11.027,9.848,6.688,6.688,0,0,1-3.548-.139,3.213,3.213,0,0,1-2.162-2.625,3.55,3.55,0,0,1,1.685-2.961,17.552,17.552,0,0,1,3.214-1.517,17.3,17.3,0,0,0,7.469-6.222A21.761,21.761,0,0,0,480.292,267.034Z" transform="translate(-402.113 -170.908)" fill="#ffbc96"/>
      <path id="Trazado_646557" data-name="Trazado 646557" d="M423.585,424.9h9.154c-.974,6.875-1.231,20.309-2.206,21.844-2.135-.591-6.208-.21-8.15-1.364Z" transform="translate(-397.281 -189.866)" fill="#ffbc96"/>
      <g id="Grupo_969341" data-name="Grupo 969341" transform="translate(42.481 32.744)">
        <g id="Grupo_969340" data-name="Grupo 969340">
          <g id="Grupo_969339" data-name="Grupo 969339">
            <g id="Grupo_969338" data-name="Grupo 969338">
              <g id="Grupo_969337" data-name="Grupo 969337">
                <path id="Trazado_646558" data-name="Trazado 646558" d="M451.381,208.559c-.475,2.014-2.19,2.962-4.37,3.143a4.927,4.927,0,0,1-4.938-2.995l.009-.09.467-12.914h7.707Z" transform="translate(-442.073 -195.703)" fill="#ffbc96"/>
              </g>
            </g>
          </g>
        </g>
      </g>
      <path id="Trazado_646559" data-name="Trazado 646559" d="M478.5,424.9h-9.154c.974,6.875,1.231,20.309,2.2,21.844,2.135-.591,6.209-.21,8.151-1.364Z" transform="translate(-402.794 -189.866)" fill="#ffbc96"/>
      <path id="Trazado_646560" data-name="Trazado 646560" d="M429.753,262.748c-20.2,31.168-9.366,151.233-9.366,151.233h12.281l13.459-110.955L462.687,413.98h12.589s9.8-109.884-16.349-151.277C458.927,262.7,433.721,256.628,429.753,262.748Z" transform="translate(-396.706 -170.509)" fill="#004869"/>
      <path id="Trazado_646561" data-name="Trazado 646561" d="M487.543,236.879c-.821-3.307-3.357-5.87-5.79-8.257-5.255-5.155-10.575-10.362-16.893-14.139s-13.829-6.048-21.082-4.787a4706,4706,0,0,1-5.772,0c-7.253-1.26-14.764,1.01-21.082,4.787s-11.638,8.984-16.893,14.139c-2.432,2.387-4.969,4.95-5.79,8.257-1.366,5.507,2.234,8.75,4.962,12.841A102.392,102.392,0,0,0,409.756,263a10.479,10.479,0,0,0,5.976-4.787c-2.56-5.343-9.57-16.981-10.053-18.006,3.583-1.838,13.474-7.572,18.83-12.96,1.268,8.725,1.61,18.511-.846,26.978-1.206,4.154-3.3,8.376-2.331,12.59.146.628,7.322,1.483,8.086,1.592a110.308,110.308,0,0,0,22.948,0c.764-.109,7.941-.964,8.086-1.592.974-4.214-1.125-8.436-2.331-12.59-2.456-8.467-2.115-18.253-.846-26.978,5.357,5.388,15.247,11.122,18.83,12.96-.484,1.025-7.493,12.663-10.053,18.006A10.479,10.479,0,0,0,472.029,263a102.389,102.389,0,0,0,10.552-13.283C485.309,245.629,488.909,242.385,487.543,236.879Z" transform="translate(-393.942 -164.561)" fill="#ffcd5e"/>
      <path id="Trazado_646562" data-name="Trazado 646562" d="M466.891,430.714h15.168v5.5h-14.2Z" transform="translate(-402.506 -190.548)" fill="#004869"/>
      <path id="Trazado_646563" data-name="Trazado 646563" d="M433.789,430.714H418.621v5.5h14.2Z" transform="translate(-396.839 -190.548)" fill="#004869"/>
      <line id="Línea_724" data-name="Línea 724" x1="11.484" transform="translate(66.556 240.166)" fill="none" stroke="#003450" stroke-linejoin="round" stroke-width="0.4"/>
      <line id="Línea_725" data-name="Línea 725" x1="11.484" transform="translate(24.367 240.166)" fill="none" stroke="#003450" stroke-linejoin="round" stroke-width="0.4"/>
      <path id="Trazado_646564" data-name="Trazado 646564" d="M470,266.783c-.055-.018-.108-.037-.161-.057-1.139-.428-2.225-1.049-3.36-1.508a.849.849,0,0,0-.771-.041.587.587,0,0,0-.158.7,1.716,1.716,0,0,0,.489.6L469.977,270a.95.95,0,0,0,.405.253c.3.066.579-.168.8-.383a8.768,8.768,0,0,0,2.43-2.835A8.016,8.016,0,0,1,470,266.783Z" transform="translate(-402.343 -171.105)" fill="#ffbc96"/>
      <path id="Trazado_646565" data-name="Trazado 646565" d="M424.366,267.883c.054-.018.108-.037.161-.057,1.139-.428,2.225-1.049,3.359-1.508a.848.848,0,0,1,.77-.042.586.586,0,0,1,.158.7,1.708,1.708,0,0,1-.489.6l-3.933,3.528a.946.946,0,0,1-.4.253c-.3.066-.579-.168-.8-.383a8.775,8.775,0,0,1-2.429-2.835A8.019,8.019,0,0,0,424.366,267.883Z" transform="translate(-397.09 -171.235)" fill="#ffbc96"/>
      <path id="Trazado_646566" data-name="Trazado 646566" d="M456.894,280.859l10.792-2.407" transform="translate(-401.332 -172.673)" fill="none" stroke="#003450" stroke-linejoin="round" stroke-width="0.4"/>
      <path id="Trazado_646567" data-name="Trazado 646567" d="M442.022,280.715l-12.6-1.685" transform="translate(-398.108 -172.741)" fill="none" stroke="#003450" stroke-linejoin="round" stroke-width="0.4"/>
      <circle id="Elipse_8818" data-name="Elipse 8818" cx="0.575" cy="0.575" r="0.575" transform="translate(36.511 108.354)" fill="none" stroke="#003450" stroke-linejoin="round" stroke-width="0.4"/>
      <circle id="Elipse_8819" data-name="Elipse 8819" cx="0.575" cy="0.575" r="0.575" transform="translate(61.813 107.779)" fill="none" stroke="#003450" stroke-linejoin="round" stroke-width="0.4"/>
      <path id="Trazado_646568" data-name="Trazado 646568" d="M451.363,168.84a15.317,15.317,0,0,1,8.25,9.742c1.377,4.778-.026,9.712-2.836,13.737-1.223,1.753-4.091,5.562-6.47,5.287-1.37-.159-2.659-.831-4.038-.846-2.677-.028-4.332,1.8-6.657-.13a25.332,25.332,0,0,1-5.262-5.369c-2.71-4.089-3.894-9.439-2.029-14.113C435.2,169.93,444.068,165.607,451.363,168.84Z" transform="translate(-398.341 -159.678)" fill="#004869"/>
      <path id="Trazado_646569" data-name="Trazado 646569" d="M454.637,172.738a9.6,9.6,0,1,0,8.9-14.127,10.248,10.248,0,0,0-8.026,3.583A8.758,8.758,0,0,0,454.637,172.738Z" transform="translate(-400.907 -158.604)" fill="#004869"/>
      <g id="Grupo_969344" data-name="Grupo 969344" transform="translate(0 44.785)">
        <g id="Grupo_969343" data-name="Grupo 969343" clip-path="url(#clip-path)">
          <g id="Grupo_969342" data-name="Grupo 969342" transform="translate(-6.511 -4.563)">
            <path id="Trazado_646570" data-name="Trazado 646570" d="M438.091,205.761a7.933,7.933,0,0,0-6.241,4.876c-.919,2.35-.738,5.207-2.417,7.089-1.939,2.172-5.351,1.966-8.214,1.434s-6.109-1.132-8.454.593c-2.741,2.017-3.1,6.478-6.172,7.936-1.986.941-4.34.224-6.517.523a9.442,9.442,0,0,0-6.516,4.846,27.962,27.962,0,0,0-2.7,7.925" transform="translate(-387.069 -204.362)" fill="none" stroke="#1d1d1b" stroke-miterlimit="10" stroke-width="1" opacity="0.3" style="mix-blend-mode: overlay;isolation: isolate"/>
            <path id="Trazado_646571" data-name="Trazado 646571" d="M459.053,205.18a8.621,8.621,0,0,0-12.43,5.507c-.72,2.875-.052,6.3-2.03,8.507-1.381,1.542-3.652,1.929-5.72,1.824s-4.122-.605-6.187-.451a9.978,9.978,0,0,0-7.827,5c-1.032,1.852-1.575,4.169-3.387,5.272-2.192,1.335-4.973.185-7.525-.086a10.861,10.861,0,0,0-10.651,5.928c-.81,1.681-1.162,3.543-1.806,5.294a7.371,7.371,0,0,1-3.366,4.3c-1.821.876-3.958.489-5.97.308s-4.332,0-5.59,1.577" transform="translate(-386.565 -204.176)" fill="none" stroke="#1d1d1b" stroke-miterlimit="10" stroke-width="1" opacity="0.3" style="mix-blend-mode: overlay;isolation: isolate"/>
            <path id="Trazado_646572" data-name="Trazado 646572" d="M466.545,205.964a7.678,7.678,0,0,1-3.132,12.959c-3.411.989-7.086-.462-10.6.049a9.775,9.775,0,0,0-7.517,5.928c-1.087,2.725-1.118,6.219-3.563,7.841-2.755,1.829-6.734-.064-9.657,1.483-3.467,1.836-3.225,7.062-5.915,9.917-1.6,1.7-4.035,2.322-6.358,2.567s-4.705.2-6.935.894c-7.7,2.408-10.867,12.577-18.566,14.981" transform="translate(-387.473 -204.386)" fill="none" stroke="#1d1d1b" stroke-miterlimit="10" stroke-width="1" opacity="0.3" style="mix-blend-mode: overlay;isolation: isolate"/>
            <path id="Trazado_646573" data-name="Trazado 646573" d="M478.333,219.336a13.048,13.048,0,0,1,1.1,6.046,6.872,6.872,0,0,1-2.963,5.2c-2.492,1.552-5.7.878-8.568.254-4.037-.879-8.875-1.327-11.709,1.68-1.674,1.777-2.171,4.316-2.939,6.633s-2.151,4.767-4.52,5.356c-2.434.606-5.164-.973-7.43.1-1.884.895-2.553,3.2-2.9,5.261s-.708,4.349-2.354,5.631c-3.364,2.62-8.918-1.172-12.351,1.356-2.207,1.625-2.385,5.161-4.713,6.605-2.024,1.255-4.692.342-7.006.906a7.493,7.493,0,0,0-4.733,4.32,22.179,22.179,0,0,0-1.518,6.426l1.327-1.229" transform="translate(-388.814 -205.955)" fill="none" stroke="#1d1d1b" stroke-miterlimit="10" stroke-width="1" opacity="0.3" style="mix-blend-mode: overlay;isolation: isolate"/>
            <path id="Trazado_646574" data-name="Trazado 646574" d="M486.458,230.17A22.274,22.274,0,0,1,487.7,238.2c-.252,2.712-1.732,5.488-4.268,6.481-2.431.951-5.169.094-7.57-.928a42.179,42.179,0,0,0-7.786-2.934c-2.721-.562-5.776-.3-7.93,1.455-1.829,1.489-2.741,3.788-3.822,5.883s-2.609,4.23-4.9,4.79c-2.451.6-5.274-.749-7.448.529-1.75,1.028-2.252,3.293-2.508,5.307s-.551,4.259-2.126,5.538c-1.874,1.522-4.86,1.056-6.642,2.684-1.76,1.6-1.6,4.567-3.266,6.271-1.564,1.6-4.1,1.527-6.342,1.473s-4.868.242-6.011,2.166" transform="translate(-390.147 -207.227)" fill="none" stroke="#1d1d1b" stroke-miterlimit="10" stroke-width="1" opacity="0.3" style="mix-blend-mode: overlay;isolation: isolate"/>
            <path id="Trazado_646575" data-name="Trazado 646575" d="M490.664,257.228l-5.525-1.554a16.748,16.748,0,0,0-4.545-.836,5.651,5.651,0,0,0-4.2,1.639c-1.228,1.357-1.429,3.316-1.769,5.114s-1.056,3.776-2.738,4.5c-1.665.713-3.557-.1-5.168-.933a15.727,15.727,0,0,0-5.221-1.975,5.048,5.048,0,0,0-4.923,2,16.168,16.168,0,0,0-1.053,3.02,2.865,2.865,0,0,1-2.19,2.094c-.673.049-1.327-.288-2-.258-1.48.065-2.295,1.766-2.49,3.235s-.16,3.117-1.166,4.2c-1.322,1.429-3.635,1.085-5.477,1.716a5.367,5.367,0,0,0-2.578,7.718" transform="translate(-392.702 -210.123)" fill="none" stroke="#1d1d1b" stroke-miterlimit="10" stroke-width="1" opacity="0.3" style="mix-blend-mode: overlay;isolation: isolate"/>
          </g>
        </g>
      </g>
      <path id="Trazado_646577" data-name="Trazado 646577" d="M421.344,444.7c4.545-4.545,8.772,0,8.772,0a37.973,37.973,0,0,1,0,10.464h-22.3s-.529-3.594,2.326-4.545,7.187.211,7.927-.846-.555-6.025,1.044-6.342A2.049,2.049,0,0,1,421.344,444.7Z" transform="translate(-395.566 -191.952)" fill="#002638"/>
      <path id="Trazado_646578" data-name="Trazado 646578" d="M425.964,447.661a4.039,4.039,0,0,1,6.117-.056" transform="translate(-397.701 -192.37)" fill="none" stroke="#fff" stroke-linejoin="round" stroke-width="0.4"/>
      <line id="Línea_726" data-name="Línea 726" x1="20.504" transform="translate(13.551 261.605)" fill="none" stroke="#fff" stroke-linejoin="round" stroke-width="0.4"/>
      <path id="Trazado_646579" data-name="Trazado 646579" d="M470.245,444.7c4.545-4.545,8.772,0,8.772,0a37.93,37.93,0,0,1,0,10.464h-22.3s-.528-3.594,2.326-4.545,7.187.211,7.927-.846-.555-6.025,1.044-6.342A2.049,2.049,0,0,1,470.245,444.7Z" transform="translate(-401.307 -191.952)" fill="#002638"/>
      <path id="Trazado_646580" data-name="Trazado 646580" d="M474.866,447.661a4.038,4.038,0,0,1,6.116-.056" transform="translate(-403.442 -192.37)" fill="none" stroke="#fff" stroke-linejoin="round" stroke-width="0.4"/>
      <line id="Línea_727" data-name="Línea 727" x1="20.504" transform="translate(56.711 261.605)" fill="none" stroke="#fff" stroke-linejoin="round" stroke-width="0.4"/>
    </g>
    <g id="Grupo_969346" data-name="Grupo 969346" transform="translate(71.545 140.534)">
      <path id="Trazado_646581" data-name="Trazado 646581" d="M196.809,211.821a22.487,22.487,0,0,1,10.976-6.011,26.077,26.077,0,0,0,7.936-4.363,1.494,1.494,0,0,0,.517-.606.534.534,0,0,0-.248-.683.782.782,0,0,0-.546.078c-1.426.575-3.134,1.025-4.56,1.6a20.057,20.057,0,0,0,5.794-4.214c.2-.207.405-.493.287-.754a.5.5,0,0,0-.494-.253,1.48,1.48,0,0,0-.556.189c-1.744.869-3.782,1.854-5.526,2.724a47.072,47.072,0,0,0,6.223-4.8c.276-.24.456-.727.181-.968a.689.689,0,0,0-.7-.019,42.934,42.934,0,0,0-6.691,3.777l2.916-4.476c.169-.258.332-.618.125-.846-.236-.261-.663-.053-.939.165-1.917,1.5-3.788,3.068-5.659,4.63-.512.428-1.3.738-1.814,1.166l1.618-4.1a.616.616,0,0,0,.064-.319.415.415,0,0,0-.451-.3,1.086,1.086,0,0,0-.532.244c-2.25,1.636-3.319,4.522-5.2,6.542a19.227,19.227,0,0,1-6.835,4.721A11.281,11.281,0,0,0,196.809,211.821Z" transform="translate(-90.081 -159.526)" fill="#ffab87"/>
      <path id="Trazado_646582" data-name="Trazado 646582" d="M186.783,206.055c-5.34,3.163-22.11,13.564-22.11,13.564s-14.836-7.427-21.425-15.978c.7,7.079,5.469,15.059,6.478,22.01,1.78,4.6,12.454,10.525,17.48,9.922,7.81-.937,24.495-22.936,24.495-22.936A12.568,12.568,0,0,1,186.783,206.055Z" transform="translate(-84.276 -160.884)" fill="#ff6862"/>
      <path id="Trazado_646583" data-name="Trazado 646583" d="M186.783,206.055c-5.34,3.163-22.11,13.564-22.11,13.564s-14.836-7.427-21.425-15.978c.7,7.079,5.469,15.059,6.478,22.01,1.78,4.6,12.454,10.525,17.48,9.922,7.81-.937,24.495-22.936,24.495-22.936A12.568,12.568,0,0,1,186.783,206.055Z" transform="translate(-84.276 -160.884)" fill="#1d1d1b" opacity="0.3" style="mix-blend-mode: overlay;isolation: isolate"/>
      <path id="Trazado_646584" data-name="Trazado 646584" d="M205.862,200.785a13.431,13.431,0,0,1,.177,4.2" transform="translate(-91.627 -160.549)" fill="none" stroke="#003450" stroke-linejoin="round" stroke-width="0.4"/>
      <path id="Trazado_646585" data-name="Trazado 646585" d="M209.713,198.846a7.838,7.838,0,0,1,1.943,4.176" transform="translate(-92.079 -160.321)" fill="none" stroke="#003450" stroke-linejoin="round" stroke-width="0.4"/>
      <path id="Trazado_646586" data-name="Trazado 646586" d="M116.378,192.29c-.017,2.341.289,4.916,1.995,6.519,1.345,1.263,3.272,1.643,5.093,1.948a53.847,53.847,0,0,0,12.1,1c.7-.042,11.652.064,14.718-7.567.726-1.807.146-3.854-.086-5.7-.413-3.3-1.677-5.9-3.083-8.883a47.434,47.434,0,0,1-2.949-8.925c-.672-2.686-3.832-2.6-6.186-2.49-3.1.14-6.2.267-9.3.42-1.9.094-4.266.034-5.555,1.679a31.571,31.571,0,0,0-2.672,5.17,38.422,38.422,0,0,0-2.912,7.8A37.919,37.919,0,0,0,116.378,192.29Z" transform="translate(-81.122 -156.717)" fill="#004869"/>
      <path id="Trazado_646587" data-name="Trazado 646587" d="M160.888,441.98l-2.041-2.583a19.118,19.118,0,0,1-3.915-8.628l-.056,0-.5-2.894h-8.262c.653,1.615,1.309,3.231,2.011,4.83a16.034,16.034,0,0,0-2.942,5.29c4.706,3.689,15.545,11.4,20.792,8.554A21.386,21.386,0,0,1,160.888,441.98Z" transform="translate(-84.503 -187.208)" fill="#ffab87"/>
      <path id="Trazado_646588" data-name="Trazado 646588" d="M146.263,445.147a20.888,20.888,0,0,1,1.171,6.642h2.919c.052-.975-.022-2-.03-2.966-.01-1.2-.027-2.4-.06-3.605q1.522,1.215,2.98,2.51c.929.826,1.791,1.853,2.791,2.583a9.987,9.987,0,0,0,3.066,1.478h10.571c.137-.055.286-.089.417-.156a2.351,2.351,0,0,0,.81-.632,1.246,1.246,0,0,0,.265-.969c-.126-.663-.847-1.005-1.478-1.243q-2.155-.81-4.327-1.575a5.288,5.288,0,0,1-1.528.792,4.843,4.843,0,0,1-1.536-.226c-3.246-.773-6.135-3.055-8.685-5.1q-1.783-1.43-3.545-2.887a21.6,21.6,0,0,1-4.264-3.926,9.814,9.814,0,0,1-.469,1.049,9.079,9.079,0,0,0-.335,1.167,8.1,8.1,0,0,0-.274,2.244A20.448,20.448,0,0,0,146.263,445.147Z" transform="translate(-84.448 -188.146)" fill="#ff6862"/>
      <path id="Trazado_646589" data-name="Trazado 646589" d="M127.513,181.063l1.342,16.044s6.476,11.649,10.28,10.514c2.549-.76,1.36-10.552,1.36-10.552L139.944,188Z" transform="translate(-82.429 -158.234)" fill="#ffbc96"/>
      <circle id="Elipse_8820" data-name="Elipse 8820" cx="2.056" cy="2.056" r="2.056" transform="translate(62.893 23.717)" fill="#ffcd5e"/>
      <path id="Trazado_646590" data-name="Trazado 646590" d="M147.683,178.528a6.1,6.1,0,0,1-.257,1.824,14.955,14.955,0,0,1-2.019,4.19c-2.648,3.644-7.305,4.048-11.3,2.608-6.035-2.176-7.731-9.283-7.91-15.05-.1-3.339,2.831-7.471,5.143-9.621,2.7-2.508,6.336-3.638,9.7-1.709,1.91,1.094,3.762,3.845,4.768,5.818,1.37,2.688,1.584,6.595,1.75,9.544C147.6,176.9,147.69,177.723,147.683,178.528Z" transform="translate(-82.274 -155.737)" fill="#ffbc96"/>
      <path id="Trazado_646591" data-name="Trazado 646591" d="M140.481,191.037s-7.862.832-11.447-4.88" transform="translate(-82.608 -158.832)" fill="none" stroke="#003450" stroke-linejoin="round" stroke-width="0.4"/>
      <path id="Trazado_646592" data-name="Trazado 646592" d="M136.86,171.854c.169.689-2.518,1.861-2.828,1.068S136.691,171.164,136.86,171.854Z" transform="translate(-83.192 -157.125)" fill="#003450"/>
      <path id="Trazado_646593" data-name="Trazado 646593" d="M144.185,172.017c-.214.638,3.286,1.693,3.558.834S144.49,171.11,144.185,172.017Z" transform="translate(-84.385 -157.127)" fill="#003450"/>
      <ellipse id="Elipse_8821" data-name="Elipse 8821" cx="2.481" cy="1.478" rx="2.481" ry="1.478" transform="translate(46.313 20.123)" fill="#1d1d1b" opacity="0.3" style="mix-blend-mode: overlay;isolation: isolate"/>
      <path id="Trazado_646594" data-name="Trazado 646594" d="M149.926,180.663a3.742,3.742,0,0,1-1.483.289c-1.365,0-2.476-.66-2.476-1.476s1.111-1.483,2.476-1.483a3.718,3.718,0,0,1,1.439.275C149.934,179.069,149.949,179.87,149.926,180.663Z" transform="translate(-84.596 -157.873)" fill="#1d1d1b" opacity="0.3" style="mix-blend-mode: overlay;isolation: isolate"/>
      <path id="Trazado_646595" data-name="Trazado 646595" d="M138.134,176.932c-.046.159-.132.337-.295.366a.415.415,0,0,1-.377-.208,1.956,1.956,0,0,1-.206-1.524,1.15,1.15,0,0,1,.126-.378.451.451,0,0,1,.314-.225C138.391,174.876,138.236,176.577,138.134,176.932Z" transform="translate(-83.566 -157.517)" fill="#003450"/>
      <path id="Trazado_646596" data-name="Trazado 646596" d="M145.978,176.932c-.045.159-.132.337-.295.366a.415.415,0,0,1-.377-.208,1.956,1.956,0,0,1-.206-1.524,1.15,1.15,0,0,1,.126-.378.451.451,0,0,1,.314-.225C146.235,174.876,146.08,176.577,145.978,176.932Z" transform="translate(-84.487 -157.517)" fill="#003450"/>
      <path id="Trazado_646597" data-name="Trazado 646597" d="M82.346,445.049a10.246,10.246,0,0,1-1.56-2.772l-4.089,6.85c-1.286,2.153,2.458,5.311,4.314,5.778a7.057,7.057,0,0,0,3.785-.345,12.935,12.935,0,0,0,3.861-1.843c.825-.609,2.5-1.746,2.324-2.922l-.955-6.457C87.918,445.348,85.571,446.663,82.346,445.049Z" transform="translate(-76.433 -188.899)" fill="#ff6862"/>
      <path id="Trazado_646598" data-name="Trazado 646598" d="M91.21,431.069l-6.5-.681c-.073-.1-1.651,7.672-1.716,7.77l-1.626,2.723a10.247,10.247,0,0,0,1.56,2.772c3.225,1.613,5.573.3,7.68-1.711l-.465-3.145C90.121,438.679,91.314,430.976,91.21,431.069Z" transform="translate(-77.012 -187.503)" fill="#ffab87"/>
      <path id="Trazado_646599" data-name="Trazado 646599" d="M113.522,250c-4.614,8.157-10.017,19.07-12.668,29.442-3.075,12.027-17.7,109.281-19.147,131.158,3.79.913,9.472.324,11.867.191,7.62-21.834,30.646-101.8,33.912-115.557.5-2.115,9.349,74.2,9.349,117.281,1.988,1.012,9.62.878,12.921,0,2.5-26.941,16.439-125.783-6.651-163.178C138.255,241.479,122.8,249.721,113.522,250Z" transform="translate(-77.052 -165.851)" fill="#004869"/>
      <path id="Trazado_646600" data-name="Trazado 646600" d="M122.284,262.943s-6.636,24.138-20.254,86.126L88.412,411.057" transform="translate(-77.839 -167.846)" fill="none" stroke="#003450" stroke-linejoin="round" stroke-width="0.4"/>
      <path id="Trazado_646601" data-name="Trazado 646601" d="M120.245,254.735A20.939,20.939,0,0,1,107.978,271.7" transform="translate(-80.136 -166.882)" fill="none" stroke="#003450" stroke-linejoin="round" stroke-width="0.4"/>
      <path id="Trazado_646602" data-name="Trazado 646602" d="M146.005,252.756l1.336,4.383a27.625,27.625,0,0,0,3.416,8.034c1.685,2.388,4.346,4.281,7.269,4.284" transform="translate(-84.6 -166.65)" fill="none" stroke="#003450" stroke-linejoin="round" stroke-width="0.4"/>
      <path id="Trazado_646603" data-name="Trazado 646603" d="M139.035,202.137c.9.718,11.486,10.136,11.169,16.469-.32,6.381-3.252,26.16-2.913,27.121,0,0,.542,4.323-26.768.022-8.4-7.345-9.784-31.15-5.3-38.244,2.6-4.114,9.58-8.093,11.895-8.263,0,0,5.476,7.706,8.85,7.658C137.5,206.878,139.209,204.4,139.035,202.137Z" transform="translate(-80.692 -160.368)" fill="#ff6862"/>
      <path id="Trazado_646604" data-name="Trazado 646604" d="M155.19,236.822a5.955,5.955,0,0,1,.52-1.9,2.014,2.014,0,0,1,1.529-1.129,2.389,2.389,0,0,1,2.055,1.386,5.512,5.512,0,0,1,.492,1.118c.032.1.05.241-.04.3a.279.279,0,0,1-.188.019c-1.342-.173-2.688.489-4.027.3" transform="translate(-85.678 -164.423)" fill="#29425d"/>
      <path id="Trazado_646605" data-name="Trazado 646605" d="M159.893,237.948h-4.825a.568.568,0,0,1-.568-.568h0a.568.568,0,0,1,.568-.568h4.825a.568.568,0,0,1,.568.568h0A.568.568,0,0,1,159.893,237.948Z" transform="translate(-85.597 -164.778)" fill="#a6bedf"/>
      <path id="Trazado_646606" data-name="Trazado 646606" d="M157.3,239.031s-24.461,28.626-29.751,23.95l8.59-17.93c.057.464,19.912-15.031,19.912-15.031s11.841-7.516,12.159-5.775c.222,1.211-6.426,4.308-5.643,4.308.085,0,5.9-3.329,6.6-2.633,1.029,1.029-6.021,4.68-5.924,5.252,0,0,6.169-3.718,6.422-2.873s-6.169,5.238-6,5.492,4.816-2.873,5.323-1.775S157.3,239.031,157.3,239.031Z" transform="translate(-82.433 -163.272)" fill="#ffab87"/>
      <path id="Trazado_646607" data-name="Trazado 646607" d="M118.733,204.365s4.578,11.452,6.46,16.678,5.386,23.594,5.386,23.594,12.687-9.256,14.906-10.5c4.036,1.645,6.107,7.212,6.107,7.212s-20.748,26.623-29.069,18.182C112.146,249,107.181,210.617,118.733,204.365Z" transform="translate(-80.618 -160.969)" fill="#ff6862"/>
      <path id="Trazado_646608" data-name="Trazado 646608" d="M125.966,173.373a33.044,33.044,0,0,0,10.712-12.168,27.716,27.716,0,0,1,9.76,10.125,16.682,16.682,0,0,0,.172-8.282,9.818,9.818,0,0,0-4.511-6.277c-4.036-2.416-10.008-1.883-13.973.452a14.713,14.713,0,0,0-6.98,12.429,5.435,5.435,0,0,0,1.2,3.893C123.319,174.543,124.815,174.161,125.966,173.373Z" transform="translate(-81.682 -155.197)" fill="#004869"/>
      <path id="Trazado_646609" data-name="Trazado 646609" d="M127.078,177.255s-2.512-4.165-4.3-1.587a4.355,4.355,0,0,0-.061,4.537c1.032,1.711,3.023,1.726,4.822,1.612Z" transform="translate(-81.795 -157.502)" fill="#ffbc96"/>
      <path id="Trazado_646610" data-name="Trazado 646610" d="M123.354,176.694a1.822,1.822,0,0,1,2.5.925" transform="translate(-81.941 -157.698)" fill="none" stroke="#003450" stroke-linejoin="round" stroke-width="0.4"/>
      <path id="Trazado_646611" data-name="Trazado 646611" d="M125.094,176.82a2.218,2.218,0,0,0-.744,1.673" transform="translate(-82.058 -157.736)" fill="none" stroke="#003450" stroke-linejoin="round" stroke-width="0.4"/>
      <path id="Trazado_646612" data-name="Trazado 646612" d="M141.82,175.531l.477,2.947a1.6,1.6,0,0,1,0,.74.83.83,0,0,1-1.151.446" transform="translate(-84.03 -157.584)" fill="none" stroke="#003450" stroke-linejoin="round" stroke-width="0.4"/>
      <path id="Trazado_646613" data-name="Trazado 646613" d="M143.409,182.068a2.235,2.235,0,0,1-3.66.49" transform="translate(-83.866 -158.352)" fill="none" stroke="#003450" stroke-linejoin="round" stroke-width="0.4"/>
      <path id="Trazado_646614" data-name="Trazado 646614" d="M146.005,262.218s9.357,35,9.54,80.287-.572,68.819-.572,68.819" transform="translate(-84.6 -167.761)" fill="none" stroke="#003450" stroke-linejoin="round" stroke-width="0.4"/>
      <path id="Trazado_646615" data-name="Trazado 646615" d="M160.088,226.143a3.211,3.211,0,0,1,.24-1c.364-.626.555-.272.673.214a18.756,18.756,0,0,1,.368,2.405c.071.658.553,1.544.218,2.179a1.7,1.7,0,0,1-.613.572c-.463.3-1.939,1.621-2.6,1.229-.583-.345.742-2.229.944-2.771A16.665,16.665,0,0,0,160.088,226.143Z" transform="translate(-86.035 -163.37)" fill="#ffab87"/>
      <path id="Trazado_646616" data-name="Trazado 646616" d="M133.023,248.1a74.289,74.289,0,0,1,12.651-8.834" transform="translate(-83.076 -165.067)" fill="none" stroke="#003450" stroke-linejoin="round" stroke-width="0.4"/>
      <path id="Trazado_646617" data-name="Trazado 646617" d="M125.838,222.26a108.152,108.152,0,0,0,4.559,23.845" transform="translate(-82.232 -163.07)" fill="none" stroke="#003450" stroke-linejoin="round" stroke-width="0.4"/>
      <path id="Trazado_646618" data-name="Trazado 646618" d="M139.608,208.271a21.58,21.58,0,0,1-3.308,8.845,4.045,4.045,0,0,1-1.158,1.278,1.573,1.573,0,0,1-1.643.088,2.092,2.092,0,0,1-.656-2.009,10,10,0,0,1,2.053-4.963c1.489-1.994,3.447-4.372,6.124-4.136a8.365,8.365,0,0,1,6.643,4.215,2.1,2.1,0,0,1,.328,1.244,1.623,1.623,0,0,1-1.757,1.214,4.065,4.065,0,0,1-2.1-.981,19.236,19.236,0,0,1-3.5-3.458c-.253-.325-1.344-1.469-1.306-1.9" transform="translate(-83.053 -161.321)" fill="none" stroke="#003450" stroke-linejoin="round" stroke-width="0.4"/>
      <path id="Trazado_646619" data-name="Trazado 646619" d="M140.372,227.305a60.82,60.82,0,0,0,.14-18.419,35.741,35.741,0,0,1,3.86,15.809" transform="translate(-83.939 -161.5)" fill="none" stroke="#003450" stroke-linejoin="round" stroke-width="0.4"/>
      <circle id="Elipse_8822" data-name="Elipse 8822" cx="2.056" cy="2.056" r="2.056" transform="translate(40.236 23.717)" fill="#ffcd5e"/>
    </g>
  </g>
</svg>
