<svg xmlns="http://www.w3.org/2000/svg" xmlns:xlink="http://www.w3.org/1999/xlink" width="111" height="111" viewBox="0 0 111 111">
  <defs>
    <clipPath id="clip-path">
      <rect id="Rectángulo_351160" data-name="Rectángulo 351160" width="82.152" height="92.076" fill="#fff"/>
    </clipPath>
  </defs>
  <g id="Grupo_980531" data-name="Grupo 980531" transform="translate(-1165 -501)">
    <circle id="Elipse_8828" data-name="Elipse 8828" cx="55.5" cy="55.5" r="55.5" transform="translate(1165 501)" fill="#f0bd51"/>
    <g id="Grupo_980528" data-name="Grupo 980528" transform="translate(1180 506)">
      <g id="Grupo_980527" data-name="Grupo 980527" clip-path="url(#clip-path)">
        <path id="Trazado_656410" data-name="Trazado 656410" d="M76.853,30.776A41.62,41.62,0,0,0,63.687,16.695a2.761,2.761,0,0,0-3.041,4.61,35.552,35.552,0,0,1,9.7,49.828,83.892,83.892,0,0,0-27.831-5.084,16.8,16.8,0,0,1,3.646-10.634c3.08.987,7.2,2.533,12.74-2.988a28.365,28.365,0,0,0,8-16.338,2.786,2.786,0,0,0-3.016-3.142c-4.291.4-11.768,1.753-17.668,7.7-5.471,5.513-4.551,8.9-3.451,10.475A27.954,27.954,0,0,1,58.544,40.48a66.713,66.713,0,0,0-11.173,8.826,39.477,39.477,0,0,0-7.627,10.313,30.159,30.159,0,0,0-5.806-8.743,65.612,65.612,0,0,0-10.731-9.038c7.386,1.724,11.641,6.13,15.213,10.964,1.133-1.518,2.144-4.824-3.075-10.423C29.757,36.385,22.5,34.8,18.271,34.264a2.781,2.781,0,0,0-3.155,3.02,27.944,27.944,0,0,0,7.371,16.308c4.689,4.974,8.446,4.439,11.373,3.643a14.86,14.86,0,0,1,3.5,8.864A83.171,83.171,0,0,0,11.781,71.12,35.512,35.512,0,0,1,42.694,15.512l-6.279,5.638a2.594,2.594,0,0,0,3.467,3.86l10.794-9.694a2.594,2.594,0,0,0,.2-3.664L41.18.859a2.594,2.594,0,0,0-3.861,3.467l5.09,5.668a41,41,0,0,0-27.557,9.4C3.107,29.133-2.381,44.431.971,60.38a31.274,31.274,0,0,0,1.712,5.533c6.24,15.051,19.4,24.569,34.588,25.983q1.947.182,3.879.181a41.094,41.094,0,0,0,35.7-61.3" transform="translate(0 0)" fill="#fff"/>
      </g>
    </g>
  </g>
</svg>
