<svg xmlns="http://www.w3.org/2000/svg" xmlns:xlink="http://www.w3.org/1999/xlink" width="286.41" height="1005.165" viewBox="0 0 286.41 1005.165">
  <defs>
    <filter id="Trazado_656559" x="30" y="26.421" width="144" height="115" filterUnits="userSpaceOnUse">
      <feOffset dy="3" input="SourceAlpha"/>
      <feGaussianBlur stdDeviation="3" result="blur"/>
      <feFlood flood-opacity="0.161"/>
      <feComposite operator="in" in2="blur"/>
      <feComposite in="SourceGraphic"/>
    </filter>
    <filter id="Trazado_656561" x="30" y="142.421" width="144" height="115" filterUnits="userSpaceOnUse">
      <feOffset dy="3" input="SourceAlpha"/>
      <feGaussianBlur stdDeviation="3" result="blur-2"/>
      <feFlood flood-opacity="0.161"/>
      <feComposite operator="in" in2="blur-2"/>
      <feComposite in="SourceGraphic"/>
    </filter>
    <filter id="Trazado_656563" x="30" y="262.421" width="144" height="115" filterUnits="userSpaceOnUse">
      <feOffset dy="3" input="SourceAlpha"/>
      <feGaussianBlur stdDeviation="3" result="blur-3"/>
      <feFlood flood-opacity="0.161"/>
      <feComposite operator="in" in2="blur-3"/>
      <feComposite in="SourceGraphic"/>
    </filter>
    <filter id="Trazado_656565" x="30" y="382.421" width="144" height="115" filterUnits="userSpaceOnUse">
      <feOffset dy="3" input="SourceAlpha"/>
      <feGaussianBlur stdDeviation="3" result="blur-4"/>
      <feFlood flood-opacity="0.161"/>
      <feComposite operator="in" in2="blur-4"/>
      <feComposite in="SourceGraphic"/>
    </filter>
    <filter id="Trazado_656567" x="27" y="502.421" width="144" height="115" filterUnits="userSpaceOnUse">
      <feOffset dy="3" input="SourceAlpha"/>
      <feGaussianBlur stdDeviation="3" result="blur-5"/>
      <feFlood flood-opacity="0.161"/>
      <feComposite operator="in" in2="blur-5"/>
      <feComposite in="SourceGraphic"/>
    </filter>
    <filter id="Trazado_656569" x="27" y="618.421" width="144" height="115" filterUnits="userSpaceOnUse">
      <feOffset dy="3" input="SourceAlpha"/>
      <feGaussianBlur stdDeviation="3" result="blur-6"/>
      <feFlood flood-opacity="0.161"/>
      <feComposite operator="in" in2="blur-6"/>
      <feComposite in="SourceGraphic"/>
    </filter>
    <filter id="Trazado_656571" x="27" y="740.421" width="144" height="115" filterUnits="userSpaceOnUse">
      <feOffset dy="3" input="SourceAlpha"/>
      <feGaussianBlur stdDeviation="3" result="blur-7"/>
      <feFlood flood-opacity="0.161"/>
      <feComposite operator="in" in2="blur-7"/>
      <feComposite in="SourceGraphic"/>
    </filter>
    <filter id="Trazado_656572" x="27" y="862.421" width="144" height="115" filterUnits="userSpaceOnUse">
      <feOffset dy="3" input="SourceAlpha"/>
      <feGaussianBlur stdDeviation="3" result="blur-8"/>
      <feFlood flood-opacity="0.161"/>
      <feComposite operator="in" in2="blur-8"/>
      <feComposite in="SourceGraphic"/>
    </filter>
  </defs>
  <g id="Grupo_980604" data-name="Grupo 980604" transform="translate(3895 10680.421)">
    <path id="Trazado_656558" data-name="Trazado 656558" d="M-64.551-2.373h5.37V0h-8.455V-12.8h3.085Zm6.161-2.47a5.613,5.613,0,0,1,.554-2.536,3.96,3.96,0,0,1,1.591-1.709,4.791,4.791,0,0,1,2.435-.6,4.373,4.373,0,0,1,3.366,1.323,5.076,5.076,0,0,1,1.23,3.6v.105a4.925,4.925,0,0,1-1.235,3.529A4.384,4.384,0,0,1-53.793.176a4.434,4.434,0,0,1-3.261-1.217,4.761,4.761,0,0,1-1.327-3.3Zm2.962.185a3.538,3.538,0,0,0,.413,1.934,1.376,1.376,0,0,0,1.222.615q1.582,0,1.617-2.435v-.3q0-2.558-1.635-2.558-1.485,0-1.608,2.206Zm7.172-.167a6.421,6.421,0,0,1,.475-2.549,3.821,3.821,0,0,1,1.362-1.709,3.591,3.591,0,0,1,2.065-.6,2.855,2.855,0,0,1,2.32,1l.105-.826h2.689V-.36a4.009,4.009,0,0,1-.584,2.184,3.75,3.75,0,0,1-1.692,1.424,6.219,6.219,0,0,1-2.566.5,5.365,5.365,0,0,1-2.026-.4,3.657,3.657,0,0,1-1.5-1.028L-46.367.58a2.716,2.716,0,0,0,2.18.976A1.764,1.764,0,0,0-42.218-.466v-.3a2.781,2.781,0,0,1-2.153.94,3.437,3.437,0,0,1-2.812-1.332A5.517,5.517,0,0,1-48.256-4.72Zm2.971.185a3.383,3.383,0,0,0,.439,1.85,1.386,1.386,0,0,0,1.23.681,1.573,1.573,0,0,0,1.4-.642v-4A1.534,1.534,0,0,0-43.6-7.4a1.4,1.4,0,0,0-1.239.708A3.858,3.858,0,0,0-45.286-4.641ZM-34.326,0h-2.979V-9.51h2.979Zm-1.107-13.324H-32.3l-2.443,2.76-2.417,0Zm7.989,10.652a.684.684,0,0,0-.4-.606,6.016,6.016,0,0,0-1.5-.475A6.853,6.853,0,0,1-31.17-4.4a3.062,3.062,0,0,1-1.1-.971,2.319,2.319,0,0,1-.378-1.31,2.628,2.628,0,0,1,1.081-2.158,4.453,4.453,0,0,1,2.83-.848,4.934,4.934,0,0,1,3.023.853A2.666,2.666,0,0,1-24.57-6.592h-2.971q0-1.143-1.2-1.143a1.194,1.194,0,0,0-.782.259.8.8,0,0,0-.316.646.737.737,0,0,0,.387.642,3.654,3.654,0,0,0,1.235.4,10.671,10.671,0,0,1,1.49.378A2.706,2.706,0,0,1-24.587-2.76,2.491,2.491,0,0,1-25.743-.642a5.068,5.068,0,0,1-2.993.817,5.172,5.172,0,0,1-2.18-.439,3.645,3.645,0,0,1-1.494-1.2,2.707,2.707,0,0,1-.536-1.591h2.769a1.145,1.145,0,0,0,.439.962,1.808,1.808,0,0,0,1.081.3,1.422,1.422,0,0,0,.91-.246A.787.787,0,0,0-27.444-2.672Zm7.69-9.2V-9.51h1.564v2.057h-1.564V-3.1a1.111,1.111,0,0,0,.193.747,1.037,1.037,0,0,0,.765.211,4.345,4.345,0,0,0,.738-.053V-.079a5.466,5.466,0,0,1-1.67.255,3.1,3.1,0,0,1-2.259-.721,2.954,2.954,0,0,1-.729-2.188v-4.72h-1.213V-9.51h1.213v-2.364ZM-13.9,0h-2.971V-9.51H-13.9Zm-3.146-11.971a1.334,1.334,0,0,1,.457-1.043,1.718,1.718,0,0,1,1.187-.407,1.718,1.718,0,0,1,1.187.407,1.334,1.334,0,0,1,.457,1.043,1.334,1.334,0,0,1-.457,1.043,1.718,1.718,0,0,1-1.187.407,1.718,1.718,0,0,1-1.187-.407A1.334,1.334,0,0,1-17.046-11.971Zm8.991,9.861a1.317,1.317,0,0,0,.967-.338,1.241,1.241,0,0,0,.334-.945h2.777A3.288,3.288,0,0,1-5.1-.826a4.168,4.168,0,0,1-2.887,1,4.22,4.22,0,0,1-3.27-1.3,5.125,5.125,0,0,1-1.2-3.6v-.123A5.792,5.792,0,0,1-11.918-7.4a3.872,3.872,0,0,1,1.534-1.7,4.573,4.573,0,0,1,2.373-.593A4.116,4.116,0,0,1-5.067-8.657a3.647,3.647,0,0,1,1.09,2.786H-6.754A1.626,1.626,0,0,0-7.115-7a1.244,1.244,0,0,0-.967-.4q-1.151,0-1.345,1.468a10.357,10.357,0,0,0-.062,1.283,4.068,4.068,0,0,0,.343,1.986A1.187,1.187,0,0,0-8.055-2.109ZM2.632,0a3.344,3.344,0,0,1-.281-.853A2.754,2.754,0,0,1,.066.176,3.374,3.374,0,0,1-2.219-.637a2.588,2.588,0,0,1-.94-2.043A2.66,2.66,0,0,1-2.017-5.019,5.821,5.821,0,0,1,1.305-5.81h.914v-.5q0-1.316-1.134-1.316A.927.927,0,0,0,.031-6.587H-2.931A2.655,2.655,0,0,1-1.758-8.825a4.931,4.931,0,0,1,2.993-.86A4.323,4.323,0,0,1,4.109-8.8,3.086,3.086,0,0,1,5.19-6.363v4.21a4.311,4.311,0,0,0,.4,2V0ZM.778-1.934A1.652,1.652,0,0,0,1.7-2.171a1.487,1.487,0,0,0,.523-.536V-4.228H1.358q-1.547,0-1.547,1.389a.848.848,0,0,0,.272.655A.986.986,0,0,0,.778-1.934ZM11.448,0V-12.8H15.57a6.064,6.064,0,0,1,3.05.769,5.406,5.406,0,0,1,2.114,2.171A6.554,6.554,0,0,1,21.5-6.715v.589a6.592,6.592,0,0,1-.743,3.151A5.429,5.429,0,0,1,18.668-.8a5.93,5.93,0,0,1-3.01.8Zm3.085-10.415v8.042H15.6a2.4,2.4,0,0,0,2.039-.945,4.63,4.63,0,0,0,.712-2.808V-6.68a4.592,4.592,0,0,0-.712-2.795,2.442,2.442,0,0,0-2.074-.94ZM26.073,0H23.1V-9.51h2.971ZM22.926-11.971a1.334,1.334,0,0,1,.457-1.043,1.718,1.718,0,0,1,1.187-.407,1.718,1.718,0,0,1,1.187.407,1.334,1.334,0,0,1,.457,1.043,1.334,1.334,0,0,1-.457,1.043,1.718,1.718,0,0,1-1.187.407,1.718,1.718,0,0,1-1.187-.407A1.334,1.334,0,0,1,22.926-11.971ZM33.649-6.829l-.976-.07a1.752,1.752,0,0,0-1.793.879V0H27.918V-9.51H30.7l.1,1.222a2.294,2.294,0,0,1,2.083-1.4,2.888,2.888,0,0,1,.826.105Zm5.5,7a4.889,4.889,0,0,1-3.542-1.305,4.507,4.507,0,0,1-1.354-3.4v-.246A5.84,5.84,0,0,1,34.8-7.348a3.955,3.955,0,0,1,1.578-1.727,4.763,4.763,0,0,1,2.461-.611A4.117,4.117,0,0,1,42-8.442a4.887,4.887,0,0,1,1.16,3.467v1.151H37.27a2.135,2.135,0,0,0,.694,1.257,2.066,2.066,0,0,0,1.389.457,2.662,2.662,0,0,0,2.2-.984l1.354,1.6A3.784,3.784,0,0,1,41.335-.277,5.3,5.3,0,0,1,39.151.176ZM38.817-7.4q-1.3,0-1.547,1.723h2.988v-.229a1.467,1.467,0,0,0-.36-1.1A1.434,1.434,0,0,0,38.817-7.4Zm9.554,5.291a1.317,1.317,0,0,0,.967-.338,1.241,1.241,0,0,0,.334-.945h2.777A3.288,3.288,0,0,1,51.328-.826a4.168,4.168,0,0,1-2.887,1,4.22,4.22,0,0,1-3.27-1.3,5.125,5.125,0,0,1-1.2-3.6v-.123A5.792,5.792,0,0,1,44.508-7.4a3.872,3.872,0,0,1,1.534-1.7,4.573,4.573,0,0,1,2.373-.593,4.116,4.116,0,0,1,2.944,1.028,3.647,3.647,0,0,1,1.09,2.786H49.671A1.626,1.626,0,0,0,49.311-7a1.244,1.244,0,0,0-.967-.4Q47.193-7.4,47-5.933a10.357,10.357,0,0,0-.062,1.283,4.068,4.068,0,0,0,.343,1.986A1.187,1.187,0,0,0,48.371-2.109Zm8.78-9.765V-9.51h1.564v2.057H57.151V-3.1a1.111,1.111,0,0,0,.193.747,1.037,1.037,0,0,0,.765.211,4.345,4.345,0,0,0,.738-.053V-.079a5.466,5.466,0,0,1-1.67.255,3.1,3.1,0,0,1-2.259-.721,2.954,2.954,0,0,1-.729-2.188v-4.72H52.976V-9.51h1.213v-2.364ZM65.237,0a3.344,3.344,0,0,1-.281-.853A2.754,2.754,0,0,1,62.67.176a3.374,3.374,0,0,1-2.285-.813,2.588,2.588,0,0,1-.94-2.043,2.66,2.66,0,0,1,1.143-2.338A5.821,5.821,0,0,1,63.91-5.81h.914v-.5q0-1.316-1.134-1.316a.927.927,0,0,0-1.055,1.042H59.673a2.655,2.655,0,0,1,1.173-2.239,4.931,4.931,0,0,1,2.993-.86,4.323,4.323,0,0,1,2.874.888,3.086,3.086,0,0,1,1.081,2.435v4.21a4.311,4.311,0,0,0,.4,2V0ZM63.382-1.934a1.652,1.652,0,0,0,.918-.237,1.487,1.487,0,0,0,.523-.536V-4.228h-.861q-1.547,0-1.547,1.389a.848.848,0,0,0,.272.655A.986.986,0,0,0,63.382-1.934Z" transform="translate(-3796 -10667)" fill="#12263f"/>
    <path id="Trazado_656579" data-name="Trazado 656579" d="M-65.571-2.373h5.37V0h-8.455V-12.8h3.085Zm6.161-2.47a5.613,5.613,0,0,1,.554-2.536,3.96,3.96,0,0,1,1.591-1.709,4.791,4.791,0,0,1,2.435-.6,4.373,4.373,0,0,1,3.366,1.323,5.076,5.076,0,0,1,1.23,3.6v.105a4.925,4.925,0,0,1-1.235,3.529A4.384,4.384,0,0,1-54.813.176a4.434,4.434,0,0,1-3.261-1.217,4.761,4.761,0,0,1-1.327-3.3Zm2.962.185a3.538,3.538,0,0,0,.413,1.934,1.376,1.376,0,0,0,1.222.615q1.582,0,1.617-2.435v-.3q0-2.558-1.635-2.558-1.485,0-1.608,2.206Zm7.172-.167A6.421,6.421,0,0,1-48.8-7.374a3.821,3.821,0,0,1,1.362-1.709,3.591,3.591,0,0,1,2.065-.6,2.855,2.855,0,0,1,2.32,1l.105-.826h2.689V-.36a4.009,4.009,0,0,1-.584,2.184,3.75,3.75,0,0,1-1.692,1.424,6.219,6.219,0,0,1-2.566.5,5.365,5.365,0,0,1-2.026-.4,3.657,3.657,0,0,1-1.5-1.028L-47.386.58a2.716,2.716,0,0,0,2.18.976A1.764,1.764,0,0,0-43.238-.466v-.3a2.781,2.781,0,0,1-2.153.94A3.437,3.437,0,0,1-48.2-1.156,5.517,5.517,0,0,1-49.276-4.72Zm2.971.185a3.383,3.383,0,0,0,.439,1.85,1.386,1.386,0,0,0,1.23.681,1.573,1.573,0,0,0,1.4-.642v-4a1.534,1.534,0,0,0-1.38-.65,1.4,1.4,0,0,0-1.239.708A3.858,3.858,0,0,0-46.305-4.641ZM-35.345,0h-2.979V-9.51h2.979Zm-1.107-13.324h3.129l-2.443,2.76-2.417,0Zm7.989,10.652a.684.684,0,0,0-.4-.606,6.016,6.016,0,0,0-1.5-.475A6.853,6.853,0,0,1-32.19-4.4a3.062,3.062,0,0,1-1.1-.971,2.319,2.319,0,0,1-.378-1.31,2.628,2.628,0,0,1,1.081-2.158,4.453,4.453,0,0,1,2.83-.848,4.934,4.934,0,0,1,3.023.853,2.666,2.666,0,0,1,1.143,2.241H-28.56q0-1.143-1.2-1.143a1.194,1.194,0,0,0-.782.259.8.8,0,0,0-.316.646.737.737,0,0,0,.387.642,3.654,3.654,0,0,0,1.235.4,10.671,10.671,0,0,1,1.49.378A2.706,2.706,0,0,1-25.607-2.76,2.491,2.491,0,0,1-26.763-.642a5.068,5.068,0,0,1-2.993.817,5.172,5.172,0,0,1-2.18-.439,3.645,3.645,0,0,1-1.494-1.2,2.707,2.707,0,0,1-.536-1.591H-31.2a1.145,1.145,0,0,0,.439.962,1.808,1.808,0,0,0,1.081.3,1.422,1.422,0,0,0,.91-.246A.787.787,0,0,0-28.463-2.672Zm7.69-9.2V-9.51h1.564v2.057h-1.564V-3.1a1.111,1.111,0,0,0,.193.747,1.037,1.037,0,0,0,.765.211,4.345,4.345,0,0,0,.738-.053V-.079a5.466,5.466,0,0,1-1.67.255,3.1,3.1,0,0,1-2.259-.721,2.954,2.954,0,0,1-.729-2.188v-4.72h-1.213V-9.51h1.213v-2.364ZM-14.919,0H-17.89V-9.51h2.971Zm-3.146-11.971a1.334,1.334,0,0,1,.457-1.043,1.718,1.718,0,0,1,1.187-.407,1.718,1.718,0,0,1,1.187.407,1.334,1.334,0,0,1,.457,1.043,1.334,1.334,0,0,1-.457,1.043,1.718,1.718,0,0,1-1.187.407,1.718,1.718,0,0,1-1.187-.407A1.334,1.334,0,0,1-18.066-11.971Zm8.991,9.861a1.317,1.317,0,0,0,.967-.338,1.241,1.241,0,0,0,.334-.945H-5A3.288,3.288,0,0,1-6.117-.826,4.168,4.168,0,0,1-9,.176a4.22,4.22,0,0,1-3.27-1.3,5.125,5.125,0,0,1-1.2-3.6v-.123A5.792,5.792,0,0,1-12.937-7.4a3.872,3.872,0,0,1,1.534-1.7,4.573,4.573,0,0,1,2.373-.593A4.116,4.116,0,0,1-6.086-8.657,3.647,3.647,0,0,1-5-5.871H-7.774A1.626,1.626,0,0,0-8.134-7,1.244,1.244,0,0,0-9.1-7.4q-1.151,0-1.345,1.468a10.357,10.357,0,0,0-.062,1.283,4.068,4.068,0,0,0,.343,1.986A1.187,1.187,0,0,0-9.075-2.109ZM1.613,0a3.344,3.344,0,0,1-.281-.853A2.754,2.754,0,0,1-.954.176,3.374,3.374,0,0,1-3.239-.637a2.588,2.588,0,0,1-.94-2.043A2.66,2.66,0,0,1-3.037-5.019,5.821,5.821,0,0,1,.286-5.81H1.2v-.5Q1.2-7.629.066-7.629A.927.927,0,0,0-.989-6.587H-3.951A2.655,2.655,0,0,1-2.777-8.825a4.931,4.931,0,0,1,2.993-.86A4.323,4.323,0,0,1,3.089-8.8,3.086,3.086,0,0,1,4.17-6.363v4.21a4.311,4.311,0,0,0,.4,2V0ZM-.242-1.934a1.652,1.652,0,0,0,.918-.237A1.487,1.487,0,0,0,1.2-2.707V-4.228H.338q-1.547,0-1.547,1.389a.848.848,0,0,0,.272.655A.986.986,0,0,0-.242-1.934ZM13.715,0H10.639V-12.8h3.076Zm4.729-9.51.1,1.116a3.225,3.225,0,0,1,2.716-1.292,2.713,2.713,0,0,1,2.219.888,4.226,4.226,0,0,1,.76,2.672V0H21.265V-6a1.6,1.6,0,0,0-.29-1.059A1.342,1.342,0,0,0,19.92-7.4a1.413,1.413,0,0,0-1.292.686V0H15.667V-9.51ZM29.667-3.524l1.5-5.985h3.12L31.188,0H28.165l-3.1-9.51h3.129Zm9.993,3.7a4.889,4.889,0,0,1-3.542-1.305,4.507,4.507,0,0,1-1.354-3.4v-.246a5.84,5.84,0,0,1,.541-2.575,3.955,3.955,0,0,1,1.578-1.727,4.763,4.763,0,0,1,2.461-.611,4.117,4.117,0,0,1,3.164,1.244,4.887,4.887,0,0,1,1.16,3.467v1.151H37.78a2.135,2.135,0,0,0,.694,1.257,2.066,2.066,0,0,0,1.389.457,2.662,2.662,0,0,0,2.2-.984l1.354,1.6A3.784,3.784,0,0,1,41.845-.277,5.3,5.3,0,0,1,39.661.176ZM39.327-7.4q-1.3,0-1.547,1.723h2.988v-.229a1.467,1.467,0,0,0-.36-1.1A1.434,1.434,0,0,0,39.327-7.4Zm11.285.571-.976-.07a1.752,1.752,0,0,0-1.793.879V0H44.881V-9.51h2.777l.1,1.222a2.294,2.294,0,0,1,2.083-1.4,2.888,2.888,0,0,1,.826.105Zm6.047,4.157a.684.684,0,0,0-.4-.606,6.016,6.016,0,0,0-1.5-.475A6.853,6.853,0,0,1,52.932-4.4a3.062,3.062,0,0,1-1.1-.971,2.319,2.319,0,0,1-.378-1.31,2.628,2.628,0,0,1,1.081-2.158,4.453,4.453,0,0,1,2.83-.848,4.934,4.934,0,0,1,3.023.853,2.666,2.666,0,0,1,1.143,2.241H56.562q0-1.143-1.2-1.143a1.194,1.194,0,0,0-.782.259.8.8,0,0,0-.316.646.737.737,0,0,0,.387.642,3.654,3.654,0,0,0,1.235.4,10.671,10.671,0,0,1,1.49.378A2.706,2.706,0,0,1,59.515-2.76,2.491,2.491,0,0,1,58.359-.642a5.068,5.068,0,0,1-2.993.817,5.172,5.172,0,0,1-2.18-.439,3.645,3.645,0,0,1-1.494-1.2,2.707,2.707,0,0,1-.536-1.591h2.769a1.145,1.145,0,0,0,.439.962,1.808,1.808,0,0,0,1.081.3,1.422,1.422,0,0,0,.91-.246A.787.787,0,0,0,56.659-2.672ZM66.256,0a3.344,3.344,0,0,1-.281-.853A2.754,2.754,0,0,1,63.69.176,3.374,3.374,0,0,1,61.4-.637a2.588,2.588,0,0,1-.94-2.043,2.66,2.66,0,0,1,1.143-2.338,5.821,5.821,0,0,1,3.322-.791h.914v-.5q0-1.316-1.134-1.316a.927.927,0,0,0-1.055,1.042H60.693a2.655,2.655,0,0,1,1.173-2.239,4.931,4.931,0,0,1,2.993-.86,4.323,4.323,0,0,1,2.874.888,3.086,3.086,0,0,1,1.081,2.435v4.21a4.311,4.311,0,0,0,.4,2V0ZM64.4-1.934a1.652,1.652,0,0,0,.918-.237,1.487,1.487,0,0,0,.523-.536V-4.228h-.861q-1.547,0-1.547,1.389a.848.848,0,0,0,.272.655A.986.986,0,0,0,64.4-1.934Z" transform="translate(-3796 -9679)" fill="#12263f"/>
    <g transform="matrix(1, 0, 0, 1, -3895, -10680.42)" filter="url(#Trazado_656559)">
      <path id="Trazado_656559-2" data-name="Trazado 656559" d="M0,0H126V97H0Z" transform="translate(39 32.42)" fill="#fff"/>
    </g>
    <path id="Trazado_656560" data-name="Trazado 656560" d="M-41.73-4.453V0h-1.5V-11.375h4.2a4.215,4.215,0,0,1,2.926.953A3.231,3.231,0,0,1-35.051-7.9a3.189,3.189,0,0,1-1.035,2.551,4.4,4.4,0,0,1-2.965.895Zm0-1.227h2.7a2.7,2.7,0,0,0,1.844-.567,2.075,2.075,0,0,0,.641-1.64,2.143,2.143,0,0,0-.641-1.628,2.525,2.525,0,0,0-1.758-.634H-41.73Zm12.453-1.477a4.331,4.331,0,0,0-.711-.055A1.9,1.9,0,0,0-31.918-6V0h-1.445V-8.453h1.406l.023.977a2.251,2.251,0,0,1,2.016-1.133,1.477,1.477,0,0,1,.641.109Zm.789,2.852A4.993,4.993,0,0,1-28-6.539,3.643,3.643,0,0,1-26.641-8.07a3.7,3.7,0,0,1,1.988-.539,3.565,3.565,0,0,1,2.793,1.2,4.6,4.6,0,0,1,1.066,3.18v.1a5.036,5.036,0,0,1-.473,2.215A3.589,3.589,0,0,1-22.617-.391a3.743,3.743,0,0,1-2.02.547,3.556,3.556,0,0,1-2.785-1.2A4.575,4.575,0,0,1-28.488-4.2Zm1.453.172a3.616,3.616,0,0,0,.652,2.258,2.088,2.088,0,0,0,1.746.852,2.075,2.075,0,0,0,1.75-.863A3.955,3.955,0,0,0-22.238-4.3a3.61,3.61,0,0,0-.66-2.254,2.1,2.1,0,0,0-1.754-.863,2.075,2.075,0,0,0-1.727.852A3.925,3.925,0,0,0-27.035-4.133Zm10.727,2.172,2.094-6.492h1.477L-15.77,0h-1.1l-3.062-8.453h1.477ZM-7.941.156a3.693,3.693,0,0,1-2.8-1.129,4.19,4.19,0,0,1-1.078-3.02v-.266a5.073,5.073,0,0,1,.48-2.246A3.748,3.748,0,0,1-9.992-8.051a3.378,3.378,0,0,1,1.871-.559A3.166,3.166,0,0,1-5.559-7.523a4.7,4.7,0,0,1,.914,3.109v.6h-5.727a3,3,0,0,0,.73,2.02,2.3,2.3,0,0,0,1.777.77,2.517,2.517,0,0,0,1.3-.312,3.259,3.259,0,0,0,.93-.828l.883.688A3.55,3.55,0,0,1-7.941.156Zm-.18-7.578a1.928,1.928,0,0,0-1.469.637A3.1,3.1,0,0,0-10.324-5H-6.09v-.109a2.753,2.753,0,0,0-.594-1.707A1.815,1.815,0,0,0-8.121-7.422ZM.535.156a3.693,3.693,0,0,1-2.8-1.129A4.19,4.19,0,0,1-3.34-3.992v-.266A5.073,5.073,0,0,1-2.859-6.5,3.748,3.748,0,0,1-1.516-8.051,3.378,3.378,0,0,1,.355-8.609,3.166,3.166,0,0,1,2.918-7.523a4.7,4.7,0,0,1,.914,3.109v.6H-1.895a3,3,0,0,0,.73,2.02,2.3,2.3,0,0,0,1.777.77,2.517,2.517,0,0,0,1.3-.312,3.259,3.259,0,0,0,.93-.828l.883.688A3.55,3.55,0,0,1,.535.156ZM.355-7.422a1.928,1.928,0,0,0-1.469.637A3.1,3.1,0,0,0-1.848-5H2.387v-.109a2.753,2.753,0,0,0-.594-1.707A1.815,1.815,0,0,0,.355-7.422ZM5.152-4.3a4.952,4.952,0,0,1,.922-3.129A2.915,2.915,0,0,1,8.488-8.609,2.932,2.932,0,0,1,10.84-7.594V-12h1.445V0H10.957l-.07-.906A2.943,2.943,0,0,1,8.473.156a2.887,2.887,0,0,1-2.395-1.2,5.008,5.008,0,0,1-.926-3.141ZM6.6-4.133a3.749,3.749,0,0,0,.594,2.25,1.92,1.92,0,0,0,1.641.813A2.108,2.108,0,0,0,10.84-2.3V-6.187a2.125,2.125,0,0,0-1.992-1.2,1.929,1.929,0,0,0-1.656.82A4.128,4.128,0,0,0,6.6-4.133ZM14.145-4.3a4.993,4.993,0,0,1,.488-2.234A3.643,3.643,0,0,1,15.992-8.07a3.7,3.7,0,0,1,1.988-.539,3.565,3.565,0,0,1,2.793,1.2,4.6,4.6,0,0,1,1.066,3.18v.1a5.036,5.036,0,0,1-.473,2.215A3.589,3.589,0,0,1,20.016-.391,3.743,3.743,0,0,1,18,.156a3.556,3.556,0,0,1-2.785-1.2A4.575,4.575,0,0,1,14.145-4.2Zm1.453.172a3.616,3.616,0,0,0,.652,2.258A2.088,2.088,0,0,0,18-1.023a2.075,2.075,0,0,0,1.75-.863A3.955,3.955,0,0,0,20.395-4.3a3.61,3.61,0,0,0-.66-2.254,2.1,2.1,0,0,0-1.754-.863,2.075,2.075,0,0,0-1.727.852A3.925,3.925,0,0,0,15.6-4.133ZM27.738-7.156a4.331,4.331,0,0,0-.711-.055A1.9,1.9,0,0,0,25.1-6V0H23.652V-8.453h1.406l.023.977A2.251,2.251,0,0,1,27.1-8.609a1.477,1.477,0,0,1,.641.109ZM32.426.156a3.693,3.693,0,0,1-2.8-1.129,4.19,4.19,0,0,1-1.078-3.02v-.266a5.073,5.073,0,0,1,.48-2.246,3.748,3.748,0,0,1,1.344-1.547,3.378,3.378,0,0,1,1.871-.559,3.166,3.166,0,0,1,2.563,1.086,4.7,4.7,0,0,1,.914,3.109v.6H30a3,3,0,0,0,.73,2.02,2.3,2.3,0,0,0,1.777.77,2.517,2.517,0,0,0,1.3-.312,3.259,3.259,0,0,0,.93-.828l.883.688A3.55,3.55,0,0,1,32.426.156Zm-.18-7.578a1.928,1.928,0,0,0-1.469.637A3.1,3.1,0,0,0,30.043-5h4.234v-.109a2.753,2.753,0,0,0-.594-1.707A1.815,1.815,0,0,0,32.246-7.422Zm10.07,5.18a1.064,1.064,0,0,0-.441-.91,4.249,4.249,0,0,0-1.539-.559,7.277,7.277,0,0,1-1.742-.562,2.479,2.479,0,0,1-.953-.781,1.869,1.869,0,0,1-.309-1.078,2.193,2.193,0,0,1,.879-1.758,3.432,3.432,0,0,1,2.246-.719,3.532,3.532,0,0,1,2.332.742,2.357,2.357,0,0,1,.895,1.9H42.23a1.3,1.3,0,0,0-.5-1.023,1.888,1.888,0,0,0-1.27-.43,1.976,1.976,0,0,0-1.234.344,1.082,1.082,0,0,0-.445.9.877.877,0,0,0,.414.789,5.1,5.1,0,0,0,1.5.508,7.8,7.8,0,0,1,1.754.578,2.558,2.558,0,0,1,1,.809,1.988,1.988,0,0,1,.324,1.152,2.163,2.163,0,0,1-.906,1.816A3.8,3.8,0,0,1,40.5.156a4.257,4.257,0,0,1-1.8-.359,2.922,2.922,0,0,1-1.223-1A2.42,2.42,0,0,1,37.043-2.6h1.445a1.5,1.5,0,0,0,.582,1.152,2.258,2.258,0,0,0,1.434.426,2.331,2.331,0,0,0,1.316-.332A1.02,1.02,0,0,0,42.316-2.242ZM-34.234,12.625l3.719,9.281,3.719-9.281h1.945V24h-1.5V19.57l.141-4.781L-29.945,24h-1.148l-3.727-9.187.148,4.758V24h-1.5V12.625ZM-17.211,24a3.036,3.036,0,0,1-.2-.891,3.225,3.225,0,0,1-2.406,1.047,2.984,2.984,0,0,1-2.051-.707,2.287,2.287,0,0,1-.8-1.793,2.39,2.39,0,0,1,1-2.051,4.733,4.733,0,0,1,2.824-.73h1.406v-.664A1.623,1.623,0,0,0-17.891,17a1.821,1.821,0,0,0-1.336-.449,2.108,2.108,0,0,0-1.3.391,1.151,1.151,0,0,0-.523.945H-22.5a2,2,0,0,1,.449-1.223,3.066,3.066,0,0,1,1.219-.934,4.1,4.1,0,0,1,1.691-.344,3.342,3.342,0,0,1,2.289.73,2.635,2.635,0,0,1,.859,2.012v3.891a4.757,4.757,0,0,0,.3,1.852V24Zm-2.4-1.1a2.54,2.54,0,0,0,1.289-.352,2.127,2.127,0,0,0,.883-.914V19.9H-18.57q-2.656,0-2.656,1.555a1.316,1.316,0,0,0,.453,1.063A1.742,1.742,0,0,0-19.609,22.9Zm7.844-9.4v2.047h1.578v1.117h-1.578v5.249a1.173,1.173,0,0,0,.211.763.888.888,0,0,0,.719.254,3.5,3.5,0,0,0,.688-.094V24a4.215,4.215,0,0,1-1.109.155,1.8,1.8,0,0,1-1.461-.586,2.517,2.517,0,0,1-.492-1.664V16.664H-14.75V15.547h1.539V13.5Zm6.773,10.656a3.693,3.693,0,0,1-2.8-1.129,4.19,4.19,0,0,1-1.078-3.02v-.266a5.073,5.073,0,0,1,.48-2.246,3.748,3.748,0,0,1,1.344-1.547,3.378,3.378,0,0,1,1.871-.559,3.166,3.166,0,0,1,2.563,1.086A4.7,4.7,0,0,1-1.7,19.586v.6H-7.422a3,3,0,0,0,.73,2.02,2.3,2.3,0,0,0,1.777.77,2.517,2.517,0,0,0,1.3-.312,3.259,3.259,0,0,0,.93-.828l.883.688A3.55,3.55,0,0,1-4.992,24.156Zm-.18-7.578a1.928,1.928,0,0,0-1.469.637A3.1,3.1,0,0,0-7.375,19h4.234v-.109a2.753,2.753,0,0,0-.594-1.707A1.815,1.815,0,0,0-5.172,16.578Zm9.234.266a4.331,4.331,0,0,0-.711-.055A1.9,1.9,0,0,0,1.422,18v6H-.023V15.547H1.383l.023.977a2.251,2.251,0,0,1,2.016-1.133,1.477,1.477,0,0,1,.641.109ZM6.961,24H5.516V15.547H6.961ZM5.4,13.3a.863.863,0,0,1,.215-.594.807.807,0,0,1,.637-.242.819.819,0,0,1,.641.242.854.854,0,0,1,.219.594.826.826,0,0,1-.219.586.834.834,0,0,1-.641.234.821.821,0,0,1-.637-.234A.834.834,0,0,1,5.4,13.3ZM14.492,24a3.036,3.036,0,0,1-.2-.891,3.225,3.225,0,0,1-2.406,1.047,2.984,2.984,0,0,1-2.051-.707,2.287,2.287,0,0,1-.8-1.793,2.39,2.39,0,0,1,1-2.051,4.733,4.733,0,0,1,2.824-.73h1.406v-.664A1.623,1.623,0,0,0,13.813,17a1.821,1.821,0,0,0-1.336-.449,2.108,2.108,0,0,0-1.3.391,1.151,1.151,0,0,0-.523.945H9.2a2,2,0,0,1,.449-1.223,3.066,3.066,0,0,1,1.219-.934,4.1,4.1,0,0,1,1.691-.344,3.342,3.342,0,0,1,2.289.73,2.635,2.635,0,0,1,.859,2.012v3.891a4.757,4.757,0,0,0,.3,1.852V24Zm-2.4-1.1a2.54,2.54,0,0,0,1.289-.352,2.127,2.127,0,0,0,.883-.914V19.9H13.133q-2.656,0-2.656,1.555a1.316,1.316,0,0,0,.453,1.063A1.742,1.742,0,0,0,12.094,22.9ZM19.547,24H18.1V12h1.445Zm5.82.156a3.693,3.693,0,0,1-2.8-1.129,4.19,4.19,0,0,1-1.078-3.02v-.266a5.073,5.073,0,0,1,.48-2.246,3.748,3.748,0,0,1,1.344-1.547,3.378,3.378,0,0,1,1.871-.559,3.166,3.166,0,0,1,2.563,1.086,4.7,4.7,0,0,1,.914,3.109v.6H22.938a3,3,0,0,0,.73,2.02,2.3,2.3,0,0,0,1.777.77,2.517,2.517,0,0,0,1.3-.312,3.259,3.259,0,0,0,.93-.828l.883.688A3.55,3.55,0,0,1,25.367,24.156Zm-.18-7.578a1.928,1.928,0,0,0-1.469.637A3.1,3.1,0,0,0,22.984,19h4.234v-.109a2.753,2.753,0,0,0-.594-1.707A1.815,1.815,0,0,0,25.188,16.578Zm10.07,5.18a1.064,1.064,0,0,0-.441-.91,4.249,4.249,0,0,0-1.539-.559,7.277,7.277,0,0,1-1.742-.562,2.479,2.479,0,0,1-.953-.781,1.869,1.869,0,0,1-.309-1.078,2.193,2.193,0,0,1,.879-1.758,3.432,3.432,0,0,1,2.246-.719,3.532,3.532,0,0,1,2.332.742,2.357,2.357,0,0,1,.895,1.9H35.172a1.3,1.3,0,0,0-.5-1.023,1.888,1.888,0,0,0-1.27-.43,1.976,1.976,0,0,0-1.234.344,1.082,1.082,0,0,0-.445.9.877.877,0,0,0,.414.789,5.1,5.1,0,0,0,1.5.508,7.8,7.8,0,0,1,1.754.578,2.558,2.558,0,0,1,1,.809,1.988,1.988,0,0,1,.324,1.152,2.163,2.163,0,0,1-.906,1.816,3.8,3.8,0,0,1-2.352.684,4.257,4.257,0,0,1-1.8-.359,2.922,2.922,0,0,1-1.223-1,2.42,2.42,0,0,1-.441-1.395H31.43a1.5,1.5,0,0,0,.582,1.152,2.258,2.258,0,0,0,1.434.426,2.331,2.331,0,0,0,1.316-.332A1.02,1.02,0,0,0,35.258,21.758ZM-22.363,43.547V48h-1.5V36.625h4.2a4.215,4.215,0,0,1,2.926.953A3.231,3.231,0,0,1-15.684,40.1a3.189,3.189,0,0,1-1.035,2.551,4.4,4.4,0,0,1-2.965.895Zm0-1.227h2.7a2.7,2.7,0,0,0,1.844-.567,2.075,2.075,0,0,0,.641-1.64,2.143,2.143,0,0,0-.641-1.628,2.525,2.525,0,0,0-1.758-.634h-2.781ZM-9.91,40.844a4.331,4.331,0,0,0-.711-.055A1.9,1.9,0,0,0-12.551,42v6H-14V39.547h1.406l.023.977a2.251,2.251,0,0,1,2.016-1.133,1.477,1.477,0,0,1,.641.109ZM-7.012,48H-8.457V39.547h1.445ZM-8.574,37.3a.863.863,0,0,1,.215-.594.807.807,0,0,1,.637-.242.819.819,0,0,1,.641.242.854.854,0,0,1,.219.594.826.826,0,0,1-.219.586.834.834,0,0,1-.641.234.821.821,0,0,1-.637-.234A.834.834,0,0,1-8.574,37.3Zm5.234,2.242.039.938A3.122,3.122,0,0,1-.793,39.391,2.417,2.417,0,0,1,1.621,40.75a3.2,3.2,0,0,1,1.1-.984,3.242,3.242,0,0,1,1.6-.375q2.781,0,2.828,2.945V48H5.7V42.422a1.941,1.941,0,0,0-.414-1.355,1.823,1.823,0,0,0-1.391-.449,1.916,1.916,0,0,0-1.336.48,1.949,1.949,0,0,0-.617,1.293V48H.488V42.461a1.613,1.613,0,0,0-1.8-1.844,1.934,1.934,0,0,0-1.945,1.211V48H-4.707V39.547ZM14.543,48a3.036,3.036,0,0,1-.2-.891,3.225,3.225,0,0,1-2.406,1.047,2.984,2.984,0,0,1-2.051-.707,2.287,2.287,0,0,1-.8-1.793,2.39,2.39,0,0,1,1-2.051,4.733,4.733,0,0,1,2.824-.73h1.406v-.664A1.623,1.623,0,0,0,13.863,41a1.821,1.821,0,0,0-1.336-.449,2.107,2.107,0,0,0-1.3.391,1.151,1.151,0,0,0-.523.945H9.254A2,2,0,0,1,9.7,40.668a3.066,3.066,0,0,1,1.219-.934,4.1,4.1,0,0,1,1.691-.344,3.342,3.342,0,0,1,2.289.73,2.635,2.635,0,0,1,.859,2.012v3.891a4.757,4.757,0,0,0,.3,1.852V48Zm-2.4-1.1a2.54,2.54,0,0,0,1.289-.352,2.127,2.127,0,0,0,.883-.914V43.9H13.184q-2.656,0-2.656,1.555a1.316,1.316,0,0,0,.453,1.063A1.742,1.742,0,0,0,12.145,46.9Zm10.8-1.141a1.064,1.064,0,0,0-.441-.91,4.249,4.249,0,0,0-1.539-.559,7.277,7.277,0,0,1-1.742-.562,2.479,2.479,0,0,1-.953-.781,1.869,1.869,0,0,1-.309-1.078,2.193,2.193,0,0,1,.879-1.758,3.432,3.432,0,0,1,2.246-.719,3.532,3.532,0,0,1,2.332.742,2.357,2.357,0,0,1,.895,1.9H22.863a1.3,1.3,0,0,0-.5-1.023,1.888,1.888,0,0,0-1.27-.43,1.976,1.976,0,0,0-1.234.344,1.082,1.082,0,0,0-.445.9.877.877,0,0,0,.414.789,5.1,5.1,0,0,0,1.5.508,7.8,7.8,0,0,1,1.754.578,2.558,2.558,0,0,1,1,.809,1.988,1.988,0,0,1,.324,1.152,2.163,2.163,0,0,1-.906,1.816,3.8,3.8,0,0,1-2.352.684,4.257,4.257,0,0,1-1.8-.359,2.922,2.922,0,0,1-1.223-1,2.42,2.42,0,0,1-.441-1.395h1.445a1.5,1.5,0,0,0,.582,1.152,2.258,2.258,0,0,0,1.434.426,2.331,2.331,0,0,0,1.316-.332A1.02,1.02,0,0,0,22.949,45.758Z" transform="translate(-3793 -10617)" fill="#12263f"/>
    <g transform="matrix(1, 0, 0, 1, -3895, -10680.42)" filter="url(#Trazado_656561)">
      <path id="Trazado_656561-2" data-name="Trazado 656561" d="M0,0H126V97H0Z" transform="translate(39 148.42)" fill="#fff"/>
    </g>
    <path id="Trazado_656562" data-name="Trazado 656562" d="M-30.32-5.258h-4.93v4.031h5.727V0H-36.75V-11.375H-29.6v1.227H-35.25v3.664h4.93Zm3.8-3.2.047,1.063a3.08,3.08,0,0,1,2.531-1.219q2.68,0,2.7,3.023V0H-22.68V-5.594A1.946,1.946,0,0,0-23.1-6.945a1.675,1.675,0,0,0-1.277-.437,2.086,2.086,0,0,0-1.234.375,2.546,2.546,0,0,0-.828.984V0h-1.445V-8.453Zm9.422-2.047v2.047h1.578v1.117h-1.578v5.249a1.173,1.173,0,0,0,.211.763.888.888,0,0,0,.719.254,3.5,3.5,0,0,0,.688-.094V0a4.215,4.215,0,0,1-1.109.155A1.8,1.8,0,0,1-18.047-.43a2.517,2.517,0,0,1-.492-1.664V-7.336h-1.539V-8.453h1.539V-10.5Zm7.352,3.344a4.331,4.331,0,0,0-.711-.055A1.9,1.9,0,0,0-12.383-6V0h-1.445V-8.453h1.406l.023.977a2.251,2.251,0,0,1,2.016-1.133,1.477,1.477,0,0,1,.641.109ZM-3.508,0a3.036,3.036,0,0,1-.2-.891A3.225,3.225,0,0,1-6.117.156,2.984,2.984,0,0,1-8.168-.551a2.287,2.287,0,0,1-.8-1.793,2.39,2.39,0,0,1,1-2.051,4.733,4.733,0,0,1,2.824-.73h1.406v-.664A1.623,1.623,0,0,0-4.187-7a1.821,1.821,0,0,0-1.336-.449,2.107,2.107,0,0,0-1.3.391,1.151,1.151,0,0,0-.523.945H-8.8a2,2,0,0,1,.449-1.223,3.066,3.066,0,0,1,1.219-.934,4.1,4.1,0,0,1,1.691-.344,3.342,3.342,0,0,1,2.289.73,2.635,2.635,0,0,1,.859,2.012v3.891a4.757,4.757,0,0,0,.3,1.852V0Zm-2.4-1.1a2.54,2.54,0,0,0,1.289-.352,2.127,2.127,0,0,0,.883-.914V-4.1H-4.867q-2.656,0-2.656,1.555A1.316,1.316,0,0,0-7.07-1.484,1.742,1.742,0,0,0-5.906-1.1ZM-.375-4.3A4.952,4.952,0,0,1,.547-7.426,2.915,2.915,0,0,1,2.961-8.609,2.932,2.932,0,0,1,5.313-7.594V-12H6.758V0H5.43l-.07-.906A2.943,2.943,0,0,1,2.945.156a2.887,2.887,0,0,1-2.395-1.2A5.008,5.008,0,0,1-.375-4.187Zm1.445.164a3.749,3.749,0,0,0,.594,2.25A1.92,1.92,0,0,0,3.3-1.07,2.108,2.108,0,0,0,5.313-2.3V-6.187a2.125,2.125,0,0,0-1.992-1.2,1.929,1.929,0,0,0-1.656.82A4.128,4.128,0,0,0,1.07-4.133ZM14.219,0a3.036,3.036,0,0,1-.2-.891A3.225,3.225,0,0,1,11.609.156,2.984,2.984,0,0,1,9.559-.551a2.287,2.287,0,0,1-.8-1.793,2.39,2.39,0,0,1,1-2.051,4.733,4.733,0,0,1,2.824-.73h1.406v-.664A1.623,1.623,0,0,0,13.539-7,1.821,1.821,0,0,0,12.2-7.445a2.107,2.107,0,0,0-1.3.391,1.151,1.151,0,0,0-.523.945H8.93a2,2,0,0,1,.449-1.223A3.066,3.066,0,0,1,10.6-8.266a4.1,4.1,0,0,1,1.691-.344,3.342,3.342,0,0,1,2.289.73,2.635,2.635,0,0,1,.859,2.012v3.891a4.757,4.757,0,0,0,.3,1.852V0Zm-2.4-1.1a2.54,2.54,0,0,0,1.289-.352,2.127,2.127,0,0,0,.883-.914V-4.1H12.859Q10.2-4.1,10.2-2.547a1.316,1.316,0,0,0,.453,1.063A1.742,1.742,0,0,0,11.82-1.1Zm9.492-3.2a4.952,4.952,0,0,1,.922-3.129,2.915,2.915,0,0,1,2.414-1.184A2.932,2.932,0,0,1,27-7.594V-12h1.445V0H27.117l-.07-.906A2.943,2.943,0,0,1,24.633.156a2.887,2.887,0,0,1-2.395-1.2,5.008,5.008,0,0,1-.926-3.141Zm1.445.164a3.749,3.749,0,0,0,.594,2.25,1.92,1.92,0,0,0,1.641.813A2.108,2.108,0,0,0,27-2.3V-6.187a2.125,2.125,0,0,0-1.992-1.2,1.929,1.929,0,0,0-1.656.82A4.128,4.128,0,0,0,22.758-4.133ZM34.2.156A3.693,3.693,0,0,1,31.4-.973a4.19,4.19,0,0,1-1.078-3.02v-.266A5.073,5.073,0,0,1,30.8-6.5a3.748,3.748,0,0,1,1.344-1.547,3.378,3.378,0,0,1,1.871-.559,3.166,3.166,0,0,1,2.563,1.086,4.7,4.7,0,0,1,.914,3.109v.6H31.766a3,3,0,0,0,.73,2.02,2.3,2.3,0,0,0,1.777.77,2.517,2.517,0,0,0,1.3-.312,3.259,3.259,0,0,0,.93-.828l.883.688A3.55,3.55,0,0,1,34.2.156Zm-.18-7.578a1.928,1.928,0,0,0-1.469.637A3.1,3.1,0,0,0,31.813-5h4.234v-.109a2.753,2.753,0,0,0-.594-1.707A1.815,1.815,0,0,0,34.016-7.422Zm-62.07,20.047,3.719,9.281,3.719-9.281h1.945V24h-1.5V19.57l.141-4.781L-23.766,24h-1.148l-3.727-9.187.148,4.758V24h-1.5V12.625ZM-11.031,24a3.036,3.036,0,0,1-.2-.891,3.225,3.225,0,0,1-2.406,1.047,2.984,2.984,0,0,1-2.051-.707,2.287,2.287,0,0,1-.8-1.793,2.39,2.39,0,0,1,1-2.051,4.733,4.733,0,0,1,2.824-.73h1.406v-.664A1.623,1.623,0,0,0-11.711,17a1.821,1.821,0,0,0-1.336-.449,2.108,2.108,0,0,0-1.3.391,1.151,1.151,0,0,0-.523.945H-16.32a2,2,0,0,1,.449-1.223,3.066,3.066,0,0,1,1.219-.934,4.1,4.1,0,0,1,1.691-.344,3.342,3.342,0,0,1,2.289.73,2.635,2.635,0,0,1,.859,2.012v3.891a4.757,4.757,0,0,0,.3,1.852V24Zm-2.4-1.1a2.54,2.54,0,0,0,1.289-.352,2.127,2.127,0,0,0,.883-.914V19.9h-1.133q-2.656,0-2.656,1.555a1.316,1.316,0,0,0,.453,1.063A1.742,1.742,0,0,0-13.43,22.9Zm7.844-9.4v2.047h1.578v1.117H-5.586v5.249a1.173,1.173,0,0,0,.211.763.888.888,0,0,0,.719.254,3.5,3.5,0,0,0,.688-.094V24a4.215,4.215,0,0,1-1.109.155,1.8,1.8,0,0,1-1.461-.586,2.517,2.517,0,0,1-.492-1.664V16.664H-8.57V15.547h1.539V13.5ZM1.188,24.156a3.693,3.693,0,0,1-2.8-1.129,4.19,4.19,0,0,1-1.078-3.02v-.266a5.073,5.073,0,0,1,.48-2.246A3.748,3.748,0,0,1-.863,15.949a3.378,3.378,0,0,1,1.871-.559A3.166,3.166,0,0,1,3.57,16.477a4.7,4.7,0,0,1,.914,3.109v.6H-1.242a3,3,0,0,0,.73,2.02,2.3,2.3,0,0,0,1.777.77,2.517,2.517,0,0,0,1.3-.312,3.259,3.259,0,0,0,.93-.828l.883.688A3.55,3.55,0,0,1,1.188,24.156Zm-.18-7.578a1.928,1.928,0,0,0-1.469.637A3.1,3.1,0,0,0-1.2,19H3.039v-.109a2.753,2.753,0,0,0-.594-1.707A1.815,1.815,0,0,0,1.008,16.578Zm9.234.266a4.331,4.331,0,0,0-.711-.055A1.9,1.9,0,0,0,7.6,18v6H6.156V15.547H7.563l.023.977A2.251,2.251,0,0,1,9.6,15.391a1.477,1.477,0,0,1,.641.109ZM13.141,24H11.7V15.547h1.445ZM11.578,13.3a.863.863,0,0,1,.215-.594.807.807,0,0,1,.637-.242.819.819,0,0,1,.641.242.854.854,0,0,1,.219.594.826.826,0,0,1-.219.586.834.834,0,0,1-.641.234.821.821,0,0,1-.637-.234A.834.834,0,0,1,11.578,13.3ZM20.672,24a3.036,3.036,0,0,1-.2-.891,3.225,3.225,0,0,1-2.406,1.047,2.984,2.984,0,0,1-2.051-.707,2.287,2.287,0,0,1-.8-1.793,2.39,2.39,0,0,1,1-2.051,4.733,4.733,0,0,1,2.824-.73h1.406v-.664A1.623,1.623,0,0,0,19.992,17a1.821,1.821,0,0,0-1.336-.449,2.108,2.108,0,0,0-1.3.391,1.151,1.151,0,0,0-.523.945H15.383a2,2,0,0,1,.449-1.223,3.066,3.066,0,0,1,1.219-.934,4.1,4.1,0,0,1,1.691-.344,3.342,3.342,0,0,1,2.289.73,2.635,2.635,0,0,1,.859,2.012v3.891a4.757,4.757,0,0,0,.3,1.852V24Zm-2.4-1.1a2.54,2.54,0,0,0,1.289-.352,2.127,2.127,0,0,0,.883-.914V19.9H19.313q-2.656,0-2.656,1.555a1.316,1.316,0,0,0,.453,1.063A1.742,1.742,0,0,0,18.273,22.9Zm10.8-1.141a1.064,1.064,0,0,0-.441-.91,4.249,4.249,0,0,0-1.539-.559,7.277,7.277,0,0,1-1.742-.562,2.479,2.479,0,0,1-.953-.781,1.869,1.869,0,0,1-.309-1.078,2.193,2.193,0,0,1,.879-1.758,3.432,3.432,0,0,1,2.246-.719,3.532,3.532,0,0,1,2.332.742,2.357,2.357,0,0,1,.895,1.9H28.992a1.3,1.3,0,0,0-.5-1.023,1.888,1.888,0,0,0-1.27-.43,1.976,1.976,0,0,0-1.234.344,1.082,1.082,0,0,0-.445.9.877.877,0,0,0,.414.789,5.1,5.1,0,0,0,1.5.508A7.8,7.8,0,0,1,29.2,19.7a2.558,2.558,0,0,1,1,.809,1.988,1.988,0,0,1,.324,1.152,2.163,2.163,0,0,1-.906,1.816,3.8,3.8,0,0,1-2.352.684,4.257,4.257,0,0,1-1.8-.359,2.922,2.922,0,0,1-1.223-1A2.42,2.42,0,0,1,23.8,21.4H25.25a1.5,1.5,0,0,0,.582,1.152,2.258,2.258,0,0,0,1.434.426,2.331,2.331,0,0,0,1.316-.332A1.02,1.02,0,0,0,29.078,21.758ZM-22.363,43.547V48h-1.5V36.625h4.2a4.215,4.215,0,0,1,2.926.953A3.231,3.231,0,0,1-15.684,40.1a3.189,3.189,0,0,1-1.035,2.551,4.4,4.4,0,0,1-2.965.895Zm0-1.227h2.7a2.7,2.7,0,0,0,1.844-.567,2.075,2.075,0,0,0,.641-1.64,2.143,2.143,0,0,0-.641-1.628,2.525,2.525,0,0,0-1.758-.634h-2.781ZM-9.91,40.844a4.331,4.331,0,0,0-.711-.055A1.9,1.9,0,0,0-12.551,42v6H-14V39.547h1.406l.023.977a2.251,2.251,0,0,1,2.016-1.133,1.477,1.477,0,0,1,.641.109ZM-7.012,48H-8.457V39.547h1.445ZM-8.574,37.3a.863.863,0,0,1,.215-.594.807.807,0,0,1,.637-.242.819.819,0,0,1,.641.242.854.854,0,0,1,.219.594.826.826,0,0,1-.219.586.834.834,0,0,1-.641.234.821.821,0,0,1-.637-.234A.834.834,0,0,1-8.574,37.3Zm5.234,2.242.039.938A3.122,3.122,0,0,1-.793,39.391,2.417,2.417,0,0,1,1.621,40.75a3.2,3.2,0,0,1,1.1-.984,3.242,3.242,0,0,1,1.6-.375q2.781,0,2.828,2.945V48H5.7V42.422a1.941,1.941,0,0,0-.414-1.355,1.823,1.823,0,0,0-1.391-.449,1.916,1.916,0,0,0-1.336.48,1.949,1.949,0,0,0-.617,1.293V48H.488V42.461a1.613,1.613,0,0,0-1.8-1.844,1.934,1.934,0,0,0-1.945,1.211V48H-4.707V39.547ZM14.543,48a3.036,3.036,0,0,1-.2-.891,3.225,3.225,0,0,1-2.406,1.047,2.984,2.984,0,0,1-2.051-.707,2.287,2.287,0,0,1-.8-1.793,2.39,2.39,0,0,1,1-2.051,4.733,4.733,0,0,1,2.824-.73h1.406v-.664A1.623,1.623,0,0,0,13.863,41a1.821,1.821,0,0,0-1.336-.449,2.107,2.107,0,0,0-1.3.391,1.151,1.151,0,0,0-.523.945H9.254A2,2,0,0,1,9.7,40.668a3.066,3.066,0,0,1,1.219-.934,4.1,4.1,0,0,1,1.691-.344,3.342,3.342,0,0,1,2.289.73,2.635,2.635,0,0,1,.859,2.012v3.891a4.757,4.757,0,0,0,.3,1.852V48Zm-2.4-1.1a2.54,2.54,0,0,0,1.289-.352,2.127,2.127,0,0,0,.883-.914V43.9H13.184q-2.656,0-2.656,1.555a1.316,1.316,0,0,0,.453,1.063A1.742,1.742,0,0,0,12.145,46.9Zm10.8-1.141a1.064,1.064,0,0,0-.441-.91,4.249,4.249,0,0,0-1.539-.559,7.277,7.277,0,0,1-1.742-.562,2.479,2.479,0,0,1-.953-.781,1.869,1.869,0,0,1-.309-1.078,2.193,2.193,0,0,1,.879-1.758,3.432,3.432,0,0,1,2.246-.719,3.532,3.532,0,0,1,2.332.742,2.357,2.357,0,0,1,.895,1.9H22.863a1.3,1.3,0,0,0-.5-1.023,1.888,1.888,0,0,0-1.27-.43,1.976,1.976,0,0,0-1.234.344,1.082,1.082,0,0,0-.445.9.877.877,0,0,0,.414.789,5.1,5.1,0,0,0,1.5.508,7.8,7.8,0,0,1,1.754.578,2.558,2.558,0,0,1,1,.809,1.988,1.988,0,0,1,.324,1.152,2.163,2.163,0,0,1-.906,1.816,3.8,3.8,0,0,1-2.352.684,4.257,4.257,0,0,1-1.8-.359,2.922,2.922,0,0,1-1.223-1,2.42,2.42,0,0,1-.441-1.395h1.445a1.5,1.5,0,0,0,.582,1.152,2.258,2.258,0,0,0,1.434.426,2.331,2.331,0,0,0,1.316-.332A1.02,1.02,0,0,0,22.949,45.758Z" transform="translate(-3793 -10501)" fill="#12263f"/>
    <path id="Icon_awesome-arrow-circle-right" data-name="Icon awesome-arrow-circle-right" d="M18,.563A17.438,17.438,0,1,1,.563,18,17.434,17.434,0,0,1,18,.563Zm-2.032,10.1,5.309,5.091H8.438A1.683,1.683,0,0,0,6.75,17.438v1.125A1.683,1.683,0,0,0,8.438,20.25H21.277l-5.309,5.091a1.689,1.689,0,0,0-.028,2.412l.773.766a1.681,1.681,0,0,0,2.384,0l9.33-9.323a1.681,1.681,0,0,0,0-2.384L19.1,7.474a1.681,1.681,0,0,0-2.384,0l-.773.766a1.7,1.7,0,0,0,.028,2.419Z" transform="translate(-3775 -10559.5) rotate(90)"/>
    <g transform="matrix(1, 0, 0, 1, -3895, -10680.42)" filter="url(#Trazado_656563)">
      <path id="Trazado_656563-2" data-name="Trazado 656563" d="M0,0H126V97H0Z" transform="translate(39 268.42)" fill="#fff"/>
    </g>
    <path id="Trazado_656564" data-name="Trazado 656564" d="M-48.363-4.453V0h-1.5V-11.375h4.2a4.215,4.215,0,0,1,2.926.953A3.231,3.231,0,0,1-41.684-7.9a3.189,3.189,0,0,1-1.035,2.551,4.4,4.4,0,0,1-2.965.895Zm0-1.227h2.7a2.7,2.7,0,0,0,1.844-.567,2.075,2.075,0,0,0,.641-1.64,2.143,2.143,0,0,0-.641-1.628,2.525,2.525,0,0,0-1.758-.634h-2.781ZM-35.91-7.156a4.331,4.331,0,0,0-.711-.055A1.9,1.9,0,0,0-38.551-6V0H-40V-8.453h1.406l.023.977a2.251,2.251,0,0,1,2.016-1.133,1.477,1.477,0,0,1,.641.109Zm.789,2.852a4.993,4.993,0,0,1,.488-2.234A3.643,3.643,0,0,1-33.273-8.07a3.7,3.7,0,0,1,1.988-.539,3.565,3.565,0,0,1,2.793,1.2,4.6,4.6,0,0,1,1.066,3.18v.1A5.036,5.036,0,0,1-27.9-1.918,3.589,3.589,0,0,1-29.25-.391a3.743,3.743,0,0,1-2.02.547,3.556,3.556,0,0,1-2.785-1.2A4.575,4.575,0,0,1-35.121-4.2Zm1.453.172a3.616,3.616,0,0,0,.652,2.258,2.088,2.088,0,0,0,1.746.852,2.075,2.075,0,0,0,1.75-.863A3.955,3.955,0,0,0-28.871-4.3a3.61,3.61,0,0,0-.66-2.254,2.1,2.1,0,0,0-1.754-.863,2.075,2.075,0,0,0-1.727.852A3.925,3.925,0,0,0-33.668-4.133Zm7.7-.164a4.952,4.952,0,0,1,.922-3.129,2.915,2.915,0,0,1,2.414-1.184,2.932,2.932,0,0,1,2.352,1.016V-12h1.445V0H-20.16l-.07-.906A2.943,2.943,0,0,1-22.645.156a2.887,2.887,0,0,1-2.395-1.2,5.008,5.008,0,0,1-.926-3.141Zm1.445.164a3.749,3.749,0,0,0,.594,2.25,1.92,1.92,0,0,0,1.641.813A2.108,2.108,0,0,0-20.277-2.3V-6.187a2.125,2.125,0,0,0-1.992-1.2,1.929,1.929,0,0,0-1.656.82A4.128,4.128,0,0,0-24.52-4.133Zm13.148,3.3a3.07,3.07,0,0,1-2.477.992,2.628,2.628,0,0,1-2.059-.785,3.4,3.4,0,0,1-.715-2.324v-5.5h1.445v5.461q0,1.922,1.563,1.922A2.163,2.163,0,0,0-11.41-2.3V-8.453h1.445V0H-11.34Zm6.992-.187a2.082,2.082,0,0,0,1.352-.469,1.649,1.649,0,0,0,.641-1.172H-1.02a2.621,2.621,0,0,1-.5,1.383A3.293,3.293,0,0,1-2.75-.234,3.55,3.55,0,0,1-4.379.156,3.482,3.482,0,0,1-7.125-1a4.59,4.59,0,0,1-1.02-3.152v-.242a5.089,5.089,0,0,1,.453-2.2,3.451,3.451,0,0,1,1.3-1.492,3.7,3.7,0,0,1,2-.531,3.39,3.39,0,0,1,2.363.852,3.043,3.043,0,0,1,1,2.211H-2.387a1.992,1.992,0,0,0-.621-1.348,1.932,1.932,0,0,0-1.379-.527,2.023,2.023,0,0,0-1.707.793A3.724,3.724,0,0,0-6.7-4.336v.273a3.65,3.65,0,0,0,.6,2.25A2.033,2.033,0,0,0-4.379-1.023ZM4-1.023a2.082,2.082,0,0,0,1.352-.469,1.649,1.649,0,0,0,.641-1.172H7.355a2.621,2.621,0,0,1-.5,1.383A3.293,3.293,0,0,1,5.625-.234,3.55,3.55,0,0,1,4,.156,3.482,3.482,0,0,1,1.25-1,4.59,4.59,0,0,1,.23-4.148v-.242a5.089,5.089,0,0,1,.453-2.2,3.451,3.451,0,0,1,1.3-1.492,3.7,3.7,0,0,1,2-.531,3.39,3.39,0,0,1,2.363.852,3.043,3.043,0,0,1,1,2.211H5.988a1.992,1.992,0,0,0-.621-1.348,1.932,1.932,0,0,0-1.379-.527,2.023,2.023,0,0,0-1.707.793,3.724,3.724,0,0,0-.605,2.293v.273a3.65,3.65,0,0,0,.6,2.25A2.033,2.033,0,0,0,4-1.023ZM10.551,0H9.105V-8.453h1.445ZM8.988-10.7a.863.863,0,0,1,.215-.594.807.807,0,0,1,.637-.242.819.819,0,0,1,.641.242.854.854,0,0,1,.219.594.826.826,0,0,1-.219.586.834.834,0,0,1-.641.234.821.821,0,0,1-.637-.234A.834.834,0,0,1,8.988-10.7ZM12.48-4.3a4.993,4.993,0,0,1,.488-2.234A3.643,3.643,0,0,1,14.328-8.07a3.7,3.7,0,0,1,1.988-.539,3.565,3.565,0,0,1,2.793,1.2,4.6,4.6,0,0,1,1.066,3.18v.1A5.036,5.036,0,0,1,19.7-1.918,3.589,3.589,0,0,1,18.352-.391a3.743,3.743,0,0,1-2.02.547,3.556,3.556,0,0,1-2.785-1.2A4.575,4.575,0,0,1,12.48-4.2Zm1.453.172a3.616,3.616,0,0,0,.652,2.258,2.088,2.088,0,0,0,1.746.852,2.075,2.075,0,0,0,1.75-.863A3.955,3.955,0,0,0,18.73-4.3a3.61,3.61,0,0,0-.66-2.254,2.1,2.1,0,0,0-1.754-.863,2.075,2.075,0,0,0-1.727.852A3.925,3.925,0,0,0,13.934-4.133Zm3.039-7.852h1.75l-2.094,2.3-1.164,0Zm6.383,3.531L23.4-7.391a3.08,3.08,0,0,1,2.531-1.219q2.68,0,2.7,3.023V0H27.191V-5.594a1.946,1.946,0,0,0-.418-1.352A1.675,1.675,0,0,0,25.5-7.383a2.086,2.086,0,0,0-1.234.375,2.546,2.546,0,0,0-.828.984V0H21.988V-8.453ZM34.426-4.3a4.952,4.952,0,0,1,.922-3.129,2.915,2.915,0,0,1,2.414-1.184,2.932,2.932,0,0,1,2.352,1.016V-12h1.445V0H40.23l-.07-.906A2.943,2.943,0,0,1,37.746.156a2.887,2.887,0,0,1-2.395-1.2,5.008,5.008,0,0,1-.926-3.141Zm1.445.164a3.749,3.749,0,0,0,.594,2.25,1.92,1.92,0,0,0,1.641.813A2.108,2.108,0,0,0,40.113-2.3V-6.187a2.125,2.125,0,0,0-1.992-1.2,1.929,1.929,0,0,0-1.656.82A4.128,4.128,0,0,0,35.871-4.133ZM47.309.156a3.693,3.693,0,0,1-2.8-1.129,4.19,4.19,0,0,1-1.078-3.02v-.266a5.073,5.073,0,0,1,.48-2.246,3.748,3.748,0,0,1,1.344-1.547,3.378,3.378,0,0,1,1.871-.559,3.166,3.166,0,0,1,2.563,1.086,4.7,4.7,0,0,1,.914,3.109v.6H44.879a3,3,0,0,0,.73,2.02,2.3,2.3,0,0,0,1.777.77,2.517,2.517,0,0,0,1.3-.312,3.259,3.259,0,0,0,.93-.828l.883.688A3.55,3.55,0,0,1,47.309.156Zm-.18-7.578a1.928,1.928,0,0,0-1.469.637A3.1,3.1,0,0,0,44.926-5H49.16v-.109a2.753,2.753,0,0,0-.594-1.707A1.815,1.815,0,0,0,47.129-7.422Zm-95.738,30.4a2.082,2.082,0,0,0,1.352-.469,1.649,1.649,0,0,0,.641-1.172h1.367a2.621,2.621,0,0,1-.5,1.383,3.293,3.293,0,0,1-1.23,1.047,3.55,3.55,0,0,1-1.629.391A3.482,3.482,0,0,1-51.355,23a4.59,4.59,0,0,1-1.02-3.152v-.242a5.089,5.089,0,0,1,.453-2.2,3.451,3.451,0,0,1,1.3-1.492,3.7,3.7,0,0,1,2-.531,3.39,3.39,0,0,1,2.363.852,3.043,3.043,0,0,1,1,2.211h-1.367a1.992,1.992,0,0,0-.621-1.348,1.932,1.932,0,0,0-1.379-.527,2.023,2.023,0,0,0-1.707.793,3.724,3.724,0,0,0-.605,2.293v.273a3.65,3.65,0,0,0,.6,2.25A2.033,2.033,0,0,0-48.609,22.977Zm4.6-3.281a4.993,4.993,0,0,1,.488-2.234A3.643,3.643,0,0,1-42.16,15.93a3.7,3.7,0,0,1,1.988-.539,3.565,3.565,0,0,1,2.793,1.2,4.6,4.6,0,0,1,1.066,3.18v.1a5.036,5.036,0,0,1-.473,2.215,3.589,3.589,0,0,1-1.352,1.527,3.743,3.743,0,0,1-2.02.547,3.556,3.556,0,0,1-2.785-1.2A4.575,4.575,0,0,1-44.008,19.8Zm1.453.172a3.616,3.616,0,0,0,.652,2.258,2.088,2.088,0,0,0,1.746.852,2.075,2.075,0,0,0,1.75-.863,3.955,3.955,0,0,0,.648-2.418,3.61,3.61,0,0,0-.66-2.254,2.1,2.1,0,0,0-1.754-.863,2.075,2.075,0,0,0-1.727.852A3.925,3.925,0,0,0-42.555,19.867Zm9.414-4.32.039.938a3.122,3.122,0,0,1,2.508-1.094A2.417,2.417,0,0,1-28.18,16.75a3.2,3.2,0,0,1,1.1-.984,3.242,3.242,0,0,1,1.6-.375q2.781,0,2.828,2.945V24H-24.1V18.422a1.941,1.941,0,0,0-.414-1.355,1.823,1.823,0,0,0-1.391-.449,1.916,1.916,0,0,0-1.336.48,1.949,1.949,0,0,0-.617,1.293V24h-1.453V18.461a1.613,1.613,0,0,0-1.8-1.844,1.934,1.934,0,0,0-1.945,1.211V24h-1.445V15.547Zm19.8,4.32a5.062,5.062,0,0,1-.883,3.109,2.829,2.829,0,0,1-2.391,1.18,3.1,3.1,0,0,1-2.422-.977v4.07h-1.445v-11.7h1.32l.07.938a2.977,2.977,0,0,1,2.453-1.094,2.882,2.882,0,0,1,2.41,1.148,5.117,5.117,0,0,1,.887,3.2Zm-1.445-.164a3.735,3.735,0,0,0-.609-2.258,1.963,1.963,0,0,0-1.672-.828,2.125,2.125,0,0,0-1.969,1.164V21.82a2.129,2.129,0,0,0,1.984,1.156,1.954,1.954,0,0,0,1.652-.824A4.077,4.077,0,0,0-14.781,19.7Zm2.9-.008a4.993,4.993,0,0,1,.488-2.234,3.643,3.643,0,0,1,1.359-1.531,3.7,3.7,0,0,1,1.988-.539,3.565,3.565,0,0,1,2.793,1.2,4.6,4.6,0,0,1,1.066,3.18v.1a5.036,5.036,0,0,1-.473,2.215,3.589,3.589,0,0,1-1.352,1.527,3.743,3.743,0,0,1-2.02.547,3.556,3.556,0,0,1-2.785-1.2A4.575,4.575,0,0,1-11.883,19.8Zm1.453.172a3.616,3.616,0,0,0,.652,2.258,2.088,2.088,0,0,0,1.746.852,2.075,2.075,0,0,0,1.75-.863A3.955,3.955,0,0,0-5.633,19.7a3.61,3.61,0,0,0-.66-2.254,2.1,2.1,0,0,0-1.754-.863,2.075,2.075,0,0,0-1.727.852A3.925,3.925,0,0,0-10.43,19.867Zm9.422-4.32.047,1.063A3.08,3.08,0,0,1,1.57,15.391q2.68,0,2.7,3.023V24H2.828V18.406a1.946,1.946,0,0,0-.418-1.352,1.675,1.675,0,0,0-1.277-.437A2.086,2.086,0,0,0-.1,16.992a2.546,2.546,0,0,0-.828.984V24H-2.375V15.547ZM9.961,24.156a3.693,3.693,0,0,1-2.8-1.129,4.19,4.19,0,0,1-1.078-3.02v-.266a5.073,5.073,0,0,1,.48-2.246A3.748,3.748,0,0,1,7.91,15.949a3.378,3.378,0,0,1,1.871-.559,3.166,3.166,0,0,1,2.563,1.086,4.7,4.7,0,0,1,.914,3.109v.6H7.531a3,3,0,0,0,.73,2.02,2.3,2.3,0,0,0,1.777.77,2.517,2.517,0,0,0,1.3-.312,3.259,3.259,0,0,0,.93-.828l.883.688A3.55,3.55,0,0,1,9.961,24.156Zm-.18-7.578a1.928,1.928,0,0,0-1.469.637A3.1,3.1,0,0,0,7.578,19h4.234v-.109a2.753,2.753,0,0,0-.594-1.707A1.815,1.815,0,0,0,9.781,16.578ZM16.3,15.547l.047,1.063a3.08,3.08,0,0,1,2.531-1.219q2.68,0,2.7,3.023V24H20.133V18.406a1.946,1.946,0,0,0-.418-1.352,1.675,1.675,0,0,0-1.277-.437,2.086,2.086,0,0,0-1.234.375,2.546,2.546,0,0,0-.828.984V24H14.93V15.547Zm10.969,8.609a3.693,3.693,0,0,1-2.8-1.129,4.19,4.19,0,0,1-1.078-3.02v-.266a5.073,5.073,0,0,1,.48-2.246,3.748,3.748,0,0,1,1.344-1.547,3.378,3.378,0,0,1,1.871-.559,3.166,3.166,0,0,1,2.563,1.086,4.7,4.7,0,0,1,.914,3.109v.6H24.836a3,3,0,0,0,.73,2.02,2.3,2.3,0,0,0,1.777.77,2.517,2.517,0,0,0,1.3-.312,3.259,3.259,0,0,0,.93-.828l.883.688A3.55,3.55,0,0,1,27.266,24.156Zm-.18-7.578a1.928,1.928,0,0,0-1.469.637A3.1,3.1,0,0,0,24.883,19h4.234v-.109a2.753,2.753,0,0,0-.594-1.707A1.815,1.815,0,0,0,27.086,16.578ZM34.2,13.5v2.047h1.578v1.117H34.2v5.249a1.173,1.173,0,0,0,.211.763.888.888,0,0,0,.719.254,3.5,3.5,0,0,0,.688-.094V24a4.215,4.215,0,0,1-1.109.155,1.8,1.8,0,0,1-1.461-.586,2.517,2.517,0,0,1-.492-1.664V16.664H31.211V15.547H32.75V13.5Zm6.773,10.656a3.693,3.693,0,0,1-2.8-1.129,4.19,4.19,0,0,1-1.078-3.02v-.266a5.073,5.073,0,0,1,.48-2.246,3.748,3.748,0,0,1,1.344-1.547,3.378,3.378,0,0,1,1.871-.559,3.166,3.166,0,0,1,2.563,1.086,4.7,4.7,0,0,1,.914,3.109v.6H38.539a3,3,0,0,0,.73,2.02,2.3,2.3,0,0,0,1.777.77,2.517,2.517,0,0,0,1.3-.312,3.259,3.259,0,0,0,.93-.828l.883.688A3.55,3.55,0,0,1,40.969,24.156Zm-.18-7.578a1.928,1.928,0,0,0-1.469.637A3.1,3.1,0,0,0,38.586,19H42.82v-.109a2.753,2.753,0,0,0-.594-1.707A1.815,1.815,0,0,0,40.789,16.578Zm10.07,5.18a1.064,1.064,0,0,0-.441-.91,4.249,4.249,0,0,0-1.539-.559,7.277,7.277,0,0,1-1.742-.562,2.479,2.479,0,0,1-.953-.781,1.869,1.869,0,0,1-.309-1.078,2.193,2.193,0,0,1,.879-1.758A3.432,3.432,0,0,1,49,15.391a3.532,3.532,0,0,1,2.332.742,2.357,2.357,0,0,1,.895,1.9H50.773a1.3,1.3,0,0,0-.5-1.023,1.888,1.888,0,0,0-1.27-.43,1.976,1.976,0,0,0-1.234.344,1.082,1.082,0,0,0-.445.9.877.877,0,0,0,.414.789,5.1,5.1,0,0,0,1.5.508,7.8,7.8,0,0,1,1.754.578,2.558,2.558,0,0,1,1,.809,1.988,1.988,0,0,1,.324,1.152,2.163,2.163,0,0,1-.906,1.816,3.8,3.8,0,0,1-2.352.684,4.257,4.257,0,0,1-1.8-.359,2.922,2.922,0,0,1-1.223-1,2.42,2.42,0,0,1-.441-1.395h1.445a1.5,1.5,0,0,0,.582,1.152,2.258,2.258,0,0,0,1.434.426,2.331,2.331,0,0,0,1.316-.332A1.02,1.02,0,0,0,50.859,21.758Z" transform="translate(-3793 -10369)" fill="#12263f"/>
    <g transform="matrix(1, 0, 0, 1, -3895, -10680.42)" filter="url(#Trazado_656565)">
      <path id="Trazado_656565-2" data-name="Trazado 656565" d="M0,0H126V97H0Z" transform="translate(39 388.42)" fill="#fff"/>
    </g>
    <path id="Trazado_656566" data-name="Trazado 656566" d="M-36.547-11.375l3.719,9.281,3.719-9.281h1.945V0h-1.5V-4.43l.141-4.781L-32.258,0h-1.148l-3.727-9.187.148,4.758V0h-1.5V-11.375ZM-25.125-4.3a4.993,4.993,0,0,1,.488-2.234A3.643,3.643,0,0,1-23.277-8.07a3.7,3.7,0,0,1,1.988-.539,3.565,3.565,0,0,1,2.793,1.2,4.6,4.6,0,0,1,1.066,3.18v.1A5.036,5.036,0,0,1-17.9-1.918,3.589,3.589,0,0,1-19.254-.391a3.743,3.743,0,0,1-2.02.547,3.556,3.556,0,0,1-2.785-1.2A4.575,4.575,0,0,1-25.125-4.2Zm1.453.172a3.616,3.616,0,0,0,.652,2.258,2.088,2.088,0,0,0,1.746.852,2.075,2.075,0,0,0,1.75-.863A3.955,3.955,0,0,0-18.875-4.3a3.61,3.61,0,0,0-.66-2.254,2.1,2.1,0,0,0-1.754-.863,2.075,2.075,0,0,0-1.727.852A3.925,3.925,0,0,0-23.672-4.133Zm9.422-4.32.047,1.063a3.08,3.08,0,0,1,2.531-1.219q2.68,0,2.7,3.023V0h-1.445V-5.594a1.946,1.946,0,0,0-.418-1.352,1.675,1.675,0,0,0-1.277-.437,2.086,2.086,0,0,0-1.234.375,2.546,2.546,0,0,0-.828.984V0h-1.445V-8.453ZM-4.828-10.5v2.047H-3.25v1.117H-4.828v5.249a1.173,1.173,0,0,0,.211.763A.888.888,0,0,0-3.9-1.07a3.5,3.5,0,0,0,.688-.094V0A4.215,4.215,0,0,1-4.32.156,1.8,1.8,0,0,1-5.781-.43a2.517,2.517,0,0,1-.492-1.664V-7.336H-7.812V-8.453h1.539V-10.5ZM3.656,0a3.036,3.036,0,0,1-.2-.891A3.225,3.225,0,0,1,1.047.156,2.984,2.984,0,0,1-1-.551a2.287,2.287,0,0,1-.8-1.793,2.39,2.39,0,0,1,1-2.051,4.733,4.733,0,0,1,2.824-.73H3.43v-.664A1.623,1.623,0,0,0,2.977-7a1.821,1.821,0,0,0-1.336-.449,2.107,2.107,0,0,0-1.3.391,1.151,1.151,0,0,0-.523.945H-1.633a2,2,0,0,1,.449-1.223A3.066,3.066,0,0,1,.035-8.266a4.1,4.1,0,0,1,1.691-.344,3.342,3.342,0,0,1,2.289.73,2.635,2.635,0,0,1,.859,2.012v3.891a4.757,4.757,0,0,0,.3,1.852V0Zm-2.4-1.1a2.54,2.54,0,0,0,1.289-.352,2.127,2.127,0,0,0,.883-.914V-4.1H2.3Q-.359-4.1-.359-2.547A1.316,1.316,0,0,0,.094-1.484,1.742,1.742,0,0,0,1.258-1.1ZM8.633-8.453V.977q0,2.437-2.211,2.438a2.7,2.7,0,0,1-.883-.14V2.125a2.794,2.794,0,0,0,.656.063.982.982,0,0,0,.738-.262,1.3,1.3,0,0,0,.254-.911V-8.453ZM7.039-10.7a.867.867,0,0,1,.215-.59.79.79,0,0,1,.629-.246.819.819,0,0,1,.641.242.854.854,0,0,1,.219.594.826.826,0,0,1-.219.586.834.834,0,0,1-.641.234.808.808,0,0,1-.633-.234A.843.843,0,0,1,7.039-10.7ZM14.469.156a3.693,3.693,0,0,1-2.8-1.129,4.19,4.19,0,0,1-1.078-3.02v-.266a5.073,5.073,0,0,1,.48-2.246,3.748,3.748,0,0,1,1.344-1.547,3.378,3.378,0,0,1,1.871-.559,3.166,3.166,0,0,1,2.563,1.086,4.7,4.7,0,0,1,.914,3.109v.6H12.039a3,3,0,0,0,.73,2.02,2.3,2.3,0,0,0,1.777.77,2.517,2.517,0,0,0,1.3-.312,3.259,3.259,0,0,0,.93-.828l.883.688A3.55,3.55,0,0,1,14.469.156Zm-.18-7.578a1.928,1.928,0,0,0-1.469.637A3.1,3.1,0,0,0,12.086-5H16.32v-.109a2.753,2.753,0,0,0-.594-1.707A1.815,1.815,0,0,0,14.289-7.422ZM23.047-4.3a4.952,4.952,0,0,1,.922-3.129,2.915,2.915,0,0,1,2.414-1.184,2.932,2.932,0,0,1,2.352,1.016V-12H30.18V0H28.852l-.07-.906A2.943,2.943,0,0,1,26.367.156a2.887,2.887,0,0,1-2.395-1.2,5.008,5.008,0,0,1-.926-3.141Zm1.445.164a3.749,3.749,0,0,0,.594,2.25,1.92,1.92,0,0,0,1.641.813A2.108,2.108,0,0,0,28.734-2.3V-6.187a2.125,2.125,0,0,0-1.992-1.2,1.929,1.929,0,0,0-1.656.82A4.128,4.128,0,0,0,24.492-4.133ZM35.93.156a3.693,3.693,0,0,1-2.8-1.129,4.19,4.19,0,0,1-1.078-3.02v-.266a5.073,5.073,0,0,1,.48-2.246,3.748,3.748,0,0,1,1.344-1.547,3.378,3.378,0,0,1,1.871-.559,3.166,3.166,0,0,1,2.563,1.086,4.7,4.7,0,0,1,.914,3.109v.6H33.5a3,3,0,0,0,.73,2.02,2.3,2.3,0,0,0,1.777.77,2.517,2.517,0,0,0,1.3-.312,3.259,3.259,0,0,0,.93-.828l.883.688A3.55,3.55,0,0,1,35.93.156Zm-.18-7.578a1.928,1.928,0,0,0-1.469.637A3.1,3.1,0,0,0,33.547-5h4.234v-.109a2.753,2.753,0,0,0-.594-1.707A1.815,1.815,0,0,0,35.75-7.422ZM-14.484,19.867a5.062,5.062,0,0,1-.883,3.109,2.829,2.829,0,0,1-2.391,1.18,3.1,3.1,0,0,1-2.422-.977v4.07h-1.445v-11.7h1.32l.07.938a2.977,2.977,0,0,1,2.453-1.094,2.882,2.882,0,0,1,2.41,1.148,5.117,5.117,0,0,1,.887,3.2ZM-15.93,19.7a3.735,3.735,0,0,0-.609-2.258,1.963,1.963,0,0,0-1.672-.828,2.125,2.125,0,0,0-1.969,1.164V21.82A2.129,2.129,0,0,0-18.2,22.977a1.954,1.954,0,0,0,1.652-.824A4.077,4.077,0,0,0-15.93,19.7Zm8.5,4.3a3.036,3.036,0,0,1-.2-.891,3.225,3.225,0,0,1-2.406,1.047,2.984,2.984,0,0,1-2.051-.707,2.287,2.287,0,0,1-.8-1.793,2.39,2.39,0,0,1,1-2.051,4.733,4.733,0,0,1,2.824-.73h1.406v-.664A1.623,1.623,0,0,0-8.109,17a1.821,1.821,0,0,0-1.336-.449,2.108,2.108,0,0,0-1.3.391,1.151,1.151,0,0,0-.523.945h-1.453a2,2,0,0,1,.449-1.223,3.066,3.066,0,0,1,1.219-.934,4.1,4.1,0,0,1,1.691-.344,3.342,3.342,0,0,1,2.289.73,2.635,2.635,0,0,1,.859,2.012v3.891a4.757,4.757,0,0,0,.3,1.852V24Zm-2.4-1.1a2.54,2.54,0,0,0,1.289-.352,2.127,2.127,0,0,0,.883-.914V19.9H-8.789q-2.656,0-2.656,1.555a1.316,1.316,0,0,0,.453,1.063A1.742,1.742,0,0,0-9.828,22.9ZM.141,16.844a4.331,4.331,0,0,0-.711-.055A1.9,1.9,0,0,0-2.5,18v6H-3.945V15.547h1.406l.023.977A2.251,2.251,0,0,1-.5,15.391a1.477,1.477,0,0,1,.641.109ZM3.82,13.5v2.047H5.4v1.117H3.82v5.249a1.173,1.173,0,0,0,.211.763.888.888,0,0,0,.719.254,3.5,3.5,0,0,0,.688-.094V24a4.215,4.215,0,0,1-1.109.155,1.8,1.8,0,0,1-1.461-.586,2.517,2.517,0,0,1-.492-1.664V16.664H.836V15.547H2.375V13.5Zm6.773,10.656a3.693,3.693,0,0,1-2.8-1.129,4.19,4.19,0,0,1-1.078-3.02v-.266A5.073,5.073,0,0,1,7.2,17.5a3.748,3.748,0,0,1,1.344-1.547,3.378,3.378,0,0,1,1.871-.559,3.166,3.166,0,0,1,2.563,1.086,4.7,4.7,0,0,1,.914,3.109v.6H8.164a3,3,0,0,0,.73,2.02,2.3,2.3,0,0,0,1.777.77,2.517,2.517,0,0,0,1.3-.312,3.259,3.259,0,0,0,.93-.828l.883.688A3.55,3.55,0,0,1,10.594,24.156Zm-.18-7.578a1.928,1.928,0,0,0-1.469.637A3.1,3.1,0,0,0,8.211,19h4.234v-.109a2.753,2.753,0,0,0-.594-1.707A1.815,1.815,0,0,0,10.414,16.578Zm10.07,5.18a1.064,1.064,0,0,0-.441-.91,4.249,4.249,0,0,0-1.539-.559,7.277,7.277,0,0,1-1.742-.562,2.479,2.479,0,0,1-.953-.781,1.869,1.869,0,0,1-.309-1.078,2.193,2.193,0,0,1,.879-1.758,3.432,3.432,0,0,1,2.246-.719,3.532,3.532,0,0,1,2.332.742,2.357,2.357,0,0,1,.895,1.9H20.4a1.3,1.3,0,0,0-.5-1.023,1.888,1.888,0,0,0-1.27-.43,1.976,1.976,0,0,0-1.234.344,1.082,1.082,0,0,0-.445.9.877.877,0,0,0,.414.789,5.1,5.1,0,0,0,1.5.508,7.8,7.8,0,0,1,1.754.578,2.558,2.558,0,0,1,1,.809,1.988,1.988,0,0,1,.324,1.152,2.163,2.163,0,0,1-.906,1.816,3.8,3.8,0,0,1-2.352.684,4.257,4.257,0,0,1-1.8-.359,2.922,2.922,0,0,1-1.223-1,2.42,2.42,0,0,1-.441-1.395h1.445a1.5,1.5,0,0,0,.582,1.152,2.258,2.258,0,0,0,1.434.426,2.331,2.331,0,0,0,1.316-.332A1.02,1.02,0,0,0,20.484,21.758Z" transform="translate(-3793 -10249)" fill="#12263f"/>
    <g transform="matrix(1, 0, 0, 1, -3895, -10680.42)" filter="url(#Trazado_656567)">
      <path id="Trazado_656567-2" data-name="Trazado 656567" d="M0,0H126V97H0Z" transform="translate(36 508.42)" fill="#fff"/>
    </g>
    <path id="Trazado_656568" data-name="Trazado 656568" d="M-25.816-11.375-22.1-2.094l3.719-9.281h1.945V0h-1.5V-4.43l.141-4.781L-21.527,0h-1.148L-26.4-9.187l.148,4.758V0h-1.5V-11.375ZM-14.395-4.3a4.993,4.993,0,0,1,.488-2.234A3.643,3.643,0,0,1-12.547-8.07a3.7,3.7,0,0,1,1.988-.539,3.565,3.565,0,0,1,2.793,1.2A4.6,4.6,0,0,1-6.7-4.234v.1a5.036,5.036,0,0,1-.473,2.215A3.589,3.589,0,0,1-8.523-.391a3.743,3.743,0,0,1-2.02.547,3.556,3.556,0,0,1-2.785-1.2A4.575,4.575,0,0,1-14.395-4.2Zm1.453.172a3.616,3.616,0,0,0,.652,2.258,2.088,2.088,0,0,0,1.746.852,2.075,2.075,0,0,0,1.75-.863A3.955,3.955,0,0,0-8.145-4.3,3.61,3.61,0,0,0-8.8-6.559a2.1,2.1,0,0,0-1.754-.863,2.075,2.075,0,0,0-1.727.852A3.925,3.925,0,0,0-12.941-4.133Zm9.422-4.32.047,1.063A3.08,3.08,0,0,1-.941-8.609q2.68,0,2.7,3.023V0H.316V-5.594A1.946,1.946,0,0,0-.1-6.945a1.675,1.675,0,0,0-1.277-.437,2.086,2.086,0,0,0-1.234.375,2.546,2.546,0,0,0-.828.984V0H-4.887V-8.453ZM5.9-10.5v2.047H7.48v1.117H5.9v5.249a1.173,1.173,0,0,0,.211.763.888.888,0,0,0,.719.254,3.5,3.5,0,0,0,.688-.094V0A4.215,4.215,0,0,1,6.41.156,1.8,1.8,0,0,1,4.949-.43a2.517,2.517,0,0,1-.492-1.664V-7.336H2.918V-8.453H4.457V-10.5ZM14.387,0a3.036,3.036,0,0,1-.2-.891A3.225,3.225,0,0,1,11.777.156,2.984,2.984,0,0,1,9.727-.551a2.287,2.287,0,0,1-.8-1.793,2.39,2.39,0,0,1,1-2.051,4.733,4.733,0,0,1,2.824-.73H14.16v-.664A1.623,1.623,0,0,0,13.707-7a1.821,1.821,0,0,0-1.336-.449,2.107,2.107,0,0,0-1.3.391,1.151,1.151,0,0,0-.523.945H9.1a2,2,0,0,1,.449-1.223,3.066,3.066,0,0,1,1.219-.934,4.1,4.1,0,0,1,1.691-.344,3.342,3.342,0,0,1,2.289.73,2.635,2.635,0,0,1,.859,2.012v3.891a4.757,4.757,0,0,0,.3,1.852V0Zm-2.4-1.1a2.54,2.54,0,0,0,1.289-.352,2.127,2.127,0,0,0,.883-.914V-4.1H13.027q-2.656,0-2.656,1.555a1.316,1.316,0,0,0,.453,1.063A1.742,1.742,0,0,0,11.988-1.1Zm7.375-7.352V.977q0,2.437-2.211,2.438a2.7,2.7,0,0,1-.883-.14V2.125a2.794,2.794,0,0,0,.656.063.982.982,0,0,0,.738-.262,1.3,1.3,0,0,0,.254-.911V-8.453ZM17.77-10.7a.867.867,0,0,1,.215-.59.79.79,0,0,1,.629-.246.819.819,0,0,1,.641.242.854.854,0,0,1,.219.594.826.826,0,0,1-.219.586.834.834,0,0,1-.641.234.808.808,0,0,1-.633-.234A.843.843,0,0,1,17.77-10.7ZM25.2.156A3.693,3.693,0,0,1,22.4-.973a4.19,4.19,0,0,1-1.078-3.02v-.266A5.073,5.073,0,0,1,21.8-6.5a3.748,3.748,0,0,1,1.344-1.547,3.378,3.378,0,0,1,1.871-.559,3.166,3.166,0,0,1,2.563,1.086A4.7,4.7,0,0,1,28.5-4.414v.6H22.77a3,3,0,0,0,.73,2.02,2.3,2.3,0,0,0,1.777.77,2.517,2.517,0,0,0,1.3-.312,3.259,3.259,0,0,0,.93-.828l.883.688A3.55,3.55,0,0,1,25.2.156Zm-.18-7.578a1.928,1.928,0,0,0-1.469.637A3.1,3.1,0,0,0,22.816-5h4.234v-.109a2.753,2.753,0,0,0-.594-1.707A1.815,1.815,0,0,0,25.02-7.422Zm-34.5,26.4H-14.25V24h-1.5V12.625H-8.7v1.227H-14.25v3.9h4.773ZM-5.562,24H-7.008V15.547h1.445ZM-7.125,13.3a.863.863,0,0,1,.215-.594.807.807,0,0,1,.637-.242.819.819,0,0,1,.641.242.854.854,0,0,1,.219.594.826.826,0,0,1-.219.586.834.834,0,0,1-.641.234.821.821,0,0,1-.637-.234A.834.834,0,0,1-7.125,13.3Zm5.242,2.242.047,1.063A3.08,3.08,0,0,1,.7,15.391q2.68,0,2.7,3.023V24H1.953V18.406a1.946,1.946,0,0,0-.418-1.352,1.675,1.675,0,0,0-1.277-.437,2.086,2.086,0,0,0-1.234.375,2.546,2.546,0,0,0-.828.984V24H-3.25V15.547ZM10.8,24a3.036,3.036,0,0,1-.2-.891,3.225,3.225,0,0,1-2.406,1.047,2.984,2.984,0,0,1-2.051-.707,2.287,2.287,0,0,1-.8-1.793,2.39,2.39,0,0,1,1-2.051,4.733,4.733,0,0,1,2.824-.73H10.57v-.664A1.623,1.623,0,0,0,10.117,17a1.821,1.821,0,0,0-1.336-.449,2.108,2.108,0,0,0-1.3.391,1.151,1.151,0,0,0-.523.945H5.508a2,2,0,0,1,.449-1.223,3.066,3.066,0,0,1,1.219-.934,4.1,4.1,0,0,1,1.691-.344,3.342,3.342,0,0,1,2.289.73,2.635,2.635,0,0,1,.859,2.012v3.891a4.757,4.757,0,0,0,.3,1.852V24ZM8.4,22.9a2.54,2.54,0,0,0,1.289-.352,2.127,2.127,0,0,0,.883-.914V19.9H9.438q-2.656,0-2.656,1.555a1.316,1.316,0,0,0,.453,1.063A1.742,1.742,0,0,0,8.4,22.9ZM15.852,24H14.406V12h1.445Z" transform="translate(-3796 -10129)" fill="#12263f"/>
    <g transform="matrix(1, 0, 0, 1, -3895, -10680.42)" filter="url(#Trazado_656569)">
      <path id="Trazado_656569-2" data-name="Trazado 656569" d="M0,0H126V97H0Z" transform="translate(36 624.42)" fill="#fff"/>
    </g>
    <path id="Trazado_656570" data-name="Trazado 656570" d="M-25.09-5.258h-4.93v4.031h5.727V0H-31.52V-11.375h7.148v1.227H-30.02v3.664h4.93Zm3.8-3.2.039.938a3.122,3.122,0,0,1,2.508-1.094A2.417,2.417,0,0,1-16.332-7.25a3.2,3.2,0,0,1,1.1-.984,3.242,3.242,0,0,1,1.6-.375q2.781,0,2.828,2.945V0h-1.445V-5.578a1.941,1.941,0,0,0-.414-1.355,1.823,1.823,0,0,0-1.391-.449,1.916,1.916,0,0,0-1.336.48,1.949,1.949,0,0,0-.617,1.293V0h-1.453V-5.539a1.613,1.613,0,0,0-1.8-1.844,1.934,1.934,0,0,0-1.945,1.211V0H-22.66V-8.453Zm19.82,4.32A5.026,5.026,0,0,1-2.363-1.02,2.846,2.846,0,0,1-4.754.156,2.947,2.947,0,0,1-7.23-.977L-7.3,0H-8.629V-12h1.445v4.477A2.93,2.93,0,0,1-4.77-8.609,2.863,2.863,0,0,1-2.352-7.445a5.177,5.177,0,0,1,.879,3.188ZM-2.918-4.3a3.906,3.906,0,0,0-.57-2.281,1.888,1.888,0,0,0-1.641-.8A2.122,2.122,0,0,0-7.184-6.055V-2.4A2.181,2.181,0,0,0-5.113-1.07a1.878,1.878,0,0,0,1.617-.8A4.153,4.153,0,0,0-2.918-4.3ZM5.566,0a3.036,3.036,0,0,1-.2-.891A3.225,3.225,0,0,1,2.957.156,2.984,2.984,0,0,1,.906-.551a2.287,2.287,0,0,1-.8-1.793,2.39,2.39,0,0,1,1-2.051,4.733,4.733,0,0,1,2.824-.73H5.34v-.664A1.623,1.623,0,0,0,4.887-7a1.821,1.821,0,0,0-1.336-.449,2.107,2.107,0,0,0-1.3.391,1.151,1.151,0,0,0-.523.945H.277A2,2,0,0,1,.727-7.332a3.066,3.066,0,0,1,1.219-.934,4.1,4.1,0,0,1,1.691-.344,3.342,3.342,0,0,1,2.289.73,2.635,2.635,0,0,1,.859,2.012v3.891a4.757,4.757,0,0,0,.3,1.852V0Zm-2.4-1.1a2.54,2.54,0,0,0,1.289-.352,2.127,2.127,0,0,0,.883-.914V-4.1H4.207q-2.656,0-2.656,1.555A1.316,1.316,0,0,0,2-1.484,1.742,1.742,0,0,0,3.168-1.1ZM10.621,0H9.176V-12h1.445Zm7.531,0a3.036,3.036,0,0,1-.2-.891A3.225,3.225,0,0,1,15.543.156a2.984,2.984,0,0,1-2.051-.707,2.287,2.287,0,0,1-.8-1.793,2.39,2.39,0,0,1,1-2.051,4.733,4.733,0,0,1,2.824-.73h1.406v-.664A1.623,1.623,0,0,0,17.473-7a1.821,1.821,0,0,0-1.336-.449,2.107,2.107,0,0,0-1.3.391,1.151,1.151,0,0,0-.523.945H12.863a2,2,0,0,1,.449-1.223,3.066,3.066,0,0,1,1.219-.934,4.1,4.1,0,0,1,1.691-.344,3.342,3.342,0,0,1,2.289.73,2.635,2.635,0,0,1,.859,2.012v3.891a4.757,4.757,0,0,0,.3,1.852V0Zm-2.4-1.1a2.54,2.54,0,0,0,1.289-.352,2.127,2.127,0,0,0,.883-.914V-4.1H16.793q-2.656,0-2.656,1.555a1.316,1.316,0,0,0,.453,1.063A1.742,1.742,0,0,0,15.754-1.1Zm7.375-7.352V.977q0,2.437-2.211,2.438a2.7,2.7,0,0,1-.883-.14V2.125a2.794,2.794,0,0,0,.656.063.982.982,0,0,0,.738-.262,1.3,1.3,0,0,0,.254-.911V-8.453ZM21.535-10.7a.867.867,0,0,1,.215-.59.79.79,0,0,1,.629-.246.819.819,0,0,1,.641.242.854.854,0,0,1,.219.594.826.826,0,0,1-.219.586.834.834,0,0,1-.641.234.808.808,0,0,1-.633-.234A.843.843,0,0,1,21.535-10.7ZM28.965.156a3.693,3.693,0,0,1-2.8-1.129,4.19,4.19,0,0,1-1.078-3.02v-.266A5.073,5.073,0,0,1,25.57-6.5a3.748,3.748,0,0,1,1.344-1.547,3.378,3.378,0,0,1,1.871-.559,3.166,3.166,0,0,1,2.563,1.086,4.7,4.7,0,0,1,.914,3.109v.6H26.535a3,3,0,0,0,.73,2.02,2.3,2.3,0,0,0,1.777.77,2.517,2.517,0,0,0,1.3-.312,3.259,3.259,0,0,0,.93-.828l.883.688A3.55,3.55,0,0,1,28.965.156Zm-.18-7.578a1.928,1.928,0,0,0-1.469.637A3.1,3.1,0,0,0,26.582-5h4.234v-.109a2.753,2.753,0,0,0-.594-1.707A1.815,1.815,0,0,0,28.785-7.422Z" transform="translate(-3796 -10001)" fill="#12263f"/>
    <g transform="matrix(1, 0, 0, 1, -3895, -10680.42)" filter="url(#Trazado_656571)">
      <path id="Trazado_656571-2" data-name="Trazado 656571" d="M0,0H126V97H0Z" transform="translate(36 746.42)" fill="#fff"/>
    </g>
    <g transform="matrix(1, 0, 0, 1, -3895, -10680.42)" filter="url(#Trazado_656572)">
      <path id="Trazado_656572-2" data-name="Trazado 656572" d="M0,0H126V97H0Z" transform="translate(36 868.42)" fill="#fff"/>
    </g>
    <path id="Trazado_656573" data-name="Trazado 656573" d="M-41.258,0V-11.375h3.211a5.169,5.169,0,0,1,2.625.656A4.438,4.438,0,0,1-33.66-8.852a6.078,6.078,0,0,1,.629,2.781v.727a6.1,6.1,0,0,1-.621,2.82A4.369,4.369,0,0,1-35.426-.664,5.5,5.5,0,0,1-38.109,0Zm1.5-10.148v8.922h1.578a3.434,3.434,0,0,0,2.7-1.079,4.458,4.458,0,0,0,.965-3.073v-.665a4.529,4.529,0,0,0-.91-3.014,3.239,3.239,0,0,0-2.582-1.091ZM-29.422,0h-1.445V-8.453h1.445Zm-1.562-10.7a.863.863,0,0,1,.215-.594.807.807,0,0,1,.637-.242.819.819,0,0,1,.641.242.854.854,0,0,1,.219.594.826.826,0,0,1-.219.586.834.834,0,0,1-.641.234.821.821,0,0,1-.637-.234A.834.834,0,0,1-30.984-10.7Zm8.8,8.453a1.064,1.064,0,0,0-.441-.91,4.249,4.249,0,0,0-1.539-.559,7.277,7.277,0,0,1-1.742-.562,2.479,2.479,0,0,1-.953-.781,1.869,1.869,0,0,1-.309-1.078,2.193,2.193,0,0,1,.879-1.758,3.432,3.432,0,0,1,2.246-.719,3.532,3.532,0,0,1,2.332.742,2.357,2.357,0,0,1,.895,1.9h-1.453a1.3,1.3,0,0,0-.5-1.023,1.888,1.888,0,0,0-1.27-.43,1.976,1.976,0,0,0-1.234.344,1.082,1.082,0,0,0-.445.9.877.877,0,0,0,.414.789,5.1,5.1,0,0,0,1.5.508,7.8,7.8,0,0,1,1.754.578,2.558,2.558,0,0,1,1,.809,1.988,1.988,0,0,1,.324,1.152,2.163,2.163,0,0,1-.906,1.816A3.8,3.8,0,0,1-24,.156,4.257,4.257,0,0,1-25.8-.2a2.922,2.922,0,0,1-1.223-1A2.42,2.42,0,0,1-27.461-2.6h1.445a1.5,1.5,0,0,0,.582,1.152A2.258,2.258,0,0,0-24-1.023a2.331,2.331,0,0,0,1.316-.332A1.02,1.02,0,0,0-22.187-2.242ZM-16.9-10.5v2.047h1.578v1.117H-16.9v5.249a1.173,1.173,0,0,0,.211.763.888.888,0,0,0,.719.254,3.5,3.5,0,0,0,.688-.094V0a4.215,4.215,0,0,1-1.109.155A1.8,1.8,0,0,1-17.852-.43a2.517,2.517,0,0,1-.492-1.664V-7.336h-1.539V-8.453h1.539V-10.5Zm7.352,3.344a4.331,4.331,0,0,0-.711-.055A1.9,1.9,0,0,0-12.187-6V0h-1.445V-8.453h1.406l.023.977a2.251,2.251,0,0,1,2.016-1.133,1.477,1.477,0,0,1,.641.109ZM-6.648,0H-8.094V-8.453h1.445ZM-8.211-10.7A.863.863,0,0,1-8-11.289a.807.807,0,0,1,.637-.242.819.819,0,0,1,.641.242A.854.854,0,0,1-6.5-10.7a.826.826,0,0,1-.219.586.834.834,0,0,1-.641.234A.821.821,0,0,1-8-10.109.834.834,0,0,1-8.211-10.7ZM2.82-4.133A5.026,5.026,0,0,1,1.93-1.02,2.846,2.846,0,0,1-.461.156,2.947,2.947,0,0,1-2.937-.977L-3.008,0H-4.336V-12h1.445v4.477A2.93,2.93,0,0,1-.477-8.609,2.863,2.863,0,0,1,1.941-7.445,5.177,5.177,0,0,1,2.82-4.258ZM1.375-4.3A3.906,3.906,0,0,0,.8-6.578a1.888,1.888,0,0,0-1.641-.8A2.122,2.122,0,0,0-2.891-6.055V-2.4A2.181,2.181,0,0,0-.82-1.07,1.878,1.878,0,0,0,.8-1.875,4.153,4.153,0,0,0,1.375-4.3ZM9.859-.836A3.07,3.07,0,0,1,7.383.156,2.628,2.628,0,0,1,5.324-.629a3.4,3.4,0,0,1-.715-2.324v-5.5H6.055v5.461q0,1.922,1.563,1.922A2.163,2.163,0,0,0,9.82-2.3V-8.453h1.445V0H9.891Zm6.992-.187A2.082,2.082,0,0,0,18.2-1.492a1.649,1.649,0,0,0,.641-1.172h1.367a2.621,2.621,0,0,1-.5,1.383A3.293,3.293,0,0,1,18.48-.234a3.55,3.55,0,0,1-1.629.391A3.482,3.482,0,0,1,14.105-1a4.59,4.59,0,0,1-1.02-3.152v-.242a5.089,5.089,0,0,1,.453-2.2,3.451,3.451,0,0,1,1.3-1.492,3.7,3.7,0,0,1,2-.531,3.39,3.39,0,0,1,2.363.852,3.043,3.043,0,0,1,1,2.211H18.844a1.992,1.992,0,0,0-.621-1.348,1.932,1.932,0,0,0-1.379-.527,2.023,2.023,0,0,0-1.707.793,3.724,3.724,0,0,0-.605,2.293v.273a3.65,3.65,0,0,0,.6,2.25A2.033,2.033,0,0,0,16.852-1.023ZM23.406,0H21.961V-8.453h1.445ZM21.844-10.7a.863.863,0,0,1,.215-.594.807.807,0,0,1,.637-.242.819.819,0,0,1,.641.242.854.854,0,0,1,.219.594.826.826,0,0,1-.219.586.834.834,0,0,1-.641.234.821.821,0,0,1-.637-.234A.834.834,0,0,1,21.844-10.7ZM25.336-4.3a4.993,4.993,0,0,1,.488-2.234A3.643,3.643,0,0,1,27.184-8.07a3.7,3.7,0,0,1,1.988-.539,3.565,3.565,0,0,1,2.793,1.2,4.6,4.6,0,0,1,1.066,3.18v.1a5.036,5.036,0,0,1-.473,2.215A3.589,3.589,0,0,1,31.207-.391a3.743,3.743,0,0,1-2.02.547,3.556,3.556,0,0,1-2.785-1.2A4.575,4.575,0,0,1,25.336-4.2Zm1.453.172a3.616,3.616,0,0,0,.652,2.258,2.088,2.088,0,0,0,1.746.852,2.075,2.075,0,0,0,1.75-.863A3.955,3.955,0,0,0,31.586-4.3a3.61,3.61,0,0,0-.66-2.254,2.1,2.1,0,0,0-1.754-.863,2.075,2.075,0,0,0-1.727.852A3.925,3.925,0,0,0,26.789-4.133Zm3.039-7.852h1.75l-2.094,2.3-1.164,0Zm6.383,3.531.047,1.063a3.08,3.08,0,0,1,2.531-1.219q2.68,0,2.7,3.023V0H40.047V-5.594a1.946,1.946,0,0,0-.418-1.352,1.675,1.675,0,0,0-1.277-.437,2.086,2.086,0,0,0-1.234.375,2.546,2.546,0,0,0-.828.984V0H34.844V-8.453Z" transform="translate(-3796 -9879)" fill="#12263f"/>
    <path id="Trazado_656574" data-name="Trazado 656574" d="M-32.023-3.609A4.185,4.185,0,0,1-33.355-.824a4.365,4.365,0,0,1-2.98.98,4.008,4.008,0,0,1-3.23-1.445,5.815,5.815,0,0,1-1.215-3.867V-6.25a6.481,6.481,0,0,1,.566-2.789,4.231,4.231,0,0,1,1.605-1.848,4.47,4.47,0,0,1,2.406-.645A4.11,4.11,0,0,1-33.3-10.52a4.235,4.235,0,0,1,1.273,2.8h-1.508a3.268,3.268,0,0,0-.848-1.975A2.565,2.565,0,0,0-36.2-10.3a2.684,2.684,0,0,0-2.254,1.063,4.882,4.882,0,0,0-.816,3.026v1.1A5.018,5.018,0,0,0-38.5-2.165,2.5,2.5,0,0,0-36.336-1.07a2.887,2.887,0,0,0,1.918-.566,3.143,3.143,0,0,0,.887-1.973ZM-28.633,0h-1.445V-12h1.445Zm3.883,0H-26.2V-8.453h1.445Zm-1.562-10.7a.863.863,0,0,1,.215-.594.807.807,0,0,1,.637-.242.819.819,0,0,1,.641.242.854.854,0,0,1,.219.594.826.826,0,0,1-.219.586.834.834,0,0,1-.641.234.821.821,0,0,1-.637-.234A.834.834,0,0,1-26.312-10.7ZM-18.93.156a3.693,3.693,0,0,1-2.8-1.129A4.19,4.19,0,0,1-22.8-3.992v-.266a5.073,5.073,0,0,1,.48-2.246A3.748,3.748,0,0,1-20.98-8.051a3.378,3.378,0,0,1,1.871-.559,3.166,3.166,0,0,1,2.563,1.086,4.7,4.7,0,0,1,.914,3.109v.6h-5.727a3,3,0,0,0,.73,2.02,2.3,2.3,0,0,0,1.777.77,2.517,2.517,0,0,0,1.3-.312,3.259,3.259,0,0,0,.93-.828l.883.688A3.55,3.55,0,0,1-18.93.156Zm-.18-7.578a1.928,1.928,0,0,0-1.469.637A3.1,3.1,0,0,0-21.312-5h4.234v-.109a2.753,2.753,0,0,0-.594-1.707A1.815,1.815,0,0,0-19.109-7.422Zm6.516-1.031.047,1.063a3.08,3.08,0,0,1,2.531-1.219q2.68,0,2.7,3.023V0H-8.758V-5.594a1.946,1.946,0,0,0-.418-1.352,1.675,1.675,0,0,0-1.277-.437,2.086,2.086,0,0,0-1.234.375,2.546,2.546,0,0,0-.828.984V0h-1.445V-8.453ZM-3.172-10.5v2.047h1.578v1.117H-3.172v5.249a1.173,1.173,0,0,0,.211.763.888.888,0,0,0,.719.254,3.5,3.5,0,0,0,.688-.094V0A4.215,4.215,0,0,1-2.664.156,1.8,1.8,0,0,1-4.125-.43a2.517,2.517,0,0,1-.492-1.664V-7.336H-6.156V-8.453h1.539V-10.5ZM3.6.156A3.693,3.693,0,0,1,.8-.973,4.19,4.19,0,0,1-.273-3.992v-.266A5.073,5.073,0,0,1,.207-6.5,3.748,3.748,0,0,1,1.551-8.051a3.378,3.378,0,0,1,1.871-.559A3.166,3.166,0,0,1,5.984-7.523,4.7,4.7,0,0,1,6.9-4.414v.6H1.172a3,3,0,0,0,.73,2.02,2.3,2.3,0,0,0,1.777.77,2.517,2.517,0,0,0,1.3-.312,3.259,3.259,0,0,0,.93-.828l.883.688A3.55,3.55,0,0,1,3.6.156Zm-.18-7.578a1.928,1.928,0,0,0-1.469.637A3.1,3.1,0,0,0,1.219-5H5.453v-.109a2.753,2.753,0,0,0-.594-1.707A1.815,1.815,0,0,0,3.422-7.422ZM13.016,0V-7.336H11.68V-8.453h1.336v-.719a2.937,2.937,0,0,1,.809-2.2,3.136,3.136,0,0,1,2.285-.789,6.881,6.881,0,0,1,2.211.477l-.242,1.219a5.008,5.008,0,0,0-1.859-.391,1.819,1.819,0,0,0-1.34.418,1.723,1.723,0,0,0-.41,1.254v.734H16.2v1.117H14.469V0Zm6.023,0H17.586V-8.453h1.453Zm3.719-8.453L22.8-7.391a3.08,3.08,0,0,1,2.531-1.219q2.68,0,2.7,3.023V0H26.594V-5.594a1.946,1.946,0,0,0-.418-1.352A1.675,1.675,0,0,0,24.9-7.383a2.086,2.086,0,0,0-1.234.375,2.546,2.546,0,0,0-.828.984V0H21.391V-8.453ZM35.438,0a3.036,3.036,0,0,1-.2-.891A3.225,3.225,0,0,1,32.828.156a2.984,2.984,0,0,1-2.051-.707,2.287,2.287,0,0,1-.8-1.793,2.39,2.39,0,0,1,1-2.051,4.733,4.733,0,0,1,2.824-.73h1.406v-.664A1.623,1.623,0,0,0,34.758-7a1.821,1.821,0,0,0-1.336-.449,2.107,2.107,0,0,0-1.3.391,1.151,1.151,0,0,0-.523.945H30.148A2,2,0,0,1,30.6-7.332a3.066,3.066,0,0,1,1.219-.934,4.1,4.1,0,0,1,1.691-.344,3.342,3.342,0,0,1,2.289.73,2.635,2.635,0,0,1,.859,2.012v3.891a4.757,4.757,0,0,0,.3,1.852V0Zm-2.4-1.1a2.54,2.54,0,0,0,1.289-.352,2.127,2.127,0,0,0,.883-.914V-4.1H34.078q-2.656,0-2.656,1.555a1.316,1.316,0,0,0,.453,1.063A1.742,1.742,0,0,0,33.039-1.1ZM40.492,0H39.047V-12h1.445Z" transform="translate(-3796 -9757)" fill="#12263f"/>
    <path id="Trazado_656575" data-name="Trazado 656575" d="M0,0H863.166V11.484H0Z" transform="translate(-3863.516 -10638.002) rotate(90)" fill="#583cb6"/>
    <path id="Trazado_656576" data-name="Trazado 656576" d="M24.5,0,49,43H0Z" transform="translate(-3846 -9731.836) rotate(180)" fill="#583cb6"/>
    <path id="Icon_awesome-arrow-circle-right-2" data-name="Icon awesome-arrow-circle-right" d="M18,.563A17.438,17.438,0,1,1,.563,18,17.434,17.434,0,0,1,18,.563Zm-2.032,10.1,5.309,5.091H8.438A1.683,1.683,0,0,0,6.75,17.438v1.125A1.683,1.683,0,0,0,8.438,20.25H21.277l-5.309,5.091a1.689,1.689,0,0,0-.028,2.412l.773.766a1.681,1.681,0,0,0,2.384,0l9.33-9.323a1.681,1.681,0,0,0,0-2.384L19.1,7.474a1.681,1.681,0,0,0-2.384,0l-.773.766a1.7,1.7,0,0,0,.028,2.419Z" transform="translate(-3775 -10440.729) rotate(90)"/>
    <path id="Icon_awesome-arrow-circle-right-3" data-name="Icon awesome-arrow-circle-right" d="M18,.563A17.438,17.438,0,1,1,.563,18,17.434,17.434,0,0,1,18,.563Zm-2.032,10.1,5.309,5.091H8.438A1.683,1.683,0,0,0,6.75,17.438v1.125A1.683,1.683,0,0,0,8.438,20.25H21.277l-5.309,5.091a1.689,1.689,0,0,0-.028,2.412l.773.766a1.681,1.681,0,0,0,2.384,0l9.33-9.323a1.681,1.681,0,0,0,0-2.384L19.1,7.474a1.681,1.681,0,0,0-2.384,0l-.773.766a1.7,1.7,0,0,0,.028,2.419Z" transform="translate(-3775 -10320.729) rotate(90)"/>
    <path id="Icon_awesome-arrow-circle-right-4" data-name="Icon awesome-arrow-circle-right" d="M18,.563A17.438,17.438,0,1,1,.563,18,17.434,17.434,0,0,1,18,.563Zm-2.032,10.1,5.309,5.091H8.438A1.683,1.683,0,0,0,6.75,17.438v1.125A1.683,1.683,0,0,0,8.438,20.25H21.277l-5.309,5.091a1.689,1.689,0,0,0-.028,2.412l.773.766a1.681,1.681,0,0,0,2.384,0l9.33-9.323a1.681,1.681,0,0,0,0-2.384L19.1,7.474a1.681,1.681,0,0,0-2.384,0l-.773.766a1.7,1.7,0,0,0,.028,2.419Z" transform="translate(-3775 -10200.938) rotate(90)"/>
    <path id="Icon_awesome-arrow-circle-right-5" data-name="Icon awesome-arrow-circle-right" d="M18,.563A17.438,17.438,0,1,1,.563,18,17.434,17.434,0,0,1,18,.563Zm-2.032,10.1,5.309,5.091H8.438A1.683,1.683,0,0,0,6.75,17.438v1.125A1.683,1.683,0,0,0,8.438,20.25H21.277l-5.309,5.091a1.689,1.689,0,0,0-.028,2.412l.773.766a1.681,1.681,0,0,0,2.384,0l9.33-9.323a1.681,1.681,0,0,0,0-2.384L19.1,7.474a1.681,1.681,0,0,0-2.384,0l-.773.766a1.7,1.7,0,0,0,.028,2.419Z" transform="translate(-3775 -10082.375) rotate(90)"/>
    <path id="Icon_awesome-arrow-circle-right-6" data-name="Icon awesome-arrow-circle-right" d="M18,.563A17.438,17.438,0,1,1,.563,18,17.434,17.434,0,0,1,18,.563Zm-2.032,10.1,5.309,5.091H8.438A1.683,1.683,0,0,0,6.75,17.438v1.125A1.683,1.683,0,0,0,8.438,20.25H21.277l-5.309,5.091a1.689,1.689,0,0,0-.028,2.412l.773.766a1.681,1.681,0,0,0,2.384,0l9.33-9.323a1.681,1.681,0,0,0,0-2.384L19.1,7.474a1.681,1.681,0,0,0-2.384,0l-.773.766a1.7,1.7,0,0,0,.028,2.419Z" transform="translate(-3775 -9964.375) rotate(90)"/>
    <path id="Icon_awesome-arrow-circle-right-7" data-name="Icon awesome-arrow-circle-right" d="M18,.563A17.438,17.438,0,1,1,.563,18,17.434,17.434,0,0,1,18,.563Zm-2.032,10.1,5.309,5.091H8.438A1.683,1.683,0,0,0,6.75,17.438v1.125A1.683,1.683,0,0,0,8.438,20.25H21.277l-5.309,5.091a1.689,1.689,0,0,0-.028,2.412l.773.766a1.681,1.681,0,0,0,2.384,0l9.33-9.323a1.681,1.681,0,0,0,0-2.384L19.1,7.474a1.681,1.681,0,0,0-2.384,0l-.773.766a1.7,1.7,0,0,0,.028,2.419Z" transform="translate(-3775 -9840.625) rotate(90)"/>
    <path id="Trazado_656412" data-name="Trazado 656412" d="M816.052,120.409V0H0v120.41" transform="translate(-3609.591 -10569.052) rotate(90)" fill="none" stroke="#ef8b53" stroke-width="2"/>
    <path id="Trazado_656413" data-name="Trazado 656413" d="M141,31.519V0H0v31.52" transform="translate(-3698.481 -9894) rotate(90)" fill="none" stroke="#ef8b53" stroke-width="2"/>
    <path id="Trazado_656414" data-name="Trazado 656414" d="M254.5,44.171V0H0V44.171" transform="translate(-3685.829 -10007.5) rotate(90)" fill="none" stroke="#ef8b53" stroke-width="2"/>
    <path id="Trazado_656415" data-name="Trazado 656415" d="M361.977,57.312V0H0V57.312" transform="translate(-3672.688 -10114.977) rotate(90)" fill="none" stroke="#ef8b53" stroke-width="2"/>
    <path id="Trazado_656416" data-name="Trazado 656416" d="M482.848,70.1V0H0V70.1" transform="translate(-3659.896 -10235.848) rotate(90)" fill="none" stroke="#ef8b53" stroke-width="2"/>
    <path id="Trazado_656417" data-name="Trazado 656417" d="M601.938,86.659V0H0v86.66" transform="translate(-3643.341 -10354.938) rotate(90)" fill="none" stroke="#ef8b53" stroke-width="2"/>
    <path id="Trazado_656418" data-name="Trazado 656418" d="M730.5,101.366V0H0V101.366" transform="translate(-3628.634 -10483.5) rotate(90)" fill="none" stroke="#ef8b53" stroke-width="2"/>
    <path id="Icon_awesome-arrow-up" data-name="Icon awesome-arrow-up" d="M1.159,8.953.581,8.375a.622.622,0,0,1,0-.883L5.64,2.43a.622.622,0,0,1,.883,0l5.059,5.059a.622.622,0,0,1,0,.883L11,8.95a.626.626,0,0,1-.893-.01L7.124,5.8v7.483a.623.623,0,0,1-.625.625H5.666a.623.623,0,0,1-.625-.625V5.8L2.052,8.942a.621.621,0,0,1-.893.01Z" transform="translate(-3735.247 -10001.418) rotate(-90)" fill="#ef8b53"/>
    <path id="Icon_awesome-arrow-up-2" data-name="Icon awesome-arrow-up" d="M1.159,8.953.581,8.375a.622.622,0,0,1,0-.883L5.64,2.43a.622.622,0,0,1,.883,0l5.059,5.059a.622.622,0,0,1,0,.883L11,8.95a.626.626,0,0,1-.893-.01L7.124,5.8v7.483a.623.623,0,0,1-.625.625H5.666a.623.623,0,0,1-.625-.625V5.8L2.052,8.942a.621.621,0,0,1-.893.01Z" transform="translate(-3735.247 -10108.895) rotate(-90)" fill="#ef8b53"/>
    <path id="Icon_awesome-arrow-up-3" data-name="Icon awesome-arrow-up" d="M1.159,8.953.581,8.375a.622.622,0,0,1,0-.883L5.64,2.43a.622.622,0,0,1,.883,0l5.059,5.059a.622.622,0,0,1,0,.883L11,8.95a.626.626,0,0,1-.893-.01L7.124,5.8v7.483a.623.623,0,0,1-.625.625H5.666a.623.623,0,0,1-.625-.625V5.8L2.052,8.942a.621.621,0,0,1-.893.01Z" transform="translate(-3735.247 -10229.766) rotate(-90)" fill="#ef8b53"/>
    <path id="Icon_awesome-arrow-up-4" data-name="Icon awesome-arrow-up" d="M1.159,8.953.581,8.375a.622.622,0,0,1,0-.883L5.64,2.43a.622.622,0,0,1,.883,0l5.059,5.059a.622.622,0,0,1,0,.883L11,8.95a.626.626,0,0,1-.893-.01L7.124,5.8v7.483a.623.623,0,0,1-.625.625H5.666a.623.623,0,0,1-.625-.625V5.8L2.052,8.942a.621.621,0,0,1-.893.01Z" transform="translate(-3735.247 -10348.855) rotate(-90)" fill="#ef8b53"/>
    <path id="Icon_awesome-arrow-up-5" data-name="Icon awesome-arrow-up" d="M1.159,8.953.581,8.375a.622.622,0,0,1,0-.883L5.64,2.43a.622.622,0,0,1,.883,0l5.059,5.059a.622.622,0,0,1,0,.883L11,8.95a.626.626,0,0,1-.893-.01L7.124,5.8v7.483a.623.623,0,0,1-.625.625H5.666a.623.623,0,0,1-.625-.625V5.8L2.052,8.942a.621.621,0,0,1-.893.01Z" transform="translate(-3735.247 -10477.418) rotate(-90)" fill="#ef8b53"/>
    <path id="Icon_awesome-arrow-up-6" data-name="Icon awesome-arrow-up" d="M1.159,8.953.581,8.375a.622.622,0,0,1,0-.883L5.64,2.43a.622.622,0,0,1,.883,0l5.059,5.059a.622.622,0,0,1,0,.883L11,8.95a.626.626,0,0,1-.893-.01L7.124,5.8v7.483a.623.623,0,0,1-.625.625H5.666a.623.623,0,0,1-.625-.625V5.8L2.052,8.942a.621.621,0,0,1-.893.01Z" transform="translate(-3735.247 -10562.971) rotate(-90)" fill="#ef8b53"/>
    <path id="Icon_awesome-arrow-up-7" data-name="Icon awesome-arrow-up" d="M1.159,8.953.581,8.375a.622.622,0,0,1,0-.883L5.64,2.43a.622.622,0,0,1,.883,0l5.059,5.059a.622.622,0,0,1,0,.883L11,8.95a.626.626,0,0,1-.893-.01L7.124,5.8v7.483a.623.623,0,0,1-.625.625H5.666a.623.623,0,0,1-.625-.625V5.8L2.052,8.942a.621.621,0,0,1-.893.01Z" transform="translate(-3735.247 -9887.918) rotate(-90)" fill="#ef8b53"/>
    <path id="Icon_awesome-arrow-up-8" data-name="Icon awesome-arrow-up" d="M1.159,8.953.581,8.375a.622.622,0,0,1,0-.883L5.64,2.43a.622.622,0,0,1,.883,0l5.059,5.059a.622.622,0,0,1,0,.883L11,8.95a.626.626,0,0,1-.893-.01L7.124,5.8v7.483a.623.623,0,0,1-.625.625H5.666a.623.623,0,0,1-.625-.625V5.8L2.052,8.942a.621.621,0,0,1-.893.01Z" transform="translate(-3735.247 -9746.918) rotate(-90)" fill="#ef8b53"/>
    <path id="Trazado_656577" data-name="Trazado 656577" d="M0,0H863.166V11.484H0Z" transform="translate(-3722.984 -9731.839) rotate(-90)" fill="#57af81"/>
    <path id="Trazado_656578" data-name="Trazado 656578" d="M24.5,0,49,43H0Z" transform="translate(-3740.5 -10638.005)" fill="#57af81"/>
    <path id="Trazado_656419" data-name="Trazado 656419" d="M108.25,24.957V0H0V24.957" transform="translate(-3705.043 -9880.25) rotate(90)" fill="none" stroke="#643eac" stroke-width="2"/>
    <path id="Icon_awesome-arrow-up-9" data-name="Icon awesome-arrow-up" d="M1.159,8.953.581,8.375a.622.622,0,0,1,0-.883L5.64,2.43a.622.622,0,0,1,.883,0l5.059,5.059a.622.622,0,0,1,0,.883L11,8.95a.626.626,0,0,1-.893-.01L7.124,5.8v7.483a.623.623,0,0,1-.625.625H5.666a.623.623,0,0,1-.625-.625V5.8L2.052,8.942a.621.621,0,0,1-.893.01Z" transform="translate(-3735.247 -9874.168) rotate(-90)" fill="#643eac"/>
    <path id="Trazado_656420" data-name="Trazado 656420" d="M115.29,24.957V0H0V24.957" transform="translate(-3705.043 -10022.136) rotate(90)" fill="none" stroke="#643eac" stroke-width="2"/>
    <path id="Icon_awesome-arrow-up-10" data-name="Icon awesome-arrow-up" d="M1.159,8.953.581,8.375a.622.622,0,0,1,0-.883L5.64,2.43a.622.622,0,0,1,.883,0l5.059,5.059a.622.622,0,0,1,0,.883L11,8.95a.626.626,0,0,1-.893-.01L7.124,5.8v7.483a.623.623,0,0,1-.625.625H5.666a.623.623,0,0,1-.625-.625V5.8L2.052,8.942a.621.621,0,0,1-.893.01Z" transform="translate(-3735.247 -10016.055) rotate(-90)" fill="#643eac"/>
    <path id="Trazado_656421" data-name="Trazado 656421" d="M158.778,24.957V0H0V24.957" transform="translate(-3705.043 -10254.624) rotate(90)" fill="none" stroke="#643eac" stroke-width="2"/>
    <path id="Icon_awesome-arrow-up-11" data-name="Icon awesome-arrow-up" d="M1.159,8.953.581,8.375a.622.622,0,0,1,0-.883L5.64,2.43a.622.622,0,0,1,.883,0l5.059,5.059a.622.622,0,0,1,0,.883L11,8.95a.626.626,0,0,1-.893-.01L7.124,5.8v7.483a.623.623,0,0,1-.625.625H5.666a.623.623,0,0,1-.625-.625V5.8L2.052,8.942a.621.621,0,0,1-.893.01Z" transform="translate(-3735.247 -10248.543) rotate(-90)" fill="#643eac"/>
    <path id="Trazado_656422" data-name="Trazado 656422" d="M158.778,24.957V0H0V24.957" transform="translate(-3705.043 -10498.624) rotate(90)" fill="none" stroke="#643eac" stroke-width="2"/>
    <path id="Icon_awesome-arrow-up-12" data-name="Icon awesome-arrow-up" d="M1.159,8.953.581,8.375a.622.622,0,0,1,0-.883L5.64,2.43a.622.622,0,0,1,.883,0l5.059,5.059a.622.622,0,0,1,0,.883L11,8.95a.626.626,0,0,1-.893-.01L7.124,5.8v7.483a.623.623,0,0,1-.625.625H5.666a.623.623,0,0,1-.625-.625V5.8L2.052,8.942a.621.621,0,0,1-.893.01Z" transform="translate(-3735.247 -10492.543) rotate(-90)" fill="#643eac"/>
    <path id="Trazado_656423" data-name="Trazado 656423" d="M99.605,24.957V0H0V24.957" transform="translate(-3705.043 -10608.692) rotate(90)" fill="none" stroke="#643eac" stroke-width="2"/>
    <path id="Icon_awesome-arrow-up-13" data-name="Icon awesome-arrow-up" d="M1.159,8.953.581,8.375a.622.622,0,0,1,0-.883L5.64,2.43a.622.622,0,0,1,.883,0l5.059,5.059a.622.622,0,0,1,0,.883L11,8.95a.626.626,0,0,1-.893-.01L7.124,5.8v7.483a.623.623,0,0,1-.625.625H5.666a.623.623,0,0,1-.625-.625V5.8L2.052,8.942a.621.621,0,0,1-.893.01Z" transform="translate(-3735.247 -10602.611) rotate(-90)" fill="#643eac"/>
  </g>
</svg>
