<svg xmlns="http://www.w3.org/2000/svg" xmlns:xlink="http://www.w3.org/1999/xlink" width="85" height="75" viewBox="0 0 85 75">
  <defs>
    <clipPath id="clip-path">
      <rect id="Rectángulo_351164" data-name="Rectángulo 351164" width="55.629" height="55.629" fill="none"/>
    </clipPath>
  </defs>
  <g id="Grupo_980559" data-name="Grupo 980559" transform="translate(-200 -5007)">
    <rect id="Rectángulo_351165" data-name="Rectángulo 351165" width="85" height="75" transform="translate(200 5007)" fill="none"/>
    <g id="Grupo_980548" data-name="Grupo 980548" transform="translate(215 5017)">
      <g id="Grupo_980547" data-name="Grupo 980547" transform="translate(0 0.001)" clip-path="url(#clip-path)">
        <path id="Trazado_656441" data-name="Trazado 656441" d="M50.256,31.4a1.676,1.676,0,0,1-.64-1.337L49.622,26a1.683,1.683,0,0,1,.643-1.338l4.346-3.4a1.08,1.08,0,0,0,.361-1.238L52.74,14.639a1.078,1.078,0,0,0-1.13-.62l-5.476.668a1.676,1.676,0,0,1-1.4-.493l-2.871-2.875a1.687,1.687,0,0,1-.491-1.4l.673-5.478a1.077,1.077,0,0,0-.619-1.13l-5.4-2.234a1.078,1.078,0,0,0-1.236.361L31.4,5.785a1.676,1.676,0,0,1-1.337.64L26,6.419a1.683,1.683,0,0,1-1.337-.643l-3.4-4.346a1.078,1.078,0,0,0-1.237-.36L14.638,3.3a1.079,1.079,0,0,0-.619,1.13l.668,5.475a1.679,1.679,0,0,1-.492,1.4l-2.876,2.87a1.683,1.683,0,0,1-1.4.491l-5.477-.673a1.078,1.078,0,0,0-1.13.619l-2.234,5.4a1.078,1.078,0,0,0,.361,1.237l4.347,3.4a1.676,1.676,0,0,1,.64,1.337L6.42,30.042a1.686,1.686,0,0,1-.643,1.338l-4.347,3.4a1.078,1.078,0,0,0-.361,1.237L3.3,41.4a1.079,1.079,0,0,0,1.13.62l5.475-.669a1.681,1.681,0,0,1,1.4.493l2.869,2.876a1.683,1.683,0,0,1,.491,1.4L13.995,51.6a1.078,1.078,0,0,0,.619,1.13l5.4,2.235a1.078,1.078,0,0,0,1.236-.361l3.4-4.346a1.677,1.677,0,0,1,1.337-.64l4.063,0a1.683,1.683,0,0,1,1.338.643l3.4,4.346a1.079,1.079,0,0,0,1.237.361L41.4,52.739a1.079,1.079,0,0,0,.619-1.13l-.668-5.475a1.674,1.674,0,0,1,.492-1.4l2.876-2.87a1.683,1.683,0,0,1,1.4-.491l5.477.672a1.078,1.078,0,0,0,1.13-.619l2.234-5.4A1.079,1.079,0,0,0,54.6,34.8ZM28.02,44.749A16.728,16.728,0,1,1,44.748,28.021,16.726,16.726,0,0,1,28.02,44.749" transform="translate(-0.206 -0.206)" fill="#f0bd51"/>
        <path id="Trazado_656442" data-name="Trazado 656442" d="M50.256,31.4a1.676,1.676,0,0,1-.64-1.337L49.622,26a1.683,1.683,0,0,1,.643-1.338l4.346-3.4a1.08,1.08,0,0,0,.361-1.238L52.74,14.639a1.078,1.078,0,0,0-1.13-.62l-5.476.668a1.676,1.676,0,0,1-1.4-.493l-2.871-2.875a1.687,1.687,0,0,1-.491-1.4l.673-5.478a1.077,1.077,0,0,0-.619-1.13l-5.4-2.234a1.078,1.078,0,0,0-1.236.361L31.4,5.785a1.676,1.676,0,0,1-1.337.64L26,6.419a1.683,1.683,0,0,1-1.337-.643l-3.4-4.346a1.078,1.078,0,0,0-1.237-.36L14.638,3.3a1.079,1.079,0,0,0-.619,1.13l.668,5.475a1.679,1.679,0,0,1-.492,1.4l-2.876,2.87a1.683,1.683,0,0,1-1.4.491l-5.477-.673a1.078,1.078,0,0,0-1.13.619l-2.234,5.4a1.078,1.078,0,0,0,.361,1.237l4.347,3.4a1.676,1.676,0,0,1,.64,1.337L6.42,30.042a1.686,1.686,0,0,1-.643,1.338l-4.347,3.4a1.078,1.078,0,0,0-.361,1.237L3.3,41.4a1.079,1.079,0,0,0,1.13.62l5.475-.669a1.681,1.681,0,0,1,1.4.493l2.869,2.876a1.683,1.683,0,0,1,.491,1.4L13.995,51.6a1.078,1.078,0,0,0,.619,1.13l5.4,2.235a1.078,1.078,0,0,0,1.236-.361l3.4-4.346a1.677,1.677,0,0,1,1.337-.64l4.063,0a1.683,1.683,0,0,1,1.338.643l3.4,4.346a1.079,1.079,0,0,0,1.237.361L41.4,52.739a1.079,1.079,0,0,0,.619-1.13l-.668-5.475a1.674,1.674,0,0,1,.492-1.4l2.876-2.87a1.683,1.683,0,0,1,1.4-.491l5.477.672a1.078,1.078,0,0,0,1.13-.619l2.234-5.4A1.079,1.079,0,0,0,54.6,34.8ZM28.02,44.749A16.728,16.728,0,1,1,44.748,28.021,16.726,16.726,0,0,1,28.02,44.749Z" transform="translate(-0.206 -0.206)" fill="none" stroke="#b2ccff" stroke-miterlimit="10" stroke-width="2"/>
        <path id="Trazado_656443" data-name="Trazado 656443" d="M50.256,31.4a1.676,1.676,0,0,1-.64-1.337L49.622,26a1.683,1.683,0,0,1,.643-1.338l4.346-3.4a1.08,1.08,0,0,0,.361-1.238L52.74,14.639a1.078,1.078,0,0,0-1.13-.62l-5.476.668a1.676,1.676,0,0,1-1.4-.493l-2.871-2.875a1.687,1.687,0,0,1-.491-1.4l.673-5.478a1.077,1.077,0,0,0-.619-1.13l-5.4-2.234a1.078,1.078,0,0,0-1.236.361L31.4,5.785a1.678,1.678,0,0,1-1.337.64L26,6.419a1.683,1.683,0,0,1-1.337-.643l-3.4-4.346a1.08,1.08,0,0,0-1.237-.361L14.638,3.3a1.079,1.079,0,0,0-.619,1.13l.668,5.475a1.677,1.677,0,0,1-.492,1.4l-2.876,2.871a1.683,1.683,0,0,1-1.4.491l-5.477-.673a1.078,1.078,0,0,0-1.13.619l-2.234,5.4a1.078,1.078,0,0,0,.361,1.237l4.347,3.4a1.676,1.676,0,0,1,.64,1.337L6.42,30.041a1.687,1.687,0,0,1-.643,1.338l-4.347,3.4a1.078,1.078,0,0,0-.361,1.237L3.3,41.4a1.079,1.079,0,0,0,1.13.62l5.475-.669a1.681,1.681,0,0,1,1.4.493l2.869,2.876a1.683,1.683,0,0,1,.491,1.4L13.995,51.6a1.079,1.079,0,0,0,.619,1.13l5.4,2.235a1.078,1.078,0,0,0,1.236-.361l3.4-4.346a1.677,1.677,0,0,1,1.337-.64l4.063,0a1.683,1.683,0,0,1,1.338.643l3.4,4.346a1.079,1.079,0,0,0,1.237.361L41.4,52.739a1.079,1.079,0,0,0,.619-1.13l-.668-5.475a1.674,1.674,0,0,1,.492-1.4l2.876-2.87a1.683,1.683,0,0,1,1.4-.491l5.477.672a1.078,1.078,0,0,0,1.13-.619l2.234-5.4A1.079,1.079,0,0,0,54.6,34.8ZM43.474,21.62a16.728,16.728,0,1,1-9.053-9.053" transform="translate(-0.206 -0.206)" fill="none" stroke="#15168c" stroke-linecap="round" stroke-linejoin="round" stroke-width="2"/>
        <path id="Trazado_656444" data-name="Trazado 656444" d="M32.435,21.129l-9.971,5.516v11.03l9.971,5.516,9.971-5.516V26.645Z" transform="translate(-4.62 -4.346)" fill="#fff"/>
        <path id="Trazado_656445" data-name="Trazado 656445" d="M32.435,21.129l-9.971,5.516v11.03l9.971,5.516,9.971-5.516V26.645Z" transform="translate(-4.62 -4.346)" fill="none" stroke="#15168c" stroke-linecap="round" stroke-linejoin="round" stroke-width="2"/>
        <path id="Trazado_656446" data-name="Trazado 656446" d="M27.272,30.732l6.151,3.4,6.151-3.4" transform="translate(-5.609 -6.321)" fill="none" stroke="#15168c" stroke-linecap="round" stroke-linejoin="round" stroke-width="2"/>
        <line id="Línea_737" data-name="Línea 737" y2="6.806" transform="translate(27.815 27.814)" fill="none" stroke="#15168c" stroke-linecap="round" stroke-linejoin="round" stroke-width="2"/>
      </g>
    </g>
  </g>
</svg>
