<svg xmlns="http://www.w3.org/2000/svg" xmlns:xlink="http://www.w3.org/1999/xlink" width="85" height="75" viewBox="0 0 85 75">
  <defs>
    <clipPath id="clip-path">
      <rect id="Rectángulo_351173" data-name="Rectángulo 351173" width="64.148" height="66.46" fill="none"/>
    </clipPath>
  </defs>
  <g id="Grupo_980566" data-name="Grupo 980566" transform="translate(-200 -5007)">
    <rect id="Rectángulo_351165" data-name="Rectángulo 351165" width="85" height="75" transform="translate(200 5007)" fill="none"/>
    <g id="Grupo_980568" data-name="Grupo 980568" transform="translate(211.426 5011.271)">
      <g id="Grupo_980567" data-name="Grupo 980567" clip-path="url(#clip-path)">
        <path id="Trazado_656488" data-name="Trazado 656488" d="M54.858,22.543a10.37,10.37,0,1,1,0,20.741Z" transform="translate(-2.043 -0.839)" fill="#f0bd51"/>
        <path id="Trazado_656489" data-name="Trazado 656489" d="M54.858,22.543a10.37,10.37,0,1,1,0,20.741Z" transform="translate(-2.043 -0.839)" fill="none" stroke="#15168c" stroke-linecap="round" stroke-linejoin="round" stroke-width="2"/>
        <path id="Trazado_656490" data-name="Trazado 656490" d="M11.37,22.543a10.37,10.37,0,0,0,0,20.741Z" transform="translate(-0.037 -0.839)" fill="#f0bd51"/>
        <path id="Trazado_656491" data-name="Trazado 656491" d="M11.37,22.543a10.37,10.37,0,0,0,0,20.741Z" transform="translate(-0.037 -0.839)" fill="none" stroke="#15168c" stroke-linecap="round" stroke-linejoin="round" stroke-width="2"/>
        <path id="Trazado_656492" data-name="Trazado 656492" d="M11.771,21.741a20.741,20.741,0,0,1,41.482,0" transform="translate(-0.438 -0.037)" fill="none" stroke="#15168c" stroke-linecap="round" stroke-linejoin="round" stroke-width="2"/>
        <path id="Trazado_656493" data-name="Trazado 656493" d="M38.571,59.767A15.681,15.681,0,0,0,54.252,44.086" transform="translate(-1.436 -1.642)" fill="none" stroke="#15168c" stroke-linecap="round" stroke-linejoin="round" stroke-width="2"/>
        <path id="Trazado_656494" data-name="Trazado 656494" d="M38.18,60.177a5.06,5.06,0,1,1-5.06-5.06,5.061,5.061,0,0,1,5.06,5.06" transform="translate(-1.045 -2.052)" fill="#fff"/>
        <path id="Trazado_656495" data-name="Trazado 656495" d="M38.18,60.177a5.06,5.06,0,1,1-5.06-5.06A5.061,5.061,0,0,1,38.18,60.177Z" transform="translate(-1.045 -2.052)" fill="none" stroke="#fff" stroke-linecap="round" stroke-linejoin="round" stroke-width="6.8"/>
        <path id="Trazado_656496" data-name="Trazado 656496" d="M38.18,60.177a5.06,5.06,0,1,1-5.06-5.06,5.061,5.061,0,0,1,5.06,5.06" transform="translate(-1.045 -2.052)" fill="#b2ccff"/>
        <path id="Trazado_656497" data-name="Trazado 656497" d="M38.18,60.177a5.06,5.06,0,1,1-5.06-5.06A5.061,5.061,0,0,1,38.18,60.177Z" transform="translate(-1.045 -2.052)" fill="none" stroke="#15168c" stroke-linecap="round" stroke-linejoin="round" stroke-width="2"/>
        <path id="Trazado_656498" data-name="Trazado 656498" d="M17.21,21.943a15.5,15.5,0,0,1,31.009,0Z" transform="translate(-0.641 -0.24)" fill="#f0bd51"/>
        <path id="Trazado_656499" data-name="Trazado 656499" d="M17.21,21.943a15.5,15.5,0,0,1,31.009,0Z" transform="translate(-0.641 -0.24)" fill="none" stroke="#b2ccff" stroke-linecap="round" stroke-linejoin="round" stroke-width="2"/>
        <path id="Trazado_656500" data-name="Trazado 656500" d="M17.21,21.943a15.5,15.5,0,0,1,31.009,0" transform="translate(-0.641 -0.24)" fill="none" stroke="#15168c" stroke-linecap="round" stroke-linejoin="round" stroke-width="2"/>
        <path id="Trazado_656501" data-name="Trazado 656501" d="M42.243,40.854a10.085,10.085,0,0,1-18.574,0" transform="translate(-0.881 -1.521)" fill="none" stroke="#15168c" stroke-linecap="round" stroke-linejoin="round" stroke-width="2"/>
        <line id="Línea_742" data-name="Línea 742" x2="3.991" transform="translate(38.333 28.757)" fill="none" stroke="#15168c" stroke-linecap="round" stroke-linejoin="round" stroke-width="2"/>
        <line id="Línea_743" data-name="Línea 743" x1="3.992" transform="translate(21.824 28.757)" fill="none" stroke="#15168c" stroke-linecap="round" stroke-linejoin="round" stroke-width="2"/>
      </g>
    </g>
  </g>
</svg>
