<svg xmlns="http://www.w3.org/2000/svg" xmlns:xlink="http://www.w3.org/1999/xlink" width="85" height="75" viewBox="0 0 85 75">
  <defs>
    <clipPath id="clip-path">
      <rect id="Rectángulo_351162" data-name="Rectángulo 351162" width="64.085" height="62.724" fill="none"/>
    </clipPath>
    <clipPath id="clip-path-2">
      <path id="Trazado_656433" data-name="Trazado 656433" d="M10.249,43.418h0Z" transform="translate(-10.249 -43.418)" fill="none"/>
    </clipPath>
    <clipPath id="clip-path-3">
      <path id="Trazado_656434" data-name="Trazado 656434" d="M7.166,37.472h0Z" transform="translate(-7.166 -37.472)" fill="none"/>
    </clipPath>
    <clipPath id="clip-path-4">
      <path id="Trazado_656435" data-name="Trazado 656435" d="M4.082,30.5h0Z" transform="translate(-4.082 -30.503)" fill="none"/>
    </clipPath>
    <clipPath id="clip-path-5">
      <path id="Trazado_656436" data-name="Trazado 656436" d="M1,23.533H1Z" transform="translate(-1 -23.533)" fill="none"/>
    </clipPath>
  </defs>
  <g id="Grupo_980580" data-name="Grupo 980580" transform="translate(-830 -5866)">
    <g id="Grupo_980546" data-name="Grupo 980546" transform="translate(841.462 5872.276)">
      <g id="Grupo_980535" data-name="Grupo 980535" transform="translate(0 0)">
        <g id="Grupo_980534" data-name="Grupo 980534" clip-path="url(#clip-path)">
          <path id="Trazado_656424" data-name="Trazado 656424" d="M65.711,42.392a13.794,13.794,0,0,0-1.9-5.117L55.434,25.256a4.684,4.684,0,0,0-3.627-1.723h-4.8V42.392Z" transform="translate(-2.756 -1.38)" fill="#e2d9ff"/>
          <path id="Trazado_656425" data-name="Trazado 656425" d="M65.711,42.392a13.794,13.794,0,0,0-1.9-5.117L55.434,25.256a4.684,4.684,0,0,0-3.627-1.723h-4.8V42.392Z" transform="translate(-2.756 -1.38)" fill="none" stroke="#fff" stroke-linecap="round" stroke-linejoin="round" stroke-width="2"/>
          <path id="Trazado_656426" data-name="Trazado 656426" d="M44.857,42.392V23.533H10.248V55.158A2.332,2.332,0,0,0,12.58,57.49H61.414a2.33,2.33,0,0,0,2.331-2.331V44.57a13.792,13.792,0,0,0-.188-2.178Z" transform="translate(-0.601 -1.38)" fill="none"/>
          <path id="Trazado_656427" data-name="Trazado 656427" d="M44.857,42.392V23.533H10.248V55.158A2.332,2.332,0,0,0,12.58,57.49H61.414a2.33,2.33,0,0,0,2.331-2.331V44.57a13.792,13.792,0,0,0-.188-2.178Z" transform="translate(-0.601 -1.38)" fill="none" stroke="#fff" stroke-linecap="round" stroke-linejoin="round" stroke-width="2"/>
          <path id="Trazado_656428" data-name="Trazado 656428" d="M59.906,42.707H47.012V28.9" transform="translate(-2.756 -1.694)" fill="none" stroke="#15168c" stroke-linecap="round" stroke-linejoin="round" stroke-width="2"/>
          <path id="Trazado_656429" data-name="Trazado 656429" d="M13.511,58.656h-.932a2.331,2.331,0,0,1-2.331-2.331V43.419" transform="translate(-0.601 -2.545)" fill="none" stroke="#15168c" stroke-linecap="square" stroke-linejoin="round" stroke-width="2"/>
          <line id="Línea_728" data-name="Línea 728" x1="6.475" transform="translate(32.911 56.11)" fill="none" stroke="#15168c" stroke-linecap="square" stroke-linejoin="round" stroke-width="2"/>
          <path id="Trazado_656430" data-name="Trazado 656430" d="M17.223,23.533H50.06a4.686,4.686,0,0,1,3.628,1.723l8.378,12.019a13.8,13.8,0,0,1,2.087,7.3V55.158a2.332,2.332,0,0,1-2.331,2.332H60.4" transform="translate(-1.01 -1.38)" fill="none" stroke="#15168c" stroke-linecap="square" stroke-linejoin="round" stroke-width="2"/>
          <path id="Trazado_656431" data-name="Trazado 656431" d="M29.656,59.252a5.672,5.672,0,1,1-5.672-5.672,5.672,5.672,0,0,1,5.672,5.672" transform="translate(-1.074 -3.141)" fill="#583cb6"/>
          <circle id="Elipse_8829" data-name="Elipse 8829" cx="5.672" cy="5.672" r="5.672" transform="translate(17.238 50.439)" fill="none" stroke="#15168c" stroke-linecap="round" stroke-linejoin="round" stroke-width="2"/>
          <path id="Trazado_656432" data-name="Trazado 656432" d="M57.781,59.252a5.672,5.672,0,1,1-5.672-5.672,5.672,5.672,0,0,1,5.672,5.672" transform="translate(-2.722 -3.141)" fill="#583cb6"/>
          <circle id="Elipse_8830" data-name="Elipse 8830" cx="5.672" cy="5.672" r="5.672" transform="translate(43.715 50.439)" fill="none" stroke="#15168c" stroke-linecap="round" stroke-linejoin="round" stroke-width="2"/>
        </g>
      </g>
      <g id="Grupo_980537" data-name="Grupo 980537" transform="translate(9.648 40.873)">
        <g id="Grupo_980536" data-name="Grupo 980536" clip-path="url(#clip-path-2)">
          <line id="Línea_729" data-name="Línea 729" x2="5.441" transform="translate(-0.001 0.001)" fill="#fff"/>
        </g>
      </g>
      <g id="Grupo_980539" data-name="Grupo 980539" transform="translate(6.746 35.275)">
        <g id="Grupo_980538" data-name="Grupo 980538" clip-path="url(#clip-path-3)">
          <line id="Línea_730" data-name="Línea 730" x2="7.307" transform="translate(-0.001 0)" fill="#fff"/>
        </g>
      </g>
      <g id="Grupo_980541" data-name="Grupo 980541" transform="translate(3.843 28.715)">
        <g id="Grupo_980540" data-name="Grupo 980540" clip-path="url(#clip-path-4)">
          <line id="Línea_731" data-name="Línea 731" x2="9.171" transform="translate(0.001 -0.001)" fill="#fff"/>
        </g>
      </g>
      <g id="Grupo_980543" data-name="Grupo 980543" transform="translate(0.941 22.153)">
        <g id="Grupo_980542" data-name="Grupo 980542" clip-path="url(#clip-path-5)">
          <line id="Línea_732" data-name="Línea 732" x2="11.038" transform="translate(0 0)" fill="#fff"/>
        </g>
      </g>
      <g id="Grupo_980545" data-name="Grupo 980545" transform="translate(0 0)">
        <g id="Grupo_980544" data-name="Grupo 980544" clip-path="url(#clip-path)">
          <line id="Línea_733" data-name="Línea 733" x2="9.602" transform="translate(9.647 40.873)" fill="none" stroke="#15168c" stroke-linecap="round" stroke-linejoin="round" stroke-width="2"/>
          <line id="Línea_734" data-name="Línea 734" x2="11.492" transform="translate(6.745 34.634)" fill="none" stroke="#15168c" stroke-linecap="round" stroke-linejoin="round" stroke-width="2"/>
          <line id="Línea_735" data-name="Línea 735" x2="13.383" transform="translate(3.843 28.394)" fill="none" stroke="#15168c" stroke-linecap="round" stroke-linejoin="round" stroke-width="2"/>
          <line id="Línea_736" data-name="Línea 736" x2="15.272" transform="translate(0.941 22.154)" fill="none" stroke="#15168c" stroke-linecap="round" stroke-linejoin="round" stroke-width="2"/>
          <path id="Trazado_656437" data-name="Trazado 656437" d="M44.751,13.491a12.491,12.491,0,1,0-23.3,6.241l-.008,0,8.773,15.195a2.361,2.361,0,0,0,4.089,0l8.773-15.195-.008-.006a12.411,12.411,0,0,0,1.682-6.24m-12.491,6.1a6.095,6.095,0,1,1,6.094-6.094,6.094,6.094,0,0,1-6.094,6.094" transform="translate(-1.159 -0.059)" fill="#f0bd51"/>
          <path id="Trazado_656438" data-name="Trazado 656438" d="M44.751,13.491a12.491,12.491,0,1,0-23.3,6.241l-.008,0,8.773,15.195a2.361,2.361,0,0,0,4.089,0l8.773-15.195-.008-.006A12.411,12.411,0,0,0,44.751,13.491Zm-12.491,6.1a6.095,6.095,0,1,1,6.094-6.094A6.094,6.094,0,0,1,32.26,19.586Z" transform="translate(-1.159 -0.059)" fill="none" stroke="#b2ccff" stroke-linecap="round" stroke-linejoin="round" stroke-width="2"/>
          <path id="Trazado_656439" data-name="Trazado 656439" d="M38.753,13.889A6.094,6.094,0,1,1,32.659,7.8" transform="translate(-1.557 -0.457)" fill="none" stroke="#15168c" stroke-linecap="round" stroke-linejoin="round" stroke-width="2"/>
          <path id="Trazado_656440" data-name="Trazado 656440" d="M44.751,13.491a12.491,12.491,0,1,0-23.3,6.241l-.008,0,8.773,15.2a2.361,2.361,0,0,0,4.089,0l8.773-15.2-.008,0A12.411,12.411,0,0,0,44.751,13.491Z" transform="translate(-1.159 -0.059)" fill="none" stroke="#15168c" stroke-linecap="round" stroke-linejoin="round" stroke-width="2"/>
        </g>
      </g>
    </g>
    <g id="Grupo_980550" data-name="Grupo 980550" transform="translate(630 859)">
      <rect id="Rectángulo_351165" data-name="Rectángulo 351165" width="85" height="75" transform="translate(200 5007)" fill="none"/>
    </g>
  </g>
</svg>
