<svg xmlns="http://www.w3.org/2000/svg" width="148" height="148" viewBox="0 0 148 148">
  <g id="Grupo_969349" data-name="Grupo 969349" transform="translate(-379 -9221)">
    <circle id="Elipse_7765" data-name="Elipse 7765" cx="74" cy="74" r="74" transform="translate(379 9221)" fill="#583cb6"/>
    <g id="presupuesto_2_" data-name="presupuesto (2)" transform="translate(411.45 9254)">
      <path id="Trazado_641777" data-name="Trazado 641777" d="M153.8,21.827V69.865c0,.1,0,.192-.006.288a6.2,6.2,0,0,1-6.2,5.913H112.725a6.2,6.2,0,0,1-6.2-6.2V14.246a6.193,6.193,0,0,1,6.2-6.2h27.7a6.182,6.182,0,0,1,2.694.617c1.676.806,2.147,1.826,5.159,4.9,3.464,3.762,4.291,4.147,5,5.776A6.134,6.134,0,0,1,153.8,21.827Z" transform="translate(-89.124 -6.765)" fill="#ffc477"/>
      <path id="Trazado_641778" data-name="Trazado 641778" d="M179.162,21.826V69.865c0,.1,0,.192-.006.288a6.222,6.222,0,0,1-1.4.158H142.887a6.2,6.2,0,0,1-6.2-6.2V8.491c0-.1,0-.194.006-.289a6.23,6.23,0,0,1,1.4-.158h27.7a6.212,6.212,0,0,1,4.532,1.97l3.32,3.552,3.8,3.977a6.242,6.242,0,0,1,1.72,4.284Z" transform="translate(-114.49 -6.764)" fill="#ffdaaa"/>
      <path id="Trazado_641779" data-name="Trazado 641779" d="M290.72,183.661v34.871a8.765,8.765,0,0,1-8.765,8.765H259.179a8.765,8.765,0,0,1-8.765-8.765V183.661a8.761,8.761,0,0,1,8.765-8.765h22.777A8.764,8.764,0,0,1,290.72,183.661Z" transform="translate(-210.136 -147.087)" fill="#4cba68"/>
      <path id="Trazado_641780" data-name="Trazado 641780" d="M309.888,183.661v34.871a8.719,8.719,0,0,1-1.7,5.184,8.728,8.728,0,0,1-3.443.7H281.971a8.765,8.765,0,0,1-8.765-8.765V180.784a8.719,8.719,0,0,1,1.7-5.184,8.728,8.728,0,0,1,3.443-.7h22.777A8.764,8.764,0,0,1,309.888,183.661Z" transform="translate(-229.304 -147.087)" fill="#7ccc92"/>
      <path id="Trazado_641781" data-name="Trazado 641781" d="M362.756,367.28v4.1a1.31,1.31,0,0,1-1.309,1.311h-4.1a1.311,1.311,0,0,1-1.311-1.311v-4.1a1.311,1.311,0,0,1,1.311-1.311h4.1A1.31,1.31,0,0,1,362.756,367.28Z" transform="translate(-298.966 -307.779)" fill="#2c733f"/>
      <path id="Trazado_641782" data-name="Trazado 641782" d="M316.557,209.9v4.388a2.826,2.826,0,0,1-2.826,2.826H291.123a2.827,2.827,0,0,1-2.826-2.826V209.9a2.827,2.827,0,0,1,2.826-2.826H313.73A2.826,2.826,0,0,1,316.557,209.9Z" transform="translate(-241.995 -174.152)" fill="#1e81ce"/>
      <path id="Trazado_641783" data-name="Trazado 641783" d="M341.922,209.9v4.388a2.826,2.826,0,0,1-2.826,2.826H321.284a2.827,2.827,0,0,1-2.826-2.826V209.9a2.827,2.827,0,0,1,2.826-2.826H339.1A2.826,2.826,0,0,1,341.922,209.9Z" transform="translate(-267.361 -174.152)" fill="#3d9ae2"/>
      <g id="Grupo_968150" data-name="Grupo 968150" transform="translate(46.302 47.479)">
        <path id="Trazado_641784" data-name="Trazado 641784" d="M295.016,367.28v4.1a1.311,1.311,0,0,1-1.311,1.311h-4.1a1.312,1.312,0,0,1-1.311-1.311v-4.1a1.312,1.312,0,0,1,1.311-1.311h4.1A1.311,1.311,0,0,1,295.016,367.28Z" transform="translate(-288.297 -355.259)" fill="#2c733f"/>
        <path id="Trazado_641785" data-name="Trazado 641785" d="M362.756,299.919v4.1a1.31,1.31,0,0,1-1.309,1.311h-4.1a1.311,1.311,0,0,1-1.311-1.311v-4.1a1.311,1.311,0,0,1,1.311-1.311h4.1A1.31,1.31,0,0,1,362.756,299.919Z" transform="translate(-345.268 -298.608)" fill="#2c733f"/>
      </g>
      <path id="Trazado_641786" data-name="Trazado 641786" d="M431.313,299.919v4.1A1.311,1.311,0,0,1,430,305.325h-4.1a1.311,1.311,0,0,1-1.311-1.311v-4.1a1.311,1.311,0,0,1,1.311-1.311H430A1.311,1.311,0,0,1,431.313,299.919Z" transform="translate(-356.623 -251.129)" fill="#ee8700"/>
      <g id="Grupo_968151" data-name="Grupo 968151" transform="translate(46.302 47.479)">
        <path id="Trazado_641787" data-name="Trazado 641787" d="M295.016,299.919v4.1a1.311,1.311,0,0,1-1.311,1.311h-4.1a1.312,1.312,0,0,1-1.311-1.311v-4.1a1.312,1.312,0,0,1,1.311-1.311h4.1A1.311,1.311,0,0,1,295.016,299.919Z" transform="translate(-288.297 -298.608)" fill="#2c733f"/>
        <path id="Trazado_641788" data-name="Trazado 641788" d="M362.756,431.34v4.1a1.31,1.31,0,0,1-1.309,1.311h-4.1a1.311,1.311,0,0,1-1.311-1.311v-4.1a1.31,1.31,0,0,1,1.311-1.309h4.1A1.31,1.31,0,0,1,362.756,431.34Z" transform="translate(-345.268 -409.135)" fill="#2c733f"/>
        <path id="Trazado_641789" data-name="Trazado 641789" d="M295.016,431.34v4.1a1.311,1.311,0,0,1-1.311,1.311h-4.1a1.312,1.312,0,0,1-1.311-1.311v-4.1a1.311,1.311,0,0,1,1.311-1.309h4.1A1.31,1.31,0,0,1,295.016,431.34Z" transform="translate(-288.297 -409.135)" fill="#2c733f"/>
      </g>
      <path id="Trazado_641790" data-name="Trazado 641790" d="M431.313,367.915v12.72a2.235,2.235,0,0,1-2.235,2.236h-2.248a2.235,2.235,0,0,1-2.235-2.236v-12.72a1.948,1.948,0,0,1,1.947-1.947h2.823A1.947,1.947,0,0,1,431.313,367.915Z" transform="translate(-356.623 -307.778)" fill="#ee8700"/>
      <g id="Grupo_968152" data-name="Grupo 968152" transform="translate(46.302 47.479)">
        <path id="Trazado_641791" data-name="Trazado 641791" d="M362.756,367.28V368.5a1.31,1.31,0,0,1-1.309,1.311h-4.1a1.311,1.311,0,0,1-1.311-1.311V367.28a1.311,1.311,0,0,1,1.311-1.311h4.1A1.31,1.31,0,0,1,362.756,367.28Z" transform="translate(-345.268 -355.259)" fill="#317f46"/>
        <path id="Trazado_641792" data-name="Trazado 641792" d="M295.016,367.28V368.5a1.311,1.311,0,0,1-1.311,1.311h-4.1A1.312,1.312,0,0,1,288.3,368.5V367.28a1.312,1.312,0,0,1,1.311-1.311h4.1A1.311,1.311,0,0,1,295.016,367.28Z" transform="translate(-288.297 -355.259)" fill="#317f46"/>
        <path id="Trazado_641793" data-name="Trazado 641793" d="M362.756,299.919v1.218a1.31,1.31,0,0,1-1.309,1.311h-4.1a1.311,1.311,0,0,1-1.311-1.311v-1.218a1.311,1.311,0,0,1,1.311-1.311h4.1A1.31,1.31,0,0,1,362.756,299.919Z" transform="translate(-345.268 -298.608)" fill="#317f46"/>
      </g>
      <path id="Trazado_641794" data-name="Trazado 641794" d="M431.313,299.919v1.218A1.311,1.311,0,0,1,430,302.448h-4.1a1.311,1.311,0,0,1-1.311-1.311v-1.218a1.311,1.311,0,0,1,1.311-1.311H430A1.311,1.311,0,0,1,431.313,299.919Z" transform="translate(-356.623 -251.129)" fill="#ff9811"/>
      <g id="Grupo_968153" data-name="Grupo 968153" transform="translate(46.302 47.479)">
        <path id="Trazado_641795" data-name="Trazado 641795" d="M295.016,299.919v1.218a1.311,1.311,0,0,1-1.311,1.311h-4.1a1.312,1.312,0,0,1-1.311-1.311v-1.218a1.312,1.312,0,0,1,1.311-1.311h4.1A1.311,1.311,0,0,1,295.016,299.919Z" transform="translate(-288.297 -298.608)" fill="#317f46"/>
        <path id="Trazado_641796" data-name="Trazado 641796" d="M362.756,431.34v1.22a1.31,1.31,0,0,1-1.309,1.311h-4.1a1.311,1.311,0,0,1-1.311-1.311v-1.22a1.31,1.31,0,0,1,1.311-1.309h4.1A1.31,1.31,0,0,1,362.756,431.34Z" transform="translate(-345.268 -409.135)" fill="#317f46"/>
        <path id="Trazado_641797" data-name="Trazado 641797" d="M295.016,431.34v1.22a1.311,1.311,0,0,1-1.311,1.311h-4.1a1.312,1.312,0,0,1-1.311-1.311v-1.22a1.311,1.311,0,0,1,1.311-1.309h4.1A1.31,1.31,0,0,1,295.016,431.34Z" transform="translate(-288.297 -409.135)" fill="#317f46"/>
      </g>
      <path id="Trazado_641798" data-name="Trazado 641798" d="M431.313,367.915v9.842a2.235,2.235,0,0,1-2.235,2.236h-2.248a2.235,2.235,0,0,1-2.235-2.236v-9.842a1.948,1.948,0,0,1,1.947-1.947h2.823A1.947,1.947,0,0,1,431.313,367.915Z" transform="translate(-356.623 -307.778)" fill="#ff9811"/>
      <path id="Trazado_641799" data-name="Trazado 641799" d="M346.818,22.6h-7.772a2.384,2.384,0,0,1-2.384-2.384v-8.3a6.2,6.2,0,0,1,1.838,1.352l3.321,3.552,3.8,3.978A6.141,6.141,0,0,1,346.818,22.6Z" transform="translate(-282.669 -10.028)" fill="#ffb655"/>
      <path id="Trazado_641800" data-name="Trazado 641800" d="M94.138,464.688a3.046,3.046,0,0,1-3.037,3.037H72.493a3.037,3.037,0,0,1,0-6.074H91.1A3.046,3.046,0,0,1,94.138,464.688Z" transform="translate(-57.951 -388.248)" fill="#aa6100"/>
      <path id="Trazado_641801" data-name="Trazado 641801" d="M94.138,426.483a3.045,3.045,0,0,1-3.037,3.037H72.493a3.037,3.037,0,0,1,0-6.074H91.1A3.046,3.046,0,0,1,94.138,426.483Z" transform="translate(-57.951 -356.117)" fill="#cc7400"/>
      <path id="Trazado_641802" data-name="Trazado 641802" d="M94.138,388.279a3.046,3.046,0,0,1-3.037,3.037H72.493a3.037,3.037,0,0,1,0-6.074H91.1A3.046,3.046,0,0,1,94.138,388.279Z" transform="translate(-57.951 -323.988)" fill="#ee8700"/>
      <path id="Trazado_641803" data-name="Trazado 641803" d="M94.138,350.073a3.046,3.046,0,0,1-3.037,3.037H72.493a3.046,3.046,0,0,1-3.037-3.037,3.046,3.046,0,0,1,3.037-3.037H91.1A3.046,3.046,0,0,1,94.138,350.073Z" transform="translate(-57.951 -291.857)" fill="#ff9811"/>
      <path id="Trazado_641804" data-name="Trazado 641804" d="M91.1,314.909H72.493a3.046,3.046,0,0,1-3.037-3.037h0a3.046,3.046,0,0,1,3.037-3.037H91.1a3.046,3.046,0,0,1,3.037,3.037h0A3.046,3.046,0,0,1,91.1,314.909Z" transform="translate(-57.951 -259.729)" fill="#ffa733"/>
      <path id="Trazado_641805" data-name="Trazado 641805" d="M32.292,387.092a9.882,9.882,0,0,0-10.3-9.464H18.12a9.9,9.9,0,0,0,.846,19.773h3.026v0c.276.011.555.014.836,0a10.054,10.054,0,0,0,1.838-.251,9.9,9.9,0,0,0,7.627-9.276v-.011C32.3,387.606,32.3,387.35,32.292,387.092Z" transform="translate(-6.79 -317.577)" fill="#cc7400"/>
      <path id="Trazado_641806" data-name="Trazado 641806" d="M76.814,389.237v.011a9.9,9.9,0,0,1-7.627,9.276,9.9,9.9,0,0,1-7.617-9.211c0-.022,0-.043,0-.066v-.011a9.9,9.9,0,0,1,7.625-9.981,9.9,9.9,0,0,1,7.62,9.213C76.823,388.726,76.823,388.982,76.814,389.237Z" transform="translate(-51.31 -318.953)" fill="#ee8700"/>
      <path id="Trazado_641807" data-name="Trazado 641807" d="M71.819,26.61H65.951V15.062a7.5,7.5,0,0,0-2.073-5.168L60.086,5.926C56.868,2.61,56.462,1.674,54.545.743A7.5,7.5,0,0,0,51.3,0H23.6A7.49,7.49,0,0,0,16.12,7.481V47.826H14.543A4.313,4.313,0,0,0,11.48,55.18a4.3,4.3,0,0,0-1.253,3.037,4.428,4.428,0,0,0,.085.854,10.88,10.88,0,0,0,1.555,21.694l21.283-.008A4.313,4.313,0,0,0,36.213,73.4,4.293,4.293,0,0,0,37.46,70.58h1.619v.865a9.975,9.975,0,0,0,9.964,9.964H71.819a9.975,9.975,0,0,0,9.964-9.964V36.574A9.975,9.975,0,0,0,71.819,26.61ZM55.271,4.522c5.023,5.309,6.154,6.506,6.367,6.732,0,0,0,0,0,0h0a.035.035,0,0,0,.006.008l0,0a.027.027,0,0,0,.01.01.022.022,0,0,1,0,.006s0,0,0,0,0,0,0,0,0,0,.006.006H55.271V4.522ZM14.543,50.384H33.15a1.758,1.758,0,1,1,0,3.517H14.543a1.758,1.758,0,1,1,0-3.517Zm0,6.075H33.15a1.758,1.758,0,1,1,0,3.517H20.3a10.416,10.416,0,0,0-1.619-.585,10.781,10.781,0,0,0-2.558-.376c-.251-.006-.5,0-.753.006H12.981a1.729,1.729,0,0,1-.2-.8A1.762,1.762,0,0,1,14.543,56.458Zm20.366,7.833A1.76,1.76,0,0,1,33.15,66.05H25.993a10.758,10.758,0,0,0-2.171-3.517H33.15A1.762,1.762,0,0,1,34.908,64.291ZM8.321,62a11.035,11.035,0,0,0-2.014,2.583H4.817A8.446,8.446,0,0,1,8.321,62ZM3.456,66.977H5.319a11.04,11.04,0,0,0-.349,1.917H3A8.4,8.4,0,0,1,3.456,66.977Zm.206,6.338a8.389,8.389,0,0,1-.6-2.024H5.015a9.65,9.65,0,0,0,.457,2.024Zm1.6,2.4c.785,0,1.241,0,1.348,0a10.8,10.8,0,0,0,1.72,2.081A8.448,8.448,0,0,1,5.258,75.713ZM16.17,78.368a8.483,8.483,0,1,1,5.374-14.725A8.476,8.476,0,0,1,16.17,78.368ZM33.15,78.2H22.828a10.955,10.955,0,0,0,2.748-3.517H33.15a1.758,1.758,0,1,1,0,3.517Zm1.744-7.619a1.759,1.759,0,0,1-1.744,1.544H26.458a10.987,10.987,0,0,0,.155-3.517H33.15A1.76,1.76,0,0,1,34.894,70.58Zm4.185-2.558H36.771a4.243,4.243,0,0,0-.558-.694,4.307,4.307,0,0,0,0-6.075,4.307,4.307,0,0,0,0-6.075,4.32,4.32,0,0,0-3.063-7.353H18.678V7.481A4.93,4.93,0,0,1,23.6,2.558H52.713V12.576a1.278,1.278,0,0,0,1.279,1.279h9.249c.267,1.036.1.694.152,12.755H49.043a9.975,9.975,0,0,0-9.964,9.964V68.022Zm40.306,3.423a7.574,7.574,0,0,1-7.566,7.566H49.043a7.575,7.575,0,0,1-7.566-7.566V36.574a7.575,7.575,0,0,1,7.566-7.566H71.82a7.574,7.574,0,0,1,7.566,7.566V71.445Z" transform="translate(0)"/>
      <path id="Trazado_641808" data-name="Trazado 641808" d="M289.132,209.579h-4.35a1.632,1.632,0,0,1-1.627-1.627v-4.388a1.632,1.632,0,0,1,1.627-1.627h22.607a1.629,1.629,0,0,1,1.627,1.627v4.388a1.629,1.629,0,0,1-1.627,1.627H294.3a1.2,1.2,0,1,0,0,2.4h13.087a4.03,4.03,0,0,0,4.025-4.025v-4.388a4.03,4.03,0,0,0-4.025-4.025H284.782a4.025,4.025,0,0,0-4.025,4.025v4.388a4.025,4.025,0,0,0,4.025,4.025h4.35a1.2,1.2,0,1,0,0-2.4Z" transform="translate(-235.654 -167.811)"/>
      <path id="Trazado_641809" data-name="Trazado 641809" d="M283.267,367.544h4.1a2.512,2.512,0,0,0,2.51-2.51v-4.1a2.512,2.512,0,0,0-2.51-2.51h-4.1a2.513,2.513,0,0,0-2.51,2.51v4.1A2.513,2.513,0,0,0,283.267,367.544Zm-.112-6.605a.112.112,0,0,1,.112-.112h4.1a.112.112,0,0,1,.112.112v4.1a.112.112,0,0,1-.112.112h-4.1a.112.112,0,0,1-.112-.112Z" transform="translate(-235.654 -301.438)"/>
      <path id="Trazado_641810" data-name="Trazado 641810" d="M423.661,291.068h-4.1a2.512,2.512,0,0,0-2.51,2.51v4.1a2.512,2.512,0,0,0,2.51,2.51h4.1a2.512,2.512,0,0,0,2.51-2.51v-4.1A2.512,2.512,0,0,0,423.661,291.068Zm.112,6.605a.111.111,0,0,1-.112.112h-4.1a.112.112,0,0,1-.112-.112c.05-4.052-.1-4.207.112-4.207h4.1a.111.111,0,0,1,.112.112Z" transform="translate(-350.282 -244.788)"/>
      <path id="Trazado_641811" data-name="Trazado 641811" d="M283.267,300.183h4.1a2.512,2.512,0,0,0,2.51-2.51v-4.1a2.512,2.512,0,0,0-2.51-2.51h-4.1a2.513,2.513,0,0,0-2.51,2.51v4.1A2.513,2.513,0,0,0,283.267,300.183Zm-.112-6.605a.112.112,0,0,1,.112-.112h4.1a.112.112,0,0,1,.112.112v4.1a.112.112,0,0,1-.112.112h-4.1a.112.112,0,0,1-.112-.112Z" transform="translate(-235.654 -244.788)"/>
      <path id="Trazado_641812" data-name="Trazado 641812" d="M289.22,423.337a2.509,2.509,0,0,0-1.878-.846h-4.1a2.5,2.5,0,0,0-1.877.846,3.429,3.429,0,0,0-.633,2.558v3.2a2.513,2.513,0,0,0,2.51,2.51h4.1a2.512,2.512,0,0,0,2.51-2.51v-3.2A3.458,3.458,0,0,0,289.22,423.337Zm-1.878,5.872c-4.048-.05-4.209.1-4.209-.112,0-4.337-.048-4.207.112-4.207h4.1c.2,0,.075.273.112,1.006C287.453,425.894,287.557,429.208,287.341,429.208Z" transform="translate(-235.632 -355.314)"/>
      <path id="Trazado_641813" data-name="Trazado 641813" d="M423.024,358.428H420.2a3.15,3.15,0,0,0-3.146,3.146v12.72a3.439,3.439,0,0,0,3.434,3.435h2.248a3.438,3.438,0,0,0,3.434-3.435v-12.72A3.149,3.149,0,0,0,423.024,358.428Zm.748,15.866a1.037,1.037,0,0,1-1.036,1.038h-2.248a1.038,1.038,0,0,1-1.036-1.038v-12.72a.749.749,0,0,1,.748-.748h2.823a.749.749,0,0,1,.748.748v12.72Z" transform="translate(-350.281 -301.437)"/>
      <path id="Trazado_641814" data-name="Trazado 641814" d="M167.786,175.515h0c-1.462-.537-2.518-.925-2.518-2.279,0-1.234.82-1.86,2.436-1.86,1.716,0,2.178.755,2.783.755a1.151,1.151,0,0,0,1.022-1.181c0-1-1.629-1.494-3.086-1.625v-.9a1.136,1.136,0,1,0-2.272,0v1.044a3.716,3.716,0,0,0-3.086,3.886c0,2.79,2.054,3.562,3.705,4.183,1.616.607,2.893,1.087,2.893,2.933,0,1.524-.846,2.3-2.516,2.3-2.444,0-2.466-1.65-3.4-1.65a1.2,1.2,0,0,0-1.042,1.181c0,.945,1.407,2.187,3.444,2.509v.87a1.136,1.136,0,0,0,2.272,0v-.894a4.1,4.1,0,0,0,3.444-4.433C171.866,177.014,169.6,176.183,167.786,175.515Z" transform="translate(-136.375 -140.689)"/>
      <path id="Trazado_641815" data-name="Trazado 641815" d="M355.085,422.491h-4.1a2.508,2.508,0,0,0-1.878.846,3.443,3.443,0,0,0-.631,2.558v3.2a2.512,2.512,0,0,0,2.51,2.51h4.1a2.512,2.512,0,0,0,2.508-2.51V425a2.512,2.512,0,0,0-2.508-2.508Zm0,6.717c-4.048-.05-4.209.1-4.209-.112V425a.112.112,0,0,1,.112-.11h4.1a.111.111,0,0,1,.11.11C355.147,429.056,355.3,429.208,355.085,429.208Z" transform="translate(-292.604 -355.314)"/>
      <path id="Trazado_641816" data-name="Trazado 641816" d="M355.106,291.068h-4.1a2.512,2.512,0,0,0-2.51,2.51v4.1a2.512,2.512,0,0,0,2.51,2.51h4.1a2.472,2.472,0,0,0,.913-.173,2.513,2.513,0,0,0,1.6-2.337v-4.1A2.513,2.513,0,0,0,355.106,291.068Zm.11,6.605a.111.111,0,0,1-.11.112h-4.1a.112.112,0,0,1-.112-.112v-4.1c0-.216.149-.064,4.209-.112a.111.111,0,0,1,.11.112v4.1Z" transform="translate(-292.625 -244.788)"/>
      <path id="Trazado_641817" data-name="Trazado 641817" d="M356.019,358.6a2.472,2.472,0,0,0-.913-.173h-4.1a2.512,2.512,0,0,0-2.51,2.51v4.1a2.512,2.512,0,0,0,2.51,2.51h4.1a2.512,2.512,0,0,0,2.508-2.51v-4.1A2.512,2.512,0,0,0,356.019,358.6Zm-.8,6.433a.111.111,0,0,1-.11.112h-4.1a.112.112,0,0,1-.112-.112v-4.1a.112.112,0,0,1,.112-.112h4.1a.111.111,0,0,1,.11.112Z" transform="translate(-292.625 -301.437)"/>
      <path id="Trazado_641818" data-name="Trazado 641818" d="M321.246,105.44h3.012a1.2,1.2,0,1,0,0-2.4h-3.012a1.2,1.2,0,0,0,0,2.4Z" transform="translate(-268.697 -86.658)"/>
      <path id="Trazado_641819" data-name="Trazado 641819" d="M157.369,105.44H178.63a1.2,1.2,0,1,0,0-2.4H157.369a1.2,1.2,0,0,0,0,2.4Z" transform="translate(-130.877 -86.658)"/>
      <path id="Trazado_641820" data-name="Trazado 641820" d="M161.18,142.87a1.2,1.2,0,0,0,0-2.4h-3.811a1.2,1.2,0,0,0,0,2.4Z" transform="translate(-130.877 -118.137)"/>
      <path id="Trazado_641821" data-name="Trazado 641821" d="M233.159,141.671a1.2,1.2,0,0,0-1.2-1.2H211.5a1.2,1.2,0,0,0,0,2.4H231.96A1.2,1.2,0,0,0,233.159,141.671Z" transform="translate(-176.399 -118.137)"/>
      <path id="Trazado_641822" data-name="Trazado 641822" d="M79.972,402.446c0-.3.111-.388.215-.445a2.06,2.06,0,0,1,1.738.118,1.371,1.371,0,0,0,.649.2c1.182,0,2.118-2.2-.707-2.683v-.076a1.215,1.215,0,1,0-2.43,0v.231a2.726,2.726,0,0,0-1.853,2.73c0,2.045,1.486,2.6,2.571,3.011,1.035.389,1.392.559,1.392,1.263,0,.44-.118.847-.979.847-1.253,0-1.1-.991-2.041-.991a1.253,1.253,0,0,0-1.158,1.242c0,.831.864,1.619,2.068,1.939v.091a1.215,1.215,0,0,0,2.43,0V409.8a3,3,0,0,0,2.068-3.077C83.936,403.076,79.972,403.623,79.972,402.446Z" transform="translate(-64.605 -335.005)"/>
    </g>
  </g>
</svg>
