<svg xmlns="http://www.w3.org/2000/svg" width="134" height="134" viewBox="0 0 134 134">
  <g id="Grupo_969351" data-name="Grupo 969351" transform="translate(-309 -3075)">
    <circle id="Elipse_7708" data-name="Elipse 7708" cx="67" cy="67" r="67" transform="translate(309 3075)" fill="#ef8b53"/>
    <g id="optimizar" transform="translate(331 3097)">
      <g id="Grupo_952842" data-name="Grupo 952842" transform="translate(1.441 1.441)">
        <g id="Grupo_952833" data-name="Grupo 952833" transform="translate(0 46.108)">
          <path id="Trazado_628648" data-name="Trazado 628648" d="M55.753,70.463H3.882A2.89,2.89,0,0,1,1,67.581V33A17.286,17.286,0,0,0,18.29,50.29h5.763v1.441a1.445,1.445,0,0,0,1.441,1.441H34.14a1.445,1.445,0,0,0,1.441-1.441V50.29h5.763a17.222,17.222,0,0,0,9.51-2.853,6.26,6.26,0,0,1-3.415,2.738l-.331.115v5.763l.317.1a6.384,6.384,0,0,1,3.89,3.631,6.3,6.3,0,0,1,.49,2.449,6.39,6.39,0,0,1-.677,2.853l-.144.317,4.063,4.063.3-.144a6.214,6.214,0,0,1,3.083-.663,2.9,2.9,0,0,1-2.68,1.8Z" transform="translate(-1 -33)" fill="#cf9e76"/>
        </g>
        <g id="Grupo_952834" data-name="Grupo 952834" transform="translate(0 43.226)">
          <path id="Trazado_628649" data-name="Trazado 628649" d="M58.635,38.2v.36a3.913,3.913,0,0,1-.418.014,6.39,6.39,0,0,1-2.853-.677l-.317-.144-4.063,4.063.144.3a6.438,6.438,0,0,1,.187,5.331,4.98,4.98,0,0,1-.461.865,17.222,17.222,0,0,1-9.51,2.853H35.581V49.731A1.445,1.445,0,0,0,34.14,48.29H25.495a1.445,1.445,0,0,0-1.441,1.441v1.441H18.29A17.286,17.286,0,0,1,1,33.882,2.89,2.89,0,0,1,3.882,31H55.753a2.89,2.89,0,0,1,2.882,2.882Z" transform="translate(-1 -31)" fill="#d3a06c"/>
        </g>
        <g id="Grupo_952835" data-name="Grupo 952835" transform="translate(23.054 60.517)">
          <path id="Trazado_628650" data-name="Trazado 628650" d="M28.527,45.882v1.441a1.445,1.445,0,0,1-1.441,1.441H18.441A1.445,1.445,0,0,1,17,47.323V44.441A1.445,1.445,0,0,1,18.441,43h8.645a1.445,1.445,0,0,1,1.441,1.441Z" transform="translate(-17 -43)" fill="#ccd1d9"/>
        </g>
        <g id="Grupo_952836" data-name="Grupo 952836" transform="translate(51.871 1.441)">
          <path id="Trazado_628651" data-name="Trazado 628651" d="M42.763,50.99V19.29H37L51.409,2,65.817,19.29H60.054V51.35a6.426,6.426,0,0,1-5.663-4.366l-.1-.317H48.527l-.1.317a6.384,6.384,0,0,1-3.631,3.89,7.58,7.58,0,0,1-2.032.475Z" transform="translate(-37 -2)" fill="#ff826e"/>
        </g>
        <g id="Grupo_952837" data-name="Grupo 952837" transform="translate(46.108 46.108)">
          <path id="Trazado_628652" data-name="Trazado 628652" d="M36.746,47.438a4.98,4.98,0,0,0,.461-.865,6.438,6.438,0,0,0-.187-5.331l-.144-.3,4.063-4.063.317.144a6.39,6.39,0,0,0,2.853.677,3.912,3.912,0,0,0,.418-.014,7.58,7.58,0,0,0,2.032-.475,6.384,6.384,0,0,0,3.631-3.89l.1-.317h5.763l.1.317a6.4,6.4,0,0,0,8.933,3.7l.317-.144,4.063,4.063-.144.317a6.39,6.39,0,0,0-.677,2.853,6.3,6.3,0,0,0,.49,2.449,6.421,6.421,0,0,0,3.89,3.631l.317.1v5.763l-.317.1a6.384,6.384,0,0,0-3.89,3.631,6.318,6.318,0,0,0,.187,5.3l.144.317-4.063,4.063-.317-.144a6.39,6.39,0,0,0-2.853-.677,6.3,6.3,0,0,0-2.449.49,6.421,6.421,0,0,0-3.631,3.89l-.1.317H50.29l-.115-.331a6.352,6.352,0,0,0-3.6-3.876,6.1,6.1,0,0,0-2.248-.475,6.214,6.214,0,0,0-3.083.663l-.3.144-4.063-4.063.144-.317a6.39,6.39,0,0,0,.677-2.853,6.3,6.3,0,0,0-.49-2.449,6.384,6.384,0,0,0-3.89-3.631l-.317-.1V50.29l.331-.115a6.26,6.26,0,0,0,3.415-2.738ZM64.7,53.172A11.527,11.527,0,1,0,53.172,64.7,11.524,11.524,0,0,0,64.7,53.172Z" transform="translate(-33 -33)" fill="#ffc729"/>
        </g>
        <g id="Grupo_952838" data-name="Grupo 952838" transform="translate(54.753 54.753)">
          <path id="Trazado_628653" data-name="Trazado 628653" d="M50.527,39A11.527,11.527,0,1,1,39,50.527,11.524,11.524,0,0,1,50.527,39ZM56.29,50.527a5.763,5.763,0,1,0-5.763,5.763A5.762,5.762,0,0,0,56.29,50.527Z" transform="translate(-39 -39)" fill="#fcd770"/>
        </g>
        <g id="Grupo_952839" data-name="Grupo 952839" transform="translate(5.763)">
          <path id="Trazado_628654" data-name="Trazado 628654" d="M16.527,36.935v7.089A23.056,23.056,0,1,1,50.7,19.746a23.6,23.6,0,0,1,.4,4.308,23.064,23.064,0,0,1-11.527,19.97V36.935a17.1,17.1,0,0,0,5.519-10,17.29,17.29,0,1,0-34.091,0A17.1,17.1,0,0,0,16.527,36.935Z" transform="translate(-5 -1)" fill="#ccd1d9"/>
        </g>
        <g id="Grupo_952840" data-name="Grupo 952840" transform="translate(11.527 5.763)">
          <path id="Trazado_628655" data-name="Trazado 628655" d="M26.29,5A17.273,17.273,0,0,0,9.245,25.172a17.1,17.1,0,0,0,5.519,10v-2.8A1.445,1.445,0,0,1,16.2,30.936h5.1a5.605,5.605,0,0,1-.778-2.882,5.767,5.767,0,0,1,9.841-4.078,6.088,6.088,0,0,1,.908,1.2,5.748,5.748,0,0,1,.778,2.882,5.605,5.605,0,0,1-.778,2.882h5.1a1.445,1.445,0,0,1,1.441,1.441v2.8a17.1,17.1,0,0,0,5.519-10A17.274,17.274,0,0,0,26.29,5Z" transform="translate(-9 -5)" fill="#69d6f4"/>
        </g>
        <g id="Grupo_952841" data-name="Grupo 952841" transform="translate(23.054 23.054)">
          <path id="Trazado_628656" data-name="Trazado 628656" d="M28.527,22.763a5.605,5.605,0,0,1-.778,2.882H17.778A5.605,5.605,0,0,1,17,22.763a5.767,5.767,0,0,1,9.841-4.078,6.088,6.088,0,0,1,.908,1.2A5.748,5.748,0,0,1,28.527,22.763Z" transform="translate(-17 -17)" fill="#ff826e"/>
        </g>
      </g>
      <g id="Grupo_952843" data-name="Grupo 952843" transform="translate(0 0)">
        <path id="Trazado_628657" data-name="Trazado 628657" d="M49.2,42a7.2,7.2,0,1,0,7.2,7.2A7.213,7.213,0,0,0,49.2,42Zm0,11.527A4.323,4.323,0,1,1,53.527,49.2,4.328,4.328,0,0,1,49.2,53.527Z" transform="translate(18.517 18.517)"/>
        <path id="Trazado_628658" data-name="Trazado 628658" d="M50.968,38A12.968,12.968,0,1,0,63.936,50.968,12.982,12.982,0,0,0,50.968,38Zm0,23.054A10.086,10.086,0,1,1,61.054,50.968,10.1,10.1,0,0,1,50.968,61.054Z" transform="translate(16.753 16.753)"/>
        <path id="Trazado_628659" data-name="Trazado 628659" d="M88.031,63.368a4.958,4.958,0,0,1-2.872-6.923l.615-1.235-5.543-5.543L79,50.284a4.855,4.855,0,0,1-1.192.4V21.613h7.4L67.721.631,53.708,17.446A24.488,24.488,0,1,0,14.5,43.226H4.323A4.328,4.328,0,0,0,0,47.549V82.13a4.328,4.328,0,0,0,4.323,4.323H56.194a4.3,4.3,0,0,0,3.436-1.71,4.984,4.984,0,0,1,.941.277,4.925,4.925,0,0,1,2.79,3l.441,1.32h7.84l.432-1.3A4.956,4.956,0,0,1,79,85.161l1.236.612,5.542-5.542L85.158,79a4.956,4.956,0,0,1,2.866-6.921l1.31-.437V63.8ZM79.053,18.731H74.925V50.442c-.014-.006-.029-.007-.042-.013a4.959,4.959,0,0,1-2.805-3.013l-.435-1.308H63.8l-.434,1.307a4.964,4.964,0,0,1-2.807,3.014c-.014.006-.029.007-.042.013V18.731H56.39l11.331-13.6ZM14.409,24.495a15.85,15.85,0,0,1,31.7,0c0,.484-.033.964-.076,1.441H36.618L42.8,19.75l-2.037-2.037-6.542,6.542a7.139,7.139,0,0,0-9.693,1.681H14.487c-.045-.477-.078-.957-.078-1.441ZM43.1,33.778A2.876,2.876,0,0,0,40.344,31.7H37.3a6.842,6.842,0,0,0,.016-2.882h8.167A15.872,15.872,0,0,1,43.1,33.778Zm-17.162-3.52A4.324,4.324,0,1,1,34.3,31.7H26.215A4.3,4.3,0,0,1,25.936,30.258Zm14.409,4.323v2.882H20.172V34.581ZM23.2,28.817a6.842,6.842,0,0,0,.016,2.882H20.172a2.876,2.876,0,0,0-2.754,2.079,15.872,15.872,0,0,1-2.386-4.961ZM20.172,40.344H40.344v2.882H20.172Zm34.4-18.731h3.066V43.491a4.274,4.274,0,0,0-1.441-.265H46.021a24.234,24.234,0,0,0,8.547-21.613ZM8.645,24.495A21.613,21.613,0,1,1,43.226,41.777v-3.8a18.731,18.731,0,1,0-25.936,0v3.8A21.7,21.7,0,0,1,8.645,24.495ZM4.323,46.108H56.194a1.441,1.441,0,0,1,1.441,1.441v3.132a4.916,4.916,0,0,1-1.192-.4l-1.232-.617-5.543,5.543.608,1.222a4.985,4.985,0,0,1,.148,4.141c-.058.141-.146.262-.216.4A15.781,15.781,0,0,1,41.785,63.4H37.463a2.885,2.885,0,0,0-2.882-2.882H25.936A2.885,2.885,0,0,0,23.054,63.4H18.731a15.868,15.868,0,0,1-15.85-15.85,1.441,1.441,0,0,1,1.441-1.441ZM34.584,66.28H25.936V63.4h8.645ZM2.882,82.13V57.485a18.721,18.721,0,0,0,15.85,8.8h4.323a2.885,2.885,0,0,0,2.882,2.882h8.645a2.885,2.885,0,0,0,2.882-2.882h4.323a18.836,18.836,0,0,0,4.323-.509v5.872l1.307.434A4.957,4.957,0,0,1,50.282,79l-.617,1.232,3.34,3.34H4.323A1.441,1.441,0,0,1,2.882,82.13ZM86.452,69.6a7.838,7.838,0,0,0-4.16,10.04l-2.656,2.654a7.839,7.839,0,0,0-10.04,4.16H65.845A7.84,7.84,0,0,0,55.8,82.294l-2.656-2.656a7.838,7.838,0,0,0-4.16-10.04V65.846A7.84,7.84,0,0,0,53.147,55.8L55.8,53.149a7.838,7.838,0,0,0,10.04-4.16H69.6a7.838,7.838,0,0,0,10.04,4.16L82.29,55.8a7.839,7.839,0,0,0,4.16,10.04V69.6Z" transform="translate(0 0)"/>
        <path id="Trazado_628660" data-name="Trazado 628660" d="M4,54H6.882v2.882H4Z" transform="translate(1.763 23.807)"/>
        <path id="Trazado_628661" data-name="Trazado 628661" d="M8,54h2.882v2.882H8Z" transform="translate(3.527 23.807)"/>
      </g>
    </g>
  </g>
</svg>
