<svg xmlns="http://www.w3.org/2000/svg" width="148" height="148" viewBox="0 0 148 148">
  <g id="Grupo_969350" data-name="Grupo 969350" transform="translate(-730 -9221)">
    <circle id="Elipse_7766" data-name="Elipse 7766" cx="74" cy="74" r="74" transform="translate(730 9221)" fill="#583cb6"/>
    <g id="operacion" transform="translate(748.146 9247)">
      <path id="Trazado_641823" data-name="Trazado 641823" d="M183.327,179.255a1.167,1.167,0,0,0-1.159-1.011h-5.492a1.169,1.169,0,0,1-1.118-.837,17.659,17.659,0,0,0-1.366-3.3,1.169,1.169,0,0,1,.2-1.384l3.882-3.882a1.168,1.168,0,0,0,.1-1.535,25.152,25.152,0,0,0-4.621-4.621,1.168,1.168,0,0,0-1.535.1l-3.882,3.882a1.17,1.17,0,0,1-1.384.2,17.666,17.666,0,0,0-3.3-1.366,1.169,1.169,0,0,1-.837-1.118v-5.492a1.167,1.167,0,0,0-1.011-1.159,25.19,25.19,0,0,0-6.536,0,1.167,1.167,0,0,0-1.011,1.159v5.492a1.169,1.169,0,0,1-.837,1.118,17.66,17.66,0,0,0-3.3,1.366,1.169,1.169,0,0,1-1.384-.2l-3.882-3.882a1.167,1.167,0,0,0-.223-.17,7.874,7.874,0,0,0-2.082,3.307l-1.081,3.42a3.263,3.263,0,0,1-.765,6.435,3.264,3.264,0,1,1,0,6.529h-1.127l-.933,4.491H140.4a1.169,1.169,0,0,1,1.118.837,17.66,17.66,0,0,0,1.366,3.3,1.169,1.169,0,0,1-.2,1.384l-3.882,3.882a1.168,1.168,0,0,0-.1,1.535,25.152,25.152,0,0,0,4.62,4.621,1.168,1.168,0,0,0,1.535-.1l3.882-3.882a1.17,1.17,0,0,1,1.384-.2,17.661,17.661,0,0,0,3.3,1.366,1.169,1.169,0,0,1,.837,1.118v5.492a1.167,1.167,0,0,0,1.011,1.159,25.19,25.19,0,0,0,6.536,0,1.167,1.167,0,0,0,1.011-1.159v-5.492a1.169,1.169,0,0,1,.837-1.118,17.661,17.661,0,0,0,3.3-1.366,1.169,1.169,0,0,1,1.384.2l3.882,3.882a1.168,1.168,0,0,0,1.535.1,25.141,25.141,0,0,0,4.621-4.621,1.168,1.168,0,0,0-.1-1.535l-3.882-3.882a1.17,1.17,0,0,1-.2-1.384,17.666,17.666,0,0,0,1.366-3.3,1.169,1.169,0,0,1,1.118-.837h5.492a1.167,1.167,0,0,0,1.159-1.011,25.188,25.188,0,0,0,0-6.536Z" transform="translate(-104.487 -127.977)" fill="#7ca1b1"/>
      <path id="Trazado_641824" data-name="Trazado 641824" d="M162.818,162.695v-3.8a1.167,1.167,0,0,0-1.011-1.159,25.19,25.19,0,0,0-6.536,0,1.167,1.167,0,0,0-1.011,1.159v5.492a1.169,1.169,0,0,1-.837,1.118,17.659,17.659,0,0,0-3.3,1.366,1.169,1.169,0,0,1-1.384-.2l-3.882-3.882a1.167,1.167,0,0,0-.223-.17,7.874,7.874,0,0,0-2.082,3.307l-1.081,3.42a3.263,3.263,0,0,1-.765,6.435,3.264,3.264,0,1,1,0,6.529h-1.127l-.933,4.491H140.4a1.169,1.169,0,0,1,1.118.837,17.658,17.658,0,0,0,1.366,3.3,1.169,1.169,0,0,1-.2,1.384l-3.882,3.882a1.168,1.168,0,0,0-.1,1.535,25.152,25.152,0,0,0,4.62,4.621,1.168,1.168,0,0,0,1.535-.1l3.882-3.882a1.17,1.17,0,0,1,1.384-.2,17.659,17.659,0,0,0,3.3,1.366,1.169,1.169,0,0,1,.837,1.118v5.492a1.167,1.167,0,0,0,1.011,1.159,25.188,25.188,0,0,0,6.536,0,1.167,1.167,0,0,0,1.011-1.159v-3.8a20.979,20.979,0,0,1,0-39.656Z" transform="translate(-104.487 -127.977)" fill="#678d98"/>
      <g id="Grupo_968154" data-name="Grupo 968154" transform="translate(42.828 43.321)">
        <circle id="Elipse_8735" data-name="Elipse 8735" cx="11.224" cy="11.224" r="11.224" fill="#3e5959"/>
      </g>
      <g id="Grupo_968155" data-name="Grupo 968155" transform="translate(42.828 43.321)">
        <path id="Trazado_641825" data-name="Trazado 641825" d="M190.412,242.2a11.226,11.226,0,0,1,8.847-10.969,11.224,11.224,0,1,0,0,21.939A11.226,11.226,0,0,1,190.412,242.2Z" transform="translate(-185.659 -230.975)" fill="#384949"/>
      </g>
      <g id="Grupo_968156" data-name="Grupo 968156" transform="translate(48.354 48.848)">
        <circle id="Elipse_8736" data-name="Elipse 8736" cx="5.697" cy="5.697" r="5.697" fill="#fff"/>
      </g>
      <g id="Grupo_968157" data-name="Grupo 968157" transform="translate(48.354 48.848)">
        <path id="Trazado_641826" data-name="Trazado 641826" d="M219.839,266.139a5.7,5.7,0,0,1,3.341-5.187,5.7,5.7,0,1,0,0,10.373A5.7,5.7,0,0,1,219.839,266.139Z" transform="translate(-215.126 -260.442)" fill="#eef5f6"/>
      </g>
      <g id="Grupo_968158" data-name="Grupo 968158" transform="translate(13.973 10.64)">
        <path id="Trazado_641827" data-name="Trazado 641827" d="M209.754,65.775q0,.828-.073,1.638a33.865,33.865,0,0,1,6.308-.592h28.389a.418.418,0,0,1,.418.418v2.782a.626.626,0,0,0,.973.521l9.515-6.331a.626.626,0,0,0,0-1.043l-9.515-6.331a.626.626,0,0,0-.973.521V60.14a.418.418,0,0,1-.418.418H216.336a40.075,40.075,0,0,0-7.16.644A18.306,18.306,0,0,1,209.754,65.775Z" transform="translate(-175.912 -56.731)" fill="#05e39c"/>
        <path id="Trazado_641828" data-name="Trazado 641828" d="M110.976,205.917l-4.265-.073a1,1,0,0,0-1.014.968,33.816,33.816,0,0,1-67.617-.721q-.007-.883.032-1.756a3.256,3.256,0,0,1,.5-4.492q.119-.662.262-1.314a3.262,3.262,0,0,1,1.062-5.876l-1.067-3.376a7.909,7.909,0,0,0-1.8-3.069,39.28,39.28,0,0,0-5.254,19.6,40.078,40.078,0,0,0,80.141,1.138,1,1,0,0,0-.983-1.027Z" transform="translate(-31.818 -161.922)" fill="#05e39c"/>
      </g>
      <g id="Grupo_968159" data-name="Grupo 968159" transform="translate(80.701 30.075)">
        <path id="Trazado_641829" data-name="Trazado 641829" d="M402.128,160.348h-9a1.044,1.044,0,0,0-.9.522l-4.5,7.791a1.044,1.044,0,0,0,0,1.044l4.5,7.791a1.044,1.044,0,0,0,.9.522h9a1.044,1.044,0,0,0,.9-.522l4.5-7.791a1.044,1.044,0,0,0,0-1.044l-4.5-7.791A1.044,1.044,0,0,0,402.128,160.348Z" transform="translate(-387.59 -160.348)" fill="#a8d3d8"/>
      </g>
      <path id="Trazado_641830" data-name="Trazado 641830" d="M396.993,177.5l-2.185-3.784a5.333,5.333,0,0,1,0-9.059l2.184-3.783a1.043,1.043,0,0,1,.9-.522H393.13a1.044,1.044,0,0,0-.9.522l-4.5,7.791a1.044,1.044,0,0,0,0,1.044l4.5,7.791a1.043,1.043,0,0,0,.9.522H397.9A1.043,1.043,0,0,1,396.993,177.5Z" transform="translate(-306.887 -130.273)" fill="#8ebac5"/>
      <g id="Grupo_968160" data-name="Grupo 968160" transform="translate(86.81 34.978)">
        <circle id="Elipse_8737" data-name="Elipse 8737" cx="3.932" cy="3.932" r="3.932" fill="#fff"/>
      </g>
      <g id="Grupo_968161" data-name="Grupo 968161" transform="translate(86.81 34.978)">
        <path id="Trazado_641831" data-name="Trazado 641831" d="M423.332,190.423a3.93,3.93,0,0,1,2.345-3.6,3.932,3.932,0,1,0,0,7.191A3.931,3.931,0,0,1,423.332,190.423Z" transform="translate(-420.158 -186.491)" fill="#eef5f6"/>
      </g>
      <g id="Grupo_968176" data-name="Grupo 968176" transform="translate(11.26 1.407)">
        <g id="Grupo_968163" data-name="Grupo 968163" transform="translate(0)">
          <g id="Grupo_968162" data-name="Grupo 968162">
            <path id="Trazado_641832" data-name="Trazado 641832" d="M35.357,7.5A18.276,18.276,0,0,0,24.479,40.257a7.777,7.777,0,0,1,2.637,3.83l1.123,3.555a3.061,3.061,0,0,1,.708-.086H42.312a3.061,3.061,0,0,1,.708.086l1.137-3.6a7.988,7.988,0,0,1,2.728-3.867A18.276,18.276,0,0,0,35.357,7.5Z" transform="translate(-17.352 -7.499)" fill="#fed402"/>
          </g>
        </g>
        <g id="Grupo_968165" data-name="Grupo 968165" transform="translate(0 0)">
          <g id="Grupo_968164" data-name="Grupo 968164">
            <path id="Trazado_641833" data-name="Trazado 641833" d="M32.7,44.087a7.776,7.776,0,0,0-2.637-3.83,18.274,18.274,0,0,1,8.37-32.543A18.277,18.277,0,0,0,24.479,40.257a7.777,7.777,0,0,1,2.637,3.83l1.123,3.555a3.061,3.061,0,0,1,.708-.086h4.844Z" transform="translate(-17.352 -7.499)" fill="#fac600"/>
          </g>
        </g>
        <g id="Grupo_968166" data-name="Grupo 968166" transform="translate(7.681 7.68)">
          <circle id="Elipse_8738" data-name="Elipse 8738" cx="10.597" cy="10.597" r="10.597" fill="#fee97d"/>
        </g>
        <g id="Grupo_968167" data-name="Grupo 968167" transform="translate(13.659 13.659)">
          <circle id="Elipse_8739" data-name="Elipse 8739" cx="4.618" cy="4.618" r="4.618" fill="#fe9901"/>
        </g>
        <g id="Grupo_968168" data-name="Grupo 968168" transform="translate(13.659 13.659)">
          <path id="Trazado_641834" data-name="Trazado 641834" d="M94.227,84.944a4.618,4.618,0,0,1,2.6-4.152,4.618,4.618,0,1,0,0,8.3A4.618,4.618,0,0,1,94.227,84.944Z" transform="translate(-90.18 -80.326)" fill="#fb8801"/>
        </g>
        <g id="Grupo_968175" data-name="Grupo 968175" transform="translate(8.332 39.87)">
          <g id="Grupo_968169" data-name="Grupo 968169" transform="translate(4.384 12.869)">
            <path id="Trazado_641835" data-name="Trazado 641835" d="M85.151,288.686c.006.035.009.069.016.1l1.083,5.019a2.789,2.789,0,0,0,2.726,2.2h3.54a2.789,2.789,0,0,0,2.73-2.221l1.043-5.019c.006-.028.007-.055.012-.082Z" transform="translate(-85.151 -288.686)" fill="#3e5959"/>
          </g>
          <g id="Grupo_968170" data-name="Grupo 968170" transform="translate(4.384 12.869)">
            <path id="Trazado_641836" data-name="Trazado 641836" d="M91.014,293.809l-1.083-5.019c-.007-.035-.01-.069-.016-.1H85.151c.006.035.009.069.016.1l1.083,5.019a2.789,2.789,0,0,0,2.726,2.2h3.54a2.784,2.784,0,0,0,.612-.07A2.788,2.788,0,0,1,91.014,293.809Z" transform="translate(-85.151 -288.686)" fill="#384949"/>
          </g>
          <g id="Grupo_968171" data-name="Grupo 968171">
            <path id="Trazado_641837" data-name="Trazado 641837" d="M78.4,226.6H65.039a3.264,3.264,0,1,1,0-6.529H78.4a3.264,3.264,0,1,1,0,6.529Z" transform="translate(-61.775 -220.071)" fill="#a8d3d8"/>
          </g>
          <g id="Grupo_968172" data-name="Grupo 968172">
            <path id="Trazado_641838" data-name="Trazado 641838" d="M68.007,223.335a3.264,3.264,0,0,1,3.264-3.264H65.039a3.264,3.264,0,1,0,0,6.529h6.232a3.264,3.264,0,0,1-3.264-3.264Z" transform="translate(-61.775 -220.071)" fill="#8ebac5"/>
          </g>
          <g id="Grupo_968173" data-name="Grupo 968173" transform="translate(0 6.529)">
            <path id="Trazado_641839" data-name="Trazado 641839" d="M78.4,261.408H65.039a3.264,3.264,0,1,1,0-6.529H78.4a3.264,3.264,0,1,1,0,6.529Z" transform="translate(-61.775 -254.879)" fill="#c8effe"/>
          </g>
          <g id="Grupo_968174" data-name="Grupo 968174" transform="translate(0 6.529)">
            <path id="Trazado_641840" data-name="Trazado 641840" d="M68.007,258.143a3.264,3.264,0,0,1,3.264-3.264H65.039a3.264,3.264,0,1,0,0,6.529h6.232a3.264,3.264,0,0,1-3.264-3.264Z" transform="translate(-61.775 -254.879)" fill="#a8d3d8"/>
          </g>
        </g>
      </g>
      <g id="Grupo_968177" data-name="Grupo 968177" transform="translate(9.854 0)">
        <path id="Trazado_641841" data-name="Trazado 641841" d="M190.79,248.735a12.66,12.66,0,0,0,11.892-8.371,1.407,1.407,0,0,0-2.649-.949,9.817,9.817,0,1,1,.27-5.743,1.407,1.407,0,1,0,2.727-.695,12.631,12.631,0,1,0-12.24,15.757Z" transform="translate(-146.593 -181.559)"/>
        <path id="Trazado_641842" data-name="Trazado 641842" d="M214.73,252.942a7.1,7.1,0,1,0,7.1,7.1A7.112,7.112,0,0,0,214.73,252.942Zm0,11.394a4.29,4.29,0,1,1,4.29-4.29A4.3,4.3,0,0,1,214.73,264.336Z" transform="translate(-170.532 -205.501)"/>
        <path id="Trazado_641843" data-name="Trazado 641843" d="M93.156,53.229l-4.265-.073h-.042a2.412,2.412,0,0,0-2.4,2.334A32.449,32.449,0,0,1,54.052,86.954H53.8a32.551,32.551,0,0,1-32.139-31.37,4.659,4.659,0,0,0,1.2.156h.019l.826,3.825a4.218,4.218,0,0,0,4.1,3.31h3.54a4.216,4.216,0,0,0,3.9-2.645h.5a19.108,19.108,0,0,0,1.344,3.246l-3.755,3.755a2.58,2.58,0,0,0-.225,3.387A26.564,26.564,0,0,0,37.978,75.5a2.58,2.58,0,0,0,3.387-.225l3.755-3.755a19.13,19.13,0,0,0,3.246,1.344v5.313A2.579,2.579,0,0,0,50.6,80.728a26.583,26.583,0,0,0,6.9,0,2.58,2.58,0,0,0,2.235-2.554V72.86a19.108,19.108,0,0,0,3.246-1.344l3.755,3.755a2.58,2.58,0,0,0,3.387.225A26.552,26.552,0,0,0,75,70.618a2.58,2.58,0,0,0-.225-3.387l-3.755-3.756a19.121,19.121,0,0,0,1.344-3.246H77.68A2.579,2.579,0,0,0,80.234,58a26.606,26.606,0,0,0,0-6.9,2.58,2.58,0,0,0-2.554-2.235H72.367a19.1,19.1,0,0,0-1.344-3.245l3.755-3.756A2.58,2.58,0,0,0,75,38.472a26.553,26.553,0,0,0-4.879-4.879,2.58,2.58,0,0,0-3.387.225l-3.755,3.755a19.121,19.121,0,0,0-3.246-1.344V30.916A2.58,2.58,0,0,0,57.5,28.362a26.729,26.729,0,0,0-6.9,0,2.58,2.58,0,0,0-2.235,2.554V36.23a19.1,19.1,0,0,0-3.246,1.344l-2.868-2.868a19.542,19.542,0,0,0,6.767-12.18,32.705,32.705,0,0,1,5.032-.389h27.4v1.793a2.033,2.033,0,0,0,3.159,1.693l9.515-6.33a2.033,2.033,0,0,0,0-3.385L84.609,9.575a2.033,2.033,0,0,0-3.159,1.693V13.06H54.4a41.8,41.8,0,0,0-6.155.458,19.689,19.689,0,1,0-30.8,21.691,40.6,40.6,0,0,0-4.876,19.315A41.462,41.462,0,0,0,80.27,86.67a1.407,1.407,0,0,0-1.781-2.178A38.672,38.672,0,0,1,15.38,54.526a37.794,37.794,0,0,1,3.99-16.91,6.866,6.866,0,0,1,.313.8l.686,2.172a4.663,4.663,0,0,0-.886,7.178c-.006.032-.013.063-.019.095a4.659,4.659,0,0,0-.617,5.6c-.014.451-.022.9-.018,1.356A35.32,35.32,0,0,0,53.777,89.767h.276A35.264,35.264,0,0,0,89.246,55.976l3.449.059A38.685,38.685,0,0,1,83.054,80.1a1.407,1.407,0,0,0,2.11,1.861A41.5,41.5,0,0,0,95.521,55.7a2.407,2.407,0,0,0-2.365-2.472ZM21,44.54a1.86,1.86,0,0,1,1.858-1.858H36.22a1.858,1.858,0,0,1,0,3.715H22.856A1.86,1.86,0,0,1,21,44.54ZM29.538,22.9a3.212,3.212,0,1,1,3.212-3.212A3.215,3.215,0,0,1,29.538,22.9Zm8.539,28.173a1.86,1.86,0,0,1-1.858,1.858H22.856a1.858,1.858,0,1,1,0-3.715H36.22A1.86,1.86,0,0,1,38.077,51.069Zm-6.735,8.993H27.8a1.389,1.389,0,0,1-1.351-1.09l-.7-3.232h7.611L32.7,58.961A1.388,1.388,0,0,1,31.342,60.062ZM46.3,40.132a16.289,16.289,0,0,1,3.037-1.257,2.561,2.561,0,0,0,1.84-2.466V31.125a23.906,23.906,0,0,1,5.744,0v5.283a2.561,2.561,0,0,0,1.84,2.466A16.291,16.291,0,0,1,61.8,40.131a2.561,2.561,0,0,0,3.045-.442l3.734-3.734a23.737,23.737,0,0,1,4.062,4.062l-3.734,3.734a2.562,2.562,0,0,0-.442,3.045,16.284,16.284,0,0,1,1.257,3.037,2.561,2.561,0,0,0,2.466,1.84h5.283a23.783,23.783,0,0,1,0,5.744H72.188a2.561,2.561,0,0,0-2.466,1.84,16.293,16.293,0,0,1-1.257,3.037,2.562,2.562,0,0,0,.442,3.045l3.734,3.734a23.756,23.756,0,0,1-4.062,4.062L64.845,69.4a2.562,2.562,0,0,0-3.045-.442,16.29,16.29,0,0,1-3.037,1.257,2.561,2.561,0,0,0-1.84,2.466v5.283a23.887,23.887,0,0,1-5.744,0V72.682a2.561,2.561,0,0,0-1.84-2.466A16.3,16.3,0,0,1,46.3,68.959a2.562,2.562,0,0,0-3.045.442l-3.734,3.734a23.741,23.741,0,0,1-4.062-4.062L39.2,65.339a2.562,2.562,0,0,0,.442-3.045,16.29,16.29,0,0,1-1.257-3.037,2.561,2.561,0,0,0-2.466-1.84h-.026l.349-1.678A4.667,4.667,0,0,0,39.556,47.8a4.663,4.663,0,0,0-.85-7.215l.7-2.216a6.272,6.272,0,0,1,.84-1.7l3.011,3.011a2.561,2.561,0,0,0,3.045.443Zm8.1-24.258H82.44a1.826,1.826,0,0,0,1.824-1.824V12.724L91.59,17.6l-7.326,4.874V21.147a1.826,1.826,0,0,0-1.824-1.824H54.051a35.582,35.582,0,0,0-4.829.33,19.951,19.951,0,0,0-.294-3.391,39.038,39.038,0,0,1,5.47-.387ZM12.673,19.22A16.871,16.871,0,1,1,39.926,32.975a9.37,9.37,0,0,0-3.2,4.551l-.74,2.344H30.945V31.606a11.95,11.95,0,0,0,10.04-8.3,1.407,1.407,0,0,0-2.682-.848,9.147,9.147,0,0,1-7.357,6.309V25.542a6.026,6.026,0,1,0-2.813,0v3.225a9.191,9.191,0,1,1,10.121-12,1.407,1.407,0,0,0,2.668-.894A12,12,0,1,0,28.131,31.6v8.266H23.093l-.727-2.3a9.136,9.136,0,0,0-3.12-4.52A16.945,16.945,0,0,1,12.673,19.22Z" transform="translate(-9.854 0)"/>
        <path id="Trazado_641844" data-name="Trazado 641844" d="M402.659,161.865l-4.5-7.791a2.457,2.457,0,0,0-2.122-1.225h-9a2.457,2.457,0,0,0-2.122,1.225l-4.5,7.791a2.457,2.457,0,0,0,0,2.45l4.5,7.791a2.457,2.457,0,0,0,2.122,1.225h9a2.457,2.457,0,0,0,2.122-1.225l4.5-7.791A2.456,2.456,0,0,0,402.659,161.865Zm-6.83,8.654h-8.577l-4.289-7.428,4.289-7.428h8.577l4.289,7.428Z" transform="translate(-310.653 -124.18)"/>
        <path id="Trazado_641845" data-name="Trazado 641845" d="M418,178.991a5.338,5.338,0,1,0,5.338,5.338A5.344,5.344,0,0,0,418,178.991Zm0,7.863a2.525,2.525,0,1,1,2.525-2.525A2.528,2.528,0,0,1,418,186.854Z" transform="translate(-337.109 -145.42)"/>
      </g>
    </g>
  </g>
</svg>
