<svg xmlns="http://www.w3.org/2000/svg" width="168.852" height="174.99" viewBox="0 0 168.852 174.99">
  <g id="Grupo_954436" data-name="Grupo 954436" transform="translate(-213.877 -280.263)">
    <path id="Rectángulo_306744" data-name="Rectángulo 306744" d="M1.068,0H167.784a1.068,1.068,0,0,1,1.068,1.068v0a1.068,1.068,0,0,1-1.068,1.068H1.068A1.068,1.068,0,0,1,0,1.068v0A1.068,1.068,0,0,1,1.068,0Z" transform="translate(213.877 453.117)" fill="#bbbccc"/>
    <g id="Grupo_954432" data-name="Grupo 954432" transform="translate(233.142 320.005)">
      <path id="Trazado_629373" data-name="Trazado 629373" d="M432.514,663.6h0a3.411,3.411,0,0,0-2.948-3.379v-4.343a5.557,5.557,0,0,0-5.557-5.557H401.634a5.557,5.557,0,0,0-5.557,5.557v4.363a3.411,3.411,0,0,0-2.819,3.359h0a3.411,3.411,0,0,0,2.819,3.358v22.757a3.411,3.411,0,0,0-2.819,3.358h0a3.411,3.411,0,0,0,2.819,3.359v.5a5.557,5.557,0,0,0,5.557,5.557h4.422a1.446,1.446,0,0,1,1.446,1.446v1.586h10.64v-1.586a1.446,1.446,0,0,1,1.446-1.446h4.422a5.557,5.557,0,0,0,5.557-5.557v-.482a3.411,3.411,0,0,0,2.948-3.379h0a3.411,3.411,0,0,0-2.948-3.379V666.975A3.411,3.411,0,0,0,432.514,663.6Z" transform="translate(-393.258 -650.318)" fill="#daeef7" style="mix-blend-mode: multiply;isolation: isolate"/>
      <path id="Rectángulo_306745" data-name="Rectángulo 306745" d="M3.548,0H14.07a3.548,3.548,0,0,1,3.548,3.548v0A3.548,3.548,0,0,1,14.07,7.1H3.548A3.548,3.548,0,0,1,0,3.548v0A3.548,3.548,0,0,1,3.548,0Z" transform="translate(10.819 54.228)" fill="#b5b7c7"/>
      <g id="Grupo_954423" data-name="Grupo 954423" transform="translate(2.819 16.637)" style="mix-blend-mode: multiply;isolation: isolate">
        <path id="Trazado_629374" data-name="Trazado 629374" d="M419.505,805.23l22.8.29-22.8.29Z" transform="translate(-419.505 -805.23)" fill="#daeef7"/>
      </g>
      <g id="Grupo_954424" data-name="Grupo 954424" transform="translate(13.502 9.321)" style="mix-blend-mode: multiply;isolation: isolate">
        <path id="Trazado_629375" data-name="Trazado 629375" d="M541.783,737.111l-22.8.29,22.8.29Z" transform="translate(-518.979 -737.111)" fill="#daeef7"/>
      </g>
      <g id="Grupo_954425" data-name="Grupo 954425" transform="translate(2.819 46.106)" style="mix-blend-mode: multiply;isolation: isolate">
        <path id="Trazado_629376" data-name="Trazado 629376" d="M419.505,1079.627l22.8.289-22.8.29Z" transform="translate(-419.505 -1079.627)" fill="#daeef7"/>
      </g>
      <g id="Grupo_954426" data-name="Grupo 954426" transform="translate(13.502 38.79)" style="mix-blend-mode: multiply;isolation: isolate">
        <path id="Trazado_629377" data-name="Trazado 629377" d="M541.783,1011.508l-22.8.29,22.8.29Z" transform="translate(-518.979 -1011.508)" fill="#daeef7"/>
      </g>
      <rect id="Rectángulo_306746" data-name="Rectángulo 306746" width="37.84" height="75.679" rx="18.92" transform="translate(0.708 57.663)" fill="#dbe0f0"/>
      <path id="Rectángulo_306747" data-name="Rectángulo 306747" d="M11.4,0h0A11.4,11.4,0,0,1,22.8,11.4V24.382a0,0,0,0,1,0,0H0a0,0,0,0,1,0,0V11.4A11.4,11.4,0,0,1,11.4,0Z" transform="translate(8.23 67.149)" fill="#b5b7c7"/>
      <path id="Rectángulo_306748" data-name="Rectángulo 306748" d="M9.483,0h0a9.483,9.483,0,0,1,9.483,9.483V22.639a0,0,0,0,1,0,0H0a0,0,0,0,1,0,0V9.483A9.483,9.483,0,0,1,9.483,0Z" transform="translate(10.145 68.893)" fill="#c8cedf"/>
      <rect id="Rectángulo_306749" data-name="Rectángulo 306749" width="27.736" height="1.609" rx="0.805" transform="translate(5.921 91.532)" fill="#bbbccc"/>
      <g id="Grupo_954427" data-name="Grupo 954427" transform="translate(2.577 59.292)">
        <path id="Trazado_629378" data-name="Trazado 629378" d="M446.966,1274.83H421.65a4.4,4.4,0,0,1-4.392-4.392V1206.8a4.4,4.4,0,0,1,4.392-4.392h25.316a4.4,4.4,0,0,1,4.392,4.392v63.638A4.4,4.4,0,0,1,446.966,1274.83ZM421.65,1202.7a4.107,4.107,0,0,0-4.1,4.1v63.638a4.107,4.107,0,0,0,4.1,4.1h25.316a4.107,4.107,0,0,0,4.1-4.1V1206.8a4.107,4.107,0,0,0-4.1-4.1Z" transform="translate(-417.258 -1202.408)" fill="#b5b7c7"/>
      </g>
      <path id="Trazado_629379" data-name="Trazado 629379" d="M439.965,1838.28a.783.783,0,1,1-.783-.783A.783.783,0,0,1,439.965,1838.28Z" transform="translate(-433.551 -1710)" fill="#b5b7c7"/>
      <path id="Trazado_629380" data-name="Trazado 629380" d="M698.229,1838.28a.783.783,0,1,1-.783-.783A.783.783,0,0,1,698.229,1838.28Z" transform="translate(-664.079 -1710)" fill="#b5b7c7"/>
      <path id="Trazado_629381" data-name="Trazado 629381" d="M439.965,1230.666a.783.783,0,1,1-.783-.783A.783.783,0,0,1,439.965,1230.666Z" transform="translate(-433.551 -1167.64)" fill="#b5b7c7"/>
      <g id="Grupo_954428" data-name="Grupo 954428" transform="translate(8.037 110.967)">
        <path id="Trazado_629382" data-name="Trazado 629382" d="M489.09,1694.688H470.272a2.185,2.185,0,0,1-2.182-2.182v-6.749a2.185,2.185,0,0,1,2.182-2.182H489.09a2.185,2.185,0,0,1,2.182,2.182v6.749A2.185,2.185,0,0,1,489.09,1694.688Zm-18.818-10.728a1.8,1.8,0,0,0-1.8,1.8v6.749a1.8,1.8,0,0,0,1.8,1.8H489.09a1.8,1.8,0,0,0,1.8-1.8v-6.749a1.8,1.8,0,0,0-1.8-1.8Z" transform="translate(-468.09 -1683.574)" fill="#bbbccc"/>
      </g>
      <g id="Grupo_954430" data-name="Grupo 954430" transform="translate(12.978 75.167)">
        <g id="Grupo_954429" data-name="Grupo 954429">
          <path id="Trazado_629383" data-name="Trazado 629383" d="M518.889,1354.654h-.166l.435-3.943a.431.431,0,0,0-.429-.479h-1.555a.431.431,0,0,0-.429.479l.435,3.943h-.166a.322.322,0,0,0-.322.322v1.078a.322.322,0,0,0,.322.322h1.875a.322.322,0,0,0,.322-.322v-1.078A.322.322,0,0,0,518.889,1354.654Z" transform="translate(-516.413 -1350.232)" fill="#fff"/>
          <path id="Rectángulo_306750" data-name="Rectángulo 306750" d="M.329,0H2.773A.33.33,0,0,1,3.1.33v0a.329.329,0,0,1-.329.329H.33A.33.33,0,0,1,0,.33v0A.329.329,0,0,1,.329,0Z" transform="translate(0 4.984)" fill="#ff7b8c"/>
        </g>
        <path id="Trazado_629384" data-name="Trazado 629384" d="M613.843,1354.654h-.166l.435-3.943a.431.431,0,0,0-.429-.479h-1.555a.431.431,0,0,0-.429.479l.435,3.943h-.166a.322.322,0,0,0-.322.322v1.078a.322.322,0,0,0,.322.322h1.875a.322.322,0,0,0,.322-.322v-1.078A.322.322,0,0,0,613.843,1354.654Z" transform="translate(-601.17 -1350.232)" fill="#fff"/>
        <rect id="Rectángulo_306751" data-name="Rectángulo 306751" width="3.103" height="0.659" rx="0.33" transform="translate(10.198 4.984)" fill="#daeef7"/>
      </g>
      <g id="Grupo_954431" data-name="Grupo 954431" transform="translate(21.069 83.376)">
        <path id="Trazado_629385" data-name="Trazado 629385" d="M598.055,1427.611H594.1l1.359,8.071h3.569l1.359-8.071Z" transform="translate(-593.601 -1427.509)" fill="#ff5b7e"/>
        <path id="Rectángulo_306752" data-name="Rectángulo 306752" d="M.431,0H6.858a.431.431,0,0,1,.431.431v0a.431.431,0,0,1-.431.431H.431A.431.431,0,0,1,0,.431v0A.431.431,0,0,1,.431,0Z" fill="#daeef7"/>
        <path id="Trazado_629386" data-name="Trazado 629386" d="M598.207,1446.506a2.484,2.484,0,0,0-.745.114l.818,4.861a2.488,2.488,0,0,0-.073-4.975Z" transform="translate(-596.6 -1444.375)" fill="#daeef7" opacity="0.3"/>
      </g>
      <path id="Trazado_629387" data-name="Trazado 629387" d="M491.066,663.6h0a3.411,3.411,0,0,0-2.948-3.379v-4.343a5.557,5.557,0,0,0-5.557-5.557H478.6c-1.807,15.708-6.668,39.468-19.744,52.008a5.57,5.57,0,0,0,1.331.162h4.422a1.446,1.446,0,0,1,1.446,1.446v1.586h10.64v-1.586a1.446,1.446,0,0,1,1.446-1.446h4.422a5.557,5.557,0,0,0,5.557-5.557v-.482a3.411,3.411,0,0,0,2.948-3.379h0a3.411,3.411,0,0,0-2.948-3.379V666.975A3.411,3.411,0,0,0,491.066,663.6Z" transform="translate(-451.81 -650.318)" fill="#daeef7" opacity="0.3" style="mix-blend-mode: multiply;isolation: isolate"/>
      <ellipse id="Elipse_7744" data-name="Elipse 7744" cx="16.745" cy="1.015" rx="16.745" ry="1.015" transform="translate(2.819 25.983)" fill="#daeef7" style="mix-blend-mode: multiply;isolation: isolate"/>
      <path id="Trazado_629388" data-name="Trazado 629388" d="M429.566,914.084V901.715c-.055.558-7.53,1.009-16.744,1.009-9.248,0-16.745-.454-16.745-1.015v12.4a3.41,3.41,0,0,0,0,6.717v.5a5.557,5.557,0,0,0,5.557,5.557h4.422a1.446,1.446,0,0,1,1.446,1.446v1.586h10.64v-1.586a1.446,1.446,0,0,1,1.446-1.446h4.422a5.557,5.557,0,0,0,5.557-5.557v-.482a3.41,3.41,0,0,0,0-6.757Z" transform="translate(-393.258 -874.711)" fill="#daeef7" opacity="0.3" style="mix-blend-mode: multiply;isolation: isolate"/>
    </g>
    <g id="Grupo_954435" data-name="Grupo 954435" transform="translate(277.624 280.263)">
      <path id="Trazado_629389" data-name="Trazado 629389" d="M1142.568,1837.468v4.9a.733.733,0,0,1-.734.733h-11.494a.83.83,0,0,1-.447-1.531l6.3-4.1A6.454,6.454,0,0,0,1142.568,1837.468Z" transform="translate(-1094.92 -1670.231)" fill="#07085b"/>
      <path id="Trazado_629390" data-name="Trazado 629390" d="M1487.1,1837.468v4.9a.734.734,0,0,0,.734.733h11.494a.83.83,0,0,0,.447-1.531l-6.3-4.1A6.455,6.455,0,0,1,1487.1,1837.468Z" transform="translate(-1414.114 -1670.231)" fill="#07085b"/>
      <path id="Trazado_629391" data-name="Trazado 629391" d="M839.012,654.365s1.22,1.081,1.22,1.6,1.045,5.421,1.045,7.62-6.339,3.91-6.339,3.91l-1.621-3.9s.869-7.364.981-7.364S839.012,654.365,839.012,654.365Z" transform="translate(-830.539 -614.188)" fill="#ffc0bb"/>
      <g id="Grupo_954433" data-name="Grupo 954433" transform="translate(0 37.299)">
        <path id="Trazado_629392" data-name="Trazado 629392" d="M819.47,629.278l-2.278.13-3.282.187,2.557,11.244,1.371-.078,2.278-.13,1.371-.078,1.266-11.461Z" transform="translate(-813.217 -628.929)" fill="#ff5b7e"/>
        <path id="Trazado_629393" data-name="Trazado 629393" d="M817.4,628.785l-9.546.543a.353.353,0,0,1-.373-.333l-.029-.507a.353.353,0,0,1,.333-.373l9.546-.543a.353.353,0,0,1,.373.333l.029.507A.353.353,0,0,1,817.4,628.785Z" transform="translate(-807.454 -627.572)" fill="#daeef7"/>
        <path id="Trazado_629394" data-name="Trazado 629394" d="M821.27,659.479a3.505,3.505,0,0,0-1.039.219l1.54,6.772a3.5,3.5,0,0,0-.5-6.991Z" transform="translate(-818.859 -656.047)" fill="#daeef7" opacity="0.3"/>
      </g>
      <path id="Trazado_629395" data-name="Trazado 629395" d="M1138.05,1032.1c5.978,7.386,17.923,18.041,17.923,18.041h0l-5.808,69.838s-5.721.988-8.463-.751C1141.7,1119.229,1137.66,1052.83,1138.05,1032.1Z" transform="translate(-1102.521 -951.357)" fill="#333"/>
      <path id="Trazado_629396" data-name="Trazado 629396" d="M1140.5,996.79c.02-1.047-2.308,2.04-2.265,1.2.914-17.385,29.928-2.808,29.928-2.808l7.082,6.085,9.266,80.524s-4.666,1.951-8.837.632l-19.513-69.468S1149.777,1010.711,1140.5,996.79Z" transform="translate(-1102.708 -913.301)" fill="#333"/>
      <path id="Trazado_629397" data-name="Trazado 629397" d="M1313.866,507.831l.033,8.014-7.8-1.2,1.3-9.012Z" transform="translate(-1252.549 -481.429)" fill="#ffc0bb"/>
      <path id="Trazado_629398" data-name="Trazado 629398" d="M1312.639,509.782l.6-4.149,6.47,2.957,0,1.582A11.782,11.782,0,0,1,1312.639,509.782Z" transform="translate(-1258.385 -481.429)" fill="#fc8d84" opacity="0.6"/>
      <path id="Trazado_629399" data-name="Trazado 629399" d="M1270.331,368.42l-.471,5.5.87.546,1.609-6.7Z" transform="translate(-1220.199 -358.371)" fill="#07085b"/>
      <path id="Trazado_629400" data-name="Trazado 629400" d="M1254.678,403.656a1.886,1.886,0,1,1-2.241-1.91A2.106,2.106,0,0,1,1254.678,403.656Z" transform="translate(-1203.375 -388.676)" fill="#f99893"/>
      <path id="Trazado_629401" data-name="Trazado 629401" d="M1270.7,343.28a9.533,9.533,0,0,1-.409-1.72,18.136,18.136,0,0,1-.077-4.62c.03-.3.043-.6.051-.9a9.827,9.827,0,1,1,19.463,2.159,2.126,2.126,0,0,1,1.905.229,2.96,2.96,0,0,1-3.348,4.707,1.869,1.869,0,0,1-.377-.359,9.217,9.217,0,0,1-10.641,6.476,8.819,8.819,0,0,1-5.377-3.611,4.355,4.355,0,0,1-.265-.37A8.5,8.5,0,0,1,1270.7,343.28Z" transform="translate(-1220.416 -321.496)" fill="#ffc0bb"/>
      <path id="Trazado_629402" data-name="Trazado 629402" d="M1370.576,421.7a.858.858,0,1,0,.832-.535A.858.858,0,0,0,1370.576,421.7Z" transform="translate(-1310.044 -406.028)" fill="#333"/>
      <path id="Trazado_629403" data-name="Trazado 629403" d="M1302.586,411.534a.858.858,0,1,0,.832-.535A.858.858,0,0,0,1302.586,411.534Z" transform="translate(-1249.356 -396.958)" fill="#333"/>
      <path id="Trazado_629404" data-name="Trazado 629404" d="M1364.642,404.172a8.069,8.069,0,0,1,1.282-.137,4.243,4.243,0,0,1,1.192.141,3.923,3.923,0,0,1,1.1.475l.135.077c.045.026.083.062.127.09l.261.183c.175.126.332.275.527.4a3.79,3.79,0,0,0-.3-.611,3.117,3.117,0,0,0-.449-.529,2.793,2.793,0,0,0-1.235-.688,2.923,2.923,0,0,0-1.412-.024A2.706,2.706,0,0,0,1364.642,404.172Z" transform="translate(-1304.803 -390.245)" fill="#07085b"/>
      <path id="Trazado_629405" data-name="Trazado 629405" d="M1293.214,392.989a2.706,2.706,0,0,0-.957-.977,2.921,2.921,0,0,0-1.346-.43,2.8,2.8,0,0,0-1.391.257,3.117,3.117,0,0,0-.595.357,3.775,3.775,0,0,0-.484.482c.226-.059.423-.15.629-.213l.306-.09c.051-.013.1-.034.149-.045l.153-.029a3.933,3.933,0,0,1,1.191-.1,4.242,4.242,0,0,1,1.175.248A8.045,8.045,0,0,1,1293.214,392.989Z" transform="translate(-1236.785 -379.622)" fill="#07085b"/>
      <path id="Trazado_629406" data-name="Trazado 629406" d="M1328.482,406.009a6.583,6.583,0,0,1-.1,1.845,5.066,5.066,0,0,1-.26.911,2.4,2.4,0,0,1-.549.861c-.307.24-.446.307-.538.531a.829.829,0,0,0,.047.667,2.553,2.553,0,0,0,1.275,1.09,2.09,2.09,0,0,1-1.674-.864,1.259,1.259,0,0,1-.174-1.077,1.559,1.559,0,0,1,.668-.782,2.283,2.283,0,0,0,.437-.65,7.74,7.74,0,0,0,.327-.806C1328.131,407.176,1328.3,406.6,1328.482,406.009Z" transform="translate(-1270.717 -392.504)" fill="#f99893"/>
      <path id="Trazado_629407" data-name="Trazado 629407" d="M1195.517,571.875h5.1c3.819,3.828,7.524,0,7.524,0h3.425s9.066,47.558-4.009,49.941-19.938-1.842-19.938-1.842V597.658Z" transform="translate(-1146.795 -540.557)" fill="#daeef7"/>
      <path id="Trazado_629408" data-name="Trazado 629408" d="M892.734,571.875s-3.852.217-10.579,8.341-10.85,26.975-17.9,20.15-9.44-10.292-9.44-10.292a17.881,17.881,0,0,0-6.4,3.792s12.369,22.75,18.12,23.941S884.84,607.3,884.84,607.3Z" transform="translate(-844.011 -540.557)" fill="#446284"/>
      <path id="Trazado_629409" data-name="Trazado 629409" d="M1349.618,571.875s14.322,2.275,15.625,4.387,13.412,41.715,4.623,58.128a16.529,16.529,0,0,1-8.832.209v4.387s-11.091,2.763-18.74,0C1342.293,638.987,1341.642,586.5,1349.618,571.875Z" transform="translate(-1284.843 -540.557)" fill="#55769f"/>
      <path id="Trazado_629410" data-name="Trazado 629410" d="M1129.906,571.875s-7.324,54.274-5.208,65.162c0,0-6.673.488-10.579-.975C1114.119,636.062,1113.794,575.287,1129.906,571.875Z" transform="translate(-1081.184 -540.557)" fill="#55769f"/>
      <path id="Trazado_629411" data-name="Trazado 629411" d="M1349.618,571.875l4.909,7.625-12.234,59.486S1341.642,586.5,1349.618,571.875Z" transform="translate(-1284.843 -540.557)" fill="#446284"/>
      <path id="Trazado_629412" data-name="Trazado 629412" d="M1192.188,578.387l5.852-6.512s-7.324,54.274-5.208,65.162C1187.878,625.152,1192.188,578.387,1192.188,578.387Z" transform="translate(-1149.318 -540.557)" fill="#446284"/>
      <g id="Grupo_954434" data-name="Grupo 954434" transform="translate(60.349 80.924)">
        <path id="Trazado_629413" data-name="Trazado 629413" d="M1370.767,1087.313l.374-1.506a1.272,1.272,0,0,1,2.469.611l-1.583,6.375a1.272,1.272,0,0,1-2.469-.611l.374-1.506a.718.718,0,0,1-.525-.869l.489-1.969A.719.719,0,0,1,1370.767,1087.313Z" transform="translate(-1369.387 -1079.358)" fill="#daeef7"/>
        <path id="Trazado_629414" data-name="Trazado 629414" d="M1373.03,1054.688l26.788,6.632a2.087,2.087,0,0,0,2.526-1.523l4.171-16.8a2.086,2.086,0,0,0-1.524-2.528l-26.788-6.632a2.087,2.087,0,0,0-2.526,1.522l-4.171,16.8A2.086,2.086,0,0,0,1373.03,1054.688Z" transform="translate(-1371.224 -1033.78)" fill="#07085b"/>
      </g>
      <path id="Trazado_629415" data-name="Trazado 629415" d="M1497.859,1156.123l1.931.482s1.539.112,1.6.1,1.709-.06,1.709-.06l2.7-.5c-.4,1.742-1.932,7.936-2.15,7.931-.25-.007-.509-2.892-.783-2.8s-1.191,3.974-1.435,3.717.167-3.938-.063-3.923-1.061,3.769-1.558,3.631.55-4.22.11-4.169-1.408,4.26-1.841,4.061c-.365-.168.6-4.9.92-6.4a.25.25,0,0,0-.337-.282c-2.846,1.113-3.132,1.033-3.183.693A16.968,16.968,0,0,1,1497.859,1156.123Z" transform="translate(-1421.583 -1062.06)" fill="#ffc0bb"/>
      <path id="Trazado_629416" data-name="Trazado 629416" d="M1526.492,1035.518s-1.266,8.554-2.777,9.672a17.788,17.788,0,0,1-8.975.306v-4.226l-.1-9.169h6.555Z" transform="translate(-1438.692 -951.357)" fill="#55769f"/>
      <path id="Trazado_629417" data-name="Trazado 629417" d="M1467.787,755.413l.334,1.338c.111.446.205.9.309,1.344l.152.673.141.675c.093.45.19.9.276,1.351q.524,2.708.936,5.436t.715,5.469q.615,5.481.9,10.99c.186,3.639.294,7.281.255,10.927a7.157,7.157,0,0,0,1.856.488,12.838,12.838,0,0,0,2.039.1,19.947,19.947,0,0,0,2.046-.155c.679-.087,1.358-.192,2.028-.341a20.477,20.477,0,0,1-2.016.43,20.081,20.081,0,0,1-2.053.227,13.059,13.059,0,0,1-2.073-.034,7.019,7.019,0,0,1-2.032-.492l-.084-.035v-.1c-.055-3.666-.213-7.334-.436-10.994s-.526-7.317-.914-10.964c-.2-1.822-.419-3.643-.668-5.459s-.529-3.628-.847-5.434-.672-3.6-1.068-5.4-.86-3.567-1.366-5.332C1466.813,751.867,1467.32,753.635,1467.787,755.413Z" transform="translate(-1395.468 -699.669)" fill="#daeef7"/>
      <path id="Trazado_629418" data-name="Trazado 629418" d="M1261.721,288.6c-2.6,4.858,8.132,2.163,8.132,2.163-1.679,2.506,7.531-.516,7.531-.516l.009.013c-.572,4.467,2.4,12.228-3.848,14.838a5.2,5.2,0,0,0-.82-2.7,5.32,5.32,0,0,0-4.006-2.15,5.531,5.531,0,0,0-4.6,1.116,4.464,4.464,0,0,0-1.181,1.834,11.284,11.284,0,0,1-1.673-5.85s-2.959,12.294,6.421,13.71,12.657-9.124,12.115-12.86a2.519,2.519,0,0,1,1.114-1.227,1.945,1.945,0,0,1,1.674.085.487.487,0,0,0,.082.053h0c5.224-22.156-15.674-16.708-19.239-14.963s-.67,2.3-.67,2.3C1257.764,288,1261.721,288.6,1261.721,288.6Zm10.944,16.811a14.8,14.8,0,0,1-3.776.559,6.6,6.6,0,0,1-5.267-1.939,3.84,3.84,0,0,1,1.1-2.03,4.713,4.713,0,0,1,3.887-.885,4,4,0,0,1,4.053,4.3Z" transform="translate(-1211.609 -280.263)" fill="#07085b"/>
      <path id="Trazado_629419" data-name="Trazado 629419" d="M1315.35,480.045a5.207,5.207,0,0,1-1.25.5,4.026,4.026,0,0,1-1.322.119,3.438,3.438,0,0,1-1.268-.37,4.787,4.787,0,0,1-1.079-.8,3.657,3.657,0,0,0,1.02.907,3.239,3.239,0,0,0,.632.284,3.426,3.426,0,0,0,.681.137,3.592,3.592,0,0,0,1.369-.16A3.944,3.944,0,0,0,1315.35,480.045Z" transform="translate(-1256.415 -458.098)" fill="#f99893"/>
      <path id="Trazado_629420" data-name="Trazado 629420" d="M814.325,651.914c.813-.587,2.536-1.774,2.9-1.573.479.266-2.061,2.36-1.87,2.492s3.043-.832,3.121-.473c.07.321-2.627,1.673-2.6,1.867s2.738-.274,2.893.048c.14.29-2.581,1.182-2.595,1.31-.118,1.075,2.878.649,2.936,1,.042.254-1.947.656-3.087.865l.456,2.2-.423.322L814,652.741A.829.829,0,0,1,814.325,651.914Z" transform="translate(-813.28 -610.576)" fill="#ffc0bb"/>
      <path id="Trazado_629421" data-name="Trazado 629421" d="M1425.618,383.637a6.945,6.945,0,0,1-4.226,1.383,8.085,8.085,0,0,1-1.862-.219q-.021-.329-.035-.65a6.529,6.529,0,0,0,6.161-1.354Q1425.646,383.207,1425.618,383.637Z" transform="translate(-1353.766 -371.785)" fill="#daeef7"/>
      <path id="Trazado_629422" data-name="Trazado 629422" d="M1419.323,362.17q.009-.324.034-.632c.67.129,4.031.626,6.042-1.842.033.276.059.56.078.854a6.575,6.575,0,0,1-4.694,1.741A8.7,8.7,0,0,1,1419.323,362.17Z" transform="translate(-1353.611 -351.165)" fill="#daeef7"/>
    </g>
  </g>
</svg>
