<svg xmlns="http://www.w3.org/2000/svg" xmlns:xlink="http://www.w3.org/1999/xlink" width="1177" height="289.165" viewBox="0 0 1177 289.165">
  <defs>
    <filter id="Rectángulo_308532" x="0" y="63.421" width="144" height="115" filterUnits="userSpaceOnUse">
      <feOffset dy="3" input="SourceAlpha"/>
      <feGaussianBlur stdDeviation="3" result="blur"/>
      <feFlood flood-opacity="0.161"/>
      <feComposite operator="in" in2="blur"/>
      <feComposite in="SourceGraphic"/>
    </filter>
    <filter id="Rectángulo_308533" x="151" y="63.421" width="144" height="115" filterUnits="userSpaceOnUse">
      <feOffset dy="3" input="SourceAlpha"/>
      <feGaussianBlur stdDeviation="3" result="blur-2"/>
      <feFlood flood-opacity="0.161"/>
      <feComposite operator="in" in2="blur-2"/>
      <feComposite in="SourceGraphic"/>
    </filter>
    <filter id="Rectángulo_308534" x="297" y="63.421" width="144" height="115" filterUnits="userSpaceOnUse">
      <feOffset dy="3" input="SourceAlpha"/>
      <feGaussianBlur stdDeviation="3" result="blur-3"/>
      <feFlood flood-opacity="0.161"/>
      <feComposite operator="in" in2="blur-3"/>
      <feComposite in="SourceGraphic"/>
    </filter>
    <filter id="Rectángulo_308535" x="443" y="63.421" width="144" height="115" filterUnits="userSpaceOnUse">
      <feOffset dy="3" input="SourceAlpha"/>
      <feGaussianBlur stdDeviation="3" result="blur-4"/>
      <feFlood flood-opacity="0.161"/>
      <feComposite operator="in" in2="blur-4"/>
      <feComposite in="SourceGraphic"/>
    </filter>
    <filter id="Rectángulo_308536" x="591" y="63.421" width="144" height="115" filterUnits="userSpaceOnUse">
      <feOffset dy="3" input="SourceAlpha"/>
      <feGaussianBlur stdDeviation="3" result="blur-5"/>
      <feFlood flood-opacity="0.161"/>
      <feComposite operator="in" in2="blur-5"/>
      <feComposite in="SourceGraphic"/>
    </filter>
    <filter id="Rectángulo_308537" x="739" y="63.421" width="144" height="115" filterUnits="userSpaceOnUse">
      <feOffset dy="3" input="SourceAlpha"/>
      <feGaussianBlur stdDeviation="3" result="blur-6"/>
      <feFlood flood-opacity="0.161"/>
      <feComposite operator="in" in2="blur-6"/>
      <feComposite in="SourceGraphic"/>
    </filter>
    <filter id="Rectángulo_308538" x="887" y="63.421" width="144" height="115" filterUnits="userSpaceOnUse">
      <feOffset dy="3" input="SourceAlpha"/>
      <feGaussianBlur stdDeviation="3" result="blur-7"/>
      <feFlood flood-opacity="0.161"/>
      <feComposite operator="in" in2="blur-7"/>
      <feComposite in="SourceGraphic"/>
    </filter>
    <filter id="Rectángulo_308539" x="1033" y="63.421" width="144" height="115" filterUnits="userSpaceOnUse">
      <feOffset dy="3" input="SourceAlpha"/>
      <feGaussianBlur stdDeviation="3" result="blur-8"/>
      <feFlood flood-opacity="0.161"/>
      <feComposite operator="in" in2="blur-8"/>
      <feComposite in="SourceGraphic"/>
    </filter>
  </defs>
  <g id="Grupo_969349" data-name="Grupo 969349" transform="translate(-191 -1484.579)">
    <path id="Trazado_646640" data-name="Trazado 646640" d="M-64.551-2.373h5.37V0h-8.455V-12.8h3.085Zm6.161-2.47a5.613,5.613,0,0,1,.554-2.536,3.96,3.96,0,0,1,1.591-1.709,4.791,4.791,0,0,1,2.435-.6,4.373,4.373,0,0,1,3.366,1.323,5.076,5.076,0,0,1,1.23,3.6v.105a4.925,4.925,0,0,1-1.235,3.529A4.384,4.384,0,0,1-53.793.176a4.434,4.434,0,0,1-3.261-1.217,4.761,4.761,0,0,1-1.327-3.3Zm2.962.185a3.538,3.538,0,0,0,.413,1.934,1.376,1.376,0,0,0,1.222.615q1.582,0,1.617-2.435v-.3q0-2.558-1.635-2.558-1.485,0-1.608,2.206Zm7.172-.167a6.421,6.421,0,0,1,.475-2.549,3.821,3.821,0,0,1,1.362-1.709,3.591,3.591,0,0,1,2.065-.6,2.855,2.855,0,0,1,2.32,1l.105-.826h2.689V-.36a4.009,4.009,0,0,1-.584,2.184,3.75,3.75,0,0,1-1.692,1.424,6.219,6.219,0,0,1-2.566.5,5.365,5.365,0,0,1-2.026-.4,3.657,3.657,0,0,1-1.5-1.028L-46.367.58a2.716,2.716,0,0,0,2.18.976A1.764,1.764,0,0,0-42.218-.466v-.3a2.781,2.781,0,0,1-2.153.94,3.437,3.437,0,0,1-2.812-1.332A5.517,5.517,0,0,1-48.256-4.72Zm2.971.185a3.383,3.383,0,0,0,.439,1.85,1.386,1.386,0,0,0,1.23.681,1.573,1.573,0,0,0,1.4-.642v-4A1.534,1.534,0,0,0-43.6-7.4a1.4,1.4,0,0,0-1.239.708A3.858,3.858,0,0,0-45.286-4.641ZM-34.326,0h-2.979V-9.51h2.979Zm-1.107-13.324H-32.3l-2.443,2.76-2.417,0Zm7.989,10.652a.684.684,0,0,0-.4-.606,6.016,6.016,0,0,0-1.5-.475A6.853,6.853,0,0,1-31.17-4.4a3.062,3.062,0,0,1-1.1-.971,2.319,2.319,0,0,1-.378-1.31,2.628,2.628,0,0,1,1.081-2.158,4.453,4.453,0,0,1,2.83-.848,4.934,4.934,0,0,1,3.023.853A2.666,2.666,0,0,1-24.57-6.592h-2.971q0-1.143-1.2-1.143a1.194,1.194,0,0,0-.782.259.8.8,0,0,0-.316.646.737.737,0,0,0,.387.642,3.654,3.654,0,0,0,1.235.4,10.671,10.671,0,0,1,1.49.378A2.706,2.706,0,0,1-24.587-2.76,2.491,2.491,0,0,1-25.743-.642a5.068,5.068,0,0,1-2.993.817,5.172,5.172,0,0,1-2.18-.439,3.645,3.645,0,0,1-1.494-1.2,2.707,2.707,0,0,1-.536-1.591h2.769a1.145,1.145,0,0,0,.439.962,1.808,1.808,0,0,0,1.081.3,1.422,1.422,0,0,0,.91-.246A.787.787,0,0,0-27.444-2.672Zm7.69-9.2V-9.51h1.564v2.057h-1.564V-3.1a1.111,1.111,0,0,0,.193.747,1.037,1.037,0,0,0,.765.211,4.345,4.345,0,0,0,.738-.053V-.079a5.466,5.466,0,0,1-1.67.255,3.1,3.1,0,0,1-2.259-.721,2.954,2.954,0,0,1-.729-2.188v-4.72h-1.213V-9.51h1.213v-2.364ZM-13.9,0h-2.971V-9.51H-13.9Zm-3.146-11.971a1.334,1.334,0,0,1,.457-1.043,1.718,1.718,0,0,1,1.187-.407,1.718,1.718,0,0,1,1.187.407,1.334,1.334,0,0,1,.457,1.043,1.334,1.334,0,0,1-.457,1.043,1.718,1.718,0,0,1-1.187.407,1.718,1.718,0,0,1-1.187-.407A1.334,1.334,0,0,1-17.046-11.971Zm8.991,9.861a1.317,1.317,0,0,0,.967-.338,1.241,1.241,0,0,0,.334-.945h2.777A3.288,3.288,0,0,1-5.1-.826a4.168,4.168,0,0,1-2.887,1,4.22,4.22,0,0,1-3.27-1.3,5.125,5.125,0,0,1-1.2-3.6v-.123A5.792,5.792,0,0,1-11.918-7.4a3.872,3.872,0,0,1,1.534-1.7,4.573,4.573,0,0,1,2.373-.593A4.116,4.116,0,0,1-5.067-8.657a3.647,3.647,0,0,1,1.09,2.786H-6.754A1.626,1.626,0,0,0-7.115-7a1.244,1.244,0,0,0-.967-.4q-1.151,0-1.345,1.468a10.357,10.357,0,0,0-.062,1.283,4.068,4.068,0,0,0,.343,1.986A1.187,1.187,0,0,0-8.055-2.109ZM2.632,0a3.344,3.344,0,0,1-.281-.853A2.754,2.754,0,0,1,.066.176,3.374,3.374,0,0,1-2.219-.637a2.588,2.588,0,0,1-.94-2.043A2.66,2.66,0,0,1-2.017-5.019,5.821,5.821,0,0,1,1.305-5.81h.914v-.5q0-1.316-1.134-1.316A.927.927,0,0,0,.031-6.587H-2.931A2.655,2.655,0,0,1-1.758-8.825a4.931,4.931,0,0,1,2.993-.86A4.323,4.323,0,0,1,4.109-8.8,3.086,3.086,0,0,1,5.19-6.363v4.21a4.311,4.311,0,0,0,.4,2V0ZM.778-1.934A1.652,1.652,0,0,0,1.7-2.171a1.487,1.487,0,0,0,.523-.536V-4.228H1.358q-1.547,0-1.547,1.389a.848.848,0,0,0,.272.655A.986.986,0,0,0,.778-1.934ZM11.448,0V-12.8H15.57a6.064,6.064,0,0,1,3.05.769,5.406,5.406,0,0,1,2.114,2.171A6.554,6.554,0,0,1,21.5-6.715v.589a6.592,6.592,0,0,1-.743,3.151A5.429,5.429,0,0,1,18.668-.8a5.93,5.93,0,0,1-3.01.8Zm3.085-10.415v8.042H15.6a2.4,2.4,0,0,0,2.039-.945,4.63,4.63,0,0,0,.712-2.808V-6.68a4.592,4.592,0,0,0-.712-2.795,2.442,2.442,0,0,0-2.074-.94ZM26.073,0H23.1V-9.51h2.971ZM22.926-11.971a1.334,1.334,0,0,1,.457-1.043,1.718,1.718,0,0,1,1.187-.407,1.718,1.718,0,0,1,1.187.407,1.334,1.334,0,0,1,.457,1.043,1.334,1.334,0,0,1-.457,1.043,1.718,1.718,0,0,1-1.187.407,1.718,1.718,0,0,1-1.187-.407A1.334,1.334,0,0,1,22.926-11.971ZM33.649-6.829l-.976-.07a1.752,1.752,0,0,0-1.793.879V0H27.918V-9.51H30.7l.1,1.222a2.294,2.294,0,0,1,2.083-1.4,2.888,2.888,0,0,1,.826.105Zm5.5,7a4.889,4.889,0,0,1-3.542-1.305,4.507,4.507,0,0,1-1.354-3.4v-.246A5.84,5.84,0,0,1,34.8-7.348a3.955,3.955,0,0,1,1.578-1.727,4.763,4.763,0,0,1,2.461-.611A4.117,4.117,0,0,1,42-8.442a4.887,4.887,0,0,1,1.16,3.467v1.151H37.27a2.135,2.135,0,0,0,.694,1.257,2.066,2.066,0,0,0,1.389.457,2.662,2.662,0,0,0,2.2-.984l1.354,1.6A3.784,3.784,0,0,1,41.335-.277,5.3,5.3,0,0,1,39.151.176ZM38.817-7.4q-1.3,0-1.547,1.723h2.988v-.229a1.467,1.467,0,0,0-.36-1.1A1.434,1.434,0,0,0,38.817-7.4Zm9.554,5.291a1.317,1.317,0,0,0,.967-.338,1.241,1.241,0,0,0,.334-.945h2.777A3.288,3.288,0,0,1,51.328-.826a4.168,4.168,0,0,1-2.887,1,4.22,4.22,0,0,1-3.27-1.3,5.125,5.125,0,0,1-1.2-3.6v-.123A5.792,5.792,0,0,1,44.508-7.4a3.872,3.872,0,0,1,1.534-1.7,4.573,4.573,0,0,1,2.373-.593,4.116,4.116,0,0,1,2.944,1.028,3.647,3.647,0,0,1,1.09,2.786H49.671A1.626,1.626,0,0,0,49.311-7a1.244,1.244,0,0,0-.967-.4Q47.193-7.4,47-5.933a10.357,10.357,0,0,0-.062,1.283,4.068,4.068,0,0,0,.343,1.986A1.187,1.187,0,0,0,48.371-2.109Zm8.78-9.765V-9.51h1.564v2.057H57.151V-3.1a1.111,1.111,0,0,0,.193.747,1.037,1.037,0,0,0,.765.211,4.345,4.345,0,0,0,.738-.053V-.079a5.466,5.466,0,0,1-1.67.255,3.1,3.1,0,0,1-2.259-.721,2.954,2.954,0,0,1-.729-2.188v-4.72H52.976V-9.51h1.213v-2.364ZM65.237,0a3.344,3.344,0,0,1-.281-.853A2.754,2.754,0,0,1,62.67.176a3.374,3.374,0,0,1-2.285-.813,2.588,2.588,0,0,1-.94-2.043,2.66,2.66,0,0,1,1.143-2.338A5.821,5.821,0,0,1,63.91-5.81h.914v-.5q0-1.316-1.134-1.316a.927.927,0,0,0-1.055,1.042H59.673a2.655,2.655,0,0,1,1.173-2.239,4.931,4.931,0,0,1,2.993-.86,4.323,4.323,0,0,1,2.874.888,3.086,3.086,0,0,1,1.081,2.435v4.21a4.311,4.311,0,0,0,.4,2V0ZM63.382-1.934a1.652,1.652,0,0,0,.918-.237,1.487,1.487,0,0,0,.523-.536V-4.228h-.861q-1.547,0-1.547,1.389a.848.848,0,0,0,.272.655A.986.986,0,0,0,63.382-1.934Z" transform="translate(800 1498)" fill="#12263f"/>
    <path id="Trazado_646639" data-name="Trazado 646639" d="M6623,11741H5604v-21H6623v-20l53,30.5-53,30.5Z" transform="translate(-5361 -10197)" fill="#583cb6"/>
    <path id="Trazado_646641" data-name="Trazado 646641" d="M1019,20H0V41H1019V61l53-30.5L1019,0Z" transform="translate(1315.001 1702) rotate(180)" fill="#57af81"/>
    <g id="Grupo_966839" data-name="Grupo 966839" transform="translate(-3 -21)">
      <g transform="matrix(1, 0, 0, 1, 194, 1505.58)" filter="url(#Rectángulo_308532)">
        <rect id="Rectángulo_308532-2" data-name="Rectángulo 308532" width="126" height="97" transform="translate(9 69.42)" fill="#fff"/>
      </g>
      <text id="Proveedores_Materiales_Primas" data-name="Proveedores
Materiales
Primas" transform="translate(266 1606)" fill="#12263f" font-size="16" font-family="Roboto-Regular, Roboto"><tspan x="-44.551" y="0">Proveedores</tspan><tspan x="-37.492" y="24">Materiales</tspan><tspan x="-25.184" y="48">Primas</tspan></text>
    </g>
    <g id="Grupo_966833" data-name="Grupo 966833" transform="translate(-19 18)">
      <g transform="matrix(1, 0, 0, 1, 210, 1466.58)" filter="url(#Rectángulo_308533)">
        <rect id="Rectángulo_308533-2" data-name="Rectángulo 308533" width="126" height="97" transform="translate(160 69.42)" fill="#fff"/>
      </g>
      <text id="Entrada_de_Materias_Primas" data-name="Entrada de
Materias
Primas" transform="translate(433 1567)" fill="#12263f" font-size="16" font-family="Roboto-Regular, Roboto"><tspan x="-38.07" y="0">Entrada de</tspan><tspan x="-31.313" y="24">Materias</tspan><tspan x="-25.184" y="48">Primas</tspan></text>
    </g>
    <path id="Icon_awesome-arrow-circle-right" data-name="Icon awesome-arrow-circle-right" d="M18,.563A17.438,17.438,0,1,1,.563,18,17.434,17.434,0,0,1,18,.563Zm-2.032,10.1,5.309,5.091H8.438A1.683,1.683,0,0,0,6.75,17.438v1.125A1.683,1.683,0,0,0,8.438,20.25H21.277l-5.309,5.091a1.689,1.689,0,0,0-.028,2.412l.773.766a1.681,1.681,0,0,0,2.384,0l9.33-9.323a1.681,1.681,0,0,0,0-2.384L19.1,7.474a1.681,1.681,0,0,0-2.384,0l-.773.766a1.7,1.7,0,0,0,.028,2.419Z" transform="translate(321.563 1584.5)"/>
    <g id="Grupo_966834" data-name="Grupo 966834" transform="translate(-38 18)">
      <g transform="matrix(1, 0, 0, 1, 229, 1466.58)" filter="url(#Rectángulo_308534)">
        <rect id="Rectángulo_308534-2" data-name="Rectángulo 308534" width="126" height="97" transform="translate(306 69.42)" fill="#fff"/>
      </g>
      <text id="Producción_de_componenetes" data-name="Producción de
componenetes" transform="translate(598 1579)" fill="#12263f" font-size="16" font-family="Roboto-Regular, Roboto"><tspan x="-51.184" y="0">Producción de</tspan><tspan x="-53.094" y="24">componenetes</tspan></text>
    </g>
    <g id="Grupo_966835" data-name="Grupo 966835" transform="translate(-62 18)">
      <g transform="matrix(1, 0, 0, 1, 253, 1466.58)" filter="url(#Rectángulo_308535)">
        <rect id="Rectángulo_308535-2" data-name="Rectángulo 308535" width="126" height="97" transform="translate(452 69.42)" fill="#fff"/>
      </g>
      <text id="Montaje_de_partes" data-name="Montaje de
partes" transform="translate(768 1579)" fill="#12263f" font-size="16" font-family="Roboto-Regular, Roboto"><tspan x="-39.805" y="0">Montaje de</tspan><tspan x="-22.719" y="24">partes</tspan></text>
    </g>
    <g id="Grupo_966836" data-name="Grupo 966836" transform="translate(-83 18)">
      <g transform="matrix(1, 0, 0, 1, 274, 1466.58)" filter="url(#Rectángulo_308536)">
        <rect id="Rectángulo_308536-2" data-name="Rectángulo 308536" width="126" height="97" transform="translate(600 69.42)" fill="#fff"/>
      </g>
      <text id="Montaje_Final" data-name="Montaje
Final" transform="translate(937 1579)" fill="#12263f" font-size="16" font-family="Roboto-Regular, Roboto"><tspan x="-29.074" y="0">Montaje</tspan><tspan x="-17.07" y="24">Final</tspan></text>
    </g>
    <g id="Grupo_966837" data-name="Grupo 966837" transform="translate(-81 18)">
      <g transform="matrix(1, 0, 0, 1, 272, 1466.58)" filter="url(#Rectángulo_308537)">
        <rect id="Rectángulo_308537-2" data-name="Rectángulo 308537" width="126" height="97" transform="translate(748 69.42)" fill="#fff"/>
      </g>
      <text id="Embalaje" transform="translate(1083 1591)" fill="#12263f" font-size="16" font-family="Roboto-Regular, Roboto"><tspan x="-32.84" y="0">Embalaje</tspan></text>
    </g>
    <path id="Icon_awesome-arrow-circle-right-2" data-name="Icon awesome-arrow-circle-right" d="M18,.563A17.438,17.438,0,1,1,.563,18,17.434,17.434,0,0,1,18,.563Zm-2.032,10.1,5.309,5.091H8.438A1.683,1.683,0,0,0,6.75,17.438v1.125A1.683,1.683,0,0,0,8.438,20.25H21.277l-5.309,5.091a1.689,1.689,0,0,0-.028,2.412l.773.766a1.681,1.681,0,0,0,2.384,0l9.33-9.323a1.681,1.681,0,0,0,0-2.384L19.1,7.474a1.681,1.681,0,0,0-2.384,0l-.773.766a1.7,1.7,0,0,0,.028,2.419Z" transform="translate(614.563 1584.5)"/>
    <path id="Icon_awesome-arrow-circle-right-3" data-name="Icon awesome-arrow-circle-right" d="M18,.563A17.438,17.438,0,1,1,.563,18,17.434,17.434,0,0,1,18,.563Zm-2.032,10.1,5.309,5.091H8.438A1.683,1.683,0,0,0,6.75,17.438v1.125A1.683,1.683,0,0,0,8.438,20.25H21.277l-5.309,5.091a1.689,1.689,0,0,0-.028,2.412l.773.766a1.681,1.681,0,0,0,2.384,0l9.33-9.323a1.681,1.681,0,0,0,0-2.384L19.1,7.474a1.681,1.681,0,0,0-2.384,0l-.773.766a1.7,1.7,0,0,0,.028,2.419Z" transform="translate(471.438 1584.5)"/>
    <g id="Grupo_966838" data-name="Grupo 966838" transform="translate(-102 18)">
      <g transform="matrix(1, 0, 0, 1, 293, 1466.58)" filter="url(#Rectángulo_308538)">
        <rect id="Rectángulo_308538-2" data-name="Rectángulo 308538" width="126" height="97" transform="translate(896 69.42)" fill="#fff"/>
      </g>
      <g transform="matrix(1, 0, 0, 1, 293, 1466.58)" filter="url(#Rectángulo_308539)">
        <rect id="Rectángulo_308539-2" data-name="Rectángulo 308539" width="126" height="97" transform="translate(1042 69.42)" fill="#fff"/>
      </g>
      <text id="Distribución" transform="translate(1252 1591)" fill="#12263f" font-size="16" font-family="Roboto-Regular, Roboto"><tspan x="-42.578" y="0">Distribución</tspan></text>
      <text id="Cliente_final" data-name="Cliente final" transform="translate(1398 1591)" fill="#12263f" font-size="16" font-family="Roboto-Regular, Roboto"><tspan x="-41.711" y="0">Cliente final</tspan></text>
    </g>
    <path id="Icon_awesome-arrow-circle-right-4" data-name="Icon awesome-arrow-circle-right" d="M18,.563A17.438,17.438,0,1,1,.563,18,17.434,17.434,0,0,1,18,.563Zm-2.032,10.1,5.309,5.091H8.438A1.683,1.683,0,0,0,6.75,17.438v1.125A1.683,1.683,0,0,0,8.438,20.25H21.277l-5.309,5.091a1.689,1.689,0,0,0-.028,2.412l.773.766a1.681,1.681,0,0,0,2.384,0l9.33-9.323a1.681,1.681,0,0,0,0-2.384L19.1,7.474a1.681,1.681,0,0,0-2.384,0l-.773.766a1.7,1.7,0,0,0,.028,2.419Z" transform="translate(1055.563 1584.5)"/>
    <path id="Icon_awesome-arrow-circle-right-5" data-name="Icon awesome-arrow-circle-right" d="M18,.563A17.438,17.438,0,1,1,.563,18,17.434,17.434,0,0,1,18,.563Zm-2.032,10.1,5.309,5.091H8.438A1.683,1.683,0,0,0,6.75,17.438v1.125A1.683,1.683,0,0,0,8.438,20.25H21.277l-5.309,5.091a1.689,1.689,0,0,0-.028,2.412l.773.766a1.681,1.681,0,0,0,2.384,0l9.33-9.323a1.681,1.681,0,0,0,0-2.384L19.1,7.474a1.681,1.681,0,0,0-2.384,0l-.773.766a1.7,1.7,0,0,0,.028,2.419Z" transform="translate(911.438 1584.5)"/>
    <path id="Icon_awesome-arrow-circle-right-6" data-name="Icon awesome-arrow-circle-right" d="M18,.563A17.438,17.438,0,1,1,.563,18,17.434,17.434,0,0,1,18,.563Zm-2.032,10.1,5.309,5.091H8.438A1.683,1.683,0,0,0,6.75,17.438v1.125A1.683,1.683,0,0,0,8.438,20.25H21.277l-5.309,5.091a1.689,1.689,0,0,0-.028,2.412l.773.766a1.681,1.681,0,0,0,2.384,0l9.33-9.323a1.681,1.681,0,0,0,0-2.384L19.1,7.474a1.681,1.681,0,0,0-2.384,0l-.773.766a1.7,1.7,0,0,0,.028,2.419Z" transform="translate(761.563 1584.5)"/>
    <path id="Icon_awesome-arrow-circle-right-7" data-name="Icon awesome-arrow-circle-right" d="M18,.563A17.438,17.438,0,1,1,.563,18,17.434,17.434,0,0,1,18,.563Zm-2.032,10.1,5.309,5.091H8.438A1.683,1.683,0,0,0,6.75,17.438v1.125A1.683,1.683,0,0,0,8.438,20.25H21.277l-5.309,5.091a1.689,1.689,0,0,0-.028,2.412l.773.766a1.681,1.681,0,0,0,2.384,0l9.33-9.323a1.681,1.681,0,0,0,0-2.384L19.1,7.474a1.681,1.681,0,0,0-2.384,0l-.773.766a1.7,1.7,0,0,0,.028,2.419Z" transform="translate(1206.438 1584.5)"/>
    <path id="Trazado_641370" data-name="Trazado 641370" d="M-4269-10049v71.667H-5339V-10049" transform="translate(5604 11700)" fill="none" stroke="#ef8b53" stroke-width="2"/>
    <path id="Trazado_641371" data-name="Trazado 641371" d="M-5190-10049v63.667h901V-10049" transform="translate(5604 11700)" fill="none" stroke="#ef8b53" stroke-width="2"/>
    <path id="Trazado_641372" data-name="Trazado 641372" d="M-5044-10049v55.667h736V-10049" transform="translate(5604 11700)" fill="none" stroke="#ef8b53" stroke-width="2"/>
    <path id="Trazado_641373" data-name="Trazado 641373" d="M-4899-10049v49h577.667v-49" transform="translate(5604 11700)" fill="none" stroke="#ef8b53" stroke-width="2"/>
    <path id="Trazado_641374" data-name="Trazado 641374" d="M-4750-10049v42.333h415.333V-10049" transform="translate(5604 11700)" fill="none" stroke="#ef8b53" stroke-width="2"/>
    <path id="Trazado_641375" data-name="Trazado 641375" d="M-4604-10049v33h254.667v-33" transform="translate(5604 11700)" fill="none" stroke="#ef8b53" stroke-width="2"/>
    <path id="Trazado_641376" data-name="Trazado 641376" d="M-4450.667-10049v25h89.333v-25" transform="translate(5604 11700)" fill="none" stroke="#ef8b53" stroke-width="2"/>
    <path id="Trazado_646642" data-name="Trazado 646642" d="M-65.571-2.373h5.37V0h-8.455V-12.8h3.085Zm6.161-2.47a5.613,5.613,0,0,1,.554-2.536,3.96,3.96,0,0,1,1.591-1.709,4.791,4.791,0,0,1,2.435-.6,4.373,4.373,0,0,1,3.366,1.323,5.076,5.076,0,0,1,1.23,3.6v.105a4.925,4.925,0,0,1-1.235,3.529A4.384,4.384,0,0,1-54.813.176a4.434,4.434,0,0,1-3.261-1.217,4.761,4.761,0,0,1-1.327-3.3Zm2.962.185a3.538,3.538,0,0,0,.413,1.934,1.376,1.376,0,0,0,1.222.615q1.582,0,1.617-2.435v-.3q0-2.558-1.635-2.558-1.485,0-1.608,2.206Zm7.172-.167A6.421,6.421,0,0,1-48.8-7.374a3.821,3.821,0,0,1,1.362-1.709,3.591,3.591,0,0,1,2.065-.6,2.855,2.855,0,0,1,2.32,1l.105-.826h2.689V-.36a4.009,4.009,0,0,1-.584,2.184,3.75,3.75,0,0,1-1.692,1.424,6.219,6.219,0,0,1-2.566.5,5.365,5.365,0,0,1-2.026-.4,3.657,3.657,0,0,1-1.5-1.028L-47.386.58a2.716,2.716,0,0,0,2.18.976A1.764,1.764,0,0,0-43.238-.466v-.3a2.781,2.781,0,0,1-2.153.94A3.437,3.437,0,0,1-48.2-1.156,5.517,5.517,0,0,1-49.276-4.72Zm2.971.185a3.383,3.383,0,0,0,.439,1.85,1.386,1.386,0,0,0,1.23.681,1.573,1.573,0,0,0,1.4-.642v-4a1.534,1.534,0,0,0-1.38-.65,1.4,1.4,0,0,0-1.239.708A3.858,3.858,0,0,0-46.305-4.641ZM-35.345,0h-2.979V-9.51h2.979Zm-1.107-13.324h3.129l-2.443,2.76-2.417,0Zm7.989,10.652a.684.684,0,0,0-.4-.606,6.016,6.016,0,0,0-1.5-.475A6.853,6.853,0,0,1-32.19-4.4a3.062,3.062,0,0,1-1.1-.971,2.319,2.319,0,0,1-.378-1.31,2.628,2.628,0,0,1,1.081-2.158,4.453,4.453,0,0,1,2.83-.848,4.934,4.934,0,0,1,3.023.853,2.666,2.666,0,0,1,1.143,2.241H-28.56q0-1.143-1.2-1.143a1.194,1.194,0,0,0-.782.259.8.8,0,0,0-.316.646.737.737,0,0,0,.387.642,3.654,3.654,0,0,0,1.235.4,10.671,10.671,0,0,1,1.49.378A2.706,2.706,0,0,1-25.607-2.76,2.491,2.491,0,0,1-26.763-.642a5.068,5.068,0,0,1-2.993.817,5.172,5.172,0,0,1-2.18-.439,3.645,3.645,0,0,1-1.494-1.2,2.707,2.707,0,0,1-.536-1.591H-31.2a1.145,1.145,0,0,0,.439.962,1.808,1.808,0,0,0,1.081.3,1.422,1.422,0,0,0,.91-.246A.787.787,0,0,0-28.463-2.672Zm7.69-9.2V-9.51h1.564v2.057h-1.564V-3.1a1.111,1.111,0,0,0,.193.747,1.037,1.037,0,0,0,.765.211,4.345,4.345,0,0,0,.738-.053V-.079a5.466,5.466,0,0,1-1.67.255,3.1,3.1,0,0,1-2.259-.721,2.954,2.954,0,0,1-.729-2.188v-4.72h-1.213V-9.51h1.213v-2.364ZM-14.919,0H-17.89V-9.51h2.971Zm-3.146-11.971a1.334,1.334,0,0,1,.457-1.043,1.718,1.718,0,0,1,1.187-.407,1.718,1.718,0,0,1,1.187.407,1.334,1.334,0,0,1,.457,1.043,1.334,1.334,0,0,1-.457,1.043,1.718,1.718,0,0,1-1.187.407,1.718,1.718,0,0,1-1.187-.407A1.334,1.334,0,0,1-18.066-11.971Zm8.991,9.861a1.317,1.317,0,0,0,.967-.338,1.241,1.241,0,0,0,.334-.945H-5A3.288,3.288,0,0,1-6.117-.826,4.168,4.168,0,0,1-9,.176a4.22,4.22,0,0,1-3.27-1.3,5.125,5.125,0,0,1-1.2-3.6v-.123A5.792,5.792,0,0,1-12.937-7.4a3.872,3.872,0,0,1,1.534-1.7,4.573,4.573,0,0,1,2.373-.593A4.116,4.116,0,0,1-6.086-8.657,3.647,3.647,0,0,1-5-5.871H-7.774A1.626,1.626,0,0,0-8.134-7,1.244,1.244,0,0,0-9.1-7.4q-1.151,0-1.345,1.468a10.357,10.357,0,0,0-.062,1.283,4.068,4.068,0,0,0,.343,1.986A1.187,1.187,0,0,0-9.075-2.109ZM1.613,0a3.344,3.344,0,0,1-.281-.853A2.754,2.754,0,0,1-.954.176,3.374,3.374,0,0,1-3.239-.637a2.588,2.588,0,0,1-.94-2.043A2.66,2.66,0,0,1-3.037-5.019,5.821,5.821,0,0,1,.286-5.81H1.2v-.5Q1.2-7.629.066-7.629A.927.927,0,0,0-.989-6.587H-3.951A2.655,2.655,0,0,1-2.777-8.825a4.931,4.931,0,0,1,2.993-.86A4.323,4.323,0,0,1,3.089-8.8,3.086,3.086,0,0,1,4.17-6.363v4.21a4.311,4.311,0,0,0,.4,2V0ZM-.242-1.934a1.652,1.652,0,0,0,.918-.237A1.487,1.487,0,0,0,1.2-2.707V-4.228H.338q-1.547,0-1.547,1.389a.848.848,0,0,0,.272.655A.986.986,0,0,0-.242-1.934ZM13.715,0H10.639V-12.8h3.076Zm4.729-9.51.1,1.116a3.225,3.225,0,0,1,2.716-1.292,2.713,2.713,0,0,1,2.219.888,4.226,4.226,0,0,1,.76,2.672V0H21.265V-6a1.6,1.6,0,0,0-.29-1.059A1.342,1.342,0,0,0,19.92-7.4a1.413,1.413,0,0,0-1.292.686V0H15.667V-9.51ZM29.667-3.524l1.5-5.985h3.12L31.188,0H28.165l-3.1-9.51h3.129Zm9.993,3.7a4.889,4.889,0,0,1-3.542-1.305,4.507,4.507,0,0,1-1.354-3.4v-.246a5.84,5.84,0,0,1,.541-2.575,3.955,3.955,0,0,1,1.578-1.727,4.763,4.763,0,0,1,2.461-.611,4.117,4.117,0,0,1,3.164,1.244,4.887,4.887,0,0,1,1.16,3.467v1.151H37.78a2.135,2.135,0,0,0,.694,1.257,2.066,2.066,0,0,0,1.389.457,2.662,2.662,0,0,0,2.2-.984l1.354,1.6A3.784,3.784,0,0,1,41.845-.277,5.3,5.3,0,0,1,39.661.176ZM39.327-7.4q-1.3,0-1.547,1.723h2.988v-.229a1.467,1.467,0,0,0-.36-1.1A1.434,1.434,0,0,0,39.327-7.4Zm11.285.571-.976-.07a1.752,1.752,0,0,0-1.793.879V0H44.881V-9.51h2.777l.1,1.222a2.294,2.294,0,0,1,2.083-1.4,2.888,2.888,0,0,1,.826.105Zm6.047,4.157a.684.684,0,0,0-.4-.606,6.016,6.016,0,0,0-1.5-.475A6.853,6.853,0,0,1,52.932-4.4a3.062,3.062,0,0,1-1.1-.971,2.319,2.319,0,0,1-.378-1.31,2.628,2.628,0,0,1,1.081-2.158,4.453,4.453,0,0,1,2.83-.848,4.934,4.934,0,0,1,3.023.853,2.666,2.666,0,0,1,1.143,2.241H56.562q0-1.143-1.2-1.143a1.194,1.194,0,0,0-.782.259.8.8,0,0,0-.316.646.737.737,0,0,0,.387.642,3.654,3.654,0,0,0,1.235.4,10.671,10.671,0,0,1,1.49.378A2.706,2.706,0,0,1,59.515-2.76,2.491,2.491,0,0,1,58.359-.642a5.068,5.068,0,0,1-2.993.817,5.172,5.172,0,0,1-2.18-.439,3.645,3.645,0,0,1-1.494-1.2,2.707,2.707,0,0,1-.536-1.591h2.769a1.145,1.145,0,0,0,.439.962,1.808,1.808,0,0,0,1.081.3,1.422,1.422,0,0,0,.91-.246A.787.787,0,0,0,56.659-2.672ZM66.256,0a3.344,3.344,0,0,1-.281-.853A2.754,2.754,0,0,1,63.69.176,3.374,3.374,0,0,1,61.4-.637a2.588,2.588,0,0,1-.94-2.043,2.66,2.66,0,0,1,1.143-2.338,5.821,5.821,0,0,1,3.322-.791h.914v-.5q0-1.316-1.134-1.316a.927.927,0,0,0-1.055,1.042H60.693a2.655,2.655,0,0,1,1.173-2.239,4.931,4.931,0,0,1,2.993-.86,4.323,4.323,0,0,1,2.874.888,3.086,3.086,0,0,1,1.081,2.435v4.21a4.311,4.311,0,0,0,.4,2V0ZM64.4-1.934a1.652,1.652,0,0,0,.918-.237,1.487,1.487,0,0,0,.523-.536V-4.228h-.861q-1.547,0-1.547,1.389a.848.848,0,0,0,.272.655A.986.986,0,0,0,64.4-1.934Z" transform="translate(800 1770)" fill="#12263f"/>
    <path id="Trazado_641377" data-name="Trazado 641377" d="M-5176-10049v39h116.667v-39" transform="translate(5604 11700)" fill="none" stroke="#583cb6" stroke-width="2"/>
    <path id="Trazado_641384" data-name="Trazado 641384" d="M-5176-10049v39h82v-39" transform="translate(5484 11700)" fill="none" stroke="#583cb6" stroke-width="2"/>
    <path id="Trazado_641378" data-name="Trazado 641378" d="M-5176-10049v39h116.667v-39" transform="translate(5750.229 11700)" fill="none" stroke="#583cb6" stroke-width="2"/>
    <path id="Trazado_641379" data-name="Trazado 641379" d="M-5176-10049v39h116.667v-39" transform="translate(5896.668 11700)" fill="none" stroke="#583cb6" stroke-width="2"/>
    <path id="Trazado_641381" data-name="Trazado 641381" d="M-5176-10049v39h116.667v-39" transform="translate(6045 11700)" fill="none" stroke="#583cb6" stroke-width="2"/>
    <path id="Trazado_641382" data-name="Trazado 641382" d="M-5176-10049v39h116.667v-39" transform="translate(6193 11700)" fill="none" stroke="#583cb6" stroke-width="2"/>
    <path id="Trazado_641383" data-name="Trazado 641383" d="M-5176-10049v39h69.667v-39" transform="translate(6349 11700)" fill="none" stroke="#583cb6" stroke-width="2"/>
    <path id="Icon_awesome-arrow-up" data-name="Icon awesome-arrow-up" d="M1.159,8.953.581,8.375a.622.622,0,0,1,0-.883L5.64,2.43a.622.622,0,0,1,.883,0l5.059,5.059a.622.622,0,0,1,0,.883L11,8.95a.626.626,0,0,1-.893-.01L7.124,5.8v7.483a.623.623,0,0,1-.625.625H5.666a.623.623,0,0,1-.625-.625V5.8L2.052,8.942a.621.621,0,0,1-.893.01Z" transform="translate(301.918 1648.754)" fill="#583cb6"/>
    <path id="Icon_awesome-arrow-up-2" data-name="Icon awesome-arrow-up" d="M1.159,8.953.581,8.375a.622.622,0,0,1,0-.883L5.64,2.43a.622.622,0,0,1,.883,0l5.059,5.059a.622.622,0,0,1,0,.883L11,8.95a.626.626,0,0,1-.893-.01L7.124,5.8v7.483a.623.623,0,0,1-.625.625H5.666a.623.623,0,0,1-.625-.625V5.8L2.052,8.942a.621.621,0,0,1-.893.01Z" transform="translate(258.918 1648.754)" fill="#ef8b53"/>
    <path id="Icon_awesome-arrow-up-3" data-name="Icon awesome-arrow-up" d="M1.159,8.953.581,8.375a.622.622,0,0,1,0-.883L5.64,2.43a.622.622,0,0,1,.883,0l5.059,5.059a.622.622,0,0,1,0,.883L11,8.95a.626.626,0,0,1-.893-.01L7.124,5.8v7.483a.623.623,0,0,1-.625.625H5.666a.623.623,0,0,1-.625-.625V5.8L2.052,8.942a.621.621,0,0,1-.893.01Z" transform="translate(407.918 1648.754)" fill="#ef8b53"/>
    <path id="Icon_awesome-arrow-up-4" data-name="Icon awesome-arrow-up" d="M1.159,8.953.581,8.375a.622.622,0,0,1,0-.883L5.64,2.43a.622.622,0,0,1,.883,0l5.059,5.059a.622.622,0,0,1,0,.883L11,8.95a.626.626,0,0,1-.893-.01L7.124,5.8v7.483a.623.623,0,0,1-.625.625H5.666a.623.623,0,0,1-.625-.625V5.8L2.052,8.942a.621.621,0,0,1-.893.01Z" transform="translate(553.918 1648.754)" fill="#ef8b53"/>
    <path id="Icon_awesome-arrow-up-5" data-name="Icon awesome-arrow-up" d="M1.159,8.953.581,8.375a.622.622,0,0,1,0-.883L5.64,2.43a.622.622,0,0,1,.883,0l5.059,5.059a.622.622,0,0,1,0,.883L11,8.95a.626.626,0,0,1-.893-.01L7.124,5.8v7.483a.623.623,0,0,1-.625.625H5.666a.623.623,0,0,1-.625-.625V5.8L2.052,8.942a.621.621,0,0,1-.893.01Z" transform="translate(698.918 1648.754)" fill="#ef8b53"/>
    <path id="Icon_awesome-arrow-up-6" data-name="Icon awesome-arrow-up" d="M1.159,8.953.581,8.375a.622.622,0,0,1,0-.883L5.64,2.43a.622.622,0,0,1,.883,0l5.059,5.059a.622.622,0,0,1,0,.883L11,8.95a.626.626,0,0,1-.893-.01L7.124,5.8v7.483a.623.623,0,0,1-.625.625H5.666a.623.623,0,0,1-.625-.625V5.8L2.052,8.942a.621.621,0,0,1-.893.01Z" transform="translate(847.918 1648.754)" fill="#ef8b53"/>
    <path id="Icon_awesome-arrow-up-7" data-name="Icon awesome-arrow-up" d="M1.159,8.953.581,8.375a.622.622,0,0,1,0-.883L5.64,2.43a.622.622,0,0,1,.883,0l5.059,5.059a.622.622,0,0,1,0,.883L11,8.95a.626.626,0,0,1-.893-.01L7.124,5.8v7.483a.623.623,0,0,1-.625.625H5.666a.623.623,0,0,1-.625-.625V5.8L2.052,8.942a.621.621,0,0,1-.893.01Z" transform="translate(993.918 1648.754)" fill="#ef8b53"/>
    <path id="Icon_awesome-arrow-up-8" data-name="Icon awesome-arrow-up" d="M1.159,8.953.581,8.375a.622.622,0,0,1,0-.883L5.64,2.43a.622.622,0,0,1,.883,0l5.059,5.059a.622.622,0,0,1,0,.883L11,8.95a.626.626,0,0,1-.893-.01L7.124,5.8v7.483a.623.623,0,0,1-.625.625H5.666a.623.623,0,0,1-.625-.625V5.8L2.052,8.942a.621.621,0,0,1-.893.01Z" transform="translate(1147.252 1648.754)" fill="#ef8b53"/>
    <path id="Icon_awesome-arrow-up-9" data-name="Icon awesome-arrow-up" d="M1.159,8.953.581,8.375a.622.622,0,0,1,0-.883L5.64,2.43a.622.622,0,0,1,.883,0l5.059,5.059a.622.622,0,0,1,0,.883L11,8.95a.626.626,0,0,1-.893-.01L7.124,5.8v7.483a.623.623,0,0,1-.625.625H5.666a.623.623,0,0,1-.625-.625V5.8L2.052,8.942a.621.621,0,0,1-.893.01Z" transform="translate(421.918 1648.754)" fill="#583cb6"/>
    <path id="Icon_awesome-arrow-up-10" data-name="Icon awesome-arrow-up" d="M1.159,8.953.581,8.375a.622.622,0,0,1,0-.883L5.64,2.43a.622.622,0,0,1,.883,0l5.059,5.059a.622.622,0,0,1,0,.883L11,8.95a.626.626,0,0,1-.893-.01L7.124,5.8v7.483a.623.623,0,0,1-.625.625H5.666a.623.623,0,0,1-.625-.625V5.8L2.052,8.942a.621.621,0,0,1-.893.01Z" transform="translate(568.234 1648.754)" fill="#583cb6"/>
    <path id="Icon_awesome-arrow-up-11" data-name="Icon awesome-arrow-up" d="M1.159,8.953.581,8.375a.622.622,0,0,1,0-.883L5.64,2.43a.622.622,0,0,1,.883,0l5.059,5.059a.622.622,0,0,1,0,.883L11,8.95a.626.626,0,0,1-.893-.01L7.124,5.8v7.483a.623.623,0,0,1-.625.625H5.666a.623.623,0,0,1-.625-.625V5.8L2.052,8.942a.621.621,0,0,1-.893.01Z" transform="translate(714.252 1648.754)" fill="#583cb6"/>
    <path id="Icon_awesome-arrow-up-12" data-name="Icon awesome-arrow-up" d="M1.159,8.953.581,8.375a.622.622,0,0,1,0-.883L5.64,2.43a.622.622,0,0,1,.883,0l5.059,5.059a.622.622,0,0,1,0,.883L11,8.95a.626.626,0,0,1-.893-.01L7.124,5.8v7.483a.623.623,0,0,1-.625.625H5.666a.623.623,0,0,1-.625-.625V5.8L2.052,8.942a.621.621,0,0,1-.893.01Z" transform="translate(862.918 1648.754)" fill="#583cb6"/>
    <path id="Icon_awesome-arrow-up-13" data-name="Icon awesome-arrow-up" d="M1.159,8.953.581,8.375a.622.622,0,0,1,0-.883L5.64,2.43a.622.622,0,0,1,.883,0l5.059,5.059a.622.622,0,0,1,0,.883L11,8.95a.626.626,0,0,1-.893-.01L7.124,5.8v7.483a.623.623,0,0,1-.625.625H5.666a.623.623,0,0,1-.625-.625V5.8L2.052,8.942a.621.621,0,0,1-.893.01Z" transform="translate(1011.25 1648.754)" fill="#583cb6"/>
    <path id="Icon_awesome-arrow-up-14" data-name="Icon awesome-arrow-up" d="M1.159,8.953.581,8.375a.622.622,0,0,1,0-.883L5.64,2.43a.622.622,0,0,1,.883,0l5.059,5.059a.622.622,0,0,1,0,.883L11,8.95a.626.626,0,0,1-.893-.01L7.124,5.8v7.483a.623.623,0,0,1-.625.625H5.666a.623.623,0,0,1-.625-.625V5.8L2.052,8.942a.621.621,0,0,1-.893.01Z" transform="translate(1166.918 1648.754)" fill="#583cb6"/>
  </g>
</svg>
