<svg xmlns="http://www.w3.org/2000/svg" width="148" height="148" viewBox="0 0 148 148">
  <g id="Grupo_969357" data-name="Grupo 969357" transform="translate(3155 2009)">
    <g id="Grupo_968132" data-name="Grupo 968132" transform="translate(-3123.649 -1968.677)">
      <rect id="Rectángulo_4912" data-name="Rectángulo 4912" width="55.389" height="57.309" rx="21" transform="translate(0 0)" fill="#fff" opacity="0.25"/>
    </g>
    <circle id="Elipse_8722" data-name="Elipse 8722" cx="74" cy="74" r="74" transform="translate(-3155 -2009)" fill="#583cb6"/>
    <g id="fabricacion" transform="translate(-3126 -1990.003)">
      <g id="Grupo_968190" data-name="Grupo 968190" transform="translate(1.512 33.16)">
        <path id="Trazado_641954" data-name="Trazado 641954" d="M322.762,187.473V130.5a6.5,6.5,0,0,0-2.9-5.41h0a6.5,6.5,0,0,0-3.6-1.088H305.081a6.5,6.5,0,0,0-3.607,1.093h0a6.5,6.5,0,0,0-2.891,5.406v1.058h-7.556a3.022,3.022,0,0,0-3.022,3.022h0a3.022,3.022,0,0,0,3.022,3.022h12.09v49.869Z" transform="translate(-235.113 -124.003)" fill="#badfcc"/>
        <path id="Trazado_641955" data-name="Trazado 641955" d="M8,187.473V130.5a6.5,6.5,0,0,1,2.9-5.41h0A6.5,6.5,0,0,1,14.5,124H25.686a6.5,6.5,0,0,1,3.607,1.093h0a6.5,6.5,0,0,1,2.891,5.406v1.058H39.74a3.022,3.022,0,0,1,3.022,3.022h0A3.022,3.022,0,0,1,39.74,137.6H30.673v49.869Z" transform="translate(-8.005 -124.003)" fill="#badfcc"/>
      </g>
      <path id="Trazado_641956" data-name="Trazado 641956" d="M384.005,130.048h9.067V124h-9.067Z" transform="translate(-311.467 -90.843)" fill="#fce8ca"/>
      <g id="Grupo_968191" data-name="Grupo 968191" transform="translate(10.579 13.514)">
        <path id="Trazado_641957" data-name="Trazado 641957" d="M392.005,20v.376A11.686,11.686,0,0,1,395.027,20Z" transform="translate(-328.535 -20.002)" fill="#6ed5e6"/>
        <path id="Trazado_641958" data-name="Trazado 641958" d="M411.027,20h-3.022a11.686,11.686,0,0,1,3.022.376Z" transform="translate(-341.513 -20.002)" fill="#6ed5e6"/>
        <path id="Trazado_641959" data-name="Trazado 641959" d="M56.005,20v.376A11.686,11.686,0,0,1,59.027,20Z" transform="translate(-56.005 -20.002)" fill="#6ed5e6"/>
      </g>
      <path id="Trazado_641960" data-name="Trazado 641960" d="M57.072,130.048V124H48.005v6.045Z" transform="translate(-38.937 -90.843)" fill="#fce8ca"/>
      <path id="Trazado_641961" data-name="Trazado 641961" d="M75.027,20H72a11.687,11.687,0,0,1,3.022.376Z" transform="translate(-58.404 -6.488)" fill="#6ed5e6"/>
      <g id="Grupo_968192" data-name="Grupo 968192" transform="translate(1.512 64.895)">
        <path id="Trazado_641962" data-name="Trazado 641962" d="M15.561,292a7.556,7.556,0,0,0,0,15.112H88.1A7.556,7.556,0,0,0,88.1,292Z" transform="translate(-8.005 -292.003)" fill="#dbdce0"/>
        <path id="Trazado_641963" data-name="Trazado 641963" d="M16,440.537H28.094L25.072,436H19.027Z" transform="translate(-14.494 -408.802)" fill="#dbdce0"/>
        <path id="Trazado_641964" data-name="Trazado 641964" d="M400.005,440.537h12.09L409.072,436h-6.045Z" transform="translate(-325.957 -408.802)" fill="#dbdce0"/>
      </g>
      <g id="Grupo_968193" data-name="Grupo 968193" transform="translate(7.557 52.805)">
        <rect id="Rectángulo_308659" data-name="Rectángulo 308659" width="12" height="12" transform="translate(0.11 0.336)" fill="#e3ac34"/>
        <rect id="Rectángulo_308660" data-name="Rectángulo 308660" width="12" height="12" transform="translate(42.11 0.336)" fill="#e3ac34"/>
        <rect id="Rectángulo_308661" data-name="Rectángulo 308661" width="12" height="12" transform="translate(21.11 0.336)" fill="#e3ac34"/>
      </g>
      <g id="Grupo_968194" data-name="Grupo 968194" transform="translate(7.557 66.406)">
        <circle id="Elipse_8745" data-name="Elipse 8745" cx="6" cy="6" r="6" transform="translate(0.11 -0.265)" fill="#989aa0"/>
        <circle id="Elipse_8746" data-name="Elipse 8746" cx="6" cy="6" r="6" transform="translate(21.11 -0.265)" fill="#989aa0"/>
        <circle id="Elipse_8747" data-name="Elipse 8747" cx="6" cy="6" r="6" transform="translate(63.11 -0.265)" fill="#989aa0"/>
        <circle id="Elipse_8748" data-name="Elipse 8748" cx="6" cy="6" r="6" transform="translate(42.11 -0.265)" fill="#989aa0"/>
      </g>
      <path id="Trazado_641965" data-name="Trazado 641965" d="M372.335,20.379a12.326,12.326,0,0,0-6.045,0c-4.36,1.159-5.73,4.913-5.989,8.691h18.022C378.065,25.292,376.694,21.538,372.335,20.379Z" transform="translate(-292.241 -6.489)" fill="#e3ac34"/>
      <g id="Grupo_968195" data-name="Grupo 968195" transform="translate(4.534 22.581)">
        <path id="Trazado_641966" data-name="Trazado 641966" d="M360.005,69.514c0,5.008,5.862,9.067,9.067,9.067s9.067-4.059,9.067-9.067c0-.5-.021-1.006-.056-1.511H360.061C360.026,68.508,360.005,69.014,360.005,69.514Z" transform="translate(-296.535 -68.003)" fill="#fce8ca"/>
        <path id="Trazado_641967" data-name="Trazado 641967" d="M42.139,69.514c0-.5-.021-1.006-.056-1.511H24.061c-.035.5-.056,1.011-.056,1.511,0,5.008,5.862,9.067,9.067,9.067S42.139,74.522,42.139,69.514Z" transform="translate(-24.005 -68.003)" fill="#fce8ca"/>
      </g>
      <path id="Trazado_641968" data-name="Trazado 641968" d="M36.335,20.379a12.326,12.326,0,0,0-6.045,0c-4.36,1.159-5.73,4.913-5.989,8.691H42.323C42.065,25.292,40.694,21.538,36.335,20.379Z" transform="translate(-19.711 -6.489)" fill="#e3ac34"/>
      <rect id="Rectángulo_308662" data-name="Rectángulo 308662" width="3" height="3" transform="translate(11.666 71.141)"/>
      <rect id="Rectángulo_308663" data-name="Rectángulo 308663" width="3" height="3" transform="translate(33.666 71.141)"/>
      <rect id="Rectángulo_308664" data-name="Rectángulo 308664" width="3" height="3" transform="translate(54.666 71.141)"/>
      <rect id="Rectángulo_308665" data-name="Rectángulo 308665" width="3" height="3" transform="translate(75.666 71.141)"/>
      <path id="Trazado_641969" data-name="Trazado 641969" d="M87.1,32.995a7.966,7.966,0,0,0-3.439-1.272,10.492,10.492,0,0,0,3.985-7.63h1.511V21.07H87.436c-.716-4.987-3.232-7.376-6.119-8.393A1.48,1.48,0,0,0,80.093,12H74.049a1.48,1.48,0,0,0-1.224.674c-2.886,1.017-5.4,3.406-6.119,8.393H64.982v3.022h1.511a10.492,10.492,0,0,0,3.985,7.63A7.98,7.98,0,0,0,63.484,39.2H57.426a4.534,4.534,0,1,0,0,9.067H68V63.383H63.47V52.805a1.511,1.511,0,0,0-1.511-1.511H49.87a1.511,1.511,0,0,0-1.511,1.511V63.383H42.314V52.805A1.511,1.511,0,0,0,40.8,51.294H28.713A1.511,1.511,0,0,0,27.2,52.805V63.383H25.691V48.271h7.556a4.534,4.534,0,1,0,0-9.067H27.188a7.98,7.98,0,0,0-6.994-7.482,10.492,10.492,0,0,0,3.985-7.63h1.511V21.07H23.967c-.716-4.987-3.232-7.376-6.119-8.393A1.48,1.48,0,0,0,16.624,12H10.579a1.48,1.48,0,0,0-1.224.674c-2.886,1.017-5.4,3.406-6.119,8.393H1.512v3.022H3.023a10.492,10.492,0,0,0,3.985,7.63A7.984,7.984,0,0,0,0,39.658V64.895H3.023V39.658A4.961,4.961,0,0,1,7.557,34.7v4.5a1.511,1.511,0,0,0,1.511,1.511h9.067A1.511,1.511,0,0,0,19.646,39.2V34.7a4.961,4.961,0,0,1,4.534,4.954v1.058a1.511,1.511,0,0,0,1.511,1.511h7.556a1.511,1.511,0,0,1,0,3.022H24.18a1.511,1.511,0,0,0-1.511,1.511V63.383H21.157V52.805a1.511,1.511,0,0,0-1.511-1.511H7.557a1.511,1.511,0,0,0-1.511,1.511V63.912A9.055,9.055,0,0,0,7.557,81.382v9.2H6.045a1.511,1.511,0,0,0-1.257.672L1.766,95.791a1.511,1.511,0,0,0,1.257,2.35H15.112a1.511,1.511,0,0,0,1.257-2.35l-3.022-4.534a1.511,1.511,0,0,0-1.257-.672H10.579V81.518H22.668v13.6H19.646v3.022H24.18a1.511,1.511,0,0,0,1.511-1.511V81.518H68V96.629a1.511,1.511,0,0,0,1.511,1.511h3.022V95.118H71.026v-13.6h9.067v9.067H78.582a1.511,1.511,0,0,0-1.257.672L74.3,95.791a1.511,1.511,0,0,0,1.257,2.35H87.649a1.511,1.511,0,0,0,1.257-2.35l-3.022-4.534a1.511,1.511,0,0,0-1.257-.672H83.116v-9.2a9.067,9.067,0,0,0-1.511-18H71.026V46.76a1.511,1.511,0,0,0-1.511-1.511H57.426a1.511,1.511,0,1,1,0-3.022h7.556a1.511,1.511,0,0,0,1.511-1.511V39.658A4.961,4.961,0,0,1,71.026,34.7v4.5a1.511,1.511,0,0,0,1.511,1.511H81.6A1.511,1.511,0,0,0,83.116,39.2V34.7a4.961,4.961,0,0,1,4.534,4.954V64.895h3.022V39.658A8,8,0,0,0,87.1,32.995ZM9.068,16.2v1.85H12.09V15.139a11.3,11.3,0,0,1,1.511-.113,11.3,11.3,0,0,1,1.511.113v2.909h3.022V16.2a6.983,6.983,0,0,1,2.752,4.872H6.316A6.984,6.984,0,0,1,9.068,16.2Zm12.089,7.894c0,4.059-5.069,7.556-7.556,7.556s-7.556-3.5-7.556-7.556Zm-10.578,13.6V34.671h6.045v3.022ZM12.29,95.118H5.846l1.008-1.511h4.428Zm72.537,0H78.383l1.008-1.511h4.428ZM77.071,76.984A4.534,4.534,0,1,1,81.6,72.45,4.534,4.534,0,0,1,77.071,76.984ZM69.515,72.45A7.528,7.528,0,0,0,72.584,78.5H60.4a7.486,7.486,0,0,0,0-12.089H72.584A7.529,7.529,0,0,0,69.515,72.45ZM13.6,67.917A4.534,4.534,0,1,1,9.068,72.45,4.534,4.534,0,0,1,13.6,67.917Zm7.556,4.534a7.528,7.528,0,0,0-3.069-6.045H30.271a7.486,7.486,0,0,0,0,12.089H18.088A7.529,7.529,0,0,0,21.157,72.45Zm18.134,0a4.534,4.534,0,1,1-4.534-4.534A4.534,4.534,0,0,1,39.291,72.45Zm3.022,0a7.528,7.528,0,0,0-3.069-6.045H51.428a7.486,7.486,0,0,0,0,12.089H39.245A7.529,7.529,0,0,0,42.314,72.45Zm18.134,0a4.534,4.534,0,1,1-4.534-4.534A4.534,4.534,0,0,1,60.448,72.45ZM51.381,54.316H54.4V58.85h3.022V54.316h3.022v9.067H51.381Zm-21.157,0h3.022V58.85h3.022V54.316h3.022v9.067H30.224Zm-21.157,0H12.09V58.85h3.022V54.316h3.022v9.067H9.068V54.316ZM3.023,72.45a6.045,6.045,0,0,1,6.045-6.045h.047a7.486,7.486,0,0,0,0,12.089H9.068A6.045,6.045,0,0,1,3.023,72.45Zm84.626,0A6.045,6.045,0,0,1,81.6,78.5h-.047a7.486,7.486,0,0,0,0-12.089H81.6A6.045,6.045,0,0,1,87.649,72.45ZM72.538,16.2v1.85H75.56V15.139a10.119,10.119,0,0,1,3.022,0v2.909H81.6V16.2a6.983,6.983,0,0,1,2.752,4.872H69.786A6.984,6.984,0,0,1,72.538,16.2Zm12.089,7.894c0,4.059-5.069,7.556-7.556,7.556s-7.556-3.5-7.556-7.556Zm-10.578,13.6V34.671h6.045v3.022Z"/>
    </g>
  </g>
</svg>
