<svg xmlns="http://www.w3.org/2000/svg" width="139.333" height="139.333" viewBox="0 0 139.333 139.333">
  <g id="inventario_1_" data-name="inventario (1)" transform="translate(-1 -1)">
    <g id="Grupo_957063" data-name="Grupo 957063" transform="translate(3.247 3.247)">
      <g id="Grupo_957044" data-name="Grupo 957044" transform="translate(89.892 89.892)">
        <path id="Trazado_631654" data-name="Trazado 631654" d="M84.7,42H42V84.7a2.254,2.254,0,0,0,2.247,2.247H84.7A2.254,2.254,0,0,0,86.946,84.7V44.247A2.254,2.254,0,0,0,84.7,42Z" transform="translate(-42 -42)" fill="#d3a06c"/>
      </g>
      <g id="Grupo_957045" data-name="Grupo 957045" transform="translate(85.398 0)">
        <path id="Trazado_631655" data-name="Trazado 631655" d="M82.7,2H42.247A2.254,2.254,0,0,0,40,4.247v42.7H82.7A2.254,2.254,0,0,0,84.946,44.7V4.247A2.254,2.254,0,0,0,82.7,2Z" transform="translate(-40 -2)" fill="#d3a06c"/>
      </g>
      <g id="Grupo_957046" data-name="Grupo 957046" transform="translate(76.386 44.946)">
        <path id="Trazado_631656" data-name="Trazado 631656" d="M38.26,22a2.254,2.254,0,0,0-2.247,2.247v22.81l-.022.022a20,20,0,0,1,4.517,12.7v7.169H80.959V22Z" transform="translate(-35.99 -22)" fill="#d3a06c"/>
      </g>
      <g id="Grupo_957047" data-name="Grupo 957047" transform="translate(98.882 0)">
        <path id="Trazado_631657" data-name="Trazado 631657" d="M46,2H63.978V15.484H46Z" transform="translate(-46 -2)" fill="#b27946"/>
      </g>
      <g id="Grupo_957048" data-name="Grupo 957048" transform="translate(89.892 44.946)">
        <path id="Trazado_631658" data-name="Trazado 631658" d="M42,22H59.978V35.484H42Z" transform="translate(-42 -22)" fill="#b27946"/>
      </g>
      <g id="Grupo_957049" data-name="Grupo 957049" transform="translate(103.376 89.892)">
        <path id="Trazado_631659" data-name="Trazado 631659" d="M48,42H65.978V55.484H48Z" transform="translate(-48 -42)" fill="#b27946"/>
      </g>
      <g id="Grupo_957050" data-name="Grupo 957050" transform="translate(13.484)">
        <path id="Trazado_631660" data-name="Trazado 631660" d="M43.957,19.978H25.978a8.987,8.987,0,0,0-8.989,8.989H14.742a6.76,6.76,0,0,0-4.629,1.843L8.989,27.44A19.335,19.335,0,0,1,27.327,2H42.609A19.335,19.335,0,0,1,60.947,27.44l-1.124,3.371a6.76,6.76,0,0,0-4.629-1.843H52.946V26.72H46.2A7.674,7.674,0,0,1,43.957,21.3Z" transform="translate(-8 -2)" fill="#656d78"/>
      </g>
      <g id="Grupo_957051" data-name="Grupo 957051" transform="translate(22.473 85.398)">
        <path id="Trazado_631661" data-name="Trazado 631661" d="M47.957,75.957V89.441H12V75.957h4.495a4.508,4.508,0,0,0,4.495-4.495h6.742a6.742,6.742,0,0,0,0-13.484H12V42.247A2.254,2.254,0,0,1,14.247,40h6.742v6.742a2.254,2.254,0,0,0,2.247,2.247H36.72a2.254,2.254,0,0,0,2.247-2.247V40H45.71a2.254,2.254,0,0,1,2.247,2.247v33.71Z" transform="translate(-12 -40)" fill="#e6e9ed"/>
      </g>
      <g id="Grupo_957052" data-name="Grupo 957052" transform="translate(58.43 121.355)">
        <path id="Trazado_631662" data-name="Trazado 631662" d="M28,56h8.989V69.484H28Z" transform="translate(-28 -56)" fill="#fcd770"/>
      </g>
      <g id="Grupo_957053" data-name="Grupo 957053" transform="translate(13.484 121.355)">
        <path id="Trazado_631663" data-name="Trazado 631663" d="M8,56h8.989V69.484H8Z" transform="translate(-8 -56)" fill="#fcd770"/>
      </g>
      <g id="Grupo_957054" data-name="Grupo 957054" transform="translate(0 61.599)">
        <path id="Trazado_631664" data-name="Trazado 631664" d="M2,75.682V50.535A20.212,20.212,0,0,1,19.372,30.511l7.663-1.1,4.18,12.562,11.237-4.495,11.237,4.495,4.18-12.562,7.663,1.1A20.311,20.311,0,0,1,82.9,50.535V75.682A13.5,13.5,0,0,1,69.419,89.166H60.43V55.456a2.254,2.254,0,0,0-2.247-2.247H26.72a2.254,2.254,0,0,0-2.247,2.247V71.187h8.989V84.671a4.508,4.508,0,0,1-4.495,4.495H15.484A13.5,13.5,0,0,1,2,75.682Z" transform="translate(-2 -29.41)" fill="#fcd770"/>
      </g>
      <g id="Grupo_957055" data-name="Grupo 957055" transform="translate(40.452 60.677)">
        <path id="Trazado_631665" data-name="Trazado 631665" d="M35.417,29.921l-4.18,12.562L20,37.989,28.989,29Z" transform="translate(-20 -29)" fill="#ffc729"/>
      </g>
      <g id="Grupo_957056" data-name="Grupo 957056" transform="translate(25.035 60.677)">
        <path id="Trazado_631666" data-name="Trazado 631666" d="M28.557,37.989,17.32,42.484,13.14,29.921,19.567,29Z" transform="translate(-13.14 -29)" fill="#ffc729"/>
      </g>
      <g id="Grupo_957057" data-name="Grupo 957057" transform="translate(31.462 85.398)">
        <path id="Trazado_631667" data-name="Trazado 631667" d="M33.978,40v6.742a2.254,2.254,0,0,1-2.247,2.247H18.247A2.254,2.254,0,0,1,16,46.742V40Z" transform="translate(-16 -40)" fill="#b4dd7f"/>
      </g>
      <g id="Grupo_957058" data-name="Grupo 957058" transform="translate(31.462 103.376)">
        <path id="Trazado_631668" data-name="Trazado 631668" d="M22.742,48a6.742,6.742,0,0,1,0,13.484H16V48Z" transform="translate(-16 -48)" fill="#f0d0b4"/>
      </g>
      <g id="Grupo_957059" data-name="Grupo 957059" transform="translate(31.462 52.542)">
        <path id="Trazado_631669" data-name="Trazado 631669" d="M31.933,25.38l2.045,8.135L24.989,42.5,16,33.515l2.045-8.135a18,18,0,0,0,13.888,0Z" transform="translate(-16 -25.38)" fill="#f0d0b4"/>
      </g>
      <g id="Grupo_957060" data-name="Grupo 957060" transform="translate(57.868 26.968)">
        <path id="Trazado_631670" data-name="Trazado 631670" d="M35.189,15.843a6.744,6.744,0,0,1-4.629,11.641H27.75a18.515,18.515,0,0,0,.562-4.495V14h2.247a6.76,6.76,0,0,1,4.629,1.843Z" transform="translate(-27.75 -14)" fill="#f0d0b4"/>
      </g>
      <g id="Grupo_957061" data-name="Grupo 957061" transform="translate(13.484 26.968)">
        <path id="Trazado_631671" data-name="Trazado 631671" d="M17.551,27.484H14.742a6.742,6.742,0,0,1,0-13.484h2.247v8.989A18.515,18.515,0,0,0,17.551,27.484Z" transform="translate(-8 -14)" fill="#f0d0b4"/>
      </g>
      <g id="Grupo_957062" data-name="Grupo 957062" transform="translate(22.473 17.978)">
        <path id="Trazado_631672" data-name="Trazado 631672" d="M41.215,16.742h6.742V27.978a18.515,18.515,0,0,1-.562,4.495A17.992,17.992,0,0,1,23.034,44.564,17.742,17.742,0,0,1,17.259,40.7a18.252,18.252,0,0,1-4.7-8.225A18.515,18.515,0,0,1,12,27.978V18.989A8.987,8.987,0,0,1,20.989,10H38.968v1.326a7.674,7.674,0,0,0,2.247,5.416Z" transform="translate(-12 -10)" fill="#f0d0b4"/>
      </g>
    </g>
    <g id="Grupo_957064" data-name="Grupo 957064" transform="translate(1 1)">
      <circle id="Elipse_7925" data-name="Elipse 7925" cx="2.5" cy="2.5" r="2.5" transform="translate(31.333 31.333)"/>
      <circle id="Elipse_7926" data-name="Elipse 7926" cx="2.5" cy="2.5" r="2.5" transform="translate(49.333 31.333)"/>
      <path id="Trazado_631673" data-name="Trazado 631673" d="M33.372,22.038l.236-.474-4.02-2.011-.236.476a5.025,5.025,0,0,1-8.989,0l-.236-.474-4.02,2.011.236.474a9.521,9.521,0,0,0,17.03,0Z" transform="translate(17.842 22.14)"/>
      <path id="Trazado_631674" data-name="Trazado 631674" d="M25.083,16.4a5.392,5.392,0,0,1-1.589-3.836V9H19v3.564a9.853,9.853,0,0,0,2.906,7.014Z" transform="translate(21.452 8.978)"/>
      <path id="Trazado_631675" data-name="Trazado 631675" d="M29.083,16.4a5.392,5.392,0,0,1-1.589-3.836V9H23v3.564a9.853,9.853,0,0,0,2.906,7.014Z" transform="translate(26.441 8.978)"/>
      <path id="Trazado_631676" data-name="Trazado 631676" d="M135.839,90.892h-8.989V50.441h4.495a4.5,4.5,0,0,0,4.495-4.495V5.495A4.5,4.5,0,0,0,131.344,1H90.892A4.5,4.5,0,0,0,86.4,5.495V45.946H81.9a4.5,4.5,0,0,0-4.495,4.495v17.6A22.255,22.255,0,0,0,67.1,63.713l-12.6-1.8-1.225-4.9a20.321,20.321,0,0,0,9.47-11.066h1.178a9,9,0,0,0,8.989-8.989,8.9,8.9,0,0,0-1.829-5.378l.724-2.173A21.586,21.586,0,0,0,51.331,1H36.065A21.588,21.588,0,0,0,15.59,29.408l.724,2.173a8.891,8.891,0,0,0-1.829,5.376,9,9,0,0,0,8.989,8.989h1.18a20.312,20.312,0,0,0,9.47,11.066l-1.225,4.9-12.6,1.8A22.581,22.581,0,0,0,1,85.962v25.156A15.744,15.744,0,0,0,14.484,126.67v13.664h58.43V126.67A15.744,15.744,0,0,0,86.4,111.118V95.387h4.495v40.452a4.5,4.5,0,0,0,4.495,4.495h40.452a4.5,4.5,0,0,0,4.495-4.495V95.387A4.5,4.5,0,0,0,135.839,90.892Zm-31.462-85.4h4.495v8.989h-4.495Zm8.989,0h4.495v8.989h-4.495Zm-22.473,0h8.989V18.978h22.473V5.495h8.989V45.946H90.892Zm4.495,44.946h4.495V59.43H95.387Zm8.989,0h4.495V59.43h-4.495ZM56.14,66.689l-2.582,7.749L47.7,72.094l5.785-5.785Zm7.785-25.237h-.133a20.081,20.081,0,0,0,.133-2.247V32.462a4.495,4.495,0,1,1,0,8.989Zm-40.452,0a4.495,4.495,0,1,1,0-8.989V39.2a20.079,20.079,0,0,0,.133,2.247ZM27.968,39.2V30.215a6.75,6.75,0,0,1,6.742-6.742h2.247V18.978H34.71A11.258,11.258,0,0,0,23.7,27.968h-.227a8.958,8.958,0,0,0-3.4.676l-.218-.656A17.085,17.085,0,0,1,36.067,5.495H51.333A17.083,17.083,0,0,1,67.541,27.986l-.22.658a8.938,8.938,0,0,0-3.4-.676V25.72H59.43V39.2a15.731,15.731,0,0,1-31.462,0ZM43.7,59.43a20.142,20.142,0,0,0,5.364-.744L50.2,63.235l-6.5,6.5-6.5-6.5,1.137-4.549a20.142,20.142,0,0,0,5.364.744Zm-9.785,6.877L39.7,72.091,33.84,74.435l-2.582-7.749ZM18.978,126.849h4.495v8.989H18.978Zm22.473-17.978a4.495,4.495,0,0,1,0,8.989H36.957v-8.989Zm-4.908,13.484h4.908a8.989,8.989,0,0,0,0-17.978H27.968V90.892h4.495v4.495a4.5,4.5,0,0,0,4.495,4.495H50.441a4.5,4.5,0,0,0,4.495-4.495V90.892H59.43v44.946H27.968v-8.989h2.247A6.733,6.733,0,0,0,36.543,122.355Zm.414-31.462H50.441v4.495H36.957Zm26.968,44.946v-8.989h4.495v8.989ZM81.9,111.118a11.249,11.249,0,0,1-11.237,11.237H63.925V108.871H77.409v-4.495H72.914V86.4H68.419v17.978H63.925V90.892A4.5,4.5,0,0,0,59.43,86.4H27.968a4.5,4.5,0,0,0-4.495,4.495v13.484H18.978V86.4H14.484v17.978H9.989v4.495H32.462v11.237a2.248,2.248,0,0,1-2.247,2.247H16.731A11.249,11.249,0,0,1,5.495,111.118V85.962a18.064,18.064,0,0,1,15.437-17.8l5.8-.829,4.346,13.046L43.7,75.334,56.313,80.38l4.346-13.046,5.8.829A18.066,18.066,0,0,1,81.9,85.962ZM86.4,90.892V85.962A22.369,22.369,0,0,0,81.9,72.554V50.441h8.989V63.925h22.473V50.441h8.989V90.892Zm22.473,4.495h4.495v8.989h-4.495Zm8.989,0h4.495v8.989H117.86Zm17.978,40.452H95.387V95.387h8.989v13.484h22.473V95.387h8.989Z" transform="translate(-1 -1)"/>
    </g>
  </g>
</svg>
