<svg xmlns="http://www.w3.org/2000/svg" width="148" height="148" viewBox="0 0 148 148">
  <g id="Grupo_969359" data-name="Grupo 969359" transform="translate(3506 1555)">
    <circle id="Elipse_8726" data-name="Elipse 8726" cx="74" cy="74" r="74" transform="translate(-3506 -1555)" fill="#583cb6"/>
    <g id="mantenimiento" transform="translate(-3484.326 -1532)">
      <path id="Trazado_641906" data-name="Trazado 641906" d="M105.1,47.49V63.776H95.428a39.093,39.093,0,0,1-5.513,13.3l5.121,5.119a12.242,12.242,0,0,0-3.16.432L72.726,63.472a17.6,17.6,0,1,0-7.951,7.937L83.663,90.3a12.1,12.1,0,0,0-.626,2.927L78.4,88.589A39.1,39.1,0,0,1,65.1,94.1v9.671H48.817V94.1a39.067,39.067,0,0,1-13.3-5.513L28.678,95.43,17.164,83.916,24,77.074a39.091,39.091,0,0,1-5.511-13.3H8.821V47.491h9.673A39.063,39.063,0,0,1,24,34.194l-6.841-6.843L28.678,15.837l6.843,6.841a39.065,39.065,0,0,1,13.3-5.511V7.494H65.1v9.673a39.09,39.09,0,0,1,13.3,5.511l6.841-6.841L96.757,27.351l-6.841,6.843a39.068,39.068,0,0,1,5.513,13.3Z" transform="translate(-6.004 -6.003)" fill="#898890"/>
      <g id="Grupo_968186" data-name="Grupo 968186" transform="translate(50.958 1.491)">
        <path id="Trazado_641907" data-name="Trazado 641907" d="M258.571,328.707,277.46,347.6a12.1,12.1,0,0,0-.626,2.927l-4.636-4.638a39.1,39.1,0,0,1-13.3,5.513v9.671h-8.142V330.535A17.517,17.517,0,0,0,258.571,328.707Z" transform="translate(-250.758 -264.792)" fill="#57565c"/>
        <path id="Trazado_641908" data-name="Trazado 641908" d="M298.9,47.49V63.776h-9.671a39.093,39.093,0,0,1-5.513,13.3l5.121,5.119a12.242,12.242,0,0,0-3.16.432L266.522,63.472A17.609,17.609,0,0,0,250.758,38.03V7.494H258.9v9.673a39.089,39.089,0,0,1,13.3,5.511l6.841-6.841,11.514,11.514-6.841,6.843a39.068,39.068,0,0,1,5.513,13.3Z" transform="translate(-250.758 -7.494)" fill="#57565c"/>
      </g>
      <path id="Trazado_641909" data-name="Trazado 641909" d="M244.155,241.378,242.74,246.6l7.887,7.885a12.1,12.1,0,0,1-15.993-15.192L212.6,217.256a12.1,12.1,0,0,1-14.412-16.232l7.887,7.887,5.216-1.416,1.416-5.216-7.887-7.887a12.1,12.1,0,0,1,15.993,15.192l22.035,22.035a12.1,12.1,0,0,1,14.412,16.232l-7.887-7.887Z" transform="translate(-156.974 -154.996)" fill="#fed322"/>
      <path id="Trazado_641910" data-name="Trazado 641910" d="M250.628,284.779a12.1,12.1,0,0,1-15.993-15.192L212.6,247.553a12.1,12.1,0,0,1-14.412-16.232l7.887,7.887,5.216-1.416,32.865,33.883-1.416,5.218Z" transform="translate(-156.975 -185.293)" fill="#f91"/>
      <g id="Grupo_968187" data-name="Grupo 968187" transform="translate(63.254 61.033)">
        <path id="Trazado_641911" data-name="Trazado 641911" d="M312.554,306.733l2.169,2.169" transform="translate(-312.554 -306.733)" fill="#fff"/>
        <path id="Trazado_641912" data-name="Trazado 641912" d="M336.522,330.7l7.111,7.112" transform="translate(-331.753 -325.933)" fill="#fff"/>
      </g>
      <path id="Trazado_641913" data-name="Trazado 641913" d="M98.69,78.675a13.612,13.612,0,0,0-9.024-3.961L85.81,70.858a40.4,40.4,0,0,0,4.806-11.594h9.971V40H90.616A40.4,40.4,0,0,0,85.81,28.4l7.054-7.054L79.239,7.724l-7.054,7.053A40.415,40.415,0,0,0,60.591,9.971V0H41.322V9.971a40.4,40.4,0,0,0-11.593,4.806L22.675,7.724,9.05,21.349,16.1,28.4A40.406,40.406,0,0,0,11.3,40H1.326V59.265H11.3A40.4,40.4,0,0,0,16.1,70.859L9.05,77.912,22.675,91.538l7.054-7.053A40.406,40.406,0,0,0,41.322,89.29v9.972H60.591V89.29a40.4,40.4,0,0,0,11.593-4.806l3.325,3.325a13.576,13.576,0,0,0,18.7,13.058l2.08-.848-8.863-8.863L88.4,87.6l3.558-.965,8.864,8.864.848-2.08A13.566,13.566,0,0,0,98.69,78.675ZM54.066,47.725,53.1,51.284l-3.558.965-8.863-8.864-.848,2.08A13.588,13.588,0,0,0,55.16,63.9l.985.985A16.1,16.1,0,1,1,66.205,54.845l-.678-.678A13.591,13.591,0,0,0,47.283,38.014l-2.08.848ZM71.582,81.337a37.474,37.474,0,0,1-12.79,5.3l-1.184.249v9.39h-13.3v-9.39l-1.184-.249a37.479,37.479,0,0,1-12.79-5.3l-1.014-.661-6.643,6.643-9.406-9.407,6.643-6.643-.661-1.014a37.478,37.478,0,0,1-5.3-12.79L13.7,56.281H4.309v-13.3H13.7l.249-1.184A37.479,37.479,0,0,1,19.25,29l.661-1.014-6.643-6.643,9.407-9.407,6.643,6.643,1.014-.661a37.472,37.472,0,0,1,12.79-5.3l1.184-.249V2.983h13.3v9.39l1.184.249a37.479,37.479,0,0,1,12.79,5.3l1.014.661,6.643-6.643,9.407,9.407L82,27.991,82.663,29a37.48,37.48,0,0,1,5.3,12.79l.249,1.184H97.6v13.3h-9.39l-.249,1.184a37.473,37.473,0,0,1-5.3,12.79l-.413.634L69.824,58.463l-1.312-1.312a18.9,18.9,0,0,0,1.539-7.521A19.095,19.095,0,1,0,50.957,68.725a18.9,18.9,0,0,0,7.5-1.529L71.991,80.736l.2.2Zm27.967,8.672L92.842,83.3l-6.877,1.865L84.1,92.044l6.707,6.707A10.6,10.6,0,0,1,78.539,87.184c.013-.122.026-.243.043-.364.008-.06.016-.121.025-.181q.041-.262.095-.521c.009-.043.018-.086.027-.129.04-.182.084-.364.134-.544.008-.03.017-.059.026-.089q.074-.259.161-.513a17.5,17.5,0,0,1,3.01-4.393L79.952,78.34A18.436,18.436,0,0,0,77.3,81.823L67.49,72.016l-8.421-8.421h0l-3-3-.836.229A10.607,10.607,0,0,1,41.948,48.873l6.707,6.707,6.877-1.865L57.4,46.838,50.69,40.131A10.611,10.611,0,0,1,62.429,54.1l-.26.746a12.979,12.979,0,0,1-1.951,2.646L62.327,59.6a14.848,14.848,0,0,0,1.945-2.467L85.431,78.29l.836-.229q.343-.094.688-.164l.122-.023c.074-.014.147-.029.221-.041l.187-.029.159-.024.182-.022c.056-.007.113-.014.169-.02l.128-.011c.076-.007.152-.014.227-.019l.033,0a10.6,10.6,0,0,1,11.165,12.3Z" fill="#020202"/>
      <g id="Grupo_968188" data-name="Grupo 968188" transform="translate(20.746 19.612)">
        <rect id="Rect치ngulo_308657" data-name="Rect치ngulo 308657" width="3.067" height="2.983" transform="translate(43.564 40.365) rotate(45)" fill="#fff"/>
        <rect id="Rect치ngulo_308658" data-name="Rect치ngulo 308658" width="10.057" height="2.983" transform="translate(48.332 45.136) rotate(45)" fill="#fff"/>
        <path id="Trazado_641914" data-name="Trazado 641914" d="M287.578,377.626l.8,2.874a30.133,30.133,0,0,0,3.682-1.288l-1.166-2.746A27.111,27.111,0,0,1,287.578,377.626Z" transform="translate(-250.04 -321.169)" fill="#fff"/>
        <path id="Trazado_641915" data-name="Trazado 641915" d="M129.14,257.044A27.259,27.259,0,0,1,102.3,225.19l-2.941-.5a30.242,30.242,0,0,0,29.785,35.339c.979,0,1.968-.047,2.938-.141l-.287-2.969C130.916,257,130.024,257.044,129.14,257.044Z" transform="translate(-98.923 -199.592)" fill="#fff"/>
        <path id="Trazado_641916" data-name="Trazado 641916" d="M138.074,142.922l-2.064-2.154a30.547,30.547,0,0,0-2.414,2.6l2.3,1.9A27.5,27.5,0,0,1,138.074,142.922Z" transform="translate(-126.697 -132.37)" fill="#fff"/>
        <path id="Trazado_641917" data-name="Trazado 641917" d="M177.427,101.547a27.153,27.153,0,0,1,9.314,1.634l1.02-2.8a30.267,30.267,0,0,0-28.556,4.3l1.8,2.378A26.993,26.993,0,0,1,177.427,101.547Z" transform="translate(-147.21 -98.564)" fill="#fff"/>
      </g>
    </g>
  </g>
</svg>
