<svg xmlns="http://www.w3.org/2000/svg" width="148" height="148" viewBox="0 0 148 148">
  <g id="Grupo_969361" data-name="Grupo 969361" transform="translate(3857 1083)">
    <circle id="Elipse_8730" data-name="Elipse 8730" cx="74" cy="74" r="74" transform="translate(-3857 -1083)" fill="#583cb6"/>
    <g id="camion_1_" data-name="camion (1)" transform="translate(-3826 -1051)">
      <path id="Trazado_641712" data-name="Trazado 641712" d="M118.57,53h46.661V99.661H118.57Zm0,0" transform="translate(-98.441 -44.002)" fill="#787680"/>
      <g id="Grupo_968149" data-name="Grupo 968149" transform="translate(29.85 18.255)">
        <path id="Trazado_641713" data-name="Trazado 641713" d="M175.832,217.691h18.7v18.7h-18.7Zm0,0" transform="translate(-175.832 -198.99)" fill="#57565c"/>
        <path id="Trazado_641714" data-name="Trazado 641714" d="M286,217.691h18.7v18.7H286Zm0,0" transform="translate(-267.297 -198.99)" fill="#57565c"/>
        <path id="Trazado_641715" data-name="Trazado 641715" d="M230.918,107.531h18.7v18.7h-18.7Zm0,0" transform="translate(-221.566 -107.531)" fill="#57565c"/>
      </g>
      <path id="Trazado_641716" data-name="Trazado 641716" d="M7.5,53H26.356V99.661H7.5Zm0,0" transform="translate(-6.226 -44.002)" fill="#c6c5ca"/>
      <path id="Trazado_641717" data-name="Trazado 641717" d="M393.43,53h18.856V99.661H393.43Zm0,0" transform="translate(-326.639 -44.002)" fill="#c6c5ca"/>
      <path id="Trazado_641718" data-name="Trazado 641718" d="M197.094,373.359h20v8.173h-20Zm0,0" transform="translate(-163.634 -309.976)" fill="#787680"/>
      <path id="Trazado_641719" data-name="Trazado 641719" d="M97.918,373.359H104.1v6.73H97.918Zm0,0" transform="translate(-81.295 -309.976)" fill="#ff7956"/>
      <path id="Trazado_641720" data-name="Trazado 641720" d="M61.5,373.359h6.182v6.73H61.5Zm0,0" transform="translate(-51.059 -309.976)" fill="#ffe477"/>
      <path id="Trazado_641721" data-name="Trazado 641721" d="M414.082,373.359h6.182v6.73h-6.182Zm0,0" transform="translate(-343.785 -309.976)" fill="#ffe477"/>
      <path id="Trazado_641722" data-name="Trazado 641722" d="M377.668,373.359h6.182v6.73h-6.182Zm0,0" transform="translate(-313.553 -309.976)" fill="#ff7956"/>
      <path id="Trazado_641723" data-name="Trazado 641723" d="M175.642,373.359v6.73H164.986v-6.73Zm-30.655,0H134.332v6.73h10.655Zm0,0" transform="translate(-111.527 -309.976)" fill="#c6c5ca"/>
      <path id="Trazado_641724" data-name="Trazado 641724" d="M91,413h10.865v12.449H91Zm0,0" transform="translate(-75.551 -342.887)" fill="#787680"/>
      <path id="Trazado_641725" data-name="Trazado 641725" d="M367.857,425.45H356.992V413h10.865Zm0,0" transform="translate(-296.387 -342.887)" fill="#787680"/>
      <path id="Trazado_641726" data-name="Trazado 641726" d="M145.832,217.691h18.7v18.7h-18.7Zm0,0" transform="translate(-121.075 -180.735)" fill="#ffb655"/>
      <path id="Trazado_641727" data-name="Trazado 641727" d="M181.477,217.691h6.6v5.115h-6.6Zm0,0" transform="translate(-150.668 -180.735)" fill="#ffdaaa"/>
      <path id="Trazado_641728" data-name="Trazado 641728" d="M256,217.691h18.7v18.7H256Zm0,0" transform="translate(-212.54 -180.735)" fill="#ffb655"/>
      <path id="Trazado_641729" data-name="Trazado 641729" d="M291.645,217.691h6.6v5.115h-6.6Zm0,0" transform="translate(-242.134 -180.735)" fill="#ffdaaa"/>
      <path id="Trazado_641730" data-name="Trazado 641730" d="M200.918,107.531h18.7v18.7h-18.7Zm0,0" transform="translate(-166.809 -89.276)" fill="#ffb655"/>
      <path id="Trazado_641731" data-name="Trazado 641731" d="M201.477,217.691h6.6v5.115h-6.6Zm0,0" transform="translate(-167.273 -180.735)" fill="#ff7956"/>
      <path id="Trazado_641732" data-name="Trazado 641732" d="M311.645,217.691h6.6v5.115h-6.6Zm0,0" transform="translate(-258.738 -180.735)" fill="#ff7956"/>
      <path id="Trazado_641733" data-name="Trazado 641733" d="M256.559,107.531h6.6v5.115h-6.6Zm0,0" transform="translate(-213.004 -89.276)" fill="#ff7956"/>
      <path id="Trazado_641734" data-name="Trazado 641734" d="M236.559,107.531h6.6v5.115h-6.6Zm0,0" transform="translate(-196.399 -89.276)" fill="#ffdaaa"/>
      <path id="Trazado_641735" data-name="Trazado 641735" d="M73.07,7.5h62.11v7.724H73.07Zm0,0" transform="translate(-60.665 -6.227)" fill="#ff7956"/>
      <path id="Trazado_641736" data-name="Trazado 641736" d="M73.07,327.859h62.11v7.724H73.07Zm0,0" transform="translate(-60.665 -272.2)" fill="#ff7956"/>
      <path id="Trazado_641737" data-name="Trazado 641737" d="M118.57,53h5.093V99.661H118.57Zm0,0" transform="translate(-98.441 -44.002)" fill="#57565c"/>
      <path id="Trazado_641738" data-name="Trazado 641738" d="M7.5,53h5.093V99.661H7.5Zm0,0" transform="translate(-6.226 -44.002)" fill="#898890"/>
      <path id="Trazado_641739" data-name="Trazado 641739" d="M393.43,53h5.093V99.661H393.43Zm0,0" transform="translate(-326.639 -44.002)" fill="#898890"/>
      <path id="Trazado_641740" data-name="Trazado 641740" d="M197.094,373.359h3.4v8.173h-3.4Zm0,0" transform="translate(-163.634 -309.976)" fill="#57565c"/>
      <path id="Trazado_641741" data-name="Trazado 641741" d="M97.918,373.359h3.4v6.73h-3.4Zm0,0" transform="translate(-81.295 -309.976)" fill="#ff3f62"/>
      <path id="Trazado_641742" data-name="Trazado 641742" d="M61.5,373.359h3.4v6.73H61.5Zm0,0" transform="translate(-51.059 -309.976)" fill="#ffb655"/>
      <path id="Trazado_641743" data-name="Trazado 641743" d="M414.082,373.359h3.4v6.73h-3.4Zm0,0" transform="translate(-343.785 -309.976)" fill="#ffb655"/>
      <path id="Trazado_641744" data-name="Trazado 641744" d="M377.668,373.359h3.4v6.73h-3.4Zm0,0" transform="translate(-313.553 -309.976)" fill="#ff3f62"/>
      <path id="Trazado_641745" data-name="Trazado 641745" d="M134.332,373.359h3.4v6.73h-3.4Zm0,0" transform="translate(-111.527 -309.976)" fill="#898890"/>
      <path id="Trazado_641746" data-name="Trazado 641746" d="M314.9,373.359h3.4v6.73h-3.4Zm0,0" transform="translate(-261.439 -309.976)" fill="#898890"/>
      <path id="Trazado_641747" data-name="Trazado 641747" d="M91,413h5.093v12.449H91Zm0,0" transform="translate(-75.551 -342.887)" fill="#57565c"/>
      <path id="Trazado_641748" data-name="Trazado 641748" d="M356.992,413h5.093v12.449h-5.093Zm0,0" transform="translate(-296.387 -342.887)" fill="#57565c"/>
      <path id="Trazado_641749" data-name="Trazado 641749" d="M145.832,217.691h5.093v18.7h-5.093Zm0,0" transform="translate(-121.075 -180.735)" fill="#ff7956"/>
      <path id="Trazado_641750" data-name="Trazado 641750" d="M181.477,217.691h3.4v5.116h-3.4Zm0,0" transform="translate(-150.668 -180.735)" fill="#ff9478"/>
      <path id="Trazado_641751" data-name="Trazado 641751" d="M256,217.691h5.093v18.7H256Zm0,0" transform="translate(-212.54 -180.735)" fill="#ff7956"/>
      <path id="Trazado_641752" data-name="Trazado 641752" d="M291.645,217.691h3.4v5.116h-3.4Zm0,0" transform="translate(-242.134 -180.735)" fill="#ff9478"/>
      <path id="Trazado_641753" data-name="Trazado 641753" d="M200.918,107.531h5.093v18.7h-5.093Zm0,0" transform="translate(-166.809 -89.276)" fill="#ff7956"/>
      <path id="Trazado_641754" data-name="Trazado 641754" d="M236.559,107.531h3.4v5.116h-3.4Zm0,0" transform="translate(-196.399 -89.276)" fill="#ff9478"/>
      <path id="Trazado_641755" data-name="Trazado 641755" d="M73.07,7.5h5.093v7.724H73.07Zm0,0" transform="translate(-60.665 -6.227)" fill="#ff3f62"/>
      <path id="Trazado_641756" data-name="Trazado 641756" d="M73.07,327.859h5.093v7.724H73.07Zm0,0" transform="translate(-60.665 -272.2)" fill="#ff3f62"/>
      <path id="Trazado_641757" data-name="Trazado 641757" d="M86.92,56.932V7.724H75.788V0H11.132V7.724H0V56.932H11.132V62.11H9.168v9.276H32.187v1.443H54.732V71.386h23.02V62.11H75.789V56.932ZM84.373,10.271V54.386H68.064V10.271Zm-62.971,0H65.518V54.386H21.4ZM13.678,2.546H73.242V7.724H13.678ZM2.547,54.386V10.271H18.856V54.386ZM15.35,68.84H11.714V64.656H15.35Zm6.182,0H17.9V64.656h3.636Zm2.546,0V64.656h8.108V68.84Zm10.655-4.183H52.186v5.626H34.733ZM62.842,68.84h-8.11V64.656h8.11Zm6.182,0H65.388V64.656h3.635Zm6.182,0H71.57V64.656h3.636Zm-1.964-6.73H13.678V60.794H26.767V58.248H13.678V56.932H73.242Zm0,0"/>
      <path id="Trazado_641758" data-name="Trazado 641758" d="M94.365,438.43H86.046v-1.641h6.2v-2.547h-6.2v-1.528h6.2v-2.546H83.5v10.809H96.911V430.649H94.365Zm0,0" transform="translate(-69.324 -357.141)"/>
      <path id="Trazado_641759" data-name="Trazado 641759" d="M360.357,438.43h-8.318v-1.641h6.2v-2.547h-6.2v-1.528h6.2v-2.546h-8.744v10.809H362.9V430.649h-2.546Zm0,0" transform="translate(-290.16 -357.141)"/>
      <path id="Trazado_641760" data-name="Trazado 641760" d="M163.273,296.191h5.594v2.546h-5.594Zm0,0" transform="translate(-135.555 -245.908)"/>
      <path id="Trazado_641761" data-name="Trazado 641761" d="M168.935,118.732v-18.7H147.687v18.7h-9.351v16.581h2.546V121.279h3.5v5.116h9.147V121.28h3.5v14.033h2.546V121.28h3.5v5.115h9.147v-5.116h3.5v14.034h2.546V118.732Zm-8.6-16.155v2.569h-4.054v-2.569Zm-10.1,0h3.5v5.115h9.147v-5.115h3.5v16.155H150.233Zm.753,21.271h-4.054v-2.57h4.054Zm18.7,0h-4.054V121.28h4.054Zm0,0" transform="translate(-114.851 -83.049)"/>
      <path id="Trazado_641762" data-name="Trazado 641762" d="M273.441,296.191h5.593v2.546h-5.593Zm0,0" transform="translate(-227.02 -245.908)"/>
      <path id="Trazado_641763" data-name="Trazado 641763" d="M218.359,186.031h5.593v2.546h-5.593Zm0,0" transform="translate(-181.289 -154.449)"/>
      <path id="Trazado_641764" data-name="Trazado 641764" d="M474.546,104.922H472V86.488h2.546Zm0-20.132H472V82.244h2.546Zm0-4.244H472V78h2.546Zm0,0" transform="translate(-391.871 -64.758)" fill="#fff"/>
      <path id="Trazado_641765" data-name="Trazado 641765" d="M88.616,104.922H86.07V86.488h2.546Zm0-20.132H86.07V82.244h2.546Zm0-4.244H86.07V78h2.546Zm0,0" transform="translate(-71.458 -64.758)" fill="#fff"/>
      <path id="Trazado_641766" data-name="Trazado 641766" d="M297.781,24.5H282.488V21.957h15.293Zm-16.99,0h-2.546V21.957h2.546Zm-4.244,0H274V21.957h2.546Zm0,0" transform="translate(-227.484 -18.229)" fill="#fff"/>
    </g>
  </g>
</svg>
