<svg xmlns="http://www.w3.org/2000/svg" xmlns:xlink="http://www.w3.org/1999/xlink" width="115" height="115" viewBox="0 0 115 115">
  <defs>
    <filter id="Elipse_7751" x="0" y="0" width="115" height="115" filterUnits="userSpaceOnUse">
      <feOffset dy="3" input="SourceAlpha"/>
      <feGaussianBlur stdDeviation="3" result="blur"/>
      <feFlood flood-opacity="0.161"/>
      <feComposite operator="in" in2="blur"/>
      <feComposite in="SourceGraphic"/>
    </filter>
  </defs>
  <g id="Grupo_969350" data-name="Grupo 969350" transform="translate(-753 -8580)">
    <g transform="matrix(1, 0, 0, 1, 753, 8580)" filter="url(#Elipse_7751)">
      <circle id="Elipse_7751-2" data-name="Elipse 7751" cx="48.5" cy="48.5" r="48.5" transform="translate(9 6)" fill="#f0bd51"/>
    </g>
    <g id="aprovechar" transform="translate(788.583 8610)">
      <path id="Trazado_630101" data-name="Trazado 630101" d="M40.068,64.447a3.546,3.546,0,0,1,3.419-3.662h.076a3.545,3.545,0,0,1,3.419,3.652c.016,6.606.006,7.255,0,17.122-.006,5.54-4.2,10.027-9.371,10.027H26.5a9.292,9.292,0,0,1-8.186-5.15l-9.9-19.02,1.034-.858a4.919,4.919,0,0,1,7.226.542l2.771,3.373.016-23.2a3.547,3.547,0,0,1,3.419-3.66h0A3.548,3.548,0,0,1,26.3,47.273V61.316a3.537,3.537,0,0,1,3.417-3.567h.08a3.547,3.547,0,0,1,3.419,3.662V62.59a3.547,3.547,0,0,1,3.42-3.662h.008a3.547,3.547,0,0,1,3.419,3.662Zm0,0" transform="translate(-7.096 -38.676)" fill="#f7caa5"/>
      <g id="Grupo_954612" data-name="Grupo 954612" transform="translate(0.417)">
        <path id="Trazado_630102" data-name="Trazado 630102" d="M36.467,52.831h-.076a4.152,4.152,0,0,0-2.8,1.065,4.361,4.361,0,0,0-4.05-2.958,4.2,4.2,0,0,0-3,1.293,4.3,4.3,0,0,0-3.836-2.455h-.08a3.967,3.967,0,0,0-2.47.81V40.178a4.474,4.474,0,0,0-4.346-4.568,4.465,4.465,0,0,0-4.335,4.564l-.019,20.679-1.171-1.422a5.9,5.9,0,0,0-4.17-2.19,5.809,5.809,0,0,0-4.352,1.54l-1.017.844a.905.905,0,0,0-.225,1.115l9.9,19.03a10.208,10.208,0,0,0,8.988,5.647h11.1c5.66,0,10.27-4.914,10.277-10.941,0-2.733,0-4.763.007-6.4.006-4.328.008-5.927,0-10.7a4.438,4.438,0,0,0-4.324-4.535Zm2.518,15.232c0,1.641,0,3.676-.008,6.409-.005,5.031-3.8,9.133-8.466,9.133h-11.1a8.4,8.4,0,0,1-7.383-4.672L2.463,60.556l.472-.394.035-.031a4.016,4.016,0,0,1,3.018-1.084,4.107,4.107,0,0,1,2.9,1.533l2.771,3.373a.905.905,0,0,0,1.6-.574l.016-23.2A2.664,2.664,0,0,1,15.81,37.42a2.664,2.664,0,0,1,2.535,2.758V54.213c0,.034,0,.068,0,.1,0,.015,0,.029,0,.044v6a.905.905,0,1,0,1.81,0V54.237a2.565,2.565,0,0,1,2.47-2.65h.08a2.643,2.643,0,0,1,2.541,2.729v5.474a.905.905,0,0,0,1.81,0V55.495a2.5,2.5,0,1,1,4.978,0v4.051a.905.905,0,1,0,1.81,0V57.352a2.63,2.63,0,0,1,2.546-2.711h.076a2.626,2.626,0,0,1,2.514,2.726c.011,4.775.009,6.37,0,10.7Zm0,0" transform="translate(-0.417 -31.581)" fill="#083863"/>
        <path id="Trazado_630103" data-name="Trazado 630103" d="M65.643,8.988a.905.905,0,0,0,.905-.905,6.272,6.272,0,1,1,12.545,0,.905.905,0,1,0,1.81,0,8.083,8.083,0,1,0-16.165,0,.905.905,0,0,0,.905.905Zm0,0" transform="translate(-57.461)" fill="#083863"/>
      </g>
    </g>
  </g>
</svg>
