<svg xmlns="http://www.w3.org/2000/svg" xmlns:xlink="http://www.w3.org/1999/xlink" width="111" height="111" viewBox="0 0 111 111">
  <defs>
    <clipPath id="clip-path">
      <rect id="Rectángulo_351158" data-name="Rectángulo 351158" width="71" height="69.669" fill="#fff"/>
    </clipPath>
  </defs>
  <g id="Grupo_980529" data-name="Grupo 980529" transform="translate(-325 -501)">
    <circle id="Elipse_8826" data-name="Elipse 8826" cx="55.5" cy="55.5" r="55.5" transform="translate(325 501)" fill="#f0bd51"/>
    <g id="Grupo_980524" data-name="Grupo 980524" transform="translate(347.5 518.666)">
      <g id="Grupo_980523" data-name="Grupo 980523" clip-path="url(#clip-path)">
        <path id="Trazado_656402" data-name="Trazado 656402" d="M111.039,22.218l-2.988,1.725a2.108,2.108,0,0,0,.4,3.83l14.274,4.655a2.108,2.108,0,0,0,2.716-1.568l3.105-14.689a2.108,2.108,0,0,0-3.117-2.262l-2.99,1.726-4.76-8.245A14.78,14.78,0,0,0,104.854,0L99.61.01a.8.8,0,0,0-.7,1.207Z" transform="translate(-70.955 -0.001)" fill="#fff"/>
        <path id="Trazado_656403" data-name="Trazado 656403" d="M21.129,106.44a2.108,2.108,0,0,0,3.117-2.262L21.141,89.489a2.109,2.109,0,0,0-2.717-1.569L4.15,92.576a2.108,2.108,0,0,0-.4,3.83l2.99,1.726-4.76,8.245a14.78,14.78,0,0,0,.013,14.8l2.63,4.537a.8.8,0,0,0,1.393,0l12.125-21Z" transform="translate(0 -63.063)" fill="#fff"/>
        <path id="Trazado_656404" data-name="Trazado 656404" d="M148.049,166.542H123.8v-3.45a2.108,2.108,0,0,0-3.518-1.568l-11.168,10.034a2.109,2.109,0,0,0,0,3.137l11.168,10.034a2.109,2.109,0,0,0,3.518-1.569v-3.453h9.521a14.78,14.78,0,0,0,12.813-7.413l2.614-4.546a.8.8,0,0,0-.7-1.206" transform="translate(-77.855 -115.604)" fill="#fff"/>
        <path id="Trazado_656405" data-name="Trazado 656405" d="M56.844,32.869a6.51,6.51,0,0,1,5.342,5.2l.531,2.541,6.216-10.755a.805.805,0,0,0,0-.8L62.27,17.5a.8.8,0,0,0-1.394,0L51.331,33.983l2.653-.861a6.225,6.225,0,0,1,2.86-.253" transform="translate(-36.862 -12.275)" fill="#fff"/>
        <path id="Trazado_656406" data-name="Trazado 656406" d="M53.471,187.219a6.286,6.286,0,0,1,2.091-4.691l2.126-1.9-12.431-.017a.8.8,0,0,0-.7.4l-6.678,11.551a.8.8,0,0,0,.7,1.207l19.058.016-2.073-1.862a6.324,6.324,0,0,1-2.091-4.709" transform="translate(-27.125 -129.703)" fill="#fff"/>
        <path id="Trazado_656407" data-name="Trazado 656407" d="M175.056,110.567a6.222,6.222,0,0,1-2.852-.254l-2.688-.878,6.2,10.771a.8.8,0,0,0,.7.4h13.34a.8.8,0,0,0,.7-1.207l-9.53-16.521-.534,2.521a6.489,6.489,0,0,1-5.33,5.164" transform="translate(-121.734 -73.882)" fill="#fff"/>
      </g>
    </g>
  </g>
</svg>
