<svg xmlns="http://www.w3.org/2000/svg" xmlns:xlink="http://www.w3.org/1999/xlink" width="111" height="111" viewBox="0 0 111 111">
  <defs>
    <clipPath id="clip-path">
      <rect id="Rectángulo_351159" data-name="Rectángulo 351159" width="83.708" height="75.11" fill="#fff"/>
    </clipPath>
  </defs>
  <g id="Grupo_980530" data-name="Grupo 980530" transform="translate(-746 -501)">
    <circle id="Elipse_8827" data-name="Elipse 8827" cx="55.5" cy="55.5" r="55.5" transform="translate(746 501)" fill="#f0bd51"/>
    <g id="Grupo_980526" data-name="Grupo 980526" transform="translate(762.391 517.967)">
      <g id="Grupo_980525" data-name="Grupo 980525" clip-path="url(#clip-path)">
        <path id="Trazado_656408" data-name="Trazado 656408" d="M47.162,39.661c.505-.9,1.1-1.853,1.77-2.836.309-.477.646-.927.983-1.377H39.662V21.937h11.6A61.734,61.734,0,0,1,52.92,31.8a46.47,46.47,0,0,1,3.82-3.652,59.454,59.454,0,0,0-1.124-6.208H66.178c1.573-.786,3.062-1.459,4.494-2.022A37.541,37.541,0,1,0,37.556,75.11a36.39,36.39,0,0,0,6.1-.506,7.729,7.729,0,0,1,.028-6.544,10.093,10.093,0,0,1-4.017,2.472V57.386h5.421a11.827,11.827,0,0,1-1.4-4.213H39.662V39.661ZM64.269,17.723H54.437a35.7,35.7,0,0,0-5.927-11.6,33.3,33.3,0,0,1,15.758,11.6M39.662,4.578C43.82,5.842,47.5,10.757,49.971,17.723H39.662ZM26.572,6.123a36.257,36.257,0,0,0-5.926,11.6H10.815a33.293,33.293,0,0,1,15.758-11.6M8.118,21.937H19.466a65.607,65.607,0,0,0-1.685,13.511H4.326A33.244,33.244,0,0,1,8.118,21.937M4.326,39.661H17.781a65.1,65.1,0,0,0,1.685,13.511H8.118A33.237,33.237,0,0,1,4.326,39.661m6.489,17.725h9.831a36.412,36.412,0,0,0,5.926,11.629A33.343,33.343,0,0,1,10.815,57.386M35.449,70.532c-4.185-1.264-7.865-6.18-10.337-13.146H35.449Zm0-17.359H23.82a62.811,62.811,0,0,1-1.826-13.511H35.449Zm0-17.725H21.994A62.82,62.82,0,0,1,23.82,21.937H35.449Zm0-17.724H25.112c2.472-6.966,6.152-11.882,10.337-13.145Z" fill="#fff"/>
        <path id="Trazado_656409" data-name="Trazado 656409" d="M200.89,75.738a1.5,1.5,0,0,0-1.843-1.252c-5.107,1.262-19.616,4.743-28.6,17.97-6.891,10.145-4.479,15.134-2.314,17.257a63.557,63.557,0,0,1,21.4-21.09,105.236,105.236,0,0,0-14.777,16.943,110.59,110.59,0,0,0-9.188,17.5,3,3,0,1,0,5.593,2.1,82.938,82.938,0,0,1,3.487-9.765c5.067.635,11.905,1.839,18.9-8.338a45.155,45.155,0,0,0,7.338-31.319" transform="translate(-117.575 -52.955)" fill="#fff"/>
      </g>
    </g>
  </g>
</svg>
