<svg xmlns="http://www.w3.org/2000/svg" xmlns:xlink="http://www.w3.org/1999/xlink" width="85" height="75" viewBox="0 0 85 75">
  <defs>
    <clipPath id="clip-path">
      <rect id="Rect치ngulo_351171" data-name="Rect치ngulo 351171" width="57.948" height="57.953" fill="none"/>
    </clipPath>
  </defs>
  <g id="Grupo_980549" data-name="Grupo 980549" transform="translate(-200 -5007)">
    <rect id="Rect치ngulo_351165" data-name="Rect치ngulo 351165" width="85" height="75" transform="translate(200 5007)" fill="none"/>
    <g id="Grupo_980561" data-name="Grupo 980561" transform="translate(213.526 5015.524)">
      <g id="Grupo_980560" data-name="Grupo 980560" transform="translate(0 0)" clip-path="url(#clip-path)">
        <path id="Trazado_656465" data-name="Trazado 656465" d="M20.919,30.162,9.74,32.712a7.267,7.267,0,0,0-5.352,5.94L1.063,56.9A3.355,3.355,0,0,0,4.1,61.014H19.541" transform="translate(-0.13 -3.93)" fill="none" stroke="#15168c" stroke-linejoin="round" stroke-width="2"/>
        <path id="Trazado_656466" data-name="Trazado 656466" d="M46.208,28.629,31.264,36.676V52.768l14.944,8.046,14.944-8.046V36.676Z" transform="translate(-4.074 -3.73)" fill="#fff"/>
        <path id="Trazado_656467" data-name="Trazado 656467" d="M32.964,52.136V37.81l13.465-7.25,13.465,7.25V52.136L46.429,59.386Z" transform="translate(-4.295 -3.982)" fill="#f0bd51"/>
        <path id="Trazado_656468" data-name="Trazado 656468" d="M46.208,31.987l11.987,6.455V51L46.208,57.455,34.221,51V38.442Zm0-3.358L31.264,36.675V52.767l14.944,8.046,14.944-8.046V36.675Z" transform="translate(-4.074 -3.73)" fill="#f0bd51"/>
        <path id="Trazado_656469" data-name="Trazado 656469" d="M48.447,58V46.253l10.908-5.873" transform="translate(-6.313 -5.261)" fill="none" stroke="#15168c" stroke-linecap="round" stroke-linejoin="round" stroke-width="2"/>
        <path id="Trazado_656470" data-name="Trazado 656470" d="M35.9,40.38l10.908,5.873V58" transform="translate(-4.678 -5.261)" fill="none" stroke="#15168c" stroke-linecap="round" stroke-linejoin="round" stroke-width="2"/>
        <path id="Trazado_656471" data-name="Trazado 656471" d="M46.208,28.629,31.264,36.676V52.768l14.944,8.046,14.944-8.046V36.676Z" transform="translate(-4.074 -3.73)" fill="none" stroke="#15168c" stroke-linecap="round" stroke-linejoin="round" stroke-width="2"/>
        <path id="Trazado_656472" data-name="Trazado 656472" d="M26.319,64.311H33.28a4.432,4.432,0,0,0,4.346-5.241,4.611,4.611,0,0,0-4.614-3.6H26.319Z" transform="translate(-3.43 -7.228)" fill="#fff"/>
        <path id="Trazado_656473" data-name="Trazado 656473" d="M26.319,64.311H33.28a4.432,4.432,0,0,0,4.346-5.241,4.611,4.611,0,0,0-4.614-3.6H26.319Z" transform="translate(-3.43 -7.228)" fill="none" stroke="#15168c" stroke-linecap="round" stroke-linejoin="round" stroke-width="2"/>
        <path id="Trazado_656474" data-name="Trazado 656474" d="M31.531,1A11.165,11.165,0,0,0,20.623,12.41h.008c0,.3.018.593.029.889a10.262,10.262,0,0,0,6.165-5.556l0,0,0,0v0c1.726,3.516,6.782,6.016,11.929,6.016a15.262,15.262,0,0,0,3.654-.437c.011-.3.03-.6.03-.911A11.164,11.164,0,0,0,31.531,1" transform="translate(-2.687 -0.131)" fill="#b2ccff"/>
        <path id="Trazado_656475" data-name="Trazado 656475" d="M31.531,1A11.165,11.165,0,0,0,20.623,12.41h.008c0,.3.018.593.029.889a10.262,10.262,0,0,0,6.165-5.556l0,0,0,0v0c1.726,3.516,6.782,6.016,11.929,6.016a15.262,15.262,0,0,0,3.654-.437c.011-.3.03-.6.03-.911A11.164,11.164,0,0,0,31.531,1Z" transform="translate(-2.687 -0.131)" fill="none" stroke="#b2ccff" stroke-linecap="round" stroke-linejoin="round" stroke-width="2"/>
        <path id="Trazado_656476" data-name="Trazado 656476" d="M20.853,15.6a24.279,24.279,0,0,1-.208-3.193h-.008A11.165,11.165,0,0,1,31.545,1,11.165,11.165,0,0,1,42.452,12.405a24.3,24.3,0,0,1-.208,3.194h-.008a2.736,2.736,0,0,1-2.713,2.533,2.576,2.576,0,0,1-.428-.043c-1.191,4.842-4.119,8.27-7.55,8.27s-6.359-3.428-7.551-8.27a2.567,2.567,0,0,1-.428.043A2.736,2.736,0,0,1,20.853,15.6Z" transform="translate(-2.689 -0.13)" fill="none" stroke="#15168c" stroke-linecap="round" stroke-linejoin="round" stroke-width="2"/>
        <path id="Trazado_656477" data-name="Trazado 656477" d="M39.7,14.762c-5.149,0-10.207-2.5-11.931-6.02" transform="translate(-3.618 -1.139)" fill="none" stroke="#15168c" stroke-linecap="round" stroke-linejoin="round" stroke-width="2"/>
      </g>
    </g>
  </g>
</svg>
