<svg xmlns="http://www.w3.org/2000/svg" xmlns:xlink="http://www.w3.org/1999/xlink" width="85" height="75" viewBox="0 0 85 75">
  <defs>
    <clipPath id="clip-path">
      <rect id="Rectángulo_351169" data-name="Rectángulo 351169" width="57" height="54.941" fill="none"/>
    </clipPath>
  </defs>
  <g id="Grupo_980581" data-name="Grupo 980581" transform="translate(-198 -5865)">
    <g id="Grupo_980555" data-name="Grupo 980555" transform="translate(-2 858)">
      <rect id="Rectángulo_351165" data-name="Rectángulo 351165" width="85" height="75" transform="translate(200 5007)" fill="none"/>
    </g>
    <g id="Grupo_980557" data-name="Grupo 980557" transform="translate(212 5875)">
      <g id="Grupo_980556" data-name="Grupo 980556" transform="translate(0 0.001)" clip-path="url(#clip-path)">
        <path id="Trazado_656458" data-name="Trazado 656458" d="M40.755,42.845s4.929-3.726,8.283-6.244c3.067-2.3,5.539-1.755,7.583-.12a1.05,1.05,0,0,1,.06,1.584L41.351,52.5a2.262,2.262,0,0,1-1.551.615H21.824A4.838,4.838,0,0,0,18.3,54.641l-4.4,4.683" transform="translate(-2.869 -7.239)" fill="none" stroke="#15168c" stroke-linecap="round" stroke-linejoin="round" stroke-width="2"/>
        <path id="Trazado_656460" data-name="Trazado 656460" d="M25.689,47.374H38.154a.662.662,0,0,0,.662-.705c-.3-4.219-2.873-4.621-4.292-4.621H28.276a12.257,12.257,0,0,0-8.143-2.358c-4.08,0-7.355,1.977-11.486,7.159L3.6,51.6" transform="translate(-0.743 -8.195)" fill="none" stroke="#15168c" stroke-linecap="round" stroke-linejoin="round" stroke-width="2"/>
        <rect id="Rectángulo_351167" data-name="Rectángulo 351167" width="28.587" height="26.907" transform="translate(14.204 0.793)" fill="#f0bd51"/>
        <rect id="Rectángulo_351168" data-name="Rectángulo 351168" width="28.587" height="26.907" transform="translate(14.204 0.793)" fill="none" stroke="#b2ccff" stroke-linecap="round" stroke-linejoin="round" stroke-width="2"/>
        <path id="Trazado_656461" data-name="Trazado 656461" d="M17.9,27.906V1H46.487V27.906" transform="translate(-3.696 -0.207)" fill="none" stroke="#15168c" stroke-linecap="round" stroke-linejoin="round" stroke-width="2"/>
        <path id="Trazado_656462" data-name="Trazado 656462" d="M29.214,22.2l5.335-5.335L39.883,22.2" transform="translate(-6.032 -3.481)" fill="none" stroke="#15168c" stroke-linecap="round" stroke-linejoin="round" stroke-width="2"/>
        <line id="Línea_739" data-name="Línea 739" y2="6.605" transform="translate(28.5 18.714)" fill="none" stroke="#15168c" stroke-linecap="round" stroke-linejoin="round" stroke-width="2"/>
        <path id="Trazado_656463" data-name="Trazado 656463" d="M39.771,4.15V9.943H29.214V4.15" transform="translate(-6.032 -0.857)" fill="#fff"/>
        <path id="Trazado_656464" data-name="Trazado 656464" d="M39.771,4.15V9.943H29.214V4.15" transform="translate(-6.032 -0.857)" fill="none" stroke="#15168c" stroke-linejoin="round" stroke-width="2"/>
      </g>
    </g>
  </g>
</svg>
