<svg xmlns="http://www.w3.org/2000/svg" width="148" height="148" viewBox="0 0 148 148">
  <g id="Grupo_969349" data-name="Grupo 969349" transform="translate(9308 -977)">
    <circle id="Elipse_7768" data-name="Elipse 7768" cx="74" cy="74" r="74" transform="translate(-9308 977)" fill="#583cb6"/>
    <g id="evaluacion" transform="translate(-9313.632 1005)">
      <g id="Grupo_954881" data-name="Grupo 954881" transform="translate(40.632 0)">
        <g id="Grupo_954880" data-name="Grupo 954880">
          <path id="Trazado_630714" data-name="Trazado 630714" d="M189,144.408a1.356,1.356,0,1,0,0-2.712H163.263a1.356,1.356,0,1,0,0,2.712Z" transform="translate(-139.959 -116.053)" fill="#fff"/>
          <path id="Trazado_630715" data-name="Trazado 630715" d="M86.41,186.553a1.356,1.356,0,0,0,1.356,1.356h31.623a1.356,1.356,0,1,0,0-2.712H87.766A1.356,1.356,0,0,0,86.41,186.553Z" transform="translate(-78.125 -151.681)" fill="#fff"/>
          <path id="Trazado_630716" data-name="Trazado 630716" d="M87.766,231.41H114.3a1.356,1.356,0,1,0,0-2.712H87.766a1.356,1.356,0,1,0,0,2.712Z" transform="translate(-78.125 -187.309)" fill="#fff"/>
          <path id="Trazado_630717" data-name="Trazado 630717" d="M87.766,274.911H112.1a1.356,1.356,0,1,0,0-2.712H87.766a1.356,1.356,0,0,0,0,2.712Z" transform="translate(-78.125 -222.938)" fill="#fff"/>
          <path id="Trazado_630718" data-name="Trazado 630718" d="M87.766,318.412H112.1a1.356,1.356,0,1,0,0-2.712H87.766a1.356,1.356,0,0,0,0,2.712Z" transform="translate(-78.125 -258.566)" fill="#fff"/>
          <path id="Trazado_630719" data-name="Trazado 630719" d="M87.766,361.913H114.3a1.356,1.356,0,1,0,0-2.712H87.766a1.356,1.356,0,1,0,0,2.712Z" transform="translate(-78.125 -294.194)" fill="#fff"/>
          <path id="Trazado_630720" data-name="Trazado 630720" d="M87.766,405.414h39.4a1.356,1.356,0,0,0,0-2.712h-39.4a1.356,1.356,0,0,0,0,2.712Z" transform="translate(-78.125 -329.823)" fill="#fff"/>
          <path id="Trazado_630721" data-name="Trazado 630721" d="M87.766,448.915h39.4a1.356,1.356,0,0,0,0-2.712h-39.4a1.356,1.356,0,0,0,0,2.712Z" transform="translate(-78.125 -365.451)" fill="#fff"/>
          <path id="Trazado_630722" data-name="Trazado 630722" d="M99.586,33.283c-.092,0-.184,0-.277.005V16.047a4.1,4.1,0,0,0-4.1-4.1H84.764V9.883a2.45,2.45,0,0,0-2.442-2.452H76.731V6.81a6.76,6.76,0,1,0-13.52,0v.62H57.619a2.45,2.45,0,0,0-2.442,2.452v2.069H44.727a4.1,4.1,0,0,0-4.1,4.1v6.422a1.356,1.356,0,0,0,2.712,0V16.047a1.385,1.385,0,0,1,1.383-1.383h10.45v2.069a2.45,2.45,0,0,0,2.442,2.452h24.7a2.45,2.45,0,0,0,2.442-2.452V14.663h10.45A1.385,1.385,0,0,1,96.6,16.047V33.515a18.866,18.866,0,0,0-8.3,3.47,1.356,1.356,0,1,0,1.609,2.183,16.324,16.324,0,1,1-3.983,4.2,1.356,1.356,0,0,0-2.266-1.49A19.049,19.049,0,0,0,96.6,71.139V88.611a1.385,1.385,0,0,1-1.383,1.383H44.727a1.385,1.385,0,0,1-1.383-1.383V28.76a1.356,1.356,0,0,0-2.712,0V88.611a4.1,4.1,0,0,0,4.1,4.1H95.214a4.1,4.1,0,0,0,4.1-4.1V71.371c.092,0,.184,0,.277,0a19.046,19.046,0,1,0,0-38.092ZM82.052,16.472H57.889V10.143h6.677a1.356,1.356,0,0,0,1.356-1.356V6.81a4.049,4.049,0,1,1,8.1,0V8.786a1.356,1.356,0,0,0,1.356,1.356h6.677v6.329Z" transform="translate(-40.632 0)" fill="#fff"/>
          <path id="Trazado_630723" data-name="Trazado 630723" d="M311.888,255.633l.121,0A4.26,4.26,0,0,0,315,254.271l9.731-10.54a4.236,4.236,0,1,0-6.224-5.747l-6.792,7.356-1.68-1.624a4.236,4.236,0,0,0-5.887,6.091l4.8,4.635A4.213,4.213,0,0,0,311.888,255.633ZM306,245.7a1.526,1.526,0,0,1,2.155-.037l2.677,2.588a1.356,1.356,0,0,0,1.939-.055l7.733-8.376a1.5,1.5,0,0,1,2.153-.086,1.532,1.532,0,0,1,.086,2.153l-9.732,10.54a1.53,1.53,0,0,1-1.072.489h-.047a1.516,1.516,0,0,1-1.059-.428l-4.8-4.635A1.525,1.525,0,0,1,306,245.7Z" transform="translate(-255.402 -193.799)" fill="#fff"/>
        </g>
      </g>
    </g>
  </g>
</svg>
