<svg xmlns="http://www.w3.org/2000/svg" width="148" height="148" viewBox="0 0 148 148">
  <g id="Grupo_969351" data-name="Grupo 969351" transform="translate(-730 -12677)">
    <circle id="Elipse_7766" data-name="Elipse 7766" cx="74" cy="74" r="74" transform="translate(730 12677)" fill="#583cb6"/>
    <g id="ingenieria" transform="translate(728.737 12699)">
      <g id="Grupo_954879" data-name="Grupo 954879" transform="translate(29.263)">
        <path id="Trazado_630713" data-name="Trazado 630713" d="M115.907,44h-.618c-.045,0-.222.029-.256,0s-.016-.139-.019-.184c-.007-.144-.014-.287-.023-.431-.056-.995-.152-1.989-.288-2.976a37.687,37.687,0,0,0-1.7-7.155,1.586,1.586,0,0,0-3,1.03c.353,1.028.652,2.071.906,3.125h-4.944a3.424,3.424,0,0,0-3.42,3.42V44H83.689V40.825a3.424,3.424,0,0,0-3.42-3.42H68.817a3.424,3.424,0,0,0-3.42,3.42V44H48.124V40.825A3.424,3.424,0,0,0,44.7,37.4H39.772a34.885,34.885,0,0,1,17.82-22.714l1.262,4.132a1.586,1.586,0,1,0,3.033-.927l-2.523-8.26a.16.16,0,0,1,.153-.207,1.577,1.577,0,0,0,.352-.04c1.363-.31,2.747-.579,4.133-.808V24.615a1.586,1.586,0,1,0,3.172,0V4.051a.88.88,0,0,1,.879-.879H82.618a.88.88,0,0,1,.879.879V24.615a1.586,1.586,0,0,0,3.172,0V8.581c1.386.229,2.77.5,4.133.808a1.577,1.577,0,0,0,.331.039.246.246,0,0,1,.151.065.151.151,0,0,1,.024.142l-2.4,7.859a1.586,1.586,0,1,0,3.033.927l1.14-3.732a35.2,35.2,0,0,1,14.142,13.49,1.586,1.586,0,0,0,2.744-1.59,38.386,38.386,0,0,0-15.945-14.98l.32-1.046a3.3,3.3,0,0,0-.508-2.955,3.4,3.4,0,0,0-2.467-1.343c-1.549-.349-3.123-.649-4.7-.9V4.05A4.054,4.054,0,0,0,82.619,0H68.053A4.055,4.055,0,0,0,64,4.051V5.367c-1.571.248-3.143.547-4.689.9a3.332,3.332,0,0,0-2.982,4.3l.319,1.044a38.066,38.066,0,0,0-20.372,26.94,1.563,1.563,0,0,0-.038.158,38.148,38.148,0,0,0-.5,3.89q-.055.7-.085,1.4h-.885a5.494,5.494,0,0,0-5.5,5.472v13.72a3.191,3.191,0,0,0,2.572,3.136L39.8,67.865A36.669,36.669,0,0,0,43.169,76l-4.541,6.721a3.2,3.2,0,0,0,.388,4.047l7.462,7.462a3.2,3.2,0,0,0,4.047.388l6.721-4.541a36.666,36.666,0,0,0,8.137,3.372l1.541,7.961A3.2,3.2,0,0,0,70.059,104H80.612a3.2,3.2,0,0,0,3.136-2.587L84.408,98a1.586,1.586,0,1,0-3.114-.6l-.66,3.409a.022.022,0,0,1-.022.018H70.059a.023.023,0,0,1-.022-.018l-1.73-8.938a1.585,1.585,0,0,0-1.173-1.237A33.493,33.493,0,0,1,58,86.848a1.587,1.587,0,0,0-1.7.046l-7.546,5.1a.021.021,0,0,1-.028,0l-7.462-7.462a.022.022,0,0,1,0-.028l5.1-7.546a1.587,1.587,0,0,0,.046-1.7,33.515,33.515,0,0,1-3.787-9.136,1.586,1.586,0,0,0-1.237-1.173L32.44,63.213a.037.037,0,0,1-.006-.025V59.5h16.1a26.853,26.853,0,0,0,53.611,0H118.2v3.691a.179.179,0,0,1,0,.029l-8.9,1.724a1.585,1.585,0,0,0-1.237,1.173,33.507,33.507,0,0,1-3.787,9.136,1.587,1.587,0,0,0,.046,1.7l5.1,7.545a.023.023,0,0,1,0,.029l-7.462,7.462a.022.022,0,0,1-.029,0l-7.546-5.1a1.587,1.587,0,0,0-1.7-.046,33.5,33.5,0,0,1-9.135,3.787,1.586,1.586,0,1,0,.768,3.077,36.67,36.67,0,0,0,9.12-3.633l6.721,4.541a3.2,3.2,0,0,0,4.048-.388l7.462-7.462a3.2,3.2,0,0,0,.388-4.047L107.5,76a36.654,36.654,0,0,0,3.373-8.137l7.961-1.541a3.136,3.136,0,0,0,2.538-3.136V49.467A5.476,5.476,0,0,0,115.907,44ZM105.72,40.825h0a.249.249,0,0,1,.248-.248h5.555c.035.245.069.491.1.737.021.175.04.35.059.526.024.225.047.45.066.676q.019.216.035.431c.024.321.045.642.06.964,0,.028,0,.057,0,.085H105.72Zm-37.151,0a.249.249,0,0,1,.248-.248H80.269a.249.249,0,0,1,.248.248V44H68.569ZM38.9,42.855c0-.053.009-.106.013-.159q.089-1.068.245-2.12H44.7a.249.249,0,0,1,.248.248V44H38.824C38.842,43.614,38.867,43.234,38.9,42.855ZM118.2,56.326H65.021a1.586,1.586,0,1,0,0,3.172H98.962a23.679,23.679,0,0,1-47.252,0h5.17a1.586,1.586,0,1,0,0-3.172H32.435V49.467a2.318,2.318,0,0,1,2.331-2.3h81.141a2.3,2.3,0,0,1,2.3,2.3v6.858Z" transform="translate(-29.263)" fill="#fff"/>
      </g>
    </g>
  </g>
</svg>
