<svg xmlns="http://www.w3.org/2000/svg" width="151" height="151" viewBox="0 0 151 151">
  <g id="Grupo_969351" data-name="Grupo 969351" transform="translate(-1138 -14777)">
    <g id="Elipse_7870" data-name="Elipse 7870" transform="translate(1138 14777)" fill="#fff" stroke="#ef8b53" stroke-width="5">
      <circle cx="75.5" cy="75.5" r="75.5" stroke="none"/>
      <circle cx="75.5" cy="75.5" r="73" fill="none"/>
    </g>
    <g id="investigacion-cualitativa" transform="translate(1171 14810)">
      <g id="Grupo_956774" data-name="Grupo 956774" transform="translate(2.355 7.774)">
        <path id="Trazado_631198" data-name="Trazado 631198" d="M61.727,18a5.418,5.418,0,0,1,5.419,5.419V39.677A5.418,5.418,0,0,1,61.727,45.1h-2.71l-8.129,5.419V45.1H39.86a19.45,19.45,0,0,0,0-5.419H59.017V38.323A12.194,12.194,0,0,0,48.463,26.237a13.15,13.15,0,0,0-1.639-.108A6.777,6.777,0,0,0,53.6,19.355,6.384,6.384,0,0,0,53.463,18Z" transform="translate(11.434 -1.742)" fill="#ffeaa7"/>
        <path id="Trazado_631199" data-name="Trazado 631199" d="M43.548,19.355a6.777,6.777,0,0,0,6.774,6.774,13.15,13.15,0,0,0-1.639.108,23.976,23.976,0,0,0-4.173,1.355,12.17,12.17,0,0,0-4.295,3.915l-.068.054A19,19,0,0,0,30,24.205v-.786A5.433,5.433,0,0,1,35.419,18h8.265A6.384,6.384,0,0,0,43.548,19.355Z" transform="translate(7.935 -1.742)" fill="#ffeaa7"/>
        <path id="Trazado_631200" data-name="Trazado 631200" d="M25.032,27.677h9.484A18.913,18.913,0,0,0,21.239,33.1H7.419A5.418,5.418,0,0,1,2,27.677V11.419A5.418,5.418,0,0,1,7.419,6h8.265a6.384,6.384,0,0,0-.135,1.355,6.777,6.777,0,0,0,6.774,6.774l-1.639.108c-4.539,1.45-5.866,2.357-6.977,3.468a12.132,12.132,0,0,0-3.577,8.617v1.355h14.9Z" transform="translate(-2 -6)" fill="#ffeaa7"/>
        <path id="Trazado_631201" data-name="Trazado 631201" d="M37.323,11.419V22.99a5.392,5.392,0,0,0-2.71,4.688v.786a18.856,18.856,0,0,0-5.419-.786V26.323A12.194,12.194,0,0,0,18.639,14.237,12.98,12.98,0,0,0,17,14.129a6.777,6.777,0,0,0,6.774-6.774A6.384,6.384,0,0,0,23.639,6H31.9A5.418,5.418,0,0,1,37.323,11.419Z" transform="translate(3.323 -6)" fill="#ffeaa7"/>
      </g>
      <path id="Trazado_631202" data-name="Trazado 631202" d="M28.764,24.165V25.52H19.28L18.21,12.094V12.08A12.194,12.194,0,0,1,28.764,24.165Z" transform="translate(6.107 3.932)" fill="#ff826e"/>
      <path id="Trazado_631203" data-name="Trazado 631203" d="M18.554,12.094,17.484,25.52H8V24.165a12.132,12.132,0,0,1,3.577-8.617c1.111-1.111,2.439-2.019,6.977-3.468Z" transform="translate(2.484 3.932)" fill="#ff826e"/>
      <path id="Trazado_631204" data-name="Trazado 631204" d="M19.349,12.122l1.07,13.426H15l1.07-13.426v-.014L17.71,12a12.98,12.98,0,0,1,1.639.108Z" transform="translate(4.968 3.903)" fill="#e6e9ed"/>
      <path id="Trazado_631205" data-name="Trazado 631205" d="M56.764,36.165V37.52H47.28L46.21,24.094V24.08A12.194,12.194,0,0,1,56.764,36.165Z" transform="translate(16.042 8.19)" fill="#b4dd7f"/>
      <path id="Trazado_631206" data-name="Trazado 631206" d="M46.025,24.08v.014L44.955,37.52H40.7A18.948,18.948,0,0,0,37.49,29.4l.068-.054a12.17,12.17,0,0,1,4.295-3.915A23.976,23.976,0,0,1,46.025,24.08Z" transform="translate(12.948 8.19)" fill="#b4dd7f"/>
      <path id="Trazado_631207" data-name="Trazado 631207" d="M47.349,24.122l1.07,13.426H43l1.07-13.426v-.014a12.452,12.452,0,0,1,3.279,0Z" transform="translate(14.903 8.161)" fill="#e6e9ed"/>
      <path id="Trazado_631208" data-name="Trazado 631208" d="M69.806,48.71V64.968a2.718,2.718,0,0,1-2.71,2.71H42.71A2.718,2.718,0,0,1,40,64.968V48.71A2.718,2.718,0,0,1,42.71,46H67.1A2.718,2.718,0,0,1,69.806,48.71Z" transform="translate(13.839 15.968)" fill="#b4dd7f"/>
      <path id="Trazado_631209" data-name="Trazado 631209" d="M15.548,47.355l4.065,4.065,1.355,1.355L10.183,63.559a4.79,4.79,0,1,1-6.774-6.774L14.194,46Z" transform="translate(0.355 15.968)" fill="#dfb28b"/>
      <path id="Trazado_631210" data-name="Trazado 631210" d="M19.75,48.345,16.065,52.03,12,47.965l3.685-3.685A18.653,18.653,0,0,0,19.75,48.345Z" transform="translate(3.903 15.357)" fill="#fcd770"/>
      <path id="Trazado_631211" data-name="Trazado 631211" d="M19.75,56.25a18.653,18.653,0,0,1-4.065-4.065A18.959,18.959,0,1,1,49.746,38.258a19.45,19.45,0,0,1,0,5.419,18.958,18.958,0,0,1-30,12.573Z" transform="translate(3.903 7.452)" fill="#e6e9ed"/>
      <circle id="Elipse_7880" data-name="Elipse 7880" cx="13.5" cy="13.5" r="13.5" transform="translate(21 35)" fill="#69d6f4"/>
      <path id="Trazado_631212" data-name="Trazado 631212" d="M25.413,7.419a6.384,6.384,0,0,1,.135,1.355A6.774,6.774,0,0,1,12,8.774a6.384,6.384,0,0,1,.135-1.355,6.776,6.776,0,0,1,13.277,0Z" transform="translate(3.903 0.355)" fill="#f0d0b4"/>
      <path id="Trazado_631213" data-name="Trazado 631213" d="M53.548,20.774a6.774,6.774,0,0,1-13.548,0,6.384,6.384,0,0,1,.135-1.355,6.776,6.776,0,0,1,13.277,0A6.384,6.384,0,0,1,53.548,20.774Z" transform="translate(13.839 4.613)" fill="#f0d0b4"/>
      <path id="Trazado_631214" data-name="Trazado 631214" d="M29.9,25a14.9,14.9,0,1,0,14.9,14.9A14.921,14.921,0,0,0,29.9,25Zm0,27.1A12.194,12.194,0,1,1,42.1,39.9,12.208,12.208,0,0,1,29.9,52.1Z" transform="translate(4.968 8.516)"/>
      <path id="Trazado_631215" data-name="Trazado 631215" d="M63.323,52.484v6.6l9.894-6.6h2.3A6.782,6.782,0,0,0,82.29,45.71V29.452a6.782,6.782,0,0,0-6.774-6.774H68.268a8.116,8.116,0,0,0-15.31,0H45.71a6.768,6.768,0,0,0-1.355.137V13.194a6.782,6.782,0,0,0-6.774-6.774H30.332a8.116,8.116,0,0,0-15.31,0H7.774A6.782,6.782,0,0,0,1,13.194V29.452a6.782,6.782,0,0,0,6.774,6.774H18.651a20.186,20.186,0,0,0-.812,23.245L15.9,61.407l-1.355-1.355L2.8,71.8a6.145,6.145,0,0,0,8.69,8.69L23.238,68.742l-1.355-1.355,1.936-1.936A20.292,20.292,0,0,0,54.784,52.484Zm5.419-27.1h6.774a4.069,4.069,0,0,1,4.065,4.065V45.71a4.069,4.069,0,0,1-4.065,4.065H72.4l-6.364,4.243V49.774H55.124c.03-.45.069-.9.069-1.355s-.039-.905-.069-1.355H74.161v-2.71A13.562,13.562,0,0,0,65.62,31.778,8.114,8.114,0,0,0,68.742,25.387ZM64.574,44.355l-.828-10.373a10.856,10.856,0,0,1,7.7,10.373Zm-3.584-10.82.864,10.82H59.371l.863-10.816c.127,0,.252-.023.379-.023S60.865,33.531,60.991,33.535Zm-4.34,10.82H54.783a20.164,20.164,0,0,0-2.689-6.671A10.8,10.8,0,0,1,57.478,34Zm3.962-24.387a5.419,5.419,0,1,1-5.419,5.419A5.425,5.425,0,0,1,60.613,19.968Zm-8.129,5.419A8.115,8.115,0,0,0,55.6,31.775,13.53,13.53,0,0,0,50.453,35.4a20.382,20.382,0,0,0-8.792-6.108,4.061,4.061,0,0,1,4.048-3.9ZM30.806,9.129h6.774a4.069,4.069,0,0,1,4.065,4.065V24.067a6.739,6.739,0,0,0-2.616,4.461,20.067,20.067,0,0,0-2.8-.362V28.1A13.562,13.562,0,0,0,27.685,15.52,8.114,8.114,0,0,0,30.806,9.129ZM11.839,28.1a10.855,10.855,0,0,1,7.706-10.373L18.716,28.1ZM22.3,17.277c.126,0,.251-.019.378-.019s.252.015.378.019L23.92,28.1H21.435Zm3.51.447A10.855,10.855,0,0,1,33.516,28.1H26.639ZM22.677,3.71a5.419,5.419,0,1,1-5.419,5.419A5.425,5.425,0,0,1,22.677,3.71ZM3.71,29.452V13.194A4.069,4.069,0,0,1,7.774,9.129h6.774A8.114,8.114,0,0,0,17.67,15.52,13.562,13.562,0,0,0,9.129,28.1v2.71H24.776a20.4,20.4,0,0,0-3.674,2.71H7.774A4.069,4.069,0,0,1,3.71,29.452ZM9.575,78.575a3.435,3.435,0,1,1-4.858-4.858l9.832-9.833,4.858,4.858Zm10.393-13.1-2.149-2.149,1.665-1.665a20.624,20.624,0,0,0,2.149,2.149Zm14.9.561A17.613,17.613,0,1,1,52.484,48.419,17.633,17.633,0,0,1,34.871,66.032Z"/>
      <path id="Trazado_631216" data-name="Trazado 631216" d="M67.452,45H43.065A4.069,4.069,0,0,0,39,49.065V65.323a4.069,4.069,0,0,0,4.065,4.065H67.452a4.069,4.069,0,0,0,4.065-4.065V49.065A4.069,4.069,0,0,0,67.452,45Zm1.355,20.323a1.356,1.356,0,0,1-1.355,1.355H43.065a1.356,1.356,0,0,1-1.355-1.355V49.065a1.356,1.356,0,0,1,1.355-1.355H67.452a1.356,1.356,0,0,1,1.355,1.355Z" transform="translate(13.484 15.613)"/>
      <path id="Trazado_631217" data-name="Trazado 631217" d="M61.968,51.71h-2.71v8.129h-2.71V54.419h-2.71v5.419h-2.71v-2.71h-2.71v2.71H45.71V49H43V62.548H64.677v-2.71h-2.71Z" transform="translate(14.903 17.032)"/>
      <path id="Trazado_631218" data-name="Trazado 631218" d="M55,21h2.71v2.71H55Z" transform="translate(19.161 7.097)"/>
      <path id="Trazado_631219" data-name="Trazado 631219" d="M55,25h2.71v2.71H55Z" transform="translate(19.161 8.516)"/>
      <path id="Trazado_631220" data-name="Trazado 631220" d="M5,9H7.71v2.71H5Z" transform="translate(1.419 2.839)"/>
      <path id="Trazado_631221" data-name="Trazado 631221" d="M5,13H7.71v2.71H5Z" transform="translate(1.419 4.258)"/>
    </g>
  </g>
</svg>
