<svg xmlns="http://www.w3.org/2000/svg" width="134" height="134" viewBox="0 0 134 134">
  <g id="Grupo_969350" data-name="Grupo 969350" transform="translate(-309 -18564)">
    <circle id="Elipse_7711" data-name="Elipse 7711" cx="67" cy="67" r="67" transform="translate(309 18564)" fill="#ef8b53"/>
    <g id="orden" transform="translate(314.01 18569.816)">
      <g id="Grupo_952851" data-name="Grupo 952851" transform="translate(22.662 11.855)">
        <g id="Grupo_952850" data-name="Grupo 952850" transform="translate(0)">
          <path id="Trazado_628662" data-name="Trazado 628662" d="M22.737,20.458h56.5v78.4h-56.5Z" transform="translate(-22.737 -12.297)" fill="#ffbe3b"/>
          <path id="Trazado_628663" data-name="Trazado 628663" d="M30.453,28.173H72.184V91.807H30.453Z" transform="translate(-23.069 -12.629)" fill="#ddd"/>
          <path id="Trazado_628664" data-name="Trazado 628664" d="M60.535,11.93H42.914a3.007,3.007,0,0,0-3.007,3.007v6.447H63.544V14.937a3.007,3.007,0,0,0-3.009-3.007Z" transform="translate(-23.476 -11.93)" fill="#adadad"/>
          <rect id="Rectángulo_306500" data-name="Rectángulo 306500" width="33.817" height="14.181" rx="3.557" transform="translate(11.34 4.818)" fill="#606060"/>
        </g>
        <circle id="Elipse_7712" data-name="Elipse 7712" cx="22.477" cy="22.477" r="22.477" transform="translate(34.02 54.704)" fill="#6fd130"/>
        <path id="Trazado_628665" data-name="Trazado 628665" d="M79.847,101.685,95.48,86.051a2.473,2.473,0,0,0-3.5-3.5L78.1,96.443,70.21,88.55a2.473,2.473,0,1,0-3.5,3.5l9.637,9.638a2.474,2.474,0,0,0,3.5,0Z" transform="translate(-24.598 -14.938)" fill="#efefef"/>
      </g>
      <g id="Grupo_952852" data-name="Grupo 952852" transform="translate(20.99 10.184)">
        <path id="Trazado_628666" data-name="Trazado 628666" d="M24.339,56.08V40.55a1.675,1.675,0,1,0-3.349,0V56.08a1.675,1.675,0,0,0,3.349,0Z" transform="translate(-20.99 -11.419)"/>
        <path id="Trazado_628667" data-name="Trazado 628667" d="M22.665,62.129A1.675,1.675,0,0,0,20.99,63.8V98.418a1.676,1.676,0,0,0,1.675,1.675H57.711a24.127,24.127,0,0,0,37.136,7.3,1.675,1.675,0,1,0-2.178-2.545A20.8,20.8,0,0,1,58.36,89.039c.039-.1-.442-14.652,13.972-19.646a20.559,20.559,0,0,1,6.833-1.159A20.785,20.785,0,0,1,97.749,98.35a1.675,1.675,0,1,0,2.988,1.512,24.127,24.127,0,0,0-19.9-34.912V20.013a1.675,1.675,0,0,0-1.675-1.675h-10A5.019,5.019,0,0,0,64.417,15h-.01v-.134a4.689,4.689,0,0,0-4.689-4.681H42.1a4.689,4.689,0,0,0-4.68,4.681V15H37.4a5.013,5.013,0,0,0-4.744,3.34H22.665a1.675,1.675,0,0,0-1.675,1.675V30.358a1.675,1.675,0,1,0,3.349,0v-8.67H32.33v4.038H30.043A1.714,1.714,0,0,0,28.368,27.4V91.03A1.675,1.675,0,0,0,30.043,92.7H55.295a24.225,24.225,0,0,0,.974,4.038H24.339V63.8a1.675,1.675,0,0,0-1.675-1.675ZM69.489,21.688h8V64.943a25.6,25.6,0,0,0-4.038.638V27.4a1.675,1.675,0,0,0-1.675-1.675H69.489ZM40.771,14.865a1.317,1.317,0,0,1,1.33-1.331H59.719a1.34,1.34,0,0,1,1.34,1.331V15H40.771ZM35.68,20.044a1.717,1.717,0,0,1,1.723-1.7H64.417a1.723,1.723,0,0,1,1.723,1.686v7.415a1.729,1.729,0,0,1-1.723,1.732H37.4A1.741,1.741,0,0,1,35.68,27.4ZM55.01,89.355H31.718V29.076H32.6A5.14,5.14,0,0,0,37.4,32.53H64.417a5.143,5.143,0,0,0,4.8-3.455H70.1V66.652a24.228,24.228,0,0,0-15.09,22.7Z" transform="translate(-20.99 -10.184)"/>
        <path id="Trazado_628668" data-name="Trazado 628668" d="M64.027,46.13a1.675,1.675,0,1,0,0-3.349h-24.8a1.675,1.675,0,0,0,0,3.349Z" transform="translate(-21.703 -11.587)"/>
        <path id="Trazado_628669" data-name="Trazado 628669" d="M64.027,55.82a1.675,1.675,0,1,0,0-3.349h-24.8a1.675,1.675,0,0,0,0,3.349Z" transform="translate(-21.703 -12.004)"/>
        <path id="Trazado_628670" data-name="Trazado 628670" d="M64.027,65.509a1.675,1.675,0,1,0,0-3.349h-24.8a1.675,1.675,0,0,0,0,3.349Z" transform="translate(-21.703 -12.42)"/>
        <path id="Trazado_628671" data-name="Trazado 628671" d="M55.022,75.2a1.675,1.675,0,1,0,0-3.349h-15.8a1.675,1.675,0,0,0,0,3.349Z" transform="translate(-21.703 -12.837)"/>
        <path id="Trazado_628672" data-name="Trazado 628672" d="M50.049,84.888a1.675,1.675,0,1,0,0-3.349H39.225a1.675,1.675,0,0,0,0,3.349Z" transform="translate(-21.703 -13.254)"/>
        <path id="Trazado_628673" data-name="Trazado 628673" d="M78.019,104.005a4.147,4.147,0,0,0,2.938-1.215L96.592,87.164a4.151,4.151,0,0,0-5.87-5.87l-12.7,12.7-6.7-6.7a4.149,4.149,0,1,0-5.876,5.859l9.638,9.637a4.133,4.133,0,0,0,2.936,1.214Zm-10.2-14.344a.8.8,0,0,1,1.135,0l7.885,7.885a1.673,1.673,0,0,0,2.368,0L93.09,83.661a.8.8,0,1,1,1.135,1.134L79.841,99.168l-1.253,1.255a.8.8,0,0,1-1.133,0l-9.633-9.631a.81.81,0,0,1-.007-1.13Z" transform="translate(-22.851 -13.191)"/>
      </g>
    </g>
  </g>
</svg>
