<svg xmlns="http://www.w3.org/2000/svg" width="420" height="198.5" viewBox="0 0 420 198.5">
  <g id="Grupo_969356" data-name="Grupo 969356" transform="translate(9711 1410.924)">
    <path id="Trazado_631703" data-name="Trazado 631703" d="M588.879,475.2c-.057.176-.118.353-.177.531q-.771,2.26-1.7,4.589-.129.325-.262.649-1.129,2.773-2.5,5.648s0,0,0,0c-.009.022-.021.046-.032.068l-387.479.527c.091-1.55-35.39-51.644,1.736-100.4S279,364.332,287.911,330.027a52.326,52.326,0,0,1,9-18.859q.315-.418.645-.824.835-1.048,1.72-2.035.246-.275.493-.544a48.713,48.713,0,0,1,4.776-4.515c.337-.278.678-.554,1.023-.823h0c20.626-16.138,53.045-15.449,76.2-5.851,30.756,12.745,87.049-9.408,135.15,6.779q1.2.4,2.384.837h0q2.5.912,4.962,1.972a51.978,51.978,0,0,1,9.432,5.216c.388.274.769.552,1.141.832h0c33.321,25.14,3.7,77.854,20.909,86.005,10.8,5.115,26.741,16.6,33.637,35.245.087.237.173.474.258.713q.141.4.275.8c.081.24.161.482.237.724C593.635,446.529,594.055,459.648,588.879,475.2Z" transform="translate(-9885.762 -1700.675)" fill="#ebf3fa"/>
    <g id="Grupo_957074" data-name="Grupo 957074" transform="translate(-9592.41 -1375.036)" opacity="0.4">
      <g id="Grupo_957065" data-name="Grupo 957065" transform="translate(72.305)">
        <rect id="Rectángulo_307835" data-name="Rectángulo 307835" width="29.967" height="24.709" transform="translate(29.967 24.709) rotate(180)" fill="#c3dafc"/>
        <rect id="Rectángulo_307836" data-name="Rectángulo 307836" width="29.967" height="24.709" transform="translate(44.95 24.709) rotate(180)" fill="#d4e4f8"/>
        <path id="Trazado_631704" data-name="Trazado 631704" d="M1451.305,650.875h4.749l-.418-1.336.418-.955h-4.749Z" transform="translate(-1451.288 -632.432)" fill="#9dc3f3"/>
        <path id="Trazado_631705" data-name="Trazado 631705" d="M1554.5,576.431h4.748l-.418-1.336.418-.955H1554.5Z" transform="translate(-1539.519 -568.784)" fill="#e3f0ff"/>
        <path id="Trazado_631706" data-name="Trazado 631706" d="M1526.507,574.14h-4.749l.418,1.336-.418.955h4.749Z" transform="translate(-1511.524 -568.784)" fill="#9dc3f3"/>
        <path id="Trazado_631707" data-name="Trazado 631707" d="M1733.146,666.211H1728.4l.418,1.336-.418.955h4.749Z" transform="translate(-1688.195 -647.503)" fill="#e3f0ff"/>
        <rect id="Rectángulo_307837" data-name="Rectángulo 307837" width="8.623" height="3.355" transform="translate(34.365 1.675)" fill="#fff"/>
      </g>
      <g id="Grupo_957066" data-name="Grupo 957066" transform="translate(19.384)">
        <rect id="Rectángulo_307838" data-name="Rectángulo 307838" width="29.967" height="24.709" transform="translate(29.967 24.709) rotate(180)" fill="#c3dafc"/>
        <rect id="Rectángulo_307839" data-name="Rectángulo 307839" width="29.967" height="24.709" transform="translate(44.95 24.709) rotate(180)" fill="#d4e4f8"/>
        <path id="Trazado_631708" data-name="Trazado 631708" d="M1086.391,650.875h4.748l-.418-1.336.418-.955h-4.748Z" transform="translate(-1086.373 -632.432)" fill="#9dc3f3"/>
        <path id="Trazado_631709" data-name="Trazado 631709" d="M1189.587,576.431h4.749l-.418-1.336.418-.955h-4.749Z" transform="translate(-1174.604 -568.784)" fill="#e3f0ff"/>
        <path id="Trazado_631710" data-name="Trazado 631710" d="M1161.592,574.14h-4.749l.418,1.336-.418.955h4.749Z" transform="translate(-1146.609 -568.784)" fill="#9dc3f3"/>
        <path id="Trazado_631711" data-name="Trazado 631711" d="M1368.231,666.211h-4.748l.418,1.336-.418.955h4.748Z" transform="translate(-1323.28 -647.503)" fill="#e3f0ff"/>
        <rect id="Rectángulo_307840" data-name="Rectángulo 307840" width="8.623" height="3.355" transform="translate(34.365 1.675)" fill="#fff"/>
      </g>
      <g id="Grupo_957073" data-name="Grupo 957073" transform="translate(0 24.709)">
        <rect id="Rectángulo_307841" data-name="Rectángulo 307841" width="11.526" height="137.476" fill="#c3dafc"/>
        <rect id="Rectángulo_307842" data-name="Rectángulo 307842" width="9.581" height="137.476" transform="translate(126.366)" fill="#c3dafc"/>
        <rect id="Rectángulo_307843" data-name="Rectángulo 307843" width="124.421" height="3.578" transform="translate(11.526)" fill="#c3dafc"/>
        <rect id="Rectángulo_307844" data-name="Rectángulo 307844" width="124.421" height="3.578" transform="translate(11.526 65.16)" fill="#c3dafc"/>
        <rect id="Rectángulo_307845" data-name="Rectángulo 307845" width="124.421" height="3.578" transform="translate(11.526 119.81)" fill="#c3dafc"/>
        <g id="Grupo_957067" data-name="Grupo 957067" transform="translate(74.38 39.613)">
          <rect id="Rectángulo_307846" data-name="Rectángulo 307846" width="30.982" height="25.546" transform="translate(30.982 25.546) rotate(180)" fill="#a9c8ed"/>
          <rect id="Rectángulo_307847" data-name="Rectángulo 307847" width="30.982" height="25.546" transform="translate(46.472 25.546) rotate(180)" fill="#d4e4f8"/>
          <path id="Trazado_631712" data-name="Trazado 631712" d="M1465.618,1098.262h4.909l-.432-1.381.432-.987h-4.909Z" transform="translate(-1465.6 -1079.194)" fill="#9dc3f3"/>
          <path id="Trazado_631713" data-name="Trazado 631713" d="M1572.311,1021.3h4.909l-.432-1.381.432-.987h-4.909Z" transform="translate(-1556.82 -1013.39)" fill="#e3f0ff"/>
          <path id="Trazado_631714" data-name="Trazado 631714" d="M1543.367,1018.927h-4.909l.432,1.381-.432.987h4.909Z" transform="translate(-1527.877 -1013.39)" fill="#9dc3f3"/>
          <path id="Trazado_631715" data-name="Trazado 631715" d="M1757.006,1114.116H1752.1l.432,1.382-.432.987h4.909Z" transform="translate(-1710.533 -1094.774)" fill="#e3f0ff"/>
          <rect id="Rectángulo_307848" data-name="Rectángulo 307848" width="8.916" height="3.469" transform="translate(35.528 1.732)" fill="#fff"/>
        </g>
        <g id="Grupo_957068" data-name="Grupo 957068" transform="translate(34.62 39.613)">
          <rect id="Rectángulo_307849" data-name="Rectángulo 307849" width="30.982" height="25.546" transform="translate(30.982 25.546) rotate(180)" fill="#c3dafc"/>
          <rect id="Rectángulo_307850" data-name="Rectángulo 307850" width="30.982" height="25.546" transform="translate(46.473 25.546) rotate(180)" fill="#d4e4f8"/>
          <path id="Trazado_631716" data-name="Trazado 631716" d="M1191.458,1098.262h4.909l-.433-1.381.433-.987h-4.909Z" transform="translate(-1191.44 -1079.194)" fill="#9dc3f3"/>
          <path id="Trazado_631717" data-name="Trazado 631717" d="M1298.15,1021.3h4.909l-.432-1.381.432-.987h-4.909Z" transform="translate(-1282.66 -1013.39)" fill="#e3f0ff"/>
          <path id="Trazado_631718" data-name="Trazado 631718" d="M1269.207,1018.927H1264.3l.432,1.381-.432.987h4.909Z" transform="translate(-1253.716 -1013.39)" fill="#9dc3f3"/>
          <path id="Trazado_631719" data-name="Trazado 631719" d="M1482.845,1114.116h-4.909l.432,1.382-.432.987h4.909Z" transform="translate(-1436.372 -1094.774)" fill="#e3f0ff"/>
          <path id="Trazado_631720" data-name="Trazado 631720" d="M1482.845,1016.606h-4.909l.432,1.381-.432.987h4.909Z" transform="translate(-1436.372 -1011.405)" fill="#e3f0ff"/>
          <rect id="Rectángulo_307851" data-name="Rectángulo 307851" width="14.531" height="5.653" transform="translate(18.62 17.157)" fill="#fff"/>
        </g>
        <g id="Grupo_957069" data-name="Grupo 957069" transform="translate(74.38 97.648)">
          <rect id="Rectángulo_307852" data-name="Rectángulo 307852" width="26.778" height="22.08" transform="translate(26.778 22.08) rotate(180)" fill="#c3dafc"/>
          <rect id="Rectángulo_307853" data-name="Rectángulo 307853" width="26.778" height="22.08" transform="translate(40.167 22.08) rotate(180)" fill="#d4e4f8"/>
          <path id="Trazado_631721" data-name="Trazado 631721" d="M1465.6,1482.491h4.243l-.374-1.194.374-.853H1465.6Z" transform="translate(-1465.586 -1466.01)" fill="#9dc3f3"/>
          <path id="Trazado_631722" data-name="Trazado 631722" d="M1557.816,1415.968h4.243l-.374-1.194.374-.853h-4.243Z" transform="translate(-1544.428 -1409.135)" fill="#e3f0ff"/>
          <path id="Trazado_631723" data-name="Trazado 631723" d="M1532.8,1413.921h-4.243l.374,1.194-.374.853h4.243Z" transform="translate(-1519.412 -1409.135)" fill="#9dc3f3"/>
          <path id="Trazado_631724" data-name="Trazado 631724" d="M1717.451,1496.194h-4.243l.374,1.194-.374.853h4.243Z" transform="translate(-1677.284 -1479.477)" fill="#e3f0ff"/>
          <rect id="Rectángulo_307854" data-name="Rectángulo 307854" width="7.706" height="2.998" transform="translate(30.708 1.497)" fill="#fff"/>
        </g>
        <g id="Grupo_957070" data-name="Grupo 957070" transform="translate(23.523 94.182)">
          <rect id="Rectángulo_307855" data-name="Rectángulo 307855" width="30.982" height="25.546" transform="translate(30.982 25.546) rotate(180)" fill="#c3dafc"/>
          <rect id="Rectángulo_307856" data-name="Rectángulo 307856" width="30.982" height="25.546" transform="translate(46.473 25.546) rotate(180)" fill="#d4e4f8"/>
          <path id="Trazado_631725" data-name="Trazado 631725" d="M1114.935,1474.535h4.909l-.432-1.381.432-.987h-4.909Z" transform="translate(-1114.917 -1455.467)" fill="#2a4e96"/>
          <path id="Trazado_631726" data-name="Trazado 631726" d="M1221.626,1397.568h4.909l-.432-1.382.432-.987h-4.909Z" transform="translate(-1206.136 -1389.662)" fill="#618dc1"/>
          <path id="Trazado_631727" data-name="Trazado 631727" d="M1192.684,1395.2h-4.909l.432,1.381-.432.987h4.909Z" transform="translate(-1177.193 -1389.662)" fill="#2a4e96"/>
          <path id="Trazado_631728" data-name="Trazado 631728" d="M1406.322,1490.389h-4.909l.432,1.382-.432.987h4.909Z" transform="translate(-1359.849 -1471.047)" fill="#618dc1"/>
          <rect id="Rectángulo_307857" data-name="Rectángulo 307857" width="8.916" height="3.469" transform="translate(35.529 1.732)" fill="#fff"/>
        </g>
        <g id="Grupo_957071" data-name="Grupo 957071" transform="translate(32.243 19.966)">
          <rect id="Rectángulo_307858" data-name="Rectángulo 307858" width="23.685" height="19.53" transform="translate(23.685 19.53) rotate(180)" fill="#c3dafc"/>
          <rect id="Rectángulo_307859" data-name="Rectángulo 307859" width="23.685" height="19.53" transform="translate(35.528 19.53) rotate(180)" fill="#d4e4f8"/>
          <path id="Trazado_631729" data-name="Trazado 631729" d="M1175.036,935.11h3.753l-.331-1.056.331-.755h-3.753Z" transform="translate(-1175.022 -920.533)" fill="#9dc3f3"/>
          <path id="Trazado_631730" data-name="Trazado 631730" d="M1256.6,876.27h3.753l-.331-1.056.331-.755H1256.6Z" transform="translate(-1244.759 -870.226)" fill="#e3f0ff"/>
          <path id="Trazado_631731" data-name="Trazado 631731" d="M1234.475,874.459h-3.753l.331,1.056-.331.755h3.753Z" transform="translate(-1222.632 -870.226)" fill="#9dc3f3"/>
          <path id="Trazado_631732" data-name="Trazado 631732" d="M1397.8,947.231h-3.753l.331,1.056-.331.755h3.753Z" transform="translate(-1362.271 -932.444)" fill="#e3f0ff"/>
          <rect id="Rectángulo_307860" data-name="Rectángulo 307860" width="6.816" height="2.652" transform="translate(27.161 1.324)" fill="#fff"/>
        </g>
        <g id="Grupo_957072" data-name="Grupo 957072" transform="translate(74.561 19.966)">
          <rect id="Rectángulo_307861" data-name="Rectángulo 307861" width="23.685" height="19.53" transform="translate(23.685 19.53) rotate(180)" fill="#c3dafc"/>
          <rect id="Rectángulo_307862" data-name="Rectángulo 307862" width="23.685" height="19.53" transform="translate(35.528 19.53) rotate(180)" fill="#d4e4f8"/>
          <path id="Trazado_631733" data-name="Trazado 631733" d="M1466.839,935.11h3.753l-.331-1.056.331-.755h-3.753Z" transform="translate(-1466.825 -920.533)" fill="#9dc3f3"/>
          <path id="Trazado_631734" data-name="Trazado 631734" d="M1548.4,876.27h3.753l-.331-1.056.331-.755H1548.4Z" transform="translate(-1536.562 -870.226)" fill="#e3f0ff"/>
          <path id="Trazado_631735" data-name="Trazado 631735" d="M1526.278,874.459h-3.753l.331,1.056-.331.755h3.753Z" transform="translate(-1514.435 -870.226)" fill="#9dc3f3"/>
          <path id="Trazado_631736" data-name="Trazado 631736" d="M1689.6,947.231h-3.753l.331,1.056-.331.755h3.753Z" transform="translate(-1654.074 -932.444)" fill="#e3f0ff"/>
          <rect id="Rectángulo_307863" data-name="Rectángulo 307863" width="6.816" height="2.652" transform="translate(27.161 1.324)" fill="#fff"/>
        </g>
      </g>
    </g>
    <g id="Grupo_957101" data-name="Grupo 957101" transform="translate(-9653.97 -1326.127)">
      <rect id="Rectángulo_307878" data-name="Rectángulo 307878" width="15.842" height="15.369" rx="7.684" transform="translate(0)" fill="#c0d8fb"/>
      <path id="Rectángulo_307879" data-name="Rectángulo 307879" d="M7.019,0h.432a7.018,7.018,0,0,1,7.018,7.018v0A7.019,7.019,0,0,1,7.45,14.037H7.018A7.018,7.018,0,0,1,0,7.019v0A7.019,7.019,0,0,1,7.019,0Z" transform="translate(0.686 0.666)" fill="#dfebfd"/>
      <g id="Grupo_957097" data-name="Grupo 957097" transform="translate(1.87 1.74)">
        <g id="Grupo_957095" data-name="Grupo 957095" transform="translate(5.722)">
          <circle id="Elipse_7931" data-name="Elipse 7931" cx="0.328" cy="0.328" r="0.328" transform="translate(0)" fill="#b7d3f3"/>
          <path id="Trazado_631769" data-name="Trazado 631769" d="M598.5,890.925a.328.328,0,1,1,.127.446A.328.328,0,0,1,598.5,890.925Z" transform="translate(-595.853 -890.133)" fill="#b7d3f3"/>
          <path id="Trazado_631770" data-name="Trazado 631770" d="M613.5,904.039a.328.328,0,1,1-.1.454A.328.328,0,0,1,613.5,904.039Z" transform="translate(-608.585 -901.444)" fill="#b7d3f3"/>
          <path id="Trazado_631771" data-name="Trazado 631771" d="M620.2,923.583a.328.328,0,1,1-.328.328A.328.328,0,0,1,620.2,923.583Z" transform="translate(-614.161 -918.199)" fill="#b7d3f3"/>
          <path id="Trazado_631772" data-name="Trazado 631772" d="M614.877,945.339a.328.328,0,1,1-.464,0A.328.328,0,0,1,614.877,945.339Z" transform="translate(-609.411 -936.718)" fill="#b7d3f3"/>
          <path id="Trazado_631773" data-name="Trazado 631773" d="M600.668,959.585a.328.328,0,1,1-.464,0A.328.328,0,0,1,600.668,959.585Z" transform="translate(-597.262 -948.898)" fill="#b7d3f3"/>
          <path id="Trazado_631774" data-name="Trazado 631774" d="M580.486,965.56a.328.328,0,1,1,.328.328A.328.328,0,0,1,580.486,965.56Z" transform="translate(-580.486 -953.808)" fill="#b7d3f3"/>
        </g>
        <g id="Grupo_957096" data-name="Grupo 957096" transform="translate(0 0.623)">
          <path id="Trazado_631775" data-name="Trazado 631775" d="M563.056,890.925a.328.328,0,1,0-.127.446A.328.328,0,0,0,563.056,890.925Z" transform="translate(-559.335 -890.757)" fill="#b7d3f3"/>
          <path id="Trazado_631776" data-name="Trazado 631776" d="M548.055,904.039a.328.328,0,1,0,.1.454A.328.328,0,0,0,548.055,904.039Z" transform="translate(-546.603 -902.068)" fill="#b7d3f3"/>
          <circle id="Elipse_7932" data-name="Elipse 7932" cx="0.328" cy="0.328" r="0.328" transform="translate(0 4.761)" fill="#b7d3f3"/>
          <path id="Trazado_631777" data-name="Trazado 631777" d="M546.68,945.339a.328.328,0,1,0,.464,0A.328.328,0,0,0,546.68,945.339Z" transform="translate(-545.778 -937.341)" fill="#b7d3f3"/>
          <path id="Trazado_631778" data-name="Trazado 631778" d="M560.889,959.585a.328.328,0,1,0,.464,0A.328.328,0,0,0,560.889,959.585Z" transform="translate(-557.927 -949.521)" fill="#b7d3f3"/>
        </g>
      </g>
      <g id="Grupo_957100" data-name="Grupo 957100" transform="translate(7.832 3.353)">
        <circle id="Elipse_7933" data-name="Elipse 7933" cx="0.328" cy="0.328" r="0.328" transform="translate(0 3.771)" fill="#b7d3f3"/>
        <g id="Grupo_957098" data-name="Grupo 957098" transform="translate(0.283)">
          <rect id="Rectángulo_307880" data-name="Rectángulo 307880" width="0.09" height="4.1" fill="#b7d3f3"/>
        </g>
        <g id="Grupo_957099" data-name="Grupo 957099" transform="translate(0.204 2.282)">
          <rect id="Rectángulo_307881" data-name="Rectángulo 307881" width="2.763" height="0.269" transform="translate(0 1.706) rotate(-38.134)" fill="#b7d3f3"/>
        </g>
      </g>
    </g>
    <g id="Grupo_957121" data-name="Grupo 957121" transform="translate(-9588.854 -1398.249)" opacity="0.5">
      <path id="Trazado_631802" data-name="Trazado 631802" d="M1242.145,378.077q1.2.4,2.384.837l-5.108-.022h0l-1.345,0h0l-15.691-.07-1.348,0h0l-15.692-.07-1.348,0h0l-15.693-.07-1.348,0h0l-15.693-.07-1.348,0h0l-15.692-.07-1.348,0h0l-15.691-.07-1.348,0h0l-15.693-.07-1.35-.006h0l-15.691-.068-1.349-.006h0l-15.691-.068-1.349-.006h0l-15.689-.068-1.349-.006h0l-15.691-.068-1.349-.006h0l-15.691-.068-1.35-.006h0l-3.807-.016c.337-.278.678-.554,1.023-.823h0l2.834.011h0l17.038.076h.005l17.037.075h0l17.036.075h0l17.037.075h0l17.037.075h0l17.037.075h0l17.036.075h0l17.037.075h0l17.037.075h0l17.037.075h0l17.037.075h0l17.037.075Z" transform="translate(-1022.133 -377.149)" fill="#c3dafc"/>
      <path id="Trazado_631803" data-name="Trazado 631803" d="M1213.919,432.776c.388.274.769.552,1.141.832l-237.932-1.044q.315-.418.645-.824l4.92.021,1.349.006,15.693.068,1.348.006,15.692.068h0l1.348.006,15.693.069h0l1.348.006,15.692.068h0l1.348.006h0l15.691.068h0l1.348.006h0l15.689.068h0l1.348.006h0l15.691.068h0l1.348.006h0l15.691.068h0l1.348.006h0l15.691.068h0l1.348.006h0l15.689.068h0l1.348.006h0l15.692.07h0l1.346,0h0l15.692.07h0l1.346,0h0l15.692.07h0l1.346,0h0Z" transform="translate(-977.128 -423.823)" fill="#c3dafc"/>
      <g id="Grupo_957120" data-name="Grupo 957120" transform="translate(2.365 0.011)">
        <g id="Grupo_957106" data-name="Grupo 957106" transform="translate(0 5.326)">
          <path id="Trazado_631804" data-name="Trazado 631804" d="M997.988,416.561l-.391.61-.961-.618-3.2-2.056c.164-.183.328-.364.493-.544l4.056,2.607Z" transform="translate(-993.435 -413.953)" fill="#c3dafc"/>
        </g>
        <g id="Grupo_957107" data-name="Grupo 957107" transform="translate(8.737 0)">
          <rect id="Rectángulo_307885" data-name="Rectángulo 307885" width="0.724" height="14.817" transform="matrix(0.541, -0.841, 0.841, 0.541, 0, 0.609)" fill="#c3dafc"/>
        </g>
        <g id="Grupo_957108" data-name="Grupo 957108" transform="translate(25.778 0.075)">
          <rect id="Rectángulo_307886" data-name="Rectángulo 307886" width="0.724" height="14.817" transform="matrix(0.541, -0.841, 0.841, 0.541, 0, 0.609)" fill="#c3dafc"/>
        </g>
        <g id="Grupo_957109" data-name="Grupo 957109" transform="translate(42.82 0.15)">
          <rect id="Rectángulo_307887" data-name="Rectángulo 307887" width="0.724" height="14.817" transform="matrix(0.541, -0.841, 0.841, 0.541, 0, 0.609)" fill="#c3dafc"/>
        </g>
        <g id="Grupo_957110" data-name="Grupo 957110" transform="translate(59.861 0.225)">
          <rect id="Rectángulo_307888" data-name="Rectángulo 307888" width="0.724" height="14.817" transform="translate(0 0.609) rotate(-57.282)" fill="#c3dafc"/>
        </g>
        <g id="Grupo_957111" data-name="Grupo 957111" transform="translate(76.903 0.299)">
          <rect id="Rectángulo_307889" data-name="Rectángulo 307889" width="0.724" height="14.817" transform="matrix(0.541, -0.841, 0.841, 0.541, 0, 0.609)" fill="#c3dafc"/>
        </g>
        <g id="Grupo_957112" data-name="Grupo 957112" transform="translate(93.944 0.374)">
          <rect id="Rectángulo_307890" data-name="Rectángulo 307890" width="0.724" height="14.817" transform="translate(0 0.609) rotate(-57.282)" fill="#c3dafc"/>
        </g>
        <g id="Grupo_957113" data-name="Grupo 957113" transform="translate(110.986 0.449)">
          <rect id="Rectángulo_307891" data-name="Rectángulo 307891" width="0.724" height="14.817" transform="translate(0 0.609) rotate(-57.282)" fill="#c3dafc"/>
        </g>
        <g id="Grupo_957114" data-name="Grupo 957114" transform="translate(128.027 0.524)">
          <rect id="Rectángulo_307892" data-name="Rectángulo 307892" width="0.724" height="14.817" transform="matrix(0.541, -0.841, 0.841, 0.541, 0, 0.609)" fill="#c3dafc"/>
        </g>
        <g id="Grupo_957115" data-name="Grupo 957115" transform="translate(145.069 0.599)">
          <rect id="Rectángulo_307893" data-name="Rectángulo 307893" width="0.724" height="14.817" transform="translate(0 0.609) rotate(-57.281)" fill="#c3dafc"/>
        </g>
        <g id="Grupo_957116" data-name="Grupo 957116" transform="translate(162.11 0.674)">
          <rect id="Rectángulo_307894" data-name="Rectángulo 307894" width="0.724" height="14.817" transform="translate(0 0.609) rotate(-57.281)" fill="#c3dafc"/>
        </g>
        <g id="Grupo_957117" data-name="Grupo 957117" transform="translate(179.152 0.748)">
          <rect id="Rectángulo_307895" data-name="Rectángulo 307895" width="0.724" height="14.817" transform="translate(0 0.609) rotate(-57.281)" fill="#c3dafc"/>
        </g>
        <g id="Grupo_957118" data-name="Grupo 957118" transform="translate(196.194 0.823)">
          <rect id="Rectángulo_307896" data-name="Rectángulo 307896" width="0.724" height="14.817" transform="translate(0 0.609) rotate(-57.281)" fill="#c3dafc"/>
        </g>
        <g id="Grupo_957119" data-name="Grupo 957119" transform="translate(213.235 0.898)">
          <rect id="Rectángulo_307897" data-name="Rectángulo 307897" width="0.724" height="14.817" transform="translate(0 0.609) rotate(-57.281)" fill="#c3dafc"/>
        </g>
      </g>
    </g>
    <g id="Grupo_957190" data-name="Grupo 957190" transform="translate(-9592.226 -1300.557)">
      <g id="Grupo_957187" data-name="Grupo 957187" transform="translate(0 0)">
        <rect id="Rectángulo_307939" data-name="Rectángulo 307939" width="0.882" height="0.882" fill="#aec3ff"/>
        <rect id="Rectángulo_307940" data-name="Rectángulo 307940" width="0.882" height="0.882" transform="translate(2.291)" fill="#aec3ff"/>
        <rect id="Rectángulo_307941" data-name="Rectángulo 307941" width="0.882" height="0.882" transform="translate(4.583)" fill="#aec3ff"/>
      </g>
      <g id="Grupo_957188" data-name="Grupo 957188" transform="translate(0 1.966)">
        <rect id="Rectángulo_307942" data-name="Rectángulo 307942" width="0.882" height="0.882" fill="#aec3ff"/>
        <rect id="Rectángulo_307943" data-name="Rectángulo 307943" width="0.882" height="0.882" transform="translate(2.291)" fill="#aec3ff"/>
        <rect id="Rectángulo_307944" data-name="Rectángulo 307944" width="0.882" height="0.882" transform="translate(4.583)" fill="#aec3ff"/>
      </g>
      <g id="Grupo_957189" data-name="Grupo 957189" transform="translate(0 4.144)">
        <rect id="Rectángulo_307945" data-name="Rectángulo 307945" width="0.882" height="0.882" fill="#aec3ff"/>
        <rect id="Rectángulo_307946" data-name="Rectángulo 307946" width="0.882" height="0.882" transform="translate(2.291)" fill="#aec3ff"/>
        <rect id="Rectángulo_307947" data-name="Rectángulo 307947" width="0.882" height="0.882" transform="translate(4.583)" fill="#aec3ff"/>
      </g>
    </g>
    <g id="Grupo_957193" data-name="Grupo 957193" transform="translate(-9602.475 -1366.816)">
      <rect id="Rectángulo_307901" data-name="Rectángulo 307901" width="64.719" height="47.074" transform="translate(0 105.766)" fill="#aec3ff"/>
      <g id="Grupo_957148" data-name="Grupo 957148" transform="translate(97.661)">
        <path id="Trazado_631834" data-name="Trazado 631834" d="M745.434,963.744H731.986v151.164h22.8v-74.556l-9.355-38.3Z" transform="translate(-731.986 -963.744)" fill="#aec3ff"/>
        <g id="Grupo_957147" data-name="Grupo 957147" transform="translate(13.448 0)">
          <rect id="Rectángulo_307902" data-name="Rectángulo 307902" width="74.547" height="38.304" fill="#d2e0ff"/>
          <rect id="Rectángulo_307903" data-name="Rectángulo 307903" width="74.547" height="74.556" transform="translate(9.355 76.608)" fill="#d2e0ff"/>
          <path id="Trazado_631835" data-name="Trazado 631835" d="M876.742,1175.384H802.2l-9.355-38.3h74.547Z" transform="translate(-792.84 -1098.776)" fill="#c1d4f7"/>
          <g id="Grupo_957133" data-name="Grupo 957133" transform="translate(7.891 43.137)">
            <g id="Grupo_957129" data-name="Grupo 957129">
              <g id="Grupo_957127" data-name="Grupo 957127">
                <path id="Trazado_631836" data-name="Trazado 631836" d="M831.242,1161.725h-1.949l-.745-2.776H830.5Z" transform="translate(-828.548 -1158.949)" fill="#aec3ff"/>
                <path id="Trazado_631837" data-name="Trazado 631837" d="M851.308,1161.725h-1.949l-.745-2.776h1.949Z" transform="translate(-844.179 -1158.949)" fill="#aec3ff"/>
                <path id="Trazado_631838" data-name="Trazado 631838" d="M871.373,1161.725h-1.949l-.745-2.776h1.949Z" transform="translate(-859.81 -1158.949)" fill="#aec3ff"/>
                <path id="Trazado_631839" data-name="Trazado 631839" d="M891.438,1161.725h-1.949l-.745-2.776h1.949Z" transform="translate(-875.441 -1158.949)" fill="#aec3ff"/>
                <path id="Trazado_631840" data-name="Trazado 631840" d="M911.5,1161.725h-1.949l-.746-2.776h1.949Z" transform="translate(-891.072 -1158.949)" fill="#aec3ff"/>
                <path id="Trazado_631841" data-name="Trazado 631841" d="M931.569,1161.725H929.62l-.745-2.776h1.949Z" transform="translate(-906.704 -1158.949)" fill="#aec3ff"/>
              </g>
              <g id="Grupo_957128" data-name="Grupo 957128" transform="translate(1.392 5.181)">
                <path id="Trazado_631842" data-name="Trazado 631842" d="M837.54,1185.172h-1.949l-.745-2.776h1.949Z" transform="translate(-834.845 -1182.397)" fill="#aec3ff"/>
                <path id="Trazado_631843" data-name="Trazado 631843" d="M857.605,1185.172h-1.949l-.745-2.776h1.949Z" transform="translate(-850.477 -1182.397)" fill="#aec3ff"/>
                <path id="Trazado_631844" data-name="Trazado 631844" d="M877.67,1185.172h-1.949l-.745-2.776h1.949Z" transform="translate(-866.108 -1182.397)" fill="#aec3ff"/>
                <path id="Trazado_631845" data-name="Trazado 631845" d="M897.736,1185.172h-1.949l-.745-2.776h1.949Z" transform="translate(-881.739 -1182.397)" fill="#aec3ff"/>
                <path id="Trazado_631846" data-name="Trazado 631846" d="M917.8,1185.172h-1.949l-.745-2.776h1.949Z" transform="translate(-897.37 -1182.397)" fill="#aec3ff"/>
                <path id="Trazado_631847" data-name="Trazado 631847" d="M937.866,1185.172h-1.949l-.745-2.776h1.949Z" transform="translate(-913.001 -1182.397)" fill="#aec3ff"/>
              </g>
            </g>
            <g id="Grupo_957132" data-name="Grupo 957132" transform="translate(2.833 10.548)">
              <g id="Grupo_957130" data-name="Grupo 957130">
                <path id="Trazado_631848" data-name="Trazado 631848" d="M844.062,1209.457h-1.949l-.746-2.776h1.949Z" transform="translate(-841.368 -1206.682)" fill="#aec3ff"/>
                <path id="Trazado_631849" data-name="Trazado 631849" d="M864.127,1209.457h-1.949l-.746-2.776h1.949Z" transform="translate(-856.999 -1206.682)" fill="#aec3ff"/>
                <path id="Trazado_631850" data-name="Trazado 631850" d="M884.193,1209.457h-1.949l-.746-2.776h1.949Z" transform="translate(-872.63 -1206.682)" fill="#aec3ff"/>
                <path id="Trazado_631851" data-name="Trazado 631851" d="M904.258,1209.457h-1.949l-.745-2.776h1.949Z" transform="translate(-888.261 -1206.682)" fill="#aec3ff"/>
                <path id="Trazado_631852" data-name="Trazado 631852" d="M924.323,1209.457h-1.949l-.745-2.776h1.949Z" transform="translate(-903.892 -1206.682)" fill="#aec3ff"/>
                <path id="Trazado_631853" data-name="Trazado 631853" d="M944.388,1209.457h-1.949l-.745-2.776h1.949Z" transform="translate(-919.524 -1206.682)" fill="#aec3ff"/>
              </g>
              <g id="Grupo_957131" data-name="Grupo 957131" transform="translate(1.392 5.181)">
                <path id="Trazado_631854" data-name="Trazado 631854" d="M850.359,1232.9H848.41l-.746-2.776h1.949Z" transform="translate(-847.665 -1230.129)" fill="#aec3ff"/>
                <path id="Trazado_631855" data-name="Trazado 631855" d="M870.425,1232.9h-1.949l-.745-2.776h1.949Z" transform="translate(-863.296 -1230.129)" fill="#aec3ff"/>
                <path id="Trazado_631856" data-name="Trazado 631856" d="M890.49,1232.9h-1.949l-.745-2.776h1.949Z" transform="translate(-878.927 -1230.129)" fill="#aec3ff"/>
                <path id="Trazado_631857" data-name="Trazado 631857" d="M910.555,1232.9h-1.949l-.745-2.776h1.949Z" transform="translate(-894.559 -1230.129)" fill="#aec3ff"/>
                <path id="Trazado_631858" data-name="Trazado 631858" d="M930.62,1232.9h-1.949l-.745-2.776h1.949Z" transform="translate(-910.19 -1230.129)" fill="#aec3ff"/>
                <path id="Trazado_631859" data-name="Trazado 631859" d="M950.686,1232.9h-1.949l-.746-2.776h1.949Z" transform="translate(-925.821 -1230.129)" fill="#aec3ff"/>
              </g>
            </g>
          </g>
          <g id="Grupo_957140" data-name="Grupo 957140" transform="translate(38.749 43.137)">
            <g id="Grupo_957136" data-name="Grupo 957136">
              <g id="Grupo_957134" data-name="Grupo 957134">
                <path id="Trazado_631860" data-name="Trazado 631860" d="M970.884,1161.725h-1.949l-.745-2.776h1.949Z" transform="translate(-968.19 -1158.949)" fill="#aec3ff"/>
                <path id="Trazado_631861" data-name="Trazado 631861" d="M990.95,1161.725H989l-.746-2.776H990.2Z" transform="translate(-983.821 -1158.949)" fill="#aec3ff"/>
                <path id="Trazado_631862" data-name="Trazado 631862" d="M1011.015,1161.725h-1.949l-.746-2.776h1.949Z" transform="translate(-999.452 -1158.949)" fill="#aec3ff"/>
                <path id="Trazado_631863" data-name="Trazado 631863" d="M1031.08,1161.725h-1.949l-.745-2.776h1.949Z" transform="translate(-1015.084 -1158.949)" fill="#aec3ff"/>
                <path id="Trazado_631864" data-name="Trazado 631864" d="M1051.146,1161.725H1049.2l-.745-2.776h1.949Z" transform="translate(-1030.715 -1158.949)" fill="#aec3ff"/>
                <path id="Trazado_631865" data-name="Trazado 631865" d="M1071.211,1161.725h-1.949l-.745-2.776h1.949Z" transform="translate(-1046.346 -1158.949)" fill="#aec3ff"/>
              </g>
              <g id="Grupo_957135" data-name="Grupo 957135" transform="translate(1.392 5.181)">
                <path id="Trazado_631866" data-name="Trazado 631866" d="M977.182,1185.172h-1.949l-.746-2.776h1.949Z" transform="translate(-974.487 -1182.397)" fill="#aec3ff"/>
                <path id="Trazado_631867" data-name="Trazado 631867" d="M997.247,1185.172H995.3l-.746-2.776H996.5Z" transform="translate(-990.119 -1182.397)" fill="#aec3ff"/>
                <path id="Trazado_631868" data-name="Trazado 631868" d="M1017.312,1185.172h-1.949l-.745-2.776h1.949Z" transform="translate(-1005.75 -1182.397)" fill="#aec3ff"/>
                <path id="Trazado_631869" data-name="Trazado 631869" d="M1037.378,1185.172h-1.949l-.745-2.776h1.949Z" transform="translate(-1021.381 -1182.397)" fill="#aec3ff"/>
                <path id="Trazado_631870" data-name="Trazado 631870" d="M1057.443,1185.172h-1.949l-.745-2.776h1.949Z" transform="translate(-1037.012 -1182.397)" fill="#aec3ff"/>
                <path id="Trazado_631871" data-name="Trazado 631871" d="M1077.508,1185.172h-1.949l-.745-2.776h1.949Z" transform="translate(-1052.643 -1182.397)" fill="#aec3ff"/>
              </g>
            </g>
            <g id="Grupo_957139" data-name="Grupo 957139" transform="translate(2.833 10.548)">
              <g id="Grupo_957137" data-name="Grupo 957137">
                <path id="Trazado_631872" data-name="Trazado 631872" d="M983.7,1209.457h-1.949l-.745-2.776h1.949Z" transform="translate(-981.01 -1206.682)" fill="#aec3ff"/>
                <path id="Trazado_631873" data-name="Trazado 631873" d="M1003.77,1209.457h-1.949l-.745-2.776h1.949Z" transform="translate(-996.641 -1206.682)" fill="#aec3ff"/>
                <path id="Trazado_631874" data-name="Trazado 631874" d="M1023.834,1209.457h-1.949l-.745-2.776h1.949Z" transform="translate(-1012.272 -1206.682)" fill="#aec3ff"/>
                <path id="Trazado_631875" data-name="Trazado 631875" d="M1043.9,1209.457h-1.949l-.745-2.776h1.949Z" transform="translate(-1027.903 -1206.682)" fill="#aec3ff"/>
                <path id="Trazado_631876" data-name="Trazado 631876" d="M1063.965,1209.457h-1.949l-.746-2.776h1.949Z" transform="translate(-1043.534 -1206.682)" fill="#aec3ff"/>
                <path id="Trazado_631877" data-name="Trazado 631877" d="M1084.03,1209.457h-1.949l-.745-2.776h1.949Z" transform="translate(-1059.166 -1206.682)" fill="#aec3ff"/>
              </g>
              <g id="Grupo_957138" data-name="Grupo 957138" transform="translate(1.392 5.181)">
                <path id="Trazado_631878" data-name="Trazado 631878" d="M990,1232.9h-1.949l-.746-2.776h1.949Z" transform="translate(-987.307 -1230.129)" fill="#aec3ff"/>
                <path id="Trazado_631879" data-name="Trazado 631879" d="M1010.067,1232.9h-1.949l-.745-2.776h1.949Z" transform="translate(-1002.938 -1230.129)" fill="#aec3ff"/>
                <path id="Trazado_631880" data-name="Trazado 631880" d="M1030.132,1232.9h-1.949l-.745-2.776h1.949Z" transform="translate(-1018.569 -1230.129)" fill="#aec3ff"/>
                <path id="Trazado_631881" data-name="Trazado 631881" d="M1050.2,1232.9h-1.949l-.746-2.776h1.949Z" transform="translate(-1034.201 -1230.129)" fill="#aec3ff"/>
                <path id="Trazado_631882" data-name="Trazado 631882" d="M1070.263,1232.9h-1.949l-.745-2.776h1.949Z" transform="translate(-1049.832 -1230.129)" fill="#aec3ff"/>
                <path id="Trazado_631883" data-name="Trazado 631883" d="M1090.328,1232.9h-1.949l-.745-2.776h1.949Z" transform="translate(-1065.463 -1230.129)" fill="#aec3ff"/>
              </g>
            </g>
          </g>
          <rect id="Rectángulo_307904" data-name="Rectángulo 307904" width="27.676" height="22.299" transform="translate(5.722 12.233)" fill="#2b478b"/>
          <rect id="Rectángulo_307905" data-name="Rectángulo 307905" width="1.977" height="22.299" transform="translate(31.453 12.233)" fill="#699dee"/>
          <g id="Grupo_957141" data-name="Grupo 957141" transform="translate(14.592 116.134)">
            <path id="Trazado_631884" data-name="Trazado 631884" d="M925.544,1516.7H858.873v-27.417h66.672Zm-66.236-.436h65.8v-26.546h-65.8Z" transform="translate(-858.873 -1489.283)" fill="#aec3ff"/>
          </g>
          <path id="Trazado_631885" data-name="Trazado 631885" d="M1013.453,987.418c0,.831-.473,1.5-1.057,1.5s-1.057-.674-1.057-1.5.473-1.5,1.057-1.5S1013.453,986.587,1013.453,987.418Z" transform="translate(-963.056 -981.014)" fill="#fff"/>
          <path id="Trazado_631886" data-name="Trazado 631886" d="M1035.815,987.418c0,.831-.473,1.5-1.057,1.5s-1.057-.674-1.057-1.5.473-1.5,1.057-1.5S1035.815,986.587,1035.815,987.418Z" transform="translate(-980.476 -981.014)" fill="#ff9e55"/>
          <path id="Trazado_631887" data-name="Trazado 631887" d="M1058.177,987.418c0,.831-.473,1.5-1.057,1.5s-1.057-.674-1.057-1.5.473-1.5,1.057-1.5S1058.177,986.587,1058.177,987.418Z" transform="translate(-997.896 -981.014)" fill="#699dee"/>
          <path id="Trazado_631888" data-name="Trazado 631888" d="M1080.539,987.418c0,.831-.473,1.5-1.057,1.5s-1.057-.674-1.057-1.5.473-1.5,1.057-1.5S1080.539,986.587,1080.539,987.418Z" transform="translate(-1015.316 -981.014)" fill="#fff"/>
          <path id="Trazado_631889" data-name="Trazado 631889" d="M1102.9,987.418c0,.831-.473,1.5-1.057,1.5s-1.057-.674-1.057-1.5.473-1.5,1.057-1.5S1102.9,986.587,1102.9,987.418Z" transform="translate(-1032.737 -981.014)" fill="#ff9e55"/>
          <g id="Grupo_957142" data-name="Grupo 957142" transform="translate(48.493 12.015)">
            <path id="Trazado_631890" data-name="Trazado 631890" d="M1034.172,1036.548h-21.889v-18.432h21.889Zm-21.453-.435h21.018v-17.561h-21.018Z" transform="translate(-1012.283 -1018.116)" fill="#aec3ff"/>
          </g>
          <rect id="Rectángulo_307906" data-name="Rectángulo 307906" width="3.378" height="0.625" transform="translate(13.307 14.615)" fill="#e9f3fe"/>
          <g id="Grupo_957143" data-name="Grupo 957143" transform="translate(6.746 14.615)">
            <rect id="Rectángulo_307907" data-name="Rectángulo 307907" width="5.325" height="0.625" fill="#e9f3fe"/>
            <rect id="Rectángulo_307908" data-name="Rectángulo 307908" width="8.056" height="0.625" transform="translate(0 1.666)" fill="#e9f3fe"/>
            <rect id="Rectángulo_307909" data-name="Rectángulo 307909" width="5.344" height="0.625" transform="translate(9.144 1.666)" fill="#e9f3fe"/>
            <rect id="Rectángulo_307910" data-name="Rectángulo 307910" width="5.834" height="0.625" transform="translate(10.671)" fill="#e9f3fe"/>
          </g>
          <g id="Grupo_957144" data-name="Grupo 957144" transform="translate(6.746 19.152)">
            <rect id="Rectángulo_307911" data-name="Rectángulo 307911" width="5.325" height="0.625" fill="#e9f3fe"/>
            <rect id="Rectángulo_307912" data-name="Rectángulo 307912" width="8.056" height="0.625" transform="translate(0 1.666)" fill="#e9f3fe"/>
            <rect id="Rectángulo_307913" data-name="Rectángulo 307913" width="5.344" height="0.625" transform="translate(9.144 1.666)" fill="#e9f3fe"/>
            <rect id="Rectángulo_307914" data-name="Rectángulo 307914" width="3.378" height="0.625" transform="translate(6.562)" fill="#e9f3fe"/>
            <rect id="Rectángulo_307915" data-name="Rectángulo 307915" width="5.834" height="0.625" transform="translate(10.671)" fill="#e9f3fe"/>
          </g>
          <g id="Grupo_957145" data-name="Grupo 957145" transform="translate(6.746 24.148)">
            <rect id="Rectángulo_307916" data-name="Rectángulo 307916" width="5.325" height="0.625" fill="#e9f3fe"/>
            <rect id="Rectángulo_307917" data-name="Rectángulo 307917" width="8.056" height="0.625" transform="translate(0 1.665)" fill="#e9f3fe"/>
            <rect id="Rectángulo_307918" data-name="Rectángulo 307918" width="5.344" height="0.625" transform="translate(9.144 1.665)" fill="#e9f3fe"/>
            <rect id="Rectángulo_307919" data-name="Rectángulo 307919" width="3.378" height="0.625" transform="translate(6.562)" fill="#e9f3fe"/>
            <rect id="Rectángulo_307920" data-name="Rectángulo 307920" width="5.834" height="0.625" transform="translate(10.671)" fill="#e9f3fe"/>
          </g>
          <g id="Grupo_957146" data-name="Grupo 957146" transform="translate(6.746 28.96)">
            <rect id="Rectángulo_307921" data-name="Rectángulo 307921" width="5.325" height="0.625" fill="#e9f3fe"/>
            <rect id="Rectángulo_307922" data-name="Rectángulo 307922" width="8.056" height="0.625" transform="translate(0 1.666)" fill="#e9f3fe"/>
            <rect id="Rectángulo_307923" data-name="Rectángulo 307923" width="5.344" height="0.625" transform="translate(9.144 1.666)" fill="#e9f3fe"/>
            <rect id="Rectángulo_307924" data-name="Rectángulo 307924" width="3.378" height="0.625" transform="translate(6.562)" fill="#e9f3fe"/>
            <rect id="Rectángulo_307925" data-name="Rectángulo 307925" width="5.834" height="0.625" transform="translate(10.671)" fill="#e9f3fe"/>
          </g>
        </g>
      </g>
      <g id="Grupo_957183" data-name="Grupo 957183" transform="translate(0 28.15)">
        <g id="Grupo_957179" data-name="Grupo 957179" transform="translate(0 7.731)">
          <g id="Grupo_957149" data-name="Grupo 957149">
            <path id="Trazado_631891" data-name="Trazado 631891" d="M397.753,1194.368l-2.363,28.094s-.247,1.7,1.019,1.706c2.083.005,10.367,0,10.367,0s-1.567-.354-1.548-1.152c.022-.94,2.762-28.914,2.762-28.914Z" transform="translate(-372.096 -1179.08)" fill="#d86713"/>
            <path id="Trazado_631892" data-name="Trazado 631892" d="M409.849,1221.861c-.41,0-8.322.026-10.35,0-.884-.011-1.039-.786-1.046-1.287a2.52,2.52,0,0,1,.027-.418l.061-.73.157-1.861.138-1.644.178-2.113.15-1.783,1.679-19.963,10.236-.265s-1.154,11.707-1.97,20.229c-.091.949-.178,1.86-.258,2.71q-.039.407-.075.795c-.076.806-.145,1.547-.205,2.2-.032.345-.061.665-.087.958-.1,1.149-.165,1.883-.166,2.022a1.166,1.166,0,0,0,.02.228C408.5,1221.832,409.695,1221.861,409.849,1221.861Z" transform="translate(-374.496 -1177.283)" fill="#ee9849"/>
            <path id="Trazado_631893" data-name="Trazado 631893" d="M293.655,1126.122l5.755,23.118.788,3.166,2.681,10.768h49.8l-9.88-37.052Z" transform="translate(-292.858 -1126.122)" fill="#f1a34f"/>
            <path id="Trazado_631894" data-name="Trazado 631894" d="M290.843,1126.122l-.8.266,8.961,37.591,1.061-.8Z" transform="translate(-290.045 -1126.122)" fill="#ee9849"/>
            <path id="Trazado_631895" data-name="Trazado 631895" d="M330.6,1294.6h49.495l1.367-.8h-49.8Z" transform="translate(-321.636 -1256.741)" fill="#d86713"/>
            <rect id="Rectángulo_307927" data-name="Rectángulo 307927" width="10.716" height="0.509" transform="translate(37.059 45.099) rotate(180)" fill="#f1a34f"/>
            <path id="Trazado_631896" data-name="Trazado 631896" d="M349.987,1156.347l-8.081-29.735H293.295v-.49H342.52l8.054,30.159Z" transform="translate(-292.577 -1126.122)" fill="#f1a34f"/>
            <path id="Trazado_631897" data-name="Trazado 631897" d="M409.7,1297.433l-.055.389-10.078,2.036.138-1.645.066-.781Z" transform="translate(-375.36 -1259.576)" fill="#d86713"/>
            <path id="Trazado_631898" data-name="Trazado 631898" d="M409.85,1316.662c-.41,0-8.322.026-10.35,0-.884-.011-1.039-.786-1.046-1.287l10.031-1.887c-.1,1.149-.165,1.883-.166,2.023a1.177,1.177,0,0,0,.02.227C408.506,1316.633,409.7,1316.662,409.85,1316.662Z" transform="translate(-374.497 -1272.083)" fill="#d86713" opacity="0.4"/>
            <path id="Trazado_631899" data-name="Trazado 631899" d="M347.824,1248.333l-21.877,7.5-2.681-10.768Z" transform="translate(-315.925 -1218.782)" fill="#d86713" opacity="0.4"/>
            <path id="Trazado_631900" data-name="Trazado 631900" d="M293.655,1126.122H342.8l7.974,29.778H300.815Z" transform="translate(-292.857 -1126.122)" fill="#aec3ff"/>
          </g>
          <path id="Trazado_631901" data-name="Trazado 631901" d="M355.632,1160.233H309.618l-5.211-20.759-.4-1.592-.341-1.358-.8-3.184h45.352l.878,3.184.374,1.358.439,1.592Z" transform="translate(-300.034 -1131.745)" fill="#8aa8ed"/>
          <g id="Grupo_957150" data-name="Grupo 957150" transform="translate(41.643 2.819)">
            <path id="Trazado_631902" data-name="Trazado 631902" d="M480.607,1139.275l-2.069.029-.046-.18,2.069-.029Z" transform="translate(-478.492 -1139.048)" fill="#f9ddbf"/>
            <path id="Trazado_631903" data-name="Trazado 631903" d="M480.59,1141.519l-1.488.021-.046-.18,1.488-.021Z" transform="translate(-478.932 -1140.795)" fill="#f9ddbf"/>
            <path id="Trazado_631904" data-name="Trazado 631904" d="M488.324,1141.409l-1.488.021-.046-.18,1.488-.021Z" transform="translate(-484.957 -1140.71)" fill="#f9ddbf"/>
            <path id="Trazado_631905" data-name="Trazado 631905" d="M495.913,1141.331l-.922.013-.046-.18.922-.013Z" transform="translate(-491.309 -1140.649)" fill="#f9ddbf"/>
            <path id="Trazado_631906" data-name="Trazado 631906" d="M490.914,1139.17l-1.276.018-.046-.18,1.276-.018Z" transform="translate(-487.139 -1138.966)" fill="#f9ddbf"/>
            <path id="Trazado_631907" data-name="Trazado 631907" d="M498.8,1139.059l-1.276.018-.046-.18,1.276-.018Z" transform="translate(-493.285 -1138.879)" fill="#f9ddbf"/>
          </g>
          <g id="Grupo_957151" data-name="Grupo 957151" transform="translate(47.162 26.414)">
            <path id="Trazado_631908" data-name="Trazado 631908" d="M505.582,1246.047l-2.069.029-.046-.18,2.069-.029Z" transform="translate(-503.467 -1245.819)" fill="#f9ddbf"/>
            <path id="Trazado_631909" data-name="Trazado 631909" d="M505.565,1248.29l-1.488.021-.046-.18,1.488-.021Z" transform="translate(-503.907 -1247.567)" fill="#f9ddbf"/>
            <path id="Trazado_631910" data-name="Trazado 631910" d="M513.3,1248.182l-1.488.021-.046-.18,1.487-.021Z" transform="translate(-509.932 -1247.482)" fill="#f9ddbf"/>
            <path id="Trazado_631911" data-name="Trazado 631911" d="M520.888,1248.1l-.922.013-.046-.18.922-.013Z" transform="translate(-516.284 -1247.421)" fill="#f9ddbf"/>
            <path id="Trazado_631912" data-name="Trazado 631912" d="M515.889,1245.942l-1.276.018-.046-.18,1.276-.018Z" transform="translate(-512.114 -1245.737)" fill="#f9ddbf"/>
            <path id="Trazado_631913" data-name="Trazado 631913" d="M523.779,1245.83l-1.276.018-.046-.18,1.276-.018Z" transform="translate(-518.26 -1245.65)" fill="#f9ddbf"/>
          </g>
          <g id="Grupo_957178" data-name="Grupo 957178" transform="translate(6.486 3.999)">
            <g id="Grupo_957152" data-name="Grupo 957152">
              <path id="Trazado_631914" data-name="Trazado 631914" d="M324.341,1144.637l-4.85-.012-.1-.407,4.85.012Z" transform="translate(-319.395 -1144.218)" fill="#f9ddbf"/>
              <path id="Trazado_631915" data-name="Trazado 631915" d="M324.153,1149.63l-3.487-.009-.1-.407,3.487.009Z" transform="translate(-320.311 -1148.11)" fill="#f9ddbf"/>
              <path id="Trazado_631916" data-name="Trazado 631916" d="M342.283,1149.674l-3.487-.009-.1-.407,3.487.009Z" transform="translate(-334.434 -1148.144)" fill="#f9ddbf"/>
              <path id="Trazado_631917" data-name="Trazado 631917" d="M360.074,1149.717l-2.161-.005-.1-.407,2.161.006Z" transform="translate(-349.326 -1148.181)" fill="#f9ddbf"/>
              <path id="Trazado_631918" data-name="Trazado 631918" d="M348.5,1144.7l-2.992-.007-.1-.407,2.992.007Z" transform="translate(-339.664 -1144.267)" fill="#f9ddbf"/>
              <path id="Trazado_631919" data-name="Trazado 631919" d="M367,1144.742l-2.992-.008-.1-.407,2.992.007Z" transform="translate(-354.074 -1144.303)" fill="#f9ddbf"/>
            </g>
            <g id="Grupo_957155" data-name="Grupo 957155" transform="translate(0.845 3.588)">
              <g id="Grupo_957153" data-name="Grupo 957153">
                <path id="Trazado_631920" data-name="Trazado 631920" d="M327.409,1160.871l-4.1-.01-.1-.407,4.1.01Z" transform="translate(-323.216 -1160.454)" fill="#f9ddbf"/>
                <path id="Trazado_631921" data-name="Trazado 631921" d="M347.507,1160.921l-2.288-.006-.1-.407,2.288.006Z" transform="translate(-340.282 -1160.496)" fill="#f9ddbf"/>
                <path id="Trazado_631922" data-name="Trazado 631922" d="M363.78,1160.96l-3.508-.009-.1-.407,3.508.009Z" transform="translate(-352.008 -1160.524)" fill="#f9ddbf"/>
              </g>
              <g id="Grupo_957154" data-name="Grupo 957154" transform="translate(0.252 1.071)">
                <path id="Trazado_631923" data-name="Trazado 631923" d="M329.3,1165.718l-4.85-.012-.1-.407,4.85.012Z" transform="translate(-324.356 -1165.299)" fill="#f9ddbf"/>
                <path id="Trazado_631924" data-name="Trazado 631924" d="M329.116,1170.711l-3.487-.008-.1-.407,3.487.009Z" transform="translate(-325.273 -1169.191)" fill="#f9ddbf"/>
                <path id="Trazado_631925" data-name="Trazado 631925" d="M347.245,1170.755l-3.487-.009-.1-.407,3.487.009Z" transform="translate(-339.396 -1169.225)" fill="#f9ddbf"/>
                <path id="Trazado_631926" data-name="Trazado 631926" d="M365.036,1170.8l-2.161-.005-.1-.407,2.161.006Z" transform="translate(-354.288 -1169.262)" fill="#f9ddbf"/>
                <path id="Trazado_631927" data-name="Trazado 631927" d="M353.465,1165.777l-2.992-.007-.1-.407,2.992.007Z" transform="translate(-344.627 -1165.348)" fill="#f9ddbf"/>
                <path id="Trazado_631928" data-name="Trazado 631928" d="M371.962,1165.823l-2.992-.007-.1-.407,2.992.007Z" transform="translate(-359.036 -1165.384)" fill="#f9ddbf"/>
              </g>
            </g>
            <g id="Grupo_957158" data-name="Grupo 957158" transform="translate(2.045 8.688)">
              <g id="Grupo_957156" data-name="Grupo 957156">
                <path id="Trazado_631929" data-name="Trazado 631929" d="M332.841,1183.949l-4.1-.01-.1-.407,4.1.01Z" transform="translate(-328.648 -1183.531)" fill="#163560"/>
                <path id="Trazado_631930" data-name="Trazado 631930" d="M352.939,1184l-2.288-.006-.1-.407,2.288.006Z" transform="translate(-345.714 -1183.573)" fill="#163560"/>
                <path id="Trazado_631931" data-name="Trazado 631931" d="M369.212,1184.038l-3.508-.009-.1-.407,3.508.009Z" transform="translate(-357.441 -1183.602)" fill="#163560"/>
              </g>
              <g id="Grupo_957157" data-name="Grupo 957157" transform="translate(0.252 1.071)">
                <path id="Trazado_631932" data-name="Trazado 631932" d="M334.735,1188.8l-4.85-.012-.1-.407,4.85.012Z" transform="translate(-329.789 -1188.377)" fill="#163560"/>
                <path id="Trazado_631933" data-name="Trazado 631933" d="M334.548,1193.789l-3.487-.009-.1-.407,3.487.009Z" transform="translate(-330.705 -1192.269)" fill="#163560"/>
                <path id="Trazado_631934" data-name="Trazado 631934" d="M352.677,1193.833l-3.487-.009-.1-.407,3.487.009Z" transform="translate(-344.828 -1192.303)" fill="#163560"/>
                <path id="Trazado_631935" data-name="Trazado 631935" d="M370.468,1193.876l-2.161-.005-.1-.407,2.161.005Z" transform="translate(-359.72 -1192.34)" fill="#163560"/>
                <path id="Trazado_631936" data-name="Trazado 631936" d="M358.9,1188.855l-2.992-.007-.1-.407,2.992.007Z" transform="translate(-350.059 -1188.427)" fill="#163560"/>
                <path id="Trazado_631937" data-name="Trazado 631937" d="M377.394,1188.9l-2.992-.007-.1-.407,2.992.007Z" transform="translate(-364.468 -1188.461)" fill="#163560"/>
              </g>
            </g>
            <g id="Grupo_957161" data-name="Grupo 957161" transform="translate(3.193 13.566)">
              <g id="Grupo_957159" data-name="Grupo 957159">
                <path id="Trazado_631938" data-name="Trazado 631938" d="M338.038,1206.027l-4.1-.01-.1-.407,4.1.01Z" transform="translate(-333.845 -1205.609)" fill="#f9ddbf"/>
                <path id="Trazado_631939" data-name="Trazado 631939" d="M358.136,1206.076l-2.288-.005-.1-.407,2.288.006Z" transform="translate(-350.91 -1205.651)" fill="#f9ddbf"/>
                <path id="Trazado_631940" data-name="Trazado 631940" d="M374.409,1206.115l-3.508-.009-.1-.407,3.509.009Z" transform="translate(-362.637 -1205.679)" fill="#f9ddbf"/>
              </g>
              <g id="Grupo_957160" data-name="Grupo 957160" transform="translate(0.252 1.071)">
                <path id="Trazado_631941" data-name="Trazado 631941" d="M339.931,1210.873l-4.85-.012-.1-.407,4.85.012Z" transform="translate(-334.985 -1210.454)" fill="#f9ddbf"/>
                <path id="Trazado_631942" data-name="Trazado 631942" d="M339.744,1215.866l-3.487-.009-.1-.407,3.487.008Z" transform="translate(-335.901 -1214.346)" fill="#f9ddbf"/>
                <path id="Trazado_631943" data-name="Trazado 631943" d="M357.874,1215.91l-3.487-.009-.1-.407,3.487.009Z" transform="translate(-350.025 -1214.38)" fill="#f9ddbf"/>
                <path id="Trazado_631944" data-name="Trazado 631944" d="M375.665,1215.954l-2.161-.005-.1-.407,2.161.005Z" transform="translate(-364.917 -1214.417)" fill="#f9ddbf"/>
                <path id="Trazado_631945" data-name="Trazado 631945" d="M364.093,1210.932l-2.992-.007-.1-.407,2.992.007Z" transform="translate(-355.255 -1210.504)" fill="#f9ddbf"/>
                <path id="Trazado_631946" data-name="Trazado 631946" d="M382.591,1210.978l-2.992-.008-.1-.407,2.992.007Z" transform="translate(-369.665 -1210.54)" fill="#f9ddbf"/>
              </g>
            </g>
            <g id="Grupo_957164" data-name="Grupo 957164" transform="translate(4.373 18.577)">
              <g id="Grupo_957162" data-name="Grupo 957162">
                <path id="Trazado_631947" data-name="Trazado 631947" d="M343.375,1228.7l-4.1-.01-.1-.407,4.1.01Z" transform="translate(-339.182 -1228.282)" fill="#163560"/>
                <path id="Trazado_631948" data-name="Trazado 631948" d="M363.472,1228.749l-2.288-.005-.1-.407,2.288.006Z" transform="translate(-356.247 -1228.324)" fill="#163560"/>
                <path id="Trazado_631949" data-name="Trazado 631949" d="M379.745,1228.789l-3.508-.009-.1-.407,3.509.009Z" transform="translate(-367.974 -1228.353)" fill="#163560"/>
              </g>
              <g id="Grupo_957163" data-name="Grupo 957163" transform="translate(0.252 1.071)">
                <path id="Trazado_631950" data-name="Trazado 631950" d="M345.268,1233.546l-4.85-.012-.1-.407,4.85.012Z" transform="translate(-340.322 -1233.127)" fill="#163560"/>
                <path id="Trazado_631951" data-name="Trazado 631951" d="M345.081,1238.539l-3.487-.008-.1-.407,3.487.009Z" transform="translate(-341.238 -1237.019)" fill="#163560"/>
                <path id="Trazado_631952" data-name="Trazado 631952" d="M363.211,1238.584l-3.487-.008-.1-.407,3.487.009Z" transform="translate(-355.362 -1237.054)" fill="#163560"/>
                <path id="Trazado_631953" data-name="Trazado 631953" d="M381,1238.628l-2.161-.005-.1-.407,2.162.005Z" transform="translate(-370.254 -1237.091)" fill="#163560"/>
                <path id="Trazado_631954" data-name="Trazado 631954" d="M369.43,1233.606l-2.992-.007-.1-.407,2.992.007Z" transform="translate(-360.592 -1233.177)" fill="#163560"/>
                <path id="Trazado_631955" data-name="Trazado 631955" d="M387.928,1233.651l-2.992-.007-.1-.407,2.992.007Z" transform="translate(-375.002 -1233.212)" fill="#163560"/>
              </g>
            </g>
            <g id="Grupo_957165" data-name="Grupo 957165" transform="translate(21.277 0.34)">
              <path id="Trazado_631956" data-name="Trazado 631956" d="M420.623,1146.177l-4.85-.012-.1-.407,4.85.012Z" transform="translate(-415.677 -1145.758)" fill="#f1a34f"/>
              <path id="Trazado_631957" data-name="Trazado 631957" d="M420.436,1151.17l-3.487-.008-.1-.407,3.487.009Z" transform="translate(-416.593 -1149.65)" fill="#f1a34f"/>
              <path id="Trazado_631958" data-name="Trazado 631958" d="M438.565,1151.215l-3.487-.009-.1-.407,3.487.008Z" transform="translate(-430.716 -1149.685)" fill="#f1a34f"/>
              <path id="Trazado_631959" data-name="Trazado 631959" d="M456.356,1151.257l-2.162-.005-.1-.407,2.161.005Z" transform="translate(-445.608 -1149.721)" fill="#f1a34f"/>
              <path id="Trazado_631960" data-name="Trazado 631960" d="M444.784,1146.236l-2.992-.008-.1-.407,2.992.007Z" transform="translate(-435.946 -1145.807)" fill="#f1a34f"/>
              <path id="Trazado_631961" data-name="Trazado 631961" d="M463.282,1146.282l-2.992-.007-.1-.407,2.992.007Z" transform="translate(-450.356 -1145.843)" fill="#f1a34f"/>
            </g>
            <g id="Grupo_957168" data-name="Grupo 957168" transform="translate(22.121 3.928)">
              <g id="Grupo_957166" data-name="Grupo 957166">
                <path id="Trazado_631962" data-name="Trazado 631962" d="M423.691,1162.411l-4.1-.01-.1-.407,4.1.01Z" transform="translate(-419.498 -1161.994)" fill="#f1a34f"/>
                <path id="Trazado_631963" data-name="Trazado 631963" d="M443.789,1162.46l-2.288-.005-.1-.407,2.288.006Z" transform="translate(-436.564 -1162.035)" fill="#f1a34f"/>
                <path id="Trazado_631964" data-name="Trazado 631964" d="M460.062,1162.5l-3.508-.009-.1-.407,3.509.009Z" transform="translate(-448.29 -1162.064)" fill="#f1a34f"/>
              </g>
              <g id="Grupo_957167" data-name="Grupo 957167" transform="translate(0.252 1.071)">
                <path id="Trazado_631965" data-name="Trazado 631965" d="M425.585,1167.258l-4.85-.012-.1-.407,4.85.012Z" transform="translate(-420.639 -1166.839)" fill="#f1a34f"/>
                <path id="Trazado_631966" data-name="Trazado 631966" d="M425.4,1172.251l-3.487-.008-.1-.407,3.487.009Z" transform="translate(-421.555 -1170.731)" fill="#f1a34f"/>
                <path id="Trazado_631967" data-name="Trazado 631967" d="M443.527,1172.295l-3.487-.009-.1-.407,3.487.009Z" transform="translate(-435.678 -1170.765)" fill="#f1a34f"/>
                <path id="Trazado_631968" data-name="Trazado 631968" d="M461.318,1172.338l-2.161-.005-.1-.407,2.162.005Z" transform="translate(-450.57 -1170.802)" fill="#f1a34f"/>
                <path id="Trazado_631969" data-name="Trazado 631969" d="M449.747,1167.317l-2.992-.007-.1-.407,2.992.007Z" transform="translate(-440.909 -1166.888)" fill="#f1a34f"/>
                <path id="Trazado_631970" data-name="Trazado 631970" d="M468.244,1167.362l-2.992-.007-.1-.407,2.992.008Z" transform="translate(-455.318 -1166.923)" fill="#f1a34f"/>
              </g>
            </g>
            <g id="Grupo_957171" data-name="Grupo 957171" transform="translate(23.321 9.028)">
              <g id="Grupo_957169" data-name="Grupo 957169">
                <path id="Trazado_631971" data-name="Trazado 631971" d="M429.123,1185.489l-4.1-.01-.1-.407,4.1.01Z" transform="translate(-424.93 -1185.071)" fill="#f9ddbf"/>
                <path id="Trazado_631972" data-name="Trazado 631972" d="M449.221,1185.538l-2.288-.005-.1-.407,2.288.006Z" transform="translate(-441.996 -1185.113)" fill="#f9ddbf"/>
                <path id="Trazado_631973" data-name="Trazado 631973" d="M465.494,1185.578l-3.508-.009-.1-.407,3.508.009Z" transform="translate(-453.722 -1185.142)" fill="#f9ddbf"/>
              </g>
              <g id="Grupo_957170" data-name="Grupo 957170" transform="translate(0.252 1.071)">
                <path id="Trazado_631974" data-name="Trazado 631974" d="M431.017,1190.336l-4.85-.012-.1-.407,4.85.012Z" transform="translate(-426.071 -1189.917)" fill="#f9ddbf"/>
                <path id="Trazado_631975" data-name="Trazado 631975" d="M430.83,1195.328l-3.487-.009-.1-.407,3.487.009Z" transform="translate(-426.987 -1193.808)" fill="#f9ddbf"/>
                <path id="Trazado_631976" data-name="Trazado 631976" d="M448.96,1195.373l-3.487-.009-.1-.407,3.487.009Z" transform="translate(-441.11 -1193.843)" fill="#f9ddbf"/>
                <path id="Trazado_631977" data-name="Trazado 631977" d="M466.75,1195.416l-2.161-.005-.1-.407,2.162.005Z" transform="translate(-456.002 -1193.88)" fill="#f9ddbf"/>
                <path id="Trazado_631978" data-name="Trazado 631978" d="M455.179,1190.4l-2.992-.007-.1-.407,2.992.007Z" transform="translate(-446.341 -1189.966)" fill="#f9ddbf"/>
                <path id="Trazado_631979" data-name="Trazado 631979" d="M473.676,1190.44l-2.992-.007-.1-.407,2.992.007Z" transform="translate(-460.75 -1190.001)" fill="#f9ddbf"/>
              </g>
            </g>
            <g id="Grupo_957174" data-name="Grupo 957174" transform="translate(24.47 13.907)">
              <g id="Grupo_957172" data-name="Grupo 957172">
                <path id="Trazado_631980" data-name="Trazado 631980" d="M434.32,1207.567l-4.1-.01-.1-.407,4.1.01Z" transform="translate(-430.127 -1207.149)" fill="#f9ddbf"/>
                <path id="Trazado_631981" data-name="Trazado 631981" d="M454.417,1207.616l-2.288-.006-.1-.407,2.288.006Z" transform="translate(-447.192 -1207.191)" fill="#f9ddbf"/>
                <path id="Trazado_631982" data-name="Trazado 631982" d="M470.691,1207.655l-3.509-.009-.1-.407,3.509.009Z" transform="translate(-458.919 -1207.219)" fill="#f9ddbf"/>
              </g>
              <g id="Grupo_957173" data-name="Grupo 957173" transform="translate(0.252 1.071)">
                <path id="Trazado_631983" data-name="Trazado 631983" d="M436.214,1212.413l-4.85-.012-.1-.407,4.85.012Z" transform="translate(-431.268 -1211.994)" fill="#f9ddbf"/>
                <path id="Trazado_631984" data-name="Trazado 631984" d="M436.026,1217.406l-3.487-.008-.1-.407,3.487.009Z" transform="translate(-432.184 -1215.886)" fill="#f9ddbf"/>
                <path id="Trazado_631985" data-name="Trazado 631985" d="M454.156,1217.45l-3.487-.009-.1-.407,3.487.009Z" transform="translate(-446.307 -1215.921)" fill="#f9ddbf"/>
                <path id="Trazado_631986" data-name="Trazado 631986" d="M471.947,1217.494l-2.161-.005-.1-.407,2.161.005Z" transform="translate(-461.199 -1215.957)" fill="#f9ddbf"/>
                <path id="Trazado_631987" data-name="Trazado 631987" d="M460.375,1212.472l-2.992-.007-.1-.407,2.992.007Z" transform="translate(-451.537 -1212.044)" fill="#f9ddbf"/>
                <path id="Trazado_631988" data-name="Trazado 631988" d="M478.872,1212.518l-2.992-.007-.1-.407,2.992.007Z" transform="translate(-465.947 -1212.079)" fill="#f9ddbf"/>
              </g>
            </g>
            <g id="Grupo_957177" data-name="Grupo 957177" transform="translate(25.649 18.917)">
              <g id="Grupo_957175" data-name="Grupo 957175">
                <path id="Trazado_631989" data-name="Trazado 631989" d="M439.657,1230.24l-4.1-.01-.1-.407,4.1.01Z" transform="translate(-435.464 -1229.822)" fill="#f9ddbf"/>
                <path id="Trazado_631990" data-name="Trazado 631990" d="M459.754,1230.289l-2.288-.006-.1-.407,2.288.006Z" transform="translate(-452.529 -1229.864)" fill="#f9ddbf"/>
                <path id="Trazado_631991" data-name="Trazado 631991" d="M476.028,1230.329l-3.509-.009-.1-.407,3.508.009Z" transform="translate(-464.256 -1229.893)" fill="#f9ddbf"/>
              </g>
              <g id="Grupo_957176" data-name="Grupo 957176" transform="translate(0.252 1.071)">
                <path id="Trazado_631992" data-name="Trazado 631992" d="M441.551,1235.087l-4.85-.012-.1-.407,4.85.012Z" transform="translate(-436.604 -1234.668)" fill="#f9ddbf"/>
                <path id="Trazado_631993" data-name="Trazado 631993" d="M441.363,1240.079l-3.487-.009-.1-.407,3.487.009Z" transform="translate(-437.52 -1238.559)" fill="#f9ddbf"/>
                <path id="Trazado_631994" data-name="Trazado 631994" d="M459.493,1240.124l-3.487-.009-.1-.407,3.487.008Z" transform="translate(-451.644 -1238.594)" fill="#f9ddbf"/>
                <path id="Trazado_631995" data-name="Trazado 631995" d="M477.284,1240.167l-2.161-.005-.1-.407,2.161.005Z" transform="translate(-466.536 -1238.631)" fill="#f9ddbf"/>
                <path id="Trazado_631996" data-name="Trazado 631996" d="M465.712,1235.146l-2.992-.008-.1-.407,2.992.007Z" transform="translate(-456.874 -1234.717)" fill="#f9ddbf"/>
                <path id="Trazado_631997" data-name="Trazado 631997" d="M484.209,1235.191l-2.992-.007-.1-.407,2.992.007Z" transform="translate(-471.284 -1234.752)" fill="#f9ddbf"/>
              </g>
            </g>
          </g>
        </g>
        <g id="Grupo_957180" data-name="Grupo 957180" transform="translate(12.539)">
          <path id="Trazado_631998" data-name="Trazado 631998" d="M495.9,1609.817s-.444,6.91-1.781,7.006c-.178.013-6.781,0-6.781,0l-8.43-.067a2.735,2.735,0,0,1,2.525-2.455c2.465-.424,6.593-2.147,8.093-5.4C491.106,1605.477,495.9,1609.817,495.9,1609.817Z" transform="translate(-449.713 -1493.459)" fill="#0e2c4f"/>
          <path id="Trazado_631999" data-name="Trazado 631999" d="M551.776,1360.477c.322.271,8.908,9.574,8.207,16.719a4.122,4.122,0,0,1-4.122,3.677H545.4s-10.671,1.907-10.926,4.213-2.438,14.737-6.766,32.4c0,0-3.189,1.1-5.123.314-2.558-1.037-2.929-2.137-2.929-2.137s2.579-39.557,4.616-42.341,23.015-11.06,29.808-11.884S551.776,1360.477,551.776,1360.477Z" transform="translate(-481.457 -1300.958)" fill="#163560"/>
          <path id="Trazado_632000" data-name="Trazado 632000" d="M356.454,1313.616s-6.068-1.411-7.62,0a7.647,7.647,0,0,0-2.046,3.458h9.666Z" transform="translate(-346.788 -1263.963)" fill="#ffb27d"/>
          <path id="Trazado_632001" data-name="Trazado 632001" d="M429.043,1609.817s-.443,6.91-1.781,7.006c-.178.013-6.781,0-6.781,0l-8.43-.067a2.735,2.735,0,0,1,2.525-2.455c2.465-.424,6.593-2.147,8.093-5.4C424.246,1605.477,429.043,1609.817,429.043,1609.817Z" transform="translate(-397.629 -1493.459)" fill="#163560"/>
          <path id="Trazado_632002" data-name="Trazado 632002" d="M509.1,1360.477a57.476,57.476,0,0,1,3.343,10.884,7.835,7.835,0,0,1-7.651,9.512H480.466s-10.671,1.907-10.926,4.213-2.438,14.737-6.765,32.4a10.183,10.183,0,0,1-5.7-.228,7.058,7.058,0,0,1-2.377-1.93s2.6-39.222,4.639-42.006,23.015-11.06,29.808-11.884S509.1,1360.477,509.1,1360.477Z" transform="translate(-430.853 -1300.958)" fill="#2b478b"/>
          <path id="Trazado_632003" data-name="Trazado 632003" d="M604,1167.275l-3.762,3.612-6.411,0c-.007-.516.014-2.665.037-4.613,0-.115,0-.229.005-.342.005-.433.011-.85.015-1.23.013-1.073.024-1.851.024-1.851l1.648-1.127,3.662-2.507,1.98-1.354c0,.033.164,1.8.189,2.061A15.015,15.015,0,0,0,604,1167.275Z" transform="translate(-539.234 -1143.119)" fill="#ffb27d"/>
          <path id="Trazado_632004" data-name="Trazado 632004" d="M588.8,1187.234c.122-.051,7.059-3.163,7.87-2.9s1.822,2.745,1.822,2.745l-12.214,2.762A6.067,6.067,0,0,1,588.8,1187.234Z" transform="translate(-533.355 -1163.73)" fill="#163560"/>
          <path id="Trazado_632005" data-name="Trazado 632005" d="M466.31,1217.755c-1.321-8.149-6.9-14.248-9.289-16.534-1.6-2.412-11.02-4.4-11.02-4.4l-12.214,2.761a15.564,15.564,0,0,0-10.766,7.168c-2.4,3.971-9.277,13.053-13.792,13.335s-18.7,3.034-18.7,3.034v3.488l21.622.593a3.65,3.65,0,0,0,.787-.062c1.861-.351,9.836-1.936,13.8-4,.633,10.213,1.382,25.809,4.949,28.286,3.773,2.62,30.306,2.97,33.115-1.023,1.438-2.043-.325-14.142-2.528-25.808C465.016,1223.289,466.864,1221.172,466.31,1217.755Z" transform="translate(-380.865 -1173.465)" fill="#2a4e96"/>
          <path id="Trazado_632006" data-name="Trazado 632006" d="M600.376,1173.651l-.327.2a26.251,26.251,0,0,1-5.961,3.147c.013-1.073.024-1.851.024-1.851l1.648-1.127Z" transform="translate(-539.44 -1155.417)" fill="#eaa16e"/>
          <path id="Trazado_632007" data-name="Trazado 632007" d="M575.977,1122.909s9.864,1.167,10.5-4.987,2.331-10.148-3.94-11.153-7.738,1.217-8.448,3.22S573.428,1122.447,575.977,1122.909Z" transform="translate(-523.551 -1103.12)" fill="#ffb27d"/>
          <path id="Trazado_632008" data-name="Trazado 632008" d="M571.874,1097.374s1.862,6.676,3.211,6.12,2.581-1.013,2.757,1.071-1.329,4.81,3.065,4.364,8.528-12.763,6.946-14.653C583.285,1088.822,565.53,1090.865,571.874,1097.374Z" transform="translate(-521.079 -1091.136)" fill="#163560"/>
        </g>
        <g id="Grupo_957182" data-name="Grupo 957182" transform="translate(48.02 29.452)">
          <path id="Rectángulo_307928" data-name="Rectángulo 307928" d="M5.537,0H52.147a0,0,0,0,1,0,0V5.537a0,0,0,0,1,0,0H0a0,0,0,0,1,0,0v0A5.537,5.537,0,0,1,5.537,0Z" transform="translate(60.474 51.786) rotate(180)" fill="#77a4e5"/>
          <rect id="Rectángulo_307929" data-name="Rectángulo 307929" width="41.875" height="5.537" rx="2.769" transform="translate(41.875 51.786) rotate(180)" fill="#f99746"/>
          <g id="Grupo_957181" data-name="Grupo 957181" transform="translate(17.472 51.786)">
            <path id="Trazado_632009" data-name="Trazado 632009" d="M654.9,1498.808h3.147l.883-40.048h-4.808Z" transform="translate(-639.159 -1458.76)" fill="#2b478b"/>
            <path id="Trazado_632010" data-name="Trazado 632010" d="M595.745,1625.283h30.608v-2.765l-15.6-1.407-15.008,1.407Z" transform="translate(-593.683 -1585.235)" fill="#2b478b"/>
            <ellipse id="Elipse_7934" data-name="Elipse 7934" cx="2.518" cy="2.518" rx="2.518" ry="2.518" transform="translate(29.575 39.346) rotate(-40.675)" fill="#2b478b"/>
            <path id="Trazado_632011" data-name="Trazado 632011" d="M591.45,1629.149a2.518,2.518,0,1,0-2.518,2.518A2.518,2.518,0,0,0,591.45,1629.149Z" transform="translate(-586.414 -1589.535)" fill="#2b478b"/>
            <path id="Trazado_632012" data-name="Trazado 632012" d="M591.447,1461.387h28.414a2.627,2.627,0,0,0,2.627-2.627H588.82A2.627,2.627,0,0,0,591.447,1461.387Z" transform="translate(-588.288 -1458.76)" fill="#2b478b"/>
          </g>
          <path id="Trazado_632013" data-name="Trazado 632013" d="M616.05,1276.2a2.4,2.4,0,0,0,2.4-2.4v-36.877c0-6.91-4.518-12.512-10.091-12.512h-22.82c-5.573,0-10.091,5.6-10.091,12.512V1276.2Z" transform="translate(-560.396 -1224.416)" fill="#f99746"/>
          <path id="Trazado_632014" data-name="Trazado 632014" d="M625.047,1276.2a4.369,4.369,0,0,0,4.369-4.369v-34.9c0-6.91-4.518-12.512-10.091-12.512h-22.82c-5.573,0-10.091,5.6-10.091,12.512V1276.2Z" transform="translate(-568.942 -1224.416)" fill="#cc6a27"/>
        </g>
      </g>
      <g id="Grupo_957192" data-name="Grupo 957192" transform="translate(151.249 7.049)">
        <g id="Grupo_957191" data-name="Grupo 957191" transform="translate(6.236 36.39)">
          <path id="Trazado_632027" data-name="Trazado 632027" d="M1006.744,1189.218l2.178-.322c.241-.036.344-.283.244-.586l-2.12-6.454a.9.9,0,0,0-.831-.653l-2.178.322c-.241.036-.344.283-.244.586l2.12,6.454A.905.905,0,0,0,1006.744,1189.218Z" transform="translate(-1003.523 -1176.584)" fill="#233862"/>
          <path id="Trazado_632028" data-name="Trazado 632028" d="M1010.234,1188.7l2.178-.322c.241-.036.344-.283.244-.586l-2.12-6.454a.906.906,0,0,0-.831-.654l-2.178.322c-.24.036-.344.283-.244.586l2.12,6.454A.906.906,0,0,0,1010.234,1188.7Z" transform="translate(-1006.242 -1176.181)" fill="#192e4f"/>
          <path id="Trazado_632029" data-name="Trazado 632029" d="M1004.6,1166.323h0c.063-.01.1-.084.071-.165l-1.721-5.707a.167.167,0,0,0-.16-.131h0c-.063.009-.1.084-.071.165l1.721,5.707A.167.167,0,0,0,1004.6,1166.323Z" transform="translate(-1002.708 -1160.319)" fill="#192e4f"/>
        </g>
        <path id="Trazado_632030" data-name="Trazado 632030" d="M982.038,1072.627a17.456,17.456,0,0,0-2.82-3.667c-1.248-.992-4.543-1.268-4.671-1.014-.4.785,1.306,1.917,1.66,2.638s.2,1.758,1.879,2.607c1.732.876,2.737,1.452,2.737,1.452Z" transform="translate(-974.488 -1051.899)" fill="#ffb27d"/>
        <path id="Trazado_632031" data-name="Trazado 632031" d="M1000.373,1083.125c.808-1.258,1.05-1.323,1.05-1.323s13.371,5.333,14.647,5.778,20.353,1.567,20.353,1.567l5.757,12.654s-25.422-5.8-28.633-6.99c-5.306-1.969-13.818-9.682-13.818-9.682A4.167,4.167,0,0,1,1000.373,1083.125Z" transform="translate(-994.151 -1062.763)" fill="#233862"/>
        <path id="Trazado_632032" data-name="Trazado 632032" d="M1101.579,1616.462s-.291,4.693-1.163,5.8h-13.412a2.386,2.386,0,0,1,2.141-1.916c2.12-.369,5.667-1.858,6.949-4.659C1097.446,1612.738,1101.579,1616.462,1101.579,1616.462Z" transform="translate(-1062.141 -1477.783)" fill="#163560"/>
        <path id="Trazado_632033" data-name="Trazado 632033" d="M1210.349,1613.738s.836,6.1-.312,6.2c-.153.014-5.1.011-7.037,0-2.411-.014-6.263.015-6.263.015a.63.63,0,0,1-.571-.948,2.541,2.541,0,0,1,1.822-1.169c2.112-.407,5.632-1.958,6.866-4.781C1206.151,1610.088,1210.349,1613.738,1210.349,1613.738Z" transform="translate(-1147.11 -1475.714)" fill="#163560"/>
        <path id="Trazado_632034" data-name="Trazado 632034" d="M1124.422,1299.781s3.372,11.8,13.037,32.292,10.411,29.83,10.411,29.83l6.658-.314s-.626-24.391-5.192-34.731-5.5-38.639-5.5-38.639Z" transform="translate(-1091.289 -1223.565)" fill="#ed823a"/>
        <path id="Trazado_632035" data-name="Trazado 632035" d="M1099.9,1294.593a294.273,294.273,0,0,0,2.893,40.707c3.161,22.435,2.09,31.958,2.09,31.958l7.572.252s4.525-22.444,3.228-33.673,6.2-38.533,6.2-38.533Z" transform="translate(-1072.183 -1228.531)" fill="#ff9e55"/>
        <path id="Trazado_632036" data-name="Trazado 632036" d="M1136.748,1069.249l-3.571,2.645-5.161-1.087c.071-.47.412-2.421.722-4.188.019-.1.038-.208.055-.31.266-1.5.5-2.795.5-2.795l4.821-2.4,1.8-.9c0,.031-.139,1.669-.158,1.907A15.435,15.435,0,0,0,1136.748,1069.249Z" transform="translate(-1094.088 -1045.946)" fill="#ffb27d"/>
        <path id="Trazado_632037" data-name="Trazado 632037" d="M1123.661,1088.5c.113-.048,7.021-2.086,7.771-1.839s1.195,1.7,1.195,1.7l-10.665,3.037S1122.217,1089.108,1123.661,1088.5Z" transform="translate(-1089.373 -1066.532)" fill="#163560"/>
        <path id="Trazado_632038" data-name="Trazado 632038" d="M1124.778,1140.7c-1.169,5.341-25.582-11.419-25.256-14.678.036-.358.071-.719.107-1.077.45-4.539.883-8.979.912-11.878a40.865,40.865,0,0,1,.832-7.42c.424-2.156.945-4.113,1.4-5.636a6.228,6.228,0,0,1,3.653-4,5.468,5.468,0,0,1,.606-.211c2.94-.853,7.008-1.909,8.111-1.587,2.988.88,5.207,6.137,6.779,12.841C1124.861,1119.6,1125.541,1137.224,1124.778,1140.7Z" transform="translate(-1071.889 -1072.386)" fill="#2a4e96"/>
        <path id="Trazado_632039" data-name="Trazado 632039" d="M1137.932,1065.353c-1.058,2.026-5,3.777-6.649,4.421.019-.1.038-.208.055-.31.266-1.5.5-2.795.5-2.795l4.821-2.4C1137.72,1064.25,1138.369,1064.519,1137.932,1065.353Z" transform="translate(-1096.635 -1049.102)" fill="#fca56b"/>
        <path id="Trazado_632040" data-name="Trazado 632040" d="M1119.34,1023.4s8.7,2.713,10.3-2.729,3.81-8.757-1.674-10.719-7.181-.206-8.159,1.48S1117.12,1022.558,1119.34,1023.4Z" transform="translate(-1086.484 -1006.119)" fill="#ffb27d"/>
        <path id="Trazado_632041" data-name="Trazado 632041" d="M1123.959,1000.437s.555,6.333,1.864,6.058,2.5-.479,2.306,1.43-2.008,4.113,2.028,4.451,9.838-10.071,8.73-12.042C1135.688,994.648,1119.335,993.5,1123.959,1000.437Z" transform="translate(-1090.292 -995.644)" fill="#163560"/>
        <path id="Trazado_632042" data-name="Trazado 632042" d="M1100.4,1215.89c2.418.874-.042-2.4,0-3.086.188-3-.99-6.8-.629-10.414l14.766-8.826S1118.044,1215.75,1100.4,1215.89Z" transform="translate(-1072.035 -1149.828)" fill="#233862"/>
        <path id="Trazado_632043" data-name="Trazado 632043" d="M1124.344,1186.181c-6.3,11.682-7.307,16.143-7.307,16.143-5.486-.625-14.887-11.411-17.869-14.29,0,0-.406-13.273-.08-16.532l4.557-.131s8.237,2.087,10.372-.745,1.211-16.739,1.211-16.739l6.26-1.354C1124.427,1165.082,1126.036,1183.045,1124.344,1186.181Z" transform="translate(-1071.455 -1117.863)" fill="#ff9e55"/>
        <path id="Trazado_632044" data-name="Trazado 632044" d="M1015.822,1188.053a8.335,8.335,0,0,1-2.269-.736c-.693-.569-1.237-1.523-1.576-1.628-.569-.177-1.967-1.934-2.084-2.058-.045-.048-.423.135-.331.424s.3.92.377,1.146c.331,1,.315,1.306-.879.918-.154-.05-2.913-.925-3.2-.3s.859,3.637,2.3,4.287,4.992.063,5.248.137C1015.582,1190.877,1015.822,1188.053,1015.822,1188.053Z" transform="translate(-998.896 -1142.084)" fill="#ffb27d"/>
        <path id="Trazado_632045" data-name="Trazado 632045" d="M1041.114,1136.54s14.645,2.49,15.942,1.858c2.071-1.008-.8-15.867-.8-15.867a4.274,4.274,0,0,1,3.81-4.162c3.418-.69,6.716,1.87,6.716,1.87s3,2.684,2.616,5.66c-.849,6.6-2.171,20.018-6.584,22.075-5.692,2.653-22.163-7.357-22.163-7.357a2.88,2.88,0,0,1-.47-1.919A4.474,4.474,0,0,1,1041.114,1136.54Z" transform="translate(-1025.655 -1091.157)" fill="#2a4e96"/>
        <path id="Trazado_632046" data-name="Trazado 632046" d="M1134.359,1114.695l-1.214.262s-2.565-11.1-11.183-11.156a6.167,6.167,0,0,1,1.947-1.241C1127.067,1103.407,1132.552,1106.106,1134.359,1114.695Z" transform="translate(-1089.373 -1078.933)" fill="#ff9e55"/>
        <path id="Trazado_632047" data-name="Trazado 632047" d="M978.118,1079.424s-2.374-1.456-2.485-.832c-.055.311,1,1.163,1.424,1.527s1.507,1.078,1.507,1.078Z" transform="translate(-975.378 -1060.141)" fill="#ffb27d"/>
      </g>
    </g>
    <path id="Rectángulo_307948" data-name="Rectángulo 307948" d="M.775,0h418.45A.775.775,0,0,1,420,.775v0a.775.775,0,0,1-.775.775H.775A.775.775,0,0,1,0,.775v0A.775.775,0,0,1,.775,0Z" transform="translate(-9711 -1213.975)" fill="#2e3552"/>
  </g>
</svg>
