<svg xmlns="http://www.w3.org/2000/svg" width="715" height="347" viewBox="0 0 715 347">
  <g id="Grupo_980522" data-name="Grupo 980522" transform="translate(-705 -21129)">
    <rect id="Rectángulo_351156" data-name="Rectángulo 351156" width="715" height="346" transform="translate(705 21129)" fill="#faebcd"/>
    <g id="Grupo_980518" data-name="Grupo 980518" transform="translate(10509.529 12113.22)">
      <g id="Grupo_956818" data-name="Grupo 956818" transform="translate(-9674.634 9275.807)">
        <g id="Grupo_956816" data-name="Grupo 956816">
          <rect id="Rectángulo_307480" data-name="Rectángulo 307480" width="20.613" height="20.613" rx="10.306" fill="#fdb53f"/>
          <rect id="Rectángulo_307481" data-name="Rectángulo 307481" width="11.888" height="17.053" transform="translate(4.362 1.78)" fill="#ec9e00"/>
          <path id="Trazado_631246" data-name="Trazado 631246" d="M3156.534,1105.592v6.107a1.488,1.488,0,0,0,1.486,1.487h15.138a1.489,1.489,0,0,0,1.487-1.487v-6.107Z" transform="translate(-3155.283 -1093.823)" fill="#ba7c00"/>
          <path id="Trazado_631247" data-name="Trazado 631247" d="M3168.914,1152.482h-16.148a2.232,2.232,0,1,1,0-4.465h16.148a2.232,2.232,0,1,1,0,4.465Z" transform="translate(-3150.534 -1127.404)" fill="#83a2cf"/>
          <path id="Trazado_631248" data-name="Trazado 631248" d="M3176.085,1153H3161.9a1.069,1.069,0,1,1,0-2.138h14.18a1.069,1.069,0,1,1,0,2.138Z" transform="translate(-3158.688 -1129.657)" fill="#a4c2ed"/>
        </g>
        <g id="Grupo_956817" data-name="Grupo 956817" transform="translate(39.375)">
          <rect id="Rectángulo_307482" data-name="Rectángulo 307482" width="20.613" height="20.613" rx="10.306" transform="translate(0)" fill="#fdb53f"/>
          <rect id="Rectángulo_307483" data-name="Rectángulo 307483" width="11.888" height="17.053" transform="translate(4.363 1.78)" fill="#ec9e00"/>
          <path id="Trazado_631249" data-name="Trazado 631249" d="M3345.41,1105.592v6.107a1.488,1.488,0,0,0,1.487,1.487h15.137a1.489,1.489,0,0,0,1.487-1.487v-6.107Z" transform="translate(-3344.159 -1093.823)" fill="#ba7c00"/>
          <path id="Trazado_631250" data-name="Trazado 631250" d="M3357.791,1152.482h-16.148a2.232,2.232,0,1,1,0-4.465h16.148a2.232,2.232,0,1,1,0,4.465Z" transform="translate(-3339.409 -1127.404)" fill="#83a2cf"/>
          <path id="Trazado_631251" data-name="Trazado 631251" d="M3364.961,1153h-14.18a1.069,1.069,0,0,1,0-2.138h14.18a1.069,1.069,0,0,1,0,2.138Z" transform="translate(-3347.565 -1129.657)" fill="#a4c2ed"/>
        </g>
      </g>
      <g id="Grupo_956819" data-name="Grupo 956819" transform="translate(-9762.029 9315.3)">
        <path id="Trazado_631252" data-name="Trazado 631252" d="M1308.027,1169.518H753.979c-1.736,0-3.144,2.445-3.144,5.461s1.408,5.461,3.144,5.461h554.048c1.737,0,3.144-2.445,3.144-5.461S1309.764,1169.518,1308.027,1169.518Z" transform="translate(-750.835 -1169.518)" fill="#a4c2ed"/>
        <path id="Trazado_631253" data-name="Trazado 631253" d="M1314.12,1178.856H761.711c-1.112,0-2.017,1.576-2.017,3.514s.905,3.514,2.017,3.514H1314.12c1.112,0,2.017-1.576,2.017-3.514S1315.232,1178.856,1314.12,1178.856Z" transform="translate(-757.847 -1176.909)" fill="#415167"/>
        <path id="Trazado_631254" data-name="Trazado 631254" d="M969.377,1188.988c-.44,0-.8.628-.8,1.4s.357,1.4.8,1.4.8-.627.8-1.4S969.818,1188.988,969.377,1188.988Zm-13.93,0c-.441,0-.8.628-.8,1.4s.357,1.4.8,1.4.8-.627.8-1.4S955.888,1188.988,955.448,1188.988Zm83.578,0c-.441,0-.8.628-.8,1.4s.357,1.4.8,1.4.8-.627.8-1.4S1039.466,1188.988,1039.026,1188.988Zm-97.508,0c-.44,0-.8.628-.8,1.4s.357,1.4.8,1.4.8-.627.8-1.4S941.958,1188.988,941.518,1188.988Zm6.965,0c-.44,0-.8.628-.8,1.4s.357,1.4.8,1.4.8-.627.8-1.4S948.923,1188.988,948.483,1188.988Zm-27.859,0c-.44,0-.8.628-.8,1.4s.357,1.4.8,1.4.8-.627.8-1.4S921.064,1188.988,920.624,1188.988Zm13.93,0c-.44,0-.8.628-.8,1.4s.357,1.4.8,1.4.8-.627.8-1.4S934.994,1188.988,934.553,1188.988Zm-6.965,0c-.441,0-.8.628-.8,1.4s.357,1.4.8,1.4.8-.627.8-1.4S928.029,1188.988,927.588,1188.988Zm48.754,0c-.44,0-.8.628-.8,1.4s.357,1.4.8,1.4.8-.627.8-1.4S976.782,1188.988,976.342,1188.988Zm41.789,0c-.441,0-.8.628-.8,1.4s.357,1.4.8,1.4.8-.627.8-1.4S1018.571,1188.988,1018.131,1188.988Zm-6.965,0c-.44,0-.8.628-.8,1.4s.357,1.4.8,1.4.8-.627.8-1.4S1011.607,1188.988,1011.166,1188.988Zm13.93,0c-.441,0-.8.628-.8,1.4s.357,1.4.8,1.4.8-.627.8-1.4S1025.536,1188.988,1025.1,1188.988Zm-20.894,0c-.441,0-.8.628-.8,1.4s.357,1.4.8,1.4.8-.627.8-1.4S1004.642,1188.988,1004.2,1188.988Zm-13.93,0c-.44,0-.8.628-.8,1.4s.357,1.4.8,1.4.8-.627.8-1.4S990.712,1188.988,990.272,1188.988Zm-6.965,0c-.441,0-.8.628-.8,1.4s.357,1.4.8,1.4.8-.627.8-1.4S983.747,1188.988,983.307,1188.988Zm-69.648,0c-.441,0-.8.628-.8,1.4s.357,1.4.8,1.4.8-.627.8-1.4S914.1,1188.988,913.659,1188.988Zm83.578,0c-.44,0-.8.628-.8,1.4s.357,1.4.8,1.4.8-.627.8-1.4S997.677,1188.988,997.237,1188.988Zm-34.824,0c-.44,0-.8.628-.8,1.4s.357,1.4.8,1.4.8-.627.8-1.4S962.853,1188.988,962.412,1188.988Zm-139.3,0c-.44,0-.8.628-.8,1.4s.357,1.4.8,1.4.8-.627.8-1.4S823.556,1188.988,823.116,1188.988Zm-6.965,0c-.44,0-.8.628-.8,1.4s.357,1.4.8,1.4.8-.627.8-1.4S816.591,1188.988,816.151,1188.988Zm13.93,0c-.441,0-.8.628-.8,1.4s.357,1.4.8,1.4.8-.627.8-1.4S830.521,1188.988,830.081,1188.988Zm6.965,0c-.44,0-.8.628-.8,1.4s.357,1.4.8,1.4.8-.627.8-1.4S837.486,1188.988,837.045,1188.988Zm-48.754,0c-.441,0-.8.628-.8,1.4s.357,1.4.8,1.4.8-.627.8-1.4S788.732,1188.988,788.292,1188.988Zm20.895,0c-.44,0-.8.628-.8,1.4s.357,1.4.8,1.4.8-.627.8-1.4S809.627,1188.988,809.186,1188.988Zm34.824,0c-.44,0-.8.628-.8,1.4s.357,1.4.8,1.4.8-.627.8-1.4S844.451,1188.988,844.01,1188.988Zm-48.754,0c-.44,0-.8.628-.8,1.4s.357,1.4.8,1.4.8-.627.8-1.4S795.7,1188.988,795.256,1188.988Zm6.965,0c-.44,0-.8.628-.8,1.4s.357,1.4.8,1.4.8-.627.8-1.4S802.662,1188.988,802.221,1188.988Zm62.683,0c-.44,0-.8.628-.8,1.4s.357,1.4.8,1.4.8-.627.8-1.4S865.345,1188.988,864.9,1188.988Zm13.93,0c-.44,0-.8.628-.8,1.4s.357,1.4.8,1.4.8-.627.8-1.4S879.275,1188.988,878.834,1188.988Zm6.965,0c-.441,0-.8.628-.8,1.4s.357,1.4.8,1.4.8-.627.8-1.4S886.24,1188.988,885.8,1188.988Zm6.965,0c-.44,0-.8.628-.8,1.4s.357,1.4.8,1.4.8-.627.8-1.4S893.2,1188.988,892.764,1188.988Zm6.965,0c-.44,0-.8.628-.8,1.4s.357,1.4.8,1.4.8-.627.8-1.4S900.169,1188.988,899.729,1188.988Zm-41.789,0c-.44,0-.8.628-.8,1.4s.357,1.4.8,1.4.8-.627.8-1.4S858.38,1188.988,857.94,1188.988Zm-6.965,0c-.44,0-.8.628-.8,1.4s.357,1.4.8,1.4.8-.627.8-1.4S851.416,1188.988,850.975,1188.988Zm20.894,0c-.44,0-.8.628-.8,1.4s.357,1.4.8,1.4.8-.627.8-1.4S872.31,1188.988,871.87,1188.988Zm34.824,0c-.44,0-.8.628-.8,1.4s.357,1.4.8,1.4.8-.627.8-1.4S907.134,1188.988,906.694,1188.988Zm125.367,0c-.44,0-.8.628-.8,1.4s.357,1.4.8,1.4.8-.627.8-1.4S1032.5,1188.988,1032.061,1188.988Zm195.015,0c-.44,0-.8.628-.8,1.4s.357,1.4.8,1.4.8-.627.8-1.4S1227.516,1188.988,1227.076,1188.988Zm6.965,0c-.441,0-.8.628-.8,1.4s.357,1.4.8,1.4.8-.627.8-1.4S1234.481,1188.988,1234.041,1188.988Zm-13.93,0c-.44,0-.8.628-.8,1.4s.357,1.4.8,1.4.8-.627.8-1.4S1220.552,1188.988,1220.111,1188.988Zm27.859,0c-.44,0-.8.628-.8,1.4s.357,1.4.8,1.4.8-.627.8-1.4S1248.411,1188.988,1247.971,1188.988Zm-6.965,0c-.441,0-.8.628-.8,1.4s.357,1.4.8,1.4.8-.627.8-1.4S1241.446,1188.988,1241.006,1188.988Zm-41.789,0c-.44,0-.8.628-.8,1.4s.357,1.4.8,1.4.8-.627.8-1.4S1199.657,1188.988,1199.217,1188.988Zm-6.965,0c-.44,0-.8.628-.8,1.4s.357,1.4.8,1.4.8-.627.8-1.4S1192.692,1188.988,1192.252,1188.988Zm20.895,0c-.44,0-.8.628-.8,1.4s.357,1.4.8,1.4.8-.627.8-1.4S1213.587,1188.988,1213.146,1188.988Zm-6.965,0c-.44,0-.8.628-.8,1.4s.357,1.4.8,1.4.8-.627.8-1.4S1206.622,1188.988,1206.182,1188.988Zm-20.894,0c-.441,0-.8.628-.8,1.4s.357,1.4.8,1.4.8-.627.8-1.4S1185.728,1188.988,1185.287,1188.988Zm69.648,0c-.441,0-.8.628-.8,1.4s.357,1.4.8,1.4.8-.627.8-1.4S1255.376,1188.988,1254.935,1188.988Zm48.754,0c-.44,0-.8.628-.8,1.4s.357,1.4.8,1.4.8-.627.8-1.4S1304.13,1188.988,1303.689,1188.988Zm-13.93,0c-.441,0-.8.628-.8,1.4s.357,1.4.8,1.4.8-.627.8-1.4S1290.2,1188.988,1289.76,1188.988Zm20.895,0c-.44,0-.8.628-.8,1.4s.357,1.4.8,1.4.8-.627.8-1.4S1311.095,1188.988,1310.654,1188.988Zm-13.93,0c-.441,0-.8.628-.8,1.4s.357,1.4.8,1.4.8-.627.8-1.4S1297.165,1188.988,1296.724,1188.988Zm27.859,0c-.44,0-.8.628-.8,1.4s.357,1.4.8,1.4.8-.627.8-1.4S1325.024,1188.988,1324.584,1188.988Zm6.965,0c-.441,0-.8.628-.8,1.4s.357,1.4.8,1.4.8-.627.8-1.4S1331.989,1188.988,1331.549,1188.988Zm-13.93,0c-.441,0-.8.628-.8,1.4s.357,1.4.8,1.4.8-.627.8-1.4S1318.059,1188.988,1317.619,1188.988Zm-48.754,0c-.441,0-.8.628-.8,1.4s.357,1.4.8,1.4.8-.627.8-1.4S1269.305,1188.988,1268.865,1188.988Zm-6.965,0c-.441,0-.8.628-.8,1.4s.357,1.4.8,1.4.8-.627.8-1.4S1262.341,1188.988,1261.9,1188.988Zm13.93,0c-.441,0-.8.628-.8,1.4s.357,1.4.8,1.4.8-.627.8-1.4S1276.27,1188.988,1275.83,1188.988Zm6.965,0c-.441,0-.8.628-.8,1.4s.357,1.4.8,1.4.8-.627.8-1.4S1283.235,1188.988,1282.795,1188.988Zm-139.3,0c-.44,0-.8.628-.8,1.4s.357,1.4.8,1.4.8-.627.8-1.4S1143.938,1188.988,1143.5,1188.988Zm-55.719,0c-.44,0-.8.628-.8,1.4s.357,1.4.8,1.4.8-.627.8-1.4S1088.22,1188.988,1087.779,1188.988Zm-6.965,0c-.44,0-.8.628-.8,1.4s.357,1.4.8,1.4.8-.627.8-1.4S1081.255,1188.988,1080.814,1188.988Zm97.508,0c-.441,0-.8.628-.8,1.4s.357,1.4.8,1.4.8-.627.8-1.4S1178.763,1188.988,1178.322,1188.988Zm-76.613,0c-.441,0-.8.628-.8,1.4s.357,1.4.8,1.4.8-.627.8-1.4S1102.15,1188.988,1101.709,1188.988Zm-55.719,0c-.441,0-.8.628-.8,1.4s.357,1.4.8,1.4.8-.627.8-1.4S1046.431,1188.988,1045.991,1188.988Zm13.929,0c-.44,0-.8.628-.8,1.4s.357,1.4.8,1.4.8-.627.8-1.4S1060.361,1188.988,1059.92,1188.988Zm13.93,0c-.441,0-.8.628-.8,1.4s.357,1.4.8,1.4.8-.627.8-1.4S1074.29,1188.988,1073.85,1188.988Zm34.824,0c-.44,0-.8.628-.8,1.4s.357,1.4.8,1.4.8-.627.8-1.4S1109.114,1188.988,1108.674,1188.988Zm-41.789,0c-.441,0-.8.628-.8,1.4s.357,1.4.8,1.4.8-.627.8-1.4S1067.325,1188.988,1066.885,1188.988Zm27.859,0c-.44,0-.8.628-.8,1.4s.357,1.4.8,1.4.8-.627.8-1.4S1095.185,1188.988,1094.744,1188.988Zm62.683,0c-.44,0-.8.628-.8,1.4s.357,1.4.8,1.4.8-.627.8-1.4S1157.868,1188.988,1157.428,1188.988Zm6.965,0c-.441,0-.8.628-.8,1.4s.357,1.4.8,1.4.8-.627.8-1.4S1164.833,1188.988,1164.393,1188.988Zm-13.93,0c-.441,0-.8.628-.8,1.4s.357,1.4.8,1.4.8-.627.8-1.4S1150.9,1188.988,1150.463,1188.988Zm20.894,0c-.441,0-.8.628-.8,1.4s.357,1.4.8,1.4.8-.627.8-1.4S1171.8,1188.988,1171.357,1188.988Zm-41.789,0c-.441,0-.8.628-.8,1.4s.357,1.4.8,1.4.8-.627.8-1.4S1130.009,1188.988,1129.568,1188.988Zm-6.965,0c-.44,0-.8.628-.8,1.4s.357,1.4.8,1.4.8-.627.8-1.4S1123.044,1188.988,1122.6,1188.988Zm-69.648,0c-.44,0-.8.628-.8,1.4s.357,1.4.8,1.4.8-.627.8-1.4S1053.4,1188.988,1052.955,1188.988Zm62.683,0c-.44,0-.8.628-.8,1.4s.357,1.4.8,1.4.8-.627.8-1.4S1116.079,1188.988,1115.639,1188.988Zm20.895,0c-.44,0-.8.628-.8,1.4s.357,1.4.8,1.4.8-.627.8-1.4S1136.974,1188.988,1136.533,1188.988Z" transform="translate(-779.852 -1184.929)" fill="#83a2cf"/>
      </g>
      <g id="Grupo_956861" data-name="Grupo 956861" transform="translate(-9762.029 9081.905)">
        <g id="Grupo_956829" data-name="Grupo 956829" transform="translate(0 30.778)">
          <g id="Grupo_956824" data-name="Grupo 956824">
            <g id="Grupo_956823" data-name="Grupo 956823">
              <g id="Grupo_956820" data-name="Grupo 956820" transform="translate(64.187 15.536)">
                <path id="Trazado_631255" data-name="Trazado 631255" d="M3078.451,346.252l-21.873-21.872v-34.3l-17.369-17.369.589-.59,17.613,17.613v34.3l21.628,21.628Z" transform="translate(-3039.209 -272.118)" fill="#dadaf2"/>
              </g>
              <g id="Grupo_956821" data-name="Grupo 956821" transform="translate(36.561 46.457)">
                <path id="Trazado_631256" data-name="Trazado 631256" d="M2968.273,468.794l-24.627-24.627V421.275H2906.69v-.834h37.79v23.38l24.383,24.383Z" transform="translate(-2906.69 -420.441)" fill="#dadaf2"/>
              </g>
              <g id="Grupo_956822" data-name="Grupo 956822" transform="translate(56.55 79.382)">
                <path id="Trazado_631257" data-name="Trazado 631257" d="M3039.309,599.365l-20.157-20.157h-16.577v-.834H3019.5l.123.122,20.279,20.279Z" transform="translate(-3002.574 -578.374)" fill="#dadaf2"/>
              </g>
              <path id="Trazado_631258" data-name="Trazado 631258" d="M2874.387,504.434h18.28l9.14,15.831-9.14,15.831h-18.28l-9.14-15.831Z" transform="translate(-2837.325 -440.466)" fill="#415167"/>
              <path id="Trazado_631259" data-name="Trazado 631259" d="M2740.453,346.5h18.28l9.141,15.831-9.141,15.831h-18.28l-9.141-15.831Z" transform="translate(-2731.313 -315.458)" fill="#ffdd1e"/>
              <path id="Trazado_631260" data-name="Trazado 631260" d="M2874.387,197.592h18.28l9.14,15.831-9.14,15.831h-18.28l-9.14-15.831Z" transform="translate(-2837.325 -197.592)" fill="#ffc71e"/>
              <path id="Trazado_631261" data-name="Trazado 631261" d="M2915.338,543.785h-3.18l6.14,6.141,6.141-6.141h-3.18v-7.318h-5.921Zm-11.275-9.492h3.18v7.318h5.921v-7.318h3.18l-6.141-6.141Z" transform="translate(-2868.05 -459.241)" fill="#fff"/>
              <path id="Trazado_631262" data-name="Trazado 631262" d="M2772.011,399.691h4.622v-9.748h-4.622Zm-6.135,0h4.622v-9.748h-4.622Zm-6.134,0h4.622v-9.748h-4.622Zm-4.281-7.671v5.593h1.879v3.325a1.154,1.154,0,0,0,1.154,1.154h19.386a1.155,1.155,0,0,0,1.155-1.154V388.7a1.155,1.155,0,0,0-1.155-1.154h-19.386a1.154,1.154,0,0,0-1.154,1.154v3.325Zm3.08-3.278h19.293v12.15h-19.293Z" transform="translate(-2750.426 -347.942)" fill="#fff"/>
              <path id="Trazado_631263" data-name="Trazado 631263" d="M2918.681,237.491a3.6,3.6,0,0,0-5.084,0l-5,5,2.542,2.542a4.621,4.621,0,0,1,1.327,3.757l6.216-6.216A3.6,3.6,0,0,0,2918.681,237.491Zm-3.645,3.645a1.559,1.559,0,1,1,2.2,0A1.558,1.558,0,0,1,2915.037,241.136Zm-4.63,4.63-8.275-8.275a3.6,3.6,0,0,0-5.084,5.085l8.275,8.275a3.6,3.6,0,0,0,5.085-5.085Zm-11.919-4.63a1.559,1.559,0,1,1,2.2,0A1.558,1.558,0,0,1,2898.487,241.136Zm8.274,8.275a1.559,1.559,0,1,1,2.205,0A1.559,1.559,0,0,1,2906.761,249.411Z" transform="translate(-2861.662 -228.34)" fill="#fff"/>
            </g>
            <circle id="Elipse_7881" data-name="Elipse 7881" cx="2.455" cy="2.455" r="2.455" transform="translate(69.827 79.798) rotate(-45)" fill="#ffd21e"/>
            <circle id="Elipse_7882" data-name="Elipse 7882" cx="2.455" cy="2.455" r="2.455" transform="translate(71.104 48.7) rotate(-76.718)" fill="#ffd21e"/>
            <circle id="Elipse_7883" data-name="Elipse 7883" cx="2.455" cy="2.455" r="2.455" transform="translate(78.889 35.324) rotate(-76.717)" fill="#ffd21e"/>
          </g>
          <g id="Grupo_956825" data-name="Grupo 956825" transform="translate(81.214 97.367)">
            <rect id="Rectángulo_307484" data-name="Rectángulo 307484" width="4.287" height="24.653" transform="translate(28.74 43.867) rotate(90)" fill="#415167"/>
            <path id="Rectángulo_307485" data-name="Rectángulo 307485" d="M8.244,0h2.127a0,0,0,0,1,0,0V16.488a0,0,0,0,1,0,0H8.244A8.244,8.244,0,0,1,0,8.244v0A8.244,8.244,0,0,1,8.244,0Z" transform="translate(24.657 33.495) rotate(90)" fill="#83a2cf"/>
            <circle id="Elipse_7884" data-name="Elipse 7884" cx="3.585" cy="3.585" r="3.585" transform="translate(12.828 35.096)" fill="#415167"/>
            <path id="Trazado_631264" data-name="Trazado 631264" d="M3193.823,736.948V709.464a2.072,2.072,0,0,0-4.145,0v27.483a2.072,2.072,0,0,0,4.145,0Z" transform="translate(-3175.337 -698.481)" fill="#a4c2ed"/>
            <path id="Trazado_631265" data-name="Trazado 631265" d="M3181.266,688.351V671.208a6.562,6.562,0,0,0-13.125,0v17.143a6.562,6.562,0,1,0,13.125,0Z" transform="translate(-3158.29 -664.646)" fill="#83a2cf"/>
            <path id="Trazado_631266" data-name="Trazado 631266" d="M3239.144,907.125V879.154a4.087,4.087,0,1,1,8.173,0v19.8a8.173,8.173,0,0,1-8.173,8.174Z" transform="translate(-3214.491 -831.201)" fill="#a4c2ed"/>
            <path id="Trazado_631267" data-name="Trazado 631267" d="M3219.088,998.292a3.556,3.556,0,0,1,3.556-3.556h.626v7.111h-.626A3.556,3.556,0,0,1,3219.088,998.292Z" transform="translate(-3198.616 -925.922)" fill="#415167"/>
            <circle id="Elipse_7885" data-name="Elipse 7885" cx="5.481" cy="5.481" r="5.481" transform="translate(10.933 67.155)" fill="#fdb53f"/>
            <path id="Trazado_631268" data-name="Trazado 631268" d="M3129.061,907.125V879.154a4.087,4.087,0,1,0-8.174,0v19.8a8.173,8.173,0,0,0,8.174,8.174Z" transform="translate(-3120.887 -831.201)" fill="#a4c2ed"/>
            <path id="Trazado_631269" data-name="Trazado 631269" d="M3164.276,998.292a3.556,3.556,0,0,0-3.555-3.556h-.625v7.111h.625A3.556,3.556,0,0,0,3164.276,998.292Z" transform="translate(-3151.921 -925.922)" fill="#415167"/>
          </g>
          <g id="Grupo_956826" data-name="Grupo 956826" transform="translate(91.225 79.811)">
            <rect id="Rectángulo_307486" data-name="Rectángulo 307486" width="3.803" height="16.656" transform="translate(7.554 25.509) rotate(-135)" fill="#415167"/>
            <path id="Trazado_631270" data-name="Trazado 631270" d="M3188.751,618.133l-11.778,11.778,1.067,1.067,11.778-11.778Zm9.055,9.055-1.067-1.067L3184.961,637.9l1.067,1.067Z" transform="translate(-3175.291 -610.274)" fill="#a4c2ed"/>
            <path id="Trazado_631271" data-name="Trazado 631271" d="M3242.524,597.348l7.86-7.86-1-1-1.648,1.648a4.982,4.982,0,0,1-7.045-7.045l1.648-1.648-1.005-1-7.859,7.859Z" transform="translate(-3220.01 -580.433)" fill="#a4c2ed"/>
            <circle id="Elipse_7886" data-name="Elipse 7886" cx="6.403" cy="6.403" r="6.403" transform="translate(0 17.556)" fill="#a4c2ed"/>
            <circle id="Elipse_7887" data-name="Elipse 7887" cx="3.935" cy="3.935" r="3.935" transform="translate(0.838 23.959) rotate(-45)" fill="#415167"/>
          </g>
          <rect id="Rectángulo_307487" data-name="Rectángulo 307487" width="16.128" height="10.277" transform="translate(116.835 77.307) rotate(-45)" fill="#415167"/>
          <rect id="Rectángulo_307488" data-name="Rectángulo 307488" width="11.277" height="19.029" rx="5.638" transform="matrix(-0.707, 0.707, -0.707, -0.707, 129.322, 85.542)" fill="#a4c2ed"/>
          <path id="Trazado_631272" data-name="Trazado 631272" d="M3306.707,610.992a1.525,1.525,0,1,1-2.157,0A1.525,1.525,0,0,1,3306.707,610.992Z" transform="translate(-3184.694 -524.458)" fill="#415167"/>
          <path id="Trazado_631273" data-name="Trazado 631273" d="M3275.039,581.48a1.524,1.524,0,0,1-2.156,0l-4.354-4.353a1.525,1.525,0,0,1,2.157-2.156l4.353,4.354A1.525,1.525,0,0,1,3275.039,581.48Z" transform="translate(-3156.182 -495.945)" fill="#415167"/>
          <rect id="Rectángulo_307489" data-name="Rectángulo 307489" width="17.106" height="32.734" transform="translate(182.84 134.777)" fill="#415167"/>
          <path id="Trazado_631274" data-name="Trazado 631274" d="M3510,1037.36h43.726a9.093,9.093,0,0,1,9.093,9.094H3500.9A9.094,9.094,0,0,1,3510,1037.36Z" transform="translate(-3340.467 -862.294)" fill="#415167"/>
          <path id="Rectángulo_307490" data-name="Rectángulo 307490" d="M0,0H43.73a0,0,0,0,1,0,0V0A15.11,15.11,0,0,1,28.62,15.11H15.11A15.11,15.11,0,0,1,0,0V0A0,0,0,0,1,0,0Z" transform="translate(213.257 175.066) rotate(180)" fill="#b3d6ff"/>
          <path id="Trazado_631275" data-name="Trazado 631275" d="M3398.755,1080.98h75.282a18.457,18.457,0,0,1,18.458,18.457H3380.3A18.458,18.458,0,0,1,3398.755,1080.98Z" transform="translate(-3245.004 -896.82)" fill="#83a2cf"/>
          <g id="Grupo_956827" data-name="Grupo 956827" transform="translate(121.465 59.269)">
            <path id="Trazado_631276" data-name="Trazado 631276" d="M3324.159,502.293h60.771a10.2,10.2,0,0,0,0-20.4h-60.771a10.2,10.2,0,0,0,0,20.4Z" transform="translate(-3313.961 -481.896)" fill="#83a2cf"/>
            <path id="Trazado_631277" data-name="Trazado 631277" d="M3337.162,509.156a5.705,5.705,0,1,0,5.705-5.7A5.705,5.705,0,0,0,3337.162,509.156Zm60.083,0a5.705,5.705,0,1,0,5.7-5.7A5.7,5.7,0,0,0,3397.246,509.156Z" transform="translate(-3332.325 -498.957)" fill="#415167"/>
          </g>
          <g id="Grupo_956828" data-name="Grupo 956828" transform="translate(177.751 55.319)">
            <path id="Trazado_631278" data-name="Trazado 631278" d="M3583.958,533.19v-56.6a13.642,13.642,0,1,1,27.284,0v56.6a13.642,13.642,0,1,1-27.284,0Z" transform="translate(-3583.958 -462.947)" fill="#a4c2ed"/>
            <path id="Trazado_631279" data-name="Trazado 631279" d="M3628.053,557.3a7.632,7.632,0,1,0-7.632,7.631A7.632,7.632,0,0,0,3628.053,557.3Zm0-55.682a7.632,7.632,0,1,0-7.632,7.631A7.632,7.632,0,0,0,3628.053,501.615Z" transform="translate(-3606.78 -487.513)" fill="#415167"/>
          </g>
        </g>
        <g id="Grupo_956860" data-name="Grupo 956860" transform="translate(360.722)">
          <g id="Grupo_956851" data-name="Grupo 956851" transform="translate(97.499 62.076)">
            <g id="Grupo_956848" data-name="Grupo 956848" transform="translate(0.797 65.302)">
              <path id="Trazado_631321" data-name="Trazado 631321" d="M4933.748,713.253l-.589-.59,51.7-51.7h25.588v.834H4985.2Z" transform="translate(-4933.159 -660.968)" fill="#dadaf2"/>
            </g>
            <g id="Grupo_956849" data-name="Grupo 956849" transform="translate(1.666 56.311)">
              <rect id="Rectángulo_307509" data-name="Rectángulo 307509" width="67.594" height="0.834" transform="translate(0 47.797) rotate(-45.001)" fill="#dadaf2"/>
            </g>
            <g id="Grupo_956850" data-name="Grupo 956850" transform="translate(0 31.716)">
              <path id="Trazado_631322" data-name="Trazado 631322" d="M4929.924,562.7l-.589-.59,21.016-21.016V499.86h.833v41.583Z" transform="translate(-4929.335 -499.86)" fill="#dadaf2"/>
            </g>
            <path id="Trazado_631323" data-name="Trazado 631323" d="M5133.307,467.376h18.281l9.14,15.831-9.14,15.831h-18.281l-9.139-15.831Z" transform="translate(-5083.551 -442.433)" fill="#ffc71e"/>
            <path id="Trazado_631324" data-name="Trazado 631324" d="M5331.3,587.028h-18.28l-9.141,15.831,9.141,15.831h18.28l9.141-15.831Z" transform="translate(-5225.797 -537.14)" fill="#e4e5fd"/>
            <path id="Trazado_631325" data-name="Trazado 631325" d="M4971.876,347.725H4953.6l-9.14,15.831,9.14,15.831h18.281l9.14-15.831Z" transform="translate(-4941.304 -347.725)" fill="#415167"/>
            <path id="Trazado_631326" data-name="Trazado 631326" d="M5167.319,514.049v9.528h2.108v-5.225h1.975v5.225h4.215v-5.225h1.975v5.225h4.215v-5.225h1.976v5.225h2.107V509.461l-6.19,4.588v-4.588l-6.189,4.588v-4.588Zm14.487,1.962h1.976v1.515h-1.976Zm-6.189,0h1.975v1.515h-1.975Zm-6.189,0h1.975v1.515h-1.975Z" transform="translate(-5117.707 -475.744)" fill="#fff"/>
            <path id="Trazado_631327" data-name="Trazado 631327" d="M4997.4,400.272H4996.3V396.64a2.722,2.722,0,0,0-1.607-2.482V392.6h-2.231v1.561a2.721,2.721,0,0,0-1.607,2.482v3.632h-1.1a1.868,1.868,0,0,0-1.868,1.867h11.392A1.868,1.868,0,0,0,4997.4,400.272Zm-3.828-2.594a.969.969,0,1,1,.969-.969A.97.97,0,0,1,4993.575,397.678Zm12.736-1.1-.4-1.274a1.193,1.193,0,0,0-1.139-.839H5003.7a2.213,2.213,0,0,0-2.212,2.213v1.076a1.192,1.192,0,0,0,.838,1.139l1.273.4a.484.484,0,0,0,.486-.805l-1.587-1.587,1.422-1.422,1.587,1.587A.484.484,0,0,0,5006.311,396.574Zm-4.419-3.284-2.979-2.979a2.721,2.721,0,0,0-2.589-3.564h-5.5a2.723,2.723,0,0,0,0,5.445h5.5a2.711,2.711,0,0,0,1.087-.227l2.9,2.9a1.116,1.116,0,1,0,1.578-1.578Zm-11.375-2.851a.969.969,0,1,1,.97-.969A.969.969,0,0,1,4990.516,390.439Zm6.117,0a.969.969,0,1,1,.969-.969A.97.97,0,0,1,4996.633,390.439Z" transform="translate(-4975.674 -378.612)" fill="#fff"/>
            <circle id="Elipse_7897" data-name="Elipse 7897" cx="2.455" cy="2.455" r="2.455" transform="translate(49.647 67.436) rotate(-74.636)" fill="#ffd21e"/>
            <circle id="Elipse_7898" data-name="Elipse 7898" cx="2.455" cy="2.455" r="2.455" transform="matrix(0.231, -0.973, 0.973, 0.231, 18.477, 74.948)" fill="#ffd21e"/>
            <path id="Trazado_631328" data-name="Trazado 631328" d="M5355.975,628.7l.873.873a7.626,7.626,0,0,0,3.247,1.926,7.646,7.646,0,0,0-1.927-3.246l-.873-.873a3.666,3.666,0,0,1-1.319,1.32Zm-3.354-1.854a1.994,1.994,0,1,0,2.82-2.82l-2.111-2.111-2.82,2.82Zm-8.188-15.614-4.605,4.606a2.761,2.761,0,0,0,0,3.9l4.605,4.606a2.762,2.762,0,0,0,3.905,0l4.606-4.606a2.762,2.762,0,0,0,0-3.9l-4.606-4.606A2.762,2.762,0,0,0,5344.432,611.227Z" transform="translate(-5253.61 -555.655)" fill="#fff"/>
          </g>
          <g id="Grupo_956852" data-name="Grupo 956852" transform="translate(86.657 146.236)">
            <path id="Trazado_631329" data-name="Trazado 631329" d="M4953.4,943.333V934.8h2.572v8.532a1.286,1.286,0,1,1-2.572,0Z" transform="translate(-4937.538 -896.574)" fill="#a4c2ed"/>
            <circle id="Elipse_7899" data-name="Elipse 7899" cx="7.911" cy="7.911" r="7.911" fill="#415167"/>
            <path id="Rectángulo_307510" data-name="Rectángulo 307510" d="M0,0H4.618A4.955,4.955,0,0,1,9.573,4.955v0A4.955,4.955,0,0,1,4.618,9.91H0a0,0,0,0,1,0,0V0A0,0,0,0,1,0,0Z" transform="translate(22.099 30.675) rotate(90)" fill="#415167"/>
            <path id="Trazado_631330" data-name="Trazado 631330" d="M4910.65,793.914V780.538a4.954,4.954,0,0,0-1.452-3.5l-9.233-9.234a4.955,4.955,0,0,0-7.008,7.008l7.783,7.782v11.324a4.955,4.955,0,1,0,9.91,0Z" transform="translate(-4888.551 -763.239)" fill="#a4c2ed"/>
            <circle id="Elipse_7900" data-name="Elipse 7900" cx="3.333" cy="3.333" r="3.333" transform="translate(13.811 27.342)" fill="#415167"/>
            <circle id="Elipse_7901" data-name="Elipse 7901" cx="3.333" cy="3.333" r="3.333" transform="translate(3.897 10.537) rotate(-76.624)" fill="#415167"/>
          </g>
          <g id="Grupo_956853" data-name="Grupo 956853" transform="translate(66.571 149.34)">
            <rect id="Rectángulo_307511" data-name="Rectángulo 307511" width="2.855" height="19.651" transform="translate(27.996 3.38) rotate(90)" fill="#415167"/>
            <path id="Trazado_631331" data-name="Trazado 631331" d="M4821.011,775.932h19.864V774.8h-19.864Zm0-9.615v1.133h19.864v-1.133Z" transform="translate(-4812.666 -766.317)" fill="#a4c2ed"/>
            <path id="Trazado_631332" data-name="Trazado 631332" d="M4789.326,766.317h-8.345v1.067h1.75a3.74,3.74,0,0,1,0,7.481h-1.75v1.067h8.345Z" transform="translate(-4780.981 -766.317)" fill="#a4c2ed"/>
            <circle id="Elipse_7902" data-name="Elipse 7902" cx="4.807" cy="4.807" r="4.807" transform="translate(23.189 0.007)" fill="#a4c2ed"/>
            <circle id="Elipse_7903" data-name="Elipse 7903" cx="2.954" cy="2.954" r="2.954" transform="translate(25.042 1.86)" fill="#415167"/>
          </g>
          <rect id="Rectángulo_307512" data-name="Rectángulo 307512" width="12.704" height="7.716" transform="translate(50.26 150.29)" fill="#415167"/>
          <rect id="Rectángulo_307513" data-name="Rectángulo 307513" width="8.466" height="14.287" rx="4.233" transform="translate(60.707 147.004)" fill="#a4c2ed"/>
          <path id="Trazado_631333" data-name="Trazado 631333" d="M4773.992,766.854a1.145,1.145,0,1,1,1.145,1.145A1.145,1.145,0,0,1,4773.992,766.854Z" transform="translate(-4708.878 -616.496)" fill="#415167"/>
          <path id="Trazado_631334" data-name="Trazado 631334" d="M4775.137,781.784a1.144,1.144,0,0,1,1.145,1.145v4.622a1.145,1.145,0,1,1-2.289,0v-4.622A1.145,1.145,0,0,1,4775.137,781.784Z" transform="translate(-4708.878 -629.22)" fill="#415167"/>
          <rect id="Rectángulo_307514" data-name="Rectángulo 307514" width="12.843" height="12.793" transform="translate(42.023 71.86)" fill="#415167"/>
          <path id="Trazado_631335" data-name="Trazado 631335" d="M4622.2,341.522h-32.829a6.827,6.827,0,0,1-6.828-6.827h46.483A6.827,6.827,0,0,1,4622.2,341.522Z" transform="translate(-4557.34 -275.336)" fill="#415167"/>
          <path id="Rectángulo_307515" data-name="Rectángulo 307515" d="M0,0H32.832a0,0,0,0,1,0,0V0A11.344,11.344,0,0,1,21.488,11.344H11.344A11.344,11.344,0,0,1,0,0V0A0,0,0,0,1,0,0Z" transform="translate(32.029 66.187)" fill="#b3d6ff"/>
          <path id="Trazado_631336" data-name="Trazado 631336" d="M4578.867,288.671h-49.44a12.121,12.121,0,0,1-12.122-12.122h73.684A12.121,12.121,0,0,1,4578.867,288.671Z" transform="translate(-4505.702 -229.311)" fill="#83a2cf"/>
          <g id="Grupo_956854" data-name="Grupo 956854" transform="translate(11.01 114.376)">
            <path id="Trazado_631337" data-name="Trazado 631337" d="M4559.8,633.106l-32.263-32.263a7.657,7.657,0,0,0-10.828,10.829l32.263,32.263a7.657,7.657,0,0,0,10.829-10.829Z" transform="translate(-4514.462 -598.601)" fill="#83a2cf"/>
            <path id="Trazado_631338" data-name="Trazado 631338" d="M4570.729,654.868a4.283,4.283,0,1,0-6.058,0A4.284,4.284,0,0,0,4570.729,654.868Zm-31.9-31.9a4.283,4.283,0,1,0-6.058,0A4.283,4.283,0,0,0,4538.831,622.97Z" transform="translate(-4527.963 -612.102)" fill="#415167"/>
          </g>
          <g id="Grupo_956855" data-name="Grupo 956855" transform="translate(8.395 82.249)">
            <path id="Trazado_631339" data-name="Trazado 631339" d="M4549.451,461.98,4519.4,492.029a10.243,10.243,0,0,1-14.485-14.485l30.048-30.049a10.243,10.243,0,1,1,14.485,14.485Z" transform="translate(-4501.917 -444.495)" fill="#a4c2ed"/>
            <path id="Trazado_631340" data-name="Trazado 631340" d="M4555.974,468.991a5.73,5.73,0,1,0,8.1,0A5.729,5.729,0,0,0,4555.974,468.991Zm-29.561,29.561a5.73,5.73,0,1,0,8.1,0A5.729,5.729,0,0,0,4526.413,498.552Z" transform="translate(-4519.978 -462.556)" fill="#415167"/>
          </g>
          <g id="Grupo_956858" data-name="Grupo 956858" transform="translate(33.962 119.61)">
            <g id="Grupo_956856" data-name="Grupo 956856" transform="translate(0 0)">
              <rect id="Rectángulo_307516" data-name="Rectángulo 307516" width="2.958" height="22.376" transform="translate(0 2.092) rotate(-45)" fill="#83a2cf"/>
            </g>
            <g id="Grupo_956857" data-name="Grupo 956857" transform="translate(15.348 15.431)">
              <path id="Trazado_631341" data-name="Trazado 631341" d="M4699.658,718.253a1.479,1.479,0,0,0,1.479-1.479V699.209a1.479,1.479,0,0,0-2.958,0v17.565A1.479,1.479,0,0,0,4699.658,718.253Z" transform="translate(-4698.179 -697.73)" fill="#a4c2ed"/>
            </g>
            <path id="Trazado_631342" data-name="Trazado 631342" d="M4701.276,700.429a.932.932,0,1,1,0,1.318A.932.932,0,0,1,4701.276,700.429Z" transform="translate(-4685.066 -684.219)" fill="#415167"/>
            <path id="Trazado_631343" data-name="Trazado 631343" d="M4701.077,784.884a.932.932,0,1,1,0,1.318A.932.932,0,0,1,4701.077,784.884Z" transform="translate(-4684.909 -751.068)" fill="#415167"/>
          </g>
          <g id="Grupo_956859" data-name="Grupo 956859" transform="translate(0)">
            <path id="Trazado_631344" data-name="Trazado 631344" d="M4472.224,98.777a8.576,8.576,0,1,1,3.513-16.394c-.011-.253-.039-.5-.039-.758a17.133,17.133,0,0,1,28.521-12.819,23.41,23.41,0,0,1,45.017,12.862q.427-.043.865-.044a8.576,8.576,0,1,1,0,17.152Z" transform="translate(-4463.23 -51.539)" fill="#fff"/>
            <path id="Trazado_631345" data-name="Trazado 631345" d="M4548.519,97.611H4470.64a8.993,8.993,0,1,1,0-17.986,8.887,8.887,0,0,1,3.06.541c0-.041,0-.082,0-.124a17.549,17.549,0,0,1,28.727-13.549,24.031,24.031,0,0,1,8.265-11.677,23.6,23.6,0,0,1,14.418-4.86,23.827,23.827,0,0,1,23.1,29.674,8.993,8.993,0,1,1,.312,17.981ZM4470.64,80.459a8.159,8.159,0,0,0,0,16.318h77.878A8.159,8.159,0,1,0,4547.7,80.5l-.608.061.164-.588a22.992,22.992,0,0,0-44.214-12.634l-.185.632-.493-.437a16.715,16.715,0,0,0-27.827,12.507c0,.146.01.292.021.447.007.1.013.195.018.293l.029.676-.617-.278A8.089,8.089,0,0,0,4470.64,80.459Z" transform="translate(-4461.647 -49.956)" fill="#a4c2ed"/>
          </g>
          <path id="Trazado_631346" data-name="Trazado 631346" d="M4646.351,176.5a2.942,2.942,0,1,1,2.942-2.942A2.945,2.945,0,0,1,4646.351,176.5Zm4.78-7.495a1.308,1.308,0,0,1-.933-.387,5.441,5.441,0,0,0-7.695,0,1.32,1.32,0,1,1-1.866-1.866,8.08,8.08,0,0,1,11.428,0,1.319,1.319,0,0,1-.934,2.252Zm-12.466-2.905a1.319,1.319,0,0,1-.932-2.252,12.188,12.188,0,0,1,17.237,0,1.32,1.32,0,0,1-1.867,1.866,9.55,9.55,0,0,0-13.5,0A1.31,1.31,0,0,1,4638.666,166.1Zm18.277-2.905a1.312,1.312,0,0,1-.933-.386,13.658,13.658,0,0,0-19.315,0,1.32,1.32,0,0,1-1.867-1.866,16.3,16.3,0,0,1,23.047,0,1.319,1.319,0,0,1-.933,2.252Z" transform="translate(-4598.419 -134.029)" fill="#c8c8e3"/>
        </g>
      </g>
      <g id="Grupo_956865" data-name="Grupo 956865" transform="translate(-9386.983 9283.655)">
        <g id="Grupo_956862" data-name="Grupo 956862" transform="translate(66.486)">
          <rect id="Rectángulo_307517" data-name="Rectángulo 307517" width="24.586" height="24.586" transform="translate(28.047 31.645) rotate(180)" fill="#ffc71e"/>
          <path id="Trazado_631347" data-name="Trazado 631347" d="M4955.861,1017.72h-24.586l-3.469,7.059h24.586Z" transform="translate(-4911.435 -1017.72)" fill="#ffd21e"/>
          <path id="Trazado_631348" data-name="Trazado 631348" d="M4849.277,1017.72h22.245a3.76,3.76,0,0,1,3.374,2.1l2.437,4.958h-24.586Z" transform="translate(-4849.277 -1017.72)" fill="#ffc71e"/>
          <rect id="Rectángulo_307518" data-name="Rectángulo 307518" width="12.901" height="24.586" transform="translate(40.957 31.645) rotate(180)" fill="#ffdd1e"/>
        </g>
        <g id="Grupo_956863" data-name="Grupo 956863" transform="translate(0)">
          <rect id="Rectángulo_307519" data-name="Rectángulo 307519" width="24.586" height="24.586" transform="translate(28.047 31.645) rotate(180)" fill="#ffc71e"/>
          <path id="Trazado_631349" data-name="Trazado 631349" d="M4636.938,1017.72h-24.586l-3.47,7.059h24.586Z" transform="translate(-4592.512 -1017.72)" fill="#ffd21e"/>
          <path id="Trazado_631350" data-name="Trazado 631350" d="M4530.353,1017.72H4552.6a3.759,3.759,0,0,1,3.374,2.1l2.437,4.958h-24.586Z" transform="translate(-4530.353 -1017.72)" fill="#ffc71e"/>
          <rect id="Rectángulo_307520" data-name="Rectángulo 307520" width="12.901" height="24.586" transform="translate(40.957 31.645) rotate(180)" fill="#ffdd1e"/>
        </g>
        <g id="Grupo_956864" data-name="Grupo 956864" transform="translate(131.957)">
          <rect id="Rectángulo_307521" data-name="Rectángulo 307521" width="24.586" height="24.586" transform="translate(28.046 31.645) rotate(180)" fill="#ffc71e"/>
          <path id="Trazado_631351" data-name="Trazado 631351" d="M5269.916,1017.72h-24.586l-3.469,7.059h24.585Z" transform="translate(-5225.49 -1017.72)" fill="#ffd21e"/>
          <path id="Trazado_631352" data-name="Trazado 631352" d="M5163.331,1017.72h22.245a3.759,3.759,0,0,1,3.374,2.1l2.437,4.958H5166.8Z" transform="translate(-5163.331 -1017.72)" fill="#ffc71e"/>
          <rect id="Rectángulo_307522" data-name="Rectángulo 307522" width="12.901" height="24.586" transform="translate(40.957 31.645) rotate(180)" fill="#ffdd1e"/>
        </g>
      </g>
      <g id="Grupo_956880" data-name="Grupo 956880" transform="translate(-9561.759 9093.259)">
        <g id="Grupo_956869" data-name="Grupo 956869" transform="translate(37.09)">
          <g id="Grupo_956866" data-name="Grupo 956866" transform="translate(52.337 31.662)">
            <rect id="Rectángulo_307523" data-name="Rectángulo 307523" width="0.834" height="112.618" fill="#a4c2ed"/>
          </g>
          <g id="Grupo_956867" data-name="Grupo 956867" transform="translate(17.863 70.943)">
            <path id="Trazado_631353" data-name="Trazado 631353" d="M3974.435,518.06h-.833V479.276l-18.014-18.013V444.722h.834v16.2l18.013,18.013Z" transform="translate(-3955.587 -444.722)" fill="#a4c2ed"/>
          </g>
          <g id="Grupo_956868" data-name="Grupo 956868" transform="translate(68.798 70.943)">
            <path id="Trazado_631354" data-name="Trazado 631354" d="M4200.749,518.06h-.834V478.931l18.014-18.013v-16.2h.833v16.541l-18.013,18.013Z" transform="translate(-4199.915 -444.722)" fill="#a4c2ed"/>
          </g>
          <path id="Trazado_631355" data-name="Trazado 631355" d="M4044.406,441.262h18.281l9.14,15.831-9.14,15.831h-18.281l-9.14-15.831Z" transform="translate(-4000.792 -371.041)" fill="#ffdd1e"/>
          <path id="Trazado_631356" data-name="Trazado 631356" d="M4044.406,104.42h18.281l9.14,15.831-9.14,15.831h-18.281l-9.14-15.831Z" transform="translate(-4000.792 -104.42)" fill="#415167"/>
          <path id="Trazado_631357" data-name="Trazado 631357" d="M3879.039,292.841h18.28l9.14,15.831-9.14,15.831h-18.28l-9.14-15.831Z" transform="translate(-3869.899 -253.561)" fill="#ffc71e"/>
          <path id="Trazado_631358" data-name="Trazado 631358" d="M4209.775,292.841h18.279l9.141,15.831-9.141,15.831h-18.279l-9.141-15.831Z" transform="translate(-4131.686 -253.561)" fill="#ffc71e"/>
          <path id="Trazado_631359" data-name="Trazado 631359" d="M4089.027,140.83l11.374-12.118-2.785,9.417h5.558L4091.8,150.246l2.786-9.417Z" transform="translate(-4043.345 -123.648)" fill="#fff"/>
          <path id="Trazado_631360" data-name="Trazado 631360" d="M3933.586,323.652a.52.52,0,0,0-.5-.518,4.622,4.622,0,0,0-3.374-4.577v2.3a1.613,1.613,0,0,1-1.611,1.61h-.943a1.612,1.612,0,0,1-1.611-1.61v-2.3a4.622,4.622,0,0,0-3.374,4.577.52.52,0,0,0,.018,1.039h10.877A.521.521,0,0,0,3933.586,323.652Zm-4.765-2.794v-2.443a.722.722,0,0,0-.722-.722h-.943a.722.722,0,0,0-.722.722v2.443a.722.722,0,0,0,.722.722h.943A.722.722,0,0,0,3928.821,320.858Zm-8.834,15.793c0,1.294,3.42,2.343,7.641,2.343s7.641-1.049,7.641-2.343c0-.781-1.249-1.827-3.164-2.535v2.139a.429.429,0,0,1-.429.429h-8.094a.429.429,0,0,1-.429-.429v-2.139C3921.235,334.824,3919.986,335.87,3919.986,336.651Zm5.61-5.613h-.03a1.994,1.994,0,0,1-.489,2.54c-.37.072-.727.158-1.068.256v1.992h7.236v-1.992c-.341-.1-.7-.184-1.069-.256a1.994,1.994,0,0,1-.489-2.54h-.03a8.587,8.587,0,0,0,2.564-5.976h-9.19A8.59,8.59,0,0,0,3925.6,331.037Z" transform="translate(-3909.545 -273.232)" fill="#fff"/>
          <path id="Trazado_631361" data-name="Trazado 631361" d="M4247.068,336.128a8.6,8.6,0,1,0,8.6-8.6A8.6,8.6,0,0,0,4247.068,336.128Zm5.295,1.971c0-.006,2.057-2.836,2.057-2.836a1.761,1.761,0,0,1,.257-.286,1.519,1.519,0,1,1,1.983,2.3,1.465,1.465,0,0,1-.323.207s-3.1,1.625-3.1,1.625a.686.686,0,0,1-.9-.113A.672.672,0,0,1,4252.363,338.1Zm-3.625-1.971a6.931,6.931,0,1,1,13.862,0h-2a4.928,4.928,0,1,0-9.856,0Z" transform="translate(-4168.44 -281.017)" fill="#fff"/>
          <circle id="Elipse_7904" data-name="Elipse 7904" cx="2.455" cy="2.455" r="2.455" transform="translate(84.275 89.137) rotate(-76.717)" fill="#ffd21e"/>
          <circle id="Elipse_7905" data-name="Elipse 7905" cx="2.455" cy="2.455" r="2.455" transform="translate(49.801 53.245) rotate(-76.718)" fill="#ffd21e"/>
          <circle id="Elipse_7906" data-name="Elipse 7906" cx="2.455" cy="2.455" r="2.455" transform="translate(14.808 87.311) rotate(-45)" fill="#ffd21e"/>
          <path id="Trazado_631362" data-name="Trazado 631362" d="M4086.934,472.013H4079.1a1.333,1.333,0,0,0-1.331,1.331v7.837a1.332,1.332,0,0,0,1.331,1.331h7.836a1.333,1.333,0,0,0,1.331-1.331v-7.837A1.333,1.333,0,0,0,4086.934,472.013Zm6.147,3.83a.453.453,0,1,0,0-.906h-3v-.967h3a.453.453,0,1,0,0-.906h-3.018a3.142,3.142,0,0,0-2.849-2.849V467.2a.453.453,0,1,0-.906,0v3h-.966v-3a.453.453,0,1,0-.906,0v3h-.967v-3a.453.453,0,1,0-.906,0v3h-.966v-3a.453.453,0,1,0-.906,0v3h-.967v-3a.453.453,0,1,0-.906,0v3.018a3.142,3.142,0,0,0-2.849,2.849h-3.018a.453.453,0,0,0,0,.906h3v.967h-3a.453.453,0,0,0,0,.906h3v.967h-3a.453.453,0,0,0,0,.906h3v.967h-3a.453.453,0,0,0,0,.906h3v.967h-3a.453.453,0,0,0,0,.906h3.018a3.142,3.142,0,0,0,2.849,2.849v3.018a.453.453,0,1,0,.906,0v-3h.967v3a.453.453,0,1,0,.906,0v-3h.966v3a.453.453,0,1,0,.906,0v-3h.967v3a.453.453,0,1,0,.906,0v-3h.966v3a.453.453,0,1,0,.906,0v-3.018a3.142,3.142,0,0,0,2.849-2.849h3.018a.453.453,0,1,0,0-.906h-3v-.967h3a.453.453,0,1,0,0-.906h-3v-.967h3a.453.453,0,1,0,0-.906h-3v-.967Zm-3.91,5.338a2.24,2.24,0,0,1-2.237,2.238H4079.1a2.24,2.24,0,0,1-2.238-2.238v-7.837a2.24,2.24,0,0,1,2.238-2.237h7.836a2.24,2.24,0,0,1,2.237,2.237Z" transform="translate(-4030.261 -391.21)" fill="#fff"/>
        </g>
        <rect id="Rectángulo_307524" data-name="Rectángulo 307524" width="59.896" height="124.63" transform="translate(59.896 144.281)" fill="#a4c2ed"/>
        <rect id="Rectángulo_307525" data-name="Rectángulo 307525" width="41.743" height="14.02" transform="translate(68.973 254.891)" fill="#617899"/>
        <rect id="Rectángulo_307526" data-name="Rectángulo 307526" width="40.06" height="34.867" transform="translate(69.815 177.146)" fill="#415167"/>
        <g id="Grupo_956870" data-name="Grupo 956870" transform="translate(69.398 226.464)">
          <path id="Trazado_631363" data-name="Trazado 631363" d="M4065.769,1206.394h-40.894v-15.66h40.894Zm-40.06-.834h39.226v-13.992h-39.226Z" transform="translate(-4024.875 -1190.734)" fill="#617899"/>
        </g>
        <rect id="Rectángulo_307527" data-name="Rectángulo 307527" width="59.896" height="124.63" transform="translate(0 144.281)" fill="#83a2cf"/>
        <path id="Trazado_631364" data-name="Trazado 631364" d="M3739.56,827.252v2.5h40.059v-2.5Zm0,6.994h24.122v-2.5H3739.56Z" transform="translate(-3729.642 -676.563)" fill="#a4c2ed"/>
        <path id="Trazado_631365" data-name="Trazado 631365" d="M4026.874,827.252v2.5h40.06v-2.5Zm0,6.994H4051v-2.5h-24.122Z" transform="translate(-3957.059 -676.563)" fill="#fff"/>
        <rect id="Rectángulo_307528" data-name="Rectángulo 307528" width="59.896" height="124.63" transform="translate(119.793 144.281)" fill="#83a2cf"/>
        <path id="Trazado_631366" data-name="Trazado 631366" d="M4314.188,827.252v2.5h40.06v-2.5Zm0,6.994h24.123v-2.5h-24.123Z" transform="translate(-4184.478 -676.563)" fill="#617899"/>
        <g id="Grupo_956871" data-name="Grupo 956871" transform="translate(128.048 226.464)">
          <path id="Trazado_631367" data-name="Trazado 631367" d="M4349.6,1233.182h-.833v-41.613h-41.718v41.613h-.834v-42.447H4349.6Z" transform="translate(-4306.211 -1190.734)" fill="#a4c2ed"/>
        </g>
        <g id="Grupo_956872" data-name="Grupo 956872" transform="translate(128.048 177.251)">
          <path id="Trazado_631368" data-name="Trazado 631368" d="M4349.6,997.533h-43.386V954.669H4349.6Zm-42.552-.834h41.719V955.5h-41.719Z" transform="translate(-4306.212 -954.669)" fill="#617899"/>
        </g>
        <g id="Grupo_956873" data-name="Grupo 956873" transform="translate(8.255 226.464)">
          <path id="Trazado_631369" data-name="Trazado 631369" d="M3774.968,1233.182h-.833v-41.613h-41.718v41.613h-.834v-42.447h43.386Z" transform="translate(-3731.582 -1190.734)" fill="#a4c2ed"/>
        </g>
        <g id="Grupo_956874" data-name="Grupo 956874" transform="translate(0 171.281)">
          <rect id="Rectángulo_307529" data-name="Rectángulo 307529" width="59.896" height="0.834" fill="#617899"/>
        </g>
        <g id="Grupo_956875" data-name="Grupo 956875" transform="translate(59.896 171.281)">
          <rect id="Rectángulo_307530" data-name="Rectángulo 307530" width="59.896" height="0.834" fill="#617899"/>
        </g>
        <g id="Grupo_956876" data-name="Grupo 956876" transform="translate(119.793 171.281)">
          <rect id="Rectángulo_307531" data-name="Rectángulo 307531" width="59.896" height="0.834" fill="#617899"/>
        </g>
        <rect id="Rectángulo_307532" data-name="Rectángulo 307532" width="42.552" height="12.392" transform="translate(38.832 219.698) rotate(-90)" fill="#a4c2ed"/>
        <rect id="Rectángulo_307533" data-name="Rectángulo 307533" width="42.552" height="12.392" transform="translate(8.672 219.698) rotate(-90)" fill="#617899"/>
        <g id="Grupo_956877" data-name="Grupo 956877" transform="translate(12.718 184.428)">
          <rect id="Rectángulo_307534" data-name="Rectángulo 307534" width="1.622" height="1.622" transform="translate(4.301 16.779) rotate(90)" fill="#ff9100"/>
          <rect id="Rectángulo_307535" data-name="Rectángulo 307535" width="1.622" height="1.622" transform="translate(4.301 14.382) rotate(90)" fill="#ff9100"/>
          <rect id="Rectángulo_307536" data-name="Rectángulo 307536" width="1.622" height="1.622" transform="translate(4.301 11.985) rotate(90)" fill="#4291ff"/>
          <rect id="Rectángulo_307537" data-name="Rectángulo 307537" width="1.622" height="1.622" transform="translate(4.301 9.588) rotate(90)" fill="#a2c8ff"/>
          <rect id="Rectángulo_307538" data-name="Rectángulo 307538" width="1.622" height="1.622" transform="translate(4.301 7.191) rotate(90)" fill="#a2c8ff"/>
          <rect id="Rectángulo_307539" data-name="Rectángulo 307539" width="1.622" height="1.622" transform="translate(4.301 4.794) rotate(90)" fill="#a2c8ff"/>
          <rect id="Rectángulo_307540" data-name="Rectángulo 307540" width="1.622" height="1.622" transform="translate(4.301 2.397) rotate(90)" fill="#ff9100"/>
          <rect id="Rectángulo_307541" data-name="Rectángulo 307541" width="1.622" height="1.622" transform="translate(4.301 0) rotate(90)" fill="#a2c8ff"/>
          <rect id="Rectángulo_307542" data-name="Rectángulo 307542" width="1.622" height="1.622" transform="translate(1.622 16.779) rotate(90)" fill="#4291ff"/>
          <rect id="Rectángulo_307543" data-name="Rectángulo 307543" width="1.622" height="1.622" transform="translate(1.622 14.382) rotate(90)" fill="#a2c8ff"/>
          <rect id="Rectángulo_307544" data-name="Rectángulo 307544" width="1.622" height="1.622" transform="translate(1.622 11.985) rotate(90)" fill="#a2c8ff"/>
          <rect id="Rectángulo_307545" data-name="Rectángulo 307545" width="1.622" height="1.622" transform="translate(1.622 9.588) rotate(90)" fill="#a2c8ff"/>
          <rect id="Rectángulo_307546" data-name="Rectángulo 307546" width="1.622" height="1.622" transform="translate(1.622 7.191) rotate(90)" fill="#ff9100"/>
          <rect id="Rectángulo_307547" data-name="Rectángulo 307547" width="1.622" height="1.622" transform="translate(4.301 26.368) rotate(90)" fill="#ff9100"/>
          <rect id="Rectángulo_307548" data-name="Rectángulo 307548" width="1.622" height="1.622" transform="translate(4.301 23.971) rotate(90)" fill="#ff9100"/>
          <rect id="Rectángulo_307549" data-name="Rectángulo 307549" width="1.622" height="1.622" transform="translate(4.301 21.574) rotate(90)" fill="#4291ff"/>
          <rect id="Rectángulo_307550" data-name="Rectángulo 307550" width="1.622" height="1.622" transform="translate(4.301 19.176) rotate(90)" fill="#a2c8ff"/>
          <rect id="Rectángulo_307551" data-name="Rectángulo 307551" width="1.622" height="1.622" transform="translate(1.622 26.368) rotate(90)" fill="#a2c8ff"/>
          <rect id="Rectángulo_307552" data-name="Rectángulo 307552" width="1.622" height="1.622" transform="translate(1.622 23.971) rotate(90)" fill="#a2c8ff"/>
          <rect id="Rectángulo_307553" data-name="Rectángulo 307553" width="1.622" height="1.622" transform="translate(1.622 21.574) rotate(90)" fill="#4291ff"/>
          <rect id="Rectángulo_307554" data-name="Rectángulo 307554" width="1.622" height="1.622" transform="translate(1.622 19.176) rotate(90)" fill="#4291ff"/>
          <rect id="Rectángulo_307555" data-name="Rectángulo 307555" width="1.622" height="1.622" transform="translate(1.622 4.794) rotate(90)" fill="#4291ff"/>
          <rect id="Rectángulo_307556" data-name="Rectángulo 307556" width="1.622" height="1.622" transform="translate(1.622 2.397) rotate(90)" fill="#4291ff"/>
          <rect id="Rectángulo_307557" data-name="Rectángulo 307557" width="1.622" height="1.622" transform="translate(1.622 0) rotate(90)" fill="#a2c8ff"/>
        </g>
        <rect id="Rectángulo_307558" data-name="Rectángulo 307558" width="42.552" height="12.392" transform="translate(23.752 219.698) rotate(-90)" fill="#ffdd1e"/>
        <g id="Grupo_956878" data-name="Grupo 956878" transform="translate(27.798 184.428)">
          <rect id="Rectángulo_307559" data-name="Rectángulo 307559" width="1.622" height="1.622" transform="translate(2.679 11.21) rotate(-90)" fill="#ff9100"/>
          <rect id="Rectángulo_307560" data-name="Rectángulo 307560" width="1.622" height="1.622" transform="translate(2.679 13.607) rotate(-90)" fill="#ff9100"/>
          <rect id="Rectángulo_307561" data-name="Rectángulo 307561" width="1.622" height="1.622" transform="translate(2.679 16.004) rotate(-90)" fill="#4291ff"/>
          <rect id="Rectángulo_307562" data-name="Rectángulo 307562" width="1.622" height="1.622" transform="translate(2.679 18.401) rotate(-90)" fill="#a2c8ff"/>
          <rect id="Rectángulo_307563" data-name="Rectángulo 307563" width="1.622" height="1.622" transform="translate(2.679 20.798) rotate(-90)" fill="#a2c8ff"/>
          <rect id="Rectángulo_307564" data-name="Rectángulo 307564" width="1.622" height="1.622" transform="translate(2.679 23.195) rotate(-90)" fill="#a2c8ff"/>
          <rect id="Rectángulo_307565" data-name="Rectángulo 307565" width="1.622" height="1.622" transform="translate(2.679 25.592) rotate(-90)" fill="#ff9100"/>
          <rect id="Rectángulo_307566" data-name="Rectángulo 307566" width="1.622" height="1.622" transform="translate(2.679 27.989) rotate(-90)" fill="#a2c8ff"/>
          <rect id="Rectángulo_307567" data-name="Rectángulo 307567" width="1.622" height="1.622" transform="translate(0 11.21) rotate(-90)" fill="#4291ff"/>
          <rect id="Rectángulo_307568" data-name="Rectángulo 307568" width="1.622" height="1.622" transform="translate(0 13.607) rotate(-90)" fill="#a2c8ff"/>
          <rect id="Rectángulo_307569" data-name="Rectángulo 307569" width="1.622" height="1.622" transform="translate(0 16.004) rotate(-90)" fill="#a2c8ff"/>
          <rect id="Rectángulo_307570" data-name="Rectángulo 307570" width="1.622" height="1.622" transform="translate(0 18.401) rotate(-90)" fill="#a2c8ff"/>
          <rect id="Rectángulo_307571" data-name="Rectángulo 307571" width="1.622" height="1.622" transform="translate(0 20.798) rotate(-90)" fill="#ff9100"/>
          <rect id="Rectángulo_307572" data-name="Rectángulo 307572" width="1.622" height="1.622" transform="translate(2.679 1.622) rotate(-90)" fill="#ff9100"/>
          <rect id="Rectángulo_307573" data-name="Rectángulo 307573" width="1.622" height="1.622" transform="translate(2.679 4.019) rotate(-90)" fill="#ff9100"/>
          <rect id="Rectángulo_307574" data-name="Rectángulo 307574" width="1.622" height="1.622" transform="translate(2.679 6.416) rotate(-90)" fill="#4291ff"/>
          <rect id="Rectángulo_307575" data-name="Rectángulo 307575" width="1.622" height="1.622" transform="translate(2.679 8.813) rotate(-90)" fill="#a2c8ff"/>
          <rect id="Rectángulo_307576" data-name="Rectángulo 307576" width="1.622" height="1.622" transform="translate(0 1.622) rotate(-90)" fill="#a2c8ff"/>
          <rect id="Rectángulo_307577" data-name="Rectángulo 307577" width="1.622" height="1.622" transform="translate(0 4.019) rotate(-90)" fill="#a2c8ff"/>
          <rect id="Rectángulo_307578" data-name="Rectángulo 307578" width="1.622" height="1.622" transform="translate(0 6.416) rotate(-90)" fill="#4291ff"/>
          <rect id="Rectángulo_307579" data-name="Rectángulo 307579" width="1.622" height="1.622" transform="translate(0 8.813) rotate(-90)" fill="#4291ff"/>
          <rect id="Rectángulo_307580" data-name="Rectángulo 307580" width="1.622" height="1.622" transform="translate(0 23.195) rotate(-90)" fill="#4291ff"/>
          <rect id="Rectángulo_307581" data-name="Rectángulo 307581" width="1.622" height="1.622" transform="translate(0 25.592) rotate(-90)" fill="#4291ff"/>
          <rect id="Rectángulo_307582" data-name="Rectángulo 307582" width="1.622" height="1.622" transform="translate(0 27.989) rotate(-90)" fill="#a2c8ff"/>
        </g>
        <g id="Grupo_956879" data-name="Grupo 956879" transform="translate(42.878 184.428)">
          <rect id="Rectángulo_307583" data-name="Rectángulo 307583" width="1.622" height="1.622" transform="translate(0 11.21) rotate(-90)" fill="#ff9100"/>
          <rect id="Rectángulo_307584" data-name="Rectángulo 307584" width="1.622" height="1.622" transform="translate(0 13.607) rotate(-90)" fill="#ff9100"/>
          <rect id="Rectángulo_307585" data-name="Rectángulo 307585" width="1.622" height="1.622" transform="translate(0 16.004) rotate(-90)" fill="#4291ff"/>
          <rect id="Rectángulo_307586" data-name="Rectángulo 307586" width="1.622" height="1.622" transform="translate(0 18.401) rotate(-90)" fill="#617899"/>
          <rect id="Rectángulo_307587" data-name="Rectángulo 307587" width="1.622" height="1.622" transform="translate(0 20.798) rotate(-90)" fill="#617899"/>
          <rect id="Rectángulo_307588" data-name="Rectángulo 307588" width="1.622" height="1.622" transform="translate(0 23.195) rotate(-90)" fill="#617899"/>
          <rect id="Rectángulo_307589" data-name="Rectángulo 307589" width="1.622" height="1.622" transform="translate(0 25.592) rotate(-90)" fill="#ff9100"/>
          <rect id="Rectángulo_307590" data-name="Rectángulo 307590" width="1.622" height="1.622" transform="translate(0 27.989) rotate(-90)" fill="#617899"/>
          <rect id="Rectángulo_307591" data-name="Rectángulo 307591" width="1.622" height="1.622" transform="translate(2.679 11.21) rotate(-90)" fill="#4291ff"/>
          <rect id="Rectángulo_307592" data-name="Rectángulo 307592" width="1.622" height="1.622" transform="translate(2.679 13.607) rotate(-90)" fill="#617899"/>
          <rect id="Rectángulo_307593" data-name="Rectángulo 307593" width="1.622" height="1.622" transform="translate(2.679 16.004) rotate(-90)" fill="#617899"/>
          <rect id="Rectángulo_307594" data-name="Rectángulo 307594" width="1.622" height="1.622" transform="translate(2.679 18.401) rotate(-90)" fill="#617899"/>
          <rect id="Rectángulo_307595" data-name="Rectángulo 307595" width="1.622" height="1.622" transform="translate(2.679 20.798) rotate(-90)" fill="#ff9100"/>
          <rect id="Rectángulo_307596" data-name="Rectángulo 307596" width="1.622" height="1.622" transform="translate(0 1.622) rotate(-90)" fill="#ff9100"/>
          <rect id="Rectángulo_307597" data-name="Rectángulo 307597" width="1.622" height="1.622" transform="translate(0 4.019) rotate(-90)" fill="#ff9100"/>
          <rect id="Rectángulo_307598" data-name="Rectángulo 307598" width="1.622" height="1.622" transform="translate(0 6.416) rotate(-90)" fill="#4291ff"/>
          <rect id="Rectángulo_307599" data-name="Rectángulo 307599" width="1.622" height="1.622" transform="translate(0 8.813) rotate(-90)" fill="#617899"/>
          <rect id="Rectángulo_307600" data-name="Rectángulo 307600" width="1.622" height="1.622" transform="translate(2.679 1.622) rotate(-90)" fill="#617899"/>
          <rect id="Rectángulo_307601" data-name="Rectángulo 307601" width="1.622" height="1.622" transform="translate(2.679 4.019) rotate(-90)" fill="#617899"/>
          <rect id="Rectángulo_307602" data-name="Rectángulo 307602" width="1.622" height="1.622" transform="translate(2.679 6.416) rotate(-90)" fill="#4291ff"/>
          <rect id="Rectángulo_307603" data-name="Rectángulo 307603" width="1.622" height="1.622" transform="translate(2.679 8.813) rotate(-90)" fill="#4291ff"/>
          <rect id="Rectángulo_307604" data-name="Rectángulo 307604" width="1.622" height="1.622" transform="translate(2.679 23.195) rotate(-90)" fill="#4291ff"/>
          <rect id="Rectángulo_307605" data-name="Rectángulo 307605" width="1.622" height="1.622" transform="translate(2.679 25.592) rotate(-90)" fill="#4291ff"/>
          <rect id="Rectángulo_307606" data-name="Rectángulo 307606" width="1.622" height="1.622" transform="translate(2.679 27.989) rotate(-90)" fill="#617899"/>
        </g>
        <path id="Trazado_631370" data-name="Trazado 631370" d="M3948.146,671.864h-10.424a5.706,5.706,0,0,0-5.7-5.7h-35.228a13.581,13.581,0,0,1-13.565-13.565,3.145,3.145,0,0,0-3.142-3.142h-45.642a9.449,9.449,0,0,0-9.438,9.439v12.968h-10.424V658.9a19.885,19.885,0,0,1,19.862-19.862h45.642a13.581,13.581,0,0,1,13.566,13.565,3.145,3.145,0,0,0,3.142,3.142h35.228A16.142,16.142,0,0,1,3948.146,671.864Z" transform="translate(-3789.024 -527.583)" fill="#a4c2ed"/>
        <path id="Trazado_631371" data-name="Trazado 631371" d="M3814.583,671.864h10.424v-1.042h-10.424Zm37.629-22.407h2.108V639.034h-2.108Zm21.085,0h2.108V639.034H3873.3Zm-25.3,0h2.109V639.034h-2.109Zm-8.434,0h2.108V639.034h-2.108Zm4.217,0h2.108V639.034h-2.108Zm25.3,0h2.108V639.034h-2.108Zm-4.217,0h2.109V639.034h-2.109Zm-8.434,0h2.109V639.034h-2.109Zm4.217,0h2.109V639.034h-2.109Zm-43.807.239,9.235,4.833a9.572,9.572,0,0,1,.715-1.154l-8.447-6.107A19.935,19.935,0,0,0,3816.839,649.7Zm-2.256,9.2v1.383h10.424V658.9c0-.157,0-.316.011-.471l-10.411-.507C3814.592,658.241,3814.583,658.571,3814.583,658.9Zm0,5.6h10.424v-2.108h-10.424Zm.367-9.412,10.231,1.992a9.371,9.371,0,0,1,.354-1.305l-9.836-3.449A19.827,19.827,0,0,0,3814.95,655.085Zm-.367,13.628h10.424V666.6h-10.424Zm10.09-27.112,5.134,9.072a9.4,9.4,0,0,1,1.222-.58l-3.775-9.716A19.923,19.923,0,0,0,3824.673,641.6Zm5.316-2.064,2.331,10.16a9.474,9.474,0,0,1,1.342-.207l-.85-10.389A19.927,19.927,0,0,0,3829.99,639.537Zm-9.816,5.545,7.489,7.25a9.547,9.547,0,0,1,1.014-.908l-6.38-8.243A20.056,20.056,0,0,0,3820.174,645.082Zm15.169,4.375h2.109V639.034h-2.109Zm55.894,15.518a13.518,13.518,0,0,0,3.273,1l1.748-10.276a3.092,3.092,0,0,1-.749-.228Zm27.334,1.189h2.109V655.741h-2.109Zm-8.434,0h2.108V655.741h-2.108Zm4.217,0h2.109V655.741h-2.109Zm12.651,0h2.109V655.741h-2.109Zm-4.217,0h2.109V655.741h-2.109Zm19.617-6.636-6.714,7.973a5.774,5.774,0,0,1,.774.79l8.112-6.546A16.2,16.2,0,0,0,3942.4,659.528Zm3.882,4.814-9.218,4.867a5.587,5.587,0,0,1,.415,1.011l9.984-2.995A16.1,16.1,0,0,0,3946.287,664.342Zm-9.3-7.821-3.208,9.917a5.66,5.66,0,0,1,1,.436l5.063-9.111A16.112,16.112,0,0,0,3936.988,656.521Zm-4.965-.781h-.8v10.424h.8a5.881,5.881,0,0,1,.688.04l1.234-10.35A16.32,16.32,0,0,0,3932.023,655.741Zm-43.181-13.5-6.728,7.961a3.175,3.175,0,0,1,.539.587l8.5-6.039A13.613,13.613,0,0,0,3888.842,642.237Zm4.842,10.806-10.323,1.438a13.526,13.526,0,0,0,.9,3.3l9.631-3.986A3.092,3.092,0,0,1,3893.683,653.043Zm-.922-5.287-9.736,3.722a3.12,3.12,0,0,1,.185.762l10.358-1.16A13.484,13.484,0,0,0,3892.761,647.756Zm-15.248,1.7h2.108V639.034h-2.108Zm5.219-10.165-2.025,10.225a3.078,3.078,0,0,1,.741.248l4.532-9.387A13.531,13.531,0,0,0,3882.732,639.293Zm14.754,26.872h2.108V655.741h-2.108Zm-3.206-11.681-8.329,6.267a13.608,13.608,0,0,0,2.374,2.445l6.51-8.14A3.185,3.185,0,0,1,3894.281,654.484Zm7.423,11.681h2.108V655.741H3901.7Zm4.217,0h2.108V655.741h-2.108Zm42.154,4.168-10.377.98c.017.183.026.368.026.552h10.424C3948.146,671.355,3948.122,670.839,3948.074,670.332Z" transform="translate(-3789.024 -527.583)" fill="#83a2cf"/>
        <path id="Trazado_631372" data-name="Trazado 631372" d="M3805.658,777.615h7.683a3.94,3.94,0,0,1,3.941,3.94h-15.563A3.94,3.94,0,0,1,3805.658,777.615Z" transform="translate(-3778.842 -637.274)" fill="#a4c2ed"/>
        <path id="Trazado_631373" data-name="Trazado 631373" d="M4404.56,777.615h-7.682a3.941,3.941,0,0,0-3.941,3.94H4408.5A3.941,3.941,0,0,0,4404.56,777.615Z" transform="translate(-4246.809 -637.274)" fill="#a4c2ed"/>
        <circle id="Elipse_7907" data-name="Elipse 7907" cx="6.041" cy="6.041" r="6.041" transform="matrix(0.233, -0.973, 0.973, 0.233, 82.564, 238.764)" fill="#83a2cf"/>
        <path id="Trazado_631374" data-name="Trazado 631374" d="M4350.015,978.98v6.754h4.233V978.98ZM4314.188,967.5h4.929v-4.929h-4.929Zm0,34.64h4.929v-4.929h-4.929Z" transform="translate(-4184.478 -783.674)" fill="#a4c2ed"/>
        <path id="Trazado_631375" data-name="Trazado 631375" d="M4061.046,1001.694h5.107V986.668h-5.107Zm6.9,0h5.107v-9.633h-5.107Zm6.9,0h5.107V981.275h-5.107Zm6.9-25.812v25.812h5.107V975.882Z" transform="translate(-3984.107 -794.209)" fill="#fff"/>
      </g>
      <g id="Grupo_956984" data-name="Grupo 956984" transform="translate(-9628.741 9261.196)">
        <g id="Grupo_956913" data-name="Grupo 956913" transform="translate(0 3.604)">
          <path id="Trazado_631402" data-name="Trazado 631402" d="M3455.283,1131.339h11.877c1.085,5.87-1.195,15.577-1.195,24.26.281,8.989.911,16.82-1.559,27.341h-4Z" transform="translate(-3437.645 -1088.798)" fill="#214178"/>
          <path id="Trazado_631403" data-name="Trazado 631403" d="M3469.407,1378.86h-2.538l-2.321,1.8-2.157.364.139,1.068h7.3Z" transform="translate(-3443.272 -1284.718)" fill="#130f40"/>
          <path id="Trazado_631404" data-name="Trazado 631404" d="M3440.711,1368.385l-2.38.88-1.553,2.49-1.9,1.089.5.954,6.843-2.529Z" transform="translate(-3421.496 -1276.426)" fill="#130f40"/>
          <path id="Trazado_631405" data-name="Trazado 631405" d="M3417.8,1092.081h11.233s3.423,4.943,3.423,8.184c0,7.6-9.971,16.747-12.527,23.812a96.839,96.839,0,0,1,3.118,25.833l-4.093.966-7.583-26.562S3416.57,1094.744,3417.8,1092.081Z" transform="translate(-3402.884 -1057.724)" fill="#214178"/>
          <path id="Trazado_631406" data-name="Trazado 631406" d="M3462.4,968.7l.531,4.226,2.724-.688-.023-4.74Z" transform="translate(-3443.274 -959.113)" fill="#b3680a"/>
          <path id="Trazado_631407" data-name="Trazado 631407" d="M3431.263,1020.851c-.005-4.408,2.166-26.9,4.625-29.661,2.191-2.459,4.561-2.948,9.746-1.366a4.61,4.61,0,0,1,3.225,4.136c.539,8.619,2.184,26.879,2.184,26.879Z" transform="translate(-3418.633 -976.062)" fill="#f7941d"/>
          <path id="Trazado_631408" data-name="Trazado 631408" d="M3411.79,1082.4l-10.767,10.038.567,2.394c3.456-1.284,11.552-5.619,13.734-9.982Z" transform="translate(-3394.697 -1050.059)" fill="#b3680a"/>
          <path id="Trazado_631409" data-name="Trazado 631409" d="M3446.346,1021.528c.661,1.125,3.406,3.432,4.851,1.221,1.812-3.253,3.606-10.593,4.432-15.025a3.2,3.2,0,1,0-6.3-1.086Z" transform="translate(-3430.572 -987.96)" fill="#214178"/>
          <g id="Grupo_956911" data-name="Grupo 956911" transform="translate(14.296 1.179)">
            <path id="Trazado_631410" data-name="Trazado 631410" d="M3445.336,945.239c.206.827,1.215,1.338,2.59.33l2.036-2.257.212-3.833-2.192-2.611-4.489,1.526Z" transform="translate(-3442.61 -936.047)" fill="#b3680a"/>
            <path id="Trazado_631411" data-name="Trazado 631411" d="M3443.957,936.637l-2.067.012a3.038,3.038,0,0,1-2.515-1.31.688.688,0,0,1,.515-1.078l4.4-1.2c1.954-.556,3.154.68,3.15,3.017Z" transform="translate(-3439.252 -932.927)" fill="#37384f"/>
            <path id="Trazado_631412" data-name="Trazado 631412" d="M3461,948.033c.276,2.789,2.643,3.723,4.7,4.365l2.41.674a2.262,2.262,0,0,1,1.653,2.154c.013,1.17-.724,3.059-3.412,3.793-3.4.929-7.459-1.211-9.971-10.419Z" transform="translate(-3452.806 -944.884)" fill="#37384f"/>
          </g>
          <g id="Grupo_956912" data-name="Grupo 956912" transform="translate(13.278)">
            <path id="Trazado_631413" data-name="Trazado 631413" d="M3447.676,931.41a4.217,4.217,0,0,0-4.3-4.136c-3.237.061-5.364,1.989-5.32,4.318Z" transform="translate(-3437.291 -927.273)" fill="#e37c00"/>
            <path id="Trazado_631414" data-name="Trazado 631414" d="M3442.842,934.856c.286-1.873-.267-3.377-1.236-3.359-1.346.025-2.477,1.561-2.763,3.434Z" transform="translate(-3437.911 -930.617)" fill="#f7941d"/>
            <path id="Trazado_631415" data-name="Trazado 631415" d="M3434.8,948.155l9.941-.187a.425.425,0,1,0-.016-.849l-9.942.188a.424.424,0,0,0,.016.849Z" transform="translate(-3434.372 -942.982)" fill="#e37c00"/>
          </g>
          <path id="Trazado_631416" data-name="Trazado 631416" d="M3377.57,1131.6H3374.5l-1.849-1.32-1.639,1.009-.336-.349,2.144-2.089,1.093.52,3.089-.164,1.618,1.019Z" transform="translate(-3370.677 -1086.824)" fill="#b3680a"/>
        </g>
        <g id="Grupo_956961" data-name="Grupo 956961" transform="translate(229.361 0)">
          <g id="Grupo_956956" data-name="Grupo 956956" transform="translate(43.184 3.28)">
            <path id="Trazado_631450" data-name="Trazado 631450" d="M4812.331,1063.75l-7.637,13.431.888,1.166c3.021-2.112,9.534-8.593,10.549-13.364Z" transform="translate(-4778.29 -1034.975)" fill="#f4acc8"/>
            <path id="Trazado_631451" data-name="Trazado 631451" d="M4801.384,1014.282c1.769,2.049,4.689.456,4.208-1.245-2.164-4.1-5.983-10.768-10.013-14l-4.173,4.173Z" transform="translate(-4767.771 -983.751)" fill="#214178"/>
            <path id="Trazado_631452" data-name="Trazado 631452" d="M4751.768,1131.339h11.876c1.084,5.87-1.2,15.577-1.2,24.26.282,8.989.911,16.82-1.559,27.341h-4Z" transform="translate(-4736.397 -1088.474)" fill="#214178"/>
            <path id="Trazado_631453" data-name="Trazado 631453" d="M4765.892,1378.86h-2.538l-2.321,1.8-2.156.364.138,1.068h7.3Z" transform="translate(-4742.024 -1284.394)" fill="#130f40"/>
            <path id="Trazado_631454" data-name="Trazado 631454" d="M4704.773,1378.86h-2.538l-2.32,1.8-2.157.364.138,1.068h7.3Z" transform="translate(-4693.648 -1284.394)" fill="#130f40"/>
            <path id="Trazado_631455" data-name="Trazado 631455" d="M4715.072,1092.081H4726.3s3.424,4.943,3.424,8.184c0,7.759-10.618,17.136-12.89,24.26a97.381,97.381,0,0,1-2.659,27.341h-4.206l-1.122-27.343S4713.847,1094.744,4715.072,1092.081Z" transform="translate(-4702.428 -1057.4)" fill="#214178"/>
            <path id="Trazado_631456" data-name="Trazado 631456" d="M4758.88,968.7l.431,3.43,2.824.108-.022-4.74Z" transform="translate(-4742.027 -958.789)" fill="#f4acc8"/>
            <path id="Trazado_631457" data-name="Trazado 631457" d="M4727.328,1020.851c0-4.408-.752-26.9,1.708-29.661,2.628-2.951,9.718-3.065,15.737-.168.207,6.185,2.336,29.817,2.336,29.817Z" transform="translate(-4716.965 -975.738)" fill="#214178"/>
            <path id="Trazado_631458" data-name="Trazado 631458" d="M4708.275,1082.4l-10.767,10.038.567,2.394c3.456-1.284,11.548-6.624,13.729-10.987Z" transform="translate(-4693.449 -1049.736)" fill="#f4acc8"/>
            <path id="Trazado_631459" data-name="Trazado 631459" d="M4682.1,1130.55l-1.486.648-2.21-.407-.212.387,1.313.684-1.463,2.659.329.182,1.21-.754,1.9.3,1.187-1.306Z" transform="translate(-4678.038 -1087.849)" fill="#f4acc8"/>
            <path id="Trazado_631460" data-name="Trazado 631460" d="M4740.383,1019c.911.934,3.263,1.976,4.136-.517.98-3.593.965-11.148.706-15.649a3.2,3.2,0,1,0-6.374.453Z" transform="translate(-4726.164 -984.372)" fill="#214178"/>
            <g id="Grupo_956954" data-name="Grupo 956954" transform="translate(15.046 1.172)">
              <path id="Trazado_631461" data-name="Trazado 631461" d="M4750.294,943.5c-.1.846.656,1.685,2.3,1.235l2.708-1.379,1.57-3.5-1.114-3.222-4.737-.181Z" transform="translate(-4750.27 -935.386)" fill="#f4acc8"/>
              <path id="Trazado_631462" data-name="Trazado 631462" d="M4754.044,935.046l-1.935-.729a3.038,3.038,0,0,1-1.879-2.124.688.688,0,0,1,.866-.822l4.541.454c2.023.18,2.7,1.764,1.861,3.944Z" transform="translate(-4750.21 -931.341)" fill="#37384f"/>
              <path id="Trazado_631463" data-name="Trazado 631463" d="M4767.352,948.314c-.741,2.7,1.137,4.422,2.827,5.758l2.009,1.492a2.263,2.263,0,0,1,.773,2.6c-.407,1.1-1.771,2.6-4.543,2.32-3.511-.351-6.532-3.8-5.583-13.3Z" transform="translate(-4760.063 -943.886)" fill="#37384f"/>
            </g>
            <g id="Grupo_956955" data-name="Grupo 956955" transform="translate(13.558)">
              <path id="Trazado_631464" data-name="Trazado 631464" d="M4756.438,931.564a4.216,4.216,0,0,0-2.53-5.4c-3.045-1.1-5.721-.062-6.513,2.128Z" transform="translate(-4746.495 -925.721)" fill="#e37c00"/>
              <path id="Trazado_631465" data-name="Trazado 631465" d="M4751.891,930.844c.937-1.647.958-3.249.047-3.579-1.267-.458-2.872.571-3.809,2.218Z" transform="translate(-4747.075 -926.857)" fill="#f7941d"/>
              <path id="Trazado_631466" data-name="Trazado 631466" d="M4743.354,938.181l9.35,3.382a.425.425,0,1,0,.289-.8l-9.35-3.382a.425.425,0,1,0-.289.8Z" transform="translate(-4743.073 -934.932)" fill="#e37c00"/>
            </g>
          </g>
          <g id="Grupo_956960" data-name="Grupo 956960">
            <path id="Trazado_631467" data-name="Trazado 631467" d="M4525.835,1122.046l12.361.006,4.524,25.443,3.851,28.01h-4.526a112.334,112.334,0,0,1-7.6-27.7C4531.469,1140.077,4527.021,1130.037,4525.835,1122.046Z" transform="translate(-4514.381 -1077.838)" fill="#214178"/>
            <g id="Grupo_956957" data-name="Grupo 956957" transform="translate(19.192 16.562)">
              <path id="Trazado_631468" data-name="Trazado 631468" d="M4685.775,1064.586l2.738-.037,1.613.792.087-.529a1.589,1.589,0,0,0-.694-1.584l-.84-.553,1.955-.243.239-.363-3.032.053-2.1,1.033Z" transform="translate(-4660.144 -1046.927)" fill="#b3680a"/>
              <path id="Trazado_631469" data-name="Trazado 631469" d="M4568.666,989.433c3.34,2.228,4.663,9.468,6.093,14.728l13.853,1.409v2.277a42.4,42.4,0,0,1-14.042,1.922,5.634,5.634,0,0,1-4.618-2.872c-1.875-3.314-5.335-9.555-7-13.332Z" transform="translate(-4562.954 -989.433)" fill="#f7941d"/>
            </g>
            <path id="Trazado_631470" data-name="Trazado 631470" d="M4507.93,1122.075h10l-1.5,25.443-2.461,28.01h-4.526C4507.582,1164.807,4507.235,1130.093,4507.93,1122.075Z" transform="translate(-4499.946 -1077.861)" fill="#214178"/>
            <path id="Trazado_631471" data-name="Trazado 631471" d="M4514.4,981.809a25.689,25.689,0,0,0-12.394-2.182,20.241,20.241,0,0,0-7.067,2.39c-.2,6.336,1.577,14.428,2.1,19.445.377,3.585.145,14.393.145,14.393h18.034S4514.588,985.592,4514.4,981.809Z" transform="translate(-4489.916 -965.038)" fill="#214178"/>
            <path id="Trazado_631472" data-name="Trazado 631472" d="M4513.247,981.937a24.233,24.233,0,0,0-7.819-1.974l.275.522a22.815,22.815,0,0,1,2.64,10.654v25.053h5.31S4513.433,985.72,4513.247,981.937Zm-17.772,19.862c.376,3.585.143,14.393.143,14.393h8.354V995.461a35.746,35.746,0,0,0-3.535-15.5,21.922,21.922,0,0,0-7.484,1.973C4492.749,988.273,4494.947,996.782,4495.475,1001.8Z" transform="translate(-4488.343 -965.375)" fill="#f7941d"/>
            <path id="Trazado_631473" data-name="Trazado 631473" d="M4472.064,1127.813v-10.752a.548.548,0,0,1,.659-.554l16.9,2.7a.8.8,0,0,1,.66.765v10.752a.548.548,0,0,1-.66.554l-16.9-2.7A.8.8,0,0,1,4472.064,1127.813Z" transform="translate(-4471.82 -1073.447)" fill="#b3c9ff"/>
            <path id="Trazado_631474" data-name="Trazado 631474" d="M4533.8,956.8l.668,5.525L4528.9,960.4l1.729-5.152Z" transform="translate(-4516.809 -945.811)" fill="#b3680a"/>
            <path id="Trazado_631475" data-name="Trazado 631475" d="M4537.384,931.823c.02.873-.841,1.65-2.471,1.024l-2.621-1.681-1.244-3.731,1.463-3.172,4.847.3Z" transform="translate(-4518.507 -921.288)" fill="#b3680a"/>
            <path id="Trazado_631476" data-name="Trazado 631476" d="M4529.243,920.517h4.673a.666.666,0,0,1,.743.9l-.708,1.732-4.148,1.105.714.5.457,2.165a.915.915,0,0,0,.9.725l2.065-.016.031,1.3c-.036.873-.943,1.593-2.532.865a3.186,3.186,0,0,1-1.684-3.343l.123-.756c-.206-.483-.589-.783-.863-.67s-.339.608-.136,1.1l0,.011a2.993,2.993,0,0,1,.036,2.236l-.072.189c-.746-.262-.795-.669-1.03-1.423l-.874-2.8C4526.309,922.04,4527.161,920.494,4529.243,920.517Z" transform="translate(-4515.096 -918.312)" fill="#37384f"/>
            <g id="Grupo_956958" data-name="Grupo 956958" transform="translate(0 16.4)">
              <path id="Trazado_631477" data-name="Trazado 631477" d="M4494.445,1164.836l1.486,2.191,1.643,1.18-.983.48a1.761,1.761,0,0,1-1.784-.141l-.938-.659-.9-2.655Z" transform="translate(-4488.37 -1128.107)" fill="#b3680a"/>
              <path id="Trazado_631478" data-name="Trazado 631478" d="M4475.5,988.816c2.269-.914,5.886,2.15,5.627,6.053-.225,3.388-5.006,12.625-5.006,12.625l1.994,17.888-3.225.4a93.788,93.788,0,0,1-4-18.844S4472.887,990.294,4475.5,988.816Z" transform="translate(-4470.891 -988.653)" fill="#f7941d"/>
            </g>
            <path id="Trazado_631479" data-name="Trazado 631479" d="M4519.649,1378.482h3l2.731,1.841,2.281.373.068,1.094h-7.87Z" transform="translate(-4509.484 -1280.815)" fill="#130f40"/>
            <path id="Trazado_631480" data-name="Trazado 631480" d="M4606.041,1378.482h3l2.731,1.841,2.282.373.068,1.094h-7.871Z" transform="translate(-4577.866 -1280.815)" fill="#130f40"/>
            <g id="Grupo_956959" data-name="Grupo 956959" transform="translate(10.561)">
              <path id="Trazado_631481" data-name="Trazado 631481" d="M4522.914,915.483a4.3,4.3,0,0,1,2.92-5.312c3.041-.722,5.537.753,6.11,3.167Z" transform="translate(-4522.523 -909.987)" fill="#f7941d"/>
              <path id="Trazado_631482" data-name="Trazado 631482" d="M4524.329,920.556c-.246-1.987.387-3.8,1.413-4.04,1.427-.339,2.58,1.046,2.826,3.033Z" transform="translate(-4523.708 -915.114)" fill="#e37c00"/>
              <rect id="Rectángulo_307761" data-name="Rectángulo 307761" width="10.416" height="0.89" rx="0.445" transform="translate(0 5.513) rotate(-13.362)" fill="#f7941d"/>
            </g>
          </g>
        </g>
        <g id="Grupo_956972" data-name="Grupo 956972" transform="translate(426.351 3.604)">
          <g id="Grupo_956968" data-name="Grupo 956968" transform="translate(0 4.13)">
            <rect id="Rectángulo_307762" data-name="Rectángulo 307762" width="4.466" height="50.854" transform="translate(23.509 79.222) rotate(180)" fill="#83a2cf"/>
            <rect id="Rectángulo_307763" data-name="Rectángulo 307763" width="39.445" height="4.466" transform="translate(1.554 79.222)" fill="#a4c2ed"/>
            <path id="Trazado_631483" data-name="Trazado 631483" d="M5507.172,1164.074v4.465h37.212a4.466,4.466,0,0,0,4.466-4.465Z" transform="translate(-5488.128 -1118.838)" fill="#a4c2ed"/>
            <g id="Grupo_956962" data-name="Grupo 956962" transform="translate(1.554 83.687)">
              <circle id="Elipse_7912" data-name="Elipse 7912" cx="3.149" cy="3.149" r="3.149" transform="translate(0.229 3.77) rotate(-8.726)" fill="#a4c2ed"/>
              <path id="Trazado_631484" data-name="Trazado 631484" d="M5437.108,1356.156a1.182,1.182,0,0,0,1.182-1.182v-6.456h-2.364v6.456A1.182,1.182,0,0,0,5437.108,1356.156Z" transform="translate(-5433.289 -1348.518)" fill="#83a2cf"/>
              <path id="Trazado_631485" data-name="Trazado 631485" d="M5423.277,1348.518a2.364,2.364,0,0,0,2.364,2.364h2.91a2.364,2.364,0,0,0,2.363-2.364Z" transform="translate(-5423.277 -1348.518)" fill="#83a2cf"/>
            </g>
            <g id="Grupo_956963" data-name="Grupo 956963" transform="translate(17.457 83.687)">
              <circle id="Elipse_7913" data-name="Elipse 7913" cx="3.149" cy="3.149" r="3.149" transform="translate(0.06 4.016) rotate(-12.565)" fill="#a4c2ed"/>
              <path id="Trazado_631486" data-name="Trazado 631486" d="M5513.394,1356.156a1.182,1.182,0,0,0,1.183-1.182v-6.456h-2.364v6.456A1.182,1.182,0,0,0,5513.394,1356.156Z" transform="translate(-5509.575 -1348.518)" fill="#83a2cf"/>
              <path id="Trazado_631487" data-name="Trazado 631487" d="M5499.564,1348.518a2.364,2.364,0,0,0,2.363,2.364h2.91a2.364,2.364,0,0,0,2.364-2.364Z" transform="translate(-5499.564 -1348.518)" fill="#83a2cf"/>
            </g>
            <g id="Grupo_956964" data-name="Grupo 956964" transform="translate(33.36 83.687)">
              <circle id="Elipse_7914" data-name="Elipse 7914" cx="3.149" cy="3.149" r="3.149" transform="translate(0.228 3.77) rotate(-8.726)" fill="#a4c2ed"/>
              <path id="Trazado_631488" data-name="Trazado 631488" d="M5589.681,1356.156a1.182,1.182,0,0,0,1.182-1.182v-6.456H5588.5v6.456A1.182,1.182,0,0,0,5589.681,1356.156Z" transform="translate(-5585.861 -1348.518)" fill="#83a2cf"/>
              <path id="Trazado_631489" data-name="Trazado 631489" d="M5575.849,1348.518a2.364,2.364,0,0,0,2.364,2.364h2.91a2.364,2.364,0,0,0,2.364-2.364Z" transform="translate(-5575.849 -1348.518)" fill="#83a2cf"/>
            </g>
            <rect id="Rectángulo_307764" data-name="Rectángulo 307764" width="17.49" height="17.49" transform="translate(40.998 72.836) rotate(180)" fill="#617899"/>
            <g id="Grupo_956965" data-name="Grupo 956965" transform="translate(36.277 49.702)">
              <path id="Trazado_631490" data-name="Trazado 631490" d="M5596.639,1198.2a6.808,6.808,0,0,1-6.8-6.8V1185.5h.834v5.906a5.967,5.967,0,1,0,11.933,0V1185.5h.833v5.906A6.808,6.808,0,0,1,5596.639,1198.2Z" transform="translate(-5589.839 -1185.495)" fill="#83a2cf"/>
            </g>
            <g id="Grupo_956966" data-name="Grupo 956966" transform="translate(31.276 49.702)">
              <path id="Trazado_631491" data-name="Trazado 631491" d="M5572.649,1206.548a6.808,6.808,0,0,1-6.8-6.8V1185.5h.834v14.252a5.966,5.966,0,1,0,11.932,0V1185.5h.835v14.252A6.809,6.809,0,0,1,5572.649,1206.548Z" transform="translate(-5565.849 -1185.495)" fill="#83a2cf"/>
            </g>
            <path id="Trazado_631492" data-name="Trazado 631492" d="M5522.681,1151.428H5552.9a1.665,1.665,0,1,0,0-3.331h-30.218a1.665,1.665,0,0,0,0,3.331Z" transform="translate(-5499.086 -1106.191)" fill="#83a2cf"/>
            <g id="Grupo_956967" data-name="Grupo 956967" transform="translate(0 0)">
              <rect id="Rectángulo_307765" data-name="Rectángulo 307765" width="42.552" height="28.368" rx="5.617" transform="translate(42.552 28.368) rotate(180)" fill="#a4c2ed"/>
              <rect id="Rectángulo_307766" data-name="Rectángulo 307766" width="24.519" height="38.703" transform="translate(40.628 1.925) rotate(90)" fill="#415167"/>
              <rect id="Rectángulo_307767" data-name="Rectángulo 307767" width="0.915" height="17.698" transform="translate(32.033 4.854)" fill="#83a2cf"/>
              <rect id="Rectángulo_307768" data-name="Rectángulo 307768" width="0.915" height="17.698" transform="translate(26.426 4.854)" fill="#83a2cf"/>
              <rect id="Rectángulo_307769" data-name="Rectángulo 307769" width="0.915" height="17.698" transform="translate(20.818 4.854)" fill="#83a2cf"/>
              <rect id="Rectángulo_307770" data-name="Rectángulo 307770" width="0.915" height="17.698" transform="translate(15.211 4.854)" fill="#83a2cf"/>
              <rect id="Rectángulo_307771" data-name="Rectángulo 307771" width="0.915" height="17.698" transform="translate(9.604 4.854)" fill="#83a2cf"/>
              <path id="Trazado_631493" data-name="Trazado 631493" d="M5563.792,1046.78a1.644,1.644,0,1,0,1.644-1.644A1.644,1.644,0,0,0,5563.792,1046.78Z" transform="translate(-5532.945 -1024.695)" fill="#fff"/>
              <circle id="Elipse_7915" data-name="Elipse 7915" cx="1.644" cy="1.644" r="1.644" transform="translate(25.24 9.668)" fill="#fff"/>
              <circle id="Elipse_7916" data-name="Elipse 7916" cx="1.644" cy="1.644" r="1.644" transform="translate(19.51 13.391) rotate(-4.441)" fill="#fff"/>
              <path id="Trazado_631494" data-name="Trazado 631494" d="M5483.1,970.983a1.644,1.644,0,1,0,1.644-1.644A1.643,1.643,0,0,0,5483.1,970.983Z" transform="translate(-5469.078 -964.699)" fill="#fff"/>
              <circle id="Elipse_7917" data-name="Elipse 7917" cx="1.644" cy="1.644" r="1.644" transform="translate(8.418 16.132)" fill="#fff"/>
            </g>
          </g>
          <g id="Grupo_956971" data-name="Grupo 956971" transform="translate(37.951)">
            <path id="Trazado_631495" data-name="Trazado 631495" d="M5682.475,1131.339h11.877c1.085,5.87-1.195,15.577-1.195,24.26.281,8.989.91,16.82-1.56,27.341h-4Z" transform="translate(-5664.837 -1088.798)" fill="#214178"/>
            <path id="Trazado_631496" data-name="Trazado 631496" d="M5696.6,1378.86h-2.537l-2.321,1.8-2.156.364.139,1.068h7.3Z" transform="translate(-5670.463 -1284.718)" fill="#130f40"/>
            <path id="Trazado_631497" data-name="Trazado 631497" d="M5667.9,1368.385l-2.381.88-1.554,2.49-1.9,1.089.5.954,6.843-2.529Z" transform="translate(-5648.688 -1276.426)" fill="#130f40"/>
            <path id="Trazado_631498" data-name="Trazado 631498" d="M5644.987,1092.081h11.233s3.423,4.943,3.423,8.184c0,7.6-9.972,16.747-12.527,23.812a96.849,96.849,0,0,1,3.117,25.833l-4.093.966-7.583-26.562S5643.763,1094.744,5644.987,1092.081Z" transform="translate(-5630.075 -1057.724)" fill="#214178"/>
            <path id="Trazado_631499" data-name="Trazado 631499" d="M5689.587,968.7l.532,4.226,2.724-.688-.023-4.74Z" transform="translate(-5670.466 -959.113)" fill="#b3680a"/>
            <path id="Trazado_631500" data-name="Trazado 631500" d="M5658.455,1020.851c0-4.408,2.166-26.9,4.626-29.661,2.191-2.459,4.56-2.948,9.745-1.366a4.608,4.608,0,0,1,3.225,4.136c.539,8.619,2.185,26.879,2.185,26.879Z" transform="translate(-5645.825 -976.062)" fill="#f7941d"/>
            <path id="Trazado_631501" data-name="Trazado 631501" d="M5638.982,1082.4l-10.767,10.038.566,2.394c3.456-1.284,11.552-5.619,13.734-9.982Z" transform="translate(-5621.888 -1050.059)" fill="#b3680a"/>
            <path id="Trazado_631502" data-name="Trazado 631502" d="M5673.538,1021.528c.661,1.125,3.407,3.432,4.852,1.221,1.813-3.253,3.606-10.593,4.432-15.025a3.2,3.2,0,1,0-6.3-1.086Z" transform="translate(-5657.763 -987.96)" fill="#214178"/>
            <g id="Grupo_956969" data-name="Grupo 956969" transform="translate(14.296 1.179)">
              <path id="Trazado_631503" data-name="Trazado 631503" d="M5672.528,945.239c.207.827,1.216,1.338,2.591.33l2.036-2.257.213-3.833-2.193-2.611-4.488,1.526Z" transform="translate(-5669.802 -936.047)" fill="#b3680a"/>
              <path id="Trazado_631504" data-name="Trazado 631504" d="M5671.149,936.637l-2.067.012a3.039,3.039,0,0,1-2.515-1.31.689.689,0,0,1,.515-1.078l4.4-1.2c1.953-.556,3.154.68,3.15,3.017Z" transform="translate(-5666.444 -932.927)" fill="#37384f"/>
              <path id="Trazado_631505" data-name="Trazado 631505" d="M5688.187,948.033c.276,2.789,2.644,3.723,4.7,4.365l2.41.674a2.263,2.263,0,0,1,1.653,2.154c.013,1.17-.724,3.059-3.412,3.793-3.4.929-7.459-1.211-9.971-10.419Z" transform="translate(-5679.998 -944.884)" fill="#37384f"/>
            </g>
            <g id="Grupo_956970" data-name="Grupo 956970" transform="translate(13.278)">
              <path id="Trazado_631506" data-name="Trazado 631506" d="M5674.868,931.41a4.216,4.216,0,0,0-4.295-4.136c-3.237.061-5.364,1.989-5.32,4.318Z" transform="translate(-5664.483 -927.273)" fill="#e37c00"/>
              <path id="Trazado_631507" data-name="Trazado 631507" d="M5670.034,934.856c.286-1.873-.267-3.377-1.235-3.359-1.347.025-2.478,1.561-2.763,3.434Z" transform="translate(-5665.103 -930.617)" fill="#f7941d"/>
              <path id="Trazado_631508" data-name="Trazado 631508" d="M5662,948.155l9.941-.187a.425.425,0,1,0-.016-.849l-9.941.188a.424.424,0,0,0,.016.849Z" transform="translate(-5661.564 -942.982)" fill="#e37c00"/>
            </g>
            <path id="Trazado_631509" data-name="Trazado 631509" d="M5604.762,1131.6h-3.068l-1.85-1.32-1.64,1.009-.336-.349,2.144-2.089,1.092.52,3.089-.164,1.619,1.019Z" transform="translate(-5597.869 -1086.824)" fill="#b3680a"/>
          </g>
        </g>
      </g>
    </g>
  </g>
</svg>
