<svg xmlns="http://www.w3.org/2000/svg" width="567.364" height="296.077" viewBox="0 0 567.364 296.077">
  <g id="Grupo_980602" data-name="Grupo 980602" transform="translate(-516.636 -13091.91)">
    <g id="Trazado_656530" data-name="Trazado 656530" transform="translate(589 13244)" fill="#ffdcb4">
      <path d="M 24.5 83.5 L 0.5 83.5 L 0.5 0.5 L 24.5 0.5 L 24.5 83.5 Z" stroke="none"/>
      <path d="M 1 1 L 1 83 L 24 83 L 24 1 L 1 1 M 0 0 L 25 0 L 25 84 L 0 84 L 0 0 Z" stroke="none" fill="#cca05a"/>
    </g>
    <g id="Trazado_656531" data-name="Trazado 656531" transform="translate(620 13224)" fill="#fff">
      <path d="M 24.5 103.5 L 0.5 103.5 L 0.5 0.5 L 24.5 0.5 L 24.5 103.5 Z" stroke="none"/>
      <path d="M 1 1 L 1 103 L 24 103 L 24 1 L 1 1 M 0 0 L 25 0 L 25 104 L 0 104 L 0 0 Z" stroke="none" fill="#707070"/>
    </g>
    <g id="Trazado_656532" data-name="Trazado 656532" transform="translate(651 13202)" fill="#fff">
      <path d="M 24.5 125.5 L 0.5 125.5 L 0.5 0.5 L 24.5 0.5 L 24.5 125.5 Z" stroke="none"/>
      <path d="M 1 1 L 1 125 L 24 125 L 24 1 L 1 1 M 0 0 L 25 0 L 25 126 L 0 126 L 0 0 Z" stroke="none" fill="#707070"/>
    </g>
    <g id="Trazado_656533" data-name="Trazado 656533" transform="translate(682 13164)" fill="#fff">
      <path d="M 24.5 163.5 L 0.5 163.5 L 0.5 0.5 L 24.5 0.5 L 24.5 163.5 Z" stroke="none"/>
      <path d="M 1 1 L 1 163 L 24 163 L 24 1 L 1 1 M 0 0 L 25 0 L 25 164 L 0 164 L 0 0 Z" stroke="none" fill="#707070"/>
    </g>
    <g id="Trazado_656534" data-name="Trazado 656534" transform="translate(713 13156)" fill="#fff">
      <path d="M 24.5 171.5 L 0.5 171.5 L 0.5 0.5 L 24.5 0.5 L 24.5 171.5 Z" stroke="none"/>
      <path d="M 1 1 L 1 171 L 24 171 L 24 1 L 1 1 M 0 0 L 25 0 L 25 172 L 0 172 L 0 0 Z" stroke="none" fill="#707070"/>
    </g>
    <g id="Trazado_656535" data-name="Trazado 656535" transform="translate(744 13137)" fill="#fff">
      <path d="M 24.5 190.5 L 0.5 190.5 L 0.5 0.5 L 24.5 0.5 L 24.5 190.5 Z" stroke="none"/>
      <path d="M 1 1 L 1 190 L 24 190 L 24 1 L 1 1 M 0 0 L 25 0 L 25 191 L 0 191 L 0 0 Z" stroke="none" fill="#707070"/>
    </g>
    <g id="Trazado_656536" data-name="Trazado 656536" transform="translate(880.813 13232)" fill="#ffdcb4">
      <path d="M 24.5 95.5 L 0.5 95.5 L 0.5 0.5 L 24.5 0.5 L 24.5 95.5 Z" stroke="none"/>
      <path d="M 1 1 L 1 95 L 24 95 L 24 1 L 1 1 M 0 0 L 25 0 L 25 96 L 0 96 L 0 0 Z" stroke="none" fill="#cca05a"/>
    </g>
    <g id="Trazado_656537" data-name="Trazado 656537" transform="translate(911.813 13211)" fill="#ffdcb4">
      <path d="M 24.5 116.5 L 0.5 116.5 L 0.5 0.5 L 24.5 0.5 L 24.5 116.5 Z" stroke="none"/>
      <path d="M 1 1 L 1 116 L 24 116 L 24 1 L 1 1 M 0 0 L 25 0 L 25 117 L 0 117 L 0 0 Z" stroke="none" fill="#cca05a"/>
    </g>
    <g id="Trazado_656538" data-name="Trazado 656538" transform="translate(942.813 13185)" fill="#ffdcb4">
      <path d="M 24.5 142.5 L 0.5 142.5 L 0.5 0.5 L 24.5 0.5 L 24.5 142.5 Z" stroke="none"/>
      <path d="M 1 1 L 1 142 L 24 142 L 24 1 L 1 1 M 0 0 L 25 0 L 25 143 L 0 143 L 0 0 Z" stroke="none" fill="#cca05a"/>
    </g>
    <g id="Trazado_656539" data-name="Trazado 656539" transform="translate(973.813 13168)" fill="#ffdcb4">
      <path d="M 24.5 159.5 L 0.5 159.5 L 0.5 0.5 L 24.5 0.5 L 24.5 159.5 Z" stroke="none"/>
      <path d="M 1 1 L 1 159 L 24 159 L 24 1 L 1 1 M 0 0 L 25 0 L 25 160 L 0 160 L 0 0 Z" stroke="none" fill="#cca05a"/>
    </g>
    <g id="Trazado_656540" data-name="Trazado 656540" transform="translate(1004.813 13146)" fill="#ffdcb4">
      <path d="M 24.5 181.5 L 0.5 181.5 L 0.5 0.5 L 24.5 0.5 L 24.5 181.5 Z" stroke="none"/>
      <path d="M 1 1 L 1 181 L 24 181 L 24 1 L 1 1 M 0 0 L 25 0 L 25 182 L 0 182 L 0 0 Z" stroke="none" fill="#cca05a"/>
    </g>
    <g id="Trazado_656541" data-name="Trazado 656541" transform="translate(1035.813 13127)" fill="#ffdcb4">
      <path d="M 24.5 200.5 L 0.5 200.5 L 0.5 0.5 L 24.5 0.5 L 24.5 200.5 Z" stroke="none"/>
      <path d="M 1 1 L 1 200 L 24 200 L 24 1 L 1 1 M 0 0 L 25 0 L 25 201 L 0 201 L 0 0 Z" stroke="none" fill="#cca05a"/>
    </g>
    <path id="Trazado_656514" data-name="Trazado 656514" d="M-3793.9,1682.589h222.375" transform="translate(4363 11613)" fill="none" stroke="#707070" stroke-width="0.5"/>
    <path id="Trazado_656515" data-name="Trazado 656515" d="M-3793.9,1682.589h222.375" transform="translate(4363 11580.411)" fill="none" stroke="#707070" stroke-width="0.5"/>
    <path id="Trazado_656516" data-name="Trazado 656516" d="M-3793.9,1682.589h222.375" transform="translate(4363 11548.411)" fill="none" stroke="#707070" stroke-width="0.5"/>
    <path id="Trazado_656517" data-name="Trazado 656517" d="M-3793.9,1682.589h222.375" transform="translate(4363 11515.411)" fill="none" stroke="#707070" stroke-width="0.5"/>
    <path id="Trazado_656518" data-name="Trazado 656518" d="M-3793.9,1682.589h222.375" transform="translate(4363 11485.411)" fill="none" stroke="#707070" stroke-width="0.5"/>
    <path id="Trazado_656519" data-name="Trazado 656519" d="M-3793.9,1682.589h222.375" transform="translate(4363 11452.411)" fill="none" stroke="#707070" stroke-width="0.5"/>
    <path id="Trazado_656520" data-name="Trazado 656520" d="M-3793.9,1682.589h222.375" transform="translate(4363 11419.823)" fill="none" stroke="#707070" stroke-width="0.5"/>
    <path id="Trazado_656521" data-name="Trazado 656521" d="M-3793.9,1682.589h222.375" transform="translate(4363 11645)" fill="none" stroke="#707070" stroke-width="0.5"/>
    <path id="Trazado_656522" data-name="Trazado 656522" d="M-3793.9,1682.589h222.375" transform="translate(4655.528 11608)" fill="none" stroke="#707070" stroke-width="0.5"/>
    <path id="Trazado_656523" data-name="Trazado 656523" d="M-3793.9,1682.589h222.375" transform="translate(4655.528 11570.411)" fill="none" stroke="#707070" stroke-width="0.5"/>
    <path id="Trazado_656524" data-name="Trazado 656524" d="M-3793.9,1682.589h222.375" transform="translate(4655.528 11533.411)" fill="none" stroke="#707070" stroke-width="0.5"/>
    <path id="Trazado_656525" data-name="Trazado 656525" d="M-3793.9,1682.589h222.375" transform="translate(4655.528 11495.411)" fill="none" stroke="#707070" stroke-width="0.5"/>
    <path id="Trazado_656527" data-name="Trazado 656527" d="M-3793.9,1682.589h222.375" transform="translate(4655.528 11456.411)" fill="none" stroke="#707070" stroke-width="0.5"/>
    <path id="Trazado_656528" data-name="Trazado 656528" d="M-3793.9,1682.589h222.375" transform="translate(4655.528 11419.823)" fill="none" stroke="#707070" stroke-width="0.5"/>
    <path id="Trazado_656529" data-name="Trazado 656529" d="M-3793.9,1682.589h222.375" transform="translate(4655.528 11645)" fill="none" stroke="#707070" stroke-width="0.5"/>
    <path id="Trazado_656542" data-name="Trazado 656542" d="M2.666-5.592h.95a2.088,2.088,0,0,0,1.408-.472A1.576,1.576,0,0,0,5.537-7.3a1.544,1.544,0,0,0-1.743-1.75,1.813,1.813,0,0,0-1.309.468A1.639,1.639,0,0,0,2-7.342H.731A2.539,2.539,0,0,1,1.6-9.307a3.15,3.15,0,0,1,2.2-.783A3.113,3.113,0,0,1,6-9.345a2.692,2.692,0,0,1,.8,2.071,2.185,2.185,0,0,1-.42,1.258,2.538,2.538,0,0,1-1.145.909A2.446,2.446,0,0,1,6.5-4.245a2.392,2.392,0,0,1,.448,1.47A2.715,2.715,0,0,1,6.077-.649,3.277,3.277,0,0,1,3.8.137a3.363,3.363,0,0,1-2.28-.759,2.517,2.517,0,0,1-.878-2H1.914a1.627,1.627,0,0,0,.513,1.258A1.95,1.95,0,0,0,3.8-.9a1.914,1.914,0,0,0,1.4-.479,1.844,1.844,0,0,0,.485-1.374,1.673,1.673,0,0,0-.533-1.333A2.323,2.323,0,0,0,3.616-4.56h-.95ZM8.846-.663a.792.792,0,0,1,.195-.547.742.742,0,0,1,.584-.219.765.765,0,0,1,.591.219.776.776,0,0,1,.2.547.734.734,0,0,1-.2.526.778.778,0,0,1-.591.212.755.755,0,0,1-.584-.212A.748.748,0,0,1,8.846-.663ZM12.954-4.99l.506-4.963h5.1v1.169H14.533l-.3,2.714A3.212,3.212,0,0,1,15.894-6.5a2.746,2.746,0,0,1,2.16.9,3.523,3.523,0,0,1,.8,2.43,3.4,3.4,0,0,1-.831,2.423A3.027,3.027,0,0,1,15.7.137a3.146,3.146,0,0,1-2.153-.731,2.919,2.919,0,0,1-.95-2.023h1.2A2.009,2.009,0,0,0,14.4-1.33,1.892,1.892,0,0,0,15.7-.9a1.706,1.706,0,0,0,1.384-.6,2.515,2.515,0,0,0,.5-1.661,2.308,2.308,0,0,0-.543-1.6,1.849,1.849,0,0,0-1.446-.6A2.085,2.085,0,0,0,14.3-5l-.335.273Zm13.521.745a5.784,5.784,0,0,1-.759,3.3A2.7,2.7,0,0,1,23.345.137,2.718,2.718,0,0,1,20.986-.919a5.49,5.49,0,0,1-.793-3.155V-5.763a5.655,5.655,0,0,1,.759-3.261,2.719,2.719,0,0,1,2.379-1.066A2.744,2.744,0,0,1,25.7-9.061a5.458,5.458,0,0,1,.779,3.175ZM25.211-5.975a4.634,4.634,0,0,0-.451-2.341,1.553,1.553,0,0,0-1.429-.735,1.532,1.532,0,0,0-1.415.731,4.525,4.525,0,0,0-.458,2.249v2.023a4.708,4.708,0,0,0,.468,2.382A1.55,1.55,0,0,0,23.345-.9a1.529,1.529,0,0,0,1.391-.725A4.538,4.538,0,0,0,25.211-3.9Zm9.126,1.729a5.784,5.784,0,0,1-.759,3.3A2.7,2.7,0,0,1,31.206.137,2.718,2.718,0,0,1,28.848-.919a5.49,5.49,0,0,1-.793-3.155V-5.763a5.655,5.655,0,0,1,.759-3.261,2.719,2.719,0,0,1,2.379-1.066,2.744,2.744,0,0,1,2.365,1.029,5.458,5.458,0,0,1,.779,3.175ZM33.072-5.975a4.634,4.634,0,0,0-.451-2.341,1.553,1.553,0,0,0-1.429-.735,1.532,1.532,0,0,0-1.415.731,4.525,4.525,0,0,0-.458,2.249v2.023a4.708,4.708,0,0,0,.468,2.382A1.55,1.55,0,0,0,31.206-.9,1.529,1.529,0,0,0,32.6-1.62,4.538,4.538,0,0,0,33.072-3.9Z" transform="translate(516 13102)" fill="#12263f"/>
    <path id="Trazado_656543" data-name="Trazado 656543" d="M2.666-5.592h.95a2.088,2.088,0,0,0,1.408-.472A1.576,1.576,0,0,0,5.537-7.3a1.544,1.544,0,0,0-1.743-1.75,1.813,1.813,0,0,0-1.309.468A1.639,1.639,0,0,0,2-7.342H.731A2.539,2.539,0,0,1,1.6-9.307a3.15,3.15,0,0,1,2.2-.783A3.113,3.113,0,0,1,6-9.345a2.692,2.692,0,0,1,.8,2.071,2.185,2.185,0,0,1-.42,1.258,2.538,2.538,0,0,1-1.145.909A2.446,2.446,0,0,1,6.5-4.245a2.392,2.392,0,0,1,.448,1.47A2.715,2.715,0,0,1,6.077-.649,3.277,3.277,0,0,1,3.8.137a3.363,3.363,0,0,1-2.28-.759,2.517,2.517,0,0,1-.878-2H1.914a1.627,1.627,0,0,0,.513,1.258A1.95,1.95,0,0,0,3.8-.9a1.914,1.914,0,0,0,1.4-.479,1.844,1.844,0,0,0,.485-1.374,1.673,1.673,0,0,0-.533-1.333A2.323,2.323,0,0,0,3.616-4.56h-.95ZM8.846-.663a.792.792,0,0,1,.195-.547.742.742,0,0,1,.584-.219.765.765,0,0,1,.591.219.776.776,0,0,1,.2.547.734.734,0,0,1-.2.526.778.778,0,0,1-.591.212.755.755,0,0,1-.584-.212A.748.748,0,0,1,8.846-.663Zm9.769-3.582a5.784,5.784,0,0,1-.759,3.3A2.7,2.7,0,0,1,15.483.137,2.718,2.718,0,0,1,13.125-.919a5.49,5.49,0,0,1-.793-3.155V-5.763a5.655,5.655,0,0,1,.759-3.261A2.719,2.719,0,0,1,15.47-10.09a2.744,2.744,0,0,1,2.365,1.029,5.458,5.458,0,0,1,.779,3.175ZM17.35-5.975A4.634,4.634,0,0,0,16.9-8.316a1.553,1.553,0,0,0-1.429-.735,1.532,1.532,0,0,0-1.415.731A4.525,4.525,0,0,0,13.6-6.07v2.023a4.708,4.708,0,0,0,.468,2.382A1.55,1.55,0,0,0,15.483-.9a1.529,1.529,0,0,0,1.391-.725A4.538,4.538,0,0,0,17.35-3.9Zm9.126,1.729a5.784,5.784,0,0,1-.759,3.3A2.7,2.7,0,0,1,23.345.137,2.718,2.718,0,0,1,20.986-.919a5.49,5.49,0,0,1-.793-3.155V-5.763a5.655,5.655,0,0,1,.759-3.261,2.719,2.719,0,0,1,2.379-1.066A2.744,2.744,0,0,1,25.7-9.061a5.458,5.458,0,0,1,.779,3.175ZM25.211-5.975a4.634,4.634,0,0,0-.451-2.341,1.553,1.553,0,0,0-1.429-.735,1.532,1.532,0,0,0-1.415.731,4.525,4.525,0,0,0-.458,2.249v2.023a4.708,4.708,0,0,0,.468,2.382A1.55,1.55,0,0,0,23.345-.9a1.529,1.529,0,0,0,1.391-.725A4.538,4.538,0,0,0,25.211-3.9Zm9.126,1.729a5.784,5.784,0,0,1-.759,3.3A2.7,2.7,0,0,1,31.206.137,2.718,2.718,0,0,1,28.848-.919a5.49,5.49,0,0,1-.793-3.155V-5.763a5.655,5.655,0,0,1,.759-3.261,2.719,2.719,0,0,1,2.379-1.066,2.744,2.744,0,0,1,2.365,1.029,5.458,5.458,0,0,1,.779,3.175ZM33.072-5.975a4.634,4.634,0,0,0-.451-2.341,1.553,1.553,0,0,0-1.429-.735,1.532,1.532,0,0,0-1.415.731,4.525,4.525,0,0,0-.458,2.249v2.023a4.708,4.708,0,0,0,.468,2.382A1.55,1.55,0,0,0,31.206-.9,1.529,1.529,0,0,0,32.6-1.62,4.538,4.538,0,0,0,33.072-3.9Z" transform="translate(516 13138)" fill="#12263f"/>
    <path id="Trazado_656544" data-name="Trazado 656544" d="M7.349,0H.827V-.909L4.272-4.737A8.185,8.185,0,0,0,5.329-6.149a2.356,2.356,0,0,0,.291-1.125,1.786,1.786,0,0,0-.472-1.278,1.649,1.649,0,0,0-1.258-.5,1.953,1.953,0,0,0-1.466.537A2.05,2.05,0,0,0,1.9-7.021H.636a2.936,2.936,0,0,1,.885-2.222A3.282,3.282,0,0,1,3.89-10.09a3.153,3.153,0,0,1,2.194.728,2.483,2.483,0,0,1,.807,1.938q0,1.47-1.873,3.5L2.352-1.032h5Zm1.5-.663a.792.792,0,0,1,.195-.547.742.742,0,0,1,.584-.219.765.765,0,0,1,.591.219.776.776,0,0,1,.2.547.734.734,0,0,1-.2.526.778.778,0,0,1-.591.212.755.755,0,0,1-.584-.212A.748.748,0,0,1,8.846-.663ZM12.954-4.99l.506-4.963h5.1v1.169H14.533l-.3,2.714A3.212,3.212,0,0,1,15.894-6.5a2.746,2.746,0,0,1,2.16.9,3.523,3.523,0,0,1,.8,2.43,3.4,3.4,0,0,1-.831,2.423A3.027,3.027,0,0,1,15.7.137a3.146,3.146,0,0,1-2.153-.731,2.919,2.919,0,0,1-.95-2.023h1.2A2.009,2.009,0,0,0,14.4-1.33,1.892,1.892,0,0,0,15.7-.9a1.706,1.706,0,0,0,1.384-.6,2.515,2.515,0,0,0,.5-1.661,2.308,2.308,0,0,0-.543-1.6,1.849,1.849,0,0,0-1.446-.6A2.085,2.085,0,0,0,14.3-5l-.335.273Zm13.521.745a5.784,5.784,0,0,1-.759,3.3A2.7,2.7,0,0,1,23.345.137,2.718,2.718,0,0,1,20.986-.919a5.49,5.49,0,0,1-.793-3.155V-5.763a5.655,5.655,0,0,1,.759-3.261,2.719,2.719,0,0,1,2.379-1.066A2.744,2.744,0,0,1,25.7-9.061a5.458,5.458,0,0,1,.779,3.175ZM25.211-5.975a4.634,4.634,0,0,0-.451-2.341,1.553,1.553,0,0,0-1.429-.735,1.532,1.532,0,0,0-1.415.731,4.525,4.525,0,0,0-.458,2.249v2.023a4.708,4.708,0,0,0,.468,2.382A1.55,1.55,0,0,0,23.345-.9a1.529,1.529,0,0,0,1.391-.725A4.538,4.538,0,0,0,25.211-3.9Zm9.126,1.729a5.784,5.784,0,0,1-.759,3.3A2.7,2.7,0,0,1,31.206.137,2.718,2.718,0,0,1,28.848-.919a5.49,5.49,0,0,1-.793-3.155V-5.763a5.655,5.655,0,0,1,.759-3.261,2.719,2.719,0,0,1,2.379-1.066,2.744,2.744,0,0,1,2.365,1.029,5.458,5.458,0,0,1,.779,3.175ZM33.072-5.975a4.634,4.634,0,0,0-.451-2.341,1.553,1.553,0,0,0-1.429-.735,1.532,1.532,0,0,0-1.415.731,4.525,4.525,0,0,0-.458,2.249v2.023a4.708,4.708,0,0,0,.468,2.382A1.55,1.55,0,0,0,31.206-.9,1.529,1.529,0,0,0,32.6-1.62,4.538,4.538,0,0,0,33.072-3.9Z" transform="translate(516 13172)" fill="#12263f"/>
    <path id="Trazado_656545" data-name="Trazado 656545" d="M7.349,0H.827V-.909L4.272-4.737A8.185,8.185,0,0,0,5.329-6.149a2.356,2.356,0,0,0,.291-1.125,1.786,1.786,0,0,0-.472-1.278,1.649,1.649,0,0,0-1.258-.5,1.953,1.953,0,0,0-1.466.537A2.05,2.05,0,0,0,1.9-7.021H.636a2.936,2.936,0,0,1,.885-2.222A3.282,3.282,0,0,1,3.89-10.09a3.153,3.153,0,0,1,2.194.728,2.483,2.483,0,0,1,.807,1.938q0,1.47-1.873,3.5L2.352-1.032h5Zm1.5-.663a.792.792,0,0,1,.195-.547.742.742,0,0,1,.584-.219.765.765,0,0,1,.591.219.776.776,0,0,1,.2.547.734.734,0,0,1-.2.526.778.778,0,0,1-.591.212.755.755,0,0,1-.584-.212A.748.748,0,0,1,8.846-.663Zm9.769-3.582a5.784,5.784,0,0,1-.759,3.3A2.7,2.7,0,0,1,15.483.137,2.718,2.718,0,0,1,13.125-.919a5.49,5.49,0,0,1-.793-3.155V-5.763a5.655,5.655,0,0,1,.759-3.261A2.719,2.719,0,0,1,15.47-10.09a2.744,2.744,0,0,1,2.365,1.029,5.458,5.458,0,0,1,.779,3.175ZM17.35-5.975A4.634,4.634,0,0,0,16.9-8.316a1.553,1.553,0,0,0-1.429-.735,1.532,1.532,0,0,0-1.415.731A4.525,4.525,0,0,0,13.6-6.07v2.023a4.708,4.708,0,0,0,.468,2.382A1.55,1.55,0,0,0,15.483-.9a1.529,1.529,0,0,0,1.391-.725A4.538,4.538,0,0,0,17.35-3.9Zm9.126,1.729a5.784,5.784,0,0,1-.759,3.3A2.7,2.7,0,0,1,23.345.137,2.718,2.718,0,0,1,20.986-.919a5.49,5.49,0,0,1-.793-3.155V-5.763a5.655,5.655,0,0,1,.759-3.261,2.719,2.719,0,0,1,2.379-1.066A2.744,2.744,0,0,1,25.7-9.061a5.458,5.458,0,0,1,.779,3.175ZM25.211-5.975a4.634,4.634,0,0,0-.451-2.341,1.553,1.553,0,0,0-1.429-.735,1.532,1.532,0,0,0-1.415.731,4.525,4.525,0,0,0-.458,2.249v2.023a4.708,4.708,0,0,0,.468,2.382A1.55,1.55,0,0,0,23.345-.9a1.529,1.529,0,0,0,1.391-.725A4.538,4.538,0,0,0,25.211-3.9Zm9.126,1.729a5.784,5.784,0,0,1-.759,3.3A2.7,2.7,0,0,1,31.206.137,2.718,2.718,0,0,1,28.848-.919a5.49,5.49,0,0,1-.793-3.155V-5.763a5.655,5.655,0,0,1,.759-3.261,2.719,2.719,0,0,1,2.379-1.066,2.744,2.744,0,0,1,2.365,1.029,5.458,5.458,0,0,1,.779,3.175ZM33.072-5.975a4.634,4.634,0,0,0-.451-2.341,1.553,1.553,0,0,0-1.429-.735,1.532,1.532,0,0,0-1.415.731,4.525,4.525,0,0,0-.458,2.249v2.023a4.708,4.708,0,0,0,.468,2.382A1.55,1.55,0,0,0,31.206-.9,1.529,1.529,0,0,0,32.6-1.62,4.538,4.538,0,0,0,33.072-3.9Z" transform="translate(516 13203)" fill="#12263f"/>
    <path id="Trazado_656546" data-name="Trazado 656546" d="M4.983,0H3.712V-8.429l-2.55.937V-8.641L4.785-10h.2ZM8.846-.663a.792.792,0,0,1,.195-.547.742.742,0,0,1,.584-.219.765.765,0,0,1,.591.219.776.776,0,0,1,.2.547.734.734,0,0,1-.2.526.778.778,0,0,1-.591.212.755.755,0,0,1-.584-.212A.748.748,0,0,1,8.846-.663ZM12.954-4.99l.506-4.963h5.1v1.169H14.533l-.3,2.714A3.212,3.212,0,0,1,15.894-6.5a2.746,2.746,0,0,1,2.16.9,3.523,3.523,0,0,1,.8,2.43,3.4,3.4,0,0,1-.831,2.423A3.027,3.027,0,0,1,15.7.137a3.146,3.146,0,0,1-2.153-.731,2.919,2.919,0,0,1-.95-2.023h1.2A2.009,2.009,0,0,0,14.4-1.33,1.892,1.892,0,0,0,15.7-.9a1.706,1.706,0,0,0,1.384-.6,2.515,2.515,0,0,0,.5-1.661,2.308,2.308,0,0,0-.543-1.6,1.849,1.849,0,0,0-1.446-.6A2.085,2.085,0,0,0,14.3-5l-.335.273Zm13.521.745a5.784,5.784,0,0,1-.759,3.3A2.7,2.7,0,0,1,23.345.137,2.718,2.718,0,0,1,20.986-.919a5.49,5.49,0,0,1-.793-3.155V-5.763a5.655,5.655,0,0,1,.759-3.261,2.719,2.719,0,0,1,2.379-1.066A2.744,2.744,0,0,1,25.7-9.061a5.458,5.458,0,0,1,.779,3.175ZM25.211-5.975a4.634,4.634,0,0,0-.451-2.341,1.553,1.553,0,0,0-1.429-.735,1.532,1.532,0,0,0-1.415.731,4.525,4.525,0,0,0-.458,2.249v2.023a4.708,4.708,0,0,0,.468,2.382A1.55,1.55,0,0,0,23.345-.9a1.529,1.529,0,0,0,1.391-.725A4.538,4.538,0,0,0,25.211-3.9Zm9.126,1.729a5.784,5.784,0,0,1-.759,3.3A2.7,2.7,0,0,1,31.206.137,2.718,2.718,0,0,1,28.848-.919a5.49,5.49,0,0,1-.793-3.155V-5.763a5.655,5.655,0,0,1,.759-3.261,2.719,2.719,0,0,1,2.379-1.066,2.744,2.744,0,0,1,2.365,1.029,5.458,5.458,0,0,1,.779,3.175ZM33.072-5.975a4.634,4.634,0,0,0-.451-2.341,1.553,1.553,0,0,0-1.429-.735,1.532,1.532,0,0,0-1.415.731,4.525,4.525,0,0,0-.458,2.249v2.023a4.708,4.708,0,0,0,.468,2.382A1.55,1.55,0,0,0,31.206-.9,1.529,1.529,0,0,0,32.6-1.62,4.538,4.538,0,0,0,33.072-3.9Z" transform="translate(516 13234)" fill="#12263f"/>
    <path id="Trazado_656547" data-name="Trazado 656547" d="M4.983,0H3.712V-8.429l-2.55.937V-8.641L4.785-10h.2ZM8.846-.663a.792.792,0,0,1,.195-.547.742.742,0,0,1,.584-.219.765.765,0,0,1,.591.219.776.776,0,0,1,.2.547.734.734,0,0,1-.2.526.778.778,0,0,1-.591.212.755.755,0,0,1-.584-.212A.748.748,0,0,1,8.846-.663Zm9.769-3.582a5.784,5.784,0,0,1-.759,3.3A2.7,2.7,0,0,1,15.483.137,2.718,2.718,0,0,1,13.125-.919a5.49,5.49,0,0,1-.793-3.155V-5.763a5.655,5.655,0,0,1,.759-3.261A2.719,2.719,0,0,1,15.47-10.09a2.744,2.744,0,0,1,2.365,1.029,5.458,5.458,0,0,1,.779,3.175ZM17.35-5.975A4.634,4.634,0,0,0,16.9-8.316a1.553,1.553,0,0,0-1.429-.735,1.532,1.532,0,0,0-1.415.731A4.525,4.525,0,0,0,13.6-6.07v2.023a4.708,4.708,0,0,0,.468,2.382A1.55,1.55,0,0,0,15.483-.9a1.529,1.529,0,0,0,1.391-.725A4.538,4.538,0,0,0,17.35-3.9Zm9.126,1.729a5.784,5.784,0,0,1-.759,3.3A2.7,2.7,0,0,1,23.345.137,2.718,2.718,0,0,1,20.986-.919a5.49,5.49,0,0,1-.793-3.155V-5.763a5.655,5.655,0,0,1,.759-3.261,2.719,2.719,0,0,1,2.379-1.066A2.744,2.744,0,0,1,25.7-9.061a5.458,5.458,0,0,1,.779,3.175ZM25.211-5.975a4.634,4.634,0,0,0-.451-2.341,1.553,1.553,0,0,0-1.429-.735,1.532,1.532,0,0,0-1.415.731,4.525,4.525,0,0,0-.458,2.249v2.023a4.708,4.708,0,0,0,.468,2.382A1.55,1.55,0,0,0,23.345-.9a1.529,1.529,0,0,0,1.391-.725A4.538,4.538,0,0,0,25.211-3.9Zm9.126,1.729a5.784,5.784,0,0,1-.759,3.3A2.7,2.7,0,0,1,31.206.137,2.718,2.718,0,0,1,28.848-.919a5.49,5.49,0,0,1-.793-3.155V-5.763a5.655,5.655,0,0,1,.759-3.261,2.719,2.719,0,0,1,2.379-1.066,2.744,2.744,0,0,1,2.365,1.029,5.458,5.458,0,0,1,.779,3.175ZM33.072-5.975a4.634,4.634,0,0,0-.451-2.341,1.553,1.553,0,0,0-1.429-.735,1.532,1.532,0,0,0-1.415.731,4.525,4.525,0,0,0-.458,2.249v2.023a4.708,4.708,0,0,0,.468,2.382A1.55,1.55,0,0,0,31.206-.9,1.529,1.529,0,0,0,32.6-1.62,4.538,4.538,0,0,0,33.072-3.9Z" transform="translate(516 13268)" fill="#12263f"/>
    <path id="Trazado_656548" data-name="Trazado 656548" d="M1.408-4.99l.506-4.963h5.1v1.169H2.987l-.3,2.714A3.212,3.212,0,0,1,4.348-6.5a2.746,2.746,0,0,1,2.16.9,3.523,3.523,0,0,1,.8,2.43A3.4,3.4,0,0,1,6.477-.749,3.027,3.027,0,0,1,4.156.137,3.146,3.146,0,0,1,2-.595a2.919,2.919,0,0,1-.95-2.023h1.2A2.009,2.009,0,0,0,2.857-1.33a1.892,1.892,0,0,0,1.3.434,1.706,1.706,0,0,0,1.384-.6,2.515,2.515,0,0,0,.5-1.661,2.308,2.308,0,0,0-.543-1.6,1.849,1.849,0,0,0-1.446-.6A2.085,2.085,0,0,0,2.755-5L2.42-4.73Zm13.521.745a5.784,5.784,0,0,1-.759,3.3A2.7,2.7,0,0,1,11.8.137,2.718,2.718,0,0,1,9.44-.919a5.49,5.49,0,0,1-.793-3.155V-5.763a5.655,5.655,0,0,1,.759-3.261,2.719,2.719,0,0,1,2.379-1.066A2.744,2.744,0,0,1,14.15-9.061a5.458,5.458,0,0,1,.779,3.175ZM13.665-5.975a4.634,4.634,0,0,0-.451-2.341,1.553,1.553,0,0,0-1.429-.735,1.532,1.532,0,0,0-1.415.731A4.525,4.525,0,0,0,9.912-6.07v2.023a4.708,4.708,0,0,0,.468,2.382A1.55,1.55,0,0,0,11.8-.9,1.529,1.529,0,0,0,13.19-1.62,4.538,4.538,0,0,0,13.665-3.9Zm9.126,1.729a5.784,5.784,0,0,1-.759,3.3A2.7,2.7,0,0,1,19.66.137,2.718,2.718,0,0,1,17.3-.919a5.49,5.49,0,0,1-.793-3.155V-5.763a5.655,5.655,0,0,1,.759-3.261,2.719,2.719,0,0,1,2.379-1.066,2.744,2.744,0,0,1,2.365,1.029,5.458,5.458,0,0,1,.779,3.175ZM21.526-5.975a4.634,4.634,0,0,0-.451-2.341,1.553,1.553,0,0,0-1.429-.735,1.532,1.532,0,0,0-1.415.731,4.525,4.525,0,0,0-.458,2.249v2.023a4.708,4.708,0,0,0,.468,2.382A1.55,1.55,0,0,0,19.66-.9a1.529,1.529,0,0,0,1.391-.725A4.538,4.538,0,0,0,21.526-3.9Z" transform="translate(529 13302)" fill="#12263f"/>
    <path id="Trazado_656549" data-name="Trazado 656549" d="M7.068-4.245a5.784,5.784,0,0,1-.759,3.3A2.7,2.7,0,0,1,3.938.137,2.718,2.718,0,0,1,1.579-.919,5.49,5.49,0,0,1,.786-4.074V-5.763a5.655,5.655,0,0,1,.759-3.261A2.719,2.719,0,0,1,3.924-10.09,2.744,2.744,0,0,1,6.289-9.061a5.458,5.458,0,0,1,.779,3.175ZM5.8-5.975a4.634,4.634,0,0,0-.451-2.341,1.553,1.553,0,0,0-1.429-.735,1.532,1.532,0,0,0-1.415.731A4.525,4.525,0,0,0,2.051-6.07v2.023a4.708,4.708,0,0,0,.468,2.382A1.55,1.55,0,0,0,3.938-.9,1.529,1.529,0,0,0,5.329-1.62,4.538,4.538,0,0,0,5.8-3.9Z" transform="translate(547 13333)" fill="#12263f"/>
    <path id="Trazado_656550" data-name="Trazado 656550" d="M5.79-9.96v1.073H5.558a3.33,3.33,0,0,0-2.352.875A3.641,3.641,0,0,0,2.194-5.626a2.7,2.7,0,0,1,2.146-.9,2.581,2.581,0,0,1,2.075.916,3.533,3.533,0,0,1,.776,2.365A3.522,3.522,0,0,1,6.354-.786,2.883,2.883,0,0,1,4.108.137,2.841,2.841,0,0,1,1.791-.96,4.348,4.348,0,0,1,.9-3.787v-.485a6.552,6.552,0,0,1,1.172-4.2A4.306,4.306,0,0,1,5.564-9.96ZM4.129-5.476a2.018,2.018,0,0,0-1.2.39,2.03,2.03,0,0,0-.759.978v.465a3.265,3.265,0,0,0,.554,1.982,1.659,1.659,0,0,0,1.381.752,1.608,1.608,0,0,0,1.343-.629A2.61,2.61,0,0,0,5.94-3.186a2.61,2.61,0,0,0-.5-1.658A1.589,1.589,0,0,0,4.129-5.476Z" transform="translate(843 13108)" fill="#12263f"/>
    <path id="Trazado_656551" data-name="Trazado 656551" d="M1.408-4.99l.506-4.963h5.1v1.169H2.987l-.3,2.714A3.212,3.212,0,0,1,4.348-6.5a2.746,2.746,0,0,1,2.16.9,3.523,3.523,0,0,1,.8,2.43A3.4,3.4,0,0,1,6.477-.749,3.027,3.027,0,0,1,4.156.137,3.146,3.146,0,0,1,2-.595a2.919,2.919,0,0,1-.95-2.023h1.2A2.009,2.009,0,0,0,2.857-1.33a1.892,1.892,0,0,0,1.3.434,1.706,1.706,0,0,0,1.384-.6,2.515,2.515,0,0,0,.5-1.661,2.308,2.308,0,0,0-.543-1.6,1.849,1.849,0,0,0-1.446-.6A2.085,2.085,0,0,0,2.755-5L2.42-4.73Z" transform="translate(843 13144)" fill="#12263f"/>
    <path id="Trazado_656552" data-name="Trazado 656552" d="M6.166-3.343H7.547v1.032H6.166V0H4.895V-2.311H.362v-.745l4.457-6.9H6.166Zm-4.368,0h3.1V-8.224l-.15.273Z" transform="translate(843 13181)" fill="#12263f"/>
    <path id="Trazado_656553" data-name="Trazado 656553" d="M2.666-5.592h.95a2.088,2.088,0,0,0,1.408-.472A1.576,1.576,0,0,0,5.537-7.3a1.544,1.544,0,0,0-1.743-1.75,1.813,1.813,0,0,0-1.309.468A1.639,1.639,0,0,0,2-7.342H.731A2.539,2.539,0,0,1,1.6-9.307a3.15,3.15,0,0,1,2.2-.783A3.113,3.113,0,0,1,6-9.345a2.692,2.692,0,0,1,.8,2.071,2.185,2.185,0,0,1-.42,1.258,2.538,2.538,0,0,1-1.145.909A2.446,2.446,0,0,1,6.5-4.245a2.392,2.392,0,0,1,.448,1.47A2.715,2.715,0,0,1,6.077-.649,3.277,3.277,0,0,1,3.8.137a3.363,3.363,0,0,1-2.28-.759,2.517,2.517,0,0,1-.878-2H1.914a1.627,1.627,0,0,0,.513,1.258A1.95,1.95,0,0,0,3.8-.9a1.914,1.914,0,0,0,1.4-.479,1.844,1.844,0,0,0,.485-1.374,1.673,1.673,0,0,0-.533-1.333A2.323,2.323,0,0,0,3.616-4.56h-.95Z" transform="translate(843 13217)" fill="#12263f"/>
    <path id="Trazado_656554" data-name="Trazado 656554" d="M7.349,0H.827V-.909L4.272-4.737A8.185,8.185,0,0,0,5.329-6.149a2.356,2.356,0,0,0,.291-1.125,1.786,1.786,0,0,0-.472-1.278,1.649,1.649,0,0,0-1.258-.5,1.953,1.953,0,0,0-1.466.537A2.05,2.05,0,0,0,1.9-7.021H.636a2.936,2.936,0,0,1,.885-2.222A3.282,3.282,0,0,1,3.89-10.09a3.153,3.153,0,0,1,2.194.728,2.483,2.483,0,0,1,.807,1.938q0,1.47-1.873,3.5L2.352-1.032h5Z" transform="translate(843 13253)" fill="#12263f"/>
    <path id="Trazado_656555" data-name="Trazado 656555" d="M4.983,0H3.712V-8.429l-2.55.937V-8.641L4.785-10h.2Z" transform="translate(843 13295)" fill="#12263f"/>
    <path id="Trazado_656556" data-name="Trazado 656556" d="M7.068-4.245a5.784,5.784,0,0,1-.759,3.3A2.7,2.7,0,0,1,3.938.137,2.718,2.718,0,0,1,1.579-.919,5.49,5.49,0,0,1,.786-4.074V-5.763a5.655,5.655,0,0,1,.759-3.261A2.719,2.719,0,0,1,3.924-10.09,2.744,2.744,0,0,1,6.289-9.061a5.458,5.458,0,0,1,.779,3.175ZM5.8-5.975a4.634,4.634,0,0,0-.451-2.341,1.553,1.553,0,0,0-1.429-.735,1.532,1.532,0,0,0-1.415.731A4.525,4.525,0,0,0,2.051-6.07v2.023a4.708,4.708,0,0,0,.468,2.382A1.55,1.55,0,0,0,3.938-.9,1.529,1.529,0,0,0,5.329-1.62,4.538,4.538,0,0,0,5.8-3.9Z" transform="translate(843 13333)" fill="#12263f"/>
    <g id="Trazado_656557" data-name="Trazado 656557" transform="translate(589 13244)" fill="#ffdcb4">
      <path d="M 24.5 83.5 L 0.5 83.5 L 0.5 0.5 L 24.5 0.5 L 24.5 83.5 Z" stroke="none"/>
      <path d="M 1 1 L 1 83 L 24 83 L 24 1 L 1 1 M 0 0 L 25 0 L 25 84 L 0 84 L 0 0 Z" stroke="none" fill="#cca05a"/>
    </g>
    <g id="Trazado_656558" data-name="Trazado 656558" transform="translate(620 13224)" fill="#ffdcb4">
      <path d="M 24.5 103.5 L 0.5 103.5 L 0.5 0.5 L 24.5 0.5 L 24.5 103.5 Z" stroke="none"/>
      <path d="M 1 1 L 1 103 L 24 103 L 24 1 L 1 1 M 0 0 L 25 0 L 25 104 L 0 104 L 0 0 Z" stroke="none" fill="#cca05a"/>
    </g>
    <g id="Trazado_656559" data-name="Trazado 656559" transform="translate(651 13202)" fill="#ffdcb4">
      <path d="M 24.5 125.5 L 0.5 125.5 L 0.5 0.5 L 24.5 0.5 L 24.5 125.5 Z" stroke="none"/>
      <path d="M 1 1 L 1 125 L 24 125 L 24 1 L 1 1 M 0 0 L 25 0 L 25 126 L 0 126 L 0 0 Z" stroke="none" fill="#cca05a"/>
    </g>
    <g id="Trazado_656560" data-name="Trazado 656560" transform="translate(682 13164)" fill="#ffdcb4">
      <path d="M 24.5 163.5 L 0.5 163.5 L 0.5 0.5 L 24.5 0.5 L 24.5 163.5 Z" stroke="none"/>
      <path d="M 1 1 L 1 163 L 24 163 L 24 1 L 1 1 M 0 0 L 25 0 L 25 164 L 0 164 L 0 0 Z" stroke="none" fill="#cca05a"/>
    </g>
    <g id="Trazado_656561" data-name="Trazado 656561" transform="translate(713 13156)" fill="#ffdcb4">
      <path d="M 24.5 171.5 L 0.5 171.5 L 0.5 0.5 L 24.5 0.5 L 24.5 171.5 Z" stroke="none"/>
      <path d="M 1 1 L 1 171 L 24 171 L 24 1 L 1 1 M 0 0 L 25 0 L 25 172 L 0 172 L 0 0 Z" stroke="none" fill="#cca05a"/>
    </g>
    <g id="Trazado_656562" data-name="Trazado 656562" transform="translate(744 13137)" fill="#efb97c">
      <path d="M 24.5 190.5 L 0.5 190.5 L 0.5 0.5 L 24.5 0.5 L 24.5 190.5 Z" stroke="none"/>
      <path d="M 1 1 L 1 190 L 24 190 L 24 1 L 1 1 M 0 0 L 25 0 L 25 191 L 0 191 L 0 0 Z" stroke="none" fill="#cca05a"/>
    </g>
    <g id="Trazado_656563" data-name="Trazado 656563" transform="translate(880.813 13232)" fill="#ffdcb4">
      <path d="M 24.5 95.5 L 0.5 95.5 L 0.5 0.5 L 24.5 0.5 L 24.5 95.5 Z" stroke="none"/>
      <path d="M 1 1 L 1 95 L 24 95 L 24 1 L 1 1 M 0 0 L 25 0 L 25 96 L 0 96 L 0 0 Z" stroke="none" fill="#cca05a"/>
    </g>
    <g id="Trazado_656564" data-name="Trazado 656564" transform="translate(911.813 13211)" fill="#ffdcb4">
      <path d="M 24.5 116.5 L 0.5 116.5 L 0.5 0.5 L 24.5 0.5 L 24.5 116.5 Z" stroke="none"/>
      <path d="M 1 1 L 1 116 L 24 116 L 24 1 L 1 1 M 0 0 L 25 0 L 25 117 L 0 117 L 0 0 Z" stroke="none" fill="#cca05a"/>
    </g>
    <g id="Trazado_656565" data-name="Trazado 656565" transform="translate(942.813 13185)" fill="#ffdcb4">
      <path d="M 24.5 142.5 L 0.5 142.5 L 0.5 0.5 L 24.5 0.5 L 24.5 142.5 Z" stroke="none"/>
      <path d="M 1 1 L 1 142 L 24 142 L 24 1 L 1 1 M 0 0 L 25 0 L 25 143 L 0 143 L 0 0 Z" stroke="none" fill="#cca05a"/>
    </g>
    <g id="Trazado_656566" data-name="Trazado 656566" transform="translate(973.813 13168)" fill="#ffdcb4">
      <path d="M 24.5 159.5 L 0.5 159.5 L 0.5 0.5 L 24.5 0.5 L 24.5 159.5 Z" stroke="none"/>
      <path d="M 1 1 L 1 159 L 24 159 L 24 1 L 1 1 M 0 0 L 25 0 L 25 160 L 0 160 L 0 0 Z" stroke="none" fill="#cca05a"/>
    </g>
    <g id="Trazado_656567" data-name="Trazado 656567" transform="translate(1004.813 13146)" fill="#ffdcb4">
      <path d="M 24.5 181.5 L 0.5 181.5 L 0.5 0.5 L 24.5 0.5 L 24.5 181.5 Z" stroke="none"/>
      <path d="M 1 1 L 1 181 L 24 181 L 24 1 L 1 1 M 0 0 L 25 0 L 25 182 L 0 182 L 0 0 Z" stroke="none" fill="#cca05a"/>
    </g>
    <g id="Trazado_656568" data-name="Trazado 656568" transform="translate(1035.813 13127)" fill="#f0c18b">
      <path d="M 24.5 200.5 L 0.5 200.5 L 0.5 0.5 L 24.5 0.5 L 24.5 200.5 Z" stroke="none"/>
      <path d="M 1 1 L 1 200 L 24 200 L 24 1 L 1 1 M 0 0 L 25 0 L 25 201 L 0 201 L 0 0 Z" stroke="none" fill="#cca05a"/>
    </g>
    <path id="Trazado_656569" data-name="Trazado 656569" d="M5.249,0H.591V-.649L3.052-3.384a5.847,5.847,0,0,0,.754-1.008,1.683,1.683,0,0,0,.208-.8,1.276,1.276,0,0,0-.337-.913,1.178,1.178,0,0,0-.9-.356,1.4,1.4,0,0,0-1.047.383,1.464,1.464,0,0,0-.374,1.067h-.9A2.1,2.1,0,0,1,1.086-6.6a2.344,2.344,0,0,1,1.692-.605,2.252,2.252,0,0,1,1.567.52A1.774,1.774,0,0,1,4.922-5.3,4.067,4.067,0,0,1,3.584-2.8L1.68-.737H5.249Zm5.415-3.032a4.131,4.131,0,0,1-.542,2.358A1.928,1.928,0,0,1,8.428.1,1.942,1.942,0,0,1,6.743-.657,3.921,3.921,0,0,1,6.177-2.91V-4.116a4.039,4.039,0,0,1,.542-2.329,1.942,1.942,0,0,1,1.7-.762,1.96,1.96,0,0,1,1.689.735A3.9,3.9,0,0,1,10.664-4.2Zm-.9-1.235A3.31,3.31,0,0,0,9.438-5.94a1.109,1.109,0,0,0-1.021-.525,1.1,1.1,0,0,0-1.011.522A3.232,3.232,0,0,0,7.08-4.336v1.445a3.363,3.363,0,0,0,.334,1.7A1.107,1.107,0,0,0,8.428-.64a1.092,1.092,0,0,0,.994-.518,3.241,3.241,0,0,0,.339-1.631Zm6.519,1.235a4.131,4.131,0,0,1-.542,2.358A1.928,1.928,0,0,1,14.043.1a1.942,1.942,0,0,1-1.685-.754,3.921,3.921,0,0,1-.566-2.253V-4.116a4.039,4.039,0,0,1,.542-2.329,1.942,1.942,0,0,1,1.7-.762,1.96,1.96,0,0,1,1.689.735A3.9,3.9,0,0,1,16.279-4.2Zm-.9-1.235a3.31,3.31,0,0,0-.322-1.672,1.109,1.109,0,0,0-1.021-.525,1.1,1.1,0,0,0-1.011.522A3.232,3.232,0,0,0,12.7-4.336v1.445a3.363,3.363,0,0,0,.334,1.7,1.107,1.107,0,0,0,1.013.549,1.092,1.092,0,0,0,.994-.518,3.241,3.241,0,0,0,.339-1.631Zm3.374.273h.679a1.492,1.492,0,0,0,1.006-.337,1.126,1.126,0,0,0,.366-.884,1.1,1.1,0,0,0-1.245-1.25,1.3,1.3,0,0,0-.935.334,1.171,1.171,0,0,0-.349.886h-.9a1.814,1.814,0,0,1,.618-1.4,2.25,2.25,0,0,1,1.57-.559,2.224,2.224,0,0,1,1.577.532A1.923,1.923,0,0,1,21.7-5.2a1.561,1.561,0,0,1-.3.9,1.813,1.813,0,0,1-.818.649,1.747,1.747,0,0,1,.906.615,1.709,1.709,0,0,1,.32,1.05,1.939,1.939,0,0,1-.625,1.519A2.34,2.34,0,0,1,19.561.1a2.4,2.4,0,0,1-1.628-.542A1.8,1.8,0,0,1,17.3-1.875h.908a1.162,1.162,0,0,0,.366.9,1.393,1.393,0,0,0,.981.337,1.367,1.367,0,0,0,1-.342,1.317,1.317,0,0,0,.347-.981,1.2,1.2,0,0,0-.381-.952,1.659,1.659,0,0,0-1.1-.342H18.75Z" transform="translate(589 13347)" fill="#12263f"/>
    <path id="Trazado_656570" data-name="Trazado 656570" d="M5.249,0H.591V-.649L3.052-3.384a5.847,5.847,0,0,0,.754-1.008,1.683,1.683,0,0,0,.208-.8,1.276,1.276,0,0,0-.337-.913,1.178,1.178,0,0,0-.9-.356,1.4,1.4,0,0,0-1.047.383,1.464,1.464,0,0,0-.374,1.067h-.9A2.1,2.1,0,0,1,1.086-6.6a2.344,2.344,0,0,1,1.692-.605,2.252,2.252,0,0,1,1.567.52A1.774,1.774,0,0,1,4.922-5.3,4.067,4.067,0,0,1,3.584-2.8L1.68-.737H5.249Zm5.415-3.032a4.131,4.131,0,0,1-.542,2.358A1.928,1.928,0,0,1,8.428.1,1.942,1.942,0,0,1,6.743-.657,3.921,3.921,0,0,1,6.177-2.91V-4.116a4.039,4.039,0,0,1,.542-2.329,1.942,1.942,0,0,1,1.7-.762,1.96,1.96,0,0,1,1.689.735A3.9,3.9,0,0,1,10.664-4.2Zm-.9-1.235A3.31,3.31,0,0,0,9.438-5.94a1.109,1.109,0,0,0-1.021-.525,1.1,1.1,0,0,0-1.011.522A3.232,3.232,0,0,0,7.08-4.336v1.445a3.363,3.363,0,0,0,.334,1.7A1.107,1.107,0,0,0,8.428-.64a1.092,1.092,0,0,0,.994-.518,3.241,3.241,0,0,0,.339-1.631Zm6.519,1.235a4.131,4.131,0,0,1-.542,2.358A1.928,1.928,0,0,1,14.043.1a1.942,1.942,0,0,1-1.685-.754,3.921,3.921,0,0,1-.566-2.253V-4.116a4.039,4.039,0,0,1,.542-2.329,1.942,1.942,0,0,1,1.7-.762,1.96,1.96,0,0,1,1.689.735A3.9,3.9,0,0,1,16.279-4.2Zm-.9-1.235a3.31,3.31,0,0,0-.322-1.672,1.109,1.109,0,0,0-1.021-.525,1.1,1.1,0,0,0-1.011.522A3.232,3.232,0,0,0,12.7-4.336v1.445a3.363,3.363,0,0,0,.334,1.7,1.107,1.107,0,0,0,1.013.549,1.092,1.092,0,0,0,.994-.518,3.241,3.241,0,0,0,.339-1.631Zm5.874,1.88h.986v.737H21.25V0h-.908V-1.65H17.1v-.532l3.184-4.927h.962Zm-3.12,0h2.212V-5.874l-.107.2Z" transform="translate(621 13347)" fill="#12263f"/>
    <path id="Trazado_656571" data-name="Trazado 656571" d="M5.249,0H.591V-.649L3.052-3.384a5.847,5.847,0,0,0,.754-1.008,1.683,1.683,0,0,0,.208-.8,1.276,1.276,0,0,0-.337-.913,1.178,1.178,0,0,0-.9-.356,1.4,1.4,0,0,0-1.047.383,1.464,1.464,0,0,0-.374,1.067h-.9A2.1,2.1,0,0,1,1.086-6.6a2.344,2.344,0,0,1,1.692-.605,2.252,2.252,0,0,1,1.567.52A1.774,1.774,0,0,1,4.922-5.3,4.067,4.067,0,0,1,3.584-2.8L1.68-.737H5.249Zm5.415-3.032a4.131,4.131,0,0,1-.542,2.358A1.928,1.928,0,0,1,8.428.1,1.942,1.942,0,0,1,6.743-.657,3.921,3.921,0,0,1,6.177-2.91V-4.116a4.039,4.039,0,0,1,.542-2.329,1.942,1.942,0,0,1,1.7-.762,1.96,1.96,0,0,1,1.689.735A3.9,3.9,0,0,1,10.664-4.2Zm-.9-1.235A3.31,3.31,0,0,0,9.438-5.94a1.109,1.109,0,0,0-1.021-.525,1.1,1.1,0,0,0-1.011.522A3.232,3.232,0,0,0,7.08-4.336v1.445a3.363,3.363,0,0,0,.334,1.7A1.107,1.107,0,0,0,8.428-.64a1.092,1.092,0,0,0,.994-.518,3.241,3.241,0,0,0,.339-1.631Zm6.519,1.235a4.131,4.131,0,0,1-.542,2.358A1.928,1.928,0,0,1,14.043.1a1.942,1.942,0,0,1-1.685-.754,3.921,3.921,0,0,1-.566-2.253V-4.116a4.039,4.039,0,0,1,.542-2.329,1.942,1.942,0,0,1,1.7-.762,1.96,1.96,0,0,1,1.689.735A3.9,3.9,0,0,1,16.279-4.2Zm-.9-1.235a3.31,3.31,0,0,0-.322-1.672,1.109,1.109,0,0,0-1.021-.525,1.1,1.1,0,0,0-1.011.522A3.232,3.232,0,0,0,12.7-4.336v1.445a3.363,3.363,0,0,0,.334,1.7,1.107,1.107,0,0,0,1.013.549,1.092,1.092,0,0,0,.994-.518,3.241,3.241,0,0,0,.339-1.631Zm2.476.7.361-3.545h3.643v.835H18.979l-.215,1.938a2.294,2.294,0,0,1,1.187-.308A1.961,1.961,0,0,1,21.494-4a2.516,2.516,0,0,1,.571,1.736,2.429,2.429,0,0,1-.593,1.731A2.162,2.162,0,0,1,19.814.1a2.247,2.247,0,0,1-1.538-.522A2.085,2.085,0,0,1,17.6-1.87h.854a1.435,1.435,0,0,0,.435.92,1.351,1.351,0,0,0,.928.31,1.219,1.219,0,0,0,.989-.43,1.8,1.8,0,0,0,.359-1.187A1.649,1.649,0,0,0,20.774-3.4a1.32,1.32,0,0,0-1.033-.432,1.489,1.489,0,0,0-.928.259l-.239.2Z" transform="translate(653 13347)" fill="#12263f"/>
    <path id="Trazado_656572" data-name="Trazado 656572" d="M5.249,0H.591V-.649L3.052-3.384a5.847,5.847,0,0,0,.754-1.008,1.683,1.683,0,0,0,.208-.8,1.276,1.276,0,0,0-.337-.913,1.178,1.178,0,0,0-.9-.356,1.4,1.4,0,0,0-1.047.383,1.464,1.464,0,0,0-.374,1.067h-.9A2.1,2.1,0,0,1,1.086-6.6a2.344,2.344,0,0,1,1.692-.605,2.252,2.252,0,0,1,1.567.52A1.774,1.774,0,0,1,4.922-5.3,4.067,4.067,0,0,1,3.584-2.8L1.68-.737H5.249Zm5.415-3.032a4.131,4.131,0,0,1-.542,2.358A1.928,1.928,0,0,1,8.428.1,1.942,1.942,0,0,1,6.743-.657,3.921,3.921,0,0,1,6.177-2.91V-4.116a4.039,4.039,0,0,1,.542-2.329,1.942,1.942,0,0,1,1.7-.762,1.96,1.96,0,0,1,1.689.735A3.9,3.9,0,0,1,10.664-4.2Zm-.9-1.235A3.31,3.31,0,0,0,9.438-5.94a1.109,1.109,0,0,0-1.021-.525,1.1,1.1,0,0,0-1.011.522A3.232,3.232,0,0,0,7.08-4.336v1.445a3.363,3.363,0,0,0,.334,1.7A1.107,1.107,0,0,0,8.428-.64a1.092,1.092,0,0,0,.994-.518,3.241,3.241,0,0,0,.339-1.631Zm6.519,1.235a4.131,4.131,0,0,1-.542,2.358A1.928,1.928,0,0,1,14.043.1a1.942,1.942,0,0,1-1.685-.754,3.921,3.921,0,0,1-.566-2.253V-4.116a4.039,4.039,0,0,1,.542-2.329,1.942,1.942,0,0,1,1.7-.762,1.96,1.96,0,0,1,1.689.735A3.9,3.9,0,0,1,16.279-4.2Zm-.9-1.235a3.31,3.31,0,0,0-.322-1.672,1.109,1.109,0,0,0-1.021-.525,1.1,1.1,0,0,0-1.011.522A3.232,3.232,0,0,0,12.7-4.336v1.445a3.363,3.363,0,0,0,.334,1.7,1.107,1.107,0,0,0,1.013.549,1.092,1.092,0,0,0,.994-.518,3.241,3.241,0,0,0,.339-1.631Zm5.605-2.847v.767h-.166a2.378,2.378,0,0,0-1.68.625,2.6,2.6,0,0,0-.723,1.7,1.928,1.928,0,0,1,1.533-.645,1.844,1.844,0,0,1,1.482.654,2.524,2.524,0,0,1,.554,1.689,2.516,2.516,0,0,1-.6,1.758A2.06,2.06,0,0,1,19.78.1a2.029,2.029,0,0,1-1.655-.784,3.106,3.106,0,0,1-.635-2.019v-.347a4.68,4.68,0,0,1,.837-3A3.075,3.075,0,0,1,20.82-7.114Zm-1.187,3.2a1.441,1.441,0,0,0-.854.278,1.45,1.45,0,0,0-.542.7V-2.6a2.332,2.332,0,0,0,.4,1.416,1.185,1.185,0,0,0,.986.537A1.148,1.148,0,0,0,20.74-1.1a1.864,1.864,0,0,0,.349-1.177,1.865,1.865,0,0,0-.354-1.184A1.135,1.135,0,0,0,19.795-3.911Z" transform="translate(683 13347)" fill="#12263f"/>
    <path id="Trazado_656573" data-name="Trazado 656573" d="M5.249,0H.591V-.649L3.052-3.384a5.847,5.847,0,0,0,.754-1.008,1.683,1.683,0,0,0,.208-.8,1.276,1.276,0,0,0-.337-.913,1.178,1.178,0,0,0-.9-.356,1.4,1.4,0,0,0-1.047.383,1.464,1.464,0,0,0-.374,1.067h-.9A2.1,2.1,0,0,1,1.086-6.6a2.344,2.344,0,0,1,1.692-.605,2.252,2.252,0,0,1,1.567.52A1.774,1.774,0,0,1,4.922-5.3,4.067,4.067,0,0,1,3.584-2.8L1.68-.737H5.249Zm5.415-3.032a4.131,4.131,0,0,1-.542,2.358A1.928,1.928,0,0,1,8.428.1,1.942,1.942,0,0,1,6.743-.657,3.921,3.921,0,0,1,6.177-2.91V-4.116a4.039,4.039,0,0,1,.542-2.329,1.942,1.942,0,0,1,1.7-.762,1.96,1.96,0,0,1,1.689.735A3.9,3.9,0,0,1,10.664-4.2Zm-.9-1.235A3.31,3.31,0,0,0,9.438-5.94a1.109,1.109,0,0,0-1.021-.525,1.1,1.1,0,0,0-1.011.522A3.232,3.232,0,0,0,7.08-4.336v1.445a3.363,3.363,0,0,0,.334,1.7A1.107,1.107,0,0,0,8.428-.64a1.092,1.092,0,0,0,.994-.518,3.241,3.241,0,0,0,.339-1.631Zm6.519,1.235a4.131,4.131,0,0,1-.542,2.358A1.928,1.928,0,0,1,14.043.1a1.942,1.942,0,0,1-1.685-.754,3.921,3.921,0,0,1-.566-2.253V-4.116a4.039,4.039,0,0,1,.542-2.329,1.942,1.942,0,0,1,1.7-.762,1.96,1.96,0,0,1,1.689.735A3.9,3.9,0,0,1,16.279-4.2Zm-.9-1.235a3.31,3.31,0,0,0-.322-1.672,1.109,1.109,0,0,0-1.021-.525,1.1,1.1,0,0,0-1.011.522A3.232,3.232,0,0,0,12.7-4.336v1.445a3.363,3.363,0,0,0,.334,1.7,1.107,1.107,0,0,0,1.013.549,1.092,1.092,0,0,0,.994-.518,3.241,3.241,0,0,0,.339-1.631ZM22.026-6.6,19.082,0h-.947l2.935-6.367H17.222v-.742h4.8Z" transform="translate(714 13347)" fill="#12263f"/>
    <path id="Trazado_656574" data-name="Trazado 656574" d="M5.249,0H.591V-.649L3.052-3.384a5.847,5.847,0,0,0,.754-1.008,1.683,1.683,0,0,0,.208-.8,1.276,1.276,0,0,0-.337-.913,1.178,1.178,0,0,0-.9-.356,1.4,1.4,0,0,0-1.047.383,1.464,1.464,0,0,0-.374,1.067h-.9A2.1,2.1,0,0,1,1.086-6.6a2.344,2.344,0,0,1,1.692-.605,2.252,2.252,0,0,1,1.567.52A1.774,1.774,0,0,1,4.922-5.3,4.067,4.067,0,0,1,3.584-2.8L1.68-.737H5.249Zm5.415-3.032a4.131,4.131,0,0,1-.542,2.358A1.928,1.928,0,0,1,8.428.1,1.942,1.942,0,0,1,6.743-.657,3.921,3.921,0,0,1,6.177-2.91V-4.116a4.039,4.039,0,0,1,.542-2.329,1.942,1.942,0,0,1,1.7-.762,1.96,1.96,0,0,1,1.689.735A3.9,3.9,0,0,1,10.664-4.2Zm-.9-1.235A3.31,3.31,0,0,0,9.438-5.94a1.109,1.109,0,0,0-1.021-.525,1.1,1.1,0,0,0-1.011.522A3.232,3.232,0,0,0,7.08-4.336v1.445a3.363,3.363,0,0,0,.334,1.7A1.107,1.107,0,0,0,8.428-.64a1.092,1.092,0,0,0,.994-.518,3.241,3.241,0,0,0,.339-1.631Zm6.519,1.235a4.131,4.131,0,0,1-.542,2.358A1.928,1.928,0,0,1,14.043.1a1.942,1.942,0,0,1-1.685-.754,3.921,3.921,0,0,1-.566-2.253V-4.116a4.039,4.039,0,0,1,.542-2.329,1.942,1.942,0,0,1,1.7-.762,1.96,1.96,0,0,1,1.689.735A3.9,3.9,0,0,1,16.279-4.2Zm-.9-1.235a3.31,3.31,0,0,0-.322-1.672,1.109,1.109,0,0,0-1.021-.525,1.1,1.1,0,0,0-1.011.522A3.232,3.232,0,0,0,12.7-4.336v1.445a3.363,3.363,0,0,0,.334,1.7,1.107,1.107,0,0,0,1.013.549,1.092,1.092,0,0,0,.994-.518,3.241,3.241,0,0,0,.339-1.631Zm6.372-.986a1.651,1.651,0,0,1-.281.947,1.91,1.91,0,0,1-.759.649,2.038,2.038,0,0,1,.881.7,1.757,1.757,0,0,1,.325,1.04,1.858,1.858,0,0,1-.623,1.47A2.392,2.392,0,0,1,19.653.1,2.381,2.381,0,0,1,18.01-.452a1.866,1.866,0,0,1-.618-1.467,1.81,1.81,0,0,1,.315-1.04,1.96,1.96,0,0,1,.872-.7,1.863,1.863,0,0,1-.747-.649,1.674,1.674,0,0,1-.273-.942,1.838,1.838,0,0,1,.576-1.426,2.161,2.161,0,0,1,1.519-.527,2.163,2.163,0,0,1,1.516.527A1.834,1.834,0,0,1,21.748-5.254Zm-.737,3.315a1.31,1.31,0,0,0-.378-.972,1.342,1.342,0,0,0-.989-.376,1.318,1.318,0,0,0-.979.371,1.325,1.325,0,0,0-.369.977,1.262,1.262,0,0,0,.359.952,1.378,1.378,0,0,0,1,.347,1.373,1.373,0,0,0,1-.349A1.259,1.259,0,0,0,21.011-1.938ZM19.653-6.465a1.166,1.166,0,0,0-.862.33,1.211,1.211,0,0,0-.33.9,1.2,1.2,0,0,0,.325.876,1.152,1.152,0,0,0,.867.334,1.152,1.152,0,0,0,.867-.334,1.2,1.2,0,0,0,.325-.876,1.205,1.205,0,0,0-.337-.884A1.149,1.149,0,0,0,19.653-6.465Z" transform="translate(746 13347)" fill="#12263f"/>
    <path id="Trazado_656575" data-name="Trazado 656575" d="M5.249,0H.591V-.649L3.052-3.384a5.847,5.847,0,0,0,.754-1.008,1.683,1.683,0,0,0,.208-.8,1.276,1.276,0,0,0-.337-.913,1.178,1.178,0,0,0-.9-.356,1.4,1.4,0,0,0-1.047.383,1.464,1.464,0,0,0-.374,1.067h-.9A2.1,2.1,0,0,1,1.086-6.6a2.344,2.344,0,0,1,1.692-.605,2.252,2.252,0,0,1,1.567.52A1.774,1.774,0,0,1,4.922-5.3,4.067,4.067,0,0,1,3.584-2.8L1.68-.737H5.249Zm5.415-3.032a4.131,4.131,0,0,1-.542,2.358A1.928,1.928,0,0,1,8.428.1,1.942,1.942,0,0,1,6.743-.657,3.921,3.921,0,0,1,6.177-2.91V-4.116a4.039,4.039,0,0,1,.542-2.329,1.942,1.942,0,0,1,1.7-.762,1.96,1.96,0,0,1,1.689.735A3.9,3.9,0,0,1,10.664-4.2Zm-.9-1.235A3.31,3.31,0,0,0,9.438-5.94a1.109,1.109,0,0,0-1.021-.525,1.1,1.1,0,0,0-1.011.522A3.232,3.232,0,0,0,7.08-4.336v1.445a3.363,3.363,0,0,0,.334,1.7A1.107,1.107,0,0,0,8.428-.64a1.092,1.092,0,0,0,.994-.518,3.241,3.241,0,0,0,.339-1.631Zm6.519,1.235a4.131,4.131,0,0,1-.542,2.358A1.928,1.928,0,0,1,14.043.1a1.942,1.942,0,0,1-1.685-.754,3.921,3.921,0,0,1-.566-2.253V-4.116a4.039,4.039,0,0,1,.542-2.329,1.942,1.942,0,0,1,1.7-.762,1.96,1.96,0,0,1,1.689.735A3.9,3.9,0,0,1,16.279-4.2Zm-.9-1.235a3.31,3.31,0,0,0-.322-1.672,1.109,1.109,0,0,0-1.021-.525,1.1,1.1,0,0,0-1.011.522A3.232,3.232,0,0,0,12.7-4.336v1.445a3.363,3.363,0,0,0,.334,1.7,1.107,1.107,0,0,0,1.013.549,1.092,1.092,0,0,0,.994-.518,3.241,3.241,0,0,0,.339-1.631Zm3.374.273h.679a1.492,1.492,0,0,0,1.006-.337,1.126,1.126,0,0,0,.366-.884,1.1,1.1,0,0,0-1.245-1.25,1.3,1.3,0,0,0-.935.334,1.171,1.171,0,0,0-.349.886h-.9a1.814,1.814,0,0,1,.618-1.4,2.25,2.25,0,0,1,1.57-.559,2.224,2.224,0,0,1,1.577.532A1.923,1.923,0,0,1,21.7-5.2a1.561,1.561,0,0,1-.3.9,1.813,1.813,0,0,1-.818.649,1.747,1.747,0,0,1,.906.615,1.709,1.709,0,0,1,.32,1.05,1.939,1.939,0,0,1-.625,1.519A2.34,2.34,0,0,1,19.561.1a2.4,2.4,0,0,1-1.628-.542A1.8,1.8,0,0,1,17.3-1.875h.908a1.162,1.162,0,0,0,.366.9,1.393,1.393,0,0,0,.981.337,1.367,1.367,0,0,0,1-.342,1.317,1.317,0,0,0,.347-.981,1.2,1.2,0,0,0-.381-.952,1.659,1.659,0,0,0-1.1-.342H18.75Z" transform="translate(884 13347)" fill="#12263f"/>
    <path id="Trazado_656576" data-name="Trazado 656576" d="M5.249,0H.591V-.649L3.052-3.384a5.847,5.847,0,0,0,.754-1.008,1.683,1.683,0,0,0,.208-.8,1.276,1.276,0,0,0-.337-.913,1.178,1.178,0,0,0-.9-.356,1.4,1.4,0,0,0-1.047.383,1.464,1.464,0,0,0-.374,1.067h-.9A2.1,2.1,0,0,1,1.086-6.6a2.344,2.344,0,0,1,1.692-.605,2.252,2.252,0,0,1,1.567.52A1.774,1.774,0,0,1,4.922-5.3,4.067,4.067,0,0,1,3.584-2.8L1.68-.737H5.249Zm5.415-3.032a4.131,4.131,0,0,1-.542,2.358A1.928,1.928,0,0,1,8.428.1,1.942,1.942,0,0,1,6.743-.657,3.921,3.921,0,0,1,6.177-2.91V-4.116a4.039,4.039,0,0,1,.542-2.329,1.942,1.942,0,0,1,1.7-.762,1.96,1.96,0,0,1,1.689.735A3.9,3.9,0,0,1,10.664-4.2Zm-.9-1.235A3.31,3.31,0,0,0,9.438-5.94a1.109,1.109,0,0,0-1.021-.525,1.1,1.1,0,0,0-1.011.522A3.232,3.232,0,0,0,7.08-4.336v1.445a3.363,3.363,0,0,0,.334,1.7A1.107,1.107,0,0,0,8.428-.64a1.092,1.092,0,0,0,.994-.518,3.241,3.241,0,0,0,.339-1.631Zm6.519,1.235a4.131,4.131,0,0,1-.542,2.358A1.928,1.928,0,0,1,14.043.1a1.942,1.942,0,0,1-1.685-.754,3.921,3.921,0,0,1-.566-2.253V-4.116a4.039,4.039,0,0,1,.542-2.329,1.942,1.942,0,0,1,1.7-.762,1.96,1.96,0,0,1,1.689.735A3.9,3.9,0,0,1,16.279-4.2Zm-.9-1.235a3.31,3.31,0,0,0-.322-1.672,1.109,1.109,0,0,0-1.021-.525,1.1,1.1,0,0,0-1.011.522A3.232,3.232,0,0,0,12.7-4.336v1.445a3.363,3.363,0,0,0,.334,1.7,1.107,1.107,0,0,0,1.013.549,1.092,1.092,0,0,0,.994-.518,3.241,3.241,0,0,0,.339-1.631Zm5.874,1.88h.986v.737H21.25V0h-.908V-1.65H17.1v-.532l3.184-4.927h.962Zm-3.12,0h2.212V-5.874l-.107.2Z" transform="translate(916 13347)" fill="#12263f"/>
    <path id="Trazado_656577" data-name="Trazado 656577" d="M5.249,0H.591V-.649L3.052-3.384a5.847,5.847,0,0,0,.754-1.008,1.683,1.683,0,0,0,.208-.8,1.276,1.276,0,0,0-.337-.913,1.178,1.178,0,0,0-.9-.356,1.4,1.4,0,0,0-1.047.383,1.464,1.464,0,0,0-.374,1.067h-.9A2.1,2.1,0,0,1,1.086-6.6a2.344,2.344,0,0,1,1.692-.605,2.252,2.252,0,0,1,1.567.52A1.774,1.774,0,0,1,4.922-5.3,4.067,4.067,0,0,1,3.584-2.8L1.68-.737H5.249Zm5.415-3.032a4.131,4.131,0,0,1-.542,2.358A1.928,1.928,0,0,1,8.428.1,1.942,1.942,0,0,1,6.743-.657,3.921,3.921,0,0,1,6.177-2.91V-4.116a4.039,4.039,0,0,1,.542-2.329,1.942,1.942,0,0,1,1.7-.762,1.96,1.96,0,0,1,1.689.735A3.9,3.9,0,0,1,10.664-4.2Zm-.9-1.235A3.31,3.31,0,0,0,9.438-5.94a1.109,1.109,0,0,0-1.021-.525,1.1,1.1,0,0,0-1.011.522A3.232,3.232,0,0,0,7.08-4.336v1.445a3.363,3.363,0,0,0,.334,1.7A1.107,1.107,0,0,0,8.428-.64a1.092,1.092,0,0,0,.994-.518,3.241,3.241,0,0,0,.339-1.631Zm6.519,1.235a4.131,4.131,0,0,1-.542,2.358A1.928,1.928,0,0,1,14.043.1a1.942,1.942,0,0,1-1.685-.754,3.921,3.921,0,0,1-.566-2.253V-4.116a4.039,4.039,0,0,1,.542-2.329,1.942,1.942,0,0,1,1.7-.762,1.96,1.96,0,0,1,1.689.735A3.9,3.9,0,0,1,16.279-4.2Zm-.9-1.235a3.31,3.31,0,0,0-.322-1.672,1.109,1.109,0,0,0-1.021-.525,1.1,1.1,0,0,0-1.011.522A3.232,3.232,0,0,0,12.7-4.336v1.445a3.363,3.363,0,0,0,.334,1.7,1.107,1.107,0,0,0,1.013.549,1.092,1.092,0,0,0,.994-.518,3.241,3.241,0,0,0,.339-1.631Zm2.476.7.361-3.545h3.643v.835H18.979l-.215,1.938a2.294,2.294,0,0,1,1.187-.308A1.961,1.961,0,0,1,21.494-4a2.516,2.516,0,0,1,.571,1.736,2.429,2.429,0,0,1-.593,1.731A2.162,2.162,0,0,1,19.814.1a2.247,2.247,0,0,1-1.538-.522A2.085,2.085,0,0,1,17.6-1.87h.854a1.435,1.435,0,0,0,.435.92,1.351,1.351,0,0,0,.928.31,1.219,1.219,0,0,0,.989-.43,1.8,1.8,0,0,0,.359-1.187A1.649,1.649,0,0,0,20.774-3.4a1.32,1.32,0,0,0-1.033-.432,1.489,1.489,0,0,0-.928.259l-.239.2Z" transform="translate(948 13347)" fill="#12263f"/>
    <path id="Trazado_656578" data-name="Trazado 656578" d="M5.249,0H.591V-.649L3.052-3.384a5.847,5.847,0,0,0,.754-1.008,1.683,1.683,0,0,0,.208-.8,1.276,1.276,0,0,0-.337-.913,1.178,1.178,0,0,0-.9-.356,1.4,1.4,0,0,0-1.047.383,1.464,1.464,0,0,0-.374,1.067h-.9A2.1,2.1,0,0,1,1.086-6.6a2.344,2.344,0,0,1,1.692-.605,2.252,2.252,0,0,1,1.567.52A1.774,1.774,0,0,1,4.922-5.3,4.067,4.067,0,0,1,3.584-2.8L1.68-.737H5.249Zm5.415-3.032a4.131,4.131,0,0,1-.542,2.358A1.928,1.928,0,0,1,8.428.1,1.942,1.942,0,0,1,6.743-.657,3.921,3.921,0,0,1,6.177-2.91V-4.116a4.039,4.039,0,0,1,.542-2.329,1.942,1.942,0,0,1,1.7-.762,1.96,1.96,0,0,1,1.689.735A3.9,3.9,0,0,1,10.664-4.2Zm-.9-1.235A3.31,3.31,0,0,0,9.438-5.94a1.109,1.109,0,0,0-1.021-.525,1.1,1.1,0,0,0-1.011.522A3.232,3.232,0,0,0,7.08-4.336v1.445a3.363,3.363,0,0,0,.334,1.7A1.107,1.107,0,0,0,8.428-.64a1.092,1.092,0,0,0,.994-.518,3.241,3.241,0,0,0,.339-1.631Zm6.519,1.235a4.131,4.131,0,0,1-.542,2.358A1.928,1.928,0,0,1,14.043.1a1.942,1.942,0,0,1-1.685-.754,3.921,3.921,0,0,1-.566-2.253V-4.116a4.039,4.039,0,0,1,.542-2.329,1.942,1.942,0,0,1,1.7-.762,1.96,1.96,0,0,1,1.689.735A3.9,3.9,0,0,1,16.279-4.2Zm-.9-1.235a3.31,3.31,0,0,0-.322-1.672,1.109,1.109,0,0,0-1.021-.525,1.1,1.1,0,0,0-1.011.522A3.232,3.232,0,0,0,12.7-4.336v1.445a3.363,3.363,0,0,0,.334,1.7,1.107,1.107,0,0,0,1.013.549,1.092,1.092,0,0,0,.994-.518,3.241,3.241,0,0,0,.339-1.631Zm5.605-2.847v.767h-.166a2.378,2.378,0,0,0-1.68.625,2.6,2.6,0,0,0-.723,1.7,1.928,1.928,0,0,1,1.533-.645,1.844,1.844,0,0,1,1.482.654,2.524,2.524,0,0,1,.554,1.689,2.516,2.516,0,0,1-.6,1.758A2.06,2.06,0,0,1,19.78.1a2.029,2.029,0,0,1-1.655-.784,3.106,3.106,0,0,1-.635-2.019v-.347a4.68,4.68,0,0,1,.837-3A3.075,3.075,0,0,1,20.82-7.114Zm-1.187,3.2a1.441,1.441,0,0,0-.854.278,1.45,1.45,0,0,0-.542.7V-2.6a2.332,2.332,0,0,0,.4,1.416,1.185,1.185,0,0,0,.986.537A1.148,1.148,0,0,0,20.74-1.1a1.864,1.864,0,0,0,.349-1.177,1.865,1.865,0,0,0-.354-1.184A1.135,1.135,0,0,0,19.795-3.911Z" transform="translate(978 13347)" fill="#12263f"/>
    <path id="Trazado_656579" data-name="Trazado 656579" d="M5.249,0H.591V-.649L3.052-3.384a5.847,5.847,0,0,0,.754-1.008,1.683,1.683,0,0,0,.208-.8,1.276,1.276,0,0,0-.337-.913,1.178,1.178,0,0,0-.9-.356,1.4,1.4,0,0,0-1.047.383,1.464,1.464,0,0,0-.374,1.067h-.9A2.1,2.1,0,0,1,1.086-6.6a2.344,2.344,0,0,1,1.692-.605,2.252,2.252,0,0,1,1.567.52A1.774,1.774,0,0,1,4.922-5.3,4.067,4.067,0,0,1,3.584-2.8L1.68-.737H5.249Zm5.415-3.032a4.131,4.131,0,0,1-.542,2.358A1.928,1.928,0,0,1,8.428.1,1.942,1.942,0,0,1,6.743-.657,3.921,3.921,0,0,1,6.177-2.91V-4.116a4.039,4.039,0,0,1,.542-2.329,1.942,1.942,0,0,1,1.7-.762,1.96,1.96,0,0,1,1.689.735A3.9,3.9,0,0,1,10.664-4.2Zm-.9-1.235A3.31,3.31,0,0,0,9.438-5.94a1.109,1.109,0,0,0-1.021-.525,1.1,1.1,0,0,0-1.011.522A3.232,3.232,0,0,0,7.08-4.336v1.445a3.363,3.363,0,0,0,.334,1.7A1.107,1.107,0,0,0,8.428-.64a1.092,1.092,0,0,0,.994-.518,3.241,3.241,0,0,0,.339-1.631Zm6.519,1.235a4.131,4.131,0,0,1-.542,2.358A1.928,1.928,0,0,1,14.043.1a1.942,1.942,0,0,1-1.685-.754,3.921,3.921,0,0,1-.566-2.253V-4.116a4.039,4.039,0,0,1,.542-2.329,1.942,1.942,0,0,1,1.7-.762,1.96,1.96,0,0,1,1.689.735A3.9,3.9,0,0,1,16.279-4.2Zm-.9-1.235a3.31,3.31,0,0,0-.322-1.672,1.109,1.109,0,0,0-1.021-.525,1.1,1.1,0,0,0-1.011.522A3.232,3.232,0,0,0,12.7-4.336v1.445a3.363,3.363,0,0,0,.334,1.7,1.107,1.107,0,0,0,1.013.549,1.092,1.092,0,0,0,.994-.518,3.241,3.241,0,0,0,.339-1.631ZM22.026-6.6,19.082,0h-.947l2.935-6.367H17.222v-.742h4.8Z" transform="translate(1009 13347)" fill="#12263f"/>
    <path id="Trazado_656580" data-name="Trazado 656580" d="M5.249,0H.591V-.649L3.052-3.384a5.847,5.847,0,0,0,.754-1.008,1.683,1.683,0,0,0,.208-.8,1.276,1.276,0,0,0-.337-.913,1.178,1.178,0,0,0-.9-.356,1.4,1.4,0,0,0-1.047.383,1.464,1.464,0,0,0-.374,1.067h-.9A2.1,2.1,0,0,1,1.086-6.6a2.344,2.344,0,0,1,1.692-.605,2.252,2.252,0,0,1,1.567.52A1.774,1.774,0,0,1,4.922-5.3,4.067,4.067,0,0,1,3.584-2.8L1.68-.737H5.249Zm5.415-3.032a4.131,4.131,0,0,1-.542,2.358A1.928,1.928,0,0,1,8.428.1,1.942,1.942,0,0,1,6.743-.657,3.921,3.921,0,0,1,6.177-2.91V-4.116a4.039,4.039,0,0,1,.542-2.329,1.942,1.942,0,0,1,1.7-.762,1.96,1.96,0,0,1,1.689.735A3.9,3.9,0,0,1,10.664-4.2Zm-.9-1.235A3.31,3.31,0,0,0,9.438-5.94a1.109,1.109,0,0,0-1.021-.525,1.1,1.1,0,0,0-1.011.522A3.232,3.232,0,0,0,7.08-4.336v1.445a3.363,3.363,0,0,0,.334,1.7A1.107,1.107,0,0,0,8.428-.64a1.092,1.092,0,0,0,.994-.518,3.241,3.241,0,0,0,.339-1.631Zm6.519,1.235a4.131,4.131,0,0,1-.542,2.358A1.928,1.928,0,0,1,14.043.1a1.942,1.942,0,0,1-1.685-.754,3.921,3.921,0,0,1-.566-2.253V-4.116a4.039,4.039,0,0,1,.542-2.329,1.942,1.942,0,0,1,1.7-.762,1.96,1.96,0,0,1,1.689.735A3.9,3.9,0,0,1,16.279-4.2Zm-.9-1.235a3.31,3.31,0,0,0-.322-1.672,1.109,1.109,0,0,0-1.021-.525,1.1,1.1,0,0,0-1.011.522A3.232,3.232,0,0,0,12.7-4.336v1.445a3.363,3.363,0,0,0,.334,1.7,1.107,1.107,0,0,0,1.013.549,1.092,1.092,0,0,0,.994-.518,3.241,3.241,0,0,0,.339-1.631Zm6.372-.986a1.651,1.651,0,0,1-.281.947,1.91,1.91,0,0,1-.759.649,2.038,2.038,0,0,1,.881.7,1.757,1.757,0,0,1,.325,1.04,1.858,1.858,0,0,1-.623,1.47A2.392,2.392,0,0,1,19.653.1,2.381,2.381,0,0,1,18.01-.452a1.866,1.866,0,0,1-.618-1.467,1.81,1.81,0,0,1,.315-1.04,1.96,1.96,0,0,1,.872-.7,1.863,1.863,0,0,1-.747-.649,1.674,1.674,0,0,1-.273-.942,1.838,1.838,0,0,1,.576-1.426,2.161,2.161,0,0,1,1.519-.527,2.163,2.163,0,0,1,1.516.527A1.834,1.834,0,0,1,21.748-5.254Zm-.737,3.315a1.31,1.31,0,0,0-.378-.972,1.342,1.342,0,0,0-.989-.376,1.318,1.318,0,0,0-.979.371,1.325,1.325,0,0,0-.369.977,1.262,1.262,0,0,0,.359.952,1.378,1.378,0,0,0,1,.347,1.373,1.373,0,0,0,1-.349A1.259,1.259,0,0,0,21.011-1.938ZM19.653-6.465a1.166,1.166,0,0,0-.862.33,1.211,1.211,0,0,0-.33.9,1.2,1.2,0,0,0,.325.876,1.152,1.152,0,0,0,.867.334,1.152,1.152,0,0,0,.867-.334,1.2,1.2,0,0,0,.325-.876,1.205,1.205,0,0,0-.337-.884A1.149,1.149,0,0,0,19.653-6.465Z" transform="translate(1041 13347)" fill="#12263f"/>
    <path id="Trazado_656581" data-name="Trazado 656581" d="M3.56,0H2.651V-6.021L.83-5.352v-.82l2.588-.972H3.56ZM6.318-.474a.566.566,0,0,1,.139-.391.53.53,0,0,1,.417-.156A.546.546,0,0,1,7.3-.864a.554.554,0,0,1,.144.391A.524.524,0,0,1,7.3-.1a.556.556,0,0,1-.422.151A.54.54,0,0,1,6.458-.1.535.535,0,0,1,6.318-.474Zm3.833-3.521h.679a1.492,1.492,0,0,0,1.006-.337,1.126,1.126,0,0,0,.366-.884,1.1,1.1,0,0,0-1.245-1.25,1.3,1.3,0,0,0-.935.334,1.171,1.171,0,0,0-.349.886h-.9a1.814,1.814,0,0,1,.618-1.4,2.25,2.25,0,0,1,1.57-.559,2.224,2.224,0,0,1,1.577.532A1.923,1.923,0,0,1,13.105-5.2a1.561,1.561,0,0,1-.3.9,1.813,1.813,0,0,1-.818.649,1.747,1.747,0,0,1,.906.615,1.709,1.709,0,0,1,.32,1.05,1.939,1.939,0,0,1-.625,1.519A2.34,2.34,0,0,1,10.962.1,2.4,2.4,0,0,1,9.333-.444a1.8,1.8,0,0,1-.627-1.431h.908a1.162,1.162,0,0,0,.366.9,1.393,1.393,0,0,0,.981.337,1.367,1.367,0,0,0,1-.342,1.317,1.317,0,0,0,.347-.981,1.2,1.2,0,0,0-.381-.952,1.659,1.659,0,0,0-1.1-.342h-.679ZM19.043-6.6,16.1,0h-.947l2.935-6.367H14.238v-.742h4.8ZM23.037,0h-.908V-6.021l-1.821.669v-.82L22.9-7.144h.142Zm2.71,1.416-.513-.352a2.356,2.356,0,0,0,.479-1.318v-.815H26.6v.708a2.224,2.224,0,0,1-.242.986A2.309,2.309,0,0,1,25.747,1.416ZM30.615,0h-.908V-6.021l-1.821.669v-.82l2.588-.972h.142Z" transform="translate(605 13285) rotate(-90)" fill="#12263f"/>
    <path id="Trazado_656582" data-name="Trazado 656582" d="M3.56,0H2.651V-6.021L.83-5.352v-.82l2.588-.972H3.56ZM6.318-.474a.566.566,0,0,1,.139-.391.53.53,0,0,1,.417-.156A.546.546,0,0,1,7.3-.864a.554.554,0,0,1,.144.391A.524.524,0,0,1,7.3-.1a.556.556,0,0,1-.422.151A.54.54,0,0,1,6.458-.1.535.535,0,0,1,6.318-.474Zm6.064-6.641v.767h-.166a2.378,2.378,0,0,0-1.68.625,2.6,2.6,0,0,0-.723,1.7,1.928,1.928,0,0,1,1.533-.645,1.844,1.844,0,0,1,1.482.654,2.524,2.524,0,0,1,.554,1.689,2.516,2.516,0,0,1-.6,1.758,2.06,2.06,0,0,1-1.6.659A2.029,2.029,0,0,1,9.526-.686a3.106,3.106,0,0,1-.635-2.019v-.347a4.68,4.68,0,0,1,.837-3,3.075,3.075,0,0,1,2.493-1.062ZM11.2-3.911a1.441,1.441,0,0,0-.854.278,1.45,1.45,0,0,0-.542.7V-2.6a2.332,2.332,0,0,0,.4,1.416,1.185,1.185,0,0,0,.986.537,1.148,1.148,0,0,0,.959-.449,1.864,1.864,0,0,0,.349-1.177,1.865,1.865,0,0,0-.354-1.184A1.135,1.135,0,0,0,11.2-3.911Zm3.672.347.361-3.545h3.643v.835H16l-.215,1.938a2.294,2.294,0,0,1,1.187-.308A1.961,1.961,0,0,1,18.511-4a2.516,2.516,0,0,1,.571,1.736,2.429,2.429,0,0,1-.593,1.731A2.162,2.162,0,0,1,16.831.1a2.247,2.247,0,0,1-1.538-.522,2.085,2.085,0,0,1-.679-1.445h.854a1.435,1.435,0,0,0,.435.92,1.351,1.351,0,0,0,.928.31,1.219,1.219,0,0,0,.989-.43,1.8,1.8,0,0,0,.359-1.187A1.649,1.649,0,0,0,17.791-3.4a1.32,1.32,0,0,0-1.033-.432,1.489,1.489,0,0,0-.928.259l-.239.2Zm8.745-3.55v.767h-.166a2.378,2.378,0,0,0-1.68.625,2.6,2.6,0,0,0-.723,1.7,1.928,1.928,0,0,1,1.533-.645,1.844,1.844,0,0,1,1.482.654,2.524,2.524,0,0,1,.554,1.689,2.516,2.516,0,0,1-.6,1.758,2.06,2.06,0,0,1-1.6.659,2.029,2.029,0,0,1-1.655-.784,3.106,3.106,0,0,1-.635-2.019v-.347a4.68,4.68,0,0,1,.837-3,3.075,3.075,0,0,1,2.493-1.062Zm-1.187,3.2a1.441,1.441,0,0,0-.854.278,1.45,1.45,0,0,0-.542.7V-2.6a2.332,2.332,0,0,0,.4,1.416,1.185,1.185,0,0,0,.986.537,1.148,1.148,0,0,0,.959-.449,1.864,1.864,0,0,0,.349-1.177,1.865,1.865,0,0,0-.354-1.184A1.135,1.135,0,0,0,22.427-3.911Zm3.32,5.327-.513-.352a2.356,2.356,0,0,0,.479-1.318v-.815H26.6v.708a2.224,2.224,0,0,1-.242.986A2.309,2.309,0,0,1,25.747,1.416Zm3.213-5.41h.679a1.492,1.492,0,0,0,1.006-.337,1.126,1.126,0,0,0,.366-.884,1.1,1.1,0,0,0-1.245-1.25,1.3,1.3,0,0,0-.935.334,1.171,1.171,0,0,0-.349.886h-.9a1.814,1.814,0,0,1,.618-1.4,2.25,2.25,0,0,1,1.57-.559,2.224,2.224,0,0,1,1.577.532A1.923,1.923,0,0,1,31.914-5.2a1.561,1.561,0,0,1-.3.9,1.813,1.813,0,0,1-.818.649,1.747,1.747,0,0,1,.906.615,1.709,1.709,0,0,1,.32,1.05A1.939,1.939,0,0,1,31.4-.464,2.34,2.34,0,0,1,29.771.1a2.4,2.4,0,0,1-1.628-.542,1.8,1.8,0,0,1-.627-1.431h.908a1.162,1.162,0,0,0,.366.9,1.393,1.393,0,0,0,.981.337,1.367,1.367,0,0,0,1-.342,1.317,1.317,0,0,0,.347-.981,1.2,1.2,0,0,0-.381-.952,1.659,1.659,0,0,0-1.1-.342H28.96Z" transform="translate(636 13269) rotate(-90)" fill="#12263f"/>
    <path id="Trazado_656583" data-name="Trazado 656583" d="M3.56,0H2.651V-6.021L.83-5.352v-.82l2.588-.972H3.56ZM6.318-.474a.566.566,0,0,1,.139-.391.53.53,0,0,1,.417-.156A.546.546,0,0,1,7.3-.864a.554.554,0,0,1,.144.391A.524.524,0,0,1,7.3-.1a.556.556,0,0,1-.422.151A.54.54,0,0,1,6.458-.1.535.535,0,0,1,6.318-.474ZM12.3-3.125a2.21,2.21,0,0,1-.676.542,1.835,1.835,0,0,1-.862.205,1.894,1.894,0,0,1-1.072-.3,1.968,1.968,0,0,1-.706-.852,2.9,2.9,0,0,1-.249-1.213A2.96,2.96,0,0,1,9.006-6.03,1.991,1.991,0,0,1,9.775-6.9a2.193,2.193,0,0,1,1.162-.3,1.985,1.985,0,0,1,1.663.789,3.44,3.44,0,0,1,.608,2.151V-4a4.6,4.6,0,0,1-.82,3.03A3.152,3.152,0,0,1,9.912,0H9.736V-.762h.19a2.487,2.487,0,0,0,1.719-.582A2.5,2.5,0,0,0,12.3-3.125Zm-1.392,0a1.4,1.4,0,0,0,.837-.278,1.641,1.641,0,0,0,.559-.688v-.361A2.486,2.486,0,0,0,11.919-5.9a1.151,1.151,0,0,0-.977-.557A1.16,1.16,0,0,0,9.985-6a1.883,1.883,0,0,0-.361,1.2,1.96,1.96,0,0,0,.349,1.2A1.105,1.105,0,0,0,10.908-3.125Zm7.007,0a2.21,2.21,0,0,1-.676.542,1.835,1.835,0,0,1-.862.205,1.894,1.894,0,0,1-1.072-.3,1.968,1.968,0,0,1-.706-.852,2.9,2.9,0,0,1-.249-1.213,2.96,2.96,0,0,1,.271-1.284,1.991,1.991,0,0,1,.769-.874,2.193,2.193,0,0,1,1.162-.3,1.985,1.985,0,0,1,1.663.789,3.44,3.44,0,0,1,.608,2.151V-4A4.6,4.6,0,0,1,18-.974,3.152,3.152,0,0,1,15.527,0h-.176V-.762h.19a2.487,2.487,0,0,0,1.719-.582A2.5,2.5,0,0,0,17.915-3.125Zm-1.392,0a1.4,1.4,0,0,0,.837-.278,1.641,1.641,0,0,0,.559-.688v-.361A2.486,2.486,0,0,0,17.534-5.9a1.151,1.151,0,0,0-.977-.557A1.16,1.16,0,0,0,15.6-6a1.883,1.883,0,0,0-.361,1.2,1.96,1.96,0,0,0,.349,1.2A1.105,1.105,0,0,0,16.523-3.125Zm8,.093a4.131,4.131,0,0,1-.542,2.358A1.928,1.928,0,0,1,22.29.1a1.942,1.942,0,0,1-1.685-.754,3.921,3.921,0,0,1-.566-2.253V-4.116a4.039,4.039,0,0,1,.542-2.329,1.942,1.942,0,0,1,1.7-.762,1.96,1.96,0,0,1,1.689.735A3.9,3.9,0,0,1,24.526-4.2Zm-.9-1.235A3.31,3.31,0,0,0,23.3-5.94a1.109,1.109,0,0,0-1.021-.525,1.1,1.1,0,0,0-1.011.522,3.232,3.232,0,0,0-.327,1.606v1.445a3.363,3.363,0,0,0,.334,1.7A1.107,1.107,0,0,0,22.29-.64a1.092,1.092,0,0,0,.994-.518,3.241,3.241,0,0,0,.339-1.631Zm2.124,5.684-.513-.352a2.356,2.356,0,0,0,.479-1.318v-.815H26.6v.708a2.224,2.224,0,0,1-.242.986A2.309,2.309,0,0,1,25.747,1.416ZM32.1-3.032a4.131,4.131,0,0,1-.542,2.358A1.928,1.928,0,0,1,29.868.1a1.942,1.942,0,0,1-1.685-.754,3.921,3.921,0,0,1-.566-2.253V-4.116a4.039,4.039,0,0,1,.542-2.329,1.942,1.942,0,0,1,1.7-.762,1.96,1.96,0,0,1,1.689.735A3.9,3.9,0,0,1,32.1-4.2Zm-.9-1.235a3.31,3.31,0,0,0-.322-1.672,1.109,1.109,0,0,0-1.021-.525,1.1,1.1,0,0,0-1.011.522,3.232,3.232,0,0,0-.327,1.606v1.445a3.363,3.363,0,0,0,.334,1.7,1.107,1.107,0,0,0,1.013.549,1.092,1.092,0,0,0,.994-.518A3.241,3.241,0,0,0,31.2-2.788Z" transform="translate(667 13245) rotate(-90)" fill="#12263f"/>
    <path id="Trazado_656584" data-name="Trazado 656584" d="M5.249,0H.591V-.649L3.052-3.384a5.847,5.847,0,0,0,.754-1.008,1.683,1.683,0,0,0,.208-.8,1.276,1.276,0,0,0-.337-.913,1.178,1.178,0,0,0-.9-.356,1.4,1.4,0,0,0-1.047.383,1.464,1.464,0,0,0-.374,1.067h-.9A2.1,2.1,0,0,1,1.086-6.6a2.344,2.344,0,0,1,1.692-.605,2.252,2.252,0,0,1,1.567.52A1.774,1.774,0,0,1,4.922-5.3,4.067,4.067,0,0,1,3.584-2.8L1.68-.737H5.249ZM6.318-.474a.566.566,0,0,1,.139-.391.53.53,0,0,1,.417-.156A.546.546,0,0,1,7.3-.864a.554.554,0,0,1,.144.391A.524.524,0,0,1,7.3-.1a.556.556,0,0,1-.422.151A.54.54,0,0,1,6.458-.1.535.535,0,0,1,6.318-.474ZM9.253-3.564l.361-3.545h3.643v.835H10.381l-.215,1.938a2.294,2.294,0,0,1,1.187-.308A1.961,1.961,0,0,1,12.9-4a2.516,2.516,0,0,1,.571,1.736,2.429,2.429,0,0,1-.593,1.731A2.162,2.162,0,0,1,11.216.1,2.247,2.247,0,0,1,9.678-.425,2.085,2.085,0,0,1,9-1.87h.854a1.435,1.435,0,0,0,.435.92,1.351,1.351,0,0,0,.928.31,1.219,1.219,0,0,0,.989-.43,1.8,1.8,0,0,0,.359-1.187A1.649,1.649,0,0,0,12.175-3.4a1.32,1.32,0,0,0-1.033-.432,1.489,1.489,0,0,0-.928.259l-.239.2Zm5.615,0,.361-3.545h3.643v.835H16l-.215,1.938a2.294,2.294,0,0,1,1.187-.308A1.961,1.961,0,0,1,18.511-4a2.516,2.516,0,0,1,.571,1.736,2.429,2.429,0,0,1-.593,1.731A2.162,2.162,0,0,1,16.831.1a2.247,2.247,0,0,1-1.538-.522,2.085,2.085,0,0,1-.679-1.445h.854a1.435,1.435,0,0,0,.435.92,1.351,1.351,0,0,0,.928.31,1.219,1.219,0,0,0,.989-.43,1.8,1.8,0,0,0,.359-1.187A1.649,1.649,0,0,0,17.791-3.4a1.32,1.32,0,0,0-1.033-.432,1.489,1.489,0,0,0-.928.259l-.239.2ZM23.037,0h-.908V-6.021l-1.821.669v-.82L22.9-7.144h.142Zm2.71,1.416-.513-.352a2.356,2.356,0,0,0,.479-1.318v-.815H26.6v.708a2.224,2.224,0,0,1-.242.986A2.309,2.309,0,0,1,25.747,1.416Zm2.314-4.98.361-3.545h3.643v.835H29.189l-.215,1.938a2.294,2.294,0,0,1,1.187-.308A1.961,1.961,0,0,1,31.7-4a2.516,2.516,0,0,1,.571,1.736,2.429,2.429,0,0,1-.593,1.731A2.162,2.162,0,0,1,30.024.1a2.247,2.247,0,0,1-1.538-.522,2.085,2.085,0,0,1-.679-1.445h.854a1.435,1.435,0,0,0,.435.92,1.351,1.351,0,0,0,.928.31,1.219,1.219,0,0,0,.989-.43,1.8,1.8,0,0,0,.359-1.187A1.649,1.649,0,0,0,30.984-3.4a1.32,1.32,0,0,0-1.033-.432,1.489,1.489,0,0,0-.928.259l-.239.2Z" transform="translate(698 13208) rotate(-90)" fill="#12263f"/>
    <path id="Trazado_656585" data-name="Trazado 656585" d="M5.249,0H.591V-.649L3.052-3.384a5.847,5.847,0,0,0,.754-1.008,1.683,1.683,0,0,0,.208-.8,1.276,1.276,0,0,0-.337-.913,1.178,1.178,0,0,0-.9-.356,1.4,1.4,0,0,0-1.047.383,1.464,1.464,0,0,0-.374,1.067h-.9A2.1,2.1,0,0,1,1.086-6.6a2.344,2.344,0,0,1,1.692-.605,2.252,2.252,0,0,1,1.567.52A1.774,1.774,0,0,1,4.922-5.3,4.067,4.067,0,0,1,3.584-2.8L1.68-.737H5.249ZM6.318-.474a.566.566,0,0,1,.139-.391.53.53,0,0,1,.417-.156A.546.546,0,0,1,7.3-.864a.554.554,0,0,1,.144.391A.524.524,0,0,1,7.3-.1a.556.556,0,0,1-.422.151A.54.54,0,0,1,6.458-.1.535.535,0,0,1,6.318-.474Zm6.064-6.641v.767h-.166a2.378,2.378,0,0,0-1.68.625,2.6,2.6,0,0,0-.723,1.7,1.928,1.928,0,0,1,1.533-.645,1.844,1.844,0,0,1,1.482.654,2.524,2.524,0,0,1,.554,1.689,2.516,2.516,0,0,1-.6,1.758,2.06,2.06,0,0,1-1.6.659A2.029,2.029,0,0,1,9.526-.686a3.106,3.106,0,0,1-.635-2.019v-.347a4.68,4.68,0,0,1,.837-3,3.075,3.075,0,0,1,2.493-1.062ZM11.2-3.911a1.441,1.441,0,0,0-.854.278,1.45,1.45,0,0,0-.542.7V-2.6a2.332,2.332,0,0,0,.4,1.416,1.185,1.185,0,0,0,.986.537,1.148,1.148,0,0,0,.959-.449,1.864,1.864,0,0,0,.349-1.177,1.865,1.865,0,0,0-.354-1.184A1.135,1.135,0,0,0,11.2-3.911ZM19.111,0H14.453V-.649l2.461-2.734a5.846,5.846,0,0,0,.754-1.008,1.683,1.683,0,0,0,.208-.8,1.276,1.276,0,0,0-.337-.913,1.178,1.178,0,0,0-.9-.356,1.4,1.4,0,0,0-1.047.383,1.464,1.464,0,0,0-.374,1.067h-.9A2.1,2.1,0,0,1,14.949-6.6a2.344,2.344,0,0,1,1.692-.605,2.252,2.252,0,0,1,1.567.52A1.774,1.774,0,0,1,18.784-5.3a4.067,4.067,0,0,1-1.338,2.5l-1.9,2.065h3.569Zm4.771-2.388h.986v.737h-.986V0h-.908V-1.65H19.736v-.532L22.92-7.109h.962Zm-3.12,0h2.212V-5.874l-.107.2Zm4.985,3.8-.513-.352a2.356,2.356,0,0,0,.479-1.318v-.815H26.6v.708a2.224,2.224,0,0,1-.242.986A2.309,2.309,0,0,1,25.747,1.416Zm5.713-3.8h.986v.737H31.46V0h-.908V-1.65H27.314v-.532L30.5-7.109h.962Zm-3.12,0h2.212V-5.874l-.107.2Z" transform="translate(729 13198) rotate(-90)" fill="#12263f"/>
    <path id="Trazado_656586" data-name="Trazado 656586" d="M5.249,0H.591V-.649L3.052-3.384a5.847,5.847,0,0,0,.754-1.008,1.683,1.683,0,0,0,.208-.8,1.276,1.276,0,0,0-.337-.913,1.178,1.178,0,0,0-.9-.356,1.4,1.4,0,0,0-1.047.383,1.464,1.464,0,0,0-.374,1.067h-.9A2.1,2.1,0,0,1,1.086-6.6a2.344,2.344,0,0,1,1.692-.605,2.252,2.252,0,0,1,1.567.52A1.774,1.774,0,0,1,4.922-5.3,4.067,4.067,0,0,1,3.584-2.8L1.68-.737H5.249ZM6.318-.474a.566.566,0,0,1,.139-.391.53.53,0,0,1,.417-.156A.546.546,0,0,1,7.3-.864a.554.554,0,0,1,.144.391A.524.524,0,0,1,7.3-.1a.556.556,0,0,1-.422.151A.54.54,0,0,1,6.458-.1.535.535,0,0,1,6.318-.474ZM12.3-3.125a2.21,2.21,0,0,1-.676.542,1.835,1.835,0,0,1-.862.205,1.894,1.894,0,0,1-1.072-.3,1.968,1.968,0,0,1-.706-.852,2.9,2.9,0,0,1-.249-1.213A2.96,2.96,0,0,1,9.006-6.03,1.991,1.991,0,0,1,9.775-6.9a2.193,2.193,0,0,1,1.162-.3,1.985,1.985,0,0,1,1.663.789,3.44,3.44,0,0,1,.608,2.151V-4a4.6,4.6,0,0,1-.82,3.03A3.152,3.152,0,0,1,9.912,0H9.736V-.762h.19a2.487,2.487,0,0,0,1.719-.582A2.5,2.5,0,0,0,12.3-3.125Zm-1.392,0a1.4,1.4,0,0,0,.837-.278,1.641,1.641,0,0,0,.559-.688v-.361A2.486,2.486,0,0,0,11.919-5.9a1.151,1.151,0,0,0-.977-.557A1.16,1.16,0,0,0,9.985-6a1.883,1.883,0,0,0-.361,1.2,1.96,1.96,0,0,0,.349,1.2A1.105,1.105,0,0,0,10.908-3.125Zm4.858-.869h.679a1.492,1.492,0,0,0,1.006-.337,1.126,1.126,0,0,0,.366-.884,1.1,1.1,0,0,0-1.245-1.25,1.3,1.3,0,0,0-.935.334,1.171,1.171,0,0,0-.349.886h-.9A1.814,1.814,0,0,1,15-6.648a2.25,2.25,0,0,1,1.57-.559,2.224,2.224,0,0,1,1.577.532A1.923,1.923,0,0,1,18.721-5.2a1.561,1.561,0,0,1-.3.9,1.813,1.813,0,0,1-.818.649,1.747,1.747,0,0,1,.906.615,1.709,1.709,0,0,1,.32,1.05A1.939,1.939,0,0,1,18.2-.464,2.34,2.34,0,0,1,16.577.1a2.4,2.4,0,0,1-1.628-.542,1.8,1.8,0,0,1-.627-1.431h.908a1.162,1.162,0,0,0,.366.9,1.393,1.393,0,0,0,.981.337,1.367,1.367,0,0,0,1-.342,1.317,1.317,0,0,0,.347-.981,1.2,1.2,0,0,0-.381-.952,1.659,1.659,0,0,0-1.1-.342h-.679Zm4.717.43.361-3.545h3.643v.835H21.611L21.4-4.336a2.294,2.294,0,0,1,1.187-.308A1.961,1.961,0,0,1,24.126-4,2.516,2.516,0,0,1,24.7-2.266,2.429,2.429,0,0,1,24.1-.535,2.162,2.162,0,0,1,22.446.1a2.247,2.247,0,0,1-1.538-.522,2.085,2.085,0,0,1-.679-1.445h.854a1.435,1.435,0,0,0,.435.92,1.351,1.351,0,0,0,.928.31,1.219,1.219,0,0,0,.989-.43,1.8,1.8,0,0,0,.359-1.187A1.649,1.649,0,0,0,23.406-3.4a1.32,1.32,0,0,0-1.033-.432,1.489,1.489,0,0,0-.928.259l-.239.2Zm5.264,4.98-.513-.352a2.356,2.356,0,0,0,.479-1.318v-.815H26.6v.708a2.224,2.224,0,0,1-.242.986A2.309,2.309,0,0,1,25.747,1.416Zm2.314-4.98.361-3.545h3.643v.835H29.189l-.215,1.938a2.294,2.294,0,0,1,1.187-.308A1.961,1.961,0,0,1,31.7-4a2.516,2.516,0,0,1,.571,1.736,2.429,2.429,0,0,1-.593,1.731A2.162,2.162,0,0,1,30.024.1a2.247,2.247,0,0,1-1.538-.522,2.085,2.085,0,0,1-.679-1.445h.854a1.435,1.435,0,0,0,.435.92,1.351,1.351,0,0,0,.928.31,1.219,1.219,0,0,0,.989-.43,1.8,1.8,0,0,0,.359-1.187A1.649,1.649,0,0,0,30.984-3.4a1.32,1.32,0,0,0-1.033-.432,1.489,1.489,0,0,0-.928.259l-.239.2Z" transform="translate(761 13182) rotate(-90)" fill="#12263f"/>
    <path id="Trazado_656587" data-name="Trazado 656587" d="M5.249,0H.591V-.649L3.052-3.384a5.847,5.847,0,0,0,.754-1.008,1.683,1.683,0,0,0,.208-.8,1.276,1.276,0,0,0-.337-.913,1.178,1.178,0,0,0-.9-.356,1.4,1.4,0,0,0-1.047.383,1.464,1.464,0,0,0-.374,1.067h-.9A2.1,2.1,0,0,1,1.086-6.6a2.344,2.344,0,0,1,1.692-.605,2.252,2.252,0,0,1,1.567.52A1.774,1.774,0,0,1,4.922-5.3,4.067,4.067,0,0,1,3.584-2.8L1.68-.737H5.249ZM6.27,1.416l-.513-.352A2.356,2.356,0,0,0,6.235-.254v-.815h.884v.708a2.224,2.224,0,0,1-.242.986A2.309,2.309,0,0,1,6.27,1.416Zm5.713-3.8h.986v.737h-.986V0h-.908V-1.65H7.837v-.532l3.184-4.927h.962Zm-3.12,0h2.212V-5.874l-.107.2ZM18.374-6.6,15.43,0h-.947l2.935-6.367H13.569v-.742h4.8Z" transform="translate(896 13261) rotate(-90)" fill="#12263f"/>
    <path id="Trazado_656588" data-name="Trazado 656588" d="M1.9-3.994h.679a1.492,1.492,0,0,0,1.006-.337,1.126,1.126,0,0,0,.366-.884A1.1,1.1,0,0,0,2.71-6.465a1.3,1.3,0,0,0-.935.334,1.171,1.171,0,0,0-.349.886h-.9a1.814,1.814,0,0,1,.618-1.4,2.25,2.25,0,0,1,1.57-.559,2.224,2.224,0,0,1,1.577.532A1.923,1.923,0,0,1,4.858-5.2a1.561,1.561,0,0,1-.3.9,1.813,1.813,0,0,1-.818.649,1.747,1.747,0,0,1,.906.615,1.709,1.709,0,0,1,.32,1.05A1.939,1.939,0,0,1,4.341-.464,2.34,2.34,0,0,1,2.715.1,2.4,2.4,0,0,1,1.086-.444,1.8,1.8,0,0,1,.459-1.875h.908a1.162,1.162,0,0,0,.366.9,1.393,1.393,0,0,0,.981.337,1.367,1.367,0,0,0,1-.342,1.317,1.317,0,0,0,.347-.981,1.2,1.2,0,0,0-.381-.952,1.659,1.659,0,0,0-1.1-.342H1.9ZM6.27,1.416l-.513-.352A2.356,2.356,0,0,0,6.235-.254v-.815h.884v.708a2.224,2.224,0,0,1-.242.986A2.309,2.309,0,0,1,6.27,1.416Zm6.357-4.448a4.131,4.131,0,0,1-.542,2.358A1.928,1.928,0,0,1,10.391.1,1.942,1.942,0,0,1,8.706-.657,3.921,3.921,0,0,1,8.14-2.91V-4.116a4.039,4.039,0,0,1,.542-2.329,1.942,1.942,0,0,1,1.7-.762,1.96,1.96,0,0,1,1.689.735A3.9,3.9,0,0,1,12.627-4.2Zm-.9-1.235A3.31,3.31,0,0,0,11.4-5.94a1.109,1.109,0,0,0-1.021-.525,1.1,1.1,0,0,0-1.011.522,3.232,3.232,0,0,0-.327,1.606v1.445a3.363,3.363,0,0,0,.334,1.7,1.107,1.107,0,0,0,1.013.549,1.092,1.092,0,0,0,.994-.518,3.241,3.241,0,0,0,.339-1.631Zm5.605-2.847v.767h-.166a2.378,2.378,0,0,0-1.68.625,2.6,2.6,0,0,0-.723,1.7,1.928,1.928,0,0,1,1.533-.645,1.844,1.844,0,0,1,1.482.654,2.524,2.524,0,0,1,.554,1.689,2.516,2.516,0,0,1-.6,1.758,2.06,2.06,0,0,1-1.6.659,2.029,2.029,0,0,1-1.655-.784,3.106,3.106,0,0,1-.635-2.019v-.347a4.68,4.68,0,0,1,.837-3,3.075,3.075,0,0,1,2.493-1.062Zm-1.187,3.2a1.441,1.441,0,0,0-.854.278,1.45,1.45,0,0,0-.542.7V-2.6a2.332,2.332,0,0,0,.4,1.416,1.185,1.185,0,0,0,.986.537,1.148,1.148,0,0,0,.959-.449,1.864,1.864,0,0,0,.349-1.177,1.865,1.865,0,0,0-.354-1.184A1.135,1.135,0,0,0,16.143-3.911Z" transform="translate(928 13239) rotate(-90)" fill="#12263f"/>
    <path id="Trazado_656589" data-name="Trazado 656589" d="M1.9-3.994h.679a1.492,1.492,0,0,0,1.006-.337,1.126,1.126,0,0,0,.366-.884A1.1,1.1,0,0,0,2.71-6.465a1.3,1.3,0,0,0-.935.334,1.171,1.171,0,0,0-.349.886h-.9a1.814,1.814,0,0,1,.618-1.4,2.25,2.25,0,0,1,1.57-.559,2.224,2.224,0,0,1,1.577.532A1.923,1.923,0,0,1,4.858-5.2a1.561,1.561,0,0,1-.3.9,1.813,1.813,0,0,1-.818.649,1.747,1.747,0,0,1,.906.615,1.709,1.709,0,0,1,.32,1.05A1.939,1.939,0,0,1,4.341-.464,2.34,2.34,0,0,1,2.715.1,2.4,2.4,0,0,1,1.086-.444,1.8,1.8,0,0,1,.459-1.875h.908a1.162,1.162,0,0,0,.366.9,1.393,1.393,0,0,0,.981.337,1.367,1.367,0,0,0,1-.342,1.317,1.317,0,0,0,.347-.981,1.2,1.2,0,0,0-.381-.952,1.659,1.659,0,0,0-1.1-.342H1.9ZM6.27,1.416l-.513-.352A2.356,2.356,0,0,0,6.235-.254v-.815h.884v.708a2.224,2.224,0,0,1-.242.986A2.309,2.309,0,0,1,6.27,1.416ZM12.759-6.6,9.814,0H8.867L11.8-6.367H7.954v-.742h4.8Zm4.57-.513v.767h-.166a2.378,2.378,0,0,0-1.68.625,2.6,2.6,0,0,0-.723,1.7,1.928,1.928,0,0,1,1.533-.645,1.844,1.844,0,0,1,1.482.654,2.524,2.524,0,0,1,.554,1.689,2.516,2.516,0,0,1-.6,1.758,2.06,2.06,0,0,1-1.6.659,2.029,2.029,0,0,1-1.655-.784,3.106,3.106,0,0,1-.635-2.019v-.347a4.68,4.68,0,0,1,.837-3,3.075,3.075,0,0,1,2.493-1.062Zm-1.187,3.2a1.441,1.441,0,0,0-.854.278,1.45,1.45,0,0,0-.542.7V-2.6a2.332,2.332,0,0,0,.4,1.416,1.185,1.185,0,0,0,.986.537,1.148,1.148,0,0,0,.959-.449,1.864,1.864,0,0,0,.349-1.177,1.865,1.865,0,0,0-.354-1.184A1.135,1.135,0,0,0,16.143-3.911Z" transform="translate(959 13216) rotate(-90)" fill="#12263f"/>
    <path id="Trazado_656590" data-name="Trazado 656590" d="M4.4-2.388h.986v.737H4.4V0H3.5V-1.65H.259v-.532L3.442-7.109H4.4Zm-3.12,0H3.5V-5.874l-.107.2ZM6.318-.474a.566.566,0,0,1,.139-.391.53.53,0,0,1,.417-.156A.546.546,0,0,1,7.3-.864a.554.554,0,0,1,.144.391A.524.524,0,0,1,7.3-.1a.556.556,0,0,1-.422.151A.54.54,0,0,1,6.458-.1.535.535,0,0,1,6.318-.474ZM13.5,0H8.838V-.649L11.3-3.384a5.847,5.847,0,0,0,.754-1.008,1.683,1.683,0,0,0,.208-.8,1.276,1.276,0,0,0-.337-.913,1.178,1.178,0,0,0-.9-.356,1.4,1.4,0,0,0-1.047.383A1.464,1.464,0,0,0,9.6-5.015H8.7A2.1,2.1,0,0,1,9.333-6.6a2.344,2.344,0,0,1,1.692-.605,2.252,2.252,0,0,1,1.567.52A1.774,1.774,0,0,1,13.169-5.3a4.067,4.067,0,0,1-1.338,2.5L9.927-.737H13.5Z" transform="translate(990 13195) rotate(-90)" fill="#12263f"/>
    <path id="Trazado_656591" data-name="Trazado 656591" d="M4.4-2.388h.986v.737H4.4V0H3.5V-1.65H.259v-.532L3.442-7.109H4.4Zm-3.12,0H3.5V-5.874l-.107.2ZM6.318-.474a.566.566,0,0,1,.139-.391.53.53,0,0,1,.417-.156A.546.546,0,0,1,7.3-.864a.554.554,0,0,1,.144.391A.524.524,0,0,1,7.3-.1a.556.556,0,0,1-.422.151A.54.54,0,0,1,6.458-.1.535.535,0,0,1,6.318-.474Zm6.831-4.78a1.651,1.651,0,0,1-.281.947,1.91,1.91,0,0,1-.759.649,2.038,2.038,0,0,1,.881.7,1.757,1.757,0,0,1,.325,1.04,1.858,1.858,0,0,1-.623,1.47A2.392,2.392,0,0,1,11.055.1,2.381,2.381,0,0,1,9.412-.452a1.866,1.866,0,0,1-.618-1.467,1.81,1.81,0,0,1,.315-1.04,1.96,1.96,0,0,1,.872-.7,1.863,1.863,0,0,1-.747-.649,1.674,1.674,0,0,1-.273-.942A1.838,1.838,0,0,1,9.536-6.68a2.161,2.161,0,0,1,1.519-.527,2.163,2.163,0,0,1,1.516.527A1.834,1.834,0,0,1,13.149-5.254Zm-.737,3.315a1.31,1.31,0,0,0-.378-.972,1.342,1.342,0,0,0-.989-.376,1.318,1.318,0,0,0-.979.371,1.325,1.325,0,0,0-.369.977,1.262,1.262,0,0,0,.359.952,1.378,1.378,0,0,0,1,.347,1.373,1.373,0,0,0,1-.349A1.259,1.259,0,0,0,12.412-1.938ZM11.055-6.465a1.166,1.166,0,0,0-.862.33,1.211,1.211,0,0,0-.33.9,1.2,1.2,0,0,0,.325.876,1.152,1.152,0,0,0,.867.334,1.152,1.152,0,0,0,.867-.334,1.2,1.2,0,0,0,.325-.876,1.205,1.205,0,0,0-.337-.884A1.149,1.149,0,0,0,11.055-6.465Zm7.212,4.077h.986v.737h-.986V0h-.908V-1.65H14.121v-.532L17.3-7.109h.962Zm-3.12,0h2.212V-5.874l-.107.2Z" transform="translate(1021 13174) rotate(-90)" fill="#12263f"/>
    <path id="Trazado_656592" data-name="Trazado 656592" d="M1.006-3.564l.361-3.545H5.01v.835H2.134L1.919-4.336a2.294,2.294,0,0,1,1.187-.308A1.961,1.961,0,0,1,4.648-4,2.516,2.516,0,0,1,5.22-2.266,2.429,2.429,0,0,1,4.626-.535,2.162,2.162,0,0,1,2.969.1,2.247,2.247,0,0,1,1.431-.425,2.085,2.085,0,0,1,.752-1.87h.854a1.435,1.435,0,0,0,.435.92,1.351,1.351,0,0,0,.928.31,1.219,1.219,0,0,0,.989-.43,1.8,1.8,0,0,0,.359-1.187A1.649,1.649,0,0,0,3.928-3.4,1.32,1.32,0,0,0,2.9-3.833a1.489,1.489,0,0,0-.928.259l-.239.2ZM6.318-.474a.566.566,0,0,1,.139-.391.53.53,0,0,1,.417-.156A.546.546,0,0,1,7.3-.864a.554.554,0,0,1,.144.391A.524.524,0,0,1,7.3-.1a.556.556,0,0,1-.422.151A.54.54,0,0,1,6.458-.1.535.535,0,0,1,6.318-.474ZM13.5,0H8.838V-.649L11.3-3.384a5.847,5.847,0,0,0,.754-1.008,1.683,1.683,0,0,0,.208-.8,1.276,1.276,0,0,0-.337-.913,1.178,1.178,0,0,0-.9-.356,1.4,1.4,0,0,0-1.047.383A1.464,1.464,0,0,0,9.6-5.015H8.7A2.1,2.1,0,0,1,9.333-6.6a2.344,2.344,0,0,1,1.692-.605,2.252,2.252,0,0,1,1.567.52A1.774,1.774,0,0,1,13.169-5.3a4.067,4.067,0,0,1-1.338,2.5L9.927-.737H13.5Zm4.419-3.125a2.21,2.21,0,0,1-.676.542,1.835,1.835,0,0,1-.862.205,1.894,1.894,0,0,1-1.072-.3,1.968,1.968,0,0,1-.706-.852,2.9,2.9,0,0,1-.249-1.213,2.96,2.96,0,0,1,.271-1.284,1.991,1.991,0,0,1,.769-.874,2.193,2.193,0,0,1,1.162-.3,1.985,1.985,0,0,1,1.663.789,3.44,3.44,0,0,1,.608,2.151V-4A4.6,4.6,0,0,1,18-.974,3.152,3.152,0,0,1,15.527,0h-.176V-.762h.19a2.487,2.487,0,0,0,1.719-.582A2.5,2.5,0,0,0,17.915-3.125Zm-1.392,0a1.4,1.4,0,0,0,.837-.278,1.641,1.641,0,0,0,.559-.688v-.361A2.486,2.486,0,0,0,17.534-5.9a1.151,1.151,0,0,0-.977-.557A1.16,1.16,0,0,0,15.6-6a1.883,1.883,0,0,0-.361,1.2,1.96,1.96,0,0,0,.349,1.2A1.105,1.105,0,0,0,16.523-3.125Z" transform="translate(1052 13155) rotate(-90)" fill="#12263f"/>
    <path id="Trazado_656593" data-name="Trazado 656593" d="M8.032-8.88h-3.2V0H3.527V-8.88H.335V-9.953h7.7ZM8.3-3.767a4.369,4.369,0,0,1,.427-1.955,3.187,3.187,0,0,1,1.189-1.34,3.238,3.238,0,0,1,1.74-.472A3.119,3.119,0,0,1,14.1-6.487a4.024,4.024,0,0,1,.933,2.782v.089a4.407,4.407,0,0,1-.414,1.938A3.14,3.14,0,0,1,13.436-.342a3.275,3.275,0,0,1-1.767.479A3.111,3.111,0,0,1,9.232-.909,4,4,0,0,1,8.3-3.678Zm1.271.15a3.164,3.164,0,0,0,.571,1.976A1.827,1.827,0,0,0,11.669-.9,1.816,1.816,0,0,0,13.2-1.651a3.46,3.46,0,0,0,.567-2.116,3.159,3.159,0,0,0-.578-1.972,1.836,1.836,0,0,0-1.535-.755,1.816,1.816,0,0,0-1.511.745A3.434,3.434,0,0,0,9.57-3.616ZM17.814-7.4l.041.93A2.7,2.7,0,0,1,20.07-7.533q2.345,0,2.365,2.646V0H21.171V-4.895a1.7,1.7,0,0,0-.366-1.183,1.466,1.466,0,0,0-1.118-.383,1.825,1.825,0,0,0-1.08.328,2.228,2.228,0,0,0-.725.861V0H16.618V-7.4Zm9.6,7.533a3.232,3.232,0,0,1-2.447-.988,3.666,3.666,0,0,1-.943-2.642v-.232a4.438,4.438,0,0,1,.42-1.965,3.28,3.28,0,0,1,1.176-1.354,2.956,2.956,0,0,1,1.637-.489,2.77,2.77,0,0,1,2.242.95,4.114,4.114,0,0,1,.8,2.721v.526H25.286a2.629,2.629,0,0,0,.639,1.767A2.009,2.009,0,0,0,27.48-.9a2.2,2.2,0,0,0,1.135-.273,2.851,2.851,0,0,0,.813-.725l.772.6A3.106,3.106,0,0,1,27.412.137Zm-.157-6.631a1.687,1.687,0,0,0-1.285.557,2.708,2.708,0,0,0-.643,1.562h3.705v-.1a2.409,2.409,0,0,0-.52-1.494A1.588,1.588,0,0,0,27.255-6.494ZM33.134,0H31.869V-10.5h1.265Zm6.59,0a2.657,2.657,0,0,1-.178-.779A2.822,2.822,0,0,1,37.44.137a2.611,2.611,0,0,1-1.794-.619,2,2,0,0,1-.7-1.569,2.091,2.091,0,0,1,.878-1.794,4.142,4.142,0,0,1,2.471-.639h1.23v-.581a1.42,1.42,0,0,0-.4-1.056,1.593,1.593,0,0,0-1.169-.393,1.844,1.844,0,0,0-1.135.342,1.007,1.007,0,0,0-.458.827H35.1a1.745,1.745,0,0,1,.393-1.07,2.683,2.683,0,0,1,1.066-.817,3.588,3.588,0,0,1,1.48-.3,2.924,2.924,0,0,1,2,.639,2.306,2.306,0,0,1,.752,1.76v3.4a4.162,4.162,0,0,0,.26,1.62V0Zm-2.1-.964a2.223,2.223,0,0,0,1.128-.308,1.861,1.861,0,0,0,.772-.8V-3.589h-.991q-2.324,0-2.324,1.36a1.151,1.151,0,0,0,.4.93A1.524,1.524,0,0,0,37.625-.964Zm4.84-2.8A4.333,4.333,0,0,1,43.271-6.5a2.551,2.551,0,0,1,2.112-1.036,2.565,2.565,0,0,1,2.058.889V-10.5h1.265V0H47.544l-.062-.793a2.575,2.575,0,0,1-2.112.93,2.526,2.526,0,0,1-2.1-1.053,4.382,4.382,0,0,1-.81-2.748Zm1.265.144a3.281,3.281,0,0,0,.52,1.969,1.68,1.68,0,0,0,1.436.711,1.845,1.845,0,0,0,1.757-1.08v-3.4A1.859,1.859,0,0,0,45.7-6.46a1.687,1.687,0,0,0-1.449.718A3.612,3.612,0,0,0,43.729-3.616ZM55.234,0a2.657,2.657,0,0,1-.178-.779,2.822,2.822,0,0,1-2.105.916,2.611,2.611,0,0,1-1.794-.619,2,2,0,0,1-.7-1.569,2.091,2.091,0,0,1,.878-1.794,4.142,4.142,0,0,1,2.471-.639h1.23v-.581a1.42,1.42,0,0,0-.4-1.056,1.593,1.593,0,0,0-1.169-.393,1.844,1.844,0,0,0-1.135.342,1.007,1.007,0,0,0-.458.827H50.606A1.745,1.745,0,0,1,51-6.416a2.683,2.683,0,0,1,1.066-.817,3.588,3.588,0,0,1,1.48-.3,2.924,2.924,0,0,1,2,.639,2.306,2.306,0,0,1,.752,1.76v3.4a4.162,4.162,0,0,0,.26,1.62V0Zm-2.1-.964a2.223,2.223,0,0,0,1.128-.308,1.861,1.861,0,0,0,.772-.8V-3.589h-.991q-2.324,0-2.324,1.36a1.151,1.151,0,0,0,.4.93A1.524,1.524,0,0,0,53.136-.964Zm9.454-1a.931.931,0,0,0-.386-.8,3.718,3.718,0,0,0-1.347-.489,6.367,6.367,0,0,1-1.524-.492,2.169,2.169,0,0,1-.834-.684,1.635,1.635,0,0,1-.27-.943A1.919,1.919,0,0,1,59-6.9a3,3,0,0,1,1.965-.629A3.091,3.091,0,0,1,63-6.884a2.063,2.063,0,0,1,.783,1.661H62.515a1.142,1.142,0,0,0-.441-.9,1.652,1.652,0,0,0-1.111-.376,1.729,1.729,0,0,0-1.08.3.947.947,0,0,0-.39.786.767.767,0,0,0,.362.69,4.458,4.458,0,0,0,1.309.444,6.821,6.821,0,0,1,1.535.506,2.239,2.239,0,0,1,.872.708,1.74,1.74,0,0,1,.284,1.008,1.893,1.893,0,0,1-.793,1.589A3.326,3.326,0,0,1,61,.137a3.725,3.725,0,0,1-1.572-.314,2.557,2.557,0,0,1-1.07-.878,2.117,2.117,0,0,1-.386-1.22H59.24a1.309,1.309,0,0,0,.509,1.008A1.976,1.976,0,0,0,61-.9a2.039,2.039,0,0,0,1.152-.291A.893.893,0,0,0,62.59-1.962Zm9.953-4.3a3.79,3.79,0,0,0-.622-.048,1.667,1.667,0,0,0-1.688,1.06V0H68.968V-7.4H70.2l.021.854a1.969,1.969,0,0,1,1.764-.991,1.292,1.292,0,0,1,.561.1Zm4.1,6.4A3.232,3.232,0,0,1,74.2-.851a3.666,3.666,0,0,1-.943-2.642v-.232a4.438,4.438,0,0,1,.42-1.965A3.28,3.28,0,0,1,74.85-7.044a2.956,2.956,0,0,1,1.637-.489,2.77,2.77,0,0,1,2.242.95,4.114,4.114,0,0,1,.8,2.721v.526H74.519a2.629,2.629,0,0,0,.639,1.767A2.009,2.009,0,0,0,76.713-.9a2.2,2.2,0,0,0,1.135-.273,2.851,2.851,0,0,0,.813-.725l.772.6A3.106,3.106,0,0,1,76.645.137Zm-.157-6.631a1.687,1.687,0,0,0-1.285.557,2.708,2.708,0,0,0-.643,1.562h3.705v-.1a2.409,2.409,0,0,0-.52-1.494A1.588,1.588,0,0,0,76.487-6.494ZM83.959-.9a1.822,1.822,0,0,0,1.183-.41A1.443,1.443,0,0,0,85.7-2.331h1.2a2.293,2.293,0,0,1-.437,1.21,2.882,2.882,0,0,1-1.077.916,3.107,3.107,0,0,1-1.425.342,3.047,3.047,0,0,1-2.4-1.008,4.016,4.016,0,0,1-.892-2.758v-.212a4.453,4.453,0,0,1,.4-1.921A3.02,3.02,0,0,1,82.2-7.068a3.233,3.233,0,0,1,1.753-.465,2.966,2.966,0,0,1,2.068.745A2.663,2.663,0,0,1,86.9-4.854H85.7a1.743,1.743,0,0,0-.543-1.179,1.691,1.691,0,0,0-1.207-.461,1.77,1.77,0,0,0-1.494.694,3.259,3.259,0,0,0-.53,2.006v.239a3.194,3.194,0,0,0,.526,1.969A1.779,1.779,0,0,0,83.959-.9Zm4.026-2.871a4.369,4.369,0,0,1,.427-1.955A3.187,3.187,0,0,1,89.6-7.062a3.238,3.238,0,0,1,1.74-.472,3.119,3.119,0,0,1,2.444,1.046,4.024,4.024,0,0,1,.933,2.782v.089a4.407,4.407,0,0,1-.414,1.938A3.14,3.14,0,0,1,93.123-.342a3.275,3.275,0,0,1-1.767.479A3.111,3.111,0,0,1,88.918-.909a4,4,0,0,1-.933-2.769Zm1.271.15a3.164,3.164,0,0,0,.571,1.976A1.827,1.827,0,0,0,91.355-.9a1.816,1.816,0,0,0,1.531-.755,3.46,3.46,0,0,0,.567-2.116,3.159,3.159,0,0,0-.578-1.972,1.836,1.836,0,0,0-1.535-.755,1.816,1.816,0,0,0-1.511.745A3.434,3.434,0,0,0,89.257-3.616ZM96-3.76a4.347,4.347,0,0,1,.8-2.751,2.558,2.558,0,0,1,2.119-1.022,2.544,2.544,0,0,1,2.112.957l.062-.82h1.155V-.178a3.009,3.009,0,0,1-.851,2.263,3.141,3.141,0,0,1-2.287.827,3.8,3.8,0,0,1-1.565-.342,2.7,2.7,0,0,1-1.169-.937l.656-.759a2.473,2.473,0,0,0,1.989,1,1.938,1.938,0,0,0,1.439-.52A1.986,1.986,0,0,0,100.98-.1V-.738a2.6,2.6,0,0,1-2.071.875,2.527,2.527,0,0,1-2.1-1.046A4.571,4.571,0,0,1,96-3.76Zm1.271.144a3.316,3.316,0,0,0,.513,1.965,1.666,1.666,0,0,0,1.436.714,1.852,1.852,0,0,0,1.757-1.087V-5.4a1.874,1.874,0,0,0-1.743-1.06,1.681,1.681,0,0,0-1.442.718A3.612,3.612,0,0,0,97.275-3.616ZM105.533,0h-1.265V-7.4h1.265Zm-1.367-9.358a.755.755,0,0,1,.188-.52.706.706,0,0,1,.557-.212.717.717,0,0,1,.561.212.747.747,0,0,1,.191.52.722.722,0,0,1-.191.513.73.73,0,0,1-.561.205.718.718,0,0,1-.557-.205A.73.73,0,0,1,104.166-9.358Zm3.083,5.6a4.333,4.333,0,0,1,.807-2.738,2.551,2.551,0,0,1,2.112-1.036,2.565,2.565,0,0,1,2.058.889V-10.5h1.265V0h-1.162l-.062-.793a2.575,2.575,0,0,1-2.112.93,2.526,2.526,0,0,1-2.1-1.053,4.382,4.382,0,0,1-.81-2.748Zm1.265.144a3.281,3.281,0,0,0,.52,1.969,1.68,1.68,0,0,0,1.436.711,1.845,1.845,0,0,0,1.757-1.08v-3.4a1.859,1.859,0,0,0-1.743-1.046,1.687,1.687,0,0,0-1.449.718A3.612,3.612,0,0,0,108.514-3.616ZM120.019,0a2.657,2.657,0,0,1-.178-.779,2.822,2.822,0,0,1-2.105.916,2.611,2.611,0,0,1-1.794-.619,2,2,0,0,1-.7-1.569,2.091,2.091,0,0,1,.878-1.794,4.141,4.141,0,0,1,2.471-.639h1.23v-.581a1.42,1.42,0,0,0-.4-1.056,1.593,1.593,0,0,0-1.169-.393,1.844,1.844,0,0,0-1.135.342,1.007,1.007,0,0,0-.458.827h-1.271a1.745,1.745,0,0,1,.393-1.07,2.683,2.683,0,0,1,1.066-.817,3.588,3.588,0,0,1,1.48-.3,2.924,2.924,0,0,1,2,.639,2.306,2.306,0,0,1,.752,1.76v3.4a4.162,4.162,0,0,0,.26,1.62V0Zm-2.1-.964a2.223,2.223,0,0,0,1.128-.308,1.861,1.861,0,0,0,.772-.8V-3.589h-.991q-2.324,0-2.324,1.36a1.151,1.151,0,0,0,.4.93A1.524,1.524,0,0,0,117.92-.964Zm9.454-1a.931.931,0,0,0-.386-.8,3.718,3.718,0,0,0-1.347-.489,6.367,6.367,0,0,1-1.524-.492,2.169,2.169,0,0,1-.834-.684,1.635,1.635,0,0,1-.27-.943,1.919,1.919,0,0,1,.769-1.538,3,3,0,0,1,1.965-.629,3.091,3.091,0,0,1,2.041.649,2.063,2.063,0,0,1,.783,1.661H127.3a1.142,1.142,0,0,0-.441-.9,1.652,1.652,0,0,0-1.111-.376,1.729,1.729,0,0,0-1.08.3.947.947,0,0,0-.39.786.767.767,0,0,0,.362.69,4.458,4.458,0,0,0,1.309.444,6.821,6.821,0,0,1,1.535.506,2.239,2.239,0,0,1,.872.708,1.74,1.74,0,0,1,.284,1.008,1.893,1.893,0,0,1-.793,1.589,3.326,3.326,0,0,1-2.058.6,3.725,3.725,0,0,1-1.572-.314,2.557,2.557,0,0,1-1.07-.878,2.117,2.117,0,0,1-.386-1.22h1.265a1.309,1.309,0,0,0,.509,1.008,1.976,1.976,0,0,0,1.254.373,2.039,2.039,0,0,0,1.152-.291A.893.893,0,0,0,127.374-1.962Z" transform="translate(585 13385)" fill="#12263f"/>
    <path id="Trazado_656594" data-name="Trazado 656594" d="M3.685-4.628,2.468-3.363V0H1.155V-9.953H2.468v4.922L6.891-9.953H8.477L4.56-5.558,8.784,0H7.212Zm5.571.868a4.347,4.347,0,0,1,.8-2.751,2.558,2.558,0,0,1,2.119-1.022,2.544,2.544,0,0,1,2.112.957l.062-.82H15.5V-.178a3.009,3.009,0,0,1-.851,2.263,3.141,3.141,0,0,1-2.287.827A3.8,3.8,0,0,1,10.8,2.57a2.7,2.7,0,0,1-1.169-.937l.656-.759a2.473,2.473,0,0,0,1.989,1,1.938,1.938,0,0,0,1.439-.52A1.986,1.986,0,0,0,14.232-.1V-.738a2.6,2.6,0,0,1-2.071.875,2.527,2.527,0,0,1-2.1-1.046A4.571,4.571,0,0,1,9.256-3.76Zm1.271.144a3.316,3.316,0,0,0,.513,1.965,1.666,1.666,0,0,0,1.436.714,1.852,1.852,0,0,0,1.757-1.087V-5.4a1.874,1.874,0,0,0-1.743-1.06,1.681,1.681,0,0,0-1.442.718A3.612,3.612,0,0,0,10.527-3.616ZM17.664.854H16.577L20.733-9.953h1.08ZM24.445-6.5a2.689,2.689,0,0,1,2.188-1.032q2.345,0,2.365,2.646V0H27.733V-4.895a1.7,1.7,0,0,0-.366-1.183A1.466,1.466,0,0,0,26.25-6.46a1.825,1.825,0,0,0-1.08.328,2.228,2.228,0,0,0-.725.861V0H23.181V-10.5h1.265ZM35.458,0a2.657,2.657,0,0,1-.178-.779,2.822,2.822,0,0,1-2.105.916A2.611,2.611,0,0,1,31.38-.482a2,2,0,0,1-.7-1.569,2.091,2.091,0,0,1,.878-1.794,4.142,4.142,0,0,1,2.471-.639h1.23v-.581a1.42,1.42,0,0,0-.4-1.056,1.593,1.593,0,0,0-1.169-.393,1.844,1.844,0,0,0-1.135.342,1.007,1.007,0,0,0-.458.827H30.83a1.745,1.745,0,0,1,.393-1.07,2.683,2.683,0,0,1,1.066-.817,3.588,3.588,0,0,1,1.48-.3,2.924,2.924,0,0,1,2,.639,2.306,2.306,0,0,1,.752,1.76v3.4a4.162,4.162,0,0,0,.26,1.62V0Zm-2.1-.964a2.223,2.223,0,0,0,1.128-.308,1.861,1.861,0,0,0,.772-.8V-3.589h-.991q-2.324,0-2.324,1.36a1.151,1.151,0,0,0,.4.93A1.524,1.524,0,0,0,33.359-.964ZM44.769-3.616a4.4,4.4,0,0,1-.779,2.724A2.49,2.49,0,0,1,41.9.137,2.578,2.578,0,0,1,39.73-.854L39.669,0H38.507V-10.5h1.265v3.917a2.564,2.564,0,0,1,2.112-.95A2.505,2.505,0,0,1,44-6.515a4.53,4.53,0,0,1,.769,2.789ZM43.5-3.76a3.417,3.417,0,0,0-.5-2,1.652,1.652,0,0,0-1.436-.7,1.857,1.857,0,0,0-1.8,1.162v3.2A1.909,1.909,0,0,0,41.583-.937,1.643,1.643,0,0,0,43-1.641,3.634,3.634,0,0,0,43.5-3.76ZM47.735,0H46.471V-7.4h1.265ZM46.368-9.358a.755.755,0,0,1,.188-.52.706.706,0,0,1,.557-.212.717.717,0,0,1,.561.212.747.747,0,0,1,.191.52.722.722,0,0,1-.191.513.73.73,0,0,1-.561.205.718.718,0,0,1-.557-.205A.73.73,0,0,1,46.368-9.358Zm5.106.171V-7.4h1.381v.978H51.475v4.593a1.027,1.027,0,0,0,.185.667.777.777,0,0,0,.629.222,3.062,3.062,0,0,0,.6-.082V0a3.688,3.688,0,0,1-.971.136,1.575,1.575,0,0,1-1.278-.513,2.2,2.2,0,0,1-.431-1.456V-6.419H48.863V-7.4H50.21V-9.187ZM58.9,0a2.657,2.657,0,0,1-.178-.779,2.822,2.822,0,0,1-2.105.916,2.611,2.611,0,0,1-1.794-.619,2,2,0,0,1-.7-1.569A2.091,2.091,0,0,1,55-3.845a4.142,4.142,0,0,1,2.471-.639H58.7v-.581a1.42,1.42,0,0,0-.4-1.056,1.593,1.593,0,0,0-1.169-.393A1.844,1.844,0,0,0,56-6.173a1.007,1.007,0,0,0-.458.827H54.271a1.745,1.745,0,0,1,.393-1.07,2.683,2.683,0,0,1,1.066-.817,3.588,3.588,0,0,1,1.48-.3,2.924,2.924,0,0,1,2,.639,2.306,2.306,0,0,1,.752,1.76v3.4a4.162,4.162,0,0,0,.26,1.62V0ZM56.8-.964a2.223,2.223,0,0,0,1.128-.308,1.861,1.861,0,0,0,.772-.8V-3.589h-.991q-2.324,0-2.324,1.36a1.151,1.151,0,0,0,.4.93A1.524,1.524,0,0,0,56.8-.964ZM63.144-7.4l.041.93A2.7,2.7,0,0,1,65.4-7.533q2.345,0,2.365,2.646V0H66.5V-4.895a1.7,1.7,0,0,0-.366-1.183,1.466,1.466,0,0,0-1.118-.383,1.825,1.825,0,0,0-1.08.328,2.228,2.228,0,0,0-.725.861V0H61.947V-7.4Zm8.244-1.791V-7.4h1.381v.978H71.388v4.593a1.027,1.027,0,0,0,.185.667.777.777,0,0,0,.629.222,3.062,3.062,0,0,0,.6-.082V0a3.688,3.688,0,0,1-.971.136,1.575,1.575,0,0,1-1.278-.513,2.2,2.2,0,0,1-.431-1.456V-6.419H68.776V-7.4h1.347V-9.187ZM77.314.137a3.232,3.232,0,0,1-2.447-.988,3.666,3.666,0,0,1-.943-2.642v-.232a4.438,4.438,0,0,1,.42-1.965A3.28,3.28,0,0,1,75.52-7.044a2.956,2.956,0,0,1,1.637-.489,2.77,2.77,0,0,1,2.242.95,4.114,4.114,0,0,1,.8,2.721v.526H75.188a2.629,2.629,0,0,0,.639,1.767A2.009,2.009,0,0,0,77.383-.9a2.2,2.2,0,0,0,1.135-.273,2.851,2.851,0,0,0,.813-.725l.772.6A3.106,3.106,0,0,1,77.314.137Zm-.157-6.631a1.687,1.687,0,0,0-1.285.557,2.708,2.708,0,0,0-.643,1.562h3.705v-.1a2.409,2.409,0,0,0-.52-1.494A1.588,1.588,0,0,0,77.157-6.494ZM87.548-1.853,89.271-7.4h1.354L87.65,1.142q-.69,1.846-2.194,1.846l-.239-.021-.472-.089V1.853l.342.027a1.683,1.683,0,0,0,1-.26A1.88,1.88,0,0,0,86.68.67l.28-.752L84.321-7.4H85.7ZM96.407-7.4l.034.82a2.732,2.732,0,0,1,2.194-.957,2.115,2.115,0,0,1,2.112,1.189,2.8,2.8,0,0,1,.96-.861,2.837,2.837,0,0,1,1.4-.328q2.434,0,2.475,2.577V0h-1.265V-4.881a1.7,1.7,0,0,0-.362-1.186,1.6,1.6,0,0,0-1.217-.393,1.677,1.677,0,0,0-1.169.42,1.706,1.706,0,0,0-.54,1.131V0H99.757V-4.847A1.411,1.411,0,0,0,98.178-6.46a1.692,1.692,0,0,0-1.7,1.06V0H95.211V-7.4ZM110.558.137a3.232,3.232,0,0,1-2.447-.988,3.666,3.666,0,0,1-.943-2.642v-.232a4.438,4.438,0,0,1,.42-1.965,3.28,3.28,0,0,1,1.176-1.354,2.956,2.956,0,0,1,1.637-.489,2.77,2.77,0,0,1,2.242.95,4.114,4.114,0,0,1,.8,2.721v.526h-5.011a2.629,2.629,0,0,0,.639,1.767,2.009,2.009,0,0,0,1.555.673,2.2,2.2,0,0,0,1.135-.273,2.851,2.851,0,0,0,.813-.725l.772.6A3.106,3.106,0,0,1,110.558.137ZM110.4-6.494a1.687,1.687,0,0,0-1.285.557,2.708,2.708,0,0,0-.643,1.562h3.705v-.1a2.409,2.409,0,0,0-.52-1.494A1.588,1.588,0,0,0,110.4-6.494Zm8.812,4.532a.931.931,0,0,0-.386-.8,3.718,3.718,0,0,0-1.347-.489,6.367,6.367,0,0,1-1.524-.492,2.169,2.169,0,0,1-.834-.684,1.635,1.635,0,0,1-.27-.943A1.919,1.919,0,0,1,115.62-6.9a3,3,0,0,1,1.965-.629,3.091,3.091,0,0,1,2.041.649,2.063,2.063,0,0,1,.783,1.661h-1.271a1.142,1.142,0,0,0-.441-.9,1.652,1.652,0,0,0-1.111-.376,1.729,1.729,0,0,0-1.08.3.947.947,0,0,0-.39.786.767.767,0,0,0,.362.69,4.458,4.458,0,0,0,1.309.444,6.821,6.821,0,0,1,1.535.506,2.239,2.239,0,0,1,.872.708,1.74,1.74,0,0,1,.284,1.008,1.893,1.893,0,0,1-.793,1.589,3.326,3.326,0,0,1-2.058.6,3.725,3.725,0,0,1-1.572-.314,2.557,2.557,0,0,1-1.07-.878,2.117,2.117,0,0,1-.386-1.22h1.265a1.309,1.309,0,0,0,.509,1.008,1.976,1.976,0,0,0,1.254.373,2.039,2.039,0,0,0,1.152-.291A.893.893,0,0,0,119.212-1.962Z" transform="translate(895 13385)" fill="#12263f"/>
  </g>
</svg>
